DBRep_DrawableShape

CASCADE Topology V1, (c) Matra-Datavision
Locations 5
1
              1               0               0               0 
              0 2.22044604925031e-16              -1               0 
              0               1 2.22044604925031e-16               0 
1
              1               0               0               0 
              0               1               0               0 
              0               0               1               0 
1
              1               0               0               0 
              0 1.11022302462516e-16              -1               0 
              0               1 1.11022302462516e-16               0 
2  2 1 3 -1 0
2  3 1 2 -1 0
Curve2ds 21
1 0 0 0 1 
1 0 0 1 0 
1 0 126 0.93743686656109215 -0.3481553119113957 
1 0 0 0.93743686656109215 -0.3481553119113957 
1 26.92582403567252 10 0 1 
1 10 10 1 0 
1 0 0 0.93743686656109215 0.3481553119113957 
1 10 0 0 -1 
1 0 -126 1 0 
1 116 10 0 1 
1 26.925824035672523 -10 0 -1 
1 0 -96 0.93743686656109215 0.3481553119113957 
1 126 0 0 1 
1 0 0 0 -1 
1 10 10 0 1 
1 26.92582403567252 -10 0 -1 
1 10 86 1 0 
1 0 96 1 0 
1 10 0 0 1 
1 0 126 1 0 
1 96 0 0 1 
Curves 20
1 0 0 0 0 0 1 
1 0 0 126 0.3481553119113957 0.8703882797784892 -0.3481553119113957 
1 10 25 10 0 0 1 
1 0 0 0 0.3481553119113957 0.8703882797784892 0.3481553119113957 
1 0 0 0 0 0 1 
1 0 0 10 -0 1 0 
1 0 126 0 0 0 1 
1 10 25 116 1 0 -0 
1 96 0 126 -0.3481553119113957 0.8703882797784892 -0.3481553119113957 
1 0 0 126 1 0 -0 
1 10 25 10 1 0 -0 
1 86 25 10 0 0 1 
1 96 0 0 -0.3481553119113957 0.8703882797784892 0.3481553119113957 
1 0 0 0 1 0 -0 
1 96 0 0 0 0 1 
1 0 0 10 1 0 -0 
1 0 126 10 1 0 -0 
1 96 0 10 -0 1 0 
1 96 126 0 0 0 1 
1 96 0 0 0 0 1 
Polygon3D 0
PolygonOnTriangulations 0
Surfaces 11
1 0 0 0 0.9284766908852593 -0.37139067635410372 -0 0.37139067635410372 0.9284766908852593 0 0 -0 1 
1 0 0 0 -0 1 0 0 0 1 1 0 -0 
1 0 0 126 0 0.37139067635410372 0.9284766908852593 0 0.9284766908852593 -0.37139067635410372 -1 0 0 
1 0 25 0 -0 1 0 0 0 1 1 0 -0 
1 0 0 0 0 -0.37139067635410372 0.9284766908852593 0 0.9284766908852593 0.37139067635410372 -1 0 0 
1 0 0 0 1 0 -0 0 0 1 0 -1 0 
1 0 0 0 -0 1 0 0 0 1 1 0 -0 
1 0 0 10 0 0 1 1 0 -0 -0 1 0 
1 0 126 0 -0 1 0 0 0 1 1 0 -0 
1 96 0 0 0.9284766908852593 0.37139067635410372 0 -0.37139067635410372 0.9284766908852593 0 0 -0 1 
1 96 0 0 1 0 -0 0 0 1 0 -1 0 
Triangulations 0

TShapes 54
Ve
1.00000012823076e-07
0 0 0
0 0

0101101
*
Ve
1.0000001398881e-07
0 126 6.99440505513849e-15
0 0

0101101
*
Ed
 1.00000012823076e-07 1 1 0
1  1 0 0 126
2  1 1 0 0 126
2  2 2 0 0 126
0

0101000
+54 5 -53 5 *
Ve
1e-07
10 25 116
0 0

0101101
*
Ed
 1e-07 1 1 0
1  2 0 0 28.7228132326901
2  3 1 0 0 28.7228132326901
2  4 3 0 0 28.7228132326901
0

0101000
+53 5 -51 0 *
Ve
1e-07
10 25 10
0 0

0101101
*
Ed
 1e-07 1 1 0
1  3 0 0 106
2  5 1 0 0 106
2  6 4 0 0 106
0

0101000
-51 0 +49 0 *
Ed
 1e-07 1 1 0
1  4 0 0 28.7228132326901
2  7 1 0 0 28.7228132326901
2  4 5 0 0 28.7228132326901
0

0101000
+54 5 -49 0 *
Wi

0101100
-52 4 -50 4 +48 4 +47 4 *
Fa
0  1e-07 1 4

0101000
+46 0 *
Ve
1e-07
0 0 10
0 0

0101101
*
Ed
 1e-07 1 1 0
1  5 0 0 10
2  2 6 0 0 10
2  2 7 0 0 10
0

0101000
+54 0 -44 0 *
Ve
1e-07
0 126 10
0 0

0101101
*
Ed
 1e-07 1 1 0
1  6 0 0 126
2  8 6 0 0 126
2  1 8 0 0 126
0

0101000
-42 0 +44 0 *
Ed
 1e-07 1 1 0
1  7 0 0 10
2  9 6 0 0 10
2  2 9 0 0 10
0

0101000
+53 0 -42 0 *
Wi

0101100
-43 0 -41 0 +40 0 +52 4 *
Fa
0  1e-07 6 0

0101000
+39 0 *
Ve
1e-07
86 25 116
0 0

0101101
*
Ed
 1e-07 1 1 0
1  8 0 0 76
2  10 4 0 0 76
2  11 3 0 0 76
0

0101000
-37 0 +51 0 *
Ve
1.0000001398881e-07
96 126 6.99440505513849e-15
0 0

0101101
*
Ed
 1e-07 1 1 0
1  9 0 0 28.7228132326901
2  3 10 0 0 28.7228132326901
2  12 3 0 0 28.7228132326901
0

0101000
+35 5 -37 0 *
Ed
 1.0000001398881e-07 1 1 0
1  10 0 0 96
2  13 2 0 0 96
2  14 3 0 0 96
0

0101000
+53 5 -35 5 *
Wi

0101100
-50 4 -36 4 +34 4 +33 4 *
Fa
0  1e-07 3 4

0101000
+32 0 *
Ve
1e-07
86 25 10
0 0

0101101
*
Ed
 1e-07 1 1 0
1  11 0 0 76
2  15 4 0 0 76
2  16 5 0 0 76
0

0101000
-30 0 +49 0 *
Ed
 1e-07 1 1 0
1  12 0 0 106
2  5 10 0 0 106
2  17 4 0 0 106
0

0101000
-37 0 +30 0 *
Wi

0101100
-29 0 -28 0 +36 0 +48 0 *
Fa
0  1e-07 4 0

0111000
+27 0 *
Ve
1.00000012823076e-07
96 0 0
0 0

0101101
*
Ed
 1e-07 1 1 0
1  13 0 0 28.7228132326901
2  7 10 0 0 28.7228132326901
2  12 5 0 0 28.7228132326901
0

0101000
+25 5 -30 0 *
Ed
 1e-07 1 1 0
1  14 0 0 96
2  1 2 0 0 96
2  14 5 0 0 96
0

0101000
+54 5 -25 5 *
Wi

0101100
-47 4 -29 4 +24 4 +23 4 *
Fa
0  1e-07 5 4

0101000
+22 0 *
Ve
1e-07
96 0 10
0 0

0101101
*
Ed
 1e-07 1 1 0
1  15 0 0 10
2  2 11 0 0 10
2  18 7 0 0 10
0

0101000
+25 0 -20 0 *
Ed
 1e-07 1 1 0
1  16 0 0 96
2  19 7 0 0 96
2  2 8 0 0 96
0

0101000
-20 0 +44 0 *
Wi

0101100
-23 4 -19 0 +18 0 +43 0 *
Fa
0  1e-07 7 0

0101000
+17 0 *
Ve
1e-07
96 126 10
0 0

0101101
*
Ed
 1e-07 1 1 0
1  17 0 0 96
2  19 9 0 0 96
2  20 8 0 0 96
0

0101000
-15 0 +42 0 *
Ed
 1e-07 1 1 0
1  18 0 0 126
2  8 11 0 0 126
2  21 8 0 0 126
0

0101000
-15 0 +20 0 *
Wi

0101100
-41 0 -14 0 +13 0 +18 0 *
Fa
0  1e-07 8 0

0111000
+12 0 *
Ed
 1e-07 1 1 0
1  19 0 0 10
2  9 11 0 0 10
2  18 9 0 0 10
0

0101000
+35 0 -15 0 *
Wi

0101100
-33 4 -10 0 +14 0 +40 0 *
Fa
0  1e-07 9 0

0101000
+9 0 *
Ed
 1.00000012823076e-07 1 1 0
1  20 0 0 126
2  1 10 0 0 126
2  18 2 0 0 126
0

0101000
+25 5 -35 5 *
Wi

0101100
-7 4 -34 4 +28 4 +24 4 *
Fa
0  1e-07 10 4

0101000
+6 0 *
Wi

0101100
-19 0 -13 0 +10 0 +7 4 *
Fa
0  1e-07 11 0

0101000
+4 0 *
Sh

0101100
-45 0 -38 0 +31 0 +26 4 -21 0 -16 0 +11 0 +8 0 +5 0 +3 0 
*
So

0100000
+2 0 *

+1 1 