DBRep_DrawableShape

CASCADE Topology V1, (c) Matra-Datavision
Locations 36
1
              1               0               0               0 
              0              -0              -1               0 
              0               1              -0               0 
1
              1               0               0               0 
              0              -0              -1               0 
              0               1              -0               0 
1
              1               0               0               0 
              0              -0              -1               0 
              0               1              -0               0 
2  2 1 3 -1 0
1
              1               0               0               0 
              0              -0              -1               0 
              0               1              -0               0 
1
              1               0               0               0 
              0              -0              -1               0 
              0               1              -0               0 
2  5 1 6 -1 0
2  5 -1 0
2  6 1 5 -1 0
2  5 1 6 -1 2 1 3 -1 0
1
              1               0               0               0 
              0               1               0               0 
              0               0               1               0 
1
              1              -0        2.06e-13               0 
       2.06e-13               0              -1              -0 
              0               1              -0              -0 
1
              1               0               0  5.38367644e-07 
              0               1               0 -0.352304246140099 
              0               0               1 3.98445500892548 
2  11 1 12 1 6 -1 13 1 0
2  11 1 12 1 6 -1 0
2  6 1 12 -1 11 -1 0
2  13 -1 6 1 12 -1 11 -1 0
2  12 -1 11 -1 0
2  5 1 12 -1 11 -1 0
2  6 -1 0
2  6 -1 13 1 2 1 3 -1 0
2  11 1 12 1 0
2  3 1 2 -1 6 1 5 -1 0
2  2 -1 6 1 5 -1 0
1
              1               0               0               0 
              0               1               0               0 
              0               0               1               0 
1
      2.497e-12 -0.493485113982077 0.869754242460534 -3.14441466e-07 
     -1.417e-12 -0.869754242460534 -0.493485113982077  1.78409228e-07 
              1 -2.09431953330215e-16 -2.87104474993656e-12               0 
2  25 1 26 1 3 -1 0
2  3 1 26 -1 25 -1 0
1
              1               0               0 1.73950848492107 
              0               1               0      -5.742e-12 
              0               0               1 0.986970227964154 
2  29 -1 3 1 26 -1 25 -1 0
2  26 -1 25 -1 0
2  5 1 6 -1 2 1 26 -1 25 -1 0
2  3 -1 0
2  25 1 26 1 3 -1 29 1 0
2  3 -1 29 1 0
2  25 1 26 1 0
Curve2ds 52
1 0 0 0 1 
8 0 6.2903483332289811
1 2 0 0 1 
1 -2 1.0000000000000018 1 -0 
1 0 0 1 0 
1 -0 -1 1 0 
1 4 0 0 1 
8 0 6.2903483332289811
1 0 0 0 1 
1 0 6.2903483332289811 1 0 
8 0 4
1 0 0 1 0 
1 -2 -1 0 1 
7 0 0  1 2 2  0 1.0000000000000053  1.7800000000000001e-15 -0.99999999999999645 
 0 2 2 2
8 0 2
1 0 0 1 0 
1 0 0 -1.3459170566000003e-07 -0.99999999999999101 
1 0 -0 0.088076061535024813 -0.99611375223137977 
1 8 0 -1.3459170566000003e-07 -0.99999999999999101 
1 -5.3836682273999999e-07 -3.9999999999999645 1 0 
1 4 -1 -1 0 
1 1.9999999999999982 1.0000000000000018 -0 -1 
1 3.9999999999999982 -1 -0 1 
1 2 0 0 1 
1 1.9999999999999982 -0.99999999999999822 -1 0 
7 0 0  1 2 2  4.0000000000000018 1  0 1.0000000000000018 
 0 2 4 2
1 -4 1 -0 -1 
1 4 1 -1 0 
1 2 -0 0.088076061535024813 -0.99611375223137977 
1 0 -0 1 -0 
1 0.3523042461400987 -3.9844550089255191 1 -0 
1 3.9999999999999982 -1 0 1 
8 0 2.0892676405221429
1 2 0 0 1 
8 0 2.0892676405221429
1 0 0 0 1 
1 0 2.0892676405221429 1 0 
1 -2.0000004542265657 -0.99999909154635347 0.99999999999989697 -4.5422677292999998e-07 
7 0 0  1 2 2  2.0000007817451859 -3.1696543481982111  -1.9999992182544037 -3.1696525312911241 
 0 2 4 2
1 -1.9999995457730193 1.0000009084534405 -4.5422677294e-07 -0.99999999999989686 
1 1.9999995457730213 -1.0000009084534476 4.5422677294e-07 0.99999999999989686 
1 -1.9999992182544011 -3.1696525312911241 -4.5422677274999998e-07 -0.99999999999989686 
1 0 0 1 -0 
1 9.4000000000000009e-16 -2.0000000000000009 1 -0 
1 1.9999998732916437 -5.1696543481980051 -2.1000000000000001e-16 1 
1 -1.9999995457730231 1.0000009084534369 1.0000000000000001e-17 -1 
1 9.4000000000000009e-16 -1.9999999999999998 1 -0 
1 -2.0000001267079446 -5.1696525312909181 -2.1000000000000001e-16 1 
1 1.9999998732916415 5.1696534397446712 -1 -2.1000000000000001e-16 
1 2.0000004542265675 0.99999909154634636 -0.99999999999989697 4.5422677292999998e-07 
1 -2.0000001267079468 -5.1696525312909181 0.99999999999989686 -4.5422677272999999e-07 
1 0 0 -3.0000000000000001e-17 -1 
1 4.0000000000000018 -1.1100000000000001e-15 -1.7e-16 -1 
1 10.33930778794268 -2.7e-16 -3.0000000000000001e-17 -1 
1 0 0 -1.7e-16 -1 
1 10.339305971035593 1.7e-16 -3.0000000000000001e-17 -1 
1 -1.0000000000000001e-15 -2.0000000000000004 1 0 
1 -2.0000001267079446 -5.1696525312909181 0.99999999999989686 -4.5422677154000002e-07 
Curves 52
7 0 0  11 21 3  -12.999999999999995 12.999999999999837 2.68052e-12  -13.000000347304022 13.227272032662754 -3.7127913278852582  -11.833591684846644 13.454546679879945 -7.4255834935456946  -9.5007768604979805 13.681816384014489 -10.731218825801291  -6.1614428804624666 13.909091973836748 -13.222552539447854  -2.1353647386545145 14.136363281198507 -14.564194319447722  2.1353649274591477 14.363635946875741 -14.56420184966511  6.1614428069490028 14.590909253769402 -13.222546769449728  9.5007764532144776 14.818181652776962 -10.731221878530587  11.83359226864504 15.045454423297773 -7.425582622527922  14.166407848750506 15.499999890072679 9.1052291899999999e-09  11.833592247876741 15.954545356849202 7.4255826342107332  9.5007764544712465 16.18181812736584 10.731221694628642  6.1614428557254151 16.409090526384812 13.222547712341706  2.1353645790853095 16.636363833257931 14.564199824224454  -2.1353638591144311 16.86363649896121 14.56419693373372  -6.1614444662657482 17.090907806298819 13.222550420644442  -9.5007750630101757 17.31818339613757 10.731219815019802  -11.833593039048704 17.545453100264638 7.4255832608615604  -12.999999767162983 17.77272774748236 3.7127913119851859  -13.000000109926036 17.999999780147739 -1.5900557129999999e-08 
 0 12 3.1451741666144906 9 6.2903483332289811 12
1 -13 12.999999999999837 2.6788399999999999e-12 1 -0 -2.0607999999999999e-13 
7 0 0  11 21 3  -8.9999999999999982 12.999999999999837 1.8545200000000001e-12  -9.0000003473039492 13.227273421883417 -2.5703940106895704  -8.1924863831887436 13.454544229206787 -5.1407889093413095  -6.577461690337671 13.681819979631248 -7.429303272078033  -4.2656117778306628 13.909089844326639 -9.154079829410227  -1.4783339565417613 14.136363991552686 -10.082897216187913  1.4783337863434307 14.363636780373493 -10.082914164430463  4.2656122161817978 14.590908928064012 -9.1540683888028287  6.5774610161995923 14.818181983579469 -7.429308109332041  8.1924869667697262 15.045454667612439 -5.1407879743909817  9.807513141542552 15.50000010992609 -8.2238628499999998e-09  8.1924869641679905 15.954545552241749 5.1407879571238215  6.5774610437076459 16.181818236269468 7.4293079021857986  4.2656122973161912 16.409091291799626 9.1540693166193066  1.4783334735804994 16.636363439462322 10.082912133775798  -1.478333041345768 16.863636228320789 10.082899835677203  -4.2656133313052553 17.090910375509733 9.1540777257064914  -6.5774598665866337 17.318180240232127 7.4293042845187687  -8.1924877192271346 17.545455990641088 5.1407887056185624  -8.9999997580792659 17.772726797972755 2.5703940265903205  -9.0000001099260594 18.000000219851923 1.5904944090000001e-08 
 0 12 3.1451741666144906 9 6.2903483332289811 12
7 0 0  1 2 2  -13.000000109926036 17.999999780147739 -1.5900557129999999e-08  -9.0000001099260594 18.000000219851923 1.5904944090000001e-08 
 0 2 4 2
7 0 0  11 21 3  -13 10.999999999999835 2.6787500000000001e-12  -12.999999652693633 11.227272032662377 -3.7127912964901486  -11.833592929909521 11.454546679881721 -7.4255832125378101  -9.500774969538476 11.681816384009849 -10.731219735898536  -6.1614443980135913 11.909091973844857 -13.222550316372081  -2.1353638232266223 12.136363281188443 -14.564196813190067  2.1353645788225371 12.36363594688479 -14.564199698456921  6.1614428198029172 12.590909253763563 -13.222547593004046  9.5007763872542519 12.818181652779533 -10.731221592263799  11.833592156893808 13.045454423297103 -7.4255825569511451  14.166407728960824 13.499999890073457 8.2202406200000004e-09  11.833592159500348 13.954545356848321 7.4255825742072536  9.5007763597563208 14.181818127369604 10.731221799412451  6.1614427386709556 14.40909052637625 13.222546665166959  2.1353648916071095 14.636363833271307 14.564201729130767  -2.1353647384264822 14.863636498945947 14.56419419367875  -6.1614428445164329 15.090907806311636 13.222552420107327  -9.5007767932920277 15.318183396129834 10.731218723436278  -11.833591593860483 15.545453100267821 7.4255834162899408  -13.00000024191778 15.772727747481598 3.7127912805900056  -12.999999890073948 15.999999780147748 -1.5900457650000001e-08 
 0 12 3.1451741666144906 9 6.2903483332289811 12
7 0 0  1 2 2  -13 10.999999999999831 2.6787500000000001e-12  -12.999999999999998 12.999999999999833 2.68052e-12 
 0 2 2 2
7 0 0  1 2 2  -12.999999890073944 15.99999978014775 -1.5900457650000001e-08  -13.000000109926038 17.999999780147739 -1.5900557129999999e-08 
 0 2 2 2
1 -9 12.999999999999837 1.8548300000000001e-12 1.3459191092e-07 -0.088076061535024813 0.99611375223137066 
1 -17 12.999999999999837 3.50335e-12 1.3459191092e-07 -0.088076061535024813 0.99611375223137066 
1 -9 12.999999999999837 0 -1 0 0 
1 -9.0000000000000018 12.999999999999837 1.85465e-12 -0 -1 -1.0000000000000001e-17 
7 0 0  11 21 3  -8.9999999999999982 10.999999999999837 1.85274e-12  -8.9999996526935213 11.227273421883522 -2.5703939792947552  -8.1924876282517172 11.4545442292067 -5.1407886283321975  -6.5774597993781168 11.681819979630722 -7.4293041821782122  -4.2656132953816215 11.909089844328513 -9.1540776063296079  -1.4783330411143043 12.13636399154954 -10.082899709936083  1.4783334377073218 12.363636780376883 -10.082912013217097  4.2656122290353888 12.590908928061525 -9.1540692123604224  6.5774609502394545 12.818181983580716 -7.4293078230639633  8.1924868550185099 13.045454667612093 -5.1407879088143664  9.8075130217528841 13.500000109926425 -9.1089488100000008e-09  8.1924868757915306 13.95454555224144 5.1407878971207204  6.5774609489931555 14.181818236270944 7.4293080069673918  4.2656121802607023 14.409091291795889 9.1540682694499207  1.4783337861038093 14.636363439468536 10.082914038673596  -1.4783339206593751 14.863636228313622 10.08289709563201  -4.2656117095547907 15.09091037551566 9.1540797251611341  -6.5774615968690959 15.318180240228692 7.4293031929402611  -8.1924862740386573 15.545455990642427 5.1407888610448467  -9.0000002328341235 15.772726797972464 2.570393995195654  -8.9999998900739655 16.000000219851938 1.5905050669999999e-08 
 0 12 3.1451741666144906 9 6.2903483332289811 12
7 0 0  1 2 2  -9.0000001099260629 18.000000219851927 1.5904944090000001e-08  -8.9999998900739655 16.000000219851938 1.5905050669999999e-08 
 0 2 2 2
7 0 0  11 21 3  -13.000000109926019 17.999999780147739 -1.5900532449999999e-08  -13.000000452707782 18.227271812775143 -3.7127913751898767  -11.833591775818801 18.454546460023256 -7.4255835708218703  -9.5007769277207519 18.68181616414795 -10.731218928162258  -6.1614429163822111 18.909091753964248 -13.222552658816417  -2.1353647388975001 19.136363061333373 -14.564194445208976  2.1353649633399692 19.363635727008052 -14.564201970222845  6.1614428752276469 19.590909033901216 -13.222546873721722  9.500776546688444 19.81818143290997 -10.731221957656567  11.833592377799922 20.045454203429909 -7.425582670843025  14.166407968548263 20.499999670205387 2.643736131e-08  11.833592338861337 20.954545136981299 7.4255827114834334  9.5007765216854079 21.18181790749907 10.731221797001353  6.1614428916499326 21.409090306516077 13.222547831691474  2.1353645793256262 21.636363613390991 14.564199950009494  -2.135363894994736 21.863636279094607 14.564197054266295  -6.1614445345411921 22.090907586429779 13.222550524936192  -9.5007751564914855 22.318183176267336 10.731219894136286  -11.833593148194113 22.545452880406458 7.4255833091779051  -12.99999988164733 22.772727527602456 3.7127913274780613  -13.000000219855712 22.999999560288426 -3.1806271209999999e-08 
 0 12 3.1451741666144906 9 6.2903483332289811 12
7 0 0  11 21 3  -9.0000001099260434 18.000000219851923 1.5904973340000002e-08  -9.0000004617914726 18.22727364177511 -2.5703940261784299  -8.1924864923357479 18.454544449053063 -5.1407889576667323  -6.5774617838079559 18.681820199513698 -7.4293033511925737  -4.2656118461193984 18.909090064179836 -9.154079933693879  -1.4783339924073045 19.136364211437435 -10.082897336737318  1.4783337865762358 19.363637000224919 -10.082914290200852  4.2656122521121658 19.590909147942142 -9.1540685081592841  6.5774610834130502 19.818182203442529 -7.4293082117021942  8.192487057755482 20.045454887480812 -5.1407880516624243  9.8075132613399436 20.50000032979338 -2.5555067609999999e-08  8.1924870733226562 20.95454577210905 5.1407880054407151  6.5774611371787106 21.181818456139229 7.4293079813105276  4.2656123655983329 21.409091511662272 9.1540694208961355  1.4783335094520345 21.636363659336663 10.08291225432774  -1.4783330415807712 21.863636448182149 10.082899961446049  -4.2656133672347698 22.090910595379388 9.1540778450653804  -6.5774599338038175 22.318180460105079 7.4293043868865931  -8.1924878102054741 22.545456210496145 5.1407887828912306  -8.9999998634783864 22.772727017854102 2.5703940738914417  -9.0000002198558118 23.000000439711201 3.1809015039999998e-08 
 0 12 3.1451741666144906 9 6.2903483332289811 12
7 0 0  1 2 2  -13.000000219855712 22.999999560288426 -3.1806271209999999e-08  -9.0000002198558118 23.000000439711201 3.1809015039999998e-08 
 0 2 4 2
7 0 0  1 2 2  -8.9999999999999982 10.999999999999837 1.85274e-12  -13 10.999999999999835 2.6787500000000001e-12 
 0 2 4 2
7 0 0  1 2 2  -8.9999998900739655 16.000000219851934 1.5905050669999999e-08  -12.999999890073948 15.999999780147748 -1.5900457650000001e-08 
 0 2 4 2
1 -17 10.999999999999837 0 0 1 0 
1 -9 10.999999999999837 0 -1 0 0 
7 0 0  11 21 3  -12.99999989007393 15.999999780147755 -1.590042409e-08  -12.999999538207932 16.227271812775165 -3.7127912810007193  -11.833592820758279 16.454546460023497 -7.4255831642136787  -9.5007748760740824 16.68181616414736 -10.731219656782296  -6.1614443297187496 16.909091753964578 -13.22255021208969  -2.1353637873663445 17.136363061334865 -14.564196692640518  2.1353645785934581 17.363635727004446 -14.564199572685604  6.1614427838703332 17.590909033905412 -13.22254747364868  9.5007763200417479 17.818181432907352 -10.731221489893139  11.833592065907789 18.045454203430705 -7.4255824796797443  14.166407609163624 18.499999670204758 2.5551437379999999e-08  11.833592050345468 18.95454513698186 7.4255825258903396  9.5007762662862465 19.181817907497773 10.731221720289378  6.1614426703866441 19.409090306518127 13.222546560883679  2.1353648557393408 19.636363613388919 14.564201608590976  -2.1353647381974366 19.863636279096411 14.564194067896508  -6.1614428085792996 20.09090758642818 13.222552300755616  -9.500776726081984 20.318183176268843 10.731218621069377  -11.833591502877024 20.545452880405538 7.4255833390136328  -13.000000136520798 20.77272752760279 3.7127912332905755  -12.999999780144327 20.999999560288469 -3.1804333199999998e-08 
 0 12 3.1451741666144906 9 6.2903483332289811 12
7 0 0  1 2 2  -12.999999780144329 20.999999560288472 -3.1804327870000001e-08  -13.000000219855712 22.999999560288426 -3.1806271209999999e-08 
 0 2 2 2
1 -9 10.999999999999837 1.8548300000000001e-12 1.3459191092e-07 -0.088076061535024813 0.99611375223137066 
1 -9.0000000000000018 12.999999999999837 -0 0 -1 0 
1 -17 10.999999999999837 3.50335e-12 1.3459191092e-07 -0.088076061535024813 0.99611375223137066 
7 0 0  11 21 3  -8.9999998900739495 16.000000219851938 1.59050817e-08  -8.9999995472917806 16.22727364177501 -2.5703939319893641  -8.1924875372744843 16.454544449053994 -5.140788551058205  -6.577459732163196 16.681820199510859 -7.4293040798132699  -4.2656132594526195 16.909090064185502 -9.1540774869662336  -1.478333040880194 17.136364211429978 -10.082899584169812  1.4783334018332623 17.363637000231702 -10.082911892662972  4.2656121607526742 17.590909147938216 -9.1540691080864072  6.5774608567672015 17.818182203443808 -7.4293077439389084  8.1924867458632278 18.045454887480886 -5.1407878604989392  9.807512901955338 18.500000329792986 -2.6441439230000001e-08  8.1924867848067908 18.954545772109888 5.1407878198483123  6.5774608817795679 19.18181845613551 7.4293079045952855  4.2656121443348978 19.409091511670152 9.1540681500957319  1.4783337858659626 19.636363659325919 10.082913912898098  -1.4783338847836005 19.863636448192882 10.082896975088309  -4.2656116412728595 20.090910595371419 9.1540796208751569  -6.5774615033943151 20.318180460109634 7.4293031138253731  -8.1924861648883542 20.545456210494322 5.1407888127246073  -9.0000001183518687 20.772727017854571 2.570393979704523  -8.9999997801444227 21.000000439711251 3.181095304e-08 
 0 12 3.1451741666144906 9 6.2903483332289811 12
7 0 0  1 2 2  -9.0000002198558118 23.000000439711204 3.1809015039999998e-08  -8.9999997801444227 21.000000439711251 3.181095304e-08 
 0 2 2 2
7 0 0  11 21 3  -13.000000219855639 22.999999560288426 -3.1806337120000003e-08  -13.000000558112001 23.227271592881831 -3.7127914224965997  -11.833591866798074 23.454546240161882 -7.425583648100563  -9.5007769949344247 23.68181594427088 -10.731219030530729  -6.1614429523155989 23.909091534090777 -13.222552778182479  -2.1353647391238044 24.136362841458183 -14.564194570982341  2.1353649992113093 24.363635507135459 -14.564202090775874  6.1614429435165583 24.590908814027021 -13.22254697800162  9.5007766401634726 24.818181213036095 -10.731222036780993  11.833592486959231 25.045453983556136 -7.425582719159058  14.166408088349012 25.49999945033133 4.3772301679999999e-08  11.833592429848014 25.954544917107722 7.4255827887588071  9.5007765888986402 26.181817687624047 10.731221899379108  6.1614429275796301 26.409090086644802 13.222547951046405  2.1353645795524065 26.636363393513008 14.564200075791463  -2.1353639308593504 26.863636059226589 14.564197174813028  -6.1614446028386185 27.090907366549313 13.222550629223504  -9.5007752499637235 27.318182956395614 10.731219973251283  -11.833593257348376 27.545452660540867 7.4255833575015142  -12.999999996135474 27.772727307713044 3.7127913429651804  -13.000000329786534 27.999999340426466 -4.7713028009999999e-08 
 0 12 3.1451741666144906 9 6.2903483332289811 12
7 0 0  11 21 3  -9.0000002198557407 23.000000439711204 3.1808946589999999e-08  -9.0000005762810584 23.227273861671037 -2.5703940416709621  -8.1924866014859976 23.454544668909424 -5.1407890059883004  -6.5774618772836257 23.681820419394686 -7.4293034303155929  -4.2656119144029319 23.909090284052887 -9.1540800379770904  -1.4783340282822635 24.136364431309779 -10.082897457290208  1.4783337868166522 24.363637220101467 -10.082914415977003  4.2656122880396961 24.59090936781304 -9.154068627517109  6.5774611506302021 24.818182423317975 -7.4293083140758034  8.1924871487437265 25.045455107354293 -5.1407881289358404  9.8075133811410247 25.500000549667373 -4.2886317429999997e-08  8.1924871824801304 25.954545991982826 5.140788053758925  6.5774612306517675 26.181818676012373 7.4293080604388191  4.2656124338853694 26.409091731539327 9.1540695251739237  1.4783335453164563 26.636363879202655 10.082912374886609  -1.4783330418051877 26.863636668067496 10.082900087213019  -4.2656134031740924 27.090910815240576 9.1540779644363255  -6.5774600010196309 27.318180679993333 7.4293044892473663  -8.1924879011865617 27.545456430351248 5.1407888601710443  -8.999999968881788 27.772727237747354 2.5703941211939476  -9.0000003297867526 28.000000659573104 4.7711815889999998e-08 
 0 12 3.1451741666144906 9 6.2903483332289811 12
7 0 0  1 2 2  -13.000000329786534 27.999999340426466 -4.7713028009999999e-08  -9.0000003297867526 28.000000659573104 4.7711815889999998e-08 
 0 2 4 2
7 0 0  1 2 2  -8.9999997801444227 21.000000439711251 3.1810951269999998e-08  -12.999999780144327 20.999999560288469 -3.1804333199999998e-08 
 0 2 4 2
7 0 0  11 21 3  -12.999999780144257 20.999999560288472 -3.1804399110000003e-08  -12.999999423718211 21.227271592882115 -3.7127912655094151  -11.833592711608327 21.45454624016168 -7.4255831158895704  -9.5007747825981195 21.681815944270557 -10.731219577661506  -6.1614442614354461 21.909091534092759 -13.222550107806404  -2.1353637514912394 22.13636284145511 -14.564196572085264  2.1353645783530104 22.363635507138525 -14.564199446913028  6.16144274794281 22.590908814025315 -13.222547354288045  9.5007762528244797 22.818181213036805 -10.731221387520817  11.833591974919623 23.04545398355619 -7.4255824024061416  14.16640748936249 23.499999450331178 4.2882571650000001e-08  11.833591941188047 23.954544917108262 7.4255824775721102  9.5007761728115092 24.181817687622122 10.731221641161083  6.1614426021069777 24.409090086648664 13.222546456605956  2.1353648198587676 24.636363393508493 14.564201488031056  -2.1353647379514893 24.863636059230188 14.564193942131443  -6.1614427726564029 25.090907366547935 13.222552181385012  -9.5007766588592002 25.318182956395685 10.731218518704473  -11.833591411896942 25.545452660541304 7.4255832617383177  -13.000000031116711 25.772727307712934 3.7127911859859948  -12.999999670213224 25.999999340426569 -4.7707315239999999e-08 
 0 12 3.1451741666144906 9 6.2903483332289811 12
7 0 0  1 2 2  -12.999999670213221 25.999999340426569 -4.7707315239999999e-08  -13.000000329786534 27.999999340426463 -4.7713026229999998e-08 
 0 2 2 2
7 0 0  11 21 3  -8.9999997801443499 21.000000439711254 3.1810882819999998e-08  -8.9999994418872458 21.227273861670568 -2.5703938846841092  -8.1924874462962549 21.454544668912444 -5.140788473775987  -6.5774596649476349 21.681820419386174 -7.4293039774492495  -4.2656132235217763 21.909090284069379 -9.1540773675967664  -1.4783330406513051 22.136364431287813 -10.082899458397558  1.4783333659599966 22.363637220122726 -10.082911772110894  4.2656120924648047 22.590909367798726 -9.154069003805084  6.577460763291735 22.818182423324455 -7.4293076648153411  8.1924866367039844 23.045455107353064 -5.1407878121827615  9.8075127821546388 23.500000549668179 -4.3776421750000002e-08  8.1924866938199816 23.954545991982762 5.140787742572785  6.5774608145652342 24.181818676011986 7.4293078022181191  4.2656121084120411 24.409091731539991 9.1540680307395448  1.4783337856227527 24.636363879203572 10.082913787117052  -1.4783338488961115 24.863636668064665 10.082896854541429  -4.2656115729936701 25.090910815244406 9.1540795165895776  -6.5774614099137052 25.318180679990512 7.4293030347057032  -8.1924860557357491 25.545456430352758 5.1407887644055714  -9.0000000038628798 25.772727237747034 2.5703939642153353  -8.9999996702134428 26.000000659573214 4.7717525099999997e-08 
 0 12 3.1451741666144906 9 6.2903483332289811 12
7 0 0  1 2 2  -9.0000003297867561 28.000000659573104 4.7711817669999999e-08  -8.9999996702134428 26.000000659573214 4.7717525099999997e-08 
 0 2 2 2
7 0 0  9 10 2  -13.000000329786555 27.999999340426463 -4.7713005099999998e-08  -13.000000748520097 28.184519938665495 -3.0143944623693901  -12.213661669576405 28.369044136180396 -6.0287911713288365  -10.640984803664217 28.553560085437372 -8.8087493716860532  -8.3635150901004653 28.738089534888378 -11.119876550361091  -5.5442892915411512 28.922602017594322 -12.761697638051585  -2.4102815840459475 29.107131467045431 -13.602026103834378  0.78369438276058845 29.291647416302528 -13.598004409691793  3.7935238074993465 29.476171613816369 -12.794364050012142  6.4153063915536519 29.660692212057114 -11.306805725419622 
 0 10 2.0892676405221429 10
7 0 0  9 10 2  -9.0000003297867721 28.000000659573097 4.7711839810000001e-08  -9.0000007706476417 28.184522977001883 -2.0868887754173886  -8.4556117013556698 28.369041695161812 -4.1737766790209108  -7.3668357216163063 28.553568661559865 -6.098368319493594  -5.7901279434992308 28.738082127801118 -7.6983731316995021  -3.8383505206018382 28.922612560736582 -8.8350222045585198  -1.6686600980122799 29.107126026979021 -9.416788329102765  0.54255929054040897 29.291652993375642 -9.4140024740337029  2.6262852747078167 29.476171711537191 -8.8576368776157377  4.4413659356255453 29.660694028964205 -7.8277887555778438 
 0 10 2.0892676405221429 10
7 0 0  1 2 2  6.4153063915536519 29.660692212057114 -11.306805725419622  4.4413659356255453 29.660694028964205 -7.8277887555778438 
 0 2 4 2
7 0 0  1 2 2  -8.9999996702134393 26.000000659573214 4.7717526879999998e-08  -12.999999670213224 25.999999340426569 -4.7707315239999999e-08 
 0 2 4 2
7 0 0  9 10 2  -12.99999967021324 25.999999340426569 -4.770729589e-08  -12.999999229353287 26.184519938665897 -3.0143942805694017  -12.213662945038276 26.369044136180293 -6.0287905834993873  -10.640981398475276 26.553560085437809 -8.8087492474350668  -8.3635161926814288 26.738089534887504 -11.119876073800476  -5.5442895813989006 26.922602017596578 -12.761695374968733  -2.4102797209834792 27.107131467043409 -13.602027486185937  0.78369314754598984 27.291647416303835 -13.598001950280789  3.7935239414981545 27.476171613816259 -12.794363917804485  6.4153059432403561 27.66069221205732 -11.306804935291131 
 0 10 2.0892676405221429 10
1 6.4153059432403543 27.660692212057317 -11.30680493529113 2.2415664791e-07 0.99999999999989686 -3.9506424599000002e-07 
7 0 0  9 10 2  -8.9999996702134517 26.000000659573203 4.7717549019999999e-08  -8.9999992514807872 26.184522977002366 -2.0868885936173682  -8.4556129768177115 26.369041695161442 -4.1737760911915922  -7.3668323164270841 26.553568661560732 -6.0983681952422986  -5.7901290460805157 26.738082127799789 -7.698372655139317  -3.8383508104592963 26.922612560739189 -8.8350199414752915  -1.6686582349500181 27.107126026976783 -9.4167897114545411  0.54255805532591039 27.291652993377031 -9.4140000146226228  2.626285408706603 27.476171711537049 -8.857636745408092  4.4413654873122539 27.660694028964414 -7.8277879654493532 
 0 10 2.0892676405221429 10
1 4.4413659356255462 29.660694028964205 -7.8277887555778474 -2.2415664791e-07 -0.99999999999989686 3.9506424599000002e-07 
1 27.66069221205732 -12.999999545773024 0 1 0 0 
1 27.660694028964407 -8.9999995457734343 0 1 0 0 
1 38 -12.999999545773024 0 0 1 0 
1 4.4413654873122503 27.660694028964411 -7.827787965449355 0.49348511398202599 -4.5422677292999998e-07 -0.86975424246044397 
1 6.415305943240357 27.66069221205732 -11.306804935291133 0.86975424246053357 -2.87109e-12 0.49348511398207706 
1 6.4153059432661754 38 -11.306804935276483 0.86975424246053357 -2.87109e-12 0.49348511398207706 
1 4.4413654873122512 27.660694028964407 -7.8277879654493567 0.86975424246053357 -2.87109e-12 0.49348511398207706 
1 4.4413654873380697 38 -7.827787965434708 0.86975424246053357 -2.87109e-12 0.49348511398207706 
1 27.660694028964407 -8.9999995457734343 1.1e-16 -4.5422677174999997e-07 -0.99999999999989697 -2.2e-16 
Polygon3D 0
PolygonOnTriangulations 0
Surfaces 28
9 0 0 0 0 1 11 2 21 2 3 -12.999999999999995 12.999999999999837 2.68052e-12  -13.000000347304022 13.227272032662754 -3.7127913278852582  -11.833591684846644 13.454546679879945 -7.4255834935456946  -9.5007768604979805 13.681816384014489 -10.731218825801291  -6.1614428804624666 13.909091973836748 -13.222552539447854  -2.1353647386545145 14.136363281198507 -14.564194319447722  2.1353649274591477 14.363635946875741 -14.56420184966511  6.1614428069490028 14.590909253769402 -13.222546769449728  9.5007764532144776 14.818181652776962 -10.731221878530587  11.83359226864504 15.045454423297773 -7.425582622527922  14.166407848750506 15.499999890072679 9.1052291899999999e-09  11.833592247876741 15.954545356849202 7.4255826342107332  9.5007764544712465 16.18181812736584 10.731221694628642  6.1614428557254151 16.409090526384812 13.222547712341706  2.1353645790853095 16.636363833257931 14.564199824224454  -2.1353638591144311 16.86363649896121 14.56419693373372  -6.1614444662657482 17.090907806298819 13.222550420644442  -9.5007750630101757 17.31818339613757 10.731219815019802  -11.833593039048704 17.545453100264638 7.4255832608615604  -12.999999767162983 17.77272774748236 3.7127913119851859  -13.000000109926036 17.999999780147739 -1.5900557129999999e-08  
-8.9999999999999982 12.999999999999837 1.8545200000000001e-12  -9.0000003473039492 13.227273421883417 -2.5703940106895704  -8.1924863831887436 13.454544229206787 -5.1407889093413095  -6.577461690337671 13.681819979631248 -7.429303272078033  -4.2656117778306628 13.909089844326639 -9.154079829410227  -1.4783339565417613 14.136363991552686 -10.082897216187913  1.4783337863434307 14.363636780373493 -10.082914164430463  4.2656122161817978 14.590908928064012 -9.1540683888028287  6.5774610161995923 14.818181983579469 -7.429308109332041  8.1924869667697262 15.045454667612439 -5.1407879743909817  9.807513141542552 15.50000010992609 -8.2238628499999998e-09  8.1924869641679905 15.954545552241749 5.1407879571238215  6.5774610437076459 16.181818236269468 7.4293079021857986  4.2656122973161912 16.409091291799626 9.1540693166193066  1.4783334735804994 16.636363439462322 10.082912133775798  -1.478333041345768 16.863636228320789 10.082899835677203  -4.2656133313052553 17.090910375509733 9.1540777257064914  -6.5774598665866337 17.318180240232127 7.4293042845187687  -8.1924877192271346 17.545455990641088 5.1407887056185624  -8.9999997580792659 17.772726797972755 2.5703940265903205  -9.0000001099260594 18.000000219851923 1.5904944090000001e-08  

0 2
4 2

0 12
3.1451741666144906 9
6.2903483332289811 12

9 0 0 0 0 1 11 2 21 2 3 -13 10.999999999999831 2.6787500000000001e-12  -12.999999652693647 11.227272032662819 -3.7127912964901313  -11.833592929909463 11.454546679879934 -7.4255832125379024  -9.5007749695386341 11.681816384014054 -10.731219735898254  -6.1614443980132823 11.909091973837835 -13.222550316372621  -2.1353638232270433 12.136363281197283 -14.564196813189396  2.1353645788228777 12.363635946876355 -14.564199698457465  6.1614428198028097 12.590909253769494 -13.222547593003727  9.5007763872542039 12.818181652776687 -10.731221592264019  11.833592156893841 13.045454423297832 -7.4255825569509524  14.166407728960811 13.49999989007277 8.2198343499999995e-09  11.833592159500327 13.954545356848966 7.4255825742078816  9.500776359756486 14.181818127367444 10.731221799409608  6.1614427386705071 14.409090526380478 13.222546665173093  2.1353648916078853 14.636363833265435 14.564201729121853  -2.135364738427493 14.863636498952115 14.564194193688147  -6.1614428445154106 15.090907806306662 13.222552420100019  -9.5007767932927951 15.318183396132801 10.73121872344044  -11.83359159386009 15.545453100266592 7.4255834162882888  -13.000000241917876 15.772727747481891 3.7127912805903964  -12.999999890073944 15.99999978014775 -1.5900457650000001e-08  
-12.999999999999998 12.999999999999833 2.68052e-12  -13.000000347303944 13.227272032662567 -3.7127913278850149  -11.833591684846946 13.454546679880615 -7.4255834935467018  -9.5007768604973197 13.681816384013125 -10.731218825798882  -6.1614428804635688 13.909091973838592 -13.222552539451877  -2.1353647386530739 14.136363281196738 -14.564194319442715  2.1353649274576632 14.363635946876903 -14.564201849669809  6.1614428069501681 14.590909253768965 -13.222546769446542  9.5007764532138488 14.81818165277695 -10.731221878531967  11.833592268645214 15.045454423297922 -7.4255826225276982  14.166407848750346 15.499999890072331 9.1052371799999993e-09  11.833592247876883 15.95454535684974 7.4255826342104916  9.5007764544707651 16.181818127363325 10.731221694630179  6.1614428557263725 16.409090526390536 13.222547712337985  2.1353645790839808 16.636363833249224 14.56419982423029  -2.1353638591130499 16.863636498970756 14.564196933727162  -6.1614444662668504 17.090907806291067 13.222550420649856  -9.5007750630095025 17.318183396142203 10.73121981501653  -11.833593039049012 17.545453100262705 7.4255832608629451  -12.999999767162901 17.772727747482826 3.7127913119848457  -13.000000109926038 17.999999780147739 -1.5900557129999999e-08  

0 2
2 2

0 12
3.1451741666144906 9
6.2903483332289811 12

1 -11 11.999999999999835 2.2667199999999999e-12 2.0607e-13 2.0000000000000001e-17 1 1 0 -2.0607e-13 -4.1214e-30 1 -2.0000000000000001e-17 
1 -13 -2.6817600000000001e-12 11.999999999999837 -2.0607e-13 1 2.2e-16 1 2.0607e-13 0 -4.5335400000000002e-29 2.2e-16 -1 
9 0 0 0 0 1 11 2 21 2 3 -9.0000000000000018 12.999999999999835 1.85629e-12  -9.0000003473039261 13.227273421883151 -2.5703940106898759  -8.1924863831888022 13.454544229207908 -5.1407889093400101  -6.5774616903376746 13.681819979628493 -7.4293032720812224  -4.2656117778304239 13.909089844331341 -9.1540798294047026  -1.4783339565423541 14.136363991546681 -10.082897216194949  1.4783337863442703 14.363636780379267 -10.082914164423853  4.2656122161810233 14.590908928059942 -9.1540683888072323  6.5774610162000418 14.818181983581418 -7.4293081093301661  8.1924869667695965 15.045454667611969 -5.1407879743912819  9.8075131415426817 15.500000109926447 -8.2238199700000007e-09  8.1924869641678715 15.954545552241514 5.1407879571240285  6.577461043708043 16.181818236270114 7.4293079021844219  4.2656122973155046 16.409091291798223 9.1540693166224578  1.478333473581311 16.636363439464493 10.082912133771242  -1.4783330413464624 16.863636228318356 10.082899835681928  -4.2656133313048326 17.090910375511722 9.1540777257028516  -6.5774598665868114 17.318180240230987 7.4293042845208417  -8.1924877192270849 17.545455990641539 5.1407887056177382  -8.9999997580792783 17.772726797972648 2.5703940265905123  -9.0000001099260629 18.000000219851927 1.5904944090000001e-08  
-8.9999999999999982 10.999999999999837 1.85274e-12  -8.9999996526935213 11.227273421883522 -2.5703939792947552  -8.1924876282517172 11.4545442292067 -5.1407886283321975  -6.5774597993781168 11.681819979630722 -7.4293041821782122  -4.2656132953816215 11.909089844328513 -9.1540776063296079  -1.4783330411143043 12.13636399154954 -10.082899709936083  1.4783334377073218 12.363636780376883 -10.082912013217097  4.2656122290353888 12.590908928061525 -9.1540692123604224  6.5774609502394545 12.818181983580716 -7.4293078230639633  8.1924868550185099 13.045454667612093 -5.1407879088143664  9.8075130217528841 13.500000109926425 -9.1089488100000008e-09  8.1924868757915306 13.95454555224144 5.1407878971207204  6.5774609489931555 14.181818236270944 7.4293080069673918  4.2656121802607023 14.409091291795889 9.1540682694499207  1.4783337861038093 14.636363439468536 10.082914038673596  -1.4783339206593751 14.863636228313622 10.08289709563201  -4.2656117095547907 15.09091037551566 9.1540797251611341  -6.5774615968690959 15.318180240228692 7.4293031929402611  -8.1924862740386573 15.545455990642427 5.1407888610448467  -9.0000002328341235 15.772726797972464 2.570393995195654  -8.9999998900739655 16.000000219851938 1.5905050669999999e-08  

0 2
2 2

0 12
3.1451741666144906 9
6.2903483332289811 12

9 0 0 0 0 1 11 2 21 2 3 -13.000000109926019 17.999999780147739 -1.5900532449999999e-08  -13.000000452707782 18.227271812775143 -3.7127913751898767  -11.833591775818801 18.454546460023256 -7.4255835708218703  -9.5007769277207519 18.68181616414795 -10.731218928162258  -6.1614429163822111 18.909091753964248 -13.222552658816417  -2.1353647388975001 19.136363061333373 -14.564194445208976  2.1353649633399692 19.363635727008052 -14.564201970222845  6.1614428752276469 19.590909033901216 -13.222546873721722  9.500776546688444 19.81818143290997 -10.731221957656567  11.833592377799922 20.045454203429909 -7.425582670843025  14.166407968548263 20.499999670205387 2.643736131e-08  11.833592338861337 20.954545136981299 7.4255827114834334  9.5007765216854079 21.18181790749907 10.731221797001353  6.1614428916499326 21.409090306516077 13.222547831691474  2.1353645793256262 21.636363613390991 14.564199950009494  -2.135363894994736 21.863636279094607 14.564197054266295  -6.1614445345411921 22.090907586429779 13.222550524936192  -9.5007751564914855 22.318183176267336 10.731219894136286  -11.833593148194113 22.545452880406458 7.4255833091779051  -12.99999988164733 22.772727527602456 3.7127913274780613  -13.000000219855712 22.999999560288426 -3.1806271209999999e-08  
-9.0000001099260434 18.000000219851923 1.5904973340000002e-08  -9.0000004617914726 18.22727364177511 -2.5703940261784299  -8.1924864923357479 18.454544449053063 -5.1407889576667323  -6.5774617838079559 18.681820199513698 -7.4293033511925737  -4.2656118461193984 18.909090064179836 -9.154079933693879  -1.4783339924073045 19.136364211437435 -10.082897336737318  1.4783337865762358 19.363637000224919 -10.082914290200852  4.2656122521121658 19.590909147942142 -9.1540685081592841  6.5774610834130502 19.818182203442529 -7.4293082117021942  8.192487057755482 20.045454887480812 -5.1407880516624243  9.8075132613399436 20.50000032979338 -2.5555067609999999e-08  8.1924870733226562 20.95454577210905 5.1407880054407151  6.5774611371787106 21.181818456139229 7.4293079813105276  4.2656123655983329 21.409091511662272 9.1540694208961355  1.4783335094520345 21.636363659336663 10.08291225432774  -1.4783330415807712 21.863636448182149 10.082899961446049  -4.2656133672347698 22.090910595379388 9.1540778450653804  -6.5774599338038175 22.318180460105079 7.4293043868865931  -8.1924878102054741 22.545456210496145 5.1407887828912306  -8.9999998634783864 22.772727017854102 2.5703940738914417  -9.0000002198558118 23.000000439711201 3.1809015039999998e-08  

0 2
4 2

0 12
3.1451741666144906 9
6.2903483332289811 12

9 0 0 0 0 1 11 2 21 2 3 -8.9999999999999982 10.999999999999837 1.85274e-12  -8.9999996526935178 11.227273421883531 -2.5703939792947552  -8.1924876282517491 11.454544229206645 -5.1407886283321975  -6.5774597993780075 11.681819979630941 -7.4293041821782122  -4.2656132953818897 11.909089844327948 -9.1540776063296079  -1.4783330411138147 12.136363991550517 -10.082899709936083  1.4783334377066839 12.363636780375705 -10.082912013217097  4.2656122290359759 12.590908928062529 -9.1540692123604224  6.5774609502390939 12.818181983580169 -7.4293078230639633  8.1924868550186307 13.045454667612216 -5.1407879088143664  9.8075130217527509 13.500000109926386 -9.1089488100000008e-09  8.1924868757916727 13.954545552241374 5.1407878971207204  6.5774609489926172 14.181818236271353 7.4293080069673918  4.2656121802617566 14.4090912917951 9.1540682694499207  1.4783337861023806 14.636363439469401 10.082914038673596  -1.4783339206579182 14.863636228312968 10.08289709563201  -4.2656117095559374 15.090910375516003 9.1540797251611341  -6.5774615968684094 15.318180240228568 7.4293031929402611  -8.1924862740389521 15.545455990642461 5.1407888610448467  -9.0000002328340454 15.772726797972449 2.570393995195654  -8.9999998900739655 16.000000219851934 1.5905050669999999e-08  
-13 10.999999999999835 2.6787500000000001e-12  -12.999999652693633 11.227272032662377 -3.7127912964901486  -11.833592929909521 11.454546679881721 -7.4255832125378101  -9.500774969538476 11.681816384009849 -10.731219735898536  -6.1614443980135913 11.909091973844857 -13.222550316372081  -2.1353638232266223 12.136363281188443 -14.564196813190067  2.1353645788225371 12.36363594688479 -14.564199698456921  6.1614428198029172 12.590909253763563 -13.222547593004046  9.5007763872542519 12.818181652779533 -10.731221592263799  11.833592156893808 13.045454423297103 -7.4255825569511451  14.166407728960824 13.499999890073457 8.2202406200000004e-09  11.833592159500348 13.954545356848321 7.4255825742072536  9.5007763597563208 14.181818127369604 10.731221799412451  6.1614427386709556 14.40909052637625 13.222546665166959  2.1353648916071095 14.636363833271307 14.564201729130767  -2.1353647384264822 14.863636498945947 14.56419419367875  -6.1614428445164329 15.090907806311636 13.222552420107327  -9.5007767932920277 15.318183396129834 10.731218723436278  -11.833591593860483 15.545453100267821 7.4255834162899408  -13.00000024191778 15.772727747481598 3.7127912805900056  -12.999999890073948 15.999999780147748 -1.5900457650000001e-08  

0 2
4 2

0 12
3.1451741666144906 9
6.2903483332289811 12

9 0 0 0 0 1 11 2 21 2 3 -12.999999890073934 15.999999780147755 -1.5900425859999999e-08  -12.999999538207959 16.227271812775179 -3.7127912810007313  -11.833592820758197 16.454546460023536 -7.4255831642137347  -9.5007748760741961 16.681816164146916 -10.731219656781892  -6.161444329718714 16.909091753966084 -13.222550212090855  -2.1353637873661406 17.136363061332087 -14.564196692638454  2.135364578592966 17.363635727007683 -14.564199572688047  6.1614427838709398 17.590909033902889 -13.222547473646657  9.5007763200413038 17.818181432908666 -10.731221489894251  11.833592065907968 18.045454203430257 -7.425582479679413  14.166407609163411 18.499999670205391 2.5551116150000001e-08  11.833592050345699 18.954545136981061 7.4255825258906745  9.5007762662854987 19.181817907501117 10.731221720288042  6.1614426703879186 19.409090306510929 13.222546560886675  2.135364855737834 19.636363613399524 14.564201608586334  -2.1353647381960736 19.863636279084876 14.564194067901735  -6.1614428085802659 20.090907586437641 13.2225523007513  -9.5007767260814671 20.318183176263087 10.731218621071953  -11.833591502877212 20.545452880407993 7.4255833390125758  -13.000000136520761 20.772727527602186 3.7127912332908304  -12.999999780144329 20.999999560288472 -3.1804327870000001e-08  
-13.000000109926019 17.999999780147739 -1.590052534e-08  -13.000000452707782 18.227271812775143 -3.7127913751898953  -11.833591775818801 18.454546460023256 -7.425583570821769  -9.5007769277207519 18.68181616414795 -10.731218928162509  -6.1614429163822111 18.909091753964248 -13.222552658815953  -2.1353647388975001 19.136363061333373 -14.564194445209651  2.1353649633399692 19.363635727008052 -14.564201970222067  6.1614428752276469 19.590909033901216 -13.22254687372242  9.500776546688444 19.81818143290997 -10.731221957656109  11.833592377799922 20.045454203429909 -7.425582670843232  14.166407968548263 20.499999670205387 2.6437700709999999e-08  11.833592338861337 20.954545136981299 7.4255827114829671  9.5007765216854079 21.18181790749907 10.731221797003384  6.1614428916499326 21.409090306516077 13.2225478316871  2.1353645793256262 21.636363613390991 14.56419995001586  -2.135363894994736 21.863636279094607 14.564197054259546  -6.1614445345411921 22.090907586429779 13.222550524941513  -9.5007751564914855 22.318183176267336 10.731219894133192  -11.833593148194113 22.545452880406458 7.4255833091791752  -12.99999988164733 22.772727527602456 3.7127913274777526  -13.000000219855712 22.999999560288426 -3.1806271209999999e-08  

0 2
2 2

0 12
3.1451741666144906 9
6.2903483332289811 12

1 -9 12.999999999999837 1.8548300000000001e-12 -1.815e-14 -0.99611375223137977 -0.088076061535025618 -1 1.6535436217066533e-19 2.060700146205802e-13 -2.0526916092232044e-13 0.088076061535025618 -0.99611375223137977 
1 -9.0000000000000018 12.999999999999837 1.8548300000000001e-12 0.9999999999999909 0 -1.3511700910000001e-07 0 -1 0 -1.3511700910000001e-07 -0 -0.9999999999999909 
9 0 0 0 0 1 11 2 21 2 3 -9.0000001099260452 18.000000219851927 1.5904978669999999e-08  -9.0000004617914904 18.227273641774985 -2.570394026178457  -8.1924864923357035 18.45454444905355 -5.1407889576665404  -6.577461783808034 18.681820199512494 -7.4293033511932691  -4.2656118461192696 18.909090064182074 -9.1540799336923016  -1.4783339924074899 19.136364211434383 -10.082897336739762  1.478333786576439 19.363637000227882 -10.082914290198209  4.2656122521120006 19.590909147940213 -9.1540685081613073  6.5774610834131488 19.818182203443282 -7.4293082117011489  8.1924870577554483 20.045454887480759 -5.1407880516627262  9.8075132613399933 20.500000329793266 -2.5554749289999999e-08  8.1924870733225834 20.954545772109327 5.1407880054403794  6.5774611371790641 21.18181845613805 7.4293079813118581  4.2656123655975575 21.409091511664659 9.1540694208932472  1.4783335094531538 21.636363659333313 10.082912254332104  -1.4783330415819453 21.863636448185648 10.082899961441168  -4.2656133672338301 22.090910595376691 9.1540778450694464  -6.5774599338044055 22.318180460106618 7.4293043868841453  -8.1924878102052006 22.545456210495537 5.1407887828922458  -8.9999998634784681 22.772727017854244 2.5703940738912028  -9.0000002198558118 23.000000439711204 3.1809015039999998e-08  
-8.9999998900739495 16.000000219851938 1.59050817e-08  -8.9999995472917806 16.22727364177501 -2.5703939319893641  -8.1924875372744843 16.454544449053994 -5.140788551058205  -6.577459732163196 16.681820199510859 -7.4293040798132699  -4.2656132594526195 16.909090064185502 -9.1540774869662336  -1.478333040880194 17.136364211429978 -10.082899584169812  1.4783334018332623 17.363637000231702 -10.082911892662972  4.2656121607526742 17.590909147938216 -9.1540691080864072  6.5774608567672015 17.818182203443808 -7.4293077439389084  8.1924867458632278 18.045454887480886 -5.1407878604989392  9.807512901955338 18.500000329792986 -2.6441439230000001e-08  8.1924867848067908 18.954545772109888 5.1407878198483123  6.5774608817795679 19.18181845613551 7.4293079045952855  4.2656121443348978 19.409091511670152 9.1540681500957319  1.4783337858659626 19.636363659325919 10.082913912898098  -1.4783338847836005 19.863636448192882 10.082896975088309  -4.2656116412728595 20.090910595371419 9.1540796208751569  -6.5774615033943151 20.318180460109634 7.4293031138253731  -8.1924861648883542 20.545456210494322 5.1407888127246073  -9.0000001183518687 20.772727017854571 2.570393979704523  -8.9999997801444227 21.000000439711251 3.181095304e-08  

0 2
2 2

0 12
3.1451741666144906 9
6.2903483332289811 12

9 0 0 0 0 1 11 2 21 2 3 -13.000000219855639 22.999999560288426 -3.1806337120000003e-08  -13.000000558112001 23.227271592881831 -3.7127914224965997  -11.833591866798074 23.454546240161882 -7.425583648100563  -9.5007769949344247 23.68181594427088 -10.731219030530729  -6.1614429523155989 23.909091534090777 -13.222552778182479  -2.1353647391238044 24.136362841458183 -14.564194570982341  2.1353649992113093 24.363635507135459 -14.564202090775874  6.1614429435165583 24.590908814027021 -13.22254697800162  9.5007766401634726 24.818181213036095 -10.731222036780993  11.833592486959231 25.045453983556136 -7.425582719159058  14.166408088349012 25.49999945033133 4.3772301679999999e-08  11.833592429848014 25.954544917107722 7.4255827887588071  9.5007765888986402 26.181817687624047 10.731221899379108  6.1614429275796301 26.409090086644802 13.222547951046405  2.1353645795524065 26.636363393513008 14.564200075791463  -2.1353639308593504 26.863636059226589 14.564197174813028  -6.1614446028386185 27.090907366549313 13.222550629223504  -9.5007752499637235 27.318182956395614 10.731219973251283  -11.833593257348376 27.545452660540867 7.4255833575015142  -12.999999996135474 27.772727307713044 3.7127913429651804  -13.000000329786534 27.999999340426466 -4.7713028009999999e-08  
-9.0000002198557407 23.000000439711204 3.1808946589999999e-08  -9.0000005762810584 23.227273861671037 -2.5703940416709621  -8.1924866014859976 23.454544668909424 -5.1407890059883004  -6.5774618772836257 23.681820419394686 -7.4293034303155929  -4.2656119144029319 23.909090284052887 -9.1540800379770904  -1.4783340282822635 24.136364431309779 -10.082897457290208  1.4783337868166522 24.363637220101467 -10.082914415977003  4.2656122880396961 24.59090936781304 -9.154068627517109  6.5774611506302021 24.818182423317975 -7.4293083140758034  8.1924871487437265 25.045455107354293 -5.1407881289358404  9.8075133811410247 25.500000549667373 -4.2886317429999997e-08  8.1924871824801304 25.954545991982826 5.140788053758925  6.5774612306517675 26.181818676012373 7.4293080604388191  4.2656124338853694 26.409091731539327 9.1540695251739237  1.4783335453164563 26.636363879202655 10.082912374886609  -1.4783330418051877 26.863636668067496 10.082900087213019  -4.2656134031740924 27.090910815240576 9.1540779644363255  -6.5774600010196309 27.318180679993333 7.4293044892473663  -8.1924879011865617 27.545456430351248 5.1407888601710443  -8.999999968881788 27.772727237747354 2.5703941211939476  -9.0000003297867526 28.000000659573104 4.7711815889999998e-08  

0 2
4 2

0 12
3.1451741666144906 9
6.2903483332289811 12

9 0 0 0 0 1 11 2 21 2 3 -8.9999998900739495 16.000000219851938 1.59050817e-08  -8.999999547291786 16.22727364177501 -2.5703939319893663  -8.1924875372744665 16.454544449053994 -5.140788551058197  -6.5774597321632307 16.681820199510859 -7.4293040798132868  -4.2656132594525573 16.909090064185502 -9.1540774869662034  -1.4783330408802851 17.136364211429978 -10.082899584169846  1.4783334018333754 17.363637000231702 -10.082911892662946  4.2656121607525535 17.590909147938216 -9.1540691080864356  6.5774608567673054 17.818182203443808 -7.4293077439388835  8.1924867458631656 18.045454887480886 -5.1407878604989534  9.8075129019554463 18.500000329792986 -2.6441414519999999e-08  8.1924867848066398 18.954545772109888 5.1407878198482848  6.5774608817802358 19.18181845613551 7.4293079045954471  4.2656121443334367 19.409091511670152 9.1540681500952381  1.4783337858681411 19.636363659325919 10.082913912899024  -1.4783338847860015 19.863636448192882 10.082896975087175  -4.2656116412708656 20.090910595371419 9.1540796208761162  -6.5774615033955399 20.318180460109634 7.4293031138248011  -8.192486164887832 20.545456210494322 5.1407888127248436  -9.0000001183519984 20.772727017854571 2.5703939797044666  -8.9999997801444227 21.000000439711251 3.1810951269999998e-08  
-12.99999989007393 15.999999780147755 -1.590042409e-08  -12.999999538207932 16.227271812775165 -3.7127912810007193  -11.833592820758279 16.454546460023497 -7.4255831642136787  -9.5007748760740824 16.68181616414736 -10.731219656782296  -6.1614443297187496 16.909091753964578 -13.22255021208969  -2.1353637873663445 17.136363061334865 -14.564196692640518  2.1353645785934581 17.363635727004446 -14.564199572685604  6.1614427838703332 17.590909033905412 -13.22254747364868  9.5007763200417479 17.818181432907352 -10.731221489893139  11.833592065907789 18.045454203430705 -7.4255824796797443  14.166407609163624 18.499999670204758 2.5551437379999999e-08  11.833592050345468 18.95454513698186 7.4255825258903396  9.5007762662862465 19.181817907497773 10.731221720289378  6.1614426703866441 19.409090306518127 13.222546560883679  2.1353648557393408 19.636363613388919 14.564201608590976  -2.1353647381974366 19.863636279096411 14.564194067896508  -6.1614428085792996 20.09090758642818 13.222552300755616  -9.500776726081984 20.318183176268843 10.731218621069377  -11.833591502877024 20.545452880405538 7.4255833390136328  -13.000000136520798 20.77272752760279 3.7127912332905755  -12.999999780144327 20.999999560288469 -3.1804333199999998e-08  

0 2
4 2

0 12
3.1451741666144906 9
6.2903483332289811 12

1 -9 10.999999999999837 1.8548300000000001e-12 -1.815e-14 -0.99611375223137977 -0.088076061535025618 -1 1.6535436217066533e-19 2.060700146205802e-13 -2.0526916092232044e-13 0.088076061535025618 -0.99611375223137977 
9 0 0 0 0 1 11 2 21 2 3 -12.999999780144256 20.999999560288472 -3.180439734e-08  -12.999999423718204 21.227271592882897 -3.7127912655097917  -11.833592711608386 21.454546240158351 -7.4255831158880055  -9.5007747825979472 21.681815944278814 -10.731219577665257  -6.1614442614357783 21.909091534078513 -13.222550107800068  -2.1353637514907353 22.136362841473257 -14.564196572093248  2.1353645783523838 22.363635507121085 -14.564199446905434  6.1614427479433971 22.590908814037721 -13.222547354293312  9.5007762528241297 22.818181213030751 -10.731221387518397  11.833591974919694 23.04545398355771 -7.4255824024066488  14.166407489362498 23.49999945032992 4.288288198e-08  11.833591941187947 23.954544917109256 7.4255824775719894  9.5007761728119373 24.18181768761881 10.731221641160996  6.1614426021063364 24.409090086655532 13.222546456606391  2.1353648198591624 24.636363393498783 14.564201488030498  -2.1353647379512859 24.86363605924025 14.564193942131778  -6.161442772657038 25.090907366540076 13.222552181384891  -9.5007766588586211 25.318182956400261 10.731218518704511  -11.833591411897215 25.54545266053945 7.4255832617382955  -13.000000031116643 25.772727307713378 3.7127911859860041  -12.999999670213221 25.999999340426569 -4.7707315239999999e-08  
-13.000000219855639 22.999999560288426 -3.1806335340000002e-08  -13.000000558112001 23.227271592881394 -3.7127914224966094  -11.833591866798074 23.454546240163641 -7.4255836481005213  -9.5007769949344247 23.681815944266638 -10.731219030530832  -6.1614429523155989 23.909091534098074 -13.222552778182299  -2.1353647391238044 24.136362841448772 -14.564194570982599  2.1353649992113093 24.363635507144547 -14.564202090775554  6.1614429435165583 24.59090881402058 -13.222546978001956  9.5007766401634726 24.818181213039225 -10.731222036780714  11.833592486959231 25.045453983555333 -7.425582719159233  14.166408088349012 25.499999450332052 4.3772612739999998e-08  11.833592429848014 25.954544917107064 7.4255827887583807  9.5007765888986402 26.181817687626367 10.73122189938096  6.1614429275796301 26.409090086639925 13.222547951042454  2.1353645795524065 26.636363393520238 14.564200075797158  -2.1353639308593504 26.863636059218504 14.564197174807024  -6.1614446028386185 27.090907366556227 13.222550629228307  -9.5007752499637235 27.318182956391173 10.731219973248356  -11.833593257348376 27.545452660542843 7.425583357502795  -12.999999996135474 27.772727307712533 3.7127913429648616  -13.000000329786534 27.999999340426463 -4.7713026229999998e-08  

0 2
2 2

0 12
3.1451741666144906 9
6.2903483332289811 12

1 -17 10.999999999999837 3.50335e-12 -0.9999999999999909 -0 1.3511700910000001e-07 -0 1 0 -1.3511700910000001e-07 0 -0.9999999999999909 
9 0 0 0 0 1 11 2 21 2 3 -9.0000002198557443 23.000000439711204 3.1808944809999998e-08  -9.0000005762810726 23.227273861671257 -2.5703940416708542  -8.1924866014859106 23.45454466890854 -5.1407890059887524  -6.577461877283918 23.681820419396672 -7.4293034303144925  -4.2656119144023821 23.909090284049757 -9.1540800379789431  -1.4783340282829343 24.136364431313641 -10.082897457287881  1.4783337868172044 24.363637220097576 -10.082914415979271  4.2656122880393879 24.590909367816153 -9.1540686275154268  6.5774611506303282 24.818182423316244 -7.4293083140766925  8.1924871487436839 25.045455107354798 -5.1407881289355526  9.8075133811411046 25.500000549666943 -4.2886671370000002e-08  8.1924871824800221 25.954545991983181 5.1407880537593522  6.5774612306522107 26.181818676011549 7.429308060437017  4.2656124338845105 26.409091731540116 9.1540695251777748  1.4783335453176216 26.636363879202989 10.082912374881065  -1.4783330418064053 26.863636668065777 10.082900087218794  -4.2656134031730879 27.090910815242715 9.1540779644318082  -6.5774600010202731 27.318180679991858 7.4293044892500193  -8.1924879011862686 27.545456430351873 5.1407888601699359  -8.9999999688818662 27.772727237747201 2.5703941211942154  -9.0000003297867561 28.000000659573104 4.7711817669999999e-08  
-8.9999997801443499 21.000000439711254 3.1810882819999998e-08  -8.9999994418872458 21.227273861670568 -2.5703938846841092  -8.1924874462962549 21.454544668912444 -5.140788473775987  -6.5774596649476349 21.681820419386174 -7.4293039774492495  -4.2656132235217763 21.909090284069379 -9.1540773675967664  -1.4783330406513051 22.136364431287813 -10.082899458397558  1.4783333659599966 22.363637220122726 -10.082911772110894  4.2656120924648047 22.590909367798726 -9.154069003805084  6.577460763291735 22.818182423324455 -7.4293076648153411  8.1924866367039844 23.045455107353064 -5.1407878121827615  9.8075127821546388 23.500000549668179 -4.3776421750000002e-08  8.1924866938199816 23.954545991982762 5.140787742572785  6.5774608145652342 24.181818676011986 7.4293078022181191  4.2656121084120411 24.409091731539991 9.1540680307395448  1.4783337856227527 24.636363879203572 10.082913787117052  -1.4783338488961115 24.863636668064665 10.082896854541429  -4.2656115729936701 25.090910815244406 9.1540795165895776  -6.5774614099137052 25.318180679990512 7.4293030347057032  -8.1924860557357491 25.545456430352758 5.1407887644055714  -9.0000000038628798 25.772727237747034 2.5703939642153353  -8.9999996702134428 26.000000659573214 4.7717525099999997e-08  

0 2
2 2

0 12
3.1451741666144906 9
6.2903483332289811 12

9 0 0 0 0 1 9 2 10 2 2 -13.000000329786555 27.999999340426463 -4.7713005099999998e-08  -13.000000748520097 28.184519938665495 -3.0143944623693901  -12.213661669576405 28.369044136180396 -6.0287911713288365  -10.640984803664217 28.553560085437372 -8.8087493716860532  -8.3635150901004653 28.738089534888378 -11.119876550361091  -5.5442892915411512 28.922602017594322 -12.761697638051585  -2.4102815840459475 29.107131467045431 -13.602026103834378  0.78369438276058845 29.291647416302528 -13.598004409691793  3.7935238074993465 29.476171613816369 -12.794364050012142  6.4153063915536519 29.660692212057114 -11.306805725419622  
-9.0000003297867721 28.000000659573097 4.7711839810000001e-08  -9.0000007706476417 28.184522977001883 -2.0868887754173886  -8.4556117013556698 28.369041695161812 -4.1737766790209108  -7.3668357216163063 28.553568661559865 -6.098368319493594  -5.7901279434992308 28.738082127801118 -7.6983731316995021  -3.8383505206018382 28.922612560736582 -8.8350222045585198  -1.6686600980122799 29.107126026979021 -9.416788329102765  0.54255929054040897 29.291652993375642 -9.4140024740337029  2.6262852747078167 29.476171711537191 -8.8576368776157377  4.4413659356255453 29.660694028964205 -7.8277887555778438  

0 2
4 2

0 10
2.0892676405221429 10

9 0 0 0 0 1 11 2 21 2 3 -8.9999997801443499 21.000000439711251 3.1810884590000001e-08  -8.9999994418872458 21.227273861670561 -2.5703938846840169  -8.1924874462962549 21.454544668912398 -5.1407884737763618  -6.5774596649476393 21.681820419386426 -7.4293039774484004  -4.2656132235217585 21.909090284068629 -9.1540773675981004  -1.478333040651334 22.13636443128933 -10.082899458396001  1.4783333659600295 22.363637220120598 -10.082911772112233  4.2656120924647789 22.590909367800709 -9.1540690038042705  6.5774607632917519 22.818182423323293 -7.4293076648156591  8.1924866367039719 23.045455107353405 -5.1407878121826931  9.8075127821546673 23.500000549667877 -4.3776498790000003e-08  8.192486693819923 23.954545991983032 5.140787742572865  6.5774608145655984 24.181818676010881 7.42930780221785  4.2656121084110712 24.409091731542592 9.1540680307400457  1.4783337856243919 24.636363879199369 10.082913787116377  -1.4783338488981084 24.863636668069635 10.082896854542081  -4.2656115729918644 25.090910815240047 9.1540795165891478  -6.5774614099149042 25.31818067999329 7.4293030347058799  -8.1924860557351895 25.545456430351543 5.1407887644055297  -9.0000000038630272 25.772727237747343 2.5703939642153379  -8.9999996702134393 26.000000659573214 4.7717526879999998e-08  
-12.999999780144257 20.999999560288472 -3.1804399110000003e-08  -12.999999423718211 21.227271592882115 -3.7127912655094151  -11.833592711608327 21.45454624016168 -7.4255831158895704  -9.5007747825981195 21.681815944270557 -10.731219577661506  -6.1614442614354461 21.909091534092759 -13.222550107806404  -2.1353637514912394 22.13636284145511 -14.564196572085264  2.1353645783530104 22.363635507138525 -14.564199446913028  6.16144274794281 22.590908814025315 -13.222547354288045  9.5007762528244797 22.818181213036805 -10.731221387520817  11.833591974919623 23.04545398355619 -7.4255824024061416  14.16640748936249 23.499999450331178 4.2882571650000001e-08  11.833591941188047 23.954544917108262 7.4255824775721102  9.5007761728115092 24.181817687622122 10.731221641161083  6.1614426021069777 24.409090086648664 13.222546456605956  2.1353648198587676 24.636363393508493 14.564201488031056  -2.1353647379514893 24.863636059230188 14.564193942131443  -6.1614427726564029 25.090907366547935 13.222552181385012  -9.5007766588592002 25.318182956395685 10.731218518704473  -11.833591411896942 25.545452660541304 7.4255832617383177  -13.000000031116711 25.772727307712934 3.7127911859859948  -12.999999670213224 25.999999340426569 -4.7707315239999999e-08  

0 2
4 2

0 12
3.1451741666144906 9
6.2903483332289811 12

9 0 0 0 0 1 9 2 10 2 2 -12.999999670213239 25.999999340426569 -4.7707297670000001e-08  -12.999999229353183 26.184519938665819 -3.0143942805693675  -12.213662945038632 26.369044136180573 -6.0287905834994877  -10.640981398474619 26.553560085437336 -8.8087492474348768  -8.3635161926821961 26.73808953488798 -11.119876073800661  -5.544289581398278 26.922602017596315 -12.761695374968641  -2.4102797209838234 27.107131467043434 -13.602027486185962  0.78369314754611452 27.291647416303899 -13.598001950280771  3.7935239414981305 27.476171613816227 -12.794363917804494  6.4153059432403579 27.66069221205732 -11.306804935291128  
-13.000000329786555 27.999999340426459 -4.7713006879999999e-08  -13.000000748520097 28.184519938665723 -3.014394462369383  -12.213661669576405 28.36904413617955 -6.0287911713288516  -10.640984803664217 28.553560085439042 -8.8087493716860408  -8.3635150901004653 28.738089534886139 -11.119876550361045  -5.5442892915411512 28.922602017596475 -12.761697638051716  -2.4102815840459475 29.10713146704391 -13.602026103834211  0.78369438276058845 29.291647416303256 -13.598004409691898  3.7935238074993465 29.476171613816177 -12.79436405001211  6.4153063915536519 29.660692212057111 -11.306805725419622  

0 2
2 2

0 10
2.0892676405221429 10

9 0 0 0 0 1 9 2 10 2 2 -9.0000003297867757 28.000000659573093 4.771183537e-08  -9.0000007706476364 28.184522977001837 -2.0868887754173993  -8.4556117013557124 28.369041695161968 -4.1737766790208708  -7.3668357216162219 28.553568661559659 -6.0983683194937051  -5.7901279434993462 28.73808212780127 -7.6983731316992836  -3.8383505206017046 28.922612560736535 -8.8350222045588183  -1.6686600980124038 29.107126026979021 -9.4167883291025127  0.54255929054048424 29.291652993375642 -9.4140024740338326  2.6262852747077967 29.476171711537191 -8.8576368776157093  4.441365935625547 29.660694028964205 -7.8277887555778465  
-8.9999996702134517 26.000000659573203 4.7717549019999999e-08  -8.9999992514807872 26.184522977002366 -2.0868885936173682  -8.4556129768177115 26.369041695161442 -4.1737760911915922  -7.3668323164270841 26.553568661560732 -6.0983681952422986  -5.7901290460805157 26.738082127799789 -7.698372655139317  -3.8383508104592963 26.922612560739189 -8.8350199414752915  -1.6686582349500181 27.107126026976783 -9.4167897114545411  0.54255805532591039 27.291652993377031 -9.4140000146226228  2.626285408706603 27.476171711537049 -8.857636745408092  4.4413654873122539 27.660694028964414 -7.8277879654493532  

0 2
2 2

0 10
2.0892676405221429 10

1 5.4283359394329507 28.660693120510757 -9.5672968454344893 0.86975424246053346 -2.8710799999999999e-12 0.49348511398207701 -0.49348511398207701 0 0.86975424246053346 -2.4971340104435884e-12 -1 -1.4168352410516616e-12 
1 5.428335777817801 9.5672965605678648 32.830346560255329 0.86975424246053334 -0.49348511398207723 -2.8711799999999999e-12 0.49348511398207723 0.86975424246053334 0 2.497220985867834e-12 -1.4168845895630605e-12 1 
9 0 0 0 0 1 9 2 10 2 2 -8.9999996702134517 26.000000659573207 4.7717547250000003e-08  -8.9999992514807872 26.184522977002263 -2.0868885936173576  -8.4556129768177115 26.369041695161791 -4.1737760911916295  -7.3668323164270841 26.553568661560039 -6.0983681952422604  -5.7901290460805157 26.738082127800769 -7.698372655139309  -3.8383508104592963 26.922612560738198 -8.8350199414753625  -1.6686582349500181 27.107126026977525 -9.416789711454447  0.54255805532591039 27.291652993376637 -9.4140000146226974  2.626285408706603 27.47617171153717 -8.8576367454080653  4.4413654873122539 27.660694028964418 -7.8277879654493541  
-12.99999967021324 25.999999340426569 -4.770729589e-08  -12.999999229353287 26.184519938665897 -3.0143942805694017  -12.213662945038276 26.369044136180293 -6.0287905834993873  -10.640981398475276 26.553560085437809 -8.8087492474350668  -8.3635161926814288 26.738089534887504 -11.119876073800476  -5.5442895813989006 26.922602017596578 -12.761695374968733  -2.4102797209834792 27.107131467043409 -13.602027486185937  0.78369314754598984 27.291647416303835 -13.598001950280789  3.7935239414981545 27.476171613816259 -12.794363917804485  6.4153059432403561 27.66069221205732 -11.306804935291131  

0 2
4 2

0 10
2.0892676405221429 10

1 6.415305943240357 27.66069221205732 -11.306804935291133 -0.49348511398207706 -1.0000000000000001e-17 0.86975424246053357 2.4971129549454351e-12 1 1.4168347919881363e-12 -0.86975424246053357 2.8710614652849892e-12 -0.49348511398207706 
1 4.4413654873122512 27.660694028964407 -7.8277879654493567 -0.49348511398207706 -1.0000000000000001e-17 0.86975424246053357 2.4971129549454351e-12 1 1.4168347919881363e-12 -0.86975424246053357 2.8710614652849892e-12 -0.49348511398207706 
1 4.4413654873122512 27.660694028964407 -7.8277879654493567 2.2415664737000001e-07 0.99999999999989697 -3.9506424492e-07 0.49348511398202594 -4.5422677174086192e-07 -0.86975424246044386 -0.86975424246053368 2.8710911979846992e-12 -0.4934851139820769 
1 6.4153059432661754 38 -11.306804935276483 -2.49714e-12 -1 -1.41685e-12 -0.49348511398207706 -9.8809010029363674e-18 0.86975424246053357 -0.86975424246053357 2.8710924927634026e-12 -0.49348511398207706 
Triangulations 0

TShapes 147
Ve
1.32192213e-07
-13 12.9999999999998 2.681e-12
0 0

0101101
*
Ve
1.32192218e-07
-13.000000109926 17.9999997801477 -1.590053e-08
0 0

0101101
*
Ed
 1e-07 1 1 0
1  1 0 0 6.29034833322898
2  1 1 0 0 6.29034833322898
2  2 2 0 0 6.29034833322898
0

0101000
+147 0 -146 0 *
Ve
1.32192214e-07
-9 12.9999999999998 1.856e-12
0 0

0101101
*
Ed
 1e-07 1 1 0
1  2 0 0 4
2  3 3 0 0 4
2  4 1 0 0 4
4 C0 3 0 1 0
2  5 4 8 0 4
0

0101000
+147 0 -144 9 *
Ve
1.32192219e-07
-9.00000010992605 18.0000002198519 1.5904977e-08
0 0

0101101
*
Ed
 1e-07 1 1 0
1  3 0 0 6.29034833322898
2  6 1 0 0 6.29034833322898
2  7 5 0 0 6.29034833322898
0

0101000
+144 9 -142 0 *
Ed
 1e-07 1 1 0
1  4 0 0 4
2  8 1 0 0 4
2  9 6 0 0 4
4 G1 6 0 1 0
0

0101000
+146 0 -142 0 *
Wi

0101100
-145 7 +143 7 +141 7 -140 7 *
Fa
0  1e-07 1 7

0111000
+139 0 *
Ve
1.32192211e-07
-13 10.9999999999998 2.679e-12
0 0

0101101
*
Ve
1.32192216e-07
-12.9999998900739 15.9999997801477 -1.5900424e-08
0 0

0101101
*
Ed
 1e-07 1 1 0
1  5 0 0 6.29034833322898
2  6 7 0 0 6.29034833322898
2  7 2 0 0 6.29034833322898
0

0101000
+137 0 -136 0 *
Ed
 1.00000001e-07 1 1 0
1  6 0 0 2
2  4 2 0 0 2
2  10 3 0 0 2
4 C0 3 0 2 0
2  11 4 8 0 2
0

0101000
+137 0 -147 0 *
Ed
 1e-07 1 1 0
1  7 0 0 2
2  8 2 0 0 2
2  12 8 0 0 2
4 G1 8 0 2 0
0

0101000
+136 0 -146 0 *
Wi

0101100
-135 0 +134 0 +145 0 -133 0 *
Fa
0  1e-07 2 0

0111000
+132 0 *
Ve
1.00000001e-07
-9 12.9999999999998 -0
0 0

0101101
*
Ed
 1.00000001e-07 1 1 0
1  8 0 0 4
2  13 9 0 0 4
2  14 10 0 0 4
0

0101000
+144 0 -130 14 *
Ve
1e-07
-17 12.9999999999998 0
0 0

0101101
*
Ed
 1e-07 1 1 0
1  9 0 0 4
2  15 9 0 0 4
0

0101000
+128 15 -128 14 *
Ed
 1e-07 1 1 0
1  10 0 4 8
2  4 9 16 4 8
2  16 9 17 4 8
2  17 4 18 4 8
0

0101000
+147 19 -128 0 *
Ed
 1e-07 1 1 0
1  10 0 0 8
2  4 9 16 0 8
2  16 9 17 0 8
2  17 4 18 0 8
0

0101000
+130 0 -128 0 *
Wi

0101100
+129 0 -127 0 +143 7 -126 15 +125 14 *
Fa
0  1e-07 9 0

0111000
+124 0 *
Ve
1.32192212e-07
-9 10.9999999999998 1.853e-12
0 0

0101101
*
Ed
 1e-07 1 1 0
1  11 0 0 2
2  18 3 0 0 2
2  4 5 0 0 2
4 C0 3 0 5 0
2  19 4 8 0 2
0

0101000
+144 9 -122 9 *
Ve
1.32192218e-07
-8.99999989007396 16.0000002198519 1.5905084e-08
0 0

0101101
*
Ed
 1e-07 1 1 0
1  12 0 0 6.29034833322898
2  20 5 0 0 6.29034833322898
2  7 7 0 0 6.29034833322898
0

0101000
+122 9 -120 0 *
Ed
 1e-07 1 1 0
1  13 0 0 2
2  8 5 0 0 2
2  12 11 0 0 2
4 G1 11 0 5 0
0

0101000
+142 0 -120 0 *
Wi

0101100
-141 7 +121 7 +119 7 -118 7 *
Fa
0  1e-07 5 7

0111000
+117 0 *
Ve
1.32192203e-07
-13.0000002198556 22.9999995602884 -3.1806337e-08
0 0

0101101
*
Ed
 1e-07 1 1 0
1  14 0 0 6.29034833322898
2  1 6 0 0 6.29034833322898
2  2 8 0 0 6.29034833322898
0

0101000
+146 0 -115 0 *
Ve
1.32192205e-07
-9.00000021985575 23.0000004397112 3.1808945e-08
0 0

0101101
*
Ed
 1e-07 1 1 0
1  15 0 0 6.29034833322898
2  6 6 0 0 6.29034833322898
2  7 11 0 0 6.29034833322898
0

0101000
+142 0 -113 0 *
Ed
 1e-07 1 1 0
1  16 0 0 4
2  8 6 0 0 4
2  9 12 0 0 4
4 G1 12 0 6 0
0

0101000
+115 0 -113 0 *
Wi

0101100
-114 0 +140 0 +112 0 -111 0 *
Fa
0  1e-07 6 0

0111000
+110 0 *
Ed
 1.00000002e-07 1 1 0
1  17 0 0 4
2  4 7 0 0 4
2  21 3 0 0 4
4 C0 3 0 7 0
2  22 4 8 0 4
0

0101000
+122 9 -137 0 *
Ed
 1e-07 1 1 0
1  18 0 0 4
2  8 7 0 0 4
2  9 13 0 0 4
4 G1 13 0 7 0
0

0101000
+120 0 -136 0 *
Wi

0101100
-119 7 +108 7 +135 7 -107 7 *
Fa
0  1e-07 7 7

0111000
+106 0 *
Ve
1e-07
-17 10.9999999999998 0
0 0

0101101
*
Ed
 1e-07 1 1 0
1  19 0 0 2
2  23 4 18 0 2
0

0101000
+104 0 -128 0 *
Ed
 1e-07 1 1 0
1  20 0 4 8
2  4 14 16 4 8
2  16 14 17 4 8
2  24 4 18 4 8
0

0101000
+137 19 -104 0 *
Wi

0101100
-126 15 +103 15 +102 15 -134 7 *
Fa
0  1e-07 4 20

0111000
+101 0 *
Ve
1.32192212e-07
-12.9999997801443 20.9999995602885 -3.1804399e-08
0 0

0101101
*
Ed
 1e-07 1 1 0
1  21 0 0 6.29034833322898
2  6 13 0 0 6.29034833322898
2  7 8 0 0 6.29034833322898
0

0101000
+136 0 -99 0 *
Ed
 1e-07 1 1 0
1  22 0 0 2
2  8 8 0 0 2
2  12 15 0 0 2
4 G1 15 0 8 0
0

0101000
+99 0 -115 0 *
Wi

0101100
-98 0 +133 0 +114 0 -97 0 *
Fa
0  1e-07 8 0

0111000
+96 0 *
Ve
1.00000001e-07
-9 10.9999999999998 -0
0 0

0101101
*
Ed
 1.00000001e-07 1 1 0
1  23 0 0 4
2  25 10 0 0 4
2  13 14 0 0 4
0

0101000
+122 0 -94 14 *
Ed
 1e-07 1 1 0
1  24 0 0 2
2  26 10 16 0 2
2  27 10 17 0 2
2  28 4 18 0 2
0

0101000
+130 0 -94 0 *
Wi

0101100
+129 0 -93 0 -121 7 +92 14 *
Fa
0  1e-07 10 0

0111000
+91 0 *
Ed
 1e-07 1 1 0
1  25 0 0 4
2  15 14 0 0 4
0

0101000
+104 15 -104 14 *
Wi

0101100
+89 0 -127 0 -103 15 +103 14 *
Fa
0  1e-07 16 0

0111000
+88 0 *
Ed
 1e-07 1 1 0
1  20 0 0 8
2  4 14 16 0 8
2  16 14 17 0 8
2  24 4 18 0 8
0

0101000
+94 0 -104 0 *
Wi

0101100
+92 0 +86 0 +103 0 -125 0 *
Fa
0  1e-07 4 0

0111000
+85 22 *
Ve
1.32192211e-07
-8.99999978014435 21.0000004397113 3.1810883e-08
0 0

0101101
*
Ed
 1e-07 1 1 0
1  26 0 0 6.29034833322898
2  20 11 0 0 6.29034833322898
2  7 13 0 0 6.29034833322898
0

0101000
+120 0 -83 0 *
Ed
 1e-07 1 1 0
1  27 0 0 2
2  8 11 0 0 2
2  12 17 0 0 2
4 G1 17 0 11 0
0

0101000
+113 0 -83 0 *
Wi

0101100
-112 0 +118 0 +82 0 -81 0 *
Fa
0  1e-07 11 0

0111000
+80 0 *
Ve
1.32192202e-07
-13.0000003297866 27.9999993404265 -4.771301e-08
0 0

0101101
*
Ed
 1e-07 1 1 0
1  28 0 0 6.29034833322898
2  1 12 0 0 6.29034833322898
2  2 15 0 0 6.29034833322898
0

0101000
+115 0 -78 0 *
Ve
1.32192203e-07
-9.00000032978678 28.0000006595731 4.7711834e-08
0 0

0101101
*
Ed
 1e-07 1 1 0
1  29 0 0 6.29034833322898
2  6 12 0 0 6.29034833322898
2  7 17 0 0 6.29034833322898
0

0101000
+113 0 -76 0 *
Ed
 1e-07 1 1 0
1  30 0 0 4
2  8 12 0 0 4
2  9 18 0 0 4
4 G1 18 0 12 0
0

0101000
+78 0 -76 0 *
Wi

0101100
-77 0 +111 0 +75 0 -74 0 *
Fa
0  1e-07 12 0

0111000
+73 0 *
Wi

0101100
+93 0 -89 0 -108 7 -102 15 +86 14 *
Fa
0  1e-07 14 0

0111000
+71 0 *
Ed
 1e-07 1 1 0
1  31 0 0 4
2  8 13 0 0 4
2  9 19 0 0 4
4 G1 19 0 13 0
0

0101000
+83 0 -99 0 *
Wi

0101100
-82 0 +107 0 +98 0 -69 0 *
Fa
0  1e-07 13 0

0111000
+68 0 *
Ve
1.32192209e-07
-12.9999996702132 25.9999993404266 -4.77073e-08
0 0

0101101
*
Ed
 1e-07 1 1 0
1  32 0 0 6.29034833322898
2  6 19 0 0 6.29034833322898
2  7 15 0 0 6.29034833322898
0

0101000
+99 0 -66 0 *
Ed
 1e-07 1 1 0
1  33 0 0 2
2  8 15 0 0 2
2  12 20 0 0 2
4 G1 20 0 15 0
0

0101000
+66 0 -78 0 *
Wi

0101100
-65 0 +97 0 +77 0 -64 0 *
Fa
0  1e-07 15 0

0111000
+63 0 *
Ve
1.32192207e-07
-8.99999967021346 26.0000006595732 4.7717543e-08
0 0

0101101
*
Ed
 1e-07 1 1 0
1  34 0 0 6.29034833322898
2  20 17 0 0 6.29034833322898
2  7 19 0 0 6.29034833322898
0

0101000
+83 0 -61 0 *
Ed
 1e-07 1 1 0
1  35 0 0 2
2  8 17 0 0 2
2  12 21 0 0 2
4 G1 21 0 17 0
0

0101000
+76 0 -61 0 *
Wi

0101100
-75 0 +81 0 +60 0 -59 0 *
Fa
0  1e-07 17 0

0111000
+58 0 *
Ve
1.56884115e-07
6.41530639155365 29.6606922120571 -11.3068057254196
0 0

0101101
*
Ed
 1e-07 1 1 0
1  36 0 0 2.08926764052214
2  1 18 0 0 2.08926764052214
2  29 20 0 0 2.08926764052214
0

0101000
+78 0 -56 0 *
Ve
1.56884117e-07
4.44136593562555 29.6606940289642 -7.82778875557785
0 0

0101101
*
Ed
 1e-07 1 1 0
1  37 0 0 2.08926764052214
2  6 18 0 0 2.08926764052214
2  30 21 0 0 2.08926764052214
0

0101000
+76 0 -54 0 *
Ve
1.00000045e-07
6.41530594324533 29.6606922120575 -11.3068049352883
0 0

0101101
*
Ed
 1e-07 1 1 0
1  38 0 0 9.08453587e-07
2  31 18 0 0 9.08453587e-07
2  32 22 0 0 9.08453587e-07
4 C0 18 0 22 0
0

0101000
+56 0 -52 23 *
Ed
 1.00000001e-07 1 1 0
1  38 0 9.08453587e-07 4
2  31 18 0 9.08453587e-07 4
2  32 22 0 9.08453587e-07 4
4 C0 18 0 22 0
2  33 23 24 9.08453587e-07 4
0

0101000
+52 23 -54 0 *
Wi

0101100
-55 10 +74 10 +53 10 -51 10 -50 10 *
Fa
0  1e-07 18 10

0111000
+49 0 *
Ed
 1e-07 1 1 0
1  39 0 0 4
2  8 19 0 0 4
2  9 24 0 0 4
4 G1 24 0 19 0
0

0101000
+61 0 -66 0 *
Wi

0101100
-60 0 +69 0 +65 0 -47 0 *
Fa
0  1e-07 19 0

0111000
+46 0 *
Ve
1.56884118e-07
6.41530594324036 27.6606922120573 -11.3068049352911
0 0

0101101
*
Ed
 1e-07 1 1 0
1  40 0 0 2.08926764052214
2  6 24 0 0 2.08926764052214
2  30 20 0 0 2.08926764052214
0

0101000
+66 0 -44 23 *
Ed
 1e-07 1 1 0
1  41 0 0 2
2  34 22 0 0 2
2  31 20 0 0 2
4 C0 22 0 20 0
0

0101000
+44 23 -56 0 *
Wi

0101100
-43 10 +64 10 +55 10 -42 10 *
Fa
0  1e-07 20 10

0111000
+41 0 *
Ve
1.56884114e-07
4.44136548731225 27.6606940289644 -7.82778796544935
0 0

0101101
*
Ed
 1e-07 1 1 0
1  42 0 0 2.08926764052214
2  20 21 0 0 2.08926764052214
2  30 24 0 0 2.08926764052214
0

0101000
+61 0 -39 23 *
Ed
 1.00000002e-07 1 1 0
1  43 0 0 2
2  35 22 0 0 2
2  31 21 0 0 2
4 C0 22 0 21 0
2  36 23 24 0 2
0

0101000
+54 0 -39 23 *
Wi

0101100
-53 10 +59 10 +38 10 -37 10 *
Fa
0  1e-07 21 10

0111000
+36 0 *
Ed
 1.00000001e-07 1 1 0
1  44 0 0 2.00000000000021
2  37 25 28 0 2.00000000000021
2  38 25 30 0 2.00000000000021
2  39 23 31 0 2.00000000000021
2  40 22 32 0 2.00000000000021
0

0101000
+44 28 -52 28 *
Wi

0101100
+42 10 -34 27 +51 10 *
Fa
0  1e-07 22 10

0111000
+33 0 *
Ve
1e-07
38 -8.99999954577343 0
0 0

0101101
*
Ed
 1e-07 1 1 0
1  45 0 0 10.3393059710356
2  37 26 28 0 10.3393059710356
2  41 26 30 0 10.3393059710356
2  42 23 31 0 10.3393059710356
0

0101000
+39 28 -31 0 *
Ve
1e-07
38 -12.999999545773 0
0 0

0101101
*
Ed
 1e-07 1 1 0
1  46 0 0 3.99999999999959
2  43 23 31 0 3.99999999999959
0

0101000
+29 0 -31 0 *
Ed
 1e-07 1 1 0
1  44 0 2.00000000000021 10.3393077879427
2  37 25 28 2.00000000000021 10.3393077879427
2  38 25 30 2.00000000000021 10.3393077879427
2  39 23 31 2.00000000000021 10.3393077879427
0

0101000
+52 28 -29 0 *
Wi

0101100
-50 10 -37 10 -30 27 +28 27 +27 27 *
Fa
0  1e-07 23 33

0111000
+26 0 *
Ed
 1.00000004e-07 1 1 0
1  47 0 0 4
2  44 22 0 0 4
2  31 24 0 0 4
4 C0 22 0 24 0
2  45 23 24 0 4
0

0101000
+39 23 -44 23 *
Wi

0101100
-38 10 +47 10 +43 10 -24 10 *
Fa
0  1e-07 24 10

0111000
+23 0 *
Ve
1e-07
27.6606922120573 -12.999999545773 -0
0 0

0101101
*
Ed
 1e-07 1 1 0
1  48 0 0 2
2  46 25 0 0 2
2  47 27 0 0 2
0

0101000
+44 0 -21 34 *
Ed
 1e-07 1 1 0
1  49 0 0 2
2  48 25 0 0 2
0

0101000
+29 27 -29 34 *
Ed
 1e-07 1 1 0
1  44 0 0 10.3393077879427
2  37 25 28 0 10.3393077879427
2  38 25 30 0 10.3393077879427
2  39 23 31 0 10.3393077879427
0

0101000
+21 0 -29 0 *
Wi

0101100
+20 0 -19 0 -34 27 -27 27 +18 34 *
Fa
0  1e-07 25 0

0111000
+17 0 *
Ve
1e-07
27.6606940289644 -8.99999954577343 0
0 0

0101101
*
Ed
 1e-07 1 1 0
1  50 0 0 2
2  46 26 0 0 2
2  49 27 0 0 2
0

0101000
+39 0 -15 34 *
Ed
 1e-07 1 1 0
1  51 0 0 2
2  50 26 0 0 2
0

0101000
+31 27 -31 34 *
Ed
 1e-07 1 1 0
1  45 0 0 10.3393059710356
2  37 26 28 0 10.3393059710356
2  41 26 30 0 10.3393059710356
2  42 23 31 0 10.3393059710356
0

0101000
+15 0 -31 0 *
Wi

0101100
+14 0 -13 0 -30 27 +12 34 *
Fa
0  1e-07 26 0

0111000
+11 0 *
Wi

0101100
+19 0 -13 0 -28 27 +28 34 *
Fa
0  1e-07 28 0

0111000
+9 0 *
Ed
 1e-07 1 1 0
1  52 0 0 4
2  4 27 28 0 4
2  51 27 30 0 4
2  52 23 31 0 4
0

0101000
+15 0 -21 0 *
Wi

0101100
+14 0 -20 0 -24 10 +7 34 *
Fa
0  1e-07 27 0

0111000
+6 0 *
Wi

0101100
+18 0 +28 0 -12 0 +7 0 *
Fa
0  1e-07 23 0

0111000
+4 36 *
Sh

0101100
+138 4 +131 10 -123 4 +116 4 +109 10 +105 4 +100 4 +95 10 +90 4 +87 4 
-84 21 +79 10 +72 10 +70 4 +67 10 +62 10 +57 10 +48 0 +45 10 +40 0 
+35 0 +32 0 -25 0 +22 0 -16 0 +10 0 -8 0 -5 0 +3 35 *
So

0100000
+2 0 *

+1 1 