DBRep_DrawableShape

CASCADE Topology V1, (c) Matra-Datavision
Locations 22
1
              1               0               0               0 
              0               1               0               0 
              0               0               1               0 
1
              1               0               0               0 
              0               1               0               0 
              0               0               1               0 
1
              1               0               0               0 
              0               1               0               0 
              0               0               1               0 
2  2 1 3 1 0
2  3 -1 2 -1 0
1
              1               0               0               0 
              0               1               0               0 
              0               0               1               0 
1
              1               0               0               0 
              0               1               0               0 
              0               0               1               3 
2  6 1 7 1 2 1 3 1 0
2  7 -1 6 -1 0
1
              1               0               0               0 
              0               1               0               0 
              0               0               1               0 
1
              1               0               0               0 
              0               1               0               0 
              0               0               1               0 
1
              1               0               0               0 
              0               1               0               0 
              0               0               1               3 
2  10 1 11 1 12 1 2 1 3 1 0
2  11 -1 10 -1 0
2  12 -1 11 -1 10 -1 0
2  10 1 11 1 12 1 0
2  6 1 7 1 0
2  10 1 11 1 0
2  2 -1 0
2  10 1 11 1 12 1 2 1 0
1
              1               0               0              -0 
              0               1               0              -0 
              0               0               1              -2 
2  21 1 2 1 0
Curve2ds 111
1 3.1415926535897931 0 0 1 
1 0 0 0 1 
7 0 0  7 8 2  1.5707963267948972 0.88834686436787358  1.7951947747841388 0.88834686436788401  2.0195775743461502 0.88834686436802002  2.2440422382136265 0.88834686436770349  2.4683467421713425 0.88834686436758226  2.6928114060381114 0.88834686436785881  2.9171942056008988 0.88834686436764332  3.141592653589794 0.8883468643675001 
 103.95965197483207 8 108.18947560097116 8
7 0 0  1 2 2  1.5707963267948966 0  3.1415926535897931 0 
 1.570796326794897 2 3.141585514350782 2
1 1.5707963267948966 0 0 1 
1 0 0 1 0 
1 0 -3 1 0 
8 1.570796326794897 2.4132126220764625
7 0 0  1 2 2  1.5707963267948966 0  3.1415926535897931 0 
 1.570796326794897 2 3.141585514350782 2
1 27.500021417717033 0 0 1 
6 0 1 3.1415926535897931 0  3.1415926535897931 17.602680973572781  
1 -13.749991758879702 6.8359517669153309 0.99999999999991085 -4.2228095843052395e-07 
8 0 1.5533430342749532
1 0 33.999999999999716 1 0 
7 0 0  9 10 2  4.4408920985006262e-16 103.95965197483208  0.52078123537606025 103.95965197483292  1.0001939735155259 103.95965197482911  1.4550879824129106 103.9596519748372  1.8963842144506262 103.95965197482539  2.3334394116884494 103.95965197483879  2.7747356437262076 103.95965197482703  3.2296296526235304 103.95965197483457  3.7090423907630332 103.95965197483146  4.2298236261390931 103.9596519748321 
 0 10 1.5533430342749532 10
1 4.229823626139094 0 0 1 
7 0 0  6 7 2  -33.999999999999723 28.227396331031994  -34.190430936075451 28.227396331031912  -34.38084885030306 28.167584745418978  -34.547866276655704 28.04786675707216  -34.667584411454058 27.880849435698707  -34.727396164039902 27.690431573918918  -34.727396331023947 27.500000637845432 
 103.95965197483207 7 108.18947560097116 7
7 0 0  7 8 2  1.1102230246251565e-16 -2.3913552649192849e-06  0.20025978980029435 -2.3913552649192921e-06  0.41967734664676931 -2.3913552649192158e-06  0.6548358098471504 -2.3913552649194119e-06  0.89850722442666153 -2.3913552649191803e-06  1.133665687638729 -2.3913552649193243e-06  1.3530832444746594 -2.3913552649192794e-06  1.5533430342749535 -2.3913552649192849e-06 
 0 8 4.229823626139094 8
8 0 4.229823626139094
1 0 108.18947560097116 1 0 
1 -33.999999999999716 -1.9653945262313783 1 0 
1 1.5707963267948961 0 0 -1 
1 2.4132126220764629 0 0 -1 
6 0 1 4.7123889803847829 0  4.7123889803847829 17.602680973572781  
1 0 0.017453292519944083 1 0 
1 3.1415926535897931 15.637286447341401 1 0 
8 3.8699726851031864 4.7123889803847829
1 0 0 1 0 
1 1.5533430342749532 0 0 1 
1 -34.727396331031983 27.5 0 -1 
8 0 1.5533430342749532
1 0 27.5 1 0 
8 0 1.5533430342749532
1 0 0.017453292519944083 0 1 
7 0 0  9 10 2  -3.3306690738754696e-16 0  0.15575761428884921 0  0.32268028665837056 0  0.49941488191458711 0  0.68325886100763156 0  0.87008417326719667 0  1.0539281523605255 0  1.2306627476165499 0  1.3975854199861055 0  1.553343034274953 0 
 0 10 4.2298243997526299 10
8 0 4.2298243997526299
1 0 69.959651974832354 1 0 
1 3.5527136788005009e-15 28.227396331031994 -1 -0 
1 -33.999999999999986 -0.72739633103199353 1 0 
1 0 1.5707963267948974 1 0 
2 -33.999999999999993 0 -1 0 -0 -1 0.72739633103199153
1 0 1.5707963267948966 1 0 
2 0 0 0 -1 1 0 0.72739633103198975
1 0.72739633103198642 0 0 1 
1 4.2298243997526299 0 0 1 
7 0 0  6 7 2  0.72739633102847834 27.500000428871314  0.72739621875205063 27.690431399773811  0.66758449900674544 27.880849313550129  0.54786636832788294 28.047866691348577  0.38084891994491799 28.167584723555294  0.19043097090346051 28.227396331032143  1.2545520178264269e-14 28.227396331031986 
 65.729827575079725 7 69.959651974832354 7
1 6.2831853071795862 17.602680973572767 -1 0 
1 12.566370614359172 17.602680973572767 -1 0 
1 3.8699726851031233 0 0 -1 
1 3.8699726851031229 0 0 -1 
1 0 0 0 -1 
1 6.2831853071795862 0 0 -1 
7 0 0  7 8 2  -3.0569021546165154e-15 0.88834686436770449  0.22439844798786279 0.88834686436778099  0.44878124753316395 0.88834686436796262  0.67324591146814927 0.8883468643676572  0.8975504153267122 0.88834686436769283  1.1220150792617201 0.88834686436806198  1.3463978788069499 0.88834686436787358  1.5707963267948986 0.88834686436787313 
 65.729827575079725 8 69.959651974832354 8
8 0.72838003151332964 1.5707963267948957
7 0 0  1 2 2  0 0  1.5707963267948966 0 
 4.8002454195000001e-06 2 1.5707963267948957 2
7 0 0  1 2 2  0 0  1.5707963267948966 0 
 4.8002454195000001e-06 2 1.5707963267948957 2
6 0 1 4.7123889803846906 0  4.7123889803846906 17.602680973572781  
1 -2.7711166694643907e-13 -1.9653945262313783 1 0 
8 0 1.5533430342749532
1 0 2.7784344478256235e-14 1 0 
8 0 1.5533430342749532
1 1.5707963267949898 0.017453292519944083 0 1 
1 4.7123889803846897 0 0 -1 
8 0 1.5533430342749532
1 0 27.500001607887366 1 0 
7 0 0  9 10 2  -4.4408920985006262e-16 65.729827575079739  0.5207813306239566 65.729827575080705  1.0001941766681526 65.729827575076143  1.4550881158956603 65.729827575086333  1.8963847132669216 65.72982757507107  2.3334398519569786 65.729827575088791  2.7747360091854762 65.729827575072221  3.2296303293843631 65.729827575084002  3.7090430691286658 65.729827575078531  4.2298243997526299 65.729827575079753 
 0 10 1.5533430342749532 10
8 0 1.5533430342749532
1 0 33.999999999999993 1 0 
8 0 1.5533430342749532
1 8.8817841970012523e-16 0.017453292519944083 0 1 
1 4.7123889803846897 15.637286447341401 1 0 
8 0.017453292519944083 1.5707963267948966
1 1.5707963267948966 0 0 1 
8 0.017453292519944083 1.5707963267948966
1 -0.017453292519944083 0 1 0 
1 -13.750005541122249 6.8359420564989311 0.99999999999995981 2.8393125791374101e-07 
1 0.72838003151332986 0 0 -1 
1 0 0 -1 0 
6 0 1 6.2831853071795862 0  6.2831853071795862 17.602680973572781  
1 -27.500014400736259 0 0 1 
1 7.0115653386929164 0 0 -1 
1 5.5548052756662569 0 0 -1 
1 5.554805275666256 0 0 -1 
8 4.7123889803846906 5.5548052756662569
1 0 0 1 0 
1 3.141592653589794 0 0 -1 
1 3.1415926535897793 0 0 -1 
1 1.5707963267948952 0 0 -1 
8 1.5707963267948966 3.1415926535897931
1 6.2831853071795862 0 -1 0 
1 1.5707963267948979 0 0 -1 
8 0 1.570796326794893
1 6.2831853071795862 0 -1 0 
1 4.7123889803846915 0 0 -1 
8 4.7123889803846897 6.2831853071795862
1 6.2831853071795862 0 -1 0 
8 3.1415926535897931 4.7123889803846897
1 6.2831853071795862 0 -1 0 
6 0 1 3.1415926535897931 0  3.1415926535897931 17.602680973572767  
1 27.500000000000014 -2.9830019192034918 -1 0 
7 0 0  9 10 2  4.7123889803846897 14.619679054369275  4.5378560613863952 14.619679054369188  4.3633229927300254 14.619679054369664  4.1887919422875672 14.619679054368442  4.0142531352409012 14.619679054370248  3.8397284987336264 14.619679054368563  3.6651896916872091 14.6196790543696  3.4906586412432197 14.619679054369184  3.316125572589383 14.619679054369293  3.1415926535897984 14.619679054369275 
 0 10 1 10
6 0 1 4.7123889803846897 0  4.7123889803846897 17.602680973572767  
1 33.999999999999716 -2.9830019192034918 -1 0 
6 0 1 4.7123889803846932 0  4.7123889803846932 17.602680973572767  
7 0 0  9 10 2  6.2831853071795791 14.619679054369275  6.1086523881810173 14.619679054369293  5.9341187432625828 14.619679054369335  5.7595899870593872 14.619679054369122  5.5850467541048197 14.619679054369195  5.4105275334574641 14.619679054369662  5.2359843005089894 14.61967905436882  5.0614555442987212 14.619679054369557  4.88692189938401 14.619679054369184  4.7123889803847074 14.619679054369273 
 0 10 1 10
6 0 1 6.2831853071795862 0  6.2831853071795862 17.602680973572767  
1 27.5 -2.9830019192034918 -1 0 
6 0 1 0 0  0 17.602680973572767  
7 0 0  9 10 2  1.5707963267948968 14.619679054369275  1.3962634077962925 14.619679054369193  1.2217303391411192 14.619679054369637  1.0471992886967614 14.619679054368508  0.87266048165156518 14.61967905437014  0.69813584514416349 14.619679054368694  0.52359703809665448 14.619679054369486  0.34906598765411417 14.619679054369252  0.17453291899925652 14.619679054369277  2.2204460492503131e-16 14.619679054369275 
 0 10 1 10
6 0 1 1.5707963267948966 0  1.5707963267948966 17.602680973572767  
1 33.999999999999993 -2.9830019192034918 -1 0 
7 0 0  9 10 2  3.141592653589798 14.619679054369275  2.967059734591555 14.619679054369128  2.7925260896718482 14.619679054369877  2.6179973334714988 14.619679054368063  2.4434541005125112 14.619679054370765  2.2689348798699571 14.619679054368079  2.0943916469177659 14.619679054369946  1.9198628907094448 14.619679054368996  1.74532924579425 14.619679054369357  1.5707963267948888 14.619679054369275 
 0 10 1 10
8 0 1
7 0 0  1 2 2  0 1.4210854715202004e-14  1.5533430342749532 0.25499627599589481 
 0 2 1 2
8 0 1
1 1 0 0 1 
1 -16.745003724004167 13.75000000000005 0 -1 
7 0 0  1 2 2  -1.3233858453531866e-13 27.500000000000039  1.5533430342749424 27.245003724004139 
 0 2 1 2
7 0 0  1 2 2  0 -1.1679546219056647e-13  0 1.0000000000001705 
 0 2 1 2
7 0 0  1 2 2  -1.283417816466681e-13 33.999999999999744  1.5533430342749424 33.745003724004121 
 0 2 1 2
7 0 0  5 6 2  0 0  0 0.19999999999996823  0 0.40003130962065597  0 0.59996869037949974  0 0.79999999999993787  0 1 
 0 6 1 6
1 0 1 1 0 
7 0 0  1 2 2  -2.1094237467877974e-15 -3.8857805861880479e-16  1.5533430342749313 0.25499627599587871 
 0 2 1 2
1 16.999999999999954 13.495003724004155 -1 0 
7 0 0  1 2 2  -1.3011813848606835e-13 27.500000000000025  1.5533430342749424 27.245003724004125 
 0 2 1 2
7 0 0  1 2 2  0 -1.1168843627729075e-13  0 1.0000000000001421 
 0 2 1 2
8 0 1
7 0 0  1 2 2  0 0  1.5533430342749532 0.25499627599588059 
 0 2 1 2
1 16.745003724004071 -13.749999999999964 0 1 
7 0 0  1 2 2  -1.2367884494324244e-13 34.000000000000021  1.5533430342749421 33.745003724004114 
 0 2 1 2
7 0 0  5 6 2  0 -1.1102230246251565e-16  0 0.19999999999997545  0 0.40003130962050021  0 0.59996869037954303  0 0.79999999999996063  0 1 
 0 6 1 6
7 0 0  1 2 2  -1.1501910535116622e-13 -1.8873791418627661e-14  1.5533430342749424 0.25499627599587343 
 0 2 1 2
7 0 0  1 2 2  1 -6.9499961341534799e-14  1 0.99999999999997868 
 0 2 1 2
1 -17.000000000000043 -13.495003724004084 1 0 
Curves 118
7 0 0  1 2 2  -19.999999999923403 13.750021417717036 3  -19.69279085726323 13.750000000000002 20.600000000000005 
 0 2 1 2
7 1 0  6 7 2  -16.999999999999858 16.477091721344774 18.634904812874574  1.0000000000000004 -17.713947276201853 16.47709172134461 18.634904812874591  1.0000000000000031 -18.427845729255832 16.252851269091046 18.634904812878791  0.99999999999999156 -19.054013097945351 15.804014899085004 18.634904812865319  1.0000000000000087 -19.502850017026244 15.177847923974984 18.634904812875554  0.99999999999999489 -19.727091095286585 14.463949667554544 18.634904812870957  1.0000000000000018 -19.727091721336212 13.750002391355267 18.634904812868008  1
 103.95965197483207 7 108.18947560097116 7
2 -16.999999999999858 13.750000000000002 0 0 0 1 1 0 0 0 1 0 2.9999999999999991
6 0 1 -16.999999999999858 16.75 3  -16.999999999999858 16.442790857263372 20.600000000000005  
2 -16.999999999999858 13.750000000000002 0 0 0 1 1 0 0 0 1 0 2.9999999999999991
7 0 0  1 2 2  -20.000000000000139 -13.749999999999998 3  -19.69279085726351 -13.749999999999998 20.600000000000005 
 0 2 1 2
1 -19.727091721344909 13.75 18.634904812874574 0 -1 0 
1 -20.000000000000139 13.750021417717035 0 0 -1 0 
2 -16.999999999999858 14.477396331031995 18.600000000000005 1 0 0 -0 0.99984769515639127 0.017452406437283432 0 -0.017452406437283432 0.99984769515639127 2
7 1 0  6 7 2  -16.999999999999847 14.477396331031988 20.600000000000005  1.0000000000000004 -17.190430936075469 14.477396331031828 20.600000000000005  1.0000000000000031 -17.380848850303572 14.417584745419182 20.600000000000005  0.99999999999999156 -17.547866276655434 14.297866757071976 20.600000000000005  1.0000000000000087 -17.66758441145446 14.130849435698797 20.600000000000005  0.99999999999999489 -17.727396164039956 13.9404315739189 20.600000000000005  1.0000000000000018 -17.727396331024078 13.750000637845437 20.600000000000005  1
 103.95965197483207 7 108.18947560097116 7
7 1 0  2 3 2  -19.727091721336212 13.750002391355267 18.634904812868008  1 -19.692790857261166 13.750002361277227 20.600000000000005  0.71325044915303115 -17.727396331024078 13.750000637845437 20.600000000000005  1
 0 3 4.229823626139094 3
1 -19.238761195658427 -15.746984804352152 0 -0.66566160145071762 0.74625373188619015 0 
2 -26.250000000000004 0 0 0 0 1 1 0 0 0 1 0 5.2499999999999982
1 -30.167832092402499 3.494723407616267 0 0.66566160145071751 0.74625373188619026 0 
2 -17.000000000000139 -13.749999999999998 0 0 0 1 1 0 0 0 1 0 3.0000000000000013
2 -26.250000000000004 0 0 0 0 1 1 0 0 0 1 0 2.25
1 16.999999999999858 16.477091721344777 18.634904812874574 -1 -0 -0 
1 -16.999999999999858 16.75 0 1 0 0 
7 0 0  1 2 2  16.999999999999858 16.749999999999996 3  16.999999999999858 16.442790857263368 20.600000000000005 
 0 2 1 2
1 -16.999999999999858 16.75 0 0 0 1 
1 -19.238761195658427 15.746984804352154 0 0 0 1 
6 0 1 -16.999999999999858 -16.75 3  -17.000000000000139 -16.442790857263372 20.600000000000005  
2 -17.000000000000139 -13.749999999999998 18.634904812874574 0 0 1 -1 0 0 0 -1 0 2.7270917213447738
2 -16.999999999999858 -13.75 0 0 0 1 1 0 0 0 1 0 2.9999999999999991
1 -17.727396331032125 13.75 20.600000000000005 0 -1 0 
2 -17.727396331032125 -13.75 18.600000000000005 -0 1 -0 -0.99984769515639127 0 0.017452406437283428 0.017452406437283428 0 0.99984769515639127 2
7 1 0  2 3 2  16.999999999999858 16.47709172134477 18.634904812874574  1 16.999999999999854 16.442790857263368 20.600000000000001  0.71325044915418156 16.999999999999869 14.477396331031988 20.600000000000005  1
 0 3 4.2298243997526299 3
1 16.999999999999858 14.477396331031995 20.600000000000005 -1 -0 -0 
1 -17.000000000000135 -14.477396331031992 20.600000000000005 1 0 0 
2 -17.000000000000139 -13.749999999999998 20.600000000000005 0 0 1 -1 0 0 0 -1 0 0.72739633103199153
2 16.999999999999854 -13.749999999999998 20.600000000000005 0 0 1 0 -1 0 1 0 -0 0.72739633103198975
1 17.727396331031841 -13.749999999999998 20.600000000000005 -0 1 -0 
7 1 0  6 7 2  17.727396331028334 13.750000428871319 20.600000000000005  1 17.727396218751903 13.94043139977372 20.600000000000005  1.0000000000000047 17.667584499006612 14.13084931355046 20.600000000000005  0.99999999999998646 17.547866368327718 14.297866691348146 20.600000000000009  1.0000000000000171 17.380848919944782 14.417584723555553 20.600000000000001  0.99999999999998879 17.190430970903311 14.47739633103207 20.600000000000005  1.0000000000000036 16.999999999999869 14.477396331031988 20.600000000000005  1
 65.729827575079725 7 69.959651974832354 7
2 16.999999999999854 -13.749999999999998 20.599999999999991 0 -0 1 1 0 0 -0 1 0 0.69279085726337053
1 17.692790857263226 13.750000000000002 20.599999999999991 -0 -1 0 
2 16.999999999999854 13.750000000000002 20.599999999999991 0 -0 1 1 0 0 -0 1 0 0.69279085726337053
1 -16.999999999999858 14.442790857263372 20.599999999999991 1 0 -0 
2 -16.999999999999858 13.750000000000002 20.599999999999991 0 -0 1 1 0 0 -0 1 0 0.69279085726337053
1 -17.692790857263514 -13.749999999999998 20.599999999999991 0 1 0 
2 -17.000000000000139 -13.749999999999998 20.599999999999991 0 -0 1 1 0 0 -0 1 0 0.69279085726337053
1 16.999999999999854 -14.442790857263368 20.599999999999991 -1 0 0 
1 -19.238761195658427 -15.746984804352152 0 0 0 1 
1 -30.167832092402502 -3.4947234076162648 0 0 0 1 
1 -30.167832092402499 3.494723407616267 0 0 0 1 
1 -24.000000000000004 0 0 0 0 1 
1 16.999999999999858 16.75 0 0 0 1 
7 1 0  6 7 2  19.72709172134082 13.750001607887359 18.634904812871603  1 19.727091300400208 14.463949014661779 18.634904812873117  1.0000000000000047 19.502850345265944 15.177847466023275 18.63490481287748  0.99999999999998646 19.054013441634165 15.804014652675836 18.634904812865603  1.0000000000000171 18.42784599034859 16.252851187122289 18.634904812879196  0.99999999999998879 17.713947406775606 16.477091721344859 18.634904812874584  1.0000000000000036 16.999999999999858 16.47709172134477 18.634904812874574  1
 65.729827575079725 7 69.959651974832354 7
2 16.999999999999854 13.750000000000002 0 0 0 1 1 0 0 0 1 0 2.9999999999999991
7 0 0  1 2 2  19.999999999999854 13.75001440073626 3  19.692790857263226 13.750000000000002 20.600000000000005 
 0 2 1 2
2 16.999999999999854 13.750000000000002 0 0 0 1 1 0 0 0 1 0 2.9999999999999991
1 19.238761195658427 15.746984804352154 0 0.66566160145071762 -0.74625373188619026 0 
2 26.250000000000004 0 0 0 0 1 1 0 0 0 1 0 5.2499999999999982
1 30.167832092402499 -3.4947234076162661 0 -0.66566160145071751 -0.74625373188619026 0 
2 16.999999999999854 -13.75 0 0 0 1 1 0 0 0 1 0 2.9999999999999991
1 -16.999999999999858 -16.75 0 1 0 0 
1 -18.000000000000142 -13.749999999999998 0 0 1 0 
2 -16.999999999999858 13.750000000000002 0 0 0 1 1 0 0 0 1 0 1
1 -16.999999999999858 14.750000000000002 0 1 0 0 
2 16.999999999999854 13.750000000000002 0 0 0 1 1 0 0 0 1 0 1
1 17.999999999999854 13.750000000000002 0 0 -1 0 
2 16.999999999999854 -13.749999999999998 0 0 0 1 1 0 0 0 1 0 1
1 16.999999999999854 -14.749999999999998 0 -1 0 0 
2 -17.000000000000139 -13.749999999999998 0 0 0 1 1 0 0 0 1 0 1
2 26.250000000000004 0 0 0 0 1 1 0 0 0 1 0 2.25
6 0 1 16.999999999999858 -16.75 3  16.999999999999854 -16.442790857263368 20.600000000000005  
1 -17.000000000000135 -16.477091721344774 18.634904812874574 1 0 0 
2 -17.000000000000107 -14.477396331031992 18.600000000000005 -1 -0 -0 0 -0.99984769515639127 0.017452406437283432 -0 0.017452406437283432 0.99984769515639127 2
1 -16.999999999999858 -16.75 0 0 0 1 
2 17.727396331031841 13.750001607887368 18.600000000000005 0 -1 0 0.99984769515639127 0 0.017452406437283428 -0.017452406437283428 0 0.99984769515639127 2
2 16.999999999999858 -14.477396331031992 18.600000000000005 -1 -0 -0 0 -0.99984769515639127 0.017452406437283432 -0 0.017452406437283432 0.99984769515639127 2
2 16.999999999999854 -13.749999999999998 18.634904812874574 0 0 1 0 -1 0 1 0 -0 2.7270917213447721
2 17.727396331031844 -13.749999999999998 18.600000000000005 -6.123233995736766e-17 -1 0 1 -6.123233995736766e-17 0 0 0 1 2
1 19.727091721344625 -13.749999999999998 18.634904812874574 -0 1 -0 
1 19.238761195658427 15.746984804352154 0 0 0 1 
1 19.999999999999854 13.75001440073626 0 0 -1 0 
6 0 1 19.999999999999854 -13.749999999999998 3  19.692790857263226 -13.749999999999998 20.600000000000005  
2 16.999999999999854 -13.749999999999998 0 0 0 1 1 0 0 0 1 0 3.0000000000000009
1 30.167832092402502 3.4947234076162652 0 0 0 1 
1 30.167832092402499 -3.4947234076162648 0 0 0 1 
1 19.238761195658427 -15.746984804352152 0 0 0 1 
1 16.999999999999858 -16.75 0 0 0 1 
1 -18.000000000000142 -13.749999999999998 0 0 0 1 
1 -18 13.750000000000016 0 0 0 1 
1 -16.999999999999858 14.750000000000002 0 0 0 1 
1 16.999999999999858 14.750000000000002 0 0 0 1 
1 17.999999999999854 13.750000000000002 0 0 0 1 
1 17.999999999999854 -13.749999999999998 0 0 0 1 
1 16.999999999999854 -14.749999999999998 0 0 0 1 
1 -17.000000000000139 -14.749999999999998 0 0 0 1 
1 28.500000000000004 0 0 0 0 1 
6 0 1 -18.000000000000142 -13.749999999999998 3  -17.69279085726351 -13.749999999999998 20.599999999999991  
1 -17.744851419160653 13.750000000000016 17.617452406437287 0 -1 0 
6 0 1 -18 13.750000000000009 3  -17.692790857263514 13.750000000000002 20.599999999999991  
7 0 0  7 8 2  -16.999999999999858 14.494851419160511 17.617452406437287  -17.167144261664799 14.494851419160511 17.61745240643728  -17.33428773993959 14.45109222581633 17.617452406437049  -17.487689175227732 14.363580839327994 17.617452406437746  -17.61358083932916 14.237689175230294 17.617452406436897  -17.701092225816335 14.084287739937675 17.6174524064377  -17.744851419160504 13.917144261666179 17.617452406437284  -17.744851419160504 13.750000000000004 17.617452406437287 
 0 8 1 8
6 0 1 -16.999999999999858 14.750000000000002 3  -16.999999999999858 14.442790857263372 20.599999999999991  
1 16.999999999999858 14.494851419160513 17.617452406437287 -1 0 0 
6 0 1 16.999999999999858 14.750000000000002 3  16.999999999999858 14.442790857263372 20.599999999999991  
7 0 0  8 16 3  17.744851419160362 13.750000000000007 17.617452406437287  17.744851419160362 13.823125614478529 17.617452406437295  17.736646744226839 13.896251239731955 17.617452406437035  17.720237394350622 13.9683028517212 17.617452406437433  17.695792070069263 14.038206521326101 17.61745240643689  17.66364817878263 14.104921307729628 17.617452406437312  17.62430314730431 14.167472670078096 17.617452406437049  17.578397109030035 14.224981869899134 17.61745240643716  17.474981869898794 14.328397109030385 17.617452406437142  17.417472670077686 14.374303147304751 17.617452406437202  17.354921307729416 14.413648178782854 17.617452406437192  17.288206521325527 14.445792070069666 17.617452406437156  17.218302851721386 14.470237394350765 17.61745240643727  17.146251239731278 14.486646744227182 17.617452406437252  17.073125614478684 14.494851419160508 17.61745240643728  16.999999999999854 14.494851419160508 17.617452406437287 
 0 9 0.5 7 1 9
6 0 1 17.999999999999854 13.750000000000002 3  17.692790857263226 13.750000000000002 20.599999999999991  
1 17.744851419160366 -13.749999999999998 17.617452406437287 0 1 0 
6 0 1 17.999999999999854 -13.749999999999998 3  17.692790857263226 -13.749999999999998 20.599999999999991  
7 0 0  7 8 2  16.999999999999854 -14.494851419160508 17.617452406437287  17.167144261665136 -14.494851419160508 17.617452406437287  17.3342877399385 -14.451092225816266 17.617452406437067  17.487689175228873 -14.363580839328323 17.617452406437774  17.613580839328289 -14.23768917522964 17.617452406436914  17.701092225816367 -14.084287739938166 17.61745240643771  17.744851419160362 -13.917144261665902 17.617452406437287  17.744851419160362 -13.749999999999995 17.617452406437287 
 0 8 1 8
6 0 1 16.999999999999854 -14.749999999999998 3  16.999999999999854 -14.442790857263368 20.599999999999991  
1 -17.000000000000139 -14.49485141916051 17.617452406437287 1 0 0 
6 0 1 -17.000000000000139 -14.749999999999998 3  -17.000000000000139 -14.442790857263368 20.599999999999991  
7 0 0  8 16 3  -17.744851419160657 -13.749999999999996 17.617452406437287  -17.744851419160657 -13.823125614478402 17.617452406437284  -17.736646744227269 -13.896251239732242 17.617452406436946  -17.720237394350619 -13.968302851720907 17.617452406437565  -17.695792070070237 -14.03820652132592 17.617452406436602  -17.663648178782374 -14.104921307729974 17.617452406437419  -17.624303147304982 -14.167472670077721 17.617452406436875  -17.578397109030377 -14.224981869899079 17.617452406437032  -17.474981869899139 -14.328397109030259 17.617452406437042  -17.417472670078073 -14.374303147304596 17.617452406436772  -17.35492130772986 -14.413648178782827 17.617452406437533  -17.288206521325616 -14.445792070069395 17.617452406436382  -17.218302851722029 -14.470237394350866 17.617452406437636  -17.146251239731392 -14.486646744226984 17.617452406436879  -17.073125614479011 -14.494851419160504 17.617452406437305  -17.000000000000135 -14.494851419160504 17.617452406437302 
 0 9 0.5 7 1 9
7 0 0  7 8 2  -17.744851419160504 13.750000000000004 17.617452406437287  -17.740978622878977 13.71357196057202 17.839324756809727  -17.679664055376215 13.677143921143919 18.060193473116939  -17.561227715800634 13.640715881716204 18.262220850647903  -17.392878642359577 13.604287842287919 18.427657024364908  -17.188815035442776 13.567859802860138 18.542549461609664  -16.966909871757807 13.531431763432096 18.599999999999905  -16.745003724004263 13.495003724004121 18.600000000000005 
 0 8 1 8
1 -16.745003724004263 13.750000000000016 18.600000000000005 0 -1 0 
7 0 0  5 6 2  -17.744851419160657 -13.749999999999998 17.617452406437291  -17.739429504366456 -13.699000744800792 17.928073696958645  -17.613711778638788 -13.648001489601675 18.236866989874208  -17.366612669906221 -13.597002234402447 18.479690607743766  -17.055672330859263 -13.546002979203305 18.600000000000012  -16.745003724004267 -13.495003724004119 18.600000000000009 
 0 6 1 6
7 0 0  5 6 2  -16.999999999999858 14.494851419160513 17.617452406437291  -16.949000744800696 14.489429504366335 17.928073696958645  -16.898001489601675 14.363711778638608 18.236866989874208  -16.847002234402463 14.116612669906102 18.479690607743766  -16.796002979203386 13.805672330859121 18.600000000000012  -16.745003724004263 13.495003724004121 18.600000000000009 
 0 6 1 6
7 0 0  3 10 5  16.999999999999854 14.494851419160508 17.617452406437287  16.978750310333531 14.492592287996285 17.746877944154541  16.957500620667229 14.464892652456133 17.875810695864455  16.915001241334569 14.362697215849913 18.113677016904088  16.89375155166827 14.288239873044573 18.222521072207602  16.851252172335602 14.103586103563382 18.403979826100777  16.830002482669276 13.993459165927808 18.476526238000716  16.787503103336618 13.753845516785294 18.574554770034435  16.766253413670302 13.624448976860371 18.599999999999998  16.745003724003976 13.495003724004121 18.600000000000005 
 0 4 0.25 2 0.5 2 0.75 2 1 4
1 16.999999999999858 13.495003724004121 18.600000000000005 -1 0 0 
7 0 0  5 6 2  17.744851419160369 13.750000000000002 17.617452406437291  17.739429504366178 13.699000744800788 17.928073696958645  17.613711778638475 13.648001489601684 18.236866989874208  17.366612669905948 13.597002234402453 18.479690607743766  17.055672330858975 13.546002979203305 18.600000000000012  16.745003724003979 13.495003724004123 18.600000000000009 
 0 6 1 6
7 0 0  7 8 2  17.744851419160362 -13.749999999999995 17.617452406437287  17.740978622878835 -13.713571960572011 17.839324756809727  17.679664055376062 -13.677143921143806 18.060193473116939  17.561227715800374 -13.640715881716316 18.262220850647903  17.392878642359484 -13.604287842287739 18.427657024364908  17.188815035442389 -13.567859802860243 18.542549461609664  16.966909871757576 -13.53143176343205 18.599999999999905  16.745003724003976 -13.495003724004118 18.600000000000005 
 0 8 1 8
1 16.745003724003976 -13.749999999999998 18.600000000000005 0 1 0 
7 0 0  5 6 2  16.999999999999854 -14.49485141916051 17.617452406437291  16.949000744800625 -14.489429504366331 17.928073696958645  16.898001489601601 -14.363711778638601 18.236866989874208  16.847002234402236 -14.116612669906102 18.479690607743766  16.796002979203177 -13.805672330859116 18.600000000000012  16.745003724003976 -13.495003724004118 18.600000000000009 
 0 6 1 6
7 0 0  5 6 2  -17.000000000000142 -14.49485141916051 17.617452406437291  -16.949000744800895 -14.489429504366331 17.928073696958645  -16.898001489601899 -14.363711778638601 18.236866989874208  -16.847002234402524 -14.116612669906102 18.479690607743766  -16.796002979203472 -13.805672330859116 18.600000000000012  -16.745003724004263 -13.495003724004118 18.600000000000009 
 0 6 1 6
1 -17.000000000000139 -13.495003724004118 18.600000000000005 1 0 0 
Polygon3D 0
PolygonOnTriangulations 0
Surfaces 67
9 0 0 0 0 8 1 9 2 2 2 -16.999999999999847 16.749999999999993 2.9999999999999982  -16.999999999999858 16.442790857263372 20.600000000000005  
-17.589045945333261 16.749999999999975 2.9999999999999956  -17.528728248426873 16.44279085726324 20.599999999999952  
-18.178092076076478 16.61781883465229 3.0000000000000289  -18.057456663283194 16.324144367585294 20.600000000000222  
-18.732532143234657 16.35345780216338 2.9999999999999454  -18.555122357365864 16.086852553545764 20.599999999999614  
-19.217767445731738 15.967783278960137 3.0000000000000622  -18.990669218715805 15.740669218716889 20.600000000000428  
-19.603445433135757 15.482550729898358 2.999999999999948  -19.336852553546592 15.305122357365374 20.599999999999675  
-19.867810423898209 14.928112550090544 3.0000000000000342  -19.57414436758452 14.807456663283649 20.600000000000168  
-19.999995794583537 14.339067363035474 2.9999999999999876  -19.692790857263294 14.27872824842694 20.599999999999966  
-19.999999999923403 13.750021417717036 3  -19.69279085726323 13.750000000000002 20.600000000000005  

1.5707963267948966 9
3.1415926535897931 9

0 2
1 2

9 0 0 0 0 1 1 2 2 2 2 -20.000000000000139 13.750021417717035 3  -19.69279085726351 13.750000000000002 20.600000000000005  
-20.000000000000139 -13.749999999999998 3  -19.69279085726351 -13.749999999999998 20.600000000000005  

0 2
27.500021417717033 2

0 2
1 2

9 1 1 0 0 2 6 3 7 2 2 -16.999999999999858 16.477091721344774 18.634904812874574  1.0000000000000004 -17.713947276201853 16.47709172134461 18.634904812874591  1.0000000000000031 -18.427845729255832 16.252851269091046 18.634904812878791  0.99999999999999156 -19.054013097945351 15.804014899085004 18.634904812865319  1.0000000000000087 -19.502850017026244 15.177847923974984 18.634904812875554  0.99999999999999489 -19.727091095286585 14.463949667554544 18.634904812870957  1.0000000000000018 -19.727091721336212 13.750002391355267 18.634904812868008  1 
-16.999999999999854 16.442790857263368 20.600000000000001  0.71325044915418168 -17.704967377106183 16.442790857263191 20.600000000000001  0.71325044915418645 -18.409886545160617 16.221370860674728 20.600000000000005  0.71325044915491564 -19.028178094459186 15.778179872945067 20.600000000000016  0.71325044915256808 -19.471369624361056 15.159888712276551 20.599999999999998  0.71325044915434821 -19.692790239083063 14.45496973838201 20.600000000000005  0.71325044915354974 -19.692790857261166 13.750002361277227 20.600000000000005  0.71325044915303115 
-16.999999999999847 14.477396331031988 20.600000000000005  1.0000000000000004 -17.190430936075469 14.477396331031828 20.600000000000005  1.0000000000000031 -17.380848850303572 14.417584745419182 20.600000000000005  0.99999999999999156 -17.547866276655434 14.297866757071976 20.600000000000005  1.0000000000000087 -17.66758441145446 14.130849435698797 20.600000000000005  0.99999999999999489 -17.727396164039956 13.9404315739189 20.600000000000005  1.0000000000000018 -17.727396331024078 13.750000637845437 20.600000000000005  1 

0 3
4.229823626139094 3

103.95965197483207 7
108.18947560097116 7

1 16.999999999999854 -13.749999999999998 3 0 0 1 1 0 0 0 1 0 
1 -16.999999999999858 16.442790857263372 20.600000000000005 -0 0.99984769515639127 0.017452406437283432 -1 0 -0 -0 -0.017452406437283432 0.99984769515639127 
2 -16.999999999999858 13.750000000000002 0 -0 -0 -1 1 0 0 0 1 0 2.9999999999999991
1 -19.846395428631823 5.3544292609207703e-06 11.79999999999999 -0.99984769515639127 6.1373856688453965e-18 0.017452406437283425 7.3698189111186394e-09 -0.99999999999991085 4.2221664299529836e-07 0.017452406437281871 4.2228095843052395e-07 0.99984769515630212 
10 3.1415926535897931 4.7123889803847829 0 17.602680973572781
3 -17.000000000000139 -13.749999999999998 3 0 0 1 1 0 0 0 1 0 3.0000000000000013
-0.017453292519943264
2 -17.727396331032125 13.75 18.600000000000005 0 -1 0 -0.99984769515639127 0 0.017452406437283428 0.017452406437283428 0 0.99984769515639127 2
2 16.999999999999858 14.477396331031995 18.600000000000005 -1 -0 -0 -0 0.99984769515639127 0.017452406437283432 -0 -0.017452406437283432 0.99984769515639127 2
1 16.999999999999854 -13.749999999999998 20.600000000000005 0 -0 1 1 0 0 -0 1 0 
1 -4.3363924497974781e-14 -1.2472571674202196e-14 0 0 0 1 1 0 -0 -0 1 0 
2 -26.250000000000004 0 0 -0 -0 -1 1 0 0 0 1 0 5.2499999999999982
2 -26.250000000000004 0 0 -0 -0 -1 1 0 0 0 1 0 2.25
1 -16.999999999999858 16.442790857263372 20.600000000000005 -0 0.99984769515639127 0.017452406437283432 -1 0 -0 -0 -0.017452406437283432 0.99984769515639127 
9 0 0 0 0 8 1 9 2 2 2 19.99999999996529 13.750014400736259 3  19.692790857263226 13.75 20.600000000000005  
19.999997172396046 14.339061223185661 3.0000000000000244  19.692790857263329 14.278728248427058 20.600000000000069  
19.867812785826565 14.92810759654215 2.9999999999999112  19.574144367584335 14.807456663283173 20.599999999999799  
19.603448304603649 15.482547117217406 3.0000000000001554  19.3368525535471 15.305122357366342 20.600000000000392  
19.217770335912679 15.967780981779622 2.9999999999998193  18.990669218715063 15.74066921871562 20.599999999999536  
18.732534620005939 16.353456621225636 3.0000000000001421  18.555122357366493 16.086852553546866 20.600000000000367  
18.178093830323526 16.617818440999052 2.9999999999999263  18.057456663282892 16.324144367584683 20.599999999999824  
17.589046822455995 16.750000000000139 3.0000000000000218  17.528728248426965 16.442790857263422 20.600000000000058  
16.999999999999858 16.749999999999996 3  16.999999999999858 16.442790857263368 20.600000000000005  

0 9
1.5707963267948966 9

0 2
1 2

1 -16.999999999999858 16.75 0 0 1 0 1 0 0 0 0 -1 
1 -30.167832092402499 3.494723407616267 0 -0.74625373188619037 0.66566160145071762 0 0.66566160145071762 0.74625373188619037 0 0 0 -1 
1 -16.999999999999858 -16.442790857263372 20.600000000000005 0 -0.99984769515639127 0.017452406437283432 1 0 0 -0 0.017452406437283432 0.99984769515639127 
5 -17.000000000000139 -13.749999999999998 18.600000000000005 0 0 1 -1 0 0 0 -1 0 0.72739633103199153 2
2 -16.999999999999858 -13.75 0 -0 -0 -1 1 0 0 0 1 0 2.9999999999999991
9 1 1 0 0 2 6 3 7 2 2 19.72709172134082 13.750001607887359 18.634904812871603  1 19.727091300400208 14.463949014661779 18.634904812873117  1.0000000000000047 19.502850345265944 15.177847466023275 18.63490481287748  0.99999999999998646 19.054013441634165 15.804014652675836 18.634904812865603  1.0000000000000171 18.42784599034859 16.252851187122289 18.634904812879196  0.99999999999998879 17.713947406775606 16.477091721344859 18.634904812874584  1.0000000000000036 16.999999999999858 16.47709172134477 18.634904812874574  1 
19.692790857262288 13.75000158766364 20.600000000000005  0.71325044915366154 19.692790441614754 14.45496909370056 20.600000000000005  0.71325044915392999 19.47136994847056 15.159888260083871 20.600000000000016  0.71325044915468372 19.028178433825087 15.778179629634876 20.599999999999984  0.71325044915261782 18.409886802969172 16.221370779736617 20.600000000000026  0.71325044915498681 17.704967506037619 16.442790857263443 20.600000000000001  0.71325044915418612 16.999999999999854 16.442790857263368 20.600000000000001  0.71325044915418156 
17.727396331028334 13.750000428871319 20.600000000000005  1 17.727396218751903 13.94043139977372 20.600000000000005  1.0000000000000047 17.667584499006612 14.13084931355046 20.600000000000005  0.99999999999998646 17.547866368327718 14.297866691348146 20.600000000000009  1.0000000000000171 17.380848919944782 14.417584723555553 20.600000000000001  0.99999999999998879 17.190430970903311 14.47739633103207 20.600000000000005  1.0000000000000036 16.999999999999869 14.477396331031988 20.600000000000005  1 

0 3
4.2298243997526299 3

65.729827575079725 7
69.959651974832354 7

2 -17.000000000000135 -14.477396331031992 18.600000000000005 1 0 0 0 -0.99984769515639127 0.017452406437283432 -0 0.017452406437283432 0.99984769515639127 2
5 16.999999999999854 -13.749999999999998 18.600000000000005 0 0 1 0 -1 0 1 0 -0 0.72739633103198975 2
2 17.727396331031841 -13.749999999999998 18.600000000000005 -0 1 -0 0.99984769515639127 0 0.017452406437283428 -0.017452406437283428 -0 0.99984769515639127 2
10 0 1.5707963267948966 0 17.602680973572767
3 16.999999999999854 -13.749999999999998 3 0 0 1 1 0 0 0 -1 0 1
-0.017453292519943302
1 -17.000000000000139 -13.749999999999998 20.599999999999991 0 -0 1 1 0 0 -0 1 0 
1 17.692790857263226 13.750000000000002 20.599999999999991 -0.99984769515639138 0 -0.017452406437283446 -0 -1 0 -0.017452406437283446 0 0.99984769515639138 
10 4.7123889803846932 6.2831853071795862 0 17.602680973572767
3 16.999999999999854 13.750000000000002 3 0 0 1 1 0 0 0 -1 0 1
-0.017453292519943302
1 -16.999999999999858 14.442790857263372 20.599999999999991 0 -0.99984769515639138 -0.017452406437283546 1 0 0 0 -0.017452406437283546 0.99984769515639138 
10 3.1415926535897931 4.7123889803846897 0 17.602680973572767
3 -16.999999999999858 13.750000000000002 3 0 0 1 1 0 0 0 -1 0 1
-0.017453292519943302
1 -17.692790857263514 -13.749999999999998 20.599999999999991 0.99984769515639138 0 -0.017452406437283446 0 1 0 0.017452406437283446 -0 0.99984769515639138 
10 1.5707963267948966 3.1415926535897931 0 17.602680973572767
3 -17.000000000000139 -13.749999999999998 3 0 0 1 1 0 0 0 -1 0 1
-0.017453292519943302
1 16.999999999999854 -14.442790857263368 20.599999999999991 0 0.99984769515639138 -0.017452406437283546 -1 0 0 0 0.017452406437283546 0.99984769515639138 
1 -19.238761195658427 -15.746984804352152 0 -0.74625373188619026 -0.66566160145071773 0 -0.66566160145071773 0.74625373188619026 0 -0 0 -1 
2 16.999999999999854 13.750000000000002 0 -0 -0 -1 1 0 0 0 1 0 2.9999999999999991
9 0 0 0 0 1 1 2 2 2 2 19.999999999999854 -13.749999999999998 3  19.692790857263226 -13.749999999999998 20.600000000000005  
19.999999999999854 13.75001440073626 3  19.692790857263226 13.750000000000002 20.600000000000005  

-27.500014400736259 2
0 2

0 2
1 2

2 26.250000000000004 0 0 -0 -0 -1 1 0 0 0 1 0 5.2499999999999982
2 16.999999999999854 -13.75 0 -0 -0 -1 1 0 0 0 1 0 2.9999999999999991
2 -16.999999999999858 13.750000000000002 0 -0 -0 -1 1 0 0 0 1 0 1
2 16.999999999999854 13.750000000000002 0 -0 -0 -1 1 0 0 0 1 0 1
2 16.999999999999854 -13.749999999999998 0 -0 -0 -1 1 0 0 0 1 0 1
2 -17.000000000000139 -13.749999999999998 0 -0 -0 -1 1 0 0 0 1 0 1
2 26.250000000000004 0 0 -0 -0 -1 1 0 0 0 1 0 2.25
1 -16.999999999999858 -16.442790857263372 20.600000000000005 0 -0.99984769515639127 0.017452406437283432 1 0 0 -0 0.017452406437283432 0.99984769515639127 
10 4.7123889803846906 6.2831853071795862 0 17.602680973572781
3 16.999999999999854 -13.749999999999998 3 0 0 1 1 0 0 0 1 0 3.0000000000000009
-0.017453292519943341
1 -16.999999999999858 -16.75 0 0 1 0 1 0 0 0 0 -1 
1 19.846395428631538 3.6001840670892326e-06 11.79999999999999 0.99984769515639127 -6.3223358091867405e-18 0.017452406437283425 4.9552837196811263e-09 0.99999999999995981 -2.8388801380779846e-07 -0.017452406437282724 2.8393125791374101e-07 0.99984769515635108 
1 -9.7407630369606447e-14 -3.354982204977701e-14 20.600000000000005 0 0 1 1 0 -0 -0 1 0 
1 19.238761195658427 15.746984804352154 0 0.74625373188619037 0.66566160145071773 -0 0.66566160145071773 -0.74625373188619037 0 0 -0 -1 
1 30.167832092402499 -3.4947234076162661 0 0.74625373188619037 -0.66566160145071762 0 -0.66566160145071762 -0.74625373188619037 0 0 -0 -1 
1 -18.000000000000142 -13.749999999999998 0 -1 0 0 0 1 0 0 0 -1 
1 -16.999999999999858 14.750000000000002 0 0 1 0 1 0 0 0 0 -1 
1 17.999999999999854 13.750000000000002 0 1 0 -0 0 -1 0 0 -0 -1 
1 16.999999999999854 -14.749999999999998 0 0 -1 0 -1 0 0 -0 -0 -1 
1 -17.692790857263514 -13.749999999999998 20.599999999999991 0.99984769515639138 0 -0.017452406437283446 0 1 0 0.017452406437283446 -0 0.99984769515639138 
2 -16.745003724004263 13.750000000000016 17.600000000000005 0 -1 0 -0.99984769515639138 0 0.017452406437283446 0.017452406437283446 0 0.99984769515639138 1
9 0 0 0 0 7 7 8 8 2 2 -16.999999999999858 14.494851419160511 17.617452406437287  -16.963571960571915 14.490978622878984 17.839324756809724  -16.927143921143728 14.429664055376119 18.060193473116755  -16.890715881716417 14.311227715800683 18.262220850648042  -16.854287842287665 14.142878642359355 18.427657024364741  -16.817859802860369 13.93881503544276 18.54254946160972  -16.781431763432153 13.716909871757629 18.599999999999877  -16.745003724004263 13.495003724004121 18.600000000000012  
-17.167144261664799 14.494851419160511 17.61745240643728  -17.12669026896198 14.495058547699413 17.839742486592229  -17.078030308941628 14.434852317488026 18.070886540127173  -17.021210095768776 14.305363056612462 18.286789200547354  -16.957259492042457 14.119373861811662 18.445858470822369  -16.888206812106588 13.917773383277954 18.548265003924481  -16.816605338345894 13.705614048510313 18.599999999999877  -16.745003724004263 13.495003724004121 18.600000000000012  
-17.33428773993959 14.45109222581633 17.617452406437049  -17.303063947133406 14.459914162798411 17.840107694938855  -17.272523345619664 14.376693543701167 18.078130880567574  -17.196286105896665 14.241575550396194 18.303272166670283  -17.0941089746218 14.054872989807908 18.458062145920881  -16.981631958469837 13.866570468020852 18.552104272742643  -16.877558334137262 13.660579553829983 18.599999999999884  -16.745003724004263 13.495003724004123 18.600000000000012  
-17.487689175227732 14.363580839327994 17.617452406437746  -17.477975323919186 14.372794991454342 17.840323378986188  -17.431039512306867 14.306649216280245 18.08179715728598  -17.328828128247707 14.182652166587117 18.311553345580052  -17.187578238453096 14.009760855956797 18.464190447369052  -17.040026952025606 13.83481254265204 18.554034933776347  -16.894094012584635 13.65200312593818 18.599999999999884  -16.745003724004263 13.495003724004121 18.600000000000005  
-17.61358083932916 14.237689175230294 17.617452406436897  -17.622794991455329 14.227975323921346 17.840323378985328  -17.556649216280629 14.18103951230848 18.081797157285393  -17.432652166587467 14.078828128248844 18.311553345579529  -17.25976085595704 13.937578238454066 18.464190447368715  -17.084812542652397 13.790026952026126 18.554034933776084  -16.902003125938151 13.644094012584738 18.599999999999891  -16.745003724004263 13.495003724004121 18.600000000000005  
-17.701092225816335 14.084287739937675 17.6174524064377  -17.709914162798366 14.053063947131836 17.840107694939512  -17.626693543701048 14.022523345619124 18.078130880568146  -17.49157555039611 13.946286105896114 18.303272166670592  -17.30487298980788 13.8441089746215 18.458062145921247  -17.116570468020928 13.731631958469308 18.552104272742802  -16.910579553830051 13.627558334137406 18.599999999999895  -16.745003724004263 13.495003724004127 18.600000000000001  
-17.744851419160504 13.917144261666179 17.617452406437284  -17.745058547699443 13.876690268963142 17.839742486592236  -17.684852317488158 13.828030308942692 18.070886540127368  -17.555363056612471 13.771210095769288 18.286789200547211  -17.369373861811873 13.70725949204321 18.445858470822547  -17.167773383277996 13.638206812106732 18.548265003924421  -16.95561404851048 13.566605338346008 18.599999999999905  -16.745003724004263 13.495003724004121 18.600000000000005  
-17.744851419160504 13.750000000000004 17.617452406437287  -17.740978622878977 13.71357196057202 17.839324756809727  -17.679664055376215 13.677143921143919 18.060193473116939  -17.561227715800634 13.640715881716204 18.262220850647903  -17.392878642359577 13.604287842287919 18.427657024364908  -17.188815035442776 13.567859802860138 18.542549461609664  -16.966909871757807 13.531431763432096 18.599999999999905  -16.745003724004263 13.495003724004121 18.600000000000005  

0 8
1 8

0 8
1 8

1 -16.999999999999858 14.442790857263372 20.599999999999991 0 -0.99984769515639138 -0.017452406437283546 1 0 0 0 -0.017452406437283546 0.99984769515639138 
2 16.999999999999858 13.495003724004121 17.600000000000005 -1 0 0 0 0.99984769515639138 0.017452406437283546 -0 -0.017452406437283546 0.99984769515639138 1
9 0 0 0 0 8 3 16 10 3 5 17.744851419160362 13.750000000000007 17.617452406437287  17.742592287996139 13.728750310333684 17.746877944154544  17.714892652455998 13.707500620667377 17.875810695864455  17.612697215849781 13.665001241334718 18.113677016904102  17.538239873044429 13.643751551668403 18.222521072207616  17.353586103563238 13.601252172335752 18.40397982610077  17.243459165927675 13.580002482669423 18.476526238000723  17.003845516785162 13.537503103336777 18.574554770034421  16.874448976860254 13.516253413670448 18.600000000000012  16.745003724003976 13.495003724004121 18.600000000000012  
17.744851419160362 13.823125614478529 17.617452406437295  17.743635061949742 13.801875924812206 17.746896145841614  17.716456813386401 13.772501166870507 17.875837998395056  17.614652417012788 13.715105829032964 18.113711145067352  17.540064727463236 13.687085249137157 18.222552925159984  17.354889571005241 13.63104408934552 18.404002578209603  17.244371593137075 13.603023509449699 18.476542164476907  17.004106210273566 13.545628171612169 18.574559320456189  16.874448976860254 13.516253413670448 18.600000000000012  16.745003724003976 13.495003724004121 18.600000000000012  
17.736646744226839 13.896251239731955 17.617452406437035  17.736708248158685 13.876279196454053 17.74693245287677  17.69859215324994 13.851782052354579 17.875892458947966  17.591081944303674 13.787909235948414 18.113779220758595  17.515516878235367 13.754556152917015 18.222616462471812  17.331941433984852 13.683656644726467 18.404047962003752  17.223991858712878 13.646118905697373 18.476573933132816  16.991546258888558 13.566164986148522 18.57456839721501  16.86092453146151 13.529777859069187 18.600000000000012  16.745003724003976 13.495003724004123 18.600000000000005  
17.720237394350622 13.9683028517212 17.617452406437433  17.721574069408149 13.950507046189202 17.746972794788633  17.681083792863422 13.923737887907688 17.875952971815511  17.57252680155727 13.850997881770509 18.113854861842864  17.497298192773627 13.811756425153014 18.222687060817108  17.316013835576346 13.726599145088498 18.404098389393251  17.210014547007912 13.680696350836529 18.476609232305474  16.982648722075169 13.58229727543362 18.574578482692953  16.854162308762138 13.536540081768559 18.600000000000009  16.745003724003976 13.495003724004123 18.600000000000009  
17.695792070069263 14.038206521326101 17.61745240643689  17.696963622809694 14.024671777978787 17.747013942129378  17.655008527984954 13.996160465102514 17.876014692826988  17.546010519338836 13.916273430815918 18.113932013107412  17.471919705552349 13.871207083261096 18.222759068664047  17.294889184193906 13.771397790510449 18.404149823569639  17.192001593402178 13.716672217574683 18.476645236228936  16.971761601823722 13.599463323460528 18.57458876952817  16.847400086062766 13.543302304467927 18.600000000000009  16.745003724003976 13.495003724004119 18.600000000000009  
17.66364817878263 14.104921307729628 17.617452406437312  17.66466491748815 14.093530325451601 17.747029184932451  17.622678343530293 14.062024235431835 17.876037557031321  17.514429550647638 13.975211300627505 18.113960593362663  17.442092608822634 13.924971373795668 18.222785743568931  17.270545500161187 13.812342016958331 18.404168877073126  17.171383107039976 13.749974302277922 18.47665857368138  16.959448873637026 13.616294018199618 18.57459258022892  16.840637863363398 13.550064527167303 18.600000000000016  16.745003724003979 13.495003724004123 18.600000000000009  
17.62430314730431 14.167472670078096 17.617452406437049  17.624259965059213 14.159268208535831 17.747048546703159  17.582989548542336 14.125402263195307 17.876066599687562  17.476350746361689 14.033135274770467 18.113996896683055  17.40648090987861 13.978035102711162 18.222819626667974  17.242069957403974 13.852951659969637 18.404193079286735  17.147572272062625 13.782994447677533 18.476675515230898  16.945709678689457 13.633271860865818 18.574597420671616  16.833875640664022 13.556826749866669 18.600000000000012  16.745003724003976 13.495003724004121 18.600000000000012  
17.578397109030035 14.224981869899134 17.61745240643716  17.576765969610928 14.219240832224491 17.747055787606264  17.536896103051088 14.183058572035641 17.876077461042144  17.432859506124629 14.086196910095811 18.114010473376243  17.366093711828537 14.026819605380636 18.222832298248278  17.210224798286699 13.890629076095152 18.404202130415531  17.121160766626137 13.813846252979973 18.476681851021063  16.930890064058293 13.649663840408502 18.574599230897377  16.827113417964654 13.563588972566038 18.600000000000005  16.745003724003979 13.495003724004121 18.600000000000005  
17.474981869898794 14.328397109030385 17.617452406437142  17.469240832224159 14.326765969611266 17.747055787606246  17.433058572035392 14.286896103051342 17.876077461042122  17.336196910095545 14.182859506124892 18.114010473376212  17.276819605380382 14.116093711828787 18.22283229824826  17.140629076094903 13.960224798286939 18.404202130415523  17.063846252979744 13.871160766626359 18.476681851021048  16.899663840408312 13.680890064058469 18.57459923089738  16.813588972565903 13.577113417964778 18.600000000000001  16.745003724003972 13.495003724004121 18.600000000000001  
17.417472670077686 14.374303147304751 17.617452406437202  17.40926820853543 14.374259965059647 17.747048546703315  17.375402263195021 14.332989548542688 17.8760665996877  17.283135274770178 14.226350746362037 18.113996896683158  17.228035102710898 14.156480909878915 18.222819626668066  17.102951659969378 13.992069957404265 18.404193079286809  17.032994447677297 13.897572272062886 18.476675515230959  16.883271860865612 13.695709678689644 18.57459742067164  16.806826749866534 13.583875640664154 18.600000000000005  16.745003724003976 13.495003724004121 18.600000000000005  
17.354921307729416 14.413648178782854 17.617452406437192  17.343530325451386 14.414664917488366 17.74702918493233  17.312024235431693 14.372678343530476 17.876037557031218  17.225211300627336 14.26442955064784 18.113960593362567  17.174971373795497 14.192092608822822 18.222785743568849  17.062342016958134 14.020545500161388 18.404168877073094  16.999974302277742 13.921383107040157 18.476658573681345  16.866294018199444 13.709448873637177 18.574592580228902  16.800064527167169 13.590637863363519 18.600000000000005  16.745003724003976 13.495003724004121 18.600000000000005  
17.288206521325527 14.445792070069666 17.617452406437156  17.274671777978227 14.446963622810086 17.747013942129648  17.246160465102093 14.405008527985288 17.876014692827216  17.166273430815522 14.296010519339156 18.113932013107572  17.121207083260739 14.221919705552637 18.222759068664196  17.021397790510111 14.044889184194167 18.404149823569771  16.966672217574388 13.942001593402418 18.476645236229018  16.849463323460288 13.721761601823891 18.574588769528226  16.793302304467787 13.597400086062892 18.600000000000005  16.745003724003972 13.495003724004123 18.600000000000012  
17.218302851721386 14.470237394350765 17.61745240643727  17.200507046189383 14.471574069408293 17.746972794788469  17.173737887907883 14.43108379286355 17.875952971815373  17.100997881770599 14.322526801557428 18.113854861842725  17.061756425153085 14.247298192773789 18.222687060816995  16.976599145088471 14.066013835576499 18.404098389393202  16.930696350836477 13.960014547008056 18.476609232305432  16.832297275433501 13.732648722075295 18.574578482692925  16.786540081768425 13.604162308762261 18.600000000000005  16.745003724003976 13.495003724004119 18.600000000000005  
17.146251239731278 14.486646744227182 17.617452406437252  17.126279196453382 14.486708248159015 17.74693245287699  17.101782052354036 14.448592153250221 17.875892458948162  17.037909235947939 14.341081944303935 18.11377922075873  17.004556152916592 14.265516878235617 18.222616462471926  16.933656644726099 14.081941433985078 18.404047962003872  16.896118905697044 13.973991858713081 18.476573933132883  16.816164986148262 13.741546258888716 18.574568397215049  16.779777859069053 13.610924531461631 18.600000000000009  16.745003724003976 13.495003724004121 18.600000000000009  
17.073125614478684 14.494851419160508 17.61745240643728  17.051875924812361 14.493635061949893 17.7468961458416  17.022501166870637 14.466456813386548 17.875837998395046  16.965105829033028 14.36465241701293 18.113711145067331  16.937085249137208 14.290064727463388 18.222552925159963  16.881044089345494 14.104889571005394 18.404002578209607  16.853023509449645 13.994371593137217 18.4765421644769  16.795628171612044 13.754106210273697 18.574559320456203  16.766253413670302 13.624448976860371 18.599999999999998  16.745003724003976 13.495003724004121 18.600000000000005  
16.999999999999854 14.494851419160508 17.617452406437287  16.978750310333531 14.492592287996285 17.746877944154541  16.957500620667229 14.464892652456133 17.875810695864455  16.915001241334569 14.362697215849913 18.113677016904088  16.89375155166827 14.288239873044573 18.222521072207602  16.851252172335602 14.103586103563382 18.403979826100777  16.830002482669276 13.993459165927808 18.476526238000716  16.787503103336618 13.753845516785294 18.574554770034435  16.766253413670302 13.624448976860371 18.599999999999998  16.745003724003976 13.495003724004121 18.600000000000005  

0 9
0.5 7
1 9

0 4
0.25 2
0.5 2
0.75 2
1 4

1 17.692790857263226 13.750000000000002 20.599999999999991 -0.99984769515639138 0 -0.017452406437283446 -0 -1 0 -0.017452406437283446 0 0.99984769515639138 
2 16.745003724003976 -13.749999999999998 17.600000000000005 0 1 0 0.99984769515639138 -0 0.017452406437283446 -0.017452406437283446 -0 0.99984769515639138 1
9 0 0 0 0 7 7 8 8 2 2 16.999999999999854 -14.494851419160508 17.617452406437287  16.963571960571873 -14.490978622878981 17.839324756809717  16.927143921143617 -14.429664055376284 18.060193473117167  16.890715881716293 -14.311227715800543 18.26222085064769  16.854287842287466 -14.14287864235952 18.427657024365235  16.817859802860156 -13.938815035442696 18.542549461609493  16.781431763431893 -13.716909871757654 18.599999999999955  16.745003724003976 -13.495003724004118 18.599999999999998  
17.167144261665136 -14.494851419160508 17.617452406437287  17.126690268962232 -14.495058547699422 17.839742486592229  17.078030308941763 -14.434852317488209 18.070886540127585  17.021210095768851 -14.305363056612334 18.286789200547005  16.957259492042407 -14.119373861811839 18.445858470822866  16.888206812106475 -13.917773383277892 18.548265003924254  16.816605338345688 -13.705614048510338 18.599999999999955  16.745003724003976 -13.495003724004118 18.599999999999998  
17.3342877399385 -14.451092225816266 17.617452406437067  17.303063947132419 -14.459914162798317 17.840107694938869  17.272523345619057 -14.376693543701156 18.078130880567883  17.196286105896124 -14.241575550396037 18.30327216667003  17.094108974621324 -14.054872989807928 18.45806214592125  16.981631958469329 -13.866570468020804 18.552104272742483  16.877558334137088 -13.660579553829969 18.599999999999941  16.745003724003979 -13.495003724004118 18.600000000000005  
17.487689175228873 -14.363580839328323 17.617452406437774  17.477975323920152 -14.372794991454667 17.840323378986209  17.431039512307482 -14.306649216280498 18.081797157286235  17.328828128248105 -14.182652166587237 18.311553345579853  17.187578238453391 -14.009760855956943 18.464190447369354  17.040026952025631 -13.834812542652129 18.554034933776226  16.89409401258445 -13.652003125938139 18.599999999999927  16.745003724003976 -13.495003724004118 18.599999999999998  
17.613580839328289 -14.23768917522964 17.617452406436914  17.622794991454541 -14.227975323920759 17.840323378985342  17.556649216280121 -14.181039512308054 18.081797157285585  17.432652166586994 -14.078828128248492 18.311553345579377  17.259760855956699 -13.937578238453781 18.464190447368935  17.08481254265191 -13.790026952025981 18.554034933775991  16.902003125937956 -13.644094012584677 18.599999999999927  16.745003724003976 -13.495003724004118 18.600000000000005  
17.701092225816367 -14.084287739938166 17.61745240643771  17.709914162798398 -14.053063947132255 17.840107694939523  17.626693543701023 -14.022523345619289 18.078130880568281  17.491575550395996 -13.946286105896284 18.303272166670485  17.304872989807855 -13.844108974621541 18.458062145921399  17.116570468020637 -13.731631958469475 18.552104272742739  16.910579553829827 -13.627558334137333 18.599999999999916  16.745003724003972 -13.495003724004121 18.600000000000001  
17.744851419160362 -13.917144261665902 17.617452406437287  17.745058547699291 -13.876690268962905 17.839742486592236  17.684852317487998 -13.828030308942392 18.070886540127368  17.555363056612205 -13.771210095769248 18.286789200547201  17.369373861811788 -13.707259492042919 18.445858470822547  17.167773383277613 -13.638206812106763 18.548265003924421  16.955614048510252 -13.566605338345923 18.599999999999905  16.745003724003976 -13.495003724004118 18.600000000000005  
17.744851419160362 -13.749999999999995 17.617452406437287  17.740978622878835 -13.713571960572011 17.839324756809727  17.679664055376062 -13.677143921143806 18.060193473116939  17.561227715800374 -13.640715881716316 18.262220850647903  17.392878642359484 -13.604287842287739 18.427657024364908  17.188815035442389 -13.567859802860243 18.542549461609664  16.966909871757576 -13.53143176343205 18.599999999999905  16.745003724003976 -13.495003724004118 18.600000000000005  

0 8
1 8

0 8
1 8

1 16.999999999999854 -14.442790857263368 20.599999999999991 0 0.99984769515639138 -0.017452406437283546 -1 0 0 0 0.017452406437283546 0.99984769515639138 
2 -17.000000000000139 -13.495003724004118 17.600000000000005 1 0 0 0 -0.99984769515639138 0.017452406437283546 -0 0.017452406437283546 0.99984769515639138 1
9 0 0 0 0 8 3 16 10 3 5 -17.744851419160657 -13.749999999999996 17.617452406437287  -17.742592287996434 -13.728750310333673 17.746877944154544  -17.714892652456285 -13.707500620667355 17.875810695864455  -17.612697215850076 -13.665001241334711 18.113677016904095  -17.538239873044724 -13.643751551668382 18.222521072207609  -17.353586103563543 -13.601252172335744 18.403979826100784  -17.243459165927963 -13.580002482669409 18.476526238000723  -17.003845516785443 -13.537503103336764 18.574554770034428  -16.874448976860549 -13.516253413670448 18.600000000000012  -16.745003724004263 -13.495003724004118 18.600000000000012  
-17.744851419160657 -13.823125614478402 17.617452406437284  -17.743635061950037 -13.801875924812078 17.746896145841603  -17.716456813386692 -13.772501166870383 17.875837998395049  -17.614652417013083 -13.715105829032877 18.113711145067342  -17.54006472746353 -13.687085249137068 18.222552925159974  -17.354889571005547 -13.631044089345465 18.404002578209614  -17.244371593137366 -13.603023509449647 18.476542164476907  -17.004106210273843 -13.545628171612144 18.574559320456196  -16.874448976860549 -13.516253413670448 18.600000000000012  -16.745003724004263 -13.495003724004118 18.600000000000012  
-17.736646744227269 -13.896251239732242 17.617452406436946  -17.736708248159132 -13.876279196454341 17.746932452876681  -17.698592153250374 -13.851782052354794 17.875892458947877  -17.591081944304126 -13.787909235948595 18.113779220758524  -17.5155168782358 -13.754556152917159 18.222616462471745  -17.331941433985254 -13.683656644726584 18.404047962003741  -17.223991858713255 -13.646118905697456 18.47657393313278  -16.991546258888864 -13.566164986148577 18.574568397214982  -16.860924531461805 -13.52977785906919 18.600000000000005  -16.745003724004263 -13.495003724004119 18.600000000000005  
-17.720237394350619 -13.968302851720907 17.617452406437565  -17.721574069408128 -13.950507046188916 17.746972794788768  -17.681083792863451 -13.923737887907432 17.8759529718156  -17.572526801557377 -13.850997881770313 18.113854861842935  -17.497298192773755 -13.811756425152829 18.222687060817172  -17.316013835576516 -13.726599145088379 18.404098389393329  -17.210014547008111 -13.680696350836429 18.47660923230552  -16.982648722075382 -13.582297275433589 18.57457848269296  -16.854162308762426 -13.53654008176856 18.600000000000001  -16.745003724004263 -13.495003724004118 18.600000000000009  
-17.695792070070237 -14.03820652132592 17.617452406436602  -17.696963622810696 -14.024671777978591 17.74701394212909  -17.655008527985874 -13.996160465102305 17.876014692826722  -17.546010519339692 -13.916273430815759 18.113932013107199  -17.47191970555313 -13.871207083260938 18.222759068663855  -17.294889184194556 -13.771397790510338 18.404149823569533  -17.192001593402768 -13.716672217574599 18.476645236228826  -16.971761601824106 -13.599463323460519 18.574588769528113  -16.847400086063061 -13.543302304467927 18.600000000000009  -16.745003724004263 -13.495003724004123 18.600000000000009  
-17.663648178782374 -14.104921307729974 17.617452406437419  -17.664664917487883 -14.093530325451958 17.747029184932561  -17.622678343530133 -14.062024235432109 17.876037557031385  -17.514429550647602 -13.975211300627745 18.113960593362727  -17.44209260882263 -13.92497137379585 18.222785743568988  -17.270545500161294 -13.81234201695848 18.404168877073197  -17.171383107040107 -13.749974302278044 18.476658573681423  -16.9594488736372 -13.616294018199705 18.574592580228924  -16.840637863363682 -13.550064527167297 18.600000000000009  -16.745003724004263 -13.495003724004118 18.600000000000009  
-17.624303147304982 -14.167472670077721 17.617452406436875  -17.624259965059899 -14.159268208535449 17.747048546702988  -17.58298954854299 -14.125402263194948 17.876066599687388  -17.476350746362325 -14.033135274770189 18.113996896682931  -17.406480909879203 -13.978035102710889 18.222819626667849  -17.242069957404492 -13.852951659969465 18.404193079286685  -17.147572272063094 -13.7829944476774 18.476675515230838  -16.945709678689781 -13.633271860865781 18.574597420671569  -16.833875640664317 -13.556826749866664 18.600000000000012  -16.745003724004263 -13.495003724004119 18.600000000000012  
-17.578397109030377 -14.224981869899079 17.617452406437032  -17.576765969611269 -14.219240832224434 17.747055787606136  -17.536896103051426 -14.183058572035566 17.876077461042005  -17.432859506125013 -14.086196910095769 18.114010473376151  -17.366093711828903 -14.026819605380568 18.222832298248196  -17.210224798287047 -13.890629076095109 18.404202130415484  -17.121160766626485 -13.813846252979959 18.476681851021013  -16.930890064058556 -13.64966384040852 18.574599230897341  -16.827113417964938 -13.563588972566034 18.600000000000005  -16.745003724004263 -13.495003724004118 18.600000000000005  
-17.474981869899139 -14.328397109030259 17.617452406437042  -17.469240832224511 -14.326765969611136 17.747055787606151  -17.43305857203574 -14.286896103051214 17.876077461042023  -17.336196910095932 -14.182859506124792 18.114010473376151  -17.276819605380755 -14.116093711828675 18.222832298248196  -17.140629076095255 -13.96022479828687 18.404202130415495  -17.063846252980088 -13.871160766626323 18.476681851021013  -16.899663840408596 -13.680890064058477 18.574599230897345  -16.813588972566194 -13.577113417964775 18.600000000000001  -16.745003724004263 -13.495003724004118 18.600000000000001  
-17.417472670078073 -14.374303147304596 17.617452406436772  -17.409268208535821 -14.374259965059485 17.747048546702882  -17.37540226319539 -14.332989548542548 17.876066599687313  -17.283135274770576 -14.226350746361931 18.113996896682856  -17.228035102711271 -14.156480909878811 18.222819626667803  -17.10295165996973 -13.992069957404189 18.404193079286628  -17.032994447677648 -13.897572272062838 18.476675515230799  -16.883271860865893 -13.695709678689639 18.574597420671552  -16.806826749866822 -13.583875640664147 18.600000000000005  -16.745003724004263 -13.495003724004118 18.600000000000005  
-17.35492130772986 -14.413648178782827 17.617452406437533  -17.343530325451837 -14.414664917488341 17.747029184932671  -17.312024235432123 -14.372678343530438 17.876037557031481  -17.225211300627755 -14.264429550647815 18.113960593362791  -17.174971373795906 -14.192092608822783 18.222785743569041  -17.06234201695851 -14.02054550016136 18.404168877073229  -16.999974302278108 -13.921383107040151 18.476658573681448  -16.866294018199728 -13.709448873637191 18.574592580228945  -16.80006452716745 -13.590637863363515 18.600000000000005  -16.745003724004263 -13.495003724004121 18.600000000000005  
-17.288206521325616 -14.445792070069395 17.617452406436382  -17.274671777978316 -14.4469636228098 17.747013942128874  -17.246160465102214 -14.405008527985027 17.876014692826544  -17.166273430815711 -14.29601051933895 18.113932013107043  -17.121207083260938 -14.221919705552432 18.222759068663731  -17.021397790510335 -14.044889184194028 18.404149823569433  -16.966672217574626 -13.942001593402329 18.476645236228745  -16.849463323460522 -13.721761601823861 18.574588769528091  -16.793302304468078 -13.597400086062885 18.599999999999998  -16.745003724004263 -13.495003724004116 18.600000000000012  
-17.218302851722029 -14.470237394350866 17.617452406437636  -17.200507046190033 -14.471574069408403 17.746972794788835  -17.173737887908459 -14.431083792863648 17.875952971815664  -17.100997881771153 -14.322526801557508 18.113854861842967  -17.061756425153593 -14.247298192773849 18.222687060817204  -16.976599145088926 -14.066013835576543 18.404098389393344  -16.930696350836907 -13.960014547008109 18.476609232305535  -16.832297275433842 -13.73264872207533 18.574578482692974  -16.786540081768713 -13.604162308762252 18.600000000000005  -16.745003724004263 -13.495003724004118 18.600000000000005  
-17.146251239731392 -14.486646744226984 17.617452406436879  -17.126279196453496 -14.486708248158811 17.746932452876614  -17.101782052354181 -14.448592153250035 17.875892458947845  -17.037909235948131 -14.341081944303777 18.113779220758477  -17.004556152916777 -14.265516878235465 18.222616462471713  -16.933656644726316 -14.081941433984968 18.404047962003716  -16.896118905697275 -13.973991858713015 18.476573933132752  -16.816164986148507 -13.741546258888695 18.574568397214982  -16.779777859069334 -13.610924531461624 18.600000000000009  -16.74500372400427 -13.495003724004121 18.600000000000009  
-17.073125614479011 -14.494851419160504 17.617452406437305  -17.051875924812688 -14.493635061949888 17.746896145841628  -17.022501166870939 -14.466456813386543 17.875837998395056  -16.965105829033337 -14.364652417012923 18.113711145067345  -16.9370852491375 -14.290064727463376 18.222552925159974  -16.881044089345785 -14.104889571005387 18.404002578209614  -16.85302350944994 -13.994371593137215 18.4765421644769  -16.795628171612343 -13.754106210273704 18.574559320456203  -16.766253413670597 -13.624448976860361 18.599999999999998  -16.745003724004263 -13.495003724004118 18.600000000000005  
-17.000000000000135 -14.494851419160504 17.617452406437302  -16.978750310333812 -14.492592287996279 17.746877944154555  -16.957500620667496 -14.464892652456129 17.875810695864455  -16.915001241334849 -14.362697215849906 18.113677016904095  -16.893751551668537 -14.28823987304456 18.222521072207609  -16.851252172335872 -14.103586103563376 18.403979826100784  -16.830002482669553 -13.993459165927806 18.476526238000716  -16.78750310333691 -13.753845516785301 18.574554770034435  -16.766253413670597 -13.624448976860361 18.599999999999998  -16.745003724004263 -13.495003724004118 18.600000000000005  

0 9
0.5 7
1 9

0 4
0.25 2
0.5 2
0.75 2
1 4

Triangulations 0

TShapes 346
Ve
0.0001
-19.7270917213362 13.7500023913553 18.634904812868
0 0

0101101
*
Ve
1.00038367531374e-07
-19.9999999999618 13.750021417717 3
0 0

0101101
*
Ed
 1e-07 1 1 0
1  1 0 0 0.8883468643675
2  1 1 0 0 0.8883468643675
2  2 2 0 0 0.8883468643675
4 C0 1 0 2 0
0

0101000
-346 5 +345 0 *
Ve
0.0001
-16.9999999999999 16.4770917213448 18.6349048128746
0 0

0101101
*
Ed
 5.12464320410442e-06 1 1 0
1  2 0 103.959651974832 108.189475600971
2  2 3 0 103.959651974832 108.189475600971
2  3 1 4 103.959651974832 108.189475600971
4 G1 3 0 1 4
0

0101000
+343 0 -346 0 *
Ve
1.00000001776357e-07
-19.2387611956584 15.7469848043522 3
0 0

0101101
*
Ed
 1e-07 1 1 0
1  3 0 2.41321262207646 3.14158551435078
2  4 1 9 2.41321262207646 3.14158551435078
4 C0 1 9 4 9
0

0101000
+341 9 -345 9 *
Ve
1e-07
-16.9999999999999 16.75 3
0 0

0101101
*
Ed
 1e-07 1 1 0
1  4 0 0 0.888346864367873
2  5 1 0 0 0.888346864367873
4 G1 5 0 1 0
0

0101000
-343 5 +339 0 *
Ed
 1e-07 1 1 0
1  5 0 1.5707963267949 2.41321262207646
2  6 6 14 1.5707963267949 2.41321262207646
2  7 6 15 1.5707963267949 2.41321262207646
2  8 1 15 1.5707963267949 2.41321262207646
0

0101000
+339 15 -341 15 *
Wi

0101100
+344 4 -342 0 +340 8 -338 4 +337 13 *
Fa
0  1e-07 1 0

0111000
+336 5 *
Ve
1e-07
-19.7270917213449 -13.75 18.6349048128746
0 0

0101101
*
Ve
1e-07
-20.0000000000001 -13.75 3
0 0

0101101
*
Ed
 1e-07 1 1 0
1  6 0 0 0.888346864367873
2  9 2 0 0 0.888346864367873
2  10 8 0 0 0.888346864367873
4 G1 2 0 8 0
0

0101000
-334 5 +333 0 *
Ed
 1e-07 1 1 0
1  7 0 -2.39135526491928e-06 27.5
2  2 9 0 -2.39135526491928e-06 27.5
2  11 7 4 -2.39135526491928e-06 27.5
4 G1 9 0 7 4
0

0101000
+346 0 -334 0 *
Ed
 1e-07 1 1 0
1  8 0 0 27.500021417717
2  6 2 9 0 27.500021417717
4 C0 2 9 4 9
0

0101000
+345 9 -333 9 *
Wi

0101100
+332 4 -331 0 +330 8 -344 4 *
Fa
0  1e-07 7 0

0111000
+329 5 *
Ve
1.74277086140693e-05
-16.9999999999999 14.477396331032 20.6
0 0

0101101
*
Ed
 5.12464320410442e-06 1 1 0
1  9 0 0 1.55334303427495
2  12 10 0 0 1.55334303427495
2  13 3 0 0 1.55334303427495
4 G1 10 0 3 0
0

0101000
+343 0 -327 0 *
Ve
3.99402259884942e-05
-17.7273963310241 13.7500006378454 20.6
0 0

0101101
*
Ed
 5.12464320410442e-06 1 1 0
1  10 0 103.959651974832 108.189475600971
2  14 3 0 103.959651974832 108.189475600971
2  15 11 4 103.959651974832 108.189475600971
4 G1 3 0 11 4
0

0101000
+327 0 -325 0 *
Ed
 5.12464320410442e-06 1 1 0
1  11 0 0 4.22982362613909
2  16 9 0 0 4.22982362613909
2  17 3 0 0 4.22982362613909
4 G1 3 0 9 0
0

0101000
+346 0 -325 0 *
Wi

0101100
+326 0 -342 0 +324 0 -323 0 *
Fa
0  5.12464320410442e-06 3 0

0111000
+322 0 *
Ve
1.12540786056988e-06
-19.2387611956584 -15.7469848043522 3
0 0

0101101
*
Ve
1e-07
-30.1678320924025 -3.49472340761626 0
0 0

0101101
*
Ed
 1e-07 1 1 0
1  12 0 0 16.4183586268544
0

0101000
+320 15 -319 0 *
Ve
1e-07
-30.1678320924025 3.49472340761627 0
0 0

0101101
*
Ed
 1e-07 1 1 0
1  13 0 2.41321262207646 3.86997268510312
2  6 13 14 2.41321262207646 3.86997268510312
2  7 13 15 2.41321262207646 3.86997268510312
0

0101000
+317 0 -319 0 *
Ed
 1e-07 1 1 0
1  14 0 0 16.4183586268544
0

0101000
+317 0 -341 15 *
Ed
 1e-07 1 1 0
1  15 0 3.14159265358979 3.86997268510319
2  6 8 9 3.14159265358979 3.86997268510319
4 C0 8 9 4 9
0

0101000
+333 9 -320 9 *
Wi

0101100
-318 16 +316 16 -315 16 -340 17 -330 17 -314 17 *
Ve
1e-07
-24 0 0
0 0

0101101
*
Ed
 1e-07 1 1 0
1  16 0 0 6.28318530717959
2  6 14 14 0 6.28318530717959
2  7 14 15 0 6.28318530717959
0

0101100
+312 0 -312 0 *
Wi

0101100
-311 16 *
Fa
0  1e-07 12 12

0101000
+313 0 +310 0 *
Ve
0.0001
16.9999999999999 16.4770917213448 18.6349048128746
0 0

0101101
*
Ed
 1e-07 1 1 0
1  17 0 0 33.9999999999997
2  2 10 0 0 33.9999999999997
2  18 15 4 0 33.9999999999997
4 G1 10 0 15 4
0

0101000
+308 0 -343 0 *
Ve
1.00000001776357e-07
16.9999999999999 16.75 3
0 0

0101101
*
Ed
 1e-07 1 1 0
1  18 0 0 33.9999999999997
0

0101000
+339 15 -306 15 *
Ed
 1e-07 1 1 0
1  19 0 0 0.888346864367873
2  5 16 0 0 0.888346864367873
4 G1 16 0 5 0
0

0101000
-308 5 +306 0 *
Wi

0101100
+338 4 -307 0 -305 13 -304 4 *
Fa
0  1e-07 15 0

0111000
+303 5 *
Ve
1e-07
-16.9999999999999 16.75 0
0 0

0101101
*
Ed
 1e-07 1 1 0
1  20 0 0 3
2  19 6 0 0 3
4 G1 6 0 17 0
0

0101000
+301 18 -339 0 *
Ve
1e-07
-19.2387611956584 15.7469848043522 0
0 0

0101101
*
Ed
 1e-07 1 1 0
1  21 0 0 3
2  20 6 0 0 3
4 G1 18 0 6 0
0

0101000
+299 18 -341 0 *
Ed
 1e-07 1 1 0
1  5 0 1.5707963267949 2.41321262207646
2  6 6 14 1.5707963267949 2.41321262207646
2  7 6 15 1.5707963267949 2.41321262207646
0

0101000
+301 0 -299 0 *
Wi

0101100
+300 0 -298 0 -297 18 +337 16 *
Fa
0  1e-07 6 0

0101000
+296 0 *
Ve
1e-07
-17.0000000000001 -16.4770917213448 18.6349048128746
0 0

0101101
*
Ve
1.00000198475586e-07
-16.9999999999999 -16.75 3
0 0

0101101
*
Ed
 1e-07 1 1 0
1  22 0 0 0.888346864367873
2  21 8 0 0 0.888346864367873
4 G1 8 0 19 0
0

0101000
-294 5 +293 0 *
Ed
 1e-07 1 1 0
1  23 0 0 1.57079632679499
2  22 20 0 0 1.57079632679499
2  23 8 4 0 1.57079632679499
4 G1 20 0 8 4
0

0101000
+334 0 -294 0 *
Ed
 1.00000198475586e-07 1 1 0
1  24 0 3.86997268510312 4.71238898038469
2  6 21 14 3.86997268510312 4.71238898038469
2  7 21 15 3.86997268510312 4.71238898038469
2  24 8 15 3.86997268510312 4.71238898038469
0

0101000
+320 15 -293 15 *
Wi

0101100
+292 4 -291 0 +290 13 -332 4 +314 8 *
Fa
0  1e-07 8 0

0111000
+289 5 *
Ve
1e-07
-17.7273963310321 -13.75 20.6
0 0

0101101
*
Ed
 1e-07 1 1 0
1  25 0 -2.39135526491928e-06 27.5
2  25 9 0 -2.39135526491928e-06 27.5
2  26 11 4 -2.39135526491928e-06 27.5
4 G1 9 0 11 4
0

0101000
+325 0 -287 0 *
Ed
 1e-07 1 1 0
1  26 0 0 1.55334303427495
2  27 9 0 0 1.55334303427495
2  28 20 0 0 1.55334303427495
4 G1 9 0 20 0
0

0101000
+334 0 -287 0 *
Wi

0101100
+323 0 -331 0 +286 0 -285 0 *
Fa
0  0 9 0

0111000
+284 0 *
Ve
3.99128573422907e-05
16.9999999999999 14.477396331032 20.6
0 0

0101101
*
Ed
 5.1246497425645e-06 1 1 0
1  27 0 0 4.22982439975263
2  29 10 0 0 4.22982439975263
2  30 22 0 0 4.22982439975263
4 G1 22 0 10 0
0

0101000
+308 0 -282 0 *
Ed
 1e-07 1 1 0
1  28 0 0 33.9999999999997
2  25 10 0 0 33.9999999999997
2  31 11 4 0 33.9999999999997
4 G1 10 0 11 4
0

0101000
+282 0 -327 0 *
Wi

0101100
+281 0 -307 0 +280 0 -326 0 *
Fa
0  0 10 0

0111000
+279 0 *
Ve
1e-07
-17.0000000000001 -14.477396331032 20.6
0 0

0101101
*
Ve
1e-07
16.9999999999999 -14.477396331032 20.6
0 0

0101101
*
Ed
 1e-07 1 1 0
1  29 0 2.77843444782562e-14 34
2  25 23 0 2.77843444782562e-14 34
2  32 11 4 2.77843444782562e-14 34
4 G1 23 0 11 4
0

0101000
+277 0 -276 0 *
Ed
 1e-07 1 1 0
1  30 0 0 1.57079632679499
2  33 20 0 0 1.57079632679499
2  34 11 4 0 1.57079632679499
4 G1 20 0 11 4
0

0101000
+287 0 -277 0 *
Ve
1e-07
17.7273963310318 -13.75 20.6
0 0

0101101
*
Ed
 1e-07 1 1 0
1  31 0 8.88178419700125e-16 1.5707963267949
2  35 24 0 8.88178419700125e-16 1.5707963267949
2  36 11 4 8.88178419700125e-16 1.5707963267949
4 G1 24 0 11 4
0

0101000
+276 0 -273 0 *
Ve
1.74277308390169e-05
17.7273963310318 13.7500016078874 20.6
0 0

0101101
*
Ed
 1e-07 1 1 0
1  32 0 0 27.5000016078874
2  25 25 0 0 27.5000016078874
2  37 11 4 0 27.5000016078874
4 G1 25 0 11 4
0

0101000
+273 0 -271 0 *
Ed
 5.1246497425645e-06 1 1 0
1  33 0 65.7298275750797 69.9596519748324
2  38 22 0 65.7298275750797 69.9596519748324
2  39 11 4 65.7298275750797 69.9596519748324
4 G1 22 0 11 4
0

0101000
+271 0 -282 0 *
Wi

0101100
+275 0 +274 0 +272 0 +286 0 +270 0 +324 0 +269 0 +280 0 *
Ve
1.00000014210855e-07
16.9999999999999 -14.4427908572634 20.6
0 0

0101101
*
Ve
1.00000014210855e-07
17.6927908572632 -13.75 20.6
0 0

0101101
*
Ed
 1.00000014210855e-07 1 1 0
1  34 0 4.71238898038469 6.28318530717959
2  40 26 0 4.71238898038469 6.28318530717959
4 C0 26 0 27 0
0

0101000
+267 0 -266 0 *
Ve
1.00000014210855e-07
17.6927908572632 13.75 20.6
0 0

0101101
*
Ed
 1.00000014210855e-07 1 1 0
1  35 0 0 27.5
4 C0 28 0 27 0
0

0101000
+264 0 -266 0 *
Ve
1.00000014210855e-07
16.9999999999999 14.4427908572634 20.6
0 0

0101101
*
Ed
 1.00000014210855e-07 1 1 0
1  36 0 6.28318530717959 7.85398163397448
2  41 29 0 6.28318530717959 7.85398163397448
4 C0 29 0 27 0
0

0101000
+264 0 -262 0 *
Ve
1.00000014210855e-07
-16.9999999999999 14.4427908572634 20.6
0 0

0101101
*
Ed
 1.00000014210855e-07 1 1 0
1  37 0 0 33.9999999999997
4 C0 30 0 27 0
0

0101000
+260 0 -262 0 *
Ve
1.00000014210855e-07
-17.6927908572635 13.75 20.6
0 0

0101101
*
Ed
 1.00000014210855e-07 1 1 0
1  38 0 7.85398163397448 9.42477796076938
2  41 31 0 7.85398163397448 9.42477796076938
4 C0 31 0 27 0
0

0101000
+260 0 -258 0 *
Ve
1.00000014210855e-07
-17.6927908572635 -13.75 20.6
0 0

0101101
*
Ed
 1.00000014210855e-07 1 1 0
1  39 0 0 27.5
4 C0 32 0 27 0
0

0101000
+256 0 -258 0 *
Ve
1.00000014210855e-07
-17.0000000000001 -14.4427908572634 20.6
0 0

0101101
*
Ed
 1.00000014210855e-07 1 1 0
1  40 0 3.14159265358979 4.71238898038469
2  40 33 0 3.14159265358979 4.71238898038469
4 C0 33 0 27 0
0

0101000
+256 0 -254 0 *
Ed
 1.00000014210855e-07 1 1 0
1  41 0 0 34
4 C0 34 0 27 0
0

0101000
+267 0 -254 0 *
Wi

0101100
-265 0 +263 0 -261 0 +259 0 -257 0 +255 0 -253 0 +252 0 *
Fa
0  1e-07 11 0

0111000
+268 5 +251 0 *
Ve
1e-07
-19.2387611956584 -15.7469848043522 0
0 0

0101101
*
Ed
 1e-07 1 1 0
1  42 0 0 3
2  42 21 0 0 3
4 G1 35 0 21 0
0

0101000
+249 18 -320 0 *
Ed
 1e-07 1 1 0
1  43 0 0 3
2  43 13 0 0 3
4 G1 35 0 13 0
0

0101000
+319 18 -319 16 *
Ed
 1e-07 1 1 0
1  12 0 0 16.4183586268544
0

0101000
+249 0 -319 0 *
Wi

0101100
+248 0 -247 0 -246 18 +318 16 *
Fa
0  1e-07 35 0

0101000
+245 0 *
Ed
 1e-07 1 1 0
1  44 0 0 3
2  20 13 0 0 3
4 G1 13 0 18 0
0

0101000
+317 18 -317 16 *
Wi

0101100
+243 0 -247 0 -316 18 +316 16 *
Fa
0  1e-07 13 0

0101000
+242 0 *
Ed
 1e-07 1 1 0
1  14 0 0 16.4183586268544
0

0101000
+317 0 -299 0 *
Wi

0101100
+243 0 -298 0 -240 18 +315 16 *
Fa
0  1e-07 18 0

0101000
+239 0 *
Ed
 1e-07 1 1 0
1  45 0 0 3
3  44 45CN 14 0 0 3
0

0101000
+312 18 -312 16 *
Wi

0101100
+237 0 -237 0 -311 18 +311 16 *
Fa
0  1e-07 14 0

0101000
+236 0 *
Ve
1.00000001776357e-07
16.9999999999999 16.75 0
0 0

0101101
*
Ed
 1.00000001776357e-07 1 1 0
1  46 0 0 3
2  19 36 0 0 3
4 G1 17 0 36 0
0

0101000
+234 18 -306 0 *
Ed
 1e-07 1 1 0
1  18 0 0 33.9999999999997
0

0101000
+301 0 -234 0 *
Wi

0101100
+300 0 -233 0 -232 18 +305 16 *
Fa
0  1e-07 17 0

0101000
+231 0 *
Ve
0.0001
19.7270917213446 13.7500016078874 18.6349048128746
0 0

0101101
*
Ed
 5.1246497425645e-06 1 1 0
1  47 0 65.7298275750797 69.9596519748324
2  2 22 0 65.7298275750797 69.9596519748324
2  46 16 4 65.7298275750797 69.9596519748324
4 G1 22 0 16 4
0

0101000
+229 0 -308 0 *
Ve
1.00000001776357e-07
19.2387611956584 15.7469848043522 3
0 0

0101101
*
Ed
 1.00000001776357e-07 1 1 0
1  48 0 0.72838003151333 1.5707963267949
2  6 36 14 0.72838003151333 1.5707963267949
2  7 36 15 0.72838003151333 1.5707963267949
2  47 16 15 0.72838003151333 1.5707963267949
0

0101000
+227 15 -306 15 *
Ve
1.00017282175691e-07
19.9999999999826 13.7500144007363 3
0 0

0101101
*
Ed
 1e-07 1 1 0
1  49 0 0 0.888346864367873
2  2 37 0 0 0.888346864367873
2  2 16 0 0 0.888346864367873
4 C0 37 0 16 0
0

0101000
-229 5 +225 0 *
Ed
 1e-07 1 1 0
1  50 0 4.8002454195e-06 0.72838003151333
2  48 16 9 4.8002454195e-06 0.72838003151333
4 C0 16 9 4 9
0

0101000
+225 9 -227 9 *
Wi

0101100
+304 4 -228 0 +226 13 -224 4 +223 8 *
Fa
0  1e-07 16 0

0111000
+222 5 *
Ve
1e-07
19.2387611956584 15.7469848043522 0
0 0

0101101
*
Ed
 1e-07 1 1 0
1  48 0 0.72838003151333 1.5707963267949
2  6 36 14 0.72838003151333 1.5707963267949
2  7 36 15 0.72838003151333 1.5707963267949
0

0101000
+220 0 -234 0 *
Ve
1.00000000444089e-07
30.1678320924025 3.49472340761627 0
0 0

0101101
*
Ed
 1e-07 1 1 0
1  51 0 0 16.4183586268544
0

0101000
+220 0 -218 0 *
Ve
1.00000002094765e-07
30.1678320924025 -3.49472340761626 0
0 0

0101101
*
Ed
 1e-07 1 1 0
1  52 0 5.55480527566626 7.01156533869292
2  6 38 14 5.55480527566626 7.01156533869292
2  7 38 15 5.55480527566626 7.01156533869292
0

0101000
+216 0 -218 0 *
Ve
1.00000001986027e-07
19.2387611956584 -15.7469848043522 0
0 0

0101101
*
Ed
 1e-07 1 1 0
1  53 0 0 16.4183586268544
0

0101000
+216 0 -214 0 *
Ve
1.00000001776357e-07
16.9999999999999 -16.75 0
0 0

0101101
*
Ed
 1e-07 1 1 0
1  54 0 4.71238898038469 5.55480527566626
2  6 39 14 4.71238898038469 5.55480527566626
2  7 39 15 4.71238898038469 5.55480527566626
0

0101000
+212 0 -214 0 *
Ve
1e-07
-16.9999999999999 -16.75 0
0 0

0101101
*
Ed
 1e-07 1 1 0
1  55 0 0 33.9999999999997
0

0101000
+210 0 -212 0 *
Ed
 1e-07 1 1 0
1  24 0 3.86997268510312 4.71238898038469
2  6 21 14 3.86997268510312 4.71238898038469
2  7 21 15 3.86997268510312 4.71238898038469
0

0101000
+249 0 -210 0 *
Wi

0101100
+246 0 -316 0 +240 0 -297 0 +232 0 -219 0 +217 0 -215 0 +213 0 -211 0 
-209 0 -208 0 *
Ve
1.00000001776357e-07
-18.0000000000001 -13.75 0
0 0

0101101
*
Ve
1.00000142108547e-07
-18 13.75 0
0 0

0101101
*
Ed
 1e-07 1 1 0
1  56 0 0 27.5
0

0101000
+206 0 -205 0 *
Ve
1e-07
-16.9999999999999 14.75 0
0 0

0101101
*
Ed
 1e-07 1 1 0
1  57 0 1.5707963267949 3.14159265358978
2  6 40 14 1.5707963267949 3.14159265358978
2  7 40 15 1.5707963267949 3.14159265358978
0

0101000
+203 0 -205 0 *
Ve
1.00000001776357e-07
16.9999999999999 14.75 0
0 0

0101101
*
Ed
 1e-07 1 1 0
1  58 0 0 33.9999999999997
0

0101000
+203 0 -201 0 *
Ve
1e-07
17.9999999999999 13.75 0
0 0

0101101
*
Ed
 1e-07 1 1 0
1  59 0 0 1.5707963267949
2  6 41 14 0 1.5707963267949
2  7 41 15 0 1.5707963267949
0

0101000
+199 0 -201 0 *
Ve
1e-07
17.9999999999999 -13.75 0
0 0

0101101
*
Ed
 1e-07 1 1 0
1  60 0 0 27.5
0

0101000
+199 0 -197 0 *
Ve
1e-07
16.9999999999999 -14.75 0
0 0

0101101
*
Ed
 1e-07 1 1 0
1  61 0 4.71238898038469 6.28318530717959
2  6 42 14 4.71238898038469 6.28318530717959
2  7 42 15 4.71238898038469 6.28318530717959
0

0101000
+195 0 -197 0 *
Ve
1e-07
-17.0000000000001 -14.75 0
0 0

0101101
*
Ed
 1e-07 1 1 0
1  62 0 0 34
0

0101000
+195 0 -193 0 *
Ed
 1e-07 1 1 0
1  63 0 3.14159265358979 4.71238898038469
2  6 43 14 3.14159265358979 4.71238898038469
2  7 43 15 3.14159265358979 4.71238898038469
0

0101000
+206 0 -193 0 *
Wi

0101100
+204 0 -202 0 +200 0 -198 0 +196 0 -194 0 +192 0 -191 0 *
Wi

0101100
+311 0 *
Ve
1e-07
28.5 0 0
0 0

0101101
*
Ed
 1e-07 1 1 0
1  64 0 0 6.28318530717959
2  6 44 14 0 6.28318530717959
2  7 44 15 0 6.28318530717959
0

0101100
+188 0 -188 0 *
Wi

0101100
+187 0 *
Fa
0  1e-07 12 0

0101000
-207 18 +190 18 -189 18 -186 18 *
Ve
1e-07
16.9999999999999 -16.4770917213448 18.6349048128746
0 0

0101101
*
Ve
1.00000005024296e-07
16.9999999999999 -16.75 3
0 0

0101101
*
Ed
 1e-07 1 1 0
1  65 0 0 0.888346864367873
2  49 46 0 0 0.888346864367873
4 G1 46 0 19 0
0

0101000
-184 5 +183 0 *
Ed
 1e-07 1 1 0
1  66 0 2.77843444782562e-14 34
2  2 23 0 2.77843444782562e-14 34
2  50 45 4 2.77843444782562e-14 34
4 G1 23 0 45 4
0

0101000
+294 0 -184 0 *
Ed
 1e-07 1 1 0
1  55 0 0 33.9999999999997
0

0101000
+293 15 -183 15 *
Wi

0101100
+182 4 -181 0 +180 13 -292 4 *
Fa
0  1e-07 45 0

0111000
+179 5 *
Ed
 1e-07 1 1 0
1  67 0 0 1.55334303427495
2  51 23 0 0 1.55334303427495
2  52 20 0 0 1.55334303427495
4 G1 23 0 20 0
0

0101000
+294 0 -277 0 *
Wi

0101100
-285 0 +291 0 -274 0 +177 0 *
Fa
0  0 20 0

0111000
+176 0 *
Ed
 1e-07 1 1 0
1  68 0 0 3
2  53 21 0 0 3
4 G1 47 0 21 0
0

0101000
+210 18 -293 0 *
Wi

0101100
+248 0 -174 0 -208 18 +290 16 *
Fa
0  1e-07 21 0

0101000
+173 0 *
Ed
 5.1246497425645e-06 1 1 0
1  69 0 0 1.55334303427495
2  54 25 0 0 1.55334303427495
2  55 22 0 0 1.55334303427495
4 G1 25 0 22 0
0

0101000
+229 0 -271 0 *
Wi

0101100
+171 0 -228 0 +269 0 -281 0 *
Fa
0  5.1246497425645e-06 22 0

0111000
+170 0 *
Ed
 1e-07 1 1 0
1  70 0 0 1.55334303427495
2  56 23 0 0 1.55334303427495
2  57 24 0 0 1.55334303427495
4 G1 23 0 24 0
0

0101000
+184 0 -276 0 *
Wi

0101100
+177 0 -181 0 +275 0 -168 0 *
Fa
0  0 23 0

0111000
+167 0 *
Ve
1e-07
19.7270917213446 -13.75 18.6349048128746
0 0

0101101
*
Ed
 1e-07 1 1 0
1  71 0 8.88178419700125e-16 1.5707963267949
2  22 24 0 8.88178419700125e-16 1.5707963267949
2  58 46 4 8.88178419700125e-16 1.5707963267949
4 G1 24 0 46 4
0

0101000
+184 0 -165 0 *
Ed
 1e-07 1 1 0
1  72 0 0.0174532925199441 1.5707963267949
2  59 24 0 0.0174532925199441 1.5707963267949
2  60 25 0 0.0174532925199441 1.5707963267949
4 G1 24 0 25 0
0

0101000
+165 0 -273 0 *
Wi

0101100
-168 0 +164 0 -272 0 +163 0 *
Fa
0  0 24 0

0111000
+162 0 *
Ed
 1e-07 1 1 0
1  73 0 0 27.5000016078874
2  2 25 0 0 27.5000016078874
2  61 48 4 0 27.5000016078874
4 G1 25 0 48 4
0

0101000
+165 0 -229 0 *
Wi

0101100
+163 0 -160 0 +270 0 -171 0 *
Fa
0  0 25 0

0111000
+159 0 *
Wi

0101100
-252 0 +253 0 -255 0 +257 0 -259 0 +261 0 -263 0 +265 0 *
Fa
0  1e-07 49 0

0101000
+157 0 *
Ed
 1e-07 1 1 0
1  74 0 0 3
2  62 36 0 0 3
4 G1 36 0 50 0
0

0101000
+220 18 -227 0 *
Wi

0101100
+155 0 -233 0 -219 18 +226 16 *
Fa
0  1e-07 36 0

0101000
+154 0 *
Ve
1e-07
19.9999999999999 -13.75 3
0 0

0101101
*
Ed
 1e-07 1 1 0
1  75 0 0 27.5000144007363
2  63 37 9 0 27.5000144007363
4 C0 37 9 4 9
0

0101000
+225 9 -152 9 *
Ed
 1e-07 1 1 0
1  76 0 0 0.888346864367873
2  64 46 0 0 0.888346864367873
2  65 37 0 0 0.888346864367873
4 G1 46 0 37 0
0

0101000
-165 5 +152 0 *
Wi

0101100
+224 4 -160 0 -151 8 -150 4 *
Fa
0  1e-07 48 0

0111000
+149 5 *
Ve
1.00000005024296e-07
19.2387611956584 -15.7469848043522 3
0 0

0101101
*
Ed
 1e-07 1 1 0
1  77 0 5.55480527566626 6.28318530717959
2  6 46 9 5.55480527566626 6.28318530717959
4 C0 46 9 4 9
0

0101000
+147 9 -152 9 *
Ed
 1e-07 1 1 0
1  51 0 0 16.4183586268544
0

0101000
+227 15 -218 0 *
Ed
 1e-07 1 1 0
1  53 0 0 16.4183586268544
0

0101000
+216 0 -147 15 *
Wi

0101100
-146 17 +151 17 -223 17 -145 16 +215 16 -144 16 *
Wi

0101100
-187 16 *
Fa
0  1e-07 12 12

0101000
+143 0 +142 0 *
Ed
 1.00000000444089e-07 1 1 0
1  78 0 0 3
2  66 38 0 0 3
4 G1 50 0 38 0
0

0101000
+218 18 -218 16 *
Wi

0101100
+155 0 -140 0 -217 18 +145 16 *
Fa
0  1e-07 50 0

0101000
+139 0 *
Ed
 1.00000002094765e-07 1 1 0
1  79 0 0 3
2  67 38 0 0 3
4 G1 38 0 51 0
0

0101000
+216 18 -216 16 *
Wi

0101100
+137 0 -140 0 -215 18 +215 16 *
Fa
0  1e-07 38 0

0101000
+136 0 *
Ed
 1.00000001986027e-07 1 1 0
1  80 0 0 3
2  68 39 0 0 3
4 G1 51 0 39 0
0

0101000
+214 18 -147 0 *
Wi

0101100
+137 0 -134 0 -213 18 +144 16 *
Fa
0  1e-07 51 0

0101000
+133 0 *
Ed
 1.00000001776357e-07 1 1 0
1  81 0 0 3
2  53 39 0 0 3
4 G1 39 0 47 0
0

0101000
+212 18 -183 0 *
Ed
 1.00000005024296e-07 1 1 0
1  54 0 4.71238898038469 5.55480527566626
2  6 39 14 4.71238898038469 5.55480527566626
2  7 39 15 4.71238898038469 5.55480527566626
2  69 46 15 4.71238898038469 5.55480527566626
0

0101000
+183 15 -147 15 *
Wi

0101100
+131 0 -134 0 -211 18 +130 16 *
Fa
0  1e-07 39 0

0101000
+129 0 *
Wi

0101100
+174 0 -131 0 -209 18 +180 16 *
Fa
0  1e-07 47 0

0101000
+127 0 *
Ve
1.00000001776357e-07
-18.0000000000001 -13.75 3
0 0

0101101
*
Ed
 1.00000001776357e-07 1 1 0
1  82 0 0 3
2  70 43 0 0 3
4 C1 52 0 43 0
0

0101000
+206 18 -125 0 *
Ve
1.00000145750023e-07
-18 13.75 3
0 0

0101101
*
Ed
 1.00000142108547e-07 1 1 0
1  83 0 0 3
2  71 40 0 0 3
4 C1 52 0 40 0
0

0101000
+205 18 -123 0 *
Ed
 1e-07 1 1 0
1  56 0 0 27.5
0

0101000
+125 15 -123 15 *
Wi

0101100
+124 0 -122 0 -204 18 +121 16 *
Fa
0  1e-07 52 0

0101000
+120 0 *
Ve
1.00000001776357e-07
-16.9999999999999 14.75 3
0 0

0101101
*
Ed
 1e-07 1 1 0
1  84 0 0 3
2  72 40 0 0 3
4 C1 40 0 53 0
0

0101000
+203 18 -118 0 *
Ed
 1.00000001776357e-07 1 1 0
1  57 0 1.5707963267949 3.14159265358978
2  6 40 14 1.5707963267949 3.14159265358978
2  7 40 15 1.5707963267949 3.14159265358978
2  73 31 15 1.5707963267949 3.14159265358978
0

0101000
+118 15 -123 15 *
Wi

0101100
+117 0 -122 0 -202 18 +116 16 *
Fa
0  1e-07 40 0

0101000
+115 0 *
Ve
1.00000001776357e-07
16.9999999999999 14.75 3
0 0

0101101
*
Ed
 1.00000001776357e-07 1 1 0
1  85 0 0 3
2  74 41 0 0 3
4 C1 53 0 41 0
0

0101000
+201 18 -113 0 *
Ed
 1e-07 1 1 0
1  58 0 0 33.9999999999997
0

0101000
+118 15 -113 15 *
Wi

0101100
+117 0 -112 0 -200 18 +111 16 *
Fa
0  1e-07 53 0

0101000
+110 0 *
Ve
1.00000001776357e-07
17.9999999999999 13.75 3
0 0

0101101
*
Ed
 1e-07 1 1 0
1  86 0 0 3
2  44 41 0 0 3
4 C1 41 0 54 0
0

0101000
+199 18 -108 0 *
Ed
 1.00000001776357e-07 1 1 0
1  59 0 0 1.5707963267949
2  6 41 14 0 1.5707963267949
2  7 41 15 0 1.5707963267949
2  75 29 15 0 1.5707963267949
0

0101000
+108 15 -113 15 *
Wi

0101100
+107 0 -112 0 -198 18 +106 16 *
Fa
0  1e-07 41 0

0101000
+105 0 *
Ve
1.00000001776357e-07
17.9999999999999 -13.75 3
0 0

0101101
*
Ed
 1e-07 1 1 0
1  87 0 0 3
2  45 42 0 0 3
4 C1 54 0 42 0
0

0101000
+197 18 -103 0 *
Ed
 1e-07 1 1 0
1  60 0 0 27.5
0

0101000
+108 15 -103 15 *
Wi

0101100
+107 0 -102 0 -196 18 +101 16 *
Fa
0  1e-07 54 0

0101000
+100 0 *
Ve
1.00000001776357e-07
16.9999999999999 -14.75 3
0 0

0101101
*
Ed
 1e-07 1 1 0
1  88 0 0 3
2  76 42 0 0 3
4 C1 42 0 55 0
0

0101000
+195 18 -98 0 *
Ed
 1.00000001776357e-07 1 1 0
1  61 0 4.71238898038469 6.28318530717959
2  6 42 14 4.71238898038469 6.28318530717959
2  7 42 15 4.71238898038469 6.28318530717959
2  77 26 15 4.71238898038469 6.28318530717959
0

0101000
+98 15 -103 15 *
Wi

0101100
+97 0 -102 0 -194 18 +96 16 *
Fa
0  1e-07 42 0

0101000
+95 0 *
Ve
1.00000001776357e-07
-17.0000000000001 -14.75 3
0 0

0101101
*
Ed
 1e-07 1 1 0
1  89 0 0 3
2  53 43 0 0 3
4 C1 55 0 43 0
0

0101000
+193 18 -93 0 *
Ed
 1e-07 1 1 0
1  62 0 0 34
0

0101000
+98 15 -93 15 *
Wi

0101100
+97 0 -92 0 -192 18 +91 16 *
Fa
0  1e-07 55 0

0101000
+90 0 *
Ed
 1.00000001776357e-07 1 1 0
1  63 0 3.14159265358979 4.71238898038469
2  6 43 14 3.14159265358979 4.71238898038469
2  7 43 15 3.14159265358979 4.71238898038469
2  78 33 15 3.14159265358979 4.71238898038469
0

0101000
+125 15 -93 15 *
Wi

0101100
+124 0 -92 0 -191 18 +88 16 *
Fa
0  1e-07 43 0

0101000
+87 0 *
Ed
 1e-07 1 1 0
1  90 0 0 3
3  44 45CN 44 0 0 3
0

0101000
+188 18 -188 16 *
Wi

0101100
+85 0 -85 0 -187 18 +187 16 *
Fa
0  1e-07 44 0

0101000
+84 0 *
Wi

0101100
+150 4 -164 0 +146 8 -182 4 +130 13 *
Fa
0  1e-07 46 0

0111000
+82 5 *
Ve
0.000168672953672195
-17.7448514191607 -13.75 17.6174524064373
0 0

0101101
*
Ed
 1e-07 1 1 0
1  91 0 0 0.830537068547574
2  79 33 0 0 0.830537068547574
4 G1 33 0 32 0
0

0101000
-80 19 +125 0 *
Ve
0.0001
-17.7448514191605 13.75 17.6174524064373
0 0

0101101
*
Ed
 1e-07 1 1 0
1  92 0 1.4210854715202e-14 27.5
2  2 57 0 1.4210854715202e-14 27.5
2  80 56 2 1.4210854715202e-14 27.5
4 G1 57 0 56 2
0

0101000
+78 0 -80 0 *
Ed
 1e-07 1 1 0
1  93 0 0 0.830537068547574
2  79 31 0 0 0.830537068547574
4 G1 32 0 31 0
0

0101000
-78 19 +123 0 *
Wi

0101100
-79 2 +77 0 +121 20 +76 2 *
Fa
0  1e-07 56 0

0111000
+75 19 *
Ve
0.0001
-16.9999999999999 14.4948514191605 17.6174524064373
0 0

0101101
*
Ed
 0.0001 1 1 0
1  94 0 0 1
2  6 58 0 0 1
2  81 31 2 0 1
4 G1 58 0 31 2
0

0101000
+73 0 -78 0 *
Ed
 1e-07 1 1 0
1  95 0 0 0.830537068547574
2  82 31 0 0 0.830537068547574
4 G1 31 0 30 0
0

0101000
-73 19 +118 0 *
Wi

0101100
-76 2 +72 0 -116 20 +71 2 *
Fa
0  1e-07 31 0

0111000
+70 19 *
Ve
0.000116205429087906
16.9999999999999 14.4948514191605 17.6174524064373
0 0

0101101
*
Ed
 1e-07 1 1 0
1  96 0 0 33.9999999999997
2  2 60 0 0 33.9999999999997
2  83 59 2 0 33.9999999999997
4 G1 60 0 59 2
0

0101000
+68 0 -73 0 *
Ed
 1e-07 1 1 0
1  97 0 0 0.830537068547574
2  84 29 0 0 0.830537068547574
4 G1 30 0 29 0
0

0101000
-68 19 +113 0 *
Wi

0101100
-71 2 +67 0 +111 20 +66 2 *
Fa
0  1e-07 59 0

0111000
+65 19 *
Ve
0.000168672953678821
17.7448514191604 13.75 17.6174524064373
0 0

0101101
*
Ed
 0.0001 1 1 0
1  98 0 0 1
2  6 61 0 0 1
2  85 29 2 0 1
4 G1 61 0 29 2
0

0101000
+63 0 -68 0 *
Ed
 1e-07 1 1 0
1  99 0 0 0.830537068547574
2  86 29 0 0 0.830537068547574
4 G1 29 0 28 0
0

0101000
-63 19 +108 0 *
Wi

0101100
-66 2 +62 0 -106 20 +61 2 *
Fa
0  1e-07 29 0

0111000
+60 19 *
Ve
0.0001
17.7448514191604 -13.75 17.6174524064373
0 0

0101101
*
Ed
 1e-07 1 1 0
1  100 0 0 27.5
2  2 63 0 0 27.5
2  87 62 2 0 27.5
4 G1 63 0 62 2
0

0101000
+58 0 -63 0 *
Ed
 1e-07 1 1 0
1  101 0 0 0.830537068547574
2  88 26 0 0 0.830537068547574
4 G1 28 0 26 0
0

0101000
-58 19 +103 0 *
Wi

0101100
-61 2 +57 0 +101 20 +56 2 *
Fa
0  1e-07 62 0

0111000
+55 19 *
Ve
0.0001
16.9999999999999 -14.4948514191605 17.6174524064373
0 0

0101101
*
Ed
 0.0001 1 1 0
1  102 0 0 1
2  6 64 0 0 1
2  89 26 2 0 1
4 G1 64 0 26 2
0

0101000
+53 0 -58 0 *
Ed
 1e-07 1 1 0
1  103 0 0 0.830537068547574
2  90 26 0 0 0.830537068547574
4 G1 34 0 26 0
0

0101000
-53 19 +98 0 *
Wi

0101100
-56 2 +52 0 -96 20 +51 2 *
Fa
0  1e-07 26 0

0111000
+50 19 *
Ve
0.000168672953687807
-17.0000000000001 -14.4948514191605 17.6174524064373
0 0

0101101
*
Ed
 1e-07 1 1 0
1  104 0 0 34
2  2 66 0 0 34
2  91 65 2 0 34
4 G1 66 0 65 2
0

0101000
+48 0 -53 0 *
Ed
 1e-07 1 1 0
1  105 0 0 0.830537068547574
2  90 33 0 0 0.830537068547574
4 G1 34 0 33 0
0

0101000
-48 19 +93 0 *
Wi

0101100
-51 2 +47 0 +91 20 +46 2 *
Fa
0  1e-07 65 0

0111000
+45 19 *
Ed
 0.0001 1 1 0
1  106 0 0 1
2  6 67 0 0 1
2  92 33 2 0 1
4 G1 67 0 33 2
0

0101000
+80 0 -48 0 *
Wi

0101100
-46 2 +43 0 -88 20 +79 2 *
Fa
0  1e-07 33 0

0111000
+42 19 *
Ve
0.000112536444849131
-16.7450037240043 13.4950037240041 18.6
0 0

0101101
*
Ed
 0.0001 1 1 0
1  107 0 0 1
2  93 57 0 0 1
2  94 58 0 0 1
4 G1 58 0 57 0
0

0101000
+78 0 -40 0 *
Ve
0.000168672953687807
-16.7450037240043 -13.4950037240041 18.6
0 0

0101101
*
Ed
 1e-07 1 1 0
1  108 0 0.254996275995895 27.2450037240041
2  25 57 0 0.254996275995895 27.2450037240041
2  95 49 22 0.254996275995895 27.2450037240041
4 G1 57 0 49 22
0

0101000
+40 0 -38 0 *
Ed
 0.0001 1 1 0
1  109 0 0 1
2  96 57 0 0 1
2  97 67 0 0 1
4 G1 57 0 67 0
0

0101000
+80 0 -38 0 *
Wi

0101100
+39 0 -77 0 +37 0 -36 0 *
Fa
0  0 57 0

0111000
+35 0 *
Ed
 0.0001 1 1 0
1  110 0 0 1
2  98 60 0 0 1
2  99 58 0 0 1
4 G1 60 0 58 0
0

0101000
+73 0 -40 0 *
Ed
 0.0001 1 1 1
2  100 58 0 0 1
0

0101000
+40 0 -40 0 *
Wi

0101100
-33 0 +72 0 -32 0 +39 0 *
Fa
0  0.0001 58 0

0111000
+31 0 *
Ve
0.000168672953678821
16.745003724004 13.4950037240041 18.6
0 0

0101101
*
Ed
 0.0001 1 1 0
1  111 0 0 1
2  101 60 0 0 1
2  94 61 0 0 1
4 G1 61 0 60 0
0

0101000
+68 0 -29 0 *
Ed
 1e-07 1 1 0
1  112 0 0.254996275995882 33.7450037240041
2  25 60 0 0.254996275995882 33.7450037240041
2  102 49 22 0.254996275995882 33.7450037240041
4 G1 60 0 49 22
0

0101000
+29 0 -40 0 *
Wi

0101100
+28 0 -67 0 +27 0 -33 0 *
Fa
0  0 60 0

0111000
+26 0 *
Ed
 0.0001 1 1 0
1  113 0 0 1
2  103 63 0 0 1
2  104 61 0 0 1
4 G1 63 0 61 0
0

0101000
+63 0 -29 0 *
Ed
 0.0001 1 1 1
2  100 61 0 0 1
0

0101000
+29 0 -29 0 *
Wi

0101100
-24 0 +62 0 -23 0 +28 0 *
Fa
0  0.0001 61 0

0111000
+22 0 *
Ve
0.000112536444775994
16.745003724004 -13.4950037240041 18.6
0 0

0101101
*
Ed
 0.0001 1 1 0
1  114 0 0 1
2  105 63 0 0 1
2  94 64 0 0 1
4 G1 64 0 63 0
0

0101000
+58 0 -20 0 *
Ed
 1e-07 1 1 0
1  115 0 0.254996275995881 27.2450037240041
2  25 63 0 0.254996275995881 27.2450037240041
2  106 49 22 0.254996275995881 27.2450037240041
4 G1 63 0 49 22
0

0101000
+20 0 -29 0 *
Wi

0101100
+19 0 -57 0 +18 0 -24 0 *
Fa
0  0 63 0

0111000
+17 0 *
Ed
 0.0001 1 1 0
1  116 0 0 1
2  107 66 0 0 1
2  108 64 0 0 1
4 G1 66 0 64 0
0

0101000
+53 0 -20 0 *
Ed
 0.0001 1 1 1
2  100 64 0 0 1
0

0101000
+20 0 -20 0 *
Wi

0101100
-15 0 +52 0 -14 0 +19 0 *
Fa
0  0.0001 64 0

0111000
+13 0 *
Ed
 0.0001 1 1 0
1  117 0 0 1
2  109 66 0 0 1
2  110 67 0 0 1
4 G1 66 0 67 0
0

0101000
+48 0 -38 0 *
Ed
 1e-07 1 1 0
1  118 0 0.254996275995875 33.7450037240041
2  25 66 0 0.254996275995875 33.7450037240041
2  111 49 22 0.254996275995875 33.7450037240041
4 G1 66 0 49 22
0

0101000
+38 0 -20 0 *
Wi

0101100
+11 0 -47 0 +10 0 -15 0 *
Fa
0  0 66 0

0111000
+9 0 *
Ed
 0.0001 1 1 1
2  100 67 0 0 1
0

0101000
+38 0 -38 0 *
Wi

0101100
-36 0 +43 0 -7 0 +11 0 *
Fa
0  0.0001 67 0

0111000
+6 0 *
Wi

0101100
+10 0 +37 0 +18 0 +27 0 *
Fa
0  1e-07 49 21

0111000
+4 19 *
Sh

0101100
+335 4 +328 4 -321 0 +309 4 +302 4 -295 4 +288 4 -283 0 -278 0 +250 4 
+244 4 -241 4 +238 4 +235 4 +230 4 +221 4 -185 4 +178 4 +175 0 -172 4 
-169 0 -166 0 +161 0 -158 0 +156 4 -153 4 +148 4 +141 4 +138 4 -135 4 
+132 4 -128 4 -126 4 -119 4 +114 4 -109 4 +104 4 -99 4 +94 4 -89 4 
+86 4 +83 4 +81 4 +74 4 +69 4 +64 4 +59 4 +54 4 +49 4 +44 4 
+41 4 +34 3 -30 3 +25 3 -21 3 +16 3 -12 3 +8 3 -5 3 -3 4 
*
So

0100000
+2 0 *

+1 1 