DBRep_DrawableShape

CASCADE Topology V1, (c) Matra-Datavision
Locations 18
1
              1               0               0               0 
              0               1               0               0 
              0               0               1               0 
1
              1               0               0               0 
              0               1               0               0 
              0               0               1               0 
2  2 -1 0
1
              1               0               0               0 
              0               1               0               0 
              0               0               1               0 
1
              1               0               0               0 
              0               1               0               0 
              0               0               1               0 
1
              1               0               0               0 
              0               1               0               0 
              0               0               1               3 
2  4 1 5 1 6 1 2 1 0
2  6 -1 5 -1 4 -1 0
2  5 -1 4 -1 0
1
              1               0               0              -0 
              0               1               0              -0 
              0               0               1              -2 
2  10 1 2 1 0
2  4 1 5 1 0
2  4 1 5 1 6 1 0
1
              1               0               0               0 
              0               1               0               0 
              0               0               1               0 
1
              1               0               0               0 
              0               1               0               0 
              0               0               1               3 
2  14 1 15 1 0
2  15 -1 14 -1 0
2  10 -1 0
Curve2ds 83
6 0 1 3.1415926535897931 0  3.1415926535897931 17.602680973572767  
1 0 0 0 1 
1 27.500000000000014 -2.9830019192034989 -1 -0 
6 0 1 1.5707963267948966 0  1.5707963267948966 17.602680973572767  
1 0 0 1 0 
7 0 0  9 10 2  3.1415926535897967 14.619679054369268  2.9670597345915652 14.619679054369128  2.7925266659348233 14.619679054369831  2.6179956154933488 14.619679054368069  2.4434568084450743 14.619679054370765  2.2689321719398099 14.619679054368005  2.0943933648912259 14.619679054370007  1.9198623144492137 14.619679054368969  1.7453292457940905 14.619679054369353  1.5707963267949094 14.619679054369268 
 0 10 1 10
1 0 -3 1 0 
8 3.1415926535897931 4.7123889803846897
1 6.2831853071795862 0 -1 0 
8 0 1
7 0 0  1 2 2  0 1.421e-14  1.5533430342749535 0.25499627599589481 
 0 2 1 2
8 0 1
1 1 0 0 1 
1 1.5533430342749535 0 0 1 
1 -16.745003724004167 13.75000000000005 -0 -1 
7 0 0  1 2 2  -1.5198999999999999e-13 27.500000000000039  1.5533430342749535 27.245003724004139 
 0 2 1 2
7 0 0  5 6 2  0 -6.0000000000000001e-17  0 0.19999999999996185  0 0.40003131070743719  0 0.59996868929236946  0 0.80000000000009053  0 1 
 0 6 1 6
1 3.141592653589794 0 0 -1 
1 3.1415926535897793 0 0 -1 
7 0 0  9 10 2  4.7123889803846959 14.619679054369268  4.5378560613864538 14.61967905436912  4.3633229927296915 14.619679054369811  4.1887919422882991 14.619679054368209  4.0142531352401969 14.619679054370488  3.8397284987340132 14.619679054368364  3.6651896916871838 14.619679054369744  3.4906586412433391 14.619679054369087  3.3161255725891712 14.619679054369305  3.1415926535897984 14.619679054369268 
 0 10 1 10
8 1.5707963267948966 3.1415926535897931
1 6.2831853071795862 0 -1 0 
6 0 1 4.7123889803846897 0  4.7123889803846897 17.602680973572767  
1 33.999999999999993 -2.9830019192034989 -1 0 
1 0 1 1 0 
7 0 0  1 2 2  -1.3434000000000001e-13 -2.2149999999999999e-14  1.5533430342749424 0.25499627599587343 
 0 2 1 2
7 0 0  5 6 2  0.99999999999999989 1.1e-16  0.99999999999999478 0.19999999999996521  1.0000000000000078 0.40003131070751735  0.999999999999994 0.59996868929245517  1.0000000000000016 0.80000000000003446  0.99999999999999989 1 
 0 6 1 6
1 4.7123889803846897 0 0 -1 
7 0 0  1 2 2  -1.4744e-13 33.999999999999744  1.5533430342749424 33.745003724004121 
 0 2 1 2
7 0 0  5 6 2  0 0  0 0.19999999999996348  0 0.40003130962061978  0 0.59996869037951839  0 0.79999999999993787  0 1 
 0 6 1 6
1 1.5533430342749532 0 0 1 
1 -17.000000000000043 -13.495003724004084 1 0 
1 16.745003724004071 -13.749999999999964 -0 1 
1 16.999999999999954 13.495003724004155 -1 0 
1 1.5707963267948952 0 0 -1 
1 33.999999999999716 -2.9830019192034989 -1 -0 
6 0 1 4.7123889803846932 0  4.7123889803846932 17.602680973572767  
6 0 1 0 0  0 17.602680973572767  
7 0 0  9 10 2  1.5707963267948966 14.619679054369268  1.3962634077962932 14.619679054369003  1.2217303391410861 14.619679054370321  1.0471992886967838 14.619679054367072  0.87266048165183263 14.619679054372133  0.69813584514369154 14.619679054366674  0.52359703809720348 14.619679054370925  0.34906598765385788 14.619679054368556  0.1745329189992724 14.619679054369445  2.11e-15 14.61967905436927 
 0 10 1 10
8 4.7123889803846897 6.2831853071795862
1 6.2831853071795862 0 -1 0 
7 0 0  1 2 2  -1.4321999999999999e-13 34.000000000000021  1.5533430342749424 33.745003724004114 
 0 2 1 2
7 0 0  5 6 2  0 -6.0000000000000001e-17  0 0.19999999999997134  0 0.40003130962046352  0 0.59996869037955836  0 0.7999999999999603  0 1 
 0 6 1 6
1 4.7123889803846915 0 0 -1 
8 0 1
7 0 0  1 2 2  0 0  1.5533430342749532 0.25499627599588237 
 0 2 1 2
8 0 1
7 0 0  1 2 2  0 0  1.5533430342749535 0.25499627599588059 
 0 2 1 2
1 27.5 -2.9830019192034989 -1 0 
7 0 0  1 2 2  -1.5332e-13 27.500000000000025  1.5533430342749757 27.245003724004118 
 0 2 1 2
7 0 0  5 6 2  0 6.0000000000000001e-17  0 0.19999999999996163  0 0.4000313107074393  0 0.59996868929236513  0 0.80000000000008553  0 1 
 0 6 1 6
1 1.5707963267948979 0 0 -1 
1 2.4132126220764629 0 0 -1 
1 0 0 0 -1 
1 16.418358626854353 0 0 -1 
1 1.5707963267948961 0 0 -1 
8 1.570796326794897 2.4132126220764625
7 0 0  1 2 2  1.5707963267948966 0  3.1415926535897931 0 
 1.570796326794897 2 3.141585514350782 2
1 0.72838003151332986 0 0 -1 
8 0.72838003151332964 1.5707963267948957
7 0 0  1 2 2  0 0  1.5707963267948966 0 
 4.8002454194799999e-06 2 1.5707963267948957 2
1 7.0115653386929164 0 0 -1 
1 16.418358626854356 0 0 -1 
1 5.5548052756662569 0 0 -1 
1 -6.5999999999999998e-16 0 0 -1 
1 5.554805275666256 0 0 -1 
8 4.7123889803846906 5.5548052756662569
1 0 0 1 0 
1 3.8699726851031233 0 0 -1 
8 3.8699726851031864 4.7123889803847829
1 0 0 1 0 
1 3.8699726851031229 0 0 -1 
8 0 1.570796326794893
1 6.2831853071795862 0 -1 0 
1 6.2831853071795862 0 0 -1 
7 0 0  9 10 2  6.2831853071795916 14.61967905436927  6.1086523881810439 14.619679054369133  5.9341193195255579 14.619679054369795  5.7595882690818172 14.619679054368165  5.5850494620360989 14.619679054370559  5.4105248255287952 14.619679054368273  5.2359860184815581 14.619679054369774  5.0614549680387073 14.619679054369096  4.8869218993839967 14.619679054369302  4.7123889803847012 14.619679054369271 
 0 10 1 10
6 0 1 6.2831853071795862 0  6.2831853071795862 17.602680973572767  
7 0 0  1 2 2  1.5707963267948966 0  3.1415926535897931 0 
 1.570796326794897 2 3.141585514350782 2
1 3.1415926535897931 0 0 1 
1 -6.2831853071795862 1 1 0 
1 0 -2 1 0 
1 1.5707963267948966 0 0 1 
7 0 0  1 2 2  0 0  1.5707963267948966 0 
 4.8002454194799999e-06 2 1.5707963267948957 2
1 0 0 -1 0 
6 0 1 6.2831853071795862 0  6.2831853071795862 17.602680973572777  
1 -27.500014400736259 0 0 1 
1 0 17.602680973572777 1 0 
6 0 1 4.7123889803846906 0  4.7123889803846906 17.602680973572777  
6 0 1 4.7123889803847829 0  4.7123889803847829 17.602680973572777  
1 27.500021417717033 0 0 1 
6 0 1 3.1415926535897931 0  3.1415926535897931 17.602680973572777  
7 0 0  1 2 2  0 1  27.500021417717033 1 
 2.141771703279e-05 2 27.500021417717033 2
7 0 0  1 2 2  0 1  -27.500014400736259 1 
 1.440073625858e-05 2 27.500014400736259 2
1 6.2831853071795862 17.602680973572767 -1 0 
1 12.566370614359172 17.602680973572767 -1 0 
Curves 102
6 0 1 -18.000000000000142 -13.749999999999998 3  -17.69279085726351 -13.749999999999998 20.599999999999991  
1 -17.744851419160653 13.750000000000016 17.61745240643728 -0 -1 0 
1 -18.000000000000142 -13.749999999999998 0 0 1 0 
6 0 1 -18 13.750000000000009 3  -17.692790857263514 13.750000000000002 20.599999999999991  
6 0 1 -17.000000000000139 -14.749999999999998 3  -17.000000000000139 -14.442790857263368 20.599999999999991  
7 0 0  7 8 2  -17.74485141916065 -13.749999999999996 17.61745240643728  -17.74485141916065 -13.917144261664912 17.617452406437273  -17.701092225816346 -14.084287739939874 17.617452406437195  -17.613580839328645 -14.237689175227564 17.617452406437661  -17.48768917522963 -14.363580839329435 17.617452406437028  -17.334287739938482 -14.451092225816137 17.617452406437604  -17.167144261665975 -14.494851419160508 17.617452406437287  -17.000000000000142 -14.494851419160508 17.61745240643728 
 0 8 1 8
2 -17.000000000000139 -13.749999999999998 0 0 0 1 1 0 -0 -0 1 0 1
7 0 0  7 8 2  -17.744851419160504 13.750000000000007 17.61745240643728  -17.740978622878977 13.713571960572024 17.83932475680972  -17.679664055376364 13.677143921144005 18.060193473117081  -17.56122771580052 13.640715881716156 18.262220850647825  -17.392878642359712 13.604287842288034 18.427657024365022  -17.18881503544274 13.56785980286009 18.54254946160961  -16.966909871757807 13.53143176343211 18.599999999999913  -16.745003724004263 13.495003724004121 18.599999999999991 
 0 8 1 8
1 -16.745003724004263 13.750000000000016 18.599999999999998 -0 -1 0 
7 0 0  5 6 2  -17.744851419160657 -13.749999999999998 17.617452406437284  -17.739429504366456 -13.699000744800792 17.928073696958631  -17.613711778638788 -13.648001489601675 18.236866989874208  -17.366612669906221 -13.597002234402447 18.479690607743741  -17.055672330859263 -13.546002979203305 18.600000000000019  -16.745003724004267 -13.495003724004119 18.600000000000001 
 0 6 1 6
1 -18.000000000000142 -13.749999999999998 0 0 0 1 
1 -18 13.750000000000016 0 0 0 1 
7 0 0  7 8 2  -16.999999999999858 14.494851419160511 17.61745240643728  -17.167144261664795 14.494851419160511 17.61745240643727  -17.334287739939608 14.451092225816332 17.617452406437192  -17.487689175227729 14.363580839328158 17.617452406437629  -17.613580839329217 14.237689175229935 17.617452406437071  -17.701092225816286 14.084287739937878 17.617452406437543  -17.744851419160504 13.917144261666017 17.617452406437273  -17.744851419160504 13.750000000000007 17.61745240643728 
 0 8 1 8
2 -16.999999999999858 13.750000000000002 0 0 0 1 1 0 -0 -0 1 0 1
6 0 1 -16.999999999999858 14.750000000000002 3  -16.999999999999858 14.442790857263372 20.599999999999991  
6 0 1 16.999999999999854 -14.749999999999998 3  16.999999999999854 -14.442790857263368 20.599999999999991  
1 -17.000000000000139 -14.49485141916051 17.61745240643728 1 0 -0 
1 16.999999999999854 -14.749999999999998 0 -1 0 0 
7 0 0  5 6 2  -17.000000000000142 -14.49485141916051 17.617452406437284  -16.949000744800895 -14.489429504366331 17.928073696958631  -16.898001489601899 -14.363711778638601 18.236866989874208  -16.847002234402524 -14.116612669906102 18.479690607743741  -16.796002979203472 -13.805672330859116 18.600000000000019  -16.745003724004263 -13.495003724004118 18.600000000000001 
 0 6 1 6
1 -17.000000000000139 -14.749999999999998 0 0 0 1 
7 0 0  5 6 2  -16.999999999999858 14.494851419160513 17.617452406437284  -16.949000744800696 14.489429504366335 17.928073696958631  -16.898001489601675 14.363711778638608 18.236866989874208  -16.847002234402463 14.116612669906102 18.479690607743741  -16.796002979203386 13.805672330859121 18.600000000000019  -16.745003724004263 13.495003724004121 18.600000000000001 
 0 6 1 6
1 -17.000000000000139 -13.495003724004118 18.599999999999998 1 0 -0 
1 16.745003724003976 -13.749999999999998 18.599999999999998 -0 1 -0 
1 16.999999999999858 13.495003724004121 18.599999999999998 -1 0 0 
1 -16.999999999999858 14.750000000000002 0 0 0 1 
1 -30.167832092402499 3.494723407616267 0 0.66566160145071762 0.74625373188619037 0 
2 -16.999999999999858 13.750000000000002 0 0 0 1 1 0 -0 -0 1 0 2.9999999999999991
1 -16.999999999999858 16.75 0 1 0 0 
2 16.999999999999854 13.750000000000002 0 0 0 1 1 0 -0 -0 1 0 2.9999999999999991
1 19.238761195658427 15.746984804352154 0 0.66566160145071773 -0.74625373188619037 0 
2 26.250000000000004 0 0 0 0 1 1 0 -0 -0 1 0 5.2499999999999982
1 30.167832092402499 -3.4947234076162661 0 -0.66566160145071762 -0.74625373188619037 0 
2 16.999999999999854 -13.75 0 0 0 1 1 0 -0 -0 1 0 2.9999999999999991
1 -16.999999999999858 -16.75 0 1 0 0 
2 -16.999999999999858 -13.75 0 0 0 1 1 0 -0 -0 1 0 2.9999999999999991
1 -19.238761195658427 -15.746984804352152 0 -0.66566160145071773 0.74625373188619026 0 
2 -26.250000000000004 -0 0 0 0 1 1 0 -0 -0 1 0 5.2499999999999982
1 -16.999999999999858 14.750000000000002 0 1 0 0 
2 16.999999999999854 13.750000000000002 0 0 0 1 1 0 -0 -0 1 0 1
1 17.999999999999854 13.750000000000002 0 0 -1 0 
2 16.999999999999854 -13.749999999999998 0 0 0 1 1 0 -0 -0 1 0 1
2 -26.250000000000004 -0 0 0 0 1 1 0 -0 -0 1 0 2.25
2 26.250000000000004 0 0 0 0 1 1 0 -0 -0 1 0 2.25
1 16.999999999999858 14.494851419160513 17.61745240643728 -1 0 0 
6 0 1 16.999999999999858 14.750000000000002 3  16.999999999999858 14.442790857263372 20.599999999999991  
6 0 1 17.999999999999854 -13.749999999999998 3  17.692790857263226 -13.749999999999998 20.599999999999991  
7 0 0  7 8 2  16.999999999999847 -14.494851419160508 17.61745240643728  17.167144261665126 -14.494851419160508 17.617452406437287  17.334287739938571 -14.45109222581638 17.617452406437014  17.487689175228866 -14.363580839328192 17.617452406437785  17.613580839328272 -14.237689175229827 17.617452406436872  17.701092225816449 -14.084287739938015 17.61745240643771  17.744851419160362 -13.917144261665921 17.617452406437273  17.744851419160362 -13.75 17.61745240643728 
 0 8 1 8
7 0 0  5 6 2  16.999999999999854 -14.49485141916051 17.617452406437284  16.949000744800625 -14.489429504366331 17.928073696958631  16.898001489601601 -14.363711778638601 18.236866989874208  16.847002234402236 -14.116612669906102 18.479690607743741  16.796002979203177 -13.805672330859116 18.600000000000019  16.745003724003976 -13.495003724004118 18.600000000000001 
 0 6 1 6
1 16.999999999999854 -14.749999999999998 0 0 0 1 
7 0 0  8 9 2  16.999999999999858 14.494851419160511 17.617452406437287  16.968125465500371 14.491462722414175 17.811590713013171  16.936250931000902 14.444993491618776 18.004977102394324  16.904376396501366 14.355638801167217 18.18645799734151  16.872501862002007 14.227056737843753 18.344942558931578  16.840627327502318 14.066352247791672 18.47073910159969  16.808752793003016 13.88333953888818 18.556912904560964  16.776878258503455 13.689171603288543 18.59999999999992  16.745003724003976 13.495003724004121 18.600000000000005 
 0 9 1 9
7 0 0  7 8 2  17.744851419160362 -13.75 17.61745240643728  17.740978622878835 -13.713571960572017 17.83932475680972  17.679664055376055 -13.677143921143957 18.060193473117081  17.561227715800424 -13.640715881716185 18.262220850647825  17.392878642359385 -13.604287842287977 18.427657024365022  17.188815035442495 -13.567859802860102 18.54254946160961  16.966909871757519 -13.531431763432103 18.599999999999913  16.745003724003976 -13.495003724004118 18.599999999999991 
 0 8 1 8
1 17.744851419160366 -13.749999999999998 17.61745240643728 -0 1 -0 
7 0 0  5 6 2  17.744851419160366 13.750000000000002 17.617452406437284  17.739429504366196 13.699000744800788 17.928073696958631  17.613711778638429 13.648001489601684 18.236866989874208  17.366612669905987 13.597002234402453 18.479690607743741  17.055672330858961 13.546002979203305 18.600000000000019  16.745003724003976 13.495003724004123 18.600000000000001 
 0 6 1 6
1 16.999999999999858 14.750000000000002 0 0 0 1 
1 -30.167832092402499 3.494723407616267 0 0 0 1 
1 -19.238761195658427 15.746984804352154 0 0 0 1 
1 -16.999999999999858 16.75 0 0 0 1 
1 16.999999999999858 16.75 0 0 0 1 
1 19.238761195658427 15.746984804352154 0 0 0 1 
1 30.167832092402502 3.4947234076162652 0 0 0 1 
1 30.167832092402499 -3.4947234076162648 0 0 0 1 
1 19.238761195658427 -15.746984804352152 0 0 0 1 
1 16.999999999999858 -16.75 0 0 0 1 
1 -16.999999999999858 -16.75 0 0 0 1 
1 -19.238761195658427 -15.746984804352152 0 0 0 1 
1 -30.167832092402502 -3.4947234076162648 0 0 0 1 
1 17.999999999999854 13.750000000000002 0 0 0 1 
1 17.999999999999854 -13.749999999999998 0 0 0 1 
1 -24.000000000000004 -0 0 0 0 1 
1 28.500000000000004 0 0 0 0 1 
7 0 0  7 8 2  17.744851419160362 13.75 17.61745240643728  17.744851419160362 13.917144261665184 17.617452406437273  17.701092225816115 14.084287739939022 17.617452406436847  17.613580839328154 14.237689175228548 17.617452406437817  17.487689175229541 14.363580839328769 17.617452406436797  17.334287739937981 14.451092225816296 17.617452406437685  17.167144261665776 14.494851419160511 17.61745240643728  16.999999999999858 14.494851419160511 17.617452406437287 
 0 8 1 8
6 0 1 17.999999999999854 13.750000000000002 3  17.692790857263226 13.750000000000002 20.599999999999991  
2 -16.999999999999858 13.750000000000002 0 0 0 1 1 0 -0 -0 1 0 2.9999999999999991
1 -20.000000000000139 13.750021417717035 0 0 -1 0 
2 -17.000000000000139 -13.749999999999998 0 0 0 1 1 0 -0 -0 1 0 3.0000000000000013
7 0 0  1 2 2  -19.999999999923403 13.750021417717036 3  -19.69279085726323 13.750000000000002 20.600000000000001 
 0 2 1 2
2 -16.999999999999858 13.750000000000002 20.600000000000001 0 -0 1 1 0 0 -0 1 0 2.6927908572633705
7 0 0  1 2 2  -16.999999999999847 16.749999999999993 2.9999999999999982  -16.999999999999858 16.442790857263372 20.600000000000001 
 0 2 1 2
1 -16.999999999999858 16.442790857263372 20.600000000000001 1 0 0 
7 0 0  1 2 2  16.999999999999858 16.75 3  16.999999999999858 16.442790857263368 20.600000000000001 
 0 2 1 2
2 16.999999999999854 13.750000000000002 0 0 0 1 1 0 -0 -0 1 0 2.9999999999999991
2 16.999999999999854 13.750000000000002 20.600000000000001 0 -0 1 1 0 0 -0 1 0 2.6927908572633705
7 0 0  1 2 2  19.999999999999854 13.75001440073626 3  19.692790857263226 13.750000000000002 20.600000000000001 
 0 2 1 2
2 16.999999999999854 -13.749999999999998 0 0 0 1 1 0 -0 -0 1 0 3.0000000000000009
1 19.999999999999854 13.75001440073626 0 0 -1 0 
6 0 1 19.999999999999854 -13.749999999999998 3  19.692790857263226 -13.749999999999998 20.600000000000001  
2 16.999999999999854 -13.749999999999998 20.600000000000001 0 -0 1 1 0 0 -0 1 0 2.6927908572633705
6 0 1 16.999999999999858 -16.75 3  16.999999999999858 -16.442790857263372 20.600000000000001  
1 -16.999999999999858 -16.442790857263372 20.600000000000001 1 0 0 
6 0 1 -16.999999999999858 -16.75 3  -17.000000000000139 -16.442790857263372 20.600000000000001  
2 -17.000000000000139 -13.749999999999998 20.600000000000001 0 -0 1 1 0 0 -0 1 0 2.6927908572633723
7 0 0  1 2 2  -20.000000000000139 -13.749999999999998 3  -19.69279085726351 -13.749999999999998 20.600000000000001 
 0 2 1 2
1 -19.69279085726351 13.750021417717035 20.600000000000001 0 -1 -0 
1 19.692790857263226 13.75001440073626 20.600000000000001 0 -1 -0 
2 16.999999999999854 -13.749999999999998 20.599999999999991 0 0 1 1 0 -0 -0 1 0 0.69279085726337053
1 17.692790857263226 13.750000000000002 20.599999999999991 0 -1 0 
2 16.999999999999854 13.750000000000002 20.599999999999991 0 0 1 1 0 -0 -0 1 0 0.69279085726337053
1 -16.999999999999858 14.442790857263372 20.599999999999991 1 -0 -0 
2 -16.999999999999858 13.750000000000002 20.599999999999991 0 0 1 1 0 -0 -0 1 0 0.69279085726337053
1 -17.692790857263514 -13.749999999999998 20.599999999999991 -0 1 -0 
2 -17.000000000000139 -13.749999999999998 20.599999999999991 0 0 1 1 0 -0 -0 1 0 0.69279085726337053
1 16.999999999999854 -14.442790857263368 20.599999999999991 -1 0 0 
Polygon3D 0
PolygonOnTriangulations 0
Surfaces 64
1 -17.692790857263514 -13.749999999999998 20.599999999999991 0.99984769515639138 -0 -0.017452406437283449 0 1 0 0.017452406437283449 -0 0.99984769515639138 
10 1.5707963267948966 3.1415926535897931 0 17.602680973572767
3 -17.000000000000139 -13.749999999999998 3 0 0 1 1 0 -0 0 -1 -0 1
-0.017453292519943299
1 -17.692790857263514 -13.749999999999998 20.599999999999991 0.99984769515639138 -0 -0.017452406437283449 0 1 0 0.017452406437283449 -0 0.99984769515639138 
2 -16.745003724004263 13.750000000000016 17.599999999999998 -0 -1 0 -0.99984769515639138 0 0.017452406437283449 0.017452406437283449 -0 0.99984769515639138 1
10 3.1415926535897931 4.7123889803846897 0 17.602680973572767
3 -16.999999999999858 13.750000000000002 3 0 0 1 1 0 -0 0 -1 -0 1
-0.017453292519943299
1 16.999999999999854 -14.442790857263368 20.599999999999991 -0 0.99984769515639138 -0.01745240643728355 -1 0 0 0 0.01745240643728355 0.99984769515639138 
9 0 0 0 0 7 8 8 9 2 2 -17.74485141916065 -13.749999999999996 17.61745240643728  -17.741462722414312 -13.718125465500512 17.811590713013164  -17.694993491619048 -13.686250931000826 18.004977102394424  -17.60563880116727 -13.654376396501773 18.186457997341339  -17.477056737843952 -13.622501862001654 18.344942558931837  -17.31635224779188 -13.590627327502837 18.470739101599516  -17.133339538888254 -13.55875279300292 18.556912904561052  -16.93917160328872 -13.526878258503654 18.599999999999898  -16.745003724004263 -13.495003724004118 18.599999999999998  
-17.74485141916065 -13.917144261664912 17.617452406437273  -17.745032656632194 -13.881747018049914 17.811956226572853  -17.699788663512003 -13.840195412427748 18.013249607618647  -17.604290206334092 -13.792517312569494 18.205348644090812  -17.461852311561525 -13.739235302300109 18.366991718003408  -17.294142359255247 -13.681364373927689 18.48378386193707  -17.114618338056744 -13.620306557147032 18.561347833817905  -16.929287757947314 -13.557655136553171 18.599999999999898  -16.745003724004263 -13.495003724004118 18.599999999999998  
-17.701092225816346 -14.084287739939874 17.617452406437195  -17.708811420675694 -14.056966921234435 17.812275783876277  -17.643296745466877 -14.033741133022076 18.018873013382876  -17.542737819633167 -13.974997599951418 18.218050810871954  -17.397534039655394 -13.895025999437129 18.381777879209551  -17.234752565885778 -13.80205262272367 18.492534569969546  -17.068966553889599 -13.701954334638568 18.564326133778717  -16.889882575101975 -13.610989007870597 18.599999999999909  -16.745003724004263 -13.495003724004118 18.600000000000001  
-17.613580839328645 -14.237689175227564 17.617452406437661  -17.621643222439143 -14.229189555332589 17.812464507417541  -17.571109996007223 -14.19382777909726 18.021726066106854  -17.479594779795086 -14.117452847179134 18.224443244104322  -17.345585303870273 -14.007789553476975 18.389204039686064  -17.19459895804086 -13.882541955952332 18.496930598906705  -17.040908527807748 -13.752304747084271 18.565823553727554  -16.882378200696614 -13.625457726512039 18.599999999999902  -16.745003724004263 -13.495003724004118 18.599999999999994  
-17.48768917522963 -14.363580839329435 17.617452406437028  -17.479189555334418 -14.371643222439802 17.812464507416912  -17.443827779098921 -14.321109996007342 18.021726066106364  -17.367452847180125 -14.22959477979532 18.224443244103949  -17.257789553478268 -14.095585303870196 18.389204039685712  -17.132541955953002 -13.94459895804094 18.496930598906491  -17.002304747084914 -13.790908527807767 18.565823553727384  -16.875457726512323 -13.632378200696365 18.599999999999913  -16.745003724004263 -13.495003724004118 18.599999999999998  
-17.334287739938482 -14.451092225816137 17.617452406437604  -17.306966921233286 -14.458811420675447 17.812275783876686  -17.28374113302193 -14.393296745466539 18.018873013383132  -17.224997599950864 -14.292737819632897 18.218050810872263  -17.145025999437426 -14.147534039655147 18.381777879209643  -17.052052622723302 -13.984752565885502 18.492534569969767  -16.95195433463854 -13.81896655388946 18.564326133778781  -16.860989007870884 -13.639882575101776 18.599999999999913  -16.745003724004263 -13.495003724004121 18.600000000000005  
-17.167144261665975 -14.494851419160508 17.617452406437287  -17.131747018050859 -14.49503265663207 17.811956226572864  -17.090195412429072 -14.449788663512038 18.013249607618555  -17.0425173125697 -14.3542902063338 18.205348644090972  -16.989235302301537 -14.211852311561772 18.366991718003163  -16.931364373927757 -14.044142359254863 18.483783861937237  -16.870306557147625 -13.86461833805676 18.561347833817816  -16.807655136553389 -13.679287757947122 18.59999999999992  -16.745003724004263 -13.495003724004118 18.600000000000005  
-17.000000000000142 -14.494851419160508 17.61745240643728  -16.968125465500655 -14.491462722414171 17.811590713013164  -16.936250931001464 -14.444993491619064 18.004977102394317  -16.904376396501394 -14.355638801166945 18.186457997341503  -16.872501862002643 -14.227056737844205 18.344942558931578  -16.840627327502538 -14.066352247791459 18.47073910159969  -16.808752793003297 -13.883339538888279 18.556912904560964  -16.776878258503757 -13.689171603288525 18.59999999999992  -16.745003724004263 -13.495003724004118 18.600000000000005  

0 8
1 8

0 9
1 9

2 -17.000000000000139 -13.749999999999998 0 -0 -0 -1 1 0 0 -0 1 -0 1
9 0 0 0 0 7 7 8 8 2 2 -16.999999999999858 14.494851419160511 17.61745240643728  -16.963571960571915 14.490978622878984 17.839324756809717  -16.927143921143728 14.429664055376117 18.060193473116826  -16.890715881716417 14.31122771580068 18.262220850648024  -16.854287842287665 14.142878642359351 18.427657024364741  -16.817859802860369 13.938815035442765 18.542549461609731  -16.781431763432153 13.716909871757629 18.599999999999863  -16.745003724004263 13.495003724004121 18.600000000000005  
-17.167144261664795 14.494851419160511 17.61745240643727  -17.12669026896198 14.495058547699413 17.839742486592218  -17.078030308941628 14.434852317488025 18.070886540127244  -17.021210095768772 14.30536305661246 18.286789200547332  -16.957259492042454 14.119373861811656 18.445858470822373  -16.888206812106592 13.917773383277963 18.548265003924492  -16.816605338345891 13.705614048510313 18.599999999999863  -16.745003724004263 13.495003724004121 18.600000000000005  
-17.334287739939608 14.451092225816332 17.617452406437192  -17.303063947133424 14.459914162798423 17.840107694939  -17.272523345619714 14.376693543701194 18.078130880567794  -17.196286105896633 14.241575550396176 18.30327216667034  -17.094108974621843 14.054872989807938 18.458062145920998  -16.981631958469837 13.866570468020852 18.552104272742664  -16.877558334137259 13.660579553829978 18.599999999999881  -16.745003724004263 13.495003724004127 18.600000000000001  
-17.487689175227729 14.363580839328158 17.617452406437629  -17.477975323919193 14.372794991454469 17.84032337898606  -17.431039512306938 14.306649216280325 18.081797157285994  -17.328828128247658 14.182652166587117 18.311553345579942  -17.187578238453163 14.009760855956872 18.464190447369074  -17.040026952025595 13.834812542652056 18.554034933776286  -16.894094012584631 13.652003125938169 18.599999999999881  -16.745003724004263 13.495003724004121 18.599999999999994  
-17.613580839329217 14.237689175229935 17.617452406437071  -17.622794991455372 14.227975323921052 17.840323378985509  -17.556649216280757 14.181039512308322 18.081797157285649  -17.432652166587431 14.078828128248643 18.3115533455796  -17.259760855957147 13.937578238454005 18.464190447368878  -17.084812542652386 13.790026952026018 18.554034933776116  -16.902003125938155 13.644094012584723 18.599999999999891  -16.745003724004263 13.495003724004121 18.599999999999998  
-17.701092225816286 14.084287739937878 17.617452406437543  -17.709914162798338 14.053063947131987 17.840107694939359  -17.626693543701155 14.022523345619229 18.078130880568157  -17.491575550396036 13.946286105896093 18.303272166670457  -17.304872989807986 13.84410897462161 18.458062145921286  -17.116570468020885 13.731631958469311 18.552104272742714  -16.910579553830054 13.627558334137388 18.599999999999898  -16.745003724004263 13.495003724004127 18.599999999999998  
-17.744851419160504 13.917144261666017 17.617452406437273  -17.745058547699436 13.876690268963003 17.839742486592225  -17.684852317488307 13.828030308942662 18.070886540127507  -17.555363056612347 13.771210095769144 18.286789200547133  -17.369373861812015 13.707259492043258 18.445858470822664  -17.167773383277957 13.638206812106636 18.548265003924367  -16.955614048510483 13.566605338345999 18.599999999999913  -16.745003724004263 13.495003724004121 18.599999999999991  
-17.744851419160504 13.750000000000007 17.61745240643728  -17.740978622878977 13.713571960572024 17.83932475680972  -17.679664055376364 13.677143921144005 18.060193473117081  -17.56122771580052 13.640715881716156 18.262220850647825  -17.392878642359712 13.604287842288034 18.427657024365022  -17.18881503544274 13.56785980286009 18.54254946160961  -16.966909871757807 13.53143176343211 18.599999999999913  -16.745003724004263 13.495003724004121 18.599999999999991  

0 8
1 8

0 8
1 8

1 -9.7099999999999998e-14 -3.3360000000000002e-14 20.599999999999998 0 0 1 1 0 -0 -0 1 0 
1 -18.000000000000142 -13.749999999999998 0 -1 0 0 0 1 0 0 0 -1 
2 -16.999999999999858 13.750000000000002 0 -0 -0 -1 1 0 0 -0 1 -0 1
1 -16.999999999999858 14.442790857263372 20.599999999999991 -0 -0.99984769515639138 -0.01745240643728355 1 0 -0 0 -0.01745240643728355 0.99984769515639138 
1 16.999999999999854 -14.442790857263368 20.599999999999991 -0 0.99984769515639138 -0.01745240643728355 -1 0 0 0 0.01745240643728355 0.99984769515639138 
10 0 1.5707963267948966 0 17.602680973572767
3 16.999999999999854 -13.749999999999998 3 0 0 1 1 0 -0 0 -1 -0 1
-0.017453292519943299
2 -17.000000000000139 -13.495003724004118 17.599999999999998 1 0 -0 0 -0.99984769515639138 0.01745240643728355 -0 0.01745240643728355 0.99984769515639138 1
1 16.999999999999854 -14.749999999999998 0 0 -1 0 -1 0 0 -0 -0 -1 
2 16.999999999999858 13.495003724004121 17.599999999999998 -1 0 0 0 0.99984769515639138 0.01745240643728355 -0 -0.01745240643728355 0.99984769515639138 1
2 16.745003724003976 -13.749999999999998 17.599999999999998 -0 1 -0 0.99984769515639138 0 0.017452406437283449 -0.017452406437283449 -0 0.99984769515639138 1
1 -16.999999999999858 14.750000000000002 0 0 1 0 1 0 0 0 0 -1 
1 -4.2500000000000002e-14 -1.197e-14 0 0 0 1 1 0 -0 -0 1 0 
1 -30.167832092402499 3.494723407616267 0 -0.74625373188619037 0.66566160145071762 0 0.66566160145071762 0.74625373188619037 0 0 0 -1 
2 -16.999999999999858 13.750000000000002 0 -0 -0 -1 1 0 0 -0 1 -0 2.9999999999999991
2 16.999999999999854 13.750000000000002 0 -0 -0 -1 1 0 0 -0 1 -0 2.9999999999999991
1 19.238761195658427 15.746984804352154 0 0.74625373188619037 0.66566160145071773 -0 0.66566160145071773 -0.74625373188619037 0 0 -0 -1 
2 26.250000000000004 0 0 -0 -0 -1 1 0 0 -0 1 -0 5.2499999999999982
1 30.167832092402499 -3.4947234076162661 0 0.74625373188619037 -0.66566160145071762 0 -0.66566160145071762 -0.74625373188619037 0 0 -0 -1 
2 16.999999999999854 -13.75 0 -0 -0 -1 1 0 0 -0 1 -0 2.9999999999999991
2 -16.999999999999858 -13.75 0 -0 -0 -1 1 0 0 -0 1 -0 2.9999999999999991
1 -19.238761195658427 -15.746984804352152 0 -0.74625373188619026 -0.66566160145071773 0 -0.66566160145071773 0.74625373188619026 0 -0 0 -1 
2 -26.250000000000004 -0 0 -0 -0 -1 1 0 0 -0 1 -0 5.2499999999999982
2 16.999999999999854 13.750000000000002 0 -0 -0 -1 1 0 0 -0 1 -0 1
2 16.999999999999854 -13.749999999999998 0 -0 -0 -1 1 0 0 -0 1 -0 1
2 -26.250000000000004 -0 0 -0 -0 -1 1 0 0 -0 1 -0 2.25
2 26.250000000000004 0 0 -0 -0 -1 1 0 0 -0 1 -0 2.25
1 -16.999999999999858 14.442790857263372 20.599999999999991 -0 -0.99984769515639138 -0.01745240643728355 1 0 -0 0 -0.01745240643728355 0.99984769515639138 
10 4.7123889803846932 6.2831853071795862 0 17.602680973572767
3 16.999999999999854 13.750000000000002 3 0 0 1 1 0 -0 0 -1 -0 1
-0.017453292519943299
1 17.692790857263226 13.750000000000002 20.599999999999991 -0.99984769515639138 -0 -0.017452406437283449 0 -1 0 -0.017452406437283449 0 0.99984769515639138 
9 0 0 0 0 7 7 8 8 2 2 16.999999999999847 -14.494851419160508 17.61745240643728  16.963571960571866 -14.490978622878981 17.83932475680971  16.927143921143621 -14.429664055376278 18.060193473117224  16.890715881716293 -14.311227715800543 18.262220850647658  16.854287842287473 -14.142878642359516 18.427657024365224  16.817859802860159 -13.938815035442694 18.542549461609514  16.781431763431893 -13.716909871757654 18.599999999999934  16.745003724003976 -13.495003724004118 18.599999999999991  
17.167144261665126 -14.494851419160508 17.617452406437287  17.126690268962221 -14.495058547699422 17.839742486592225  17.078030308941759 -14.4348523174882 18.070886540127649  17.021210095768854 -14.305363056612334 18.28678920054697  16.9572594920424 -14.119373861811834 18.445858470822856  16.888206812106485 -13.917773383277892 18.548265003924275  16.816605338345681 -13.705614048510338 18.599999999999934  16.745003724003976 -13.495003724004118 18.599999999999991  
17.334287739938571 -14.45109222581638 17.617452406437014  17.303063947132497 -14.459914162798427 17.840107694938819  17.272523345619096 -14.376693543701261 18.078130880567954  17.196286105896185 -14.241575550396057 18.303272166669977  17.094108974621331 -14.054872989808032 18.45806214592124  16.981631958469404 -13.866570468020798 18.552104272742465  16.877558334137063 -13.660579553829983 18.59999999999993  16.745003724003979 -13.495003724004118 18.599999999999994  
17.487689175228866 -14.363580839328192 17.617452406437785  17.477975323920145 -14.372794991454541 17.84032337898622  17.431039512307471 -14.306649216280457 18.081797157286353  17.328828128248134 -14.182652166587104 18.311553345579831  17.187578238453352 -14.009760855956989 18.464190447369408  17.040026952025684 -13.834812542652038 18.554034933776219  16.894094012584425 -13.652003125938169 18.599999999999923  16.745003724003976 -13.495003724004118 18.599999999999987  
17.613580839328272 -14.237689175229827 17.617452406436872  17.622794991454526 -14.227975323920937 17.840323378985296  17.556649216280114 -14.18103951230826 18.081797157285671  17.43265216658703 -14.078828128248512 18.311553345579309  17.259760855956642 -13.937578238454002 18.464190447368985  17.084812542651971 -13.790026952025949 18.55403493377597  16.90200312593792 -13.644094012584707 18.59999999999992  16.745003724003976 -13.495003724004121 18.599999999999991  
17.701092225816449 -14.084287739938015 17.61745240643771  17.709914162798476 -14.053063947132109 17.840107694939523  17.626693543701084 -14.022523345619298 18.078130880568402  17.491575550396085 -13.946286105896105 18.30327216667045  17.304872989807823 -13.844108974621662 18.458062145921485  17.116570468020729 -13.731631958469329 18.55210427274271  16.910579553829795 -13.627558334137372 18.59999999999992  16.745003724003972 -13.495003724004121 18.599999999999991  
17.744851419160362 -13.917144261665921 17.617452406437273  17.745058547699294 -13.876690268962923 17.839742486592222  17.684852317487998 -13.828030308942553 18.070886540127503  17.555363056612254 -13.771210095769121 18.286789200547123  17.369373861811695 -13.707259492043168 18.445858470822664  17.167773383277716 -13.638206812106622 18.548265003924367  16.955614048510199 -13.56660533834598 18.599999999999913  16.745003724003976 -13.495003724004118 18.599999999999991  
17.744851419160362 -13.75 17.61745240643728  17.740978622878835 -13.713571960572017 17.83932475680972  17.679664055376055 -13.677143921143957 18.060193473117081  17.561227715800424 -13.640715881716185 18.262220850647825  17.392878642359385 -13.604287842287977 18.427657024365022  17.188815035442495 -13.567859802860102 18.54254946160961  16.966909871757519 -13.531431763432103 18.599999999999913  16.745003724003976 -13.495003724004118 18.599999999999991  

0 8
1 8

0 8
1 8

9 0 0 0 0 7 8 8 9 2 2 17.744851419160362 13.75 17.61745240643728  17.741462722414024 13.718125465500515 17.811590713013164  17.694993491618707 13.686250931000872 18.004977102394424  17.605638801167025 13.654376396501679 18.186457997341339  17.477056737843679 13.622501862001842 18.344942558931837  17.316352247791563 13.59062732750267 18.470739101599516  17.13333953888797 13.55875279300303 18.556912904561052  16.939171603288418 13.526878258503622 18.599999999999898  16.745003724003968 13.495003724004121 18.599999999999998  
17.744851419160362 13.917144261665184 17.617452406437273  17.74503265663191 13.881747018050154 17.811956226572853  17.699788663511669 13.840195412427995 18.013249607618647  17.604290206333857 13.79251731256957 18.205348644090805  17.461852311561252 13.739235302300425 18.366991718003415  17.294142359254938 13.68136437392763 18.483783861937066  17.114618338056459 13.620306557147204 18.561347833817905  16.929287757947012 13.557655136553173 18.599999999999898  16.745003724003968 13.495003724004121 18.599999999999998  
17.701092225816115 14.084287739939022 17.617452406436847  17.708811420675421 14.056966921233673 17.812275783875929  17.643296745466472 14.033741133021575 18.018873013382585  17.542737819632979 13.974997599951104 18.218050810871702  17.397534039655014 13.895025999436863 18.381777879209359  17.234752565885479 13.802052622723389 18.492534569969386  17.068966553889314 13.701954334638437 18.564326133778639  16.88988257510168 13.61098900787063 18.599999999999909  16.745003724003979 13.495003724004123 18.600000000000001  
17.613580839328154 14.237689175228548 17.617452406437817  17.621643222438703 14.229189555333454 17.812464507417701  17.571109996006737 14.193827779097788 18.021726066106957  17.479594779794891 14.117452847179697 18.224443244104403  17.345585303869814 14.007789553477284 18.389204039686135  17.194598958040537 13.882541955952638 18.496930598906744  17.040908527807428 13.752304747084501 18.565823553727601  16.882378200696319 13.625457726512073 18.599999999999902  16.745003724003976 13.495003724004121 18.599999999999994  
17.487689175229541 14.363580839328769 17.617452406436797  17.479189555334276 14.371643222439216 17.812464507416674  17.443827779098552 14.321109996006856 18.021726066106176  17.367452847180061 14.22959477979518 18.224443244103785  17.257789553477846 14.095585303869813 18.389204039685577  17.132541955952782 13.944598958040809 18.496930598906381  17.002304747084661 13.790908527807618 18.565823553727327  16.875457726512032 13.632378200696389 18.599999999999913  16.745003724003976 13.495003724004121 18.599999999999998  
17.334287739937981 14.451092225816296 17.617452406437685  17.30696692123281 14.458811420675579 17.812275783876771  17.283741133021337 14.393296745466451 18.018873013383185  17.224997599950683 14.292737819633144 18.21805081087232  17.145025999436829 14.147534039654948 18.381777879209675  17.052052622723 13.98475256588565 18.492534569969788  16.95195433463822 13.818966553889453 18.564326133778813  16.860989007870593 13.639882575101785 18.599999999999913  16.745003724003965 13.495003724004127 18.600000000000005  
17.167144261665776 14.494851419160511 17.61745240643728  17.13174701805065 14.495032656632077 17.811956226572857  17.090195412428574 14.449788663511759 18.013249607618548  17.042517312569721 14.354290206334078 18.205348644090979  16.989235302300944 14.21185231156133 18.366991718003153  16.931364373927568 14.044142359255073 18.483783861937241  16.870306557147362 13.864618338056662 18.561347833817816  16.807655136553098 13.67928775794714 18.59999999999992  16.745003724003976 13.495003724004121 18.600000000000005  
16.999999999999858 14.494851419160511 17.617452406437287  16.968125465500371 14.491462722414175 17.811590713013171  16.936250931000902 14.444993491618776 18.004977102394324  16.904376396501366 14.355638801167217 18.18645799734151  16.872501862002007 14.227056737843753 18.344942558931578  16.840627327502318 14.066352247791672 18.47073910159969  16.808752793003016 13.88333953888818 18.556912904560964  16.776878258503455 13.689171603288543 18.59999999999992  16.745003724003976 13.495003724004121 18.600000000000005  

0 8
1 8

0 9
1 9

1 17.692790857263226 13.750000000000002 20.599999999999991 -0.99984769515639138 -0 -0.017452406437283449 0 -1 0 -0.017452406437283449 0 0.99984769515639138 
1 -16.999999999999858 16.75 0 0 1 0 1 0 0 0 0 -1 
9 0 0 0 0 8 1 9 2 2 2 -16.999999999999847 16.749999999999993 2.9999999999999982  -16.999999999999858 16.442790857263372 20.600000000000001  
-17.589045945333261 16.749999999999975 2.9999999999999956  -17.528728248426873 16.44279085726324 20.599999999999959  
-18.178092076076478 16.61781883465229 3.0000000000000289  -18.057456663283194 16.324144367585294 20.600000000000129  
-18.732532143234657 16.35345780216338 2.9999999999999454  -18.555122357365864 16.086852553545764 20.59999999999981  
-19.217767445731738 15.967783278960137 3.0000000000000622  -18.990669218715805 15.740669218716889 20.600000000000136  
-19.603445433135757 15.482550729898358 2.999999999999948  -19.336852553546592 15.305122357365374 20.599999999999934  
-19.867810423898209 14.928112550090544 3.0000000000000342  -19.57414436758452 14.807456663283649 20.600000000000019  
-19.999995794583537 14.339067363035474 2.9999999999999876  -19.692790857263294 14.27872824842694 20.600000000000001  
-19.999999999923403 13.750021417717036 3  -19.69279085726323 13.750000000000002 20.600000000000001  

1.5707963267948966 9
3.1415926535897931 9

0 2
1 2

9 0 0 0 0 8 1 9 2 2 2 19.99999999996529 13.750014400736259 3  19.692790857263226 13.75 20.600000000000001  
19.999997172396174 14.339061223185652 3.0000000000000187  19.692790857263329 14.278728248427058 20.600000000000112  
19.867812785826207 14.928107596542247 2.9999999999999436  19.574144367584335 14.807456663283173 20.599999999999611  
19.603448304604335 15.482547117217173 3.0000000000000897  19.3368525535471 15.305122357366342 20.600000000000716  
19.217770335911901 15.967780981780013 2.999999999999921  18.990669218715063 15.74066921871562 20.599999999999209  
18.732534620006511 16.35345662122522 3.0000000000000457  18.555122357366493 16.086852553546866 20.600000000000538  
18.178093830323249 16.617818440999326 2.99999999999998  18.057456663282892 16.324144367584683 20.599999999999781  
17.589046822456066 16.75000000000005 3.0000000000000067  17.528728248426965 16.442790857263422 20.600000000000051  
16.999999999999858 16.75 3  16.999999999999858 16.442790857263368 20.600000000000001  

0 9
1.5707963267948966 9

0 2
1 2

1 -16.999999999999858 -16.75 0 0 1 0 1 0 0 0 0 -1 
10 4.7123889803846906 6.2831853071795862 0 17.602680973572777
3 16.999999999999854 -13.749999999999998 3 0 0 1 1 0 -0 -0 1 0 3.0000000000000009
-0.017453292519943341
10 3.1415926535897931 4.7123889803847829 0 17.602680973572777
3 -17.000000000000139 -13.749999999999998 3 0 0 1 1 0 -0 -0 1 0 3.0000000000000013
-0.017453292519943271
1 17.999999999999854 13.750000000000002 0 1 0 -0 0 -1 0 0 -0 -1 
1 -16.999999999999858 13.750000000000002 3 0 0 1 1 0 -0 -0 1 0 
9 0 0 0 0 1 1 2 2 2 2 -20.000000000000139 13.750021417717035 3  -19.69279085726351 13.750000000000002 20.600000000000001  
-20.000000000000139 -13.749999999999998 3  -19.69279085726351 -13.749999999999998 20.600000000000001  

0 2
27.500021417717033 2

0 2
1 2

1 -16.999999999999858 13.750000000000002 20.600000000000001 0 -0 1 1 0 0 -0 1 0 
2 -16.999999999999858 13.750000000000002 20.600000000000001 0 -0 1 1 0 0 -0 1 0 2.6927908572633705
1 -16.999999999999858 16.442790857263372 20.600000000000001 -0 0.99984769515639127 0.017452406437283439 -1 0 -0 -0 -0.017452406437283439 0.99984769515639127 
1 -16.999999999999858 16.442790857263372 20.600000000000001 -0 0.99984769515639127 0.017452406437283439 -1 0 -0 -0 -0.017452406437283439 0.99984769515639127 
2 16.999999999999854 13.750000000000002 20.600000000000001 0 -0 1 1 0 0 -0 1 0 2.6927908572633705
9 0 0 0 0 1 1 2 2 2 2 19.999999999999854 -13.749999999999998 3  19.692790857263226 -13.749999999999998 20.600000000000001  
19.999999999999854 13.75001440073626 3  19.692790857263226 13.750000000000002 20.600000000000001  

-27.500014400736259 2
0 2

0 2
1 2

2 16.999999999999854 -13.749999999999998 20.600000000000001 0 -0 1 1 0 0 -0 1 0 2.6927908572633705
1 -16.999999999999858 -16.442790857263372 20.600000000000001 0 -0.99984769515639127 0.017452406437283439 1 0 0 -0 0.017452406437283439 0.99984769515639127 
1 -16.999999999999858 -16.442790857263372 20.600000000000001 0 -0.99984769515639127 0.017452406437283439 1 0 0 -0 0.017452406437283439 0.99984769515639127 
2 -17.000000000000139 -13.749999999999998 20.600000000000001 0 -0 1 1 0 0 -0 1 0 2.6927908572633723
1 -19.846395428631823 5.3544292599700004e-06 11.800000000000001 -0.99984769515639127 0 0.017452406437283428 7.3698189178633319e-09 -0.99999999999991085 4.2221664303003725e-07 0.017452406437281874 4.2228095846537528e-07 0.99984769515630212 
1 -16.999999999999858 13.750000000000002 20.600000000000001 0 -0 1 1 0 0 -0 1 0 
1 -17.000000000000139 -13.749999999999998 20.599999999999991 0 0 1 1 0 -0 -0 1 0 
1 19.846395428631538 3.6001840664199999e-06 11.800000000000001 0.99984769515639127 0 0.017452406437283428 4.955283713395222e-09 0.9999999999999597 -2.8388801380994071e-07 -0.017452406437282724 2.8393125791577325e-07 0.99984769515635097 
Triangulations 0

TShapes 306
Ve
3.3038099109e-05
-17.7448514191607 -13.75 17.6174524064373
0 0

0101101
*
Ve
1e-07
-18.0000000000001 -13.75 3
0 0

0101101
*
Ed
 1e-07 1 1 0
1  1 0 0 0.830537068547573
2  1 2 0 0 0.830537068547573
4 G1 2 0 3 0
0

0101000
-306 3 +305 0 *
Ve
1e-07
-17.7448514191605 13.75 17.6174524064373
0 0

0101101
*
Ed
 1e-07 1 1 0
1  2 0 1.4e-14 27.5
2  2 4 0 1.4e-14 27.5
2  3 1 2 1.4e-14 27.5
4 G1 4 0 1 2
0

0101000
+303 0 -306 0 *
Ve
1e-07
-18 13.75 3
0 0

0101101
*
Ed
 1e-07 1 1 0
1  3 0 0 27.5
0

0101000
+305 8 -301 8 *
Ed
 1e-07 1 1 0
1  4 0 0 0.830537068547573
2  1 5 0 0 0.830537068547573
4 G1 3 0 5 0
0

0101000
-303 3 +301 0 *
Wi

0101100
-304 2 +302 0 +300 7 +299 2 *
Fa
0  1e-07 1 0

0111000
+298 3 *
Ve
3.3038099108e-05
-17.0000000000001 -14.4948514191605 17.6174524064373
0 0

0101101
*
Ve
1e-07
-17.0000000000001 -14.75 3
0 0

0101101
*
Ed
 1e-07 1 1 0
1  5 0 0 0.830537068547573
2  4 2 0 0 0.830537068547573
4 G1 6 0 2 0
0

0101000
-296 3 +295 0 *
Ed
 1e-07 1 1 0
1  6 0 0 1
2  5 7 0 0 1
2  6 2 2 0 1
4 G1 7 0 2 2
0

0101000
+306 0 -296 0 *
Ed
 1e-07 1 1 0
1  7 0 3.14159265358979 4.71238898038469
2  5 8 9 3.14159265358979 4.71238898038469
2  7 8 8 3.14159265358979 4.71238898038469
2  8 2 8 3.14159265358979 4.71238898038469
0

0101000
+305 8 -295 8 *
Wi

0101100
-294 2 +293 0 -292 7 +304 2 *
Fa
0  1e-07 2 0

0111000
+291 3 *
Ve
3.3038099113e-05
-16.7450037240043 13.4950037240041 18.6
0 0

0101101
*
Ed
 1e-07 1 1 0
1  8 0 0 1
2  9 4 0 0 1
2  10 9 0 0 1
4 G1 9 0 4 0
0

0101000
+303 0 -289 0 *
Ve
3.3038099109e-05
-16.7450037240043 -13.4950037240041 18.6
0 0

0101101
*
Ed
 1e-07 1 1 0
1  9 0 0.254996275995895 27.2450037240041
2  11 4 0 0.254996275995895 27.2450037240041
2  12 10 11 0.254996275995895 27.2450037240041
4 G1 4 0 10 11
0

0101000
+289 0 -287 0 *
Ed
 3.3038099109e-05 1 1 0
1  10 0 0 1
2  13 4 0 0 1
2  14 7 0 0 1
4 G1 4 0 7 0
0

0101000
+306 0 -287 0 *
Wi

0101100
+288 0 -302 0 +286 0 -285 0 *
Fa
0  0 4 0

0111000
+284 0 *
Ve
1e-07
-18.0000000000001 -13.75 0
0 0

0101101
*
Ed
 1e-07 1 1 0
1  11 0 0 3
2  15 8 0 0 3
4 C1 11 0 8 0
0

0101000
+282 12 -305 0 *
Ve
1e-07
-18 13.75 0
0 0

0101101
*
Ed
 1e-07 1 1 0
1  12 0 0 3
2  16 12 0 0 3
4 C1 11 0 12 0
0

0101000
+280 12 -301 0 *
Ed
 1e-07 1 1 0
1  3 0 0 27.5
0

0101000
+282 0 -280 0 *
Wi

0101100
+281 0 -279 0 -278 12 +300 13 *
Fa
0  1e-07 11 0

0111000
+277 0 *
Ve
3.3038099113e-05
-16.9999999999999 14.4948514191605 17.6174524064373
0 0

0101101
*
Ed
 1e-07 1 1 0
1  13 0 0 1
2  5 9 0 0 1
2  17 5 2 0 1
4 G1 9 0 5 2
0

0101000
+275 0 -303 0 *
Ve
1e-07
-16.9999999999999 14.75 3
0 0

0101101
*
Ed
 1e-07 1 1 0
1  14 0 1.5707963267949 3.14159265358978
2  5 12 9 1.5707963267949 3.14159265358978
2  7 12 8 1.5707963267949 3.14159265358978
2  18 5 8 1.5707963267949 3.14159265358978
0

0101000
+273 8 -301 8 *
Ed
 1e-07 1 1 0
1  15 0 0 0.830537068547573
2  19 5 0 0 0.830537068547573
4 G1 5 0 13 0
0

0101000
-275 3 +273 0 *
Wi

0101100
-299 2 +274 0 -272 7 +271 2 *
Fa
0  1e-07 5 0

0111000
+270 3 *
Ve
3.3038099111e-05
16.9999999999999 -14.4948514191605 17.6174524064373
0 0

0101101
*
Ve
1e-07
16.9999999999999 -14.75 3
0 0

0101101
*
Ed
 1e-07 1 1 0
1  16 0 0 0.830537068547573
2  4 15 0 0 0.830537068547573
4 G1 6 0 15 0
0

0101000
-268 3 +267 0 *
Ed
 1e-07 1 1 0
1  17 0 0 34
2  2 16 0 0 34
2  20 14 2 0 34
4 G1 16 0 14 2
0

0101000
+296 0 -268 0 *
Ed
 1e-07 1 1 0
1  18 0 0 34
0

0101000
+267 8 -295 8 *
Wi

0101100
-266 2 +265 0 +264 7 +294 2 *
Fa
0  1e-07 14 0

0111000
+263 3 *
Ed
 1e-07 1 1 1
2  21 7 0 0 1
0

0101000
+287 0 -287 0 *
Ed
 3.3038099108e-05 1 1 0
1  19 0 0 1
2  22 16 0 0 1
2  23 7 0 0 1
4 G1 16 0 7 0
0

0101000
+296 0 -287 0 *
Wi

0101100
-285 0 +293 0 -261 0 +260 0 *
Fa
0  1e-07 7 0

0111000
+259 0 *
Ve
1e-07
-17.0000000000001 -14.75 0
0 0

0101101
*
Ed
 1e-07 1 1 0
1  20 0 0 3
2  24 8 0 0 3
4 C1 17 0 8 0
0

0101000
+257 12 -295 0 *
Ed
 1e-07 1 1 0
1  7 0 3.14159265358979 4.71238898038469
2  5 8 9 3.14159265358979 4.71238898038469
2  7 8 8 3.14159265358979 4.71238898038469
0

0101000
+282 0 -257 0 *
Wi

0101100
+281 0 -256 0 -255 12 +292 13 *
Fa
0  1e-07 8 0

0111000
+254 0 *
Ed
 3.3038099113e-05 1 1 0
1  21 0 0 1
2  25 18 0 0 1
2  26 9 0 0 1
4 G1 18 0 9 0
0

0101000
+275 0 -289 0 *
Ed
 1e-07 1 1 1
2  21 9 0 0 1
0

0101000
+289 0 -289 0 *
Wi

0101100
-252 0 +274 0 -251 0 +288 0 *
Fa
0  1e-07 9 0

0111000
+250 0 *
Ve
3.3038099111e-05
16.745003724004 -13.4950037240041 18.6
0 0

0101101
*
Ed
 1e-07 1 1 0
1  22 0 0.254996275995875 33.7450037240041
2  27 16 0 0.254996275995875 33.7450037240041
2  28 10 11 0.254996275995875 33.7450037240041
4 G1 16 0 10 11
0

0101000
+287 0 -248 0 *
Ve
3.3038099111e-05
16.745003724004 13.4950037240041 18.6
0 0

0101101
*
Ed
 1e-07 1 1 0
1  23 0 0.254996275995881 27.2450037240041
2  11 19 0 0.254996275995881 27.2450037240041
2  29 10 11 0.254996275995881 27.2450037240041
4 G1 19 0 10 11
0

0101000
+248 0 -246 0 *
Ed
 1e-07 1 1 0
1  24 0 0.254996275995882 33.7450037240041
2  27 18 0 0.254996275995882 33.7450037240041
2  30 10 11 0.254996275995882 33.7450037240041
4 G1 18 0 10 11
0

0101000
+246 0 -289 0 *
Wi

0101100
+247 0 +286 0 +245 0 +244 0 *
Fa
0  1e-07 10 10

0111000
+243 3 *
Ve
1e-07
-16.9999999999999 14.75 0
0 0

0101101
*
Ed
 1e-07 1 1 0
1  25 0 0 3
2  31 12 0 0 3
4 C1 12 0 20 0
0

0101000
+241 12 -273 0 *
Ed
 1e-07 1 1 0
1  14 0 1.5707963267949 3.14159265358978
2  5 12 9 1.5707963267949 3.14159265358978
2  7 12 8 1.5707963267949 3.14159265358978
0

0101000
+241 0 -280 0 *
Wi

0101100
+240 0 -279 0 -239 12 +272 13 *
Fa
0  1e-07 12 0

0111000
+238 0 *
Ve
1e-07
-30.1678320924025 3.49472340761627 0
0 0

0101101
*
Ve
1e-07
-19.2387611956584 15.7469848043522 0
0 0

0101101
*
Ed
 1e-07 1 1 0
1  26 0 0 16.4183586268544
2  5 22 9 0 16.4183586268544
0

0101000
+236 0 -235 0 *
Ve
1e-07
-16.9999999999999 16.75 0
0 0

0101101
*
Ed
 1e-07 1 1 0
1  27 0 1.5707963267949 2.41321262207646
2  5 23 9 1.5707963267949 2.41321262207646
2  7 23 8 1.5707963267949 2.41321262207646
0

0101000
+233 0 -235 0 *
Ve
1e-07
16.9999999999999 16.75 0
0 0

0101101
*
Ed
 1e-07 1 1 0
1  28 0 0 33.9999999999997
0

0101000
+233 0 -231 0 *
Ve
1e-07
19.2387611956584 15.7469848043522 0
0 0

0101101
*
Ed
 1e-07 1 1 0
1  29 0 0.72838003151333 1.5707963267949
2  5 24 9 0.72838003151333 1.5707963267949
2  7 24 8 0.72838003151333 1.5707963267949
0

0101000
+229 0 -231 0 *
Ve
1e-07
30.1678320924025 3.49472340761627 0
0 0

0101101
*
Ed
 1e-07 1 1 0
1  30 0 0 16.4183586268544
2  5 25 9 0 16.4183586268544
0

0101000
+229 0 -227 0 *
Ve
1e-07
30.1678320924025 -3.49472340761627 0
0 0

0101101
*
Ed
 1e-07 1 1 0
1  31 0 5.55480527566626 7.01156533869292
2  5 26 9 5.55480527566626 7.01156533869292
2  7 26 8 5.55480527566626 7.01156533869292
0

0101000
+225 0 -227 0 *
Ve
1e-07
19.2387611956584 -15.7469848043522 0
0 0

0101101
*
Ed
 1e-07 1 1 0
1  32 0 0 16.4183586268544
2  5 27 9 0 16.4183586268544
0

0101000
+225 0 -223 0 *
Ve
1e-07
16.9999999999999 -16.75 0
0 0

0101101
*
Ed
 1e-07 1 1 0
1  33 0 4.71238898038469 5.55480527566626
2  5 28 9 4.71238898038469 5.55480527566626
2  7 28 8 4.71238898038469 5.55480527566626
0

0101000
+221 0 -223 0 *
Ve
1e-07
-16.9999999999999 -16.75 0
0 0

0101101
*
Ed
 1e-07 1 1 0
1  34 0 0 33.9999999999997
0

0101000
+219 0 -221 0 *
Ve
1e-07
-19.2387611956584 -15.7469848043522 0
0 0

0101101
*
Ed
 1e-07 1 1 0
1  35 0 3.86997268510312 4.71238898038469
2  5 29 9 3.86997268510312 4.71238898038469
2  7 29 8 3.86997268510312 4.71238898038469
0

0101000
+217 0 -219 0 *
Ve
1e-07
-30.1678320924025 -3.49472340761627 0
0 0

0101101
*
Ed
 1e-07 1 1 0
1  36 0 0 16.4183586268544
2  5 30 9 0 16.4183586268544
0

0101000
+217 0 -215 0 *
Ed
 1e-07 1 1 0
1  37 0 2.41321262207646 3.86997268510312
2  5 31 9 2.41321262207646 3.86997268510312
2  7 31 8 2.41321262207646 3.86997268510312
0

0101000
+236 0 -215 0 *
Wi

0101100
+234 0 -232 0 +230 0 -228 0 +226 0 -224 0 +222 0 -220 0 -218 0 -216 0 
+214 0 -213 0 *
Ve
1e-07
16.9999999999999 14.75 0
0 0

0101101
*
Ed
 1e-07 1 1 0
1  38 0 0 33.9999999999997
0

0101000
+241 0 -211 0 *
Ve
1e-07
17.9999999999999 13.75 0
0 0

0101101
*
Ed
 1e-07 1 1 0
1  39 0 0 1.5707963267949
2  5 32 9 0 1.5707963267949
2  7 32 8 0 1.5707963267949
0

0101000
+209 0 -211 0 *
Ve
1e-07
17.9999999999999 -13.75 0
0 0

0101101
*
Ed
 1e-07 1 1 0
1  40 0 0 27.5
0

0101000
+209 0 -207 0 *
Ve
1e-07
16.9999999999999 -14.75 0
0 0

0101101
*
Ed
 1e-07 1 1 0
1  41 0 4.71238898038469 6.28318530717959
2  5 33 9 4.71238898038469 6.28318530717959
2  7 33 8 4.71238898038469 6.28318530717959
0

0101000
+205 0 -207 0 *
Ed
 1e-07 1 1 0
1  18 0 0 34
0

0101000
+205 0 -257 0 *
Wi

0101100
+278 0 -239 0 +210 0 -208 0 +206 0 -204 0 +203 0 -255 0 *
Ve
1e-07
-24 -0 0
0 0

0101101
*
Ed
 1e-07 1 1 0
1  42 0 0 6.28318530717959
2  5 34 9 0 6.28318530717959
2  7 34 8 0 6.28318530717959
0

0101100
+201 0 -201 0 *
Wi

0101100
+200 0 *
Ve
1e-07
28.5 0 0
0 0

0101101
*
Ed
 1e-07 1 1 0
1  43 0 0 6.28318530717959
2  5 35 9 0 6.28318530717959
2  7 35 8 0 6.28318530717959
0

0101100
+198 0 -198 0 *
Wi

0101100
+197 0 *
Fa
0  1e-07 21 0

0111000
-212 12 +202 12 -199 12 -196 12 *
Ve
1e-07
16.9999999999999 14.4948514191605 17.6174524064373
0 0

0101101
*
Ed
 1e-07 1 1 0
1  44 0 -0 33.9999999999997
2  2 18 0 -0 33.9999999999997
2  32 36 2 -0 33.9999999999997
4 G1 18 0 36 2
0

0101000
+194 0 -275 0 *
Ve
1e-07
16.9999999999999 14.75 3
0 0

0101101
*
Ed
 1e-07 1 1 0
1  38 0 0 33.9999999999997
0

0101000
+273 8 -192 8 *
Ed
 1e-07 1 1 0
1  45 0 0 0.830537068547573
2  33 37 0 0 0.830537068547573
4 G1 13 0 37 0
0

0101000
-194 3 +192 0 *
Wi

0101100
-271 2 +193 0 +191 7 +190 2 *
Fa
0  1e-07 36 0

0111000
+189 3 *
Ve
1e-07
17.7448514191604 -13.75 17.6174524064373
0 0

0101101
*
Ve
1e-07
17.9999999999999 -13.75 3
0 0

0101101
*
Ed
 1e-07 1 1 0
1  46 0 0 0.830537068547573
2  34 15 0 0 0.830537068547573
4 G1 38 0 15 0
0

0101000
-187 3 +186 0 *
Ed
 1e-07 1 1 0
1  47 0 0 1
2  5 39 0 0 1
2  35 15 2 0 1
4 G1 39 0 15 2
0

0101000
+268 0 -187 0 *
Ed
 1e-07 1 1 0
1  41 0 4.71238898038469 6.28318530717959
2  5 33 9 4.71238898038469 6.28318530717959
2  7 33 8 4.71238898038469 6.28318530717959
2  36 15 8 4.71238898038469 6.28318530717959
0

0101000
+267 8 -186 8 *
Wi

0101100
-185 2 +184 0 -183 7 +266 2 *
Fa
0  1e-07 15 0

0111000
+182 3 *
Ed
 3.3038099111e-05 1 1 0
1  48 0 0 1
2  37 16 0 0 1
2  38 39 0 0 1
4 G1 16 0 39 0
0

0101000
+268 0 -248 0 *
Wi

0101100
+260 0 -265 0 +247 0 -180 0 *
Fa
0  0 16 0

0111000
+179 0 *
Ed
 1e-07 1 1 0
1  49 0 0 3
2  39 33 0 0 3
4 C1 33 0 17 0
0

0101000
+205 12 -267 0 *
Wi

0101100
+177 0 -256 0 -203 12 +264 13 *
Fa
0  1e-07 17 0

0111000
+176 0 *
Ed
 1e-07 1 1 0
1  50 0 0 1
2  40 18 0 0 1
2  10 40 0 0 1
4 G1 40 0 18 0
0

0101000
+194 0 -246 0 *
Wi

0101100
+174 0 -193 0 +244 0 -252 0 *
Fa
0  0 18 0

0111000
+173 0 *
Ed
 1e-07 1 1 0
1  51 0 0 1
2  41 19 0 0 1
2  10 39 0 0 1
4 G1 39 0 19 0
0

0101000
+187 0 -248 0 *
Ve
3.3038099111e-05
17.7448514191604 13.75 17.6174524064373
0 0

0101101
*
Ed
 1e-07 1 1 0
1  52 0 0 27.5
2  2 19 0 0 27.5
2  42 41 2 0 27.5
4 G1 19 0 41 2
0

0101000
+187 0 -170 0 *
Ed
 3.3038099111e-05 1 1 0
1  53 0 0 1
2  43 19 0 0 1
2  44 40 0 0 1
4 G1 19 0 40 0
0

0101000
+170 0 -246 0 *
Wi

0101100
+171 0 -169 0 +245 0 -168 0 *
Fa
0  0 19 0

0111000
+167 0 *
Ed
 1e-07 1 1 0
1  54 0 0 3
2  45 32 0 0 3
4 C1 20 0 32 0
0

0101000
+211 12 -192 0 *
Wi

0101100
+240 0 -165 0 -210 12 +191 13 *
Fa
0  1e-07 20 0

0111000
+164 0 *
Ed
 1e-07 1 1 0
1  55 0 0 3
2  46 31 0 0 3
4 G1 22 0 31 0
2  47 22 0 0 3
0

0101000
+236 12 -236 13 *
Ve
1e-07
-19.2387611956584 15.7469848043522 3
0 0

0101101
*
Ed
 1e-07 1 1 0
1  56 0 0 3
2  46 23 0 0 3
4 G1 22 0 23 0
2  48 22 0 0 3
0

0101000
+235 12 -161 0 *
Ed
 1e-07 1 1 0
1  26 0 0 16.4183586268544
2  7 22 8 0 16.4183586268544
0

0101000
+236 0 -161 8 *
Wi

0101100
+162 0 -160 0 -234 12 +159 13 *
Fa
0  1e-07 22 0

0111000
+158 0 *
Ve
1e-07
-16.9999999999999 16.75 3
0 0

0101101
*
Ed
 1e-07 1 1 0
1  57 0 0 3
2  49 23 0 0 3
4 G1 23 0 42 0
0

0101000
+233 12 -156 0 *
Ed
 1e-07 1 1 0
1  27 0 1.5707963267949 2.41321262207646
2  5 23 9 1.5707963267949 2.41321262207646
2  7 23 8 1.5707963267949 2.41321262207646
2  50 43 8 1.5707963267949 2.41321262207646
0

0101000
+156 8 -161 8 *
Wi

0101100
+155 0 -160 0 -232 12 +154 13 *
Fa
0  1e-07 23 0

0111000
+153 0 *
Ve
1e-07
16.9999999999999 16.75 3
0 0

0101101
*
Ed
 1e-07 1 1 0
1  58 0 0 3
2  49 24 0 0 3
4 G1 42 0 24 0
0

0101000
+231 12 -151 0 *
Ed
 1e-07 1 1 0
1  28 0 0 33.9999999999997
0

0101000
+156 8 -151 8 *
Wi

0101100
+155 0 -150 0 -230 12 +149 13 *
Fa
0  1e-07 42 0

0111000
+148 0 *
Ve
1e-07
19.2387611956584 15.7469848043522 3
0 0

0101101
*
Ed
 1e-07 1 1 0
1  59 0 0 3
2  51 24 0 0 3
4 G1 24 0 25 0
2  47 25 0 0 3
0

0101000
+229 12 -146 0 *
Ed
 1e-07 1 1 0
1  29 0 0.72838003151333 1.5707963267949
2  5 24 9 0.72838003151333 1.5707963267949
2  7 24 8 0.72838003151333 1.5707963267949
2  52 44 8 0.72838003151333 1.5707963267949
0

0101000
+146 8 -151 8 *
Wi

0101100
+145 0 -150 0 -228 12 +144 13 *
Fa
0  1e-07 24 0

0111000
+143 0 *
Ed
 1e-07 1 1 0
1  60 0 0 3
2  53 26 0 0 3
4 G1 25 0 26 0
2  54 25 0 0 3
0

0101000
+227 12 -227 13 *
Ed
 1e-07 1 1 0
1  30 0 0 16.4183586268544
2  7 25 8 0 16.4183586268544
0

0101000
+146 8 -227 0 *
Wi

0101100
+145 0 -141 0 -226 12 +140 13 *
Fa
0  1e-07 25 0

0111000
+139 0 *
Ed
 1.00000002e-07 1 1 0
1  61 0 0 3
2  55 26 0 0 3
4 G1 26 0 27 0
2  56 27 0 0 3
0

0101000
+225 12 -225 13 *
Wi

0101100
+137 0 -141 0 -224 12 +224 13 *
Fa
0  1e-07 26 0

0111000
+136 0 *
Ve
1e-07
19.2387611956584 -15.7469848043522 3
0 0

0101101
*
Ed
 1e-07 1 1 0
1  62 0 0 3
2  57 28 0 0 3
4 G1 27 0 28 0
2  48 27 0 0 3
0

0101000
+223 12 -134 0 *
Ed
 1e-07 1 1 0
1  32 0 0 16.4183586268544
2  7 27 8 0 16.4183586268544
0

0101000
+225 0 -134 8 *
Wi

0101100
+137 0 -133 0 -222 12 +132 13 *
Fa
0  1e-07 27 0

0111000
+131 0 *
Ve
1e-07
16.9999999999999 -16.75 3
0 0

0101101
*
Ed
 1e-07 1 1 0
1  63 0 0 3
2  24 28 0 0 3
4 G1 28 0 45 0
0

0101000
+221 12 -129 0 *
Ed
 1e-07 1 1 0
1  33 0 4.71238898038469 5.55480527566626
2  5 28 9 4.71238898038469 5.55480527566626
2  7 28 8 4.71238898038469 5.55480527566626
2  58 46 8 4.71238898038469 5.55480527566626
0

0101000
+129 8 -134 8 *
Wi

0101100
+128 0 -133 0 -220 12 +127 13 *
Fa
0  1e-07 28 0

0111000
+126 0 *
Ve
1e-07
-16.9999999999999 -16.75 3
0 0

0101101
*
Ed
 1e-07 1 1 0
1  64 0 0 3
2  24 29 0 0 3
4 G1 45 0 29 0
0

0101000
+219 12 -124 0 *
Ed
 1e-07 1 1 0
1  34 0 0 33.9999999999997
0

0101000
+124 8 -129 8 *
Wi

0101100
+123 0 -128 0 -218 12 +122 13 *
Fa
0  1e-07 45 0

0111000
+121 0 *
Ve
1e-07
-19.2387611956584 -15.7469848043522 3
0 0

0101101
*
Ed
 1e-07 1 1 0
1  65 0 0 3
2  59 29 0 0 3
4 G1 29 0 30 0
2  47 30 0 0 3
0

0101000
+217 12 -119 0 *
Ed
 1e-07 1 1 0
1  35 0 3.86997268510312 4.71238898038469
2  5 29 9 3.86997268510312 4.71238898038469
2  7 29 8 3.86997268510312 4.71238898038469
2  60 47 8 3.86997268510312 4.71238898038469
0

0101000
+119 8 -124 8 *
Wi

0101100
+118 0 -123 0 -216 12 +117 13 *
Fa
0  1e-07 29 0

0111000
+116 0 *
Ed
 1e-07 1 1 0
1  66 0 0 3
2  61 31 0 0 3
4 G1 30 0 31 0
2  54 30 0 0 3
0

0101000
+215 12 -215 13 *
Ed
 1e-07 1 1 0
1  36 0 0 16.4183586268544
2  7 30 8 0 16.4183586268544
0

0101000
+119 8 -215 0 *
Wi

0101100
+118 0 -114 0 -214 12 +113 13 *
Fa
0  1e-07 30 0

0111000
+112 0 *
Wi

0101100
+162 0 -114 0 -213 12 +213 13 *
Fa
0  1e-07 31 0

0111000
+110 0 *
Ve
1e-07
17.9999999999999 13.75 3
0 0

0101101
*
Ed
 1e-07 1 1 0
1  67 0 0 3
2  47 32 0 0 3
4 C1 32 0 48 0
0

0101000
+209 12 -108 0 *
Ed
 1e-07 1 1 0
1  39 0 0 1.5707963267949
2  5 32 9 0 1.5707963267949
2  7 32 8 0 1.5707963267949
2  62 37 8 0 1.5707963267949
0

0101000
+108 8 -192 8 *
Wi

0101100
+107 0 -165 0 -208 12 +106 13 *
Fa
0  1e-07 32 0

0111000
+105 0 *
Ed
 1e-07 1 1 0
1  68 0 0 3
2  63 33 0 0 3
4 C1 48 0 33 0
0

0101000
+207 12 -186 0 *
Ed
 1e-07 1 1 0
1  40 0 0 27.5
0

0101000
+108 8 -186 8 *
Wi

0101100
+107 0 -103 0 -206 12 +102 13 *
Fa
0  1e-07 48 0

0111000
+101 0 *
Wi

0101100
+177 0 -103 0 -204 12 +183 13 *
Fa
0  1e-07 33 0

0111000
+99 0 *
Ed
 1e-07 1 1 0
1  69 0 0 3
3  47 63CN 34 0 0 3
0

0101000
+201 12 -201 13 *
Wi

0101100
+97 0 -97 0 -200 12 +200 13 *
Fa
0  1e-07 34 0

0111000
+96 0 *
Ed
 1e-07 1 1 0
1  70 0 0 3
3  47 63CN 35 0 0 3
0

0101000
+198 12 -198 13 *
Wi

0101100
+94 0 -94 0 -197 12 +197 13 *
Fa
0  1e-07 35 0

0111000
+93 0 *
Ed
 1e-07 1 1 0
1  71 0 0 1
2  5 40 0 0 1
2  64 37 2 0 1
4 G1 40 0 37 2
0

0101000
+170 0 -194 0 *
Ed
 1e-07 1 1 0
1  72 0 0 0.830537068547573
2  65 37 0 0 0.830537068547573
4 G1 37 0 38 0
0

0101000
-170 3 +108 0 *
Wi

0101100
-190 2 +91 0 -106 7 +90 2 *
Fa
0  1e-07 37 0

0111000
+89 3 *
Wi

0101100
-90 2 +169 0 +102 7 +185 2 *
Fa
0  1e-07 41 0

0111000
+87 3 *
Ed
 1e-07 1 1 1
2  21 39 0 0 1
0

0101000
+248 0 -248 0 *
Wi

0101100
-180 0 +184 0 -85 0 +171 0 *
Fa
0  1e-07 39 0

0111000
+84 0 *
Ed
 1e-07 1 1 1
2  21 40 0 0 1
0

0101000
+246 0 -246 0 *
Wi

0101100
-168 0 +91 0 -82 0 +174 0 *
Fa
0  1e-07 40 0

0111000
+81 0 *
Ve
1e-07
-19.9999999999618 13.750021417717 3
0 0

0101101
*
Ed
 1e-07 1 1 0
1  73 0 2.41321262207646 3.14158551435078
2  66 43 17 2.41321262207646 3.14158551435078
4 C0 43 17 49 17
0

0101000
+161 17 -79 17 *
Ve
1e-07
-20.0000000000001 -13.75 3
0 0

0101101
*
Ed
 1e-07 1 1 0
1  74 0 0 27.500021417717
2  5 50 17 0 27.500021417717
4 C0 50 17 49 17
0

0101000
+79 17 -77 17 *
Ed
 1e-07 1 1 0
1  75 0 3.14159265358979 3.86997268510319
2  5 47 17 3.14159265358979 3.86997268510319
4 C0 47 17 49 17
0

0101000
+77 17 -119 17 *
Wi

0101100
-159 13 -78 16 -76 16 -75 16 -113 13 +213 13 *
Wi

0101100
-200 13 *
Fa
0  1e-07 21 6

0111000
+74 0 +73 0 *
Ve
1e-07
-19.6927908572632 13.75 20.6
0 0

0101101
*
Ed
 1e-07 1 1 0
1  76 0 0 1
2  67 43 0 0 1
2  2 50 0 0 1
4 C0 43 0 50 0
0

0101000
+79 0 -71 0 *
Ve
1e-07
-16.9999999999999 16.4427908572634 20.6
0 0

0101101
*
Ed
 1e-07 1 1 0
1  77 0 7.85398163397448 9.42477796076938
2  68 43 0 7.85398163397448 9.42477796076938
4 C0 43 0 51 0
2  5 52 0 7.85398163397448 9.42477796076938
2  69 52 18 7.85398163397448 9.42477796076938
0

0101000
+69 0 -71 0 *
Ed
 1e-07 1 1 0
1  78 0 0 1
2  70 43 0 0 1
4 G1 43 0 53 0
0

0101000
+156 0 -69 0 *
Wi

0101100
+154 13 +78 16 +70 0 -68 0 -67 0 *
Fa
0  1e-07 43 0

0111000
+66 0 *
Ve
1e-07
16.9999999999999 16.4427908572634 20.6
0 0

0101101
*
Ed
 1e-07 1 1 0
1  79 0 0 33.9999999999997
4 C0 53 0 51 0
0

0101000
+69 0 -64 0 *
Ed
 1e-07 1 1 0
1  80 0 0 1
2  70 44 0 0 1
4 G1 44 0 53 0
0

0101000
+151 0 -64 0 *
Wi

0101100
-149 13 +67 0 +63 0 -62 0 *
Fa
0  1e-07 54 0

0111000
+61 0 *
Ve
1e-07
19.9999999999826 13.7500144007363 3
0 0

0101101
*
Ed
 1e-07 1 1 0
1  81 0 4.800245419e-06 0.72838003151333
2  71 44 17 4.800245419e-06 0.72838003151333
4 C0 44 17 49 17
0

0101000
+59 17 -146 17 *
Ve
1e-07
19.6927908572632 13.75 20.6
0 0

0101101
*
Ed
 1e-07 1 1 0
1  82 0 6.28318530717959 7.85398163397448
2  68 44 0 6.28318530717959 7.85398163397448
4 C0 44 0 51 0
2  5 55 0 6.28318530717959 7.85398163397448
2  69 55 18 6.28318530717959 7.85398163397448
0

0101000
+57 0 -64 0 *
Ed
 1e-07 1 1 0
1  83 0 0 1
2  2 56 0 0 1
2  2 44 0 0 1
4 C0 56 0 44 0
0

0101000
+59 0 -57 0 *
Wi

0101100
+58 16 +144 13 +62 0 -56 0 -55 0 *
Fa
0  1e-07 44 0

0111000
+54 0 *
Ve
1e-07
19.9999999999999 -13.75 3
0 0

0101101
*
Ed
 1e-07 1 1 0
1  84 0 5.55480527566626 6.28318530717959
2  5 46 17 5.55480527566626 6.28318530717959
4 C0 46 17 49 17
0

0101000
+134 17 -52 17 *
Ed
 1e-07 1 1 0
1  85 0 0 27.5000144007363
2  72 56 17 0 27.5000144007363
4 C0 56 17 49 17
0

0101000
+59 17 -52 17 *
Wi

0101100
-140 13 +224 13 -132 13 -51 16 +50 16 -58 16 *
Wi

0101100
-197 13 *
Fa
0  1e-07 21 6

0111000
+49 0 +48 0 *
Ve
1e-07
19.6927908572632 -13.75 20.6
0 0

0101101
*
Ed
 1e-07 1 1 0
1  86 0 0 1
2  73 46 0 0 1
2  74 56 0 0 1
4 G1 46 0 56 0
0

0101000
+52 0 -46 0 *
Ve
1e-07
16.9999999999999 -16.4427908572634 20.6
0 0

0101101
*
Ed
 1e-07 1 1 0
1  87 0 4.71238898038469 6.28318530717959
2  75 46 0 4.71238898038469 6.28318530717959
4 C0 46 0 51 0
2  5 57 0 4.71238898038469 6.28318530717959
2  69 57 18 4.71238898038469 6.28318530717959
0

0101000
+44 0 -46 0 *
Ed
 1e-07 1 1 0
1  88 0 0 1
2  76 46 0 0 1
4 G1 58 0 46 0
0

0101000
+129 0 -44 0 *
Wi

0101100
+127 13 +51 16 +45 0 -43 0 -42 0 *
Fa
0  1e-07 46 0

0111000
+41 0 *
Ve
1e-07
-17.0000000000001 -16.4427908572634 20.6
0 0

0101101
*
Ed
 1e-07 1 1 0
1  89 0 -2.81e-13 33.9999999999997
4 C0 58 0 51 0
0

0101000
+39 0 -44 0 *
Ed
 1e-07 1 1 0
1  90 0 0 1
2  77 47 0 0 1
4 G1 47 0 58 0
0

0101000
+124 0 -39 0 *
Wi

0101100
+122 13 +42 0 -38 0 -37 0 *
Fa
0  1e-07 59 0

0111000
+36 0 *
Ve
1e-07
-19.6927908572635 -13.75 20.6
0 0

0101101
*
Ed
 1e-07 1 1 0
1  91 0 3.14159265358979 4.71238898038469
2  75 47 0 3.14159265358979 4.71238898038469
4 C0 47 0 51 0
2  5 60 0 3.14159265358979 4.71238898038469
2  69 60 18 3.14159265358979 4.71238898038469
0

0101000
+34 0 -39 0 *
Ed
 1e-07 1 1 0
1  92 0 0 1
2  78 50 0 0 1
2  79 47 0 0 1
4 G1 50 0 47 0
0

0101000
+77 0 -34 0 *
Wi

0101100
+75 16 +117 13 +37 0 -33 0 -32 0 *
Fa
0  1e-07 47 0

0111000
+31 0 *
Ed
 1e-07 1 1 0
1  93 0 2.1417717033e-05 27.500021417717
2  80 50 0 2.1417717033e-05 27.500021417717
4 C0 50 0 51 0
0

0101000
+71 0 -34 0 *
Wi

0101100
+76 16 +32 0 -29 0 -70 0 *
Fa
0  1e-07 61 0

0111000
+28 0 *
Ed
 1e-07 1 1 0
1  94 0 1.4400736259e-05 27.5000144007363
2  81 56 0 1.4400736259e-05 27.5000144007363
4 C0 56 0 51 0
0

0101000
+57 0 -46 0 *
Wi

0101100
+68 0 -63 0 +29 0 +56 0 +33 0 -26 0 +38 0 +43 0 *
Ve
1e-07
16.9999999999999 -14.4427908572634 20.6
0 0

0101101
*
Ve
1e-07
17.6927908572632 -13.75 20.6
0 0

0101101
*
Ed
 1e-07 1 1 0
1  95 0 4.71238898038469 6.28318530717959
2  82 15 0 4.71238898038469 6.28318530717959
4 C0 15 0 63 0
0

0101000
+24 0 -23 0 *
Ve
1e-07
17.6927908572632 13.75 20.6
0 0

0101101
*
Ed
 1e-07 1 1 0
1  96 0 -0 27.5
4 C0 38 0 63 0
0

0101000
+21 0 -23 0 *
Ve
1e-07
16.9999999999999 14.4427908572634 20.6
0 0

0101101
*
Ed
 1e-07 1 1 0
1  97 0 6.28318530717959 7.85398163397448
2  83 37 0 6.28318530717959 7.85398163397448
4 C0 37 0 63 0
0

0101000
+21 0 -19 0 *
Ve
1e-07
-16.9999999999999 14.4427908572634 20.6
0 0

0101101
*
Ed
 1e-07 1 1 0
1  98 0 0 33.9999999999997
4 C0 13 0 63 0
0

0101000
+17 0 -19 0 *
Ve
1e-07
-17.6927908572635 13.75 20.6
0 0

0101101
*
Ed
 1e-07 1 1 0
1  99 0 7.85398163397448 9.42477796076938
2  83 5 0 7.85398163397448 9.42477796076938
4 C0 5 0 63 0
0

0101000
+17 0 -15 0 *
Ve
1e-07
-17.6927908572635 -13.75 20.6
0 0

0101101
*
Ed
 1e-07 1 1 0
1  100 0 -0 27.5
4 C0 3 0 63 0
0

0101000
+13 0 -15 0 *
Ve
1e-07
-17.0000000000001 -14.4427908572634 20.6
0 0

0101101
*
Ed
 1e-07 1 1 0
1  101 0 3.14159265358979 4.71238898038469
2  82 2 0 3.14159265358979 4.71238898038469
4 C0 2 0 63 0
0

0101000
+13 0 -11 0 *
Ed
 1e-07 1 1 0
1  102 0 0 34
4 C0 6 0 63 0
0

0101000
+24 0 -11 0 *
Wi

0101100
-22 0 +20 0 -18 0 +16 0 -14 0 +12 0 -10 0 +9 0 *
Fa
0  1e-07 62 0

0111000
+25 0 +8 0 *
Wi

0101100
-50 16 +55 0 +26 0 -45 0 *
Fa
0  1e-07 64 0

0111000
+6 0 *
Wi

0101100
-9 0 +10 0 -12 0 +14 0 -16 0 +18 0 -20 0 +22 0 *
Fa
0  1e-07 10 0

0111000
+4 0 *
Sh

0101100
+297 2 +290 2 +283 0 -276 2 +269 2 +262 2 -258 0 +253 2 -249 0 -242 2 
+237 2 -195 2 +188 2 +181 2 +178 0 -175 2 +172 0 +166 0 -163 2 +157 2 
-152 2 +147 2 -142 2 +138 2 -135 2 +130 2 -125 2 -120 2 -115 2 +111 2 
-109 2 +104 2 -100 2 +98 2 +95 2 +92 2 +88 2 +86 2 -83 0 -80 0 
+72 2 +65 2 +60 2 +53 2 +47 2 +40 2 +35 2 +30 2 +27 2 +7 2 
+5 2 +3 2 *
So

0100000
+2 0 *

+1 1 