DBRep_DrawableShape

CASCADE Topology V1, (c) Matra-Datavision
Locations 2
1
              1               0               0               0 
              0               1               0               0 
              0               0               1              -5 
1
              1               0               0               0 
              0               1               0 -0.347296355333861 
              0               0               1 1.96961550602442 
Curve2ds 0
Curves 28
1 0 0 0 0 0 -1 
1 5 8.6602540378443855 0 0 0 -1 
1 0 0 0 0.5 0.8660254037844386 0 
1 10 8.6602540378443855 0 0 0 -1 
1 5 8.6602540378443855 0 1 0 0 
1 10 -10 0 0 0 -1 
1 10 8.6602540378443855 0 0 -1 0 
1 -10 -10 0 0 0 -1 
1 10 -10 0 -1 0 0 
1 -10 8.6602540378443855 0 0 0 -1 
1 -10 -10 0 0 1 0 
1 -5 8.6602540378443855 0 0 0 -1 
1 -10 8.6602540378443855 0 1 0 0 
1 -5 8.6602540378443855 0 0.5 -0.8660254037844386 0 
1 0 0 0 0 -0.17364817766693036 0.98480775301220813 
1 2 3.4641016151377544 0.61081634193436429 0 -0.17364817766693036 0.98480775301220813 
1 0 0 0 0.49427037789465356 0.85610140718980887 0.15095421207606408 
1 4 3.4641016151377544 0.61081634193436429 0 -0.17364817766693036 0.98480775301220813 
1 2 3.4641016151377544 0.61081634193436429 1 0 0 
1 4 -4 -0.70530615956405285 0 -0.17364817766693036 0.98480775301220813 
1 4 3.4641016151377544 0.61081634193436429 0 -0.98480775301220802 -0.17364817766693033 
1 -4 -4 -0.70530615956405285 0 -0.17364817766693036 0.98480775301220813 
1 4 -4 -0.70530615956405285 -1 0 0 
1 -4 3.4641016151377544 0.61081634193436429 0 -0.17364817766693036 0.98480775301220813 
1 -4 -4 -0.70530615956405285 0 0.98480775301220802 0.17364817766693033 
1 -2 3.4641016151377544 0.61081634193436429 0 -0.17364817766693036 0.98480775301220813 
1 -4 3.4641016151377544 0.61081634193436429 1 0 0 
1 -2 3.4641016151377544 0.61081634193436429 0.49427037789465356 -0.85610140718980887 -0.15095421207606408 
Polygon3D 0
PolygonOnTriangulations 0
Surfaces 16
1 0 0 0 0.86602540378443871 -0.50000000000000011 0 0.50000000000000011 0.86602540378443871 0 -0 0 1 
1 5 8.6602540378443855 0 0 -1 0 1 0 0 -0 0 1 
1 10 8.6602540378443855 0 -1 -0 -0 0 -1 0 -0 0 1 
1 10 -10 0 0 1 0 -1 0 0 0 -0 1 
1 -10 -10 0 1 -0 0 0 1 0 -0 0 1 
1 -10 8.6602540378443855 0 0 -1 0 1 0 0 -0 0 1 
1 -5 8.6602540378443855 0 -0.86602540378443871 -0.50000000000000011 -0 0.50000000000000011 -0.86602540378443871 0 -0 0 1 
1 0 -0.59315870217127975 0 -0 -0 -1 -1 0 0 0 1 -0 
1 0 0 0 -0.86930822700342114 0.4867613002349736 0.085829150396159515 0.49427037789465356 0.85610140718980887 0.15095421207606413 2.1211403303245113e-07 0.17364854505922855 -0.98480768823094 
1 2 3.4641016151377544 0.61081634193436429 -0 0.98480775301220813 0.17364817766693036 1 0 0 0 0.17364817766693036 -0.98480775301220813 
1 4 3.4641016151377544 0.61081634193436429 1 0 0 0 -0.98480775301220813 -0.17364817766693036 0 0.17364817766693036 -0.98480775301220813 
1 4 -4 -0.70530615956405285 -0 -0.98480775301220813 -0.17364817766693036 -1 0 0 0 0.17364817766693036 -0.98480775301220813 
1 -4 -4 -0.70530615956405285 -1 0 0 0 0.98480775301220813 0.17364817766693036 0 0.17364817766693036 -0.98480775301220813 
1 -4 3.4641016151377544 0.61081634193436429 -0 0.98480775301220813 0.17364817766693036 1 0 0 0 0.17364817766693036 -0.98480775301220813 
1 -2 3.4641016151377544 0.61081634193436429 0.86930822700342114 0.4867613002349736 0.085829150396159515 0.49427037789465356 -0.85610140718980887 -0.15095421207606413 -2.1211403303245113e-07 0.17364854505922855 -0.98480768823094 
1 0 -1.0000000000000001e-05 0 0 -0.17364817766693036 0.98480775301220813 0 0.98480775301220813 0.17364817766693036 -1 0 0 
Triangulations 0

TShapes 78
Ve
1.9364817766693e-06
0 0 0
0 0

0101101
*
Ed
 1e-07 1 1 0
1  1 0 0 5
0

0101000
+78 0 -78 1 *
Ve
1e-07
5 8.66025403784439 0
0 0

0101101
*
Ed
 1e-07 1 1 0
1  2 0 0 5
0

0101000
+76 0 -76 1 *
Ed
 1e-07 1 1 0
1  3 0 0 10
0

0101000
+78 0 -76 0 *
Wi

0101100
+77 0 -75 0 -74 0 +74 1 *
Fa
0  1e-07 1 0

0101000
+73 0 *
Ve
1e-07
10 8.66025403784439 0
0 0

0101101
*
Ed
 1e-07 1 1 0
1  4 0 0 5
0

0101000
+71 0 -71 1 *
Ed
 1e-07 1 1 0
1  5 0 0 5
0

0101000
+76 0 -71 0 *
Wi

0101100
+75 0 -70 0 -69 0 +69 1 *
Fa
0  1e-07 2 0

0101000
+68 0 *
Ve
1e-07
10 -10 0
0 0

0101101
*
Ed
 1e-07 1 1 0
1  6 0 0 5
0

0101000
+66 0 -66 1 *
Ed
 1e-07 1 1 0
1  7 0 0 18.6602540378444
0

0101000
+71 0 -66 0 *
Wi

0101100
+70 0 -65 0 -64 0 +64 1 *
Fa
0  1e-07 3 0

0101000
+63 0 *
Ve
1e-07
-10 -10 0
0 0

0101101
*
Ed
 1e-07 1 1 0
1  8 0 0 5
0

0101000
+61 0 -61 1 *
Ed
 1e-07 1 1 0
1  9 0 0 20
0

0101000
+66 0 -61 0 *
Wi

0101100
+65 0 -60 0 -59 0 +59 1 *
Fa
0  1e-07 4 0

0101000
+58 0 *
Ve
1e-07
-10 8.66025403784439 0
0 0

0101101
*
Ed
 1e-07 1 1 0
1  10 0 0 5
0

0101000
+56 0 -56 1 *
Ed
 1e-07 1 1 0
1  11 0 0 18.6602540378444
0

0101000
+61 0 -56 0 *
Wi

0101100
+60 0 -55 0 -54 0 +54 1 *
Fa
0  1e-07 5 0

0101000
+53 0 *
Ve
1e-07
-5 8.66025403784439 0
0 0

0101101
*
Ed
 1e-07 1 1 0
1  12 0 0 5
0

0101000
+51 0 -51 1 *
Ed
 1e-07 1 1 0
1  13 0 0 5
0

0101000
+56 0 -51 0 *
Wi

0101100
+55 0 -50 0 -49 0 +49 1 *
Fa
0  1e-07 6 0

0101000
+48 0 *
Ed
 1e-07 1 1 0
1  14 0 0 10
0

0101000
+51 0 -78 0 *
Wi

0101100
+50 0 -77 0 -46 0 +46 1 *
Fa
0  1e-07 7 0

0101000
+45 0 *
Wi

0101100
+74 0 +69 0 +64 0 +59 0 +54 0 +49 0 +46 0 *
Fa
0  1e-07 8 0

0101000
+43 0 *
Sh

0101100
+72 0 +67 0 +62 0 +57 0 +52 0 +47 0 +44 0 +42 0 -42 1 *
So

0100000
-41 0 *
Ed
 1.9364817766693e-06 1 1 0
1  15 0 0 2
0

0101000
+78 0 -78 2 *
Ve
1e-07
2 3.46410161513775 0.610816341934364
0 0

0101101
*
Ed
 1e-07 1 1 0
1  16 0 0 2
0

0101000
+38 0 -38 2 *
Ed
 1.9364817766693e-06 1 1 0
1  17 0 0 4.04636832277711
0

0101000
+78 0 -38 0 *
Wi

0101100
+39 0 -37 0 -36 0 +36 2 *
Fa
0  1.9364817766693e-06 9 0

0101000
+35 0 *
Ve
1e-07
4 3.46410161513775 0.610816341934364
0 0

0101101
*
Ed
 1e-07 1 1 0
1  18 0 0 2
0

0101000
+33 0 -33 2 *
Ed
 1e-07 1 1 0
1  19 0 0 2
0

0101000
+38 0 -33 0 *
Wi

0101100
+37 0 -32 0 -31 0 +31 2 *
Fa
0  1e-07 10 0

0101000
+30 0 *
Ve
1e-07
4 -4 -0.705306159564053
0 0

0101101
*
Ed
 1e-07 1 1 0
1  20 0 0 2
0

0101000
+28 0 -28 2 *
Ed
 1e-07 1 1 0
1  21 0 0 7.57924741383025
0

0101000
+33 0 -28 0 *
Wi

0101100
+32 0 -27 0 -26 0 +26 2 *
Fa
0  1e-07 11 0

0101000
+25 0 *
Ve
1e-07
-4 -4 -0.705306159564053
0 0

0101101
*
Ed
 1e-07 1 1 0
1  22 0 0 2
0

0101000
+23 0 -23 2 *
Ed
 1e-07 1 1 0
1  23 0 0 8
0

0101000
+28 0 -23 0 *
Wi

0101100
+27 0 -22 0 -21 0 +21 2 *
Fa
0  1e-07 12 0

0101000
+20 0 *
Ve
1e-07
-4 3.46410161513775 0.610816341934364
0 0

0101101
*
Ed
 1e-07 1 1 0
1  24 0 0 2
0

0101000
+18 0 -18 2 *
Ed
 1e-07 1 1 0
1  25 0 0 7.57924741383025
0

0101000
+23 0 -18 0 *
Wi

0101100
+22 0 -17 0 -16 0 +16 2 *
Fa
0  1e-07 13 0

0101000
+15 0 *
Ve
1e-07
-2 3.46410161513775 0.610816341934364
0 0

0101101
*
Ed
 1e-07 1 1 0
1  26 0 0 2
0

0101000
+13 0 -13 2 *
Ed
 1e-07 1 1 0
1  27 0 0 2
0

0101000
+18 0 -13 0 *
Wi

0101100
+17 0 -12 0 -11 0 +11 2 *
Fa
0  1e-07 14 0

0101000
+10 0 *
Ed
 1.9364817766693e-06 1 1 0
1  28 0 0 4.04636832277711
0

0101000
+13 0 -78 0 *
Wi

0101100
+12 0 -39 0 -8 0 +8 2 *
Fa
0  1.9364817766693e-06 15 0

0101000
+7 0 *
Wi

0101100
+36 0 +31 0 +26 0 +21 0 +16 0 +11 0 +8 0 *
Fa
0  1e-07 16 0

0101000
-5 0 *
Sh

0101100
-34 0 -29 0 -24 0 -19 0 -14 0 -9 0 -6 0 +4 0 -4 2 *
So

0100000
-3 0 *
Co

1100000
+40 0 +2 0 *

+1 0 