DBRep_DrawableShape

CASCADE Topology V1, (c) Matra-Datavision
Locations 14
1
              1               0               0               0 
              0               1               0               0 
              0               0               1               0 
1
              1               0               0               0 
              0               1               0               0 
              0               0               1               0 
2  1 1 2 1 0
1
              1               0               0              -0 
              0               1               0              -0 
              0               0               1             -10 
2  1 1 2 1 4 1 0
2  2 -1 1 -1 0
2  4 -1 2 -1 1 -1 0
1
              1               0               0               0 
              0               1               0               0 
              0               0               1               0 
1
              1               0               0               0 
              0               1               0               0 
              0               0               1               0 
2  8 1 9 1 0
2  9 -1 8 -1 0
1
              1               0               0               0 
              0               1               0               0 
              0               0               1              10 
2  12 -1 9 -1 8 -1 0
2  8 1 9 1 12 1 0
Curve2ds 26
1 6.6923072475559762 0 0 -1 
1 4.8377168115527631 0 0 -1 
1 4.8377168115527658 0 0 -1 
1 0 0 -1 0 
1 0 0 1 0 
1 0 -10 1 0 
1 2.7324707132134134 0 0 -1 
7 0 0  1 2 2  4.5449409011650008 0  4.8798370596043794 0 
 4.5870611492166322 2 4.8377168115527631 2
7 0 0  1 2 2  1.7382444060145854 0  1.4033482475752068 0 
 4.5870611492166322 2 4.8377168115527631 2
1 0 1 1 0 
1 4.5870611492166331 0 0 -1 
1 4.5870611492166322 0 0 -1 
1 2.837354747445858 0 0 -1 
1 4.5449409011650008 0 0 -1 
1 10 1 -1 0 
1 4.8798370596043794 0 0 -1 
1 -10 1 1 0 
1 6.2831853071795862 1 -1 0 
1 6.5874232133235218 0 0 -1 
1 10 0 0 1 
1 4.5449409011650008 0 0 1 
1 0 0 0 1 
1 1.7382444060145854 0 0 1 
1 4.8798370596043794 0 0 1 
1 -10 0 0 1 
1 1.4033482475752068 0 0 1 
Curves 24
1 11.934116629853191 -27.524114159498076 0 -0 -0 -1 
1 0 0 0 -0 -0 -1 
1 0 0 0 -0.39780388766177188 0.91747047198325704 -0 
1 5.0000000000002807 -39.68626966596883 0 -0 -0 -1 
2 3.906250000000226 -31.00489817653871 0 0 0 1 1 0 -0 -0 1 0 8.7499999999994476
1 -11.934116629853193 -27.524114159497852 0 -0 -0 -1 
1 0 0 0 -0.39780388766177194 -0.91747047198325704 0 
2 0 0 0 0 0 1 1 0 -0 -0 1 0 40
2 -3.9062499999998117 -31.004898176538344 0 0 0 1 1 0 -0 -0 1 0 8.7499999999998632
1 0 0 0 -0.29956616717425921 -0.95407552713845667 0 
2 -4.4000000000000004 -26.030751045638315 0 0 0 1 1 0 -0 -0 1 0 3.6000000000000001
2 0 0 0 0 0 1 1 0 -0 -0 1 0 30
2 4.3999999999999986 -26.030751045638315 0 0 0 1 1 0 -0 -0 1 0 3.6000000000000001
1 0 0 0 -0.29956616717425916 0.95407552713845667 -0 
1 -4.999999999999706 -39.686269665968901 0 -0 -0 -1 
1 0 0 0 0 0 1 
1 -7.8346718976984437 -24.952312843810979 0 0 0 1 
1 -4.9999999999999956 -29.580398915498083 0 0 0 1 
1 5.0000000000000027 -29.58039891549808 0 0 0 1 
1 7.8346718976984429 -24.952312843810979 0 0 0 1 
7 0 0  1 2 2  -4.999999999999706 -39.686269665968901 -10  -4.9999999999999956 -29.580398915498083 0 
 0 2 1 2
7 0 0  1 2 2  -4.999999999999706 -39.686269665968901 0  -4.9999999999999956 -29.580398915498083 10 
 0 2 1 2
7 0 0  1 2 2  5.0000000000003118 -39.68626966596883 -10  5.0000000000000071 -29.580398915498076 0 
 0 2 1 2
7 0 0  1 2 2  5.0000000000002807 -39.68626966596883 0  5.0000000000000027 -29.58039891549808 10 
 0 2 1 2
Polygon3D 0
PolygonOnTriangulations 0
Surfaces 18
1 11.934116629853191 -27.524114159497792 0 0.91747047198325704 0.39780388766177188 -0 -0.39780388766177188 0.91747047198325704 0 0 0 1 
2 3.906250000000226 -31.00489817653871 0 0 0 1 1 0 0 0 1 0 8.7499999999994476
2 0 0 0 0 0 1 1 0 0 0 1 0 40
9 0 0 0 0 1 1 2 2 2 2 5.0000000000002807 -39.68626966596883 -10  5.0000000000000027 -29.58039891549808 0  
5.0000000000002807 -39.68626966596883 0  5.0000000000000027 -29.58039891549808 10  

-10 2
0 2

0 2
1 2

1 0 0 0 -0.91747047198325704 0.39780388766177194 0 -0.39780388766177194 -0.91747047198325704 0 0 0 1 
2 -3.9062499999998117 -31.004898176538344 0 0 0 1 1 0 0 0 1 0 8.7499999999998632
1 -2.5992670202572693e-14 -22.863862578323907 0 0 0 1 1 0 -0 -0 1 0 
9 0 0 0 0 6 1 7 2 2 2 -4.9999999999996909 -39.686269665968894 -10  -4.9999999999999893 -29.580398915498076 0  
-3.3420686318707342 -39.895149384582346 -10  -3.3489396730158876 -29.859479047531085 0  
-1.673665890058704 -40.020915334739051 -10  -1.6791867912140581 -30.027972427089964 0  
3.1212069965628569e-13 -40.062910337956104 -10.000000000000002  9.5923269327613904e-14 -30.084314039273899 0  
1.6736658900593289 -40.02091533473908 -10  1.6791867912139138 -30.027972427090088 0  
3.3420686318713586 -39.895149384582282 -10.000000000000002  3.3489396730158925 -29.859479047531014 0  
5.0000000000003118 -39.68626966596883 -10  5.0000000000000071 -29.580398915498076 0  

4.5449409011650008 7
4.8798370596043794 7

0 2
1 2

9 0 0 0 0 6 1 7 2 2 2 5.0000000000003206 -39.686269665968815 0  5.0000000000000151 -29.580398915498076 10  
3.3420686318713653 -39.895149384582233 0  3.3489396730159049 -29.859479047530971 10.000000000000014  
1.6736658900593027 -40.020915334739101 0  1.6791867912139946 -30.027972427090205 9.9999999999999591  
3.2359300424407894e-13 -40.062910337956112 0  2.7089441800853873e-14 -30.084314039273625 10.000000000000036  
-1.6736658900586585 -40.020915334739037 0  -1.6791867912139786 -30.027972427090262 9.9999999999999734  
-3.3420686318707258 -39.895149384582353 0  -3.3489396730158774 -29.859479047530957 10.000000000000011  
-4.9999999999996811 -39.686269665968901 0  -4.9999999999999849 -29.580398915498083 10  

1.4033482475752068 7
1.7382444060145854 7

0 2
1 2

2 -4.4000000000000004 -26.030751045638315 0 -0 -0 -1 1 0 0 0 1 0 3.6000000000000001
2 0 0 0 -0 -0 -1 1 0 0 0 1 0 30
2 4.3999999999999986 -26.030751045638315 0 -0 -0 -1 1 0 0 0 1 0 3.6000000000000001
9 0 0 0 0 1 1 2 2 2 2 -4.999999999999706 -39.686269665968901 0  -4.9999999999999956 -29.580398915498083 10  
-4.999999999999706 -39.686269665968901 -10  -4.9999999999999956 -29.580398915498083 0  

0 2
10 2

0 2
1 2

1 0 0 0 0.95407552713845667 -0.29956616717425921 0 -0.29956616717425921 -0.95407552713845667 0 0 -0 -1 
1 7.8346718976984429 -24.952312843810979 0 -0.95407552713845667 -0.29956616717425916 0 -0.29956616717425916 0.95407552713845667 0 -0 0 -1 
1 7.0359948768955936e-16 -17.286290176323249 0 0 0 1 1 0 -0 -0 1 0 
1 -4.999999999999849 -34.633334290733487 2.0185873175002847e-17 1 2.8703579814736451e-14 -1.4680635036351063e-17 1.5232608170721001e-14 -0.53112005961872866 -0.84729657279526283 -2.4328241983737228e-14 0.84729657279526283 -0.53112005961872866 
1 5.0000000000001421 -34.633334290733451 0 -1 -2.7534169330862865e-14 3.0829333576376519e-17 -1.4597828067879135e-14 0.53112005961872522 0.84729657279526505 -2.3345981386291693e-14 0.84729657279526505 -0.53112005961872522 
Triangulations 0

TShapes 87
Ve
1.00000285993451e-07
11.9341166298532 -27.5241141594981 0
0 0

0101101
*
Ed
 1.00000285993451e-07 1 1 0
1  1 0 0 10
2  1 2 0 0 10
4 G1 1 0 2 0
0

0101000
+87 3 -87 5 *
Ve
1e-07
0 0 0
0 0

0101101
*
Ve
1e-07
0 0 0
0 0

0101101
*
Ed
 1e-07 1 1 0
1  2 0 0 10
0

0101000
+85 0 -84 5 *
Ed
 1e-07 1 1 0
1  3 0 -30.0000000000001 -0
0

0101000
+87 0 -85 6 *
Ed
 1e-07 1 1 0
1  3 0 -30.0000000000001 -0
0

0101000
+87 0 -84 0 *
Wi

0101100
+86 0 -83 0 -82 3 +81 5 *
Fa
0  1e-07 1 0

0101000
+80 0 *
Ve
2.12133034355964e-07
5.00000000000028 -39.6862696659688 0
0 0

0101101
*
Ed
 1e-07 1 1 0
1  4 0 0 10
2  2 3 0 0 10
2  3 2 0 0 10
4 G1 3 0 2 0
2  4 4 0 0 10
0

0101000
+78 3 -78 5 *
Ed
 1e-07 1 1 0
1  5 0 4.83771681155277 6.69230724755598
2  5 2 6 4.83771681155277 6.69230724755598
2  6 2 7 4.83771681155277 6.69230724755598
0

0101000
+78 0 -87 0 *
Wi

0101100
+77 0 -86 0 -76 3 +76 5 *
Fa
0  1e-07 2 0

0101000
+75 0 *
Ve
1.00000060396133e-07
-11.9341166298532 -27.5241141594979 0
0 0

0101101
*
Ed
 1.00000060396133e-07 1 1 0
1  6 0 0 10
2  7 6 0 0 10
4 G1 5 0 6 0
0

0101000
+73 3 -73 5 *
Ed
 1e-07 1 1 0
1  7 0 0 30.0000000000001
0

0101000
+85 6 -73 0 *
Ed
 1e-07 1 1 0
1  7 0 0 30.0000000000001
0

0101000
+84 0 -73 0 *
Wi

0101100
+83 0 -72 0 -71 3 +70 5 *
Fa
0  1e-07 5 0

0101000
+69 0 *
Ve
2.12133034355964e-07
-4.99999999999971 -39.6862696659689 0
0 0

0101101
*
Ed
 1e-07 1 1 0
1  8 0 4.58706114921663 4.83771681155276
2  5 3 6 4.58706114921663 4.83771681155276
2  6 3 7 4.58706114921663 4.83771681155276
2  8 8 7 4.58706114921663 4.83771681155276
2  9 9 6 4.58706114921663 4.83771681155276
0

0101000
+67 0 -78 0 *
Ed
 1e-07 1 1 0
1  9 0 2.73247071321341 4.58706114921663
2  5 6 6 2.73247071321341 4.58706114921663
2  6 6 7 2.73247071321341 4.58706114921663
0

0101000
+73 0 -67 0 *
Wi

0101100
+76 3 +66 3 +65 3 +71 3 +82 3 *
Ve
1.00000001776357e-07
-7.83467189769844 -24.952312843811 0
0 0

0101101
*
Ed
 1e-07 1 1 0
1  10 0 0 26.153393661244
0

0101000
+85 11 -63 11 *
Ve
2.12133034355964e-07
-5 -29.5803989154981 0
0 0

0101101
*
Ed
 1e-07 1 1 0
1  11 0 2.83735474744586 4.544940901165
2  5 10 11 2.83735474744586 4.544940901165
2  6 10 13 2.83735474744586 4.544940901165
0

0101000
+63 11 -61 11 *
Ve
2.12133034355964e-07
5 -29.5803989154981 0
0 0

0101101
*
Ed
 1e-07 1 1 0
1  12 0 4.544940901165 4.87983705960438
2  5 11 11 4.544940901165 4.87983705960438
2  6 11 13 4.544940901165 4.87983705960438
2  10 8 11 4.544940901165 4.87983705960438
0

0101000
+61 11 -59 11 *
Ve
1.00000001831027e-07
7.83467189769844 -24.952312843811 0
0 0

0101101
*
Ed
 1e-07 1 1 0
1  13 0 4.87983705960438 6.58742321332352
2  5 12 11 4.87983705960438 6.58742321332352
2  6 12 13 4.87983705960438 6.58742321332352
0

0101000
+59 11 -57 11 *
Ed
 1e-07 1 1 0
1  14 0 -26.153393661244 -0
0

0101000
+57 11 -85 11 *
Wi

0101100
-62 10 -60 10 -58 10 -56 10 -55 10 *
Fa
0  1e-07 7 0

0101000
+64 0 +54 0 *
Wi

0101100
+81 0 +70 0 +65 0 +66 0 +76 0 *
Fa
0  1e-07 7 0

0101000
+52 3 *
Ed
 1e-07 1 1 0
1  15 0 0 10
2  11 6 0 0 10
2  12 3 0 0 10
4 G1 6 0 3 0
2  5 13 0 0 10
0

0101000
+67 3 -67 5 *
Wi

0101100
+50 0 -77 0 -66 3 +66 5 *
Fa
0  1e-07 3 0

0101000
+49 0 *
Wi

0101100
+72 0 -50 0 -65 3 +65 5 *
Fa
0  1e-07 6 0

0101000
+47 0 *
Ve
1e-07
0 0 0
0 0

0101101
*
Ed
 1e-07 1 1 0
1  16 0 0 10
0

0101000
+85 0 -45 14 *
Ve
1.00000001776357e-07
-7.83467189769844 -24.952312843811 0
0 0

0101101
*
Ed
 1.00000001776357e-07 1 1 0
1  17 0 0 10
2  13 10 0 0 10
4 G1 14 0 10 0
0

0101000
+63 0 -43 14 *
Ed
 1e-07 1 1 0
1  10 0 0 26.153393661244
0

0101000
+45 0 -43 0 *
Wi

0101100
+44 0 -42 0 -62 10 +41 14 *
Fa
0  1e-07 14 0

0101000
+40 0 *
Ve
1.00000004373771e-07
-5 -29.5803989154981 0
0 0

0101101
*
Ed
 1e-07 1 1 0
1  18 0 0 10
2  14 10 0 0 10
2  14 11 0 0 10
4 G1 10 0 11 0
2  15 13 0 0 10
0

0101000
+61 0 -38 14 *
Ed
 1e-07 1 1 0
1  11 0 2.83735474744586 4.544940901165
2  5 10 11 2.83735474744586 4.544940901165
2  6 10 13 2.83735474744586 4.544940901165
0

0101000
+43 0 -38 0 *
Wi

0101100
+42 0 -37 0 -60 10 +36 14 *
Fa
0  1e-07 10 0

0101000
+35 0 *
Ve
1.00000003972055e-07
5 -29.5803989154981 0
0 0

0101101
*
Ed
 1e-07 1 1 0
1  19 0 0 10
2  16 11 0 0 10
2  16 12 0 0 10
4 G1 11 0 12 0
2  17 4 0 0 10
0

0101000
+59 0 -33 14 *
Ed
 1e-07 1 1 0
1  12 0 4.544940901165 4.87983705960438
2  5 11 11 4.544940901165 4.87983705960438
2  6 11 13 4.544940901165 4.87983705960438
2  18 9 13 4.544940901165 4.87983705960438
0

0101000
+38 0 -33 0 *
Wi

0101100
+37 0 -32 0 -58 10 +31 14 *
Fa
0  1e-07 11 0

0101000
+30 0 *
Ve
1.00000001831027e-07
7.83467189769844 -24.952312843811 0
0 0

0101101
*
Ed
 1.00000001831027e-07 1 1 0
1  20 0 0 10
2  19 12 0 0 10
4 G1 15 0 12 0
0

0101000
+57 0 -28 14 *
Ed
 1e-07 1 1 0
1  13 0 4.87983705960438 6.58742321332352
2  5 12 11 4.87983705960438 6.58742321332352
2  6 12 13 4.87983705960438 6.58742321332352
0

0101000
+33 0 -28 0 *
Wi

0101100
+32 0 -27 0 -56 10 +26 14 *
Fa
0  1e-07 12 0

0101000
+25 0 *
Ed
 1e-07 1 1 0
1  14 0 -26.153393661244 -0
0

0101000
+28 0 -45 0 *
Wi

0101100
+27 0 -44 0 -55 10 +23 14 *
Fa
0  1e-07 15 0

0101000
+22 0 *
Wi

0101100
+23 0 +41 0 +36 0 +31 0 +26 0 *
Fa
0  1e-07 16 0

0101000
+20 10 *
Sh

0101100
+79 0 +74 0 +68 0 +53 0 -51 4 +48 0 +46 0 -39 0 -34 0 -29 0 
-24 0 -21 0 +19 12 *
So

0100000
+18 0 *
Ed
 1e-07 1 1 0
1  21 0 0 1
2  20 13 0 0 1
2  21 8 0 0 1
4 C0 13 0 8 0
0

0101000
+67 5 -61 0 *
Ed
 1e-07 1 1 0
1  22 0 0 1
2  22 13 0 0 1
2  23 9 0 0 1
4 C0 13 0 9 0
0

0101000
+67 3 -38 14 *
Wi

0101000
+50 0 +16 0 +37 0 -15 0 *
Fa
0  1e-07 17 0

0101000
+14 0 *
Fa
0  1e-07 11 0

0101000
+30 0 *
Ed
 1e-07 1 1 0
1  23 0 0 1
2  24 8 0 0 1
2  25 4 0 0 1
4 C0 8 0 4 0
0

0101000
+78 5 -59 0 *
Wi

0101000
+66 5 +11 0 -58 10 -16 0 *
Fa
0  1e-07 8 0

0101000
+10 0 *
Ed
 1e-07 1 1 0
1  24 0 0 1
2  22 4 0 0 1
2  26 9 0 0 1
4 C0 4 0 9 0
0

0101000
+78 3 -33 14 *
Wi

0101000
-77 0 +8 0 -32 0 -11 0 *
Fa
0  1e-07 18 0

0101000
+7 0 *
Wi

0101000
-66 3 +15 0 +31 14 -8 0 *
Fa
0  1e-07 9 0

0101000
+5 0 *
Sh

0101100
+48 0 -13 0 +12 0 -9 0 -6 0 -4 0 *
So

0100000
+3 0 *
Co

1100000
+17 0 +2 0 *

+1 0 