DBRep_DrawableShape

CASCADE Topology V1, (c) Matra-Datavision
Locations 20
1
              1               0               0               0 
              0               1               0               0 
              0               0               1               0 
1
              1               0               0               0 
              0               1               0               0 
              0               0               1               0 
1
              1               0               0               0 
              0               1               0               0 
              0               0               1               0 
1
              1               0               0               0 
              0               1               0               0 
              0               0               1               0 
1
              1               0               0               0 
              0               1               0               0 
              0               0               1               0 
1
              1               0               0               0 
              0               1               0               0 
              0               0               1               0 
2  3 1 4 1 5 1 6 1 0
2  2 -1 0
1
              1               0               0               0 
              0               1               0               0 
              0               0               1               0 
1
              1               0               0               0 
              0               1               0               0 
              0               0               1               0 
1
              1               0               0               0 
              0               1               0               0 
              0               0               1               0 
1
              1               0               0               0 
              0               1               0               0 
              0               0               1               0 
2  9 1 10 1 11 1 12 1 0
2  3 1 4 1 5 1 6 1 2 1 0
2  9 1 10 1 11 1 12 1 6 -1 5 -1 4 -1 3 -1 0
2  6 -1 5 -1 4 -1 3 -1 0
2  9 1 10 1 11 1 12 1 2 1 0
2  3 1 4 1 5 1 6 1 12 -1 11 -1 10 -1 9 -1 0
2  12 -1 11 -1 10 -1 9 -1 0
2  2 -1 12 -1 11 -1 10 -1 9 -1 0
Curve2ds 83
8 -30.000000000000139 -1.3877999999999999e-13
1 -8.1600000000000001e-14 -992.5 -1 2.2e-16 
8 -30.000000000000139 -1.3877999999999999e-13
1 -1.3877999999999999e-13 -985 -1 0 
1 0 0 0 1 
1 13.526587547422491 -992.5 6.0000000000000001e-17 -1 
1 0 0 6.0000000000000001e-17 -1 
1 30 6.6600000000000001e-15 -0 -1 
1 1007.5 -984.99999999999977 -1 -2.2e-16 
8 -14.999999999999865 15.000000000000139
1 14.999999999999917 -1007.5 1 -2.2e-16 
8 -14.999999999999865 15.000000000000139
1 15.000000000000139 -985 -1 0 
1 -4.7123889803846897 -1.51e-14 1 0 
2 13.526587547422434 -936 1 -2.2e-16 2.2e-16 1 49
1 15 0 0 -1 
1 0 0 0 -1 
1 1015 -992.49999999999977 -1 -2.2e-16 
1 30 -6.6600000000000001e-15 0 -1 
1 80.599317614977323 1.3769999999999999e-14 0 -1 
8 -14.999999999999861 15.000000000000139
1 15.000000000000082 -992.5 -1 -2.2e-16 
8 -14.999999999999861 15.000000000000139
1 14.999999999999861 -1015 1 0 
1 -4.7123889803846897 -1.599e-14 1 0 
2 11.398325554568697 -966 1 -2.2e-16 2.2e-16 1 49
7 0 0  5 6 2  0.34287071141010761 -7.8160000000000005e-14  0.40402505946139511 2.3441997749562251  0.46517940751268139 4.6244318628998187  0.52633375556397244 6.8224287467956444  0.58748810361525761 8.9209327874714379  0.64864245166654511 10.904492654703491 
 5.0552596917947978 6 5.3610314320512353 6
3 102.01457249349059 -936 -1 -3.5000000000000002e-16 -3.5000000000000002e-16 1 63.699460695707948 49
1 -4.7123889803846897 14.999999999999986 1 0 
2 16.473412452577563 -936 -1 -2.2e-16 -2.2e-16 1 49
1 0.64864245166654377 0 0 1 
1 16.47341245257762 -992.5 4.0000000000000003e-17 -1 
7 0 0  5 6 2  0.34287071141010761 14.999999999999918  0.40402505946139528 17.253162890491907  0.46517940751268405 19.444842275991164  0.52633375556396889 21.557480057599605  0.58748810361525827 23.574488795724999  0.64864245166654599 25.481017211802413 
 5.0552596917947978 6 5.3610314320512362 6
3 -21.079673360184906 -936 1 -3.5999999999999998e-16 3.5999999999999998e-16 1 62.701276837601654 49
1 30 6.6600000000000001e-15 0 -1 
1 1015 -1007.4999999999998 -1 -2.2e-16 
1 30 6.6600000000000001e-15 -6.0000000000000001e-17 -1 
1 0 0 -0 -1 
1 1007.5 -1014.9999999999998 -1 -2.2e-16 
8 -1.4011e-13 29.999999999999865
1 8.5149999999999996e-14 -1007.5 1 2.2e-16 
8 -1.4011e-13 29.999999999999865
1 1.4011e-13 -1015 1 0 
1 -4.7123889803846897 14.999999999999984 1 0 
2 18.6016744454313 -966 -1 -2.2e-16 -2.2e-16 1 49
8 -8.9896319060874816 84.312297334416201
1 7.4961215889449395 -997.46202004537486 0.83386301766914572 -0.55197143745279631 
8 -8.9896319060874816 84.312297334416201
1 72.833581116937651 -980.47155452169704 -0.8638547806146315 0.50374092350060962 
1 -0 0 0 -1 
1 20 4.4400000000000004e-15 0 -1 
7 0 0  5 6 2  2.8999999999999998e-16 -11.558793637463609  0.067249665475180631 -9.5111862902259681  0.13449933095036148 -7.3108873760960051  0.20174899642554212 -4.977182785687404  0.26899866190072158 -2.532265425829765  0.33624832737590193 -2.9132000000000001e-13 
 3.9867486433756394 6 4.3229969707515412 6
3 -24.18197204512467 -1009 -1 -3.5000000000000002e-16 3.5000000000000002e-16 -1 63.699460695707948 49
7 0 0  5 6 2  0.38939200963314002 2.1320000000000001e-14  0.45664167510832215 2.5322654258295705  0.52389134058350439 4.9771827856872477  0.59114100605868813 7.3108873760959625  0.65839067153386854 9.5111862902259681  0.72564033700905073 11.558793637463662 
 5.1017809900178301 6 5.4380293173937408 6
3 104.78128966010192 -966 -1 -3.5000000000000002e-16 -3.5000000000000002e-16 1 63.699460695707948 49
8 -4.9499424131661387 92.626950343264411
1 4.2043602396210211 -1041.3874753840093 0.84937558635788479 0.52778889084481451 
8 -4.9499424131661387 92.626950343264411
1 4.0886932291490838 -962.79007483261171 0.82600824168655951 -0.56365803876630605 
1 18.60167444543125 -992.5 -6.0000000000000001e-17 -1 
1 0.72564033700905073 0 0 1 
1 64.277756054542635 -992.5 -4.0000000000000003e-17 -1 
7 0 0  5 6 2  0.38939200963313986 15.000000000000014  0.45664167510832221 17.433925020942986  0.52389134058350617 19.78389413381592  0.59114100605868369 22.026969419742699  0.65839067153386921 24.141819832353136  0.72564033700905151 26.109908447659272 
 5.1017809900178301 6 5.4380293173937417 6
3 -23.80303549073323 -966 1 -3.5999999999999998e-16 3.5999999999999998e-16 1 62.701276837601654 49
1 77.801028270839737 -3.3300000000000001e-15 4.0000000000000003e-17 -1 
8 -111.60430043950538 -19.391231951357003
1 -16.360563746426322 -997.09078146591003 -0.84370935211681797 0.53680026932800573 
8 -111.60430043950538 -19.391231951357003
1 -16.683413796777035 -994.88350042630805 -0.86035863211928709 -0.50968914461446924 
1 79.336309467985686 -1.3769999999999999e-14 0 -1 
7 0 0  5 6 2  8.7000000000000004e-16 1.8900915523408273  0.067249665475181131 3.8581801676469079  0.13449933095036215 5.9730305802572019  0.20174899642554056 8.2161058661840372  0.26899866190072208 10.56607497905684  0.33624832737590238 12.99999999999973 
 3.9867486433756398 6 4.3229969707515412 6
3 103.13934495871899 -1009 1 -3.5999999999999998e-16 -3.5999999999999998e-16 -1 62.701276837601654 49
8 -66.414162162633659 30.122100454063627
1 25.860774629408674 -1041.5545711833033 -0.85853158443735378 -0.512760683480595 
8 -66.414162162633659 30.122100454063627
1 54.581090872688726 -977.1615875741079 0.82182909631580459 0.56973409275621567 
1 -3.9867486433756389 7.1100000000000008e-15 1 0 
2 1.3983255545686541 -1009 -1 -2.2e-16 2.2e-16 -1 49
8 -9.9999999999998668 10.000000000000119
1 9.9999999999998668 -1044 1 -2.2e-16 
8 -9.9999999999998668 10.000000000000119
1 10.000000000000108 -938 -1 0 
8 -1.2434e-13 19.999999999999869
1 1.3233999999999999e-13 -1044 1 2.2e-16 
8 -1.2434e-13 19.999999999999869
1 1.1368999999999999e-13 -960 1 0 
1 13.000000000000021 0 0 -1 
1 -938 -1043.9999999999998 1 -2.2e-16 
1 18.601674445431243 -1044 -4.0000000000000003e-17 -1 
1 1.3983255545686575 -1044 -6.0000000000000001e-17 -1 
1 -3.9867486433756389 13.000000000000028 1 0 
2 18.601674445431346 -1009 1 -2.2e-16 -2.2e-16 -1 49
1 20 -4.4400000000000004e-15 6.0000000000000001e-17 -1 
1 1057 -937.99999999999977 -1 -2.2e-16 
8 -20.000000000000121 -1.3523e-13
1 -1.3523e-13 -1057 -1 2.2e-16 
8 -20.000000000000121 -1.3523e-13
1 -1.088e-13 -938 -1 0 
8 -9.999999999999865 10.000000000000124
1 10.000000000000135 -1057 -1 -2.2e-16 
8 -9.999999999999865 10.000000000000124
1 9.9999999999998863 -960 1 0 
1 20 -4.4400000000000004e-15 0 -1 
1 -938 -1056.9999999999998 1 -2.2e-16 
1 22 -4.8799999999999996e-15 0 -1 
1 0 0 -6.0000000000000001e-17 -1 
1 1057 -959.99999999999977 -1 -2.2e-16 
Curves 43
1 -7.5 15 -1.4211000000000001e-13 -0 -2.2e-16 -1 
1 -7.4999999999999956 15.000000000000014 13.52658754742243 1 -2.2e-16 2.8000000000000001e-16 
1 -1000 15.000000000000222 -2.8088999999999998e-13 1 -2.2e-16 2.8000000000000001e-16 
1 7.5 15 14.99999999999986 -0 2.2e-16 1 
8 4.7123889803846897 5.055259691794797
2 -7.5 64.000000000000014 13.52658754742242 -1 2.2e-16 -2.8000000000000001e-16 -2.8000000000000001e-16 0 1 2.2e-16 1 6.1600000000000008e-32 49
1 -7.5 1000 -2.2204000000000001e-13 0 -1 2.2e-16 
1 -7.5 1000 29.99999999999978 0 -1 2.2e-16 
1 -7.5 -14.999999999999996 14.999999999999865 0 2.2e-16 1 
8 4.7123889803846897 5.1017809900178301
2 -7.5 33.999999999999993 11.398325554568689 -1 2.2e-16 -2.8000000000000001e-16 -2.8000000000000001e-16 0 1 2.2e-16 1 6.1600000000000008e-32 49
8 5.0552596917947978 5.3610314320512353
3 -21.183560343673307 64.000000000000014 13.526587547422416 -0.76923728183622786 1.4000000000000001e-16 0.63896322604138323 0.63896322604138323 -1.8000000000000002e-16 0.76923728183622786 2.2270660014452089e-16 1 4.9007859084727374e-17 63.699460695707948 49
8 4.7123889803846897 5.055259691794797
2 7.5000000000000009 64.000000000000014 13.526587547422423 -1 2.2e-16 -2.8000000000000001e-16 -2.8000000000000001e-16 0 1 2.2e-16 1 6.1600000000000008e-32 49
1 -7.5000000000000018 24.951672908175958 43.127738729934208 1 -2.2e-16 2.8000000000000001e-16 
8 5.0552596917947978 5.3610314320512362
3 -5.6521599419772661 64.000000000000014 13.52658754742242 -0.78148328824166702 1.4000000000000001e-16 0.62392617367681547 0.62392617367681547 -1.8000000000000002e-16 0.78148328824166702 2.2171437161566019e-16 1 5.3317327568745909e-17 62.701276837601654 49
1 7.5 1000 -2.2204000000000001e-13 0 -1 2.2e-16 
1 -1000 -14.999999999999778 -2.7422999999999998e-13 1 -2.2e-16 2.8000000000000001e-16 
1 7.5 1000 29.99999999999978 0 -1 2.2e-16 
1 7.5 -14.999999999999996 29.999999999999865 0 -2.2e-16 -1 
8 4.7123889803846897 5.1017809900178301
2 7.5 33.999999999999993 11.398325554568693 -1 2.2e-16 -2.8000000000000001e-16 -2.8000000000000001e-16 0 1 2.2e-16 1 6.1600000000000008e-32 49
1 -2.5379799546251434 19.528445478302928 35.973694035208325 0.55197143745279631 0.50374092350060973 0.66450930334122993 
1 43.999999999999993 1000 91.99999999999973 0 -1 2.2e-16 
8 3.9867486433756394 4.3229969707515412
3 59.4513908699954 -8.9999999999999822 110.6016744454313 0.76923728183622786 -1.4000000000000001e-16 -0.63896322604138323 0.63896322604138323 -1.8000000000000002e-16 0.76923728183622786 -2.2270660014452089e-16 -1 -4.9007859084727374e-17 63.699460695707948 49
8 5.1017809900178301 5.4380293173937408
3 -22.951390869995365 33.999999999999993 11.398325554568686 -0.76923728183622786 1.4000000000000001e-16 0.63896322604138323 0.63896322604138323 -1.8000000000000002e-16 0.76923728183622786 2.2270660014452089e-16 1 4.9007859084727374e-17 63.699460695707948 49
1 41.387475384009434 37.209925167388349 88.85482473414703 -0.52778889084481451 -0.56365803876630616 -0.63539633460929079 
1 -7.4999999999999947 -15.000000000000007 11.3983255545687 1 -2.2e-16 2.8000000000000001e-16 
1 -7.5000000000000009 -2.6556572803786054 43.91544088393681 1 -2.2e-16 2.8000000000000001e-16 
8 5.1017809900178301 5.4380293173937417
3 -7.3513368556266228 33.999999999999993 11.398325554568689 -0.78148328824166702 1.4000000000000001e-16 0.62392617367681547 0.62392617367681547 -1.8000000000000002e-16 0.78148328824166702 2.2171437161566019e-16 1 5.3317327568745909e-17 62.701276837601654 49
1 -1000 62.000000000000256 91.99999999999973 1 -2.2e-16 2.8000000000000001e-16 
1 -2.9092185340899448 5.1164995736919252 16.962190926998176 -0.53680026932800573 -0.50968914461446935 -0.67235589289568298 
1 57.000000000000014 1000 91.99999999999973 0 -1 2.2e-16 
8 3.9867486433756398 4.3229969707515412
3 71.85133685562667 -8.999999999999984 110.60167444543131 0.78148328824166702 -1.4000000000000001e-16 -0.62392617367681547 0.62392617367681547 -1.8000000000000002e-16 0.78148328824166702 -2.2171437161566019e-16 -1 -5.3317327568745909e-17 62.701276837601654 49
1 41.554571183303352 22.838412425892159 72.654210371005917 0.512760683480595 0.56973409275621578 0.64224570456155239 
8 4.3229969707515394 4.7123889803846897
2 43.999999999999993 -8.9999999999999787 110.6016744454313 1 -2.2e-16 2.8000000000000001e-16 -2.8000000000000001e-16 0 1 -2.2e-16 -1 -6.1600000000000008e-32 49
1 44 62.000000000000014 101.99999999999983 -0 2.2e-16 1 
1 44 40.000000000000014 111.99999999999983 0 -2.2e-16 -1 
1 43.999999999999993 1000 111.99999999999973 0 -1 2.2e-16 
1 44 27.655657280378627 78.084559116063176 1 -2.2e-16 2.8000000000000001e-16 
1 44 40.000000000000028 110.6016744454313 1 -2.2e-16 2.8000000000000001e-16 
8 4.3229969707515394 4.7123889803846897
2 57.000000000000014 -8.9999999999999822 110.6016744454313 1 -2.2e-16 2.8000000000000001e-16 -2.8000000000000001e-16 0 1 -2.2e-16 -1 -6.1600000000000008e-32 49
1 -1000 62.000000000000263 111.99999999999973 1 -2.2e-16 2.8000000000000001e-16 
1 57.000000000000007 62.000000000000014 91.999999999999829 -0 -2.2e-16 -1 
1 57.000000000000007 40.000000000000014 101.99999999999983 0 2.2e-16 1 
1 57.000000000000014 1000 111.99999999999973 0 -1 2.2e-16 
1 -1000 40.000000000000263 111.99999999999973 1 -2.2e-16 2.8000000000000001e-16 
Polygon3D 0
PolygonOnTriangulations 0
Surfaces 19
1 -1000 15.000000000000222 -2.8088999999999998e-13 -2.2e-16 -1 2.2e-16 -2.2e-16 2.2000000000000005e-16 1 -1 2.1999999999999995e-16 -2.2000000000000005e-16 
1 -7.5 1000 -2.2204000000000001e-13 -1 0 0 0 2.2e-16 1 0 1 -2.2e-16 
2 -7.4999999999999849 64.000000000000014 13.52658754742242 1 -2.2e-16 2.8000000000000001e-16 -2.2000000000000005e-16 -1 2.2e-16 -2.7999999999999996e-16 2.2000000000000005e-16 1 49
1 -1000 -14.999999999999778 -2.7422999999999998e-13 -2.8000000000000001e-16 2.2e-16 1 2.2e-16 1 -2.1999999999999995e-16 -1 2.1999999999999995e-16 -2.8000000000000006e-16 
1 7.5 1000 -2.2204000000000001e-13 -0 -2.2e-16 -1 -1 0 0 0 1 -2.2e-16 
1 7.5 1000 29.99999999999978 1 0 0 0 -2.2e-16 -1 0 1 -2.2e-16 
1 43.999999999999993 1000 91.99999999999973 0.76923728183622786 -1.4000000000000001e-16 -0.63896322604138323 -0.63896322604138323 -1.7e-16 -0.76923728183622786 -9.3052896996323922e-19 1 -2.2022518955795238e-16 
1 -1000 -14.999999999999771 29.999999999999726 2.2e-16 1 -2.2e-16 2.2e-16 -2.2000000000000005e-16 -1 -1 2.1999999999999995e-16 -2.2000000000000005e-16 
2 -7.499999999999984 33.999999999999993 11.398325554568689 1 -2.2e-16 2.8000000000000001e-16 -2.2000000000000005e-16 -1 2.2e-16 -2.7999999999999996e-16 2.2000000000000005e-16 1 49
1 -1000 15.000000000000229 29.999999999999719 -3.4e-16 -0.79690463452702165 0.60410512617371015 -4.0000000000000028e-17 0.60410512617371015 0.79690463452702165 -1 2.4678337069223888e-16 -2.3727192828014232e-16 
1 7.5 1000 29.99999999999978 -0.78148328824166702 1.4000000000000001e-16 0.62392617367681547 0.62392617367681547 1.7e-16 0.78148328824166702 3.3402108287747601e-18 1 -2.2020182331583756e-16 
1 43.999999999999993 1000 111.99999999999973 1 0 0 0 -2.2e-16 -1 0 1 -2.2e-16 
2 43.999999999999986 -8.9999999999999787 110.6016744454313 1 -2.2e-16 2.8000000000000001e-16 3.5038850803890548e-16 0.7480746383750736 -0.66361459855853311 -6.3465687062143333e-17 0.66361459855853311 0.7480746383750736 49
1 -1000 40.000000000000256 91.99999999999973 3.5000000000000002e-16 0.7480746383750736 -0.66361459855853311 2.0000000000000026e-17 -0.66361459855853311 -0.7480746383750736 -1 2.4855383146010503e-16 -2.4722660226298802e-16 
1 -1000 62.000000000000256 91.99999999999973 -2.2e-16 -1 2.2e-16 -2.2e-16 2.2000000000000005e-16 1 -1 2.1999999999999995e-16 -2.2000000000000005e-16 
1 57.000000000000014 1000 91.99999999999973 -1 0 0 0 2.2e-16 1 0 1 -2.2e-16 
1 -1000 40.000000000000263 111.99999999999973 2.2e-16 1 -2.2e-16 2.2e-16 -2.2000000000000005e-16 -1 -1 2.1999999999999995e-16 -2.2000000000000005e-16 
1 57.000000000000014 1000 111.99999999999973 -0 -2.2e-16 -1 -1 0 0 0 1 -2.2e-16 
1 -1000 62.000000000000263 111.99999999999973 2.8000000000000001e-16 -2.2e-16 -1 -2.2e-16 -1 2.1999999999999995e-16 -1 2.1999999999999995e-16 -2.8000000000000006e-16 
Triangulations 0

TShapes 107
Ve
1.5e-07
-7.49999999999999 15 13.5265875474224
0 0

0101101
*
Ve
1.5e-07
-7.5 15 -4e-15
0 0

0101101
*
Ed
 1.5e-07 1 1 0
1  1 0 -13.5265875474226 -1.39e-13
2  1 1 7 -13.5265875474226 -1.39e-13
2  2 2 13 -13.5265875474226 -1.39e-13
0

0101000
+107 8 -106 0 *
Ve
1.5e-07
7.5 15 13.5265875474224
0 0

0101101
*
Ed
 1e-07 1 1 0
1  2 0 3e-15 15
2  3 3 0 3e-15 15
2  4 1 14 3e-15 15
4 G1 3 0 1 14
0

0101000
+107 0 -104 0 *
Ve
1.5e-07
7.5 15 -2e-15
0 0

0101101
*
Ed
 1e-07 1 1 0
1  3 0 992.5 1007.5
2  5 1 0 992.5 1007.5
2  6 4 0 992.5 1007.5
2  7 5 15 992.5 1007.5
0

0101000
+106 16 -102 16 *
Ed
 1.5e-07 1 1 0
1  4 0 -14.9999999999999 -1.47341245257743
2  8 1 7 -14.9999999999999 -1.47341245257743
2  9 6 13 -14.9999999999999 -1.47341245257743
0

0101000
-104 8 +102 0 *
Wi

0101100
+105 2 -103 0 +101 14 +100 2 *
Fa
0  1e-07 1 7

0111000
+99 8 *
Ve
1e-07
-7.50000000000002 17.8521215854156 29.9999999999999
0 0

0101101
*
Ed
 1e-07 1 1 0
1  5 0 4.71238898038469 5.0552596917948
2  10 3 0 4.71238898038469 5.0552596917948
2  11 2 17 4.71238898038469 5.0552596917948
0

0101000
+107 0 -97 0 *
Ve
1.5e-07
-7.5 -15 2e-15
0 0

0101101
*
Ed
 1e-07 1 1 0
1  6 0 985 1015
2  12 5 0 985 1015
2  13 2 0 985 1015
2  14 4 18 985 1015
0

0101000
+106 19 -95 19 *
Ve
1.25848003e-07
-7.50000000000002 -11.3318619496948 30
0 0

0101101
*
Ed
 1e-07 1 1 0
1  7 0 982.147878414585 1011.33186194969
2  15 2 0 982.147878414585 1011.33186194969
2  16 7 0 982.147878414585 1011.33186194969
0

0101000
+97 20 -93 20 *
Ve
1.5e-07
-7.5 -15 11.3983255545687
0 0

0101101
*
Ed
 1.5e-07 1 1 0
1  8 0 -14.9999999999999 -3.60167444543117
2  17 8 7 -14.9999999999999 -3.60167444543117
2  18 2 13 -14.9999999999999 -3.60167444543117
0

0101000
-91 8 +95 0 *
Ed
 1e-07 1 1 0
1  9 0 4.71238898038469 5.10178099001783
2  19 9 0 4.71238898038469 5.10178099001783
2  20 2 17 4.71238898038469 5.10178099001783
0

0101000
+91 0 -93 0 *
Wi

0101100
+105 2 -96 0 +94 17 -92 17 +90 2 +89 0 *
Fa
0  1e-07 2 13

0111000
+88 8 *
Ve
1.5e-07
3.40449265470369 24.951672908176 43.1277387299342
0 0

0101101
*
Ed
 1e-07 1 1 0
1  10 0 5.0552596917948 5.36103143205124
2  21 3 0 5.0552596917948 5.36103143205124
2  22 7 17 5.0552596917948 5.36103143205124
0

0101000
+97 0 -86 0 *
Ve
1e-07
7.49999999999999 17.8521215854156 29.9999999999999
0 0

0101101
*
Ed
 1e-07 1 1 0
1  11 0 4.71238898038469 5.0552596917948
2  23 3 0 4.71238898038469 5.0552596917948
2  24 6 17 4.71238898038469 5.0552596917948
0

0101000
+104 0 -84 0 *
Ve
1.5e-07
17.9810172118026 24.951672908176 43.1277387299342
0 0

0101101
*
Ed
 1e-07 1 1 0
1  12 0 10.9044926547037 25.4810172118026
2  25 3 0 10.9044926547037 25.4810172118026
2  26 10 14 10.9044926547037 25.4810172118026
4 G1 3 0 10 14
0

0101000
+86 0 -82 0 *
Ed
 1e-07 1 1 0
1  13 0 5.0552596917948 5.36103143205124
2  27 3 0 5.0552596917948 5.36103143205124
2  28 11 17 5.0552596917948 5.36103143205124
0

0101000
+84 0 -82 0 *
Wi

0101100
+96 0 -103 0 +85 0 -83 0 +81 0 -80 0 *
Fa
0  0 3 0

0111000
+79 0 *
Ve
1.5e-07
7.5 -15 4e-15
0 0

0101101
*
Ed
 1e-07 1 1 0
1  14 0 985 1015
2  29 6 0 985 1015
2  13 5 0 985 1015
2  30 4 18 985 1015
0

0101000
+102 19 -77 19 *
Ed
 1e-07 1 1 0
1  15 0 992.5 1007.5
2  31 8 0 992.5 1007.5
2  32 4 0 992.5 1007.5
2  33 5 15 992.5 1007.5
0

0101000
+95 16 -77 16 *
Wi

0101100
+94 13 -101 7 -76 13 +75 7 *
Fa
0  1e-07 4 7

0111000
+74 0 *
Ve
1.209607e-07
7.49999999999998 -11.3318619496948 30
0 0

0101101
*
Ed
 1e-07 1 1 0
1  16 0 982.147878414585 1011.33186194969
2  13 6 0 982.147878414585 1011.33186194969
2  13 11 0 982.147878414585 1011.33186194969
0

0101000
+84 20 -72 20 *
Ve
1.5e-07
7.5 -15 11.3983255545687
0 0

0101101
*
Ed
 1.5e-07 1 1 0
1  17 0 18.6016744454312 29.9999999999999
2  34 8 7 18.6016744454312 29.9999999999999
2  35 6 13 18.6016744454312 29.9999999999999
0

0101000
+70 8 -77 0 *
Ed
 1e-07 1 1 0
1  18 0 4.71238898038469 5.10178099001783
2  36 9 0 4.71238898038469 5.10178099001783
2  37 6 17 4.71238898038469 5.10178099001783
0

0101000
+70 0 -72 0 *
Wi

0101100
+100 2 +83 0 -76 17 +71 17 +69 2 -68 0 *
Fa
0  1e-07 6 13

0111000
+67 8 *
Ve
1.50000324e-07
44 62 92
0 0

0101101
*
Ed
 1.5e-07 1 1 0
1  19 0 10.7659059982375 84.3122973344162
2  38 10 7 10.7659059982375 84.3122973344162
2  39 7 13 10.7659059982375 84.3122973344162
0

0101000
+86 8 -65 0 *
Ve
1.25847993e-07
43.9999999999997 36.3318619496947 91.9999999999996
0 0

0101101
*
Ed
 1e-07 1 1 0
1  20 0 938 963.668138050306
2  40 7 0 938 963.668138050306
2  41 12 0 938 963.668138050306
0

0101000
-63 20 +65 19 *
Ve
1.5e-07
32.4412063625365 27.6556572803786 78.0845591160632
0 0

0101101
*
Ed
 1e-07 1 1 0
1  21 0 3.98674864337564 4.32299697075154
2  42 13 0 3.98674864337564 4.32299697075154
2  43 7 17 3.98674864337564 4.32299697075154
0

0101000
+61 0 -63 0 *
Ve
1.5e-07
4.0587936374638 -2.6556572803786 43.9154408839368
0 0

0101101
*
Ed
 1e-07 1 1 0
1  22 0 5.10178099001783 5.43802931739374
2  44 9 0 5.10178099001783 5.43802931739374
2  45 7 17 5.10178099001783 5.43802931739374
0

0101000
+93 0 -59 0 *
Ed
 1.5e-07 1 1 0
1  23 0 16.9504685995812 70.7265393305167
2  46 14 7 16.9504685995812 70.7265393305167
2  47 7 13 16.9504685995812 70.7265393305167
0

0101000
+61 8 -59 8 *
Wi

0101100
+64 2 +85 0 +62 17 -92 17 -60 0 -58 0 +57 2 *
Fa
0  1e-07 7 13

0111000
+56 8 *
Ed
 1e-07 1 1 0
1  24 0 -1e-15 15
2  3 9 0 -1e-15 15
2  48 8 14 -1e-15 15
4 G1 9 0 8 14
0

0101000
+91 0 -70 0 *
Wi

0101100
+90 2 +54 0 -75 14 +69 2 *
Fa
0  1e-07 8 7

0111000
+53 8 *
Ve
1.5e-07
18.6099084476595 -2.65565728037861 43.9154408839368
0 0

0101101
*
Ed
 1e-07 1 1 0
1  25 0 11.5587936374638 26.1099084476595
2  49 9 0 11.5587936374638 26.1099084476595
2  50 14 14 11.5587936374638 26.1099084476595
4 G1 9 0 14 14
0

0101000
+59 0 -51 0 *
Ed
 1e-07 1 1 0
1  26 0 5.10178099001783 5.43802931739374
2  51 9 0 5.10178099001783 5.43802931739374
2  52 11 17 5.10178099001783 5.43802931739374
0

0101000
+72 0 -51 0 *
Wi

0101100
+89 0 -54 0 +58 0 -68 0 +50 0 -49 0 *
Fa
0  0 9 0

0111000
+48 0 *
Ve
1.50000417e-07
57 62 92
0 0

0101101
*
Ed
 1e-07 1 1 0
1  27 0 1044 1057
2  53 10 0 1044 1057
2  5 15 0 1044 1057
0

0101000
+65 16 -46 16 *
Ed
 1.5e-07 1 1 0
1  28 0 -111.604300439505 -38.9162169610013
2  54 10 7 -111.604300439505 -38.9162169610013
2  55 11 13 -111.604300439505 -38.9162169610013
0

0101000
-82 8 +46 0 *
Wi

0101100
-64 2 +81 0 -45 14 -44 2 *
Fa
0  1e-07 10 7

0111000
+43 8 *
Ve
1.20960692e-07
56.9999999999997 36.3318619496947 91.9999999999996
0 0

0101101
*
Ed
 1e-07 1 1 0
1  29 0 938 963.668138050306
2  56 11 0 938 963.668138050306
2  13 16 0 938 963.668138050306
0

0101000
-41 20 +46 19 *
Ve
1.5e-07
45.8900915523411 27.6556572803786 78.0845591160632
0 0

0101101
*
Ed
 1e-07 1 1 0
1  30 0 3.98674864337564 4.32299697075154
2  57 13 0 3.98674864337564 4.32299697075154
2  58 11 17 3.98674864337564 4.32299697075154
0

0101000
+39 0 -41 0 *
Ed
 1.5e-07 1 1 0
1  31 0 -44.7473128787811 8.45525117021146
2  59 14 7 -44.7473128787811 8.45525117021146
2  60 11 13 -44.7473128787811 8.45525117021146
0

0101000
+51 8 -39 8 *
Wi

0101100
+44 2 -80 0 -40 17 +71 17 +38 0 +49 0 +37 2 *
Fa
0  1e-07 11 13

0111000
+36 8 *
Ve
1.5e-07
44 40 110.601674445431
0 0

0101101
*
Ed
 1e-07 1 1 0
1  32 0 4.32299697075154 4.71238898038469
2  61 13 0 4.32299697075154 4.71238898038469
2  62 12 17 4.32299697075154 4.71238898038469
0

0101000
+63 0 -34 0 *
Ve
1.5e-07
44 62 112
0 0

0101101
*
Ed
 1.5e-07 1 1 0
1  33 0 -9.99999999999987 10.0000000000001
2  63 15 7 -9.99999999999987 10.0000000000001
2  64 12 13 -9.99999999999987 10.0000000000001
0

0101000
+65 0 -32 0 *
Ve
1.5e-07
44 40 112
0 0

0101101
*
Ed
 1.5e-07 1 1 0
1  34 0 -1.24e-13 1.39832555456852
2  65 17 7 -1.24e-13 1.39832555456852
2  66 12 13 -1.24e-13 1.39832555456852
0

0101000
-34 8 +30 0 *
Ed
 1e-07 1 1 0
1  35 0 938 960
2  13 12 0 938 960
2  67 18 0 938 960
2  68 19 18 938 960
0

0101000
+32 19 -30 19 *
Wi

0101100
-62 17 -33 0 +31 2 +29 2 +28 17 *
Fa
0  1e-07 12 13

0111000
+27 8 *
Ed
 1e-07 1 1 0
1  36 0 -11.5587936374635 1.89009155234105
2  3 13 0 -11.5587936374635 1.89009155234105
2  69 14 14 -11.5587936374635 1.89009155234105
4 G1 13 0 14 14
0

0101000
+61 0 -39 0 *
Ve
1.5e-07
57 40 110.601674445431
0 0

0101101
*
Ed
 1e-07 1 1 0
1  37 0 -0 13
2  49 13 0 -0 13
2  70 17 14 -0 13
4 G1 13 0 17 14
0

0101000
+34 0 -24 0 *
Ed
 1e-07 1 1 0
1  38 0 4.32299697075154 4.71238898038469
2  71 13 0 4.32299697075154 4.71238898038469
2  72 16 17 4.32299697075154 4.71238898038469
0

0101000
+41 0 -24 0 *
Wi

0101100
+60 0 -25 0 +33 0 -38 0 +23 0 -22 0 *
Fa
0  0 13 0

0111000
+21 0 *
Wi

0101100
-57 2 +25 0 -50 0 -37 2 *
Fa
0  1e-07 14 7

0111000
+19 8 *
Ve
1.5e-07
57 62 112
0 0

0101101
*
Ed
 1e-07 1 1 0
1  39 0 1044 1057
2  73 15 0 1044 1057
2  13 19 0 1044 1057
2  74 18 15 1044 1057
0

0101000
+32 16 -17 16 *
Ed
 1.5e-07 1 1 0
1  40 0 -20.0000000000001 -1.35e-13
2  75 15 7 -20.0000000000001 -1.35e-13
2  76 16 13 -20.0000000000001 -1.35e-13
0

0101000
+17 0 -46 0 *
Wi

0101100
-31 0 -16 7 -15 0 +45 7 *
Fa
0  1e-07 15 7

0111000
+14 0 *
Ve
1.5e-07
57 40 112
0 0

0101101
*
Ed
 1.5e-07 1 1 0
1  41 0 8.60167444543148 10.0000000000001
2  77 17 7 8.60167444543148 10.0000000000001
2  78 16 13 8.60167444543148 10.0000000000001
0

0101000
+24 8 -12 0 *
Ed
 1e-07 1 1 0
1  42 0 938 960
2  79 16 0 938 960
2  13 18 0 938 960
2  80 19 18 938 960
0

0101000
+17 19 -12 19 *
Wi

0101100
+11 2 +22 0 -10 17 +40 17 +15 2 *
Fa
0  1e-07 16 13

0111000
+9 8 *
Ed
 1e-07 1 1 0
1  43 0 1044 1057
2  81 19 0 1044 1057
2  82 17 0 1044 1057
2  83 18 15 1044 1057
0

0101000
+30 16 -12 16 *
Wi

0101100
-29 2 -23 0 +7 14 -11 2 *
Fa
0  1e-07 17 7

0111000
+6 8 *
Wi

0101100
-28 13 -7 7 +10 13 +16 7 *
Fa
0  1e-07 19 7

0111000
+4 0 *
Sh

0101100
-98 2 +87 2 +78 0 -73 2 +66 2 -55 2 -52 2 -47 0 -42 2 -35 2 
-26 2 -20 0 -18 2 -13 2 -8 2 -5 2 -3 2 *
So

0100000
+2 0 *

+1 1 