DBRep_DrawableShape

CASCADE Topology V1, (c) Matra-Datavision
Locations 44
1
              1               0               0               0 
              0               1               0               0 
              0               0               1               0 
1
              1               0               0               0 
              0               1               0               0 
              0               0               1           -3.75 
1
              1               0               0              -0 
              0               1               0              -0 
              0               0               1           -3.25 
2  1 1 2 1 3 1 0
2  2 -1 1 -1 0
2  3 -1 2 -1 1 -1 0
1
              1               0               0               0 
              0               1               0               0 
              0               0               1               0 
1
              1               0               0               0 
              0               1               0               0 
              0               0               1           -3.75 
1
              1               0               0              -0 
              0               1               0              -0 
              0               0               1              -6 
2  7 1 8 1 9 1 0
2  8 -1 7 -1 0
2  9 -1 8 -1 7 -1 0
2  7 1 8 1 0
1
              1               0               0               0 
              0               1               0               0 
              0               0               1               0 
1
              1               0               0               0 
              0               1               0               0 
              0               0               1           -3.75 
1
              1               0               0              -0 
              0               1               0              -0 
              0               0               1              -6 
2  14 1 15 1 16 1 0
2  16 -1 15 -1 14 -1 0
2  1 1 2 1 0
1
              1               0               0               0 
              0               1               0               0 
              0               0               1               0 
1
              1               0               0               0 
              0               1               0               0 
              0               0               1               0 
1
              1               0               0               0 
              0               1               0               0 
              0               0               1               0 
1
              1               0               0               0 
              0               1               0               0 
              0               0               1               0 
2  20 -1 21 -1 22 -1 23 -1 0
1
              1               0               0               0 
              0               1               0               0 
              0               0               1               0 
1
              1               0               0               0 
              0               0              -1            10.2 
              0               1               0               0 
2  25 1 26 1 0
2  26 -1 25 -1 0
1
              1               0               0              -0 
              0               1               0              20 
              0               0               1          -4e-15 
2  29 -1 26 -1 25 -1 0
1
              1               0               0               0 
              0               1               0               0 
              0               0               1               0 
1
              1               0               0               0 
              0               0              -1            10.2 
              0               1               0               0 
2  31 1 32 1 0
2  32 -1 31 -1 0
1
              1               0               0               0 
              0               1               0               0 
              0               0               1               0 
1
              1               0               0               0 
              0               1               0               0 
              0               0               1              14 
2  35 1 36 1 0
2  36 -1 35 -1 0
1
              1               0               0              -0 
              0               1               0              17 
              0               0               1          -4e-15 
2  31 1 32 1 39 1 0
2  39 -1 32 -1 31 -1 0
1
              1               0               0               0 
              0               1               0               0 
              0               0               1              42 
2  14 1 15 1 16 1 42 1 0
2  42 -1 16 -1 15 -1 14 -1 0
Curve2ds 119
1 0 0 1 0 
1 0 -3.25 1 0 
1 0 -3.2500000000000018 1 0 
1 9.10345219606012 0 0 -1 
1 0 -6 1 0 
1 3.9516898572619965 0 0 -1 
1 2.8202668888805338 0 0 -1 
8 0 3.25
1 9.10345219606012 0 0 -1 
8 0 3.25
1 3.9516898572619961 0 0 -1 
1 3.9516898572619961 0 0 -1 
1 0.98625390298705173 0 0 -1 
8 3.9516898572619961 9.10345219606012
1 0 0 1 0 
8 -7.3511865882773186 9.6488134117226672
1 19.541977063213501 9.6488134117226743 0 1 
8 -7.3511865882773186 9.6488134117226672
1 9.6488134117226743 -6 -1 -0 
1 0 0 0 -1 
1 5.7857028431554784 0 0 -1 
1 11.5 0 0 -1 
1 16.999999999999993 -23.75 -1 2.2e-16 
1 0 -20 1 0 
1 3.9269908169872427 0 0 -1 
8 -1.828934517966126 2.4549481484207347
1 1.8289345179661303 -3.4999999999999942 1 1.6000000000000001e-16 
8 -1.828934517966126 2.4549481484207347
1 3.8797559999999933 -1.2932519999999972 -0.70710678118654757 -0.70710678118654757 
8 5.8325148731290355 9.2325148731290412
1 4.2674851268709482 -23.749999999999993 1 0 
8 5.8325148731290355 9.2325148731290412
1 7.8516663526564159 4.2674851268709482 0 -1 
8 -4.4467376959769096 -0.16285502959004783
1 -0.16285502959004422 -6.8999999999999932 -1 -1.6000000000000001e-16 
8 -4.4467376959769096 -0.16285502959004783
1 0.34546768732037236 0.11515589577345864 -0.70710678118654757 0.70710678118654757 
8 -1.644385304930688 2.639497361456173
1 1.644385304930692 -10.099999999999996 1 1.6000000000000001e-16 
8 -1.644385304930688 2.639497361456173
1 3.4882679999999979 -1.1627559999999981 -0.70710678118654757 -0.70710678118654757 
8 -0.76748512687096238 2.6325148731290433
1 4.2674851268709482 -23.749999999999993 1 0 
8 -0.76748512687096238 2.6325148731290433
1 7.8516663526564159 4.2674851268709482 0 -1 
8 -4.5304217092112165 -0.24653904282435732
1 -0.24653904282435143 -13.499999999999995 -1 -1.6000000000000001e-16 
8 -4.5304217092112165 -0.24653904282435732
1 0.5229882870250222 0.17432942900834369 -0.70710678118654757 0.70710678118654757 
2 4.5 -31.75 1 0 0 -1 7.0000000000000009
1 0 -16.999999999999982 1 0 
8 -14.094414779235931 -5.3587121744078576
1 12.491451626632795 -35.471894284814532 0.88626961972449947 0.46316968937247099 
8 -14.094414779235931 -5.3587121744078576
1 -5.3587121744078576 -16.999999999999986 -1 -9.9999999999999998e-17 
2 4.5 -31.75 1 0 0 -1 2.7999999999999998
1 2e-16 0 0 -1 
8 -19.875 -11.875
1 13.499999999999989 -11.875 0 1 
8 -19.875 -11.875
1 0.66841099999999898 11.875 -0 1 
8 11.875 19.875
1 10.099999999999991 -11.875 0 -1 
8 11.875 19.875
1 0.69197499999999934 11.875 0 -1 
8 -19.875 -11.875
1 6.8999999999999915 -11.875 0 1 
8 -19.875 -11.875
1 0.75540900000000022 11.875 -0 1 
8 11.875 19.875
1 3.4999999999999893 -11.875 0 -1 
8 11.875 19.875
1 0.78714699999999738 11.875 0 -1 
1 0 -17 1 0 
8 5.7822017847139033 6.301934801441945
1 2.4337678033861301 -3.4999999999999907 1 9.9999999999999998e-17 
8 5.7822017847139033 6.301934801441945
1 10.758221360002537 -15.331134815570572 -0.88626961972449947 -0.46316968937247099 
8 -12.863953804571267 -4.647984216471202
1 -4.647984216471202 -3.4999999999999987 -1 -9.9999999999999998e-17 
8 -12.863953804571267 -4.647984216471202
1 -1.053530029624703 -12.051081932320383 -0.88626961972449947 0.46316968937247099 
1 1.0892280175971989 0 0 -1 
1 0 -3.4999999999999982 1 0 
2 6.3080250000000007 -8 -1 -0 0 -1 7.0000000000000009
1 0 -3.4999999999999929 1 0 
2 7.668410999999999 -8 -1 -0 0 -1 7.0000000000000009
1 6.2831853071795862 0 0 -1 
2 6.3080250000000007 -8 -1 -0 0 -1 2.7999999999999998
1 0 -3.4999999999999947 1 0 
2 4.4876546166861999 -5.3729715831055209 1 0 0 -1 3.3146466166862045
1 3.1415926535897931 0 0 -1 
8 1.0865039999999979 4.0865039999999979
1 -1.0865039999999979 -3.4999999999999911 1 0 
8 1.0865039999999979 4.0865039999999979
1 1.0865039999999979 -18.25 1 0 
1 0 -3.4999999999999911 1 0 
2 2.1730079999999958 -17.249999999999996 1 0 0 -1 1
8 2.6864857915527578 14.563514208447234
1 -2.6864857915527578 -3.4999999999999951 1 2.2e-16 
8 2.6864857915527578 14.563514208447234
1 1.1730079999999958 -2.6864857915527622 0 -1 
1 0 -6.8999999999999986 1 0 
2 4.039376416906201 -8 1 0 0 -1 7.0000000000000009
8 0.062690457022098287 8.2786600451221659
1 -0.062690457022098287 -6.8999999999999968 1 9.9999999999999998e-17 
8 0.062690457022098287 8.2786600451221659
1 7.3371248900188277 -14.174851018565953 -0.88626961972449947 -0.46316968937247099 
2 4.039376416906201 -8 1 0 0 -1 2.7999999999999998
1 0 -6.8999999999999915 1 0 
2 -6.3080250000000007 -8 1 0 0 -1 7.0000000000000009
1 0 -6.8999999999999932 1 0 
2 1.1459769664076234 -5.3729715831055209 -1 -0 0 -1 3.3146466166862045
8 -14.563514208447232 -2.6864857915527574
1 -2.6864857915527574 -6.8999999999999941 -1 -2.2e-16 
8 -14.563514208447232 -2.6864857915527574
1 4.4606235830938274 -2.6864857915527622 -0 1 
1 0 -6.8999999999999897 1 0 
2 3.4606235830938274 -17.249999999999996 -1 -0 0 -1 1
8 -1.2696882084530898 1.7303117915469102
1 1.7303117915469102 -6.8999999999999897 -1 0 
8 -1.2696882084530898 1.7303117915469102
1 1.7303117915469173 -18.25 1 0 
8 -8.7983930618501827 -8.278660045122141
1 -0.062690457022107876 -6.8999999999999897 -1 -9.9999999999999998e-17 
8 -8.7983930618501827 -8.278660045122141
1 -7.3371248900188064 -14.174851018565946 -0.88626961972449947 0.46316968937247099 
1 0 -10.099999999999993 1 0 
2 3.9656706166862037 -5.3729715831055174 1 0 0 -1 3.3146466166862045
8 5.7464432028038779 6.5332440820330717
1 2.2024585227950042 -10.099999999999993 1 9.9999999999999998e-17 
8 5.7464432028038779 6.5332440820330717
1 10.441239748150785 -15.223999367930208 -0.88626961972449947 -0.46316968937247099 
8 0.82551200000000335 3.8255120000000034
1 -0.82551200000000335 -10.099999999999989 1 0 
8 0.82551200000000335 3.8255120000000034
1 0.82551199999999625 -18.25 1 0 
1 0 -10.099999999999989 1 0 
2 1.6510239999999996 -17.249999999999993 1 0 0 -1 1
8 2.6864857915527565 14.563514208447232
1 -2.6864857915527565 -10.099999999999993 1 2.2e-16 
8 2.6864857915527565 14.563514208447232
1 0.6510239999999996 -2.6864857915527622 0 -1 
1 0 -13.499999999999996 1 0 
2 3.8026822839666679 -7.9999999999999964 1 0 0 -1 7.0000000000000009
8 0.16757786661776847 8.1164795922166828
1 -0.16757786661776847 -13.499999999999998 1 9.9999999999999998e-17 
8 0.16757786661776847 8.1164795922166828
1 7.1933892816955378 -14.126270349644443 -0.88626961972449947 -0.46316968937247099 
2 3.8026822839666679 -7.9999999999999964 1 0 0 -1 2.7999999999999998
1 0 -13.499999999999993 1 0 
2 -6.2128530000000026 -7.9999999999999964 1 0 0 -1 7.0000000000000009
1 0 -10.099999999999991 1 0 
2 7.7554090000000002 -7.9999999999999964 -1 -0 0 -1 7.0000000000000009
8 -12.554711915945909 -4.6058101903469959
1 -4.6058101903469959 -10.1 -1 -9.9999999999999998e-17 
8 -12.554711915945909 -4.6058101903469959
1 -1.1113244715293504 -12.070615662899918 -0.88626961972449947 0.46316968937247099 
1 0 -10.099999999999998 1 0 
2 6.2128530000000026 -7.9999999999999964 -1 -0 0 -1 7.0000000000000009
2 6.2128530000000026 -7.9999999999999964 -1 -0 0 -1 2.7999999999999998
1 0 -13.499999999999995 1 0 
2 1.3826710993471565 -5.3729715831055174 -1 -0 0 -1 3.3146466166862045
8 -14.563514208447231 -2.6864857915527556
1 -2.6864857915527556 -13.499999999999995 -1 -2.2e-16 
8 -14.563514208447231 -2.6864857915527556
1 4.6973177160333606 -2.6864857915527622 -0 1 
1 0 -13.499999999999991 1 0 
2 3.6973177160333606 -17.249999999999993 -1 -0 0 -1 1
8 -1.1513411419833233 1.8486588580166767
1 1.8486588580166767 -13.499999999999991 -1 0 
8 -1.1513411419833233 1.8486588580166767
1 1.8486588580166838 -18.25 1 0 
8 -8.9032804714458607 -8.1164795922166668
1 -0.16757786661778434 -13.499999999999991 -1 -9.9999999999999998e-17 
8 -8.9032804714458607 -8.1164795922166668
1 -7.1933892816955236 -14.126270349644436 -0.88626961972449947 0.46316968937247099 
1 1.5707963267948961 0 0 -1 
Curves 125
2 0 -0 0 0 0 1 1 0 -0 -0 1 0 16.75
1 -15.892693841014893 5.2900645058228957 -3.75 -0 -0 -1 
2 0 -0 0 0 0 1 1 0 -0 -0 1 0 16.75
1 -11.547919440883415 -12.132932728193415 -3.75 -0 -0 -1 
2 0 0 0 0 0 1 1 0 -0 -0 1 0 15.5
1 -14.706671912580946 4.8952835725525325 0 -0.94881754274715802 0.31582474661629206 0 
1 -11.547919440883419 -12.13293272819341 0 0.68942802632139821 0.72435419272796475 0 
1 -18.739146469256369 6.2375387456717704 -3.75 -0 -0 -1 
1 -18.739146469256369 6.2375387456717712 0 0.9488175427471579 -0.31582474661629212 0 
2 0 -0 0 0 0 1 1 0 -0 -0 1 0 19.75
1 10.898402295232399 16.470802269812882 0 0.93205892335615204 0.36230672556850341 0 
1 38.5 27.199999999999999 0 0 -1 0 
1 17.356038324438341 -9.4249898504257033 0 0.73294365822720986 0.68028934569381216 0 
2 0 -0 0 0 0 1 1 0 -0 -0 1 0 19.75
1 -13.616203519847605 -14.305995306377309 0 0.68942802632139788 0.72435419272796508 0 
1 -13.616203519847607 -14.305995306377309 -3.75 -0 -0 -1 
1 -10.686134407981671 -11.227489987283453 -3.7500000000000013 -0 -0 -1 
1 -14.706671912580946 4.8952835725525325 -3.7500000000000013 -0 -0 -1 
1 10.898402295232398 16.470802269812882 -3.75 -0 -0 -1 
1 38.5 17.551186588277325 -3.7500000000000018 -0 1 0 
1 38.5 27.199999999999992 -3.75 -0 -0 -1 
1 38.5 27.199999999999992 0 1 0 0 
1 50 27.199999999999992 0 0 -1 0 
1 50 10.200000000000005 0 -1 0 0 
1 38.960623583093799 17.100000000000009 0 1 0 0 
1 38.960623583093799 13.700000000000008 0 0 1 0 
1 49.308025000000001 17.100000000000009 0 0 -1 0 
1 49.308025000000001 13.700000000000008 0 -1 0 0 
1 39.197317716033332 23.700000000000006 0 1 0 0 
1 39.197317716033332 20.300000000000008 0 0 1 0 
1 49.212853000000003 23.700000000000006 0 0 -1 0 
1 49.212853000000003 20.300000000000008 0 -1 0 0 
1 17.356038324438337 -9.4249898504257068 -3.75 -0 -0 -1 
1 38.5 10.200000000000003 -3.75 -0 -0 -1 
1 38.5 10.200000000000006 -9.7500000000000018 0 0 1 
1 38.5 10.200000000000008 14 -0 1 -2.2e-16 
1 38.5 27.199999999999996 -9.7500000000000018 0 0 1 
1 50 27.199999999999992 -3.75 -0 -0 -1 
1 50 10.200000000000006 -3.75 -0 -0 -1 
1 46.242187825607296 28.203887338071496 0 -0.88626961972449947 0.46316968937247099 0 
2 43 22 0 0 0 1 1 0 -0 -0 1 0 7.0000000000000009
1 50 10.200000000000006 -9.7500000000000018 0 0 1 
2 43 22 0 0 0 1 1 0 -0 -0 1 0 2.7999999999999998
1 38.5 14 0 -0.70710678118654757 0.70710678118654757 0 
1 35.47083751679034 10.200000000000008 17.02916248320966 -0 1 -2.2e-16 
1 37.206747999999997 13.700000000000003 15.293251999999997 -0.70710678118654757 0 0.70710678118654757 
1 38.960623583093799 17.100000000000009 0 1 0 0 
1 49.308025000000001 17.100000000000001 0 1 0 0 
1 50 22.932514873129044 13.999999999999991 0 -1 0 
1 50.668410999999999 13.700000000000003 0 -1 0 0 
1 49.308025000000001 13.700000000000008 0 -1 0 0 
1 33.326992000000004 13.700000000000003 0 1 0 0 
1 38.960623583093827 17.100000000000001 0 -1 0 0 
1 38.615155895773455 17.100000000000001 13.884844104226541 0.70710678118654757 0 -0.70710678118654757 
1 37.337243999999998 20.300000000000004 15.162755999999998 -0.70710678118654757 0 0.70710678118654757 
1 39.197317716033332 23.700000000000006 0 1 0 0 
1 49.212853000000003 23.700000000000003 0 1 0 0 
1 50 22.932514873129044 13.999999999999991 0 -1 0 
1 50.755409 20.300000000000001 0 -1 0 0 
1 49.212853000000003 20.300000000000008 0 -1 0 0 
1 33.848976 20.300000000000001 0 1 0 0 
1 39.197317716033361 23.700000000000003 0 -1 0 0 
1 38.674329429008338 23.700000000000003 13.825670570991656 0.70710678118654757 0 -0.70710678118654757 
1 50 27.199999999999992 -9.7500000000000018 0 0 1 
2 43 27.199999999999992 21.999999999999996 0 -1 2.2e-16 1 0 0 -0 2.2e-16 1 7.0000000000000009
1 50.991451626632795 27.199999999999996 25.721894284814532 0.88626961972449947 0 -0.46316968937247099 
2 43 27.199999999999992 21.999999999999996 0 -1 2.2e-16 1 0 0 -0 2.2e-16 1 2.7999999999999998
1 50 10.20000000000001 22 -0 1 -2.2e-16 
1 50 13.700000000000003 2.1249999999999991 0 -0 -1 
1 50 17.100000000000001 2.1249999999999991 0 -0 1 
1 50 20.300000000000001 2.1249999999999991 0 -0 -1 
1 50 23.700000000000003 2.1249999999999991 0 -0 1 
1 35.5 32.25 0 1 0 0 
2 37.814646616686204 19.372971583105521 0 0 0 1 1 0 -0 -0 1 0 3.3146466166862045
1 34.5 19.372971583105521 0 0 1 0 
2 35.5 31.249999999999996 0 0 0 1 1 0 -0 -0 1 0 1
1 44.085213360002541 13.700000000000003 29.331134815570572 -0.88626961972449947 0 0.46316968937247099 
1 50.361555029624704 13.70000000000001 26.051081932320383 0.88626961972449947 0 -0.46316968937247099 
1 46.242187825607296 10.200000000000012 28.203887338071496 -0 1 -2.2e-16 
2 43 13.700000000000008 22 0 -1 2.2e-16 1 0 0 -0 2.2e-16 1 7.0000000000000009
2 43 13.700000000000003 22 0 -1 2.2e-16 1 0 0 -0 2.2e-16 1 7.0000000000000009
1 45.799999999999997 10.20000000000001 22 -0 1 -2.2e-16 
2 43 13.700000000000008 22 0 -1 2.2e-16 1 0 0 -0 2.2e-16 1 2.7999999999999998
2 37.814646616686204 13.700000000000003 19.372971583105521 0 -1 2.2e-16 1 0 0 -0 2.2e-16 1 3.3146466166862045
1 34.5 10.200000000000008 19.372971583105521 -0 1 -2.2e-16 
1 38.960623583093813 13.700000000000005 14 0 0 1 
1 34.413496000000002 13.700000000000003 32.25 1 -0 0 
2 35.5 13.700000000000003 31.249999999999996 0 -1 2.2e-16 1 0 0 -0 2.2e-16 1 1
1 34.5 13.700000000000003 16.686485791552762 0 -0 1 
1 49.308025000000001 17.100000000000005 14 0 0 1 
2 43 17.100000000000009 22 0 -1 2.2e-16 1 0 0 -0 2.2e-16 1 7.0000000000000009
1 46.297748473112627 17.100000000000009 28.174851018565953 -0.88626961972449947 0 0.46316968937247099 
1 38.960623583093813 17.100000000000005 14 0 0 1 
2 43 17.100000000000009 22 0 -1 2.2e-16 1 0 0 -0 2.2e-16 1 2.7999999999999998
2 43 17.100000000000001 22 0 -1 2.2e-16 1 0 0 -0 2.2e-16 1 7.0000000000000009
1 49.308025000000001 13.700000000000006 14 0 0 1 
2 37.814646616686204 17.100000000000001 19.372971583105521 0 -1 2.2e-16 1 0 0 -0 2.2e-16 1 3.3146466166862045
1 34.5 17.100000000000001 16.686485791552762 0 -0 -1 
2 35.5 17.100000000000001 31.249999999999996 0 -1 2.2e-16 1 0 0 -0 2.2e-16 1 1
1 37.23031179154691 17.100000000000001 32.25 -1 -0 0 
1 46.297748473112634 17.100000000000001 28.174851018565946 0.88626961972449947 0 -0.46316968937247099 
2 37.814646616686204 20.300000000000001 19.372971583105517 0 -1 2.2e-16 1 0 0 -0 2.2e-16 1 3.3146466166862045
1 39.197317716033346 20.300000000000004 14 0 0 1 
1 44.290215748150786 20.300000000000004 29.223999367930208 -0.88626961972449947 0 0.46316968937247099 
1 34.674487999999997 20.300000000000001 32.25 1 -0 0 
2 35.5 20.300000000000001 31.249999999999993 0 -1 2.2e-16 1 0 0 -0 2.2e-16 1 1
1 34.5 20.300000000000001 16.686485791552762 0 -0 1 
1 49.212853000000003 23.700000000000003 14 0 0 1 
2 43 23.700000000000006 21.999999999999996 0 -1 2.2e-16 1 0 0 -0 2.2e-16 1 7.0000000000000009
1 46.39070699772887 23.70000000000001 28.126270349644443 -0.88626961972449947 0 0.46316968937247099 
1 39.197317716033346 23.700000000000003 14 0 0 1 
2 43 23.700000000000006 21.999999999999996 0 -1 2.2e-16 1 0 0 -0 2.2e-16 1 2.7999999999999998
2 43 23.700000000000003 21.999999999999996 0 -1 2.2e-16 1 0 0 -0 2.2e-16 1 7.0000000000000009
1 49.212853000000003 20.300000000000004 14 0 0 1 
2 43 20.300000000000001 21.999999999999996 0 -1 2.2e-16 1 0 0 -0 2.2e-16 1 7.0000000000000009
1 50.324177471529353 20.300000000000011 26.070615662899918 0.88626961972449947 0 -0.46316968937247099 
2 43 20.300000000000008 21.999999999999996 0 -1 2.2e-16 1 0 0 -0 2.2e-16 1 7.0000000000000009
2 43 20.300000000000008 21.999999999999996 0 -1 2.2e-16 1 0 0 -0 2.2e-16 1 2.7999999999999998
2 37.814646616686204 23.700000000000003 19.372971583105517 0 -1 2.2e-16 1 0 0 -0 2.2e-16 1 3.3146466166862045
1 34.5 23.700000000000003 16.686485791552762 0 -0 -1 
2 35.5 23.700000000000003 31.249999999999993 0 -1 2.2e-16 1 0 0 -0 2.2e-16 1 1
1 37.348658858016677 23.700000000000003 32.25 -1 -0 0 
1 46.390706997728884 23.700000000000003 28.126270349644436 0.88626961972449947 0 -0.46316968937247099 
1 35.5 10.200000000000012 32.25 -0 1 -2.2e-16 
1 34.5 10.200000000000012 31.249999999999996 -0 1 -2.2e-16 
Polygon3D 0
PolygonOnTriangulations 0
Surfaces 45
2 0 -0 -3.75 0 0 1 1 0 -0 -0 1 0 16.75
2 0 -0 -3.7500000000000013 0 0 1 1 0 -0 -0 1 0 16.75
1 2.1547610111705024 0.53733294874528814 -3.7500000000000013 0 0 1 1 0 -0 -0 1 0 
2 0 0 -3.7500000000000013 0 0 1 1 0 -0 -0 1 0 15.5
1 -18.739146469256369 6.2375387456717712 -3.75 -0.31582474661629212 -0.9488175427471579 0 0.9488175427471579 -0.31582474661629212 0 0 0 1 
2 0 -0 -3.75 0 0 1 1 0 -0 -0 1 0 19.75
1 18.958022936786499 7.9023731765546508 -3.7500000000000013 0 0 1 1 0 -0 -0 1 0 
2 0 -0 -3.75 0 0 1 1 0 -0 -0 1 0 19.75
1 -13.616203519847605 -14.305995306377309 -3.75 0.72435419272796508 -0.68942802632139788 0 0.68942802632139788 0.72435419272796508 0 -0 0 1 
1 -14.706671912580946 4.8952835725525325 -3.7500000000000013 0.31582474661629206 0.94881754274715802 -0 -0.94881754274715802 0.31582474661629206 0 0 0 1 
1 -11.547919440883419 -12.13293272819341 -3.7500000000000013 0.72435419272796475 -0.68942802632139821 0 0.68942802632139821 0.72435419272796475 0 -0 0 1 
1 38.5 27.199999999999999 -9.7500000000000018 1 0 -0 0 -1 0 0 -0 -1 
1 10.898402295232399 16.470802269812882 -3.75 0.36230672556850341 -0.93205892335615204 0 0.93205892335615204 0.36230672556850341 0 -0 0 1 
1 38.5 27.199999999999992 -3.75 0 -1 0 1 0 0 -0 0 1 
1 50 10.200000000000005 -3.75 0 1 -0 -1 0 0 0 0 1 
1 17.356038324438341 -9.4249898504257033 -3.75 0.68028934569381216 -0.73294365822720986 0 0.73294365822720986 0.68028934569381216 0 -0 0 1 
1 38.5 27.199999999999999 -9.7500000000000018 1 0 0 0 -1 0 0 0 -1 
1 50 27.199999999999992 -3.75 -1 0 0 0 -1 0 0 0 1 
1 44.25 18.699999999999999 -3.7500000000000013 0 0 1 1 0 -0 -0 1 0 
1 50 10.200000000000005 -9.7500000000000018 0 -1 0 -1 0 0 -0 -0 -1 
2 43 10.20000000000001 22 0 -1 2.2e-16 1 0 0 -0 2.2e-16 1 7.0000000000000009
2 43 10.20000000000001 22 0 -1 2.2e-16 1 0 0 -0 2.2e-16 1 2.7999999999999998
1 38.5 10.200000000000008 14 0.70710678118654757 1.6000000000000001e-16 0.70710678118654757 -0.70710678118654757 1.6000000000000001e-16 0.70710678118654757 0 -1 2.2627416997969518e-16 
2 37.814646616686204 10.200000000000008 19.372971583105521 0 -1 2.2e-16 1 0 0 -0 2.2e-16 1 3.3146466166862045
1 33.326992000000004 13.700000000000003 14 0 1 0 1 0 0 0 0 -1 
1 42.148333647343584 18.665029746258096 13.999999999999991 0 0 1 1 0 -0 -0 1 0 
1 50 27.199999999999992 -9.7500000000000018 1 0 -0 0 -1 0 0 -0 -1 
1 38.960623583093827 17.100000000000001 14 0 -1 0 -1 0 0 -0 -0 -1 
1 33.848976 20.300000000000001 14 0 1 0 1 0 0 0 0 -1 
1 42.148333647343584 18.665029746258096 13.999999999999991 0 0 1 1 0 -0 -0 1 0 
1 39.197317716033361 23.700000000000003 14 0 -1 0 -1 0 0 -0 -0 -1 
1 38.5 27.199999999999992 -9.7500000000000018 0 1 0 1 0 0 0 0 -1 
1 46.242187825607296 10.200000000000012 28.203887338071496 0.46316968937247099 2e-16 0.88626961972449947 -0.88626961972449947 9.9999999999999998e-17 0.46316968937247099 4.0069759020442437e-18 -1 2.2357089288214694e-16 
1 50.668410999999999 13.700000000000003 14 0 -1 0 -1 0 0 -0 -0 -1 
1 49.308025000000001 17.100000000000001 14 0 1 0 1 0 0 0 0 -1 
1 50.755409 20.300000000000001 14 0 -1 0 -1 0 0 -0 -0 -1 
1 49.212853000000003 23.700000000000003 14 0 1 0 1 0 0 0 0 -1 
1 36.728991518441461 10.200000000000012 23.639798147717837 0 1 0 0 -0 1 1 0 -0 
2 35.5 10.200000000000012 31.249999999999996 0 -1 2.2e-16 1 0 0 -0 2.2e-16 1 1
1 49.308025000000001 13.700000000000008 14 0 -1 0 -1 0 0 -0 -0 -1 
1 34.5 10.200000000000008 19.372971583105521 1 0 -0 0 2.2e-16 1 0 -1 2.2e-16 
1 35.5 10.200000000000012 32.25 0 -2.2e-16 -1 1 0 0 0 -1 2.2e-16 
1 38.960623583093799 17.100000000000009 14 0 1 0 1 0 0 0 0 -1 
1 49.212853000000003 20.300000000000008 14 0 -1 0 -1 0 0 -0 -0 -1 
1 39.197317716033332 23.700000000000006 14 0 1 0 1 0 0 0 0 -1 
Triangulations 0

TShapes 398
Ve
1e-07
-11.5479194408834 -12.1329327281934 -7
0 0

0101101
*
Ve
1e-07
-15.8926938410149 5.2900645058229 -7
0 0

0101101
*
Ed
 1e-07 1 1 0
1  1 0 3.951689857262 9.10345219606012
2  1 2 5 3.951689857262 9.10345219606012
2  2 2 6 3.951689857262 9.10345219606012
2  3 1 6 3.951689857262 9.10345219606012
0

0101000
+398 6 -397 6 *
Ve
1e-07
-15.8926938410149 5.2900645058229 0
0 0

0101101
*
Ed
 1e-07 1 1 0
1  2 0 3.25 6
2  4 1 0 3.25 6
0

0101000
+397 0 -395 10 *
Ve
1e-07
-11.5479194408834 -12.1329327281934 0
0 0

0101101
*
Ed
 1e-07 1 1 0
1  3 0 3.951689857262 9.10345219606012
2  1 1 11 3.951689857262 9.10345219606012
2  5 1 12 3.951689857262 9.10345219606012
0

0101000
+393 0 -395 0 *
Ed
 1e-07 1 1 0
1  4 0 3.25 6
2  6 1 0 3.25 6
0

0101000
+398 0 -393 10 *
Wi

0101100
-396 4 -394 0 +392 10 +391 0 *
Fa
0  1e-07 1 0

0111000
+390 0 *
Ve
1e-07
-10.6861344079817 -11.2274899872835 0
0 0

0101101
*
Ve
1e-07
-14.7066719125809 4.89528357255253 0
0 0

0101101
*
Ed
 1e-07 1 1 0
1  5 0 3.951689857262 9.10345219606012
2  1 4 5 3.951689857262 9.10345219606012
2  2 4 6 3.951689857262 9.10345219606012
0

0101000
+388 0 -387 0 *
Ed
 1e-07 1 1 0
1  6 0 0 1.25
0

0101000
+387 0 -397 6 *
Ed
 1e-07 1 1 0
1  7 0 0 1.25
0

0101000
+398 6 -388 0 *
Wi

0101100
+386 4 +385 4 -396 4 +384 4 *
Fa
0  1e-07 3 3

0111000
-383 0 *
Ve
1e-07
-18.7391464692564 6.23753874567177 0
0 0

0101101
*
Ed
 1e-07 1 1 0
1  8 0 0 6
2  7 6 0 0 6
0

0101000
+381 13 -381 10 *
Ve
1e-07
-15.8926938410149 5.2900645058229 -3.75
0 0

0101101
*
Ed
 1e-07 1 1 0
1  2 0 0 3.25
2  4 1 0 0 3.25
2  8 2 0 0 3.25
0

0101000
+379 0 -397 0 *
Ed
 1e-07 1 1 0
1  9 0 0 3
0

0101000
+381 0 -379 11 *
Ed
 1e-07 1 1 0
1  9 0 0 3
0

0101000
+381 0 -395 0 *
Wi

0101100
+380 0 -378 0 -394 0 -377 13 +376 10 *
Fa
0  1e-07 5 0

0111000
+375 0 *
Ve
1.00000001e-07
10.8984022952324 16.4708022698129 0
0 0

0101101
*
Ed
 1e-07 1 1 0
1  10 0 0.986253902987052 2.82026688888053
2  1 6 11 0.986253902987052 2.82026688888053
2  5 6 12 0.986253902987052 2.82026688888053
0

0101000
+373 0 -381 0 *
Ve
1e-07
38.5 27.2 -9.75
0 0

0101101
*
Ed
 1e-07 1 1 0
1  11 0 0 29.6135759372164
0

0101000
+373 0 -371 12 *
Ve
1e-07
38.5 10.2 -9.75
0 0

0101101
*
Ed
 1e-07 1 1 0
1  12 0 0 17
0

0101000
+371 18 -369 18 *
Ve
1.00000004e-07
17.3560383244383 -9.42498985042571 0
0 0

0101101
*
Ed
 1e-07 1 1 0
1  13 0 0 28.8480041244959
0

0101000
+367 0 -369 12 *
Ve
1e-07
-13.6162035198476 -14.3059953063773 0
0 0

0101101
*
Ed
 1e-07 1 1 0
1  14 0 3.951689857262 5.78570284315548
2  1 8 11 3.951689857262 5.78570284315548
2  5 8 12 3.951689857262 5.78570284315548
0

0101000
+365 0 -367 0 *
Ed
 1e-07 1 1 0
1  15 0 0 3
0

0101000
+365 0 -393 0 *
Wi

0101100
-392 10 +376 10 +372 10 -370 10 -368 17 +366 10 +364 10 -363 10 *
Fa
0  1e-07 7 9

0111000
+362 0 *
Ed
 1e-07 1 1 0
1  16 0 0 6
2  6 8 0 0 6
0

0101000
+365 13 -365 10 *
Ve
1e-07
-11.5479194408834 -12.1329327281934 -3.75
0 0

0101101
*
Ed
 1e-07 1 1 0
1  4 0 0 3.25
2  6 1 0 0 3.25
2  9 2 0 0 3.25
0

0101000
+359 0 -398 0 *
Ed
 1e-07 1 1 0
1  15 0 0 3
0

0101000
+365 0 -359 11 *
Wi

0101100
+360 0 -358 0 -391 0 -357 13 +363 10 *
Fa
0  1e-07 9 0

0111000
+356 0 *
Ed
 1e-07 1 1 0
1  17 0 0 3.25
2  10 4 0 0 3.25
0

0101000
+388 19 -388 4 *
Ed
 1e-07 1 1 0
1  18 0 0 3.25
2  4 4 0 0 3.25
0

0101000
+387 19 -387 4 *
Wi

0101100
+354 0 -353 0 -386 19 +386 4 *
Fa
0  1e-07 4 0

0111000
+352 0 *
Ed
 1e-07 1 1 0
1  6 0 0 1.25
0

0101000
+387 0 -379 5 *
Wi

0101100
+353 0 -378 0 -350 19 +385 4 *
Fa
0  1e-07 10 0

0111000
+349 0 *
Ed
 1e-07 1 1 0
1  7 0 0 1.25
0

0101000
+359 5 -388 0 *
Wi

0101100
+358 0 -354 0 -347 19 +384 4 *
Fa
0  1e-07 11 0

0111000
+346 0 *
Ed
 1.00000001e-07 1 1 0
1  19 0 0 6
2  11 6 0 0 6
0

0101000
+373 13 -373 10 *
Wi

0101100
+344 0 -380 0 -372 13 +372 10 *
Fa
0  1e-07 6 0

0111000
+343 0 *
Ed
 1e-07 1 1 0
1  3 0 3.951689857262 9.10345219606012
2  1 1 11 3.951689857262 9.10345219606012
2  5 1 12 3.951689857262 9.10345219606012
2  12 2 11 3.951689857262 9.10345219606012
0

0101000
+359 11 -379 11 *
Ve
2.12133034e-07
38.5 27.2 -3.75
0 0

0101101
*
Ed
 1e-07 1 1 0
1  11 0 0 29.6135759372164
0

0101000
+373 0 -340 11 *
Ve
2.12133034e-07
38.5 10.2 -3.75
0 0

0101101
*
Ed
 1.5e-07 1 1 0
1  20 0 -7.35118658827732 9.64881341172267
2  13 7 0 -7.35118658827732 9.64881341172267
2  14 12 0 -7.35118658827732 9.64881341172267
0

0101000
+338 0 -340 0 *
Ed
 1e-07 1 1 0
1  13 0 0 28.8480041244959
0

0101000
+367 0 -338 11 *
Wi

0101100
-341 13 +377 13 +372 13 -339 13 +337 0 +336 13 +364 13 -357 13 *
Fa
0  1e-07 7 0

0111000
+335 0 *
Ed
 1.00000007e-07 1 1 0
1  21 0 0 6
2  15 14 0 0 6
0

0101000
+340 0 -371 0 *
Wi

0101100
+344 0 -333 0 -339 13 +370 10 *
Fa
0  1e-07 13 0

0111000
+332 0 *
Ve
1.00000002e-07
50 27.2 -9.75
0 0

0101101
*
Ed
 1.00000002e-07 1 1 0
1  22 0 0 11.5
2  5 14 12 0 11.5
0

0101000
+371 12 -330 12 *
Ve
1.00000002e-07
50 10.2 -9.75
0 0

0101101
*
Ed
 1.00000002e-07 1 1 0
1  23 0 0 17
0

0101000
+330 12 -328 12 *
Ed
 1.00000002e-07 1 1 0
1  24 0 0 11.5
2  5 15 12 0 11.5
0

0101000
+328 12 -369 12 *
Wi

0101100
+368 17 -329 10 -327 10 -326 10 *
Ve
1e-07
38.9606235830938 17.1 -9.75
0 0

0101101
*
Ve
1e-07
49.308025 17.1 -9.75
0 0

0101101
*
Ed
 1e-07 1 1 0
1  25 0 0 10.3474014169062
0

0101000
+324 12 -323 12 *
Ve
1e-07
38.9606235830938 13.7 -9.75
0 0

0101101
*
Ed
 1e-07 1 1 0
1  26 0 0 3.4
0

0101000
+321 12 -324 12 *
Ve
1e-07
49.308025 13.7 -9.75
0 0

0101101
*
Ed
 1e-07 1 1 0
1  27 0 0 3.4
0

0101000
+323 12 -319 12 *
Ed
 1e-07 1 1 0
1  28 0 0 10.3474014169062
0

0101000
+319 12 -321 12 *
Wi

0101100
+322 10 +320 10 +318 10 +317 10 *
Ve
1e-07
39.1973177160333 23.7 -9.75
0 0

0101101
*
Ve
1e-07
49.212853 23.7 -9.75
0 0

0101101
*
Ed
 1e-07 1 1 0
1  29 0 0 10.0155352839667
0

0101000
+315 12 -314 12 *
Ve
1e-07
39.1973177160333 20.3 -9.75
0 0

0101101
*
Ed
 1e-07 1 1 0
1  30 0 0 3.4
0

0101000
+312 12 -315 12 *
Ve
1e-07
49.212853 20.3 -9.75
0 0

0101101
*
Ed
 1e-07 1 1 0
1  31 0 0 3.4
0

0101000
+314 12 -310 12 *
Ed
 1e-07 1 1 0
1  32 0 0 10.0155352839667
0

0101000
+310 12 -312 12 *
Wi

0101100
+313 10 +311 10 +309 10 +308 10 *
Fa
0  1e-07 7 9

0111000
+325 0 +316 0 +307 0 *
Ed
 1.00000004e-07 1 1 0
1  33 0 0 6
2  16 8 0 0 6
0

0101000
+367 13 -367 10 *
Ed
 1.00000004e-07 1 1 0
1  34 0 0 6
2  17 15 0 0 6
0

0101000
+338 0 -369 0 *
Wi

0101100
+305 0 -304 0 -336 13 +366 10 *
Fa
0  1e-07 16 0

0111000
+303 0 *
Wi

0101100
+360 0 -305 0 -364 13 +364 10 *
Fa
0  1e-07 8 0

0111000
+301 0 *
Wi

0101100
+386 19 +350 19 -341 13 +347 19 *
Fa
0  1e-07 3 0

0111000
-299 0 *
Ve
1e-07
38.5 10.2 14
0 0

0101101
*
Ed
 1.00000001e-07 1 1 0
1  35 0 6 23.75
0

0101000
+338 0 -297 0 *
Ve
1e-07
38.5 13.7 14
0 0

0101101
*
Ed
 1e-07 1 1 0
1  36 0 0 3.5
0

0101000
+297 0 -295 0 *
Ve
1e-07
38.5 17.1 14
0 0

0101101
*
Ed
 1e-07 1 1 0
1  36 0 3.5 6.89999999999999
2  18 17 24 3.5 6.89999999999999
0

0101000
+295 0 -293 0 *
Ve
1e-07
38.5 20.3 14
0 0

0101101
*
Ed
 1e-07 1 1 0
1  36 0 6.89999999999999 10.1
0

0101000
+293 0 -291 0 *
Ve
1e-07
38.5 23.7 14
0 0

0101101
*
Ed
 1e-07 1 1 0
1  36 0 10.1 13.5
2  18 17 24 10.1 13.5
0

0101000
+291 0 -289 0 *
Ve
1e-07
38.5 27.2 14
0 0

0101101
*
Ed
 1e-07 1 1 0
1  36 0 13.5 17
0

0101000
+289 0 -287 0 *
Ed
 1.00000004e-07 1 1 0
1  37 0 6 23.75
0

0101000
+340 0 -287 0 *
Wi

0101100
-296 0 -294 0 -292 0 -290 0 -288 0 -286 0 +285 0 +337 0 *
Fa
0  1e-07 12 0

0111000
+284 0 *
Ve
1e-07
50 27.2 -3.75
0 0

0101101
*
Ed
 1e-07 1 1 0
1  38 0 0 6
2  17 14 0 0 6
0

0101000
+282 0 -330 0 *
Ed
 1e-07 1 1 0
1  22 0 0 11.5
2  1 14 11 0 11.5
0

0101000
+340 11 -282 11 *
Wi

0101100
+333 0 -281 0 -280 13 +329 10 *
Fa
0  1e-07 14 0

0111000
+279 0 *
Ve
1.00000001e-07
50 10.2 -3.75
0 0

0101101
*
Ed
 1.00000001e-07 1 1 0
1  39 0 0 6
2  15 15 0 0 6
0

0101000
+277 0 -328 0 *
Ed
 1e-07 1 1 0
1  23 0 0 17
0

0101000
+282 11 -277 11 *
Wi

0101100
+281 0 -276 0 -275 13 +327 10 *
Fa
0  1e-07 18 0

0111000
+274 0 *
Ed
 1e-07 1 1 0
1  24 0 0 11.5
2  1 15 11 0 11.5
0

0101000
+277 11 -338 11 *
Wi

0101100
+276 0 -304 0 -272 13 +326 10 *
Fa
0  1e-07 15 0

0111000
+271 0 *
Wi

0101100
-322 10 -318 10 -317 10 -320 10 *
Fa
0  1e-07 19 16

0111000
+269 0 *
Wi

0101100
-313 10 -309 10 -308 10 -311 10 *
Fa
0  1e-07 19 16

0111000
+267 0 *
Ve
1.00000011e-07
38.5 10.2 32.25
0 0

0101101
*
Ed
 1.00000005e-07 1 1 0
1  35 0 23.75 42
0

0101000
+297 0 -265 0 *
Ve
1.00000007e-07
46.2421878256073 10.2 28.2038873380715
0 0

0101101
*
Ed
 1.00000007e-07 1 1 0
1  40 0 0 8.73570260482807
0

0101000
+263 28 -265 28 *
Ve
1.00000009e-07
50 10.2 22
0 0

0101101
*
Ed
 1.00000007e-07 1 1 0
1  41 0 0 1.0892280175972
2  1 21 28 0 1.0892280175972
2  19 21 30 0 1.0892280175972
0

0101000
+261 28 -263 28 *
Ed
 1.00000001e-07 1 1 0
1  42 0 6 31.75
0

0101000
+277 0 -261 0 *
Wi

0101100
-272 13 -296 0 -264 0 +262 27 +260 27 +259 0 *
Ve
1.00000005e-07
45.8 10.2 22
0 0

0101101
*
Ed
 1.00000005e-07 1 1 0
1  43 0 0 6.28318530717959
2  1 22 28 0 6.28318530717959
2  19 22 30 0 6.28318530717959
0

0101000
+257 28 -257 28 *
Wi

0101100
-256 27 *
Fa
0  1e-07 20 0

0111000
+258 0 +255 0 *
Ve
1e-07
35.4708375167903 17.0291624832097 0
0 0

0101101
*
Ed
 1e-07 1 1 0
1  44 0 0 4.28388266638686
0

0101000
+297 34 -253 0 *
Ve
1e-07
35.4708375167903 13.7 17.0291624832097
0 0

0101101
*
Ed
 1e-07 1 1 0
1  45 0 0 3.5
2  20 24 0 0 3.5
4 G1 23 0 24 0
0

0101000
+253 33 -251 0 *
Ed
 1e-07 1 1 0
1  46 0 -1.82893451796613 2.45494814842074
2  21 23 0 -1.82893451796613 2.45494814842074
2  22 25 0 -1.82893451796613 2.45494814842074
0

0101000
+295 0 -251 0 *
Wi

0101100
-252 33 -250 0 +249 0 +294 0 *
Fa
0  1e-07 23 0

0111000
+248 0 *
Ve
1e-07
38.9606235830938 17.1 0
0 0

0101101
*
Ve
1e-07
49.308025 17.1 0
0 0

0101101
*
Ed
 1e-07 1 1 0
1  47 0 0 10.3474014169062
0

0101000
+246 0 -245 0 *
Ve
1e-07
50 17.1 14
0 0

0101101
*
Ed
 1e-07 1 1 0
1  48 0 0 0.691974999999999
0

0101000
+245 0 -243 38 *
Ve
1e-07
50 13.7 14
0 0

0101101
*
Ed
 1e-07 1 1 0
1  49 0 5.83251487312903 9.23251487312904
2  23 27 0 5.83251487312903 9.23251487312904
2  24 26 0 5.83251487312903 9.23251487312904
0

0101000
+243 0 -241 0 *
Ve
1e-07
49.308025 13.7 0
0 0

0101101
*
Ed
 1e-07 1 1 0
1  50 0 0.668410999999999 1.360386
0

0101000
+241 38 -239 0 *
Ve
1e-07
38.9606235830938 13.7 0
0 0

0101101
*
Ed
 1e-07 1 1 0
1  51 0 0 10.3474014169062
0

0101000
+239 0 -237 0 *
Ed
 1e-07 1 1 0
1  52 0 5.173008 5.63363158309382
0

0101000
+295 38 -237 0 *
Ed
 1e-07 1 1 0
1  53 0 0 0.460623583093827
0

0101000
+246 0 -293 38 *
Wi

0101100
-244 37 -242 37 -240 0 -238 37 -236 37 +235 37 -292 0 +234 37 *
Fa
0  1e-07 26 0

0111000
+233 0 *
Ve
1e-07
35.4708375167903 17.1 17.0291624832097
0 0

0101101
*
Ed
 1e-07 1 1 0
1  54 0 -4.44673769597691 -0.162855029590048
2  25 23 0 -4.44673769597691 -0.162855029590048
2  26 28 0 -4.44673769597691 -0.162855029590048
0

0101000
+231 0 -293 0 *
Ve
1e-07
35.4708375167903 20.3 17.0291624832097
0 0

0101101
*
Ed
 1e-07 1 1 0
1  45 0 6.89999999999999 10.1
2  20 24 0 6.89999999999999 10.1
4 G1 23 0 24 0
0

0101000
+231 0 -229 0 *
Ed
 1e-07 1 1 0
1  55 0 -1.64438530493069 2.63949736145617
2  27 23 0 -1.64438530493069 2.63949736145617
2  28 29 0 -1.64438530493069 2.63949736145617
0

0101000
+291 0 -229 0 *
Wi

0101100
+230 0 -228 0 +227 0 +290 0 *
Fa
0  1e-07 23 0

0111000
+226 0 *
Ve
1e-07
39.1973177160333 23.7 0
0 0

0101101
*
Ve
1e-07
49.212853 23.7 0
0 0

0101101
*
Ed
 1e-07 1 1 0
1  56 0 0 10.0155352839667
0

0101000
+224 0 -223 0 *
Ve
1e-07
50 23.7 14
0 0

0101101
*
Ed
 1e-07 1 1 0
1  57 0 0 0.787146999999997
0

0101000
+223 0 -221 38 *
Ve
1e-07
50 20.3 14
0 0

0101101
*
Ed
 1e-07 1 1 0
1  58 0 -0.767485126870962 2.63251487312904
2  29 27 0 -0.767485126870962 2.63251487312904
2  30 30 0 -0.767485126870962 2.63251487312904
0

0101000
+221 0 -219 0 *
Ve
1e-07
49.212853 20.3 0
0 0

0101101
*
Ed
 1e-07 1 1 0
1  59 0 0.755409 1.542556
0

0101000
+219 38 -217 0 *
Ve
1e-07
39.1973177160333 20.3 0
0 0

0101101
*
Ed
 1e-07 1 1 0
1  60 0 0 10.0155352839667
0

0101000
+217 0 -215 0 *
Ed
 1e-07 1 1 0
1  61 0 4.651024 5.34834171603336
0

0101000
+291 38 -215 0 *
Ed
 1e-07 1 1 0
1  62 0 0 0.697317716033361
0

0101000
+224 0 -289 38 *
Wi

0101100
-222 37 -220 37 -218 0 -216 37 -214 37 +213 37 -288 0 +212 37 *
Fa
0  1e-07 30 0

0111000
+211 0 *
Ve
1e-07
35.4708375167903 23.7 17.0291624832097
0 0

0101101
*
Ed
 1e-07 1 1 0
1  63 0 -4.53042170921122 -0.246539042824357
2  31 23 0 -4.53042170921122 -0.246539042824357
2  32 31 0 -4.53042170921122 -0.246539042824357
0

0101000
+209 0 -289 0 *
Ed
 1e-07 1 1 0
1  45 0 13.5 17
2  20 24 0 13.5 17
4 G1 23 0 24 0
0

0101000
+209 0 -253 40 *
Ed
 1e-07 1 1 0
1  44 0 0 4.28388266638686
0

0101000
+287 41 -253 0 *
Wi

0101100
+208 0 -207 0 +206 40 +286 0 *
Fa
0  1e-07 23 0

0111000
+205 0 *
Ve
1.00000004e-07
50 27.2 22
0 0

0101101
*
Ed
 1e-07 1 1 0
1  64 0 6 31.75
0

0101000
+282 0 -203 0 *
Ve
1.50000008e-07
46.2421878256073 27.2 28.2038873380715
0 0

0101101
*
Ed
 1e-07 1 1 0
1  65 0 0 1.0892280175972
2  33 32 0 0 1.0892280175972
2  34 21 0 0 1.0892280175972
0

0101000
+203 0 -201 0 *
Ve
2.12133034e-07
38.5 27.2 32.25
0 0

0101101
*
Ed
 1.5e-07 1 1 0
1  66 0 -14.0944147792359 -5.35871217440786
2  35 32 0 -14.0944147792359 -5.35871217440786
2  36 33 0 -14.0944147792359 -5.35871217440786
0

0101000
+199 0 -201 0 *
Ed
 1.00000014e-07 1 1 0
1  37 0 23.75 42
0

0101000
+287 0 -199 0 *
Wi

0101100
-280 13 -202 0 -200 0 +198 0 +197 0 +285 0 *
Ve
1e-07
45.8 27.2 22
0 0

0101101
*
Ed
 1e-07 1 1 0
1  67 0 0 6.28318530717959
2  37 32 0 0 6.28318530717959
2  34 22 0 0 6.28318530717959
0

0101100
+195 0 -195 0 *
Wi

0101100
+194 0 *
Fa
0  1e-07 32 0

0111000
+196 0 +193 0 *
Ve
1e-07
50 13.7 22
0 0

0101101
*
Ed
 1e-07 1 1 0
1  68 0 0 3.49999999999999
2  38 21 0 0 3.49999999999999
0

0101000
+261 0 -191 0 *
Ed
 1e-07 1 1 0
1  69 0 -19.875 -11.875
2  39 27 0 -19.875 -11.875
2  40 34 0 -19.875 -11.875
0

0101000
+191 0 -241 0 *
Ve
1e-07
50 17.1 22
0 0

0101101
*
Ed
 1e-07 1 1 0
1  70 0 11.875 19.875
2  41 27 0 11.875 19.875
2  42 35 0 11.875 19.875
0

0101000
+243 0 -188 0 *
Ve
1e-07
50 20.3 22
0 0

0101101
*
Ed
 1e-07 1 1 0
1  68 0 6.89999999999999 10.1
2  38 21 0 6.89999999999999 10.1
0

0101000
+188 0 -186 0 *
Ed
 1e-07 1 1 0
1  71 0 -19.875 -11.875
2  43 27 0 -19.875 -11.875
2  44 36 0 -19.875 -11.875
0

0101000
+186 0 -219 0 *
Ve
1e-07
50 23.7 22
0 0

0101101
*
Ed
 1e-07 1 1 0
1  72 0 11.875 19.875
2  45 27 0 11.875 19.875
2  46 37 0 11.875 19.875
0

0101000
+221 0 -183 0 *
Ed
 1e-07 1 1 0
1  68 0 13.5 17
2  38 21 0 13.5 17
0

0101000
+183 0 -203 0 *
Wi

0101100
-275 13 -259 0 -190 0 -189 0 +240 0 -187 0 -185 0 -184 0 +218 0 -182 0 
-181 0 +202 0 *
Fa
0  1e-07 27 0

0111000
+180 0 *
Ve
1e-07
35.5 32.25 0
0 0

0101101
*
Ed
 1e-07 1 1 0
1  73 0 0 3
0

0101000
+178 0 -265 34 *
Ve
1e-07
34.5 19.3729715831055 0
0 0

0101101
*
Ed
 1e-07 1 1 0
1  74 0 3.14159265358979 3.92699081698724
2  1 24 34 3.14159265358979 3.92699081698724
2  47 24 41 3.14159265358979 3.92699081698724
0

0101000
+176 0 -253 0 *
Ve
1e-07
34.5 31.25 0
0 0

0101101
*
Ed
 1e-07 1 1 0
1  75 0 0 11.8770284168945
0

0101000
+176 0 -174 0 *
Ed
 1e-07 1 1 0
1  76 0 1.5707963267949 3.14159265358979
2  1 39 34 1.5707963267949 3.14159265358979
2  47 39 41 1.5707963267949 3.14159265358979
0

0101000
+178 0 -174 0 *
Wi

0101100
+177 33 -264 0 +252 33 -175 33 +173 33 -172 33 *
Fa
0  1e-07 38 0

0111000
+171 0 *
Ve
1.5e-07
38.5 13.7 32.25
0 0

0101101
*
Ed
 1e-07 1 1 0
1  12 0 13.5 17
0

0101000
+169 44 -265 44 *
Ve
1.50000021e-07
38.9606235830938 13.7 32.0092754200855
0 0

0101101
*
Ed
 1.5e-07 1 1 0
1  77 0 5.7822017847139 6.30193480144194
2  48 33 0 5.7822017847139 6.30193480144194
2  49 25 0 5.7822017847139 6.30193480144194
0

0101000
+167 0 -169 0 *
Ve
1.50000002e-07
46.2421878256073 13.7 28.2038873380715
0 0

0101101
*
Ed
 1.5e-07 1 1 0
1  78 0 -12.8639538045713 -4.6479842164712
2  50 33 0 -12.8639538045713 -4.6479842164712
2  51 40 0 -12.8639538045713 -4.6479842164712
0

0101000
+167 0 -165 0 *
Ed
 1e-07 1 1 0
1  79 0 0 3.5
2  52 21 0 0 3.5
4 G1 21 0 33 0
0

0101000
+263 0 -165 0 *
Wi

0101100
-262 27 +168 43 +166 0 -164 0 +163 0 *
Fa
0  1e-07 33 0

0111000
+162 0 *
Ve
1e-07
49.308025 13.7 25.0346038620181
0 0

0101101
*
Ed
 1e-07 1 1 0
1  80 0 0.448389540879633 1.0892280175972
2  53 21 0 0.448389540879633 1.0892280175972
2  54 40 0 0.448389540879633 1.0892280175972
0

0101000
+160 0 -165 0 *
Ed
 1e-07 1 1 0
1  81 0 0 0.448389540879633
2  55 21 0 0 0.448389540879633
2  56 34 0 0 0.448389540879633
0

0101000
+191 0 -160 0 *
Wi

0101100
-260 27 -163 0 +159 0 +158 0 +190 0 *
Fa
0  1e-07 21 0

0111000
+157 0 *
Ve
1e-07
45.8 13.7 22
0 0

0101101
*
Ed
 1e-07 1 1 0
1  82 0 0 3.5
3  15 57CN 22 0 0 3.5
0

0101000
+257 0 -155 0 *
Ed
 1e-07 1 1 0
1  83 0 0 6.28318530717959
2  53 22 0 0 6.28318530717959
2  58 40 0 0 6.28318530717959
0

0101100
+155 0 -155 0 *
Wi

0101100
-154 0 +153 0 +154 0 -256 27 *
Fa
0  1e-07 22 0

0111000
+152 0 *
Ve
1e-07
34.5 13.7 19.3729715831055
0 0

0101101
*
Ed
 1e-07 1 1 0
1  84 0 3.14159265358979 3.92699081698724
2  59 24 0 3.14159265358979 3.92699081698724
2  60 25 0 3.14159265358979 3.92699081698724
0

0101000
+150 0 -251 0 *
Ed
 1e-07 1 1 0
1  85 0 0 3.5
2  61 24 0 0 3.5
4 G1 24 0 41 0
0

0101000
+176 33 -150 0 *
Wi

0101100
-175 33 -250 0 +149 0 +148 0 *
Fa
0  1e-07 24 0

0111000
+147 0 *
Ed
 1.00000014e-07 1 1 0
1  86 0 0 18.0092754200855
4 C2 25 0 40 0
0

0101000
+237 37 -167 0 *
Ve
1e-07
35.5 13.7 32.25
0 0

0101101
*
Ed
 1.5e-07 1 1 0
1  87 0 1.086504 4.086504
2  62 42 0 1.086504 4.086504
2  63 25 0 1.086504 4.086504
0

0101000
+144 0 -169 0 *
Ve
1e-07
34.5 13.7 31.25
0 0

0101101
*
Ed
 1e-07 1 1 0
1  88 0 1.5707963267949 3.14159265358979
2  64 39 0 1.5707963267949 3.14159265358979
2  65 25 0 1.5707963267949 3.14159265358979
0

0101000
+144 0 -142 0 *
Ed
 1e-07 1 1 0
1  89 0 2.68648579155276 14.5635142084472
2  66 41 0 2.68648579155276 14.5635142084472
2  67 25 0 2.68648579155276 14.5635142084472
0

0101000
+150 0 -142 0 *
Wi

0101100
-235 37 -145 0 -166 0 +143 0 -141 0 +140 0 -149 0 +249 0 *
Fa
0  1e-07 25 0

0111000
+139 0 *
Ve
1e-07
49.308025 17.1 25.0346038620181
0 0

0101101
*
Ed
 1e-07 1 1 0
1  90 0 0 11.0346038620181
4 C2 43 0 35 0
0

0101000
+245 37 -137 0 *
Ve
1.5e-07
46.2421878256073 17.1 28.2038873380715
0 0

0101101
*
Ed
 1e-07 1 1 0
1  91 0 0.448389540879633 1.0892280175972
2  68 21 0 0.448389540879633 1.0892280175972
2  69 43 0 0.448389540879633 1.0892280175972
0

0101000
+137 0 -135 0 *
Ve
1.5000002e-07
38.9606235830938 17.1 32.0092754200855
0 0

0101101
*
Ed
 1.5e-07 1 1 0
1  92 0 0.062690457022098 8.27866004512217
2  70 33 0 0.062690457022098 8.27866004512217
2  71 43 0 0.062690457022098 8.27866004512217
0

0101000
+135 0 -133 0 *
Ed
 1.00000015e-07 1 1 0
1  93 0 0 18.0092754200855
4 C2 43 0 28 0
0

0101000
+246 37 -133 0 *
Wi

0101100
-244 37 -136 0 -134 0 -132 0 +131 0 *
Ve
1e-07
45.8 17.1 22
0 0

0101101
*
Ed
 1e-07 1 1 0
1  94 0 0 6.28318530717959
2  68 22 0 0 6.28318530717959
2  72 43 0 0 6.28318530717959
0

0101100
+129 0 -129 0 *
Wi

0101100
+128 0 *
Fa
0  1e-07 43 0

0111000
+130 0 +127 0 *
Ed
 1e-07 1 1 0
1  95 0 0 0.448389540879633
2  73 21 0 0 0.448389540879633
2  74 35 0 0 0.448389540879633
0

0101000
+188 0 -137 0 *
Wi

0101100
-242 37 -187 0 -125 0 +136 0 *
Fa
0  1e-07 35 0

0111000
+124 0 *
Ed
 1e-07 1 1 0
1  96 0 0 11.0346038620181
4 C2 40 0 34 0
0

0101000
+239 37 -160 0 *
Wi

0101100
-238 37 -122 0 +158 0 -189 0 *
Fa
0  1e-07 34 0

0111000
+121 0 *
Wi

0101100
-236 37 -145 0 -164 0 +159 0 +122 0 *
Wi

0101100
-153 0 *
Fa
0  1e-07 40 0

0111000
+119 0 +118 0 *
Ve
1e-07
34.5 17.1 19.3729715831055
0 0

0101101
*
Ed
 1e-07 1 1 0
1  97 0 3.14159265358979 3.92699081698724
2  75 24 0 3.14159265358979 3.92699081698724
2  76 28 0 3.14159265358979 3.92699081698724
0

0101000
+116 0 -231 0 *
Ve
1e-07
34.5 17.1 31.25
0 0

0101101
*
Ed
 1e-07 1 1 0
1  98 0 -14.5635142084472 -2.68648579155276
2  77 41 0 -14.5635142084472 -2.68648579155276
2  78 28 0 -14.5635142084472 -2.68648579155276
0

0101000
+114 0 -116 0 *
Ve
1e-07
35.5 17.1 32.25
0 0

0101101
*
Ed
 1e-07 1 1 0
1  99 0 1.5707963267949 3.14159265358979
2  79 39 0 1.5707963267949 3.14159265358979
2  80 28 0 1.5707963267949 3.14159265358979
0

0101000
+112 0 -114 0 *
Ve
1.5e-07
38.5 17.1 32.25
0 0

0101101
*
Ed
 1.5e-07 1 1 0
1  100 0 -1.26968820845309 1.73031179154691
2  81 42 0 -1.26968820845309 1.73031179154691
2  82 28 0 -1.26968820845309 1.73031179154691
0

0101000
+110 0 -112 0 *
Ed
 1.5e-07 1 1 0
1  101 0 -8.79839306185018 -8.27866004512214
2  83 33 0 -8.79839306185018 -8.27866004512214
2  84 28 0 -8.79839306185018 -8.27866004512214
0

0101000
+110 0 -133 0 *
Wi

0101100
-234 37 +230 0 +115 0 +113 0 +111 0 +109 0 -108 0 +131 0 *
Fa
0  1e-07 28 0

0111000
+107 0 *
Ve
1e-07
34.5 20.3 19.3729715831055
0 0

0101101
*
Ed
 1e-07 1 1 0
1  102 0 3.14159265358979 3.92699081698724
2  85 24 0 3.14159265358979 3.92699081698724
2  86 29 0 3.14159265358979 3.92699081698724
0

0101000
+105 0 -229 0 *
Ed
 1e-07 1 1 0
1  85 0 6.89999999999999 10.1
2  61 24 0 6.89999999999999 10.1
4 G1 24 0 41 0
0

0101000
+116 0 -105 0 *
Wi

0101100
-115 0 -228 0 +104 0 +103 0 *
Fa
0  1e-07 24 0

0111000
+102 0 *
Ve
1.50000019e-07
39.1973177160333 20.3 31.8855776811694
0 0

0101101
*
Ed
 1.00000015e-07 1 1 0
1  103 0 0 17.8855776811694
4 C2 44 0 29 0
0

0101000
+215 37 -100 0 *
Ve
1.50000004e-07
38.5 20.3 32.25
0 0

0101101
*
Ed
 1.5e-07 1 1 0
1  104 0 5.74644320280388 6.53324408203307
2  87 33 0 5.74644320280388 6.53324408203307
2  88 29 0 5.74644320280388 6.53324408203307
0

0101000
+100 0 -98 0 *
Ve
1e-07
35.5 20.3 32.25
0 0

0101101
*
Ed
 1.5e-07 1 1 0
1  105 0 0.825512000000003 3.825512
2  89 42 0 0.825512000000003 3.825512
2  90 29 0 0.825512000000003 3.825512
0

0101000
+96 0 -98 0 *
Ve
1e-07
34.5 20.3 31.25
0 0

0101101
*
Ed
 1e-07 1 1 0
1  106 0 1.5707963267949 3.14159265358979
2  91 39 0 1.5707963267949 3.14159265358979
2  92 29 0 1.5707963267949 3.14159265358979
0

0101000
+96 0 -94 0 *
Ed
 1e-07 1 1 0
1  107 0 2.68648579155276 14.5635142084472
2  93 41 0 2.68648579155276 14.5635142084472
2  94 29 0 2.68648579155276 14.5635142084472
0

0101000
+105 0 -94 0 *
Wi

0101100
-213 37 -99 0 -97 0 +95 0 -93 0 +92 0 -104 0 +227 0 *
Fa
0  1e-07 29 0

0111000
+91 0 *
Ve
1e-07
49.212853 23.7 25.2249740464678
0 0

0101101
*
Ed
 1e-07 1 1 0
1  108 0 0 11.2249740464678
4 C2 45 0 37 0
0

0101000
+223 37 -89 0 *
Ve
1.50000005e-07
46.2421878256073 23.7 28.2038873380715
0 0

0101101
*
Ed
 1e-07 1 1 0
1  109 0 0.478795638167629 1.0892280175972
2  95 21 0 0.478795638167629 1.0892280175972
2  96 45 0 0.478795638167629 1.0892280175972
0

0101000
+89 0 -87 0 *
Ve
1.50000019e-07
39.1973177160333 23.7 31.8855776811694
0 0

0101101
*
Ed
 1.5e-07 1 1 0
1  110 0 0.167577866617768 8.11647959221668
2  97 33 0 0.167577866617768 8.11647959221668
2  98 45 0 0.167577866617768 8.11647959221668
0

0101000
+87 0 -85 0 *
Ed
 1.00000014e-07 1 1 0
1  111 0 0 17.8855776811694
4 C2 45 0 31 0
0

0101000
+224 37 -85 0 *
Wi

0101100
-222 37 -88 0 -86 0 -84 0 +83 0 *
Ve
1e-07
45.8 23.7 22
0 0

0101101
*
Ed
 1e-07 1 1 0
1  112 0 0 6.28318530717959
2  95 22 0 0 6.28318530717959
2  99 45 0 0 6.28318530717959
0

0101100
+81 0 -81 0 *
Wi

0101100
+80 0 *
Fa
0  1e-07 45 0

0111000
+82 0 +79 0 *
Ed
 1e-07 1 1 0
1  113 0 0 0.478795638167629
2  100 21 0 0 0.478795638167629
2  101 37 0 0 0.478795638167629
0

0101000
+183 0 -89 0 *
Wi

0101100
-220 37 -182 0 -77 0 +88 0 *
Fa
0  1e-07 37 0

0111000
+76 0 *
Ve
1e-07
49.212853 20.3 25.2249740464678
0 0

0101101
*
Ed
 1e-07 1 1 0
1  114 0 0 11.2249740464678
4 C2 36 0 44 0
0

0101000
+217 37 -74 0 *
Ed
 1e-07 1 1 0
1  115 0 0 0.478795638167629
2  102 21 0 0 0.478795638167629
2  103 36 0 0 0.478795638167629
0

0101000
+186 0 -74 0 *
Wi

0101100
-216 37 -73 0 +72 0 -184 0 *
Fa
0  1e-07 36 0

0111000
+71 0 *
Ve
1.50000005e-07
46.2421878256073 20.3 28.2038873380715
0 0

0101101
*
Ed
 1.5e-07 1 1 0
1  116 0 -12.5547119159459 -4.605810190347
2  104 33 0 -12.5547119159459 -4.605810190347
2  105 44 0 -12.5547119159459 -4.605810190347
0

0101000
+100 0 -69 0 *
Ed
 1e-07 1 1 0
1  117 0 0.478795638167629 1.0892280175972
2  106 21 0 0.478795638167629 1.0892280175972
2  107 44 0 0.478795638167629 1.0892280175972
0

0101000
+74 0 -69 0 *
Wi

0101100
-214 37 -99 0 -68 0 +67 0 +73 0 *
Ve
1e-07
45.8 20.3 22
0 0

0101101
*
Ed
 1e-07 1 1 0
1  118 0 0 6.28318530717959
2  106 22 0 0 6.28318530717959
2  108 44 0 0 6.28318530717959
0

0101100
+65 0 -65 0 *
Wi

0101100
-64 0 *
Fa
0  1e-07 44 0

0111000
+66 0 +63 0 *
Ve
1e-07
34.5 23.7 19.3729715831055
0 0

0101101
*
Ed
 1e-07 1 1 0
1  119 0 3.14159265358979 3.92699081698724
2  109 24 0 3.14159265358979 3.92699081698724
2  110 31 0 3.14159265358979 3.92699081698724
0

0101000
+61 0 -209 0 *
Ve
1e-07
34.5 23.7 31.25
0 0

0101101
*
Ed
 1e-07 1 1 0
1  120 0 -14.5635142084472 -2.68648579155276
2  111 41 0 -14.5635142084472 -2.68648579155276
2  112 31 0 -14.5635142084472 -2.68648579155276
0

0101000
+59 0 -61 0 *
Ve
1e-07
35.5 23.7 32.25
0 0

0101101
*
Ed
 1e-07 1 1 0
1  121 0 1.5707963267949 3.14159265358979
2  113 39 0 1.5707963267949 3.14159265358979
2  114 31 0 1.5707963267949 3.14159265358979
0

0101000
+57 0 -59 0 *
Ve
1.5e-07
38.5 23.7 32.25
0 0

0101101
*
Ed
 1.5e-07 1 1 0
1  122 0 -1.15134114198332 1.84865885801668
2  115 42 0 -1.15134114198332 1.84865885801668
2  116 31 0 -1.15134114198332 1.84865885801668
0

0101000
+55 0 -57 0 *
Ed
 1.5e-07 1 1 0
1  123 0 -8.90328047144586 -8.11647959221667
2  117 33 0 -8.90328047144586 -8.11647959221667
2  118 31 0 -8.90328047144586 -8.11647959221667
0

0101000
+55 0 -85 0 *
Wi

0101100
-212 37 +208 0 +60 0 +58 0 +56 0 +54 0 -53 0 +83 0 *
Fa
0  1e-07 31 0

0111000
+52 0 *
Ed
 1e-07 1 1 0
1  85 0 13.5 17
2  61 24 0 13.5 17
4 G1 24 0 41 0
0

0101000
+61 0 -176 40 *
Wi

0101100
-60 0 -207 0 +175 40 +50 0 *
Fa
0  1e-07 24 0

0111000
+49 0 *
Ed
 1e-07 1 1 0
1  73 0 0 3
0

0101000
+178 0 -199 41 *
Wi

0101100
+47 40 -197 0 +206 40 -175 40 +173 40 -172 40 *
Fa
0  1e-07 38 39

0111000
+46 0 *
Ed
 1e-07 1 1 0
1  79 0 13.5 17
2  52 21 0 13.5 17
4 G1 21 0 33 0
0

0101000
+87 0 -201 0 *
Wi

0101100
-77 0 -86 0 -44 0 +200 0 +181 0 *
Fa
0  1e-07 21 0

0111000
+43 0 *
Ed
 1e-07 1 1 0
1  12 0 0 3.5
0

0101000
+199 44 -55 44 *
Wi

0101100
-84 0 +53 0 +41 43 -198 0 +44 0 *
Fa
0  1e-07 33 0

0111000
+40 0 *
Ed
 1e-07 1 1 0
1  82 0 13.5 17
3  15 57CN 22 0 13.5 17
0

0101000
+81 0 -195 0 *
Wi

0101100
-80 0 -38 0 +194 0 +38 0 *
Fa
0  1e-07 22 0

0111000
+37 0 *
Ed
 1e-07 1 1 0
1  79 0 6.9 10.1
2  52 21 0 6.9 10.1
4 G1 21 0 33 0
0

0101000
+135 0 -69 0 *
Wi

0101100
-125 0 -134 0 -35 0 +67 0 +72 0 +185 0 *
Fa
0  1e-07 21 0

0111000
+34 0 *
Ed
 1e-07 1 1 0
1  124 0 0 3.49999999999999
2  119 39 0 0 3.49999999999999
4 C1 42 0 39 0
0

0101000
+178 33 -144 0 *
Wi

0101100
-177 33 +168 43 +143 0 +32 0 *
Fa
0  1e-07 42 0

0111000
+31 0 *
Ed
 1e-07 1 1 0
1  125 0 0 3.49999999999999
2  61 39 0 0 3.49999999999999
4 C1 41 0 39 0
0

0101000
+174 33 -142 0 *
Wi

0101100
-173 33 -29 0 +140 0 +148 0 *
Fa
0  1e-07 41 0

0111000
+28 0 *
Wi

0101100
-172 33 -29 0 +141 0 +32 0 *
Fa
0  1e-07 39 0

0111000
+26 0 *
Ed
 1e-07 1 1 0
1  12 0 6.9 10.1
0

0101000
+98 44 -110 44 *
Wi

0101100
-132 0 +108 0 +24 43 +97 0 -68 0 +35 0 *
Fa
0  1e-07 33 0

0111000
+23 0 *
Ed
 1e-07 1 1 0
1  82 0 6.9 10.1
3  15 57CN 22 0 6.9 10.1
0

0101000
+129 0 -65 0 *
Wi

0101100
-128 0 -21 0 +64 0 +21 0 *
Fa
0  1e-07 22 0

0111000
+20 0 *
Ed
 1e-07 1 1 0
1  125 0 6.89999999999999 10.1
2  61 39 0 6.89999999999999 10.1
4 C1 41 0 39 0
0

0101000
+114 0 -94 0 *
Wi

0101100
+113 0 -18 0 +92 0 +103 0 *
Fa
0  1e-07 41 0

0111000
+17 0 *
Ed
 1e-07 1 1 0
1  124 0 6.89999999999999 10.1
2  119 39 0 6.89999999999999 10.1
4 C1 42 0 39 0
0

0101000
+112 0 -96 0 *
Wi

0101100
-111 0 -18 0 +93 0 +15 0 *
Fa
0  1e-07 39 0

0111000
+14 0 *
Wi

0101100
+109 0 +24 43 +95 0 +15 0 *
Fa
0  1e-07 42 0

0111000
+12 0 *
Ed
 1e-07 1 1 0
1  125 0 13.5 17
2  61 39 0 13.5 17
4 C1 41 0 39 0
0

0101000
+59 0 -174 40 *
Wi

0101100
+58 0 -10 0 +173 40 +50 0 *
Fa
0  1e-07 41 0

0111000
+9 0 *
Ed
 1e-07 1 1 0
1  124 0 13.5 17
2  119 39 0 13.5 17
4 C1 42 0 39 0
0

0101000
+57 0 -178 40 *
Wi

0101100
-56 0 -10 0 +172 40 +7 0 *
Fa
0  1e-07 39 0

0111000
+6 0 *
Wi

0101100
+54 0 +41 43 +47 40 +7 0 *
Fa
0  1e-07 42 0

0111000
+4 0 *
Sh

0101100
-389 0 -382 0 +374 0 -361 0 -355 0 -351 0 -348 0 -345 0 +342 0 +334 0 
-331 0 -306 0 +302 0 +300 0 +298 0 -283 0 -278 0 -273 0 -270 0 -268 0 
-266 0 +254 0 -247 0 +232 0 -225 0 +210 0 -204 0 +192 0 +179 0 -170 0 
+161 0 +156 0 -151 0 +146 0 +138 0 -126 0 -123 0 -120 0 -117 0 +106 0 
+101 0 +90 0 -78 0 -75 0 -70 0 -62 0 +51 0 +48 0 +45 0 +42 0 
+39 0 -36 0 +33 0 -30 0 -27 0 +25 0 +22 0 -19 0 -16 0 +13 0 
-11 0 -8 0 +5 0 -3 0 *
So

0100000
+2 0 *

+1 0 