DBRep_DrawableShape

CASCADE Topology V1, (c) Matra-Datavision
Locations 9
1
              1               0               0               0 
              0               1               0               0 
              0               0               1               0 
1
              1               0               0               0 
              0               1               0               0 
              0               0               1               0 
2  2 -1 0
1
              1               0               0               0 
              0               1               0               0 
              0               0               1               0 
2  4 -1 0
1
              1               0               0               0 
              0               1               0               0 
              0               0               1              10 
2  6 1 4 1 0
2  6 -1 0
2  4 -1 6 -1 0
Curve2ds 11
1 0 0 1 0 
1 0 10 1 0 
1 10 0 0 -1 
1 10 0 0 1 
1 0 -10 1 0 
1 0 0 0 -1 
1 0 0 0 1 
1 6.2831853071795862 0 0 -1 
2 0 0 1 0 -0 1 2
8 -10.0000006 5.9999999999999997e-07
1 0 -2 -1 0 
8 -10.0000006 5.9999999999999997e-07
1 1.5707963267948966 0 0 1 
Curves 14
1 10 0 0 0 0 1 
1 10 0 10 -0 1 0 
1 10 10 0 0 0 1 
1 10 0 0 -0 1 0 
1 0 10 0 1 0 -0 
1 0 10 10 1 0 -0 
1 0 10 0 0 0 1 
1 0 0 0 1 0 -0 
1 0 0 10 1 0 -0 
1 2 -4.8999999999999997e-16 0 0 0 1 
2 0 0 0 0 0 1 1 0 -0 -0 1 0 2
1 0 2 0 -0 -0 -1 
1 0 0 10 -0 1 0 
1 0 0 0 -0 1 0 
Polygon3D 0
PolygonOnTriangulations 0
Surfaces 10
1 10 0 0 1 0 -0 0 0 1 0 -1 0 
1 0 0 0 -0 1 0 0 0 1 1 0 -0 
1 0 0 10 0 0 1 1 0 -0 -0 1 0 
1 0 10 0 -0 1 0 0 0 1 1 0 -0 
1 0 0 0 0 0 1 1 0 -0 -0 1 0 
1 0 0 0 1 0 -0 0 0 1 0 -1 0 
2 0 0 0 -0 -0 -1 1 0 -0 -0 1 -0 2
1 0 0 0 0 0 1 1 0 -0 -0 1 0 
1 4.3873291759884809 4.38732917598848 10 0 0 1 1 0 -0 -0 1 0 
1 4.3873291759884809 4.38732917598848 0 -0 -0 -1 -1 0 0 0 1 -0 
Triangulations 0

TShapes 42
Ve
1e-07
10 0 10
0 0

0101101
*
Ve
1e-07
10 0 0
0 0

0101101
*
Ed
 1e-07 1 1 0
1  1 0 0 10
2  1 1 0 0 10
2  2 2 0 0 10
0

0101000
-42 0 +41 0 *
Ve
1e-07
10 10 10
0 0

0101101
*
Ed
 1e-07 1 1 0
1  2 0 0 10
2  3 1 0 0 10
2  4 3 0 0 10
0

0101000
-39 0 +42 0 *
Ve
1e-07
10 10 0
0 0

0101101
*
Ed
 1e-07 1 1 0
1  3 0 0 10
2  5 1 0 0 10
2  2 4 0 0 10
0

0101000
-39 0 +37 0 *
Ed
 1e-07 1 1 0
1  4 0 0 10
2  6 1 0 0 10
2  4 5 0 0 10
0

0101000
-37 0 +41 0 *
Wi

0101100
-40 0 -38 0 +36 0 +35 0 *
Fa
0  1e-07 1 0

0111000
+34 0 *
Ve
1e-07
0 10 0
0 0

0101101
*
Ed
 1e-07 1 1 0
1  5 0 0 10
2  7 4 0 0 10
2  2 5 0 0 10
0

0101000
-37 0 +32 0 *
Ve
1e-07
0 10 10
0 0

0101101
*
Ed
 1e-07 1 1 0
1  6 0 0 10
2  4 4 0 0 10
2  2 3 0 0 10
0

0101000
-39 0 +30 0 *
Ed
 1e-07 1 1 0
1  7 0 0 10
2  5 6 0 0 10
2  1 4 0 0 10
0

0101000
-30 0 +32 0 *
Wi

0101100
-31 0 -36 0 +29 0 +28 0 *
Fa
0  1e-07 4 0

0111000
+27 0 *
Ve
1.0000000049e-07
2 0 0
0 0

0101101
*
Ed
 1e-07 1 1 0
1  8 0 2 10
2  7 2 0 2 10
2  1 5 0 2 10
0

0101000
+25 3 -41 0 *
Ve
1.0000000049e-07
2 0 10
0 0

0101101
*
Ed
 1e-07 1 1 0
1  9 0 2 10
2  4 2 0 2 10
2  1 3 0 2 10
0

0101000
+23 3 -42 0 *
Ed
 1.0000000049e-07 1 1 0
1  10 0 0 10
3  6 8CN 7 0 0 10
0

0101000
+25 5 -23 5 *
Wi

0101100
-24 2 -40 2 +22 2 +21 4 *
Fa
0  1e-07 2 2

0101000
+20 0 *
Ve
1.00000003935571e-07
-3.9355705486932e-15 2 10
0 0

0101101
*
Ed
 1e-07 1 1 0
1  11 0 1.5707963267949 6.28318530717959
2  9 8 0 1.5707963267949 6.28318530717959
2  1 7 0 1.5707963267949 6.28318530717959
2  5 7 8 1.5707963267949 6.28318530717959
0

0101000
+18 9 -23 9 *
Ve
1.00000003935571e-07
-3.9355705486932e-15 2 0
0 0

0101101
*
Ed
 1e-07 1 1 0
1  12 0 -10 0
2  10 6 2 -10 0
2  11 7 4 -10 0
0

0101000
+18 0 -16 0 *
Ed
 1e-07 1 1 0
1  11 0 1.5707963267949 6.28318530717959
2  9 8 0 1.5707963267949 6.28318530717959
2  1 7 0 1.5707963267949 6.28318530717959
2  5 7 8 1.5707963267949 6.28318530717959
0

0101000
+16 5 -25 5 *
Wi

0101100
-21 4 +17 7 -15 0 -14 4 *
Fa
0  1e-07 7 4

0101000
+13 0 *
Ed
 1e-07 1 1 0
1  13 0 2 10
2  3 6 0 2 10
2  7 3 0 2 10
0

0101000
+18 3 -30 0 *
Ed
 1e-07 1 1 0
1  14 0 2 10
2  6 6 0 2 10
2  7 5 0 2 10
0

0101000
+16 3 -32 0 *
Wi

0101100
+15 0 -11 2 +28 2 +10 2 *
Fa
0  1e-07 6 2

0101000
+9 0 *
Wi

0101100
+17 7 +22 2 +38 2 -29 2 -11 2 *
Fa
0  1e-07 9 0

0101000
+7 0 *
Wi

0101100
-14 4 +10 2 +31 2 -35 2 -24 2 *
Fa
0  1e-07 10 0

0101000
+5 0 *
Sh

0101100
+33 2 +26 2 -19 0 -12 0 -8 0 +6 0 +4 0 *
So

0100000
+3 0 *
Co

1100000
+2 0 *

+1 1 