DBRep_DrawableShape

CASCADE Topology V1, (c) Matra-Datavision
Locations 20
1
              1               0               0               0 
              0              -0              -1               0 
              0               1              -0               0 
1
              1               0               0               0 
              0              -0              -1               0 
              0               1              -0               0 
1
              1               0               0               0 
              0              -0              -1               0 
              0               1              -0               0 
2  2 1 3 -1 0
1
              1               0               0               0 
              0               1               0               0 
              0               0               1               0 
2  5 -1 3 1 2 -1 0
2  3 1 2 -1 0
2  2 -1 0
1
              1               0               0               0 
              0               1               0               0 
              0               0               1               0 
1
              1               0               0              -0 
             -0               0               1          -1e-15 
             -0              -1               0              -0 
1
              1               0               0  2.69187598e-07 
              0               1               0 -0.176152123078662 
              0               0               1 -1.99222750446198 
2  9 1 10 1 3 -1 11 1 0
2  3 1 10 -1 9 -1 0
2  11 -1 3 1 10 -1 9 -1 0
2  10 -1 9 -1 0
2  9 1 10 1 3 -1 0
2  2 1 10 -1 9 -1 0
2  3 -1 11 1 0
2  9 1 10 1 0
2  3 -1 0
Curve2ds 35
1 0 0 0 1 
8 0 6.2908301527862553
1 2 0 0 1 
1 1.0000000000000018 1.9999999999999982 -0 -1 
1 0 0 1 0 
1 6.5000000000000018 -1.9999999999999982 -0 1 
1 4 0 0 1 
8 0 6.2908301527862553
1 0 0 0 1 
1 0 6.2908301527862553 1 0 
8 0 4
1 0 0 1 0 
1 -1.0000000000000018 1.9999999999999982 1 -0 
7 0 0  1 2 2  4.4999999999999964 -2.0000000000000036  6.5000000000000036 -1.9999999999999947 
 0 2 2 2
8 0 2
1 0 0 1 0 
1 0 -0 0.088076061539330841 -0.99611375223099907 
1 -1.7800000000000001e-15 -1.6000000000000001e-16 1.3459379919000003e-07 -0.99999999999999101 
1 3.9999999999999982 -1.6000000000000001e-16 1.3459379919000003e-07 -0.99999999999999101 
1 0 0 1 -0 
1 2.6918759841999998e-07 -1.999999999999982 1 -0 
1 6.5000000000000018 -1.9999999999999982 0 1 
1 1 -2 -1 0 
1 6.5 2 -1 -0 
1 2 0 0 1 
1 -1.0000000000000036 -2 0 1 
1 4.4999999999999964 2 0 -1 
1 13 0 0.088076061539330841 -0.99611375223099907 
1 0.17615212307866202 -1.9922275044619979 1 0 
1 6.5 -2 -1 0 
1 6.5 2 -1 0 
1 -6.5 -2 0 1 
8 0 1.4177225019654478
1 2 0 0 1 
8 0 1.4177225019654478
1 0 0 0 1 
1 2.0000004337757304 -0.99999913244807104 -0.99999999999990596 -4.3377591817999998e-07 
1 0 1.4177225019654478 1 0 
1 1.9999995662238959 1.0000008675517442 4.3377591817000002e-07 -0.99999999999990608 
1 -1.9999995662238923 -1.0000008675517407 -4.3377591817000002e-07 0.99999999999990608 
1 -2.0000004337757269 0.99999913244807104 0.99999999999990596 4.3377591817999998e-07 
Curves 44
7 0 0  11 21 3  -12.999999999999995 13 1.7800000000000001e-15  -13.000000347308818 13.227272032653865 3.7127913278895059  -11.833591684842087 13.454546679877669 7.4255834935506666  -9.5007768605012153 13.681816384014752 10.731218825803257  -6.1614428804560593 13.909091973824742 13.222552539453444  -2.1353647386548364 14.13636328120363 14.564194319449573  2.1353649274662581 14.36363594686442 14.564201849667016  6.1614428069511877 14.590909253770542 13.222546769449943  9.5007764532195207 14.818181652770484 10.73122187853048  11.833592268648619 15.045454423294858 7.4255826225254458  14.166407848752645 15.499999890067516 -9.1075207000000006e-09  11.833592247877021 15.954545356847035 -7.4255826342167  9.5007764544672444 16.181818127355044 -10.731221694625415  6.1614428557319449 16.409090526394099 -13.222547712358672  2.1353645790651261 16.636363833237862 -14.564199824212512  -2.1353638590971347 16.863636498971989 -14.564196933746075  -6.1614444662878363 17.090907806284797 -13.222550420639475  -9.5007750630053298 17.318183396137574 -10.731219815021626  -11.83359303905312 17.545453100263483 -7.4255832608590113  -12.999999767168424 17.772727747472274 -3.7127913119821745  -13.000000109925713 17.999999780148595 1.5903133030000001e-08 
 0 12 3.1454150763931277 9 6.2908301527862553 12
1 -12.999999999999998 13.000000000000002 -3.0000000000000001e-17 1 -0 -0 
7 0 0  11 21 3  -9 13.000000000000002 0  -9.0000003473088235 13.227273421894743 2.5703940106910057  -8.1924863831868002 13.454544229202481 5.1407889093445851  -6.5774616903389882 13.681819979644727 7.4293032720819863  -4.2656117778304177 13.909089844320423 9.1540798294078716  -1.4783339565395053 14.136363991567686 10.082897216199459  1.4783337863452386 14.363636780368484 10.082914164422681  4.2656122161841488 14.590908928074295 9.1540683888109537  6.5774610162025136 14.818181983580601 7.4293081093297912  8.1924869667725133 15.045454667617744 5.1407879743908422  9.807513141544586 15.500000109928674 8.2227741400000004e-09  8.1924869641692517 15.954545552248025 -5.1407879571278094  6.5774610437059158 16.181818236265091 -7.4293079021820265  4.2656122973206996 16.409091291821063 -9.1540693166362441  1.4783334735698299 16.636363439443425 -10.082912133758899  -1.4783330413362392 16.863636228347119 -10.082899835698981  -4.2656133313171836 17.090910375497533 -9.1540777256912609  -6.577459866585766 17.318180240247671 -7.4293042845314154  -8.1924877192282821 17.545455990635727 -5.1407887056108779  -8.9999997580846465 17.772726797985136 -2.5703940265929557  -9.0000001099257396 18.000000219851394 -1.5902534400000001e-08 
 0 12 3.1454150763931277 9 6.2908301527862553 12
7 0 0  1 2 2  -13.000000109925713 17.999999780148595 1.5903133030000001e-08  -9.0000001099257396 18.000000219851394 -1.5902534400000001e-08 
 0 2 4 2
7 0 0  11 21 3  -12.999999999999998 10.999999999999996 0  -12.999999652688436 11.227272032653719 3.712791296493466  -11.83359292990624 11.454546679878531 7.4255832125364023  -9.500774969538039 11.681816384012336 10.731219735904883  -6.1614443980027653 11.909091973828897 13.222550316363353  -2.1353638232310139 12.136363281198911 14.564196813196753  2.1353645788321791 12.363635946868053 14.564199698447425  6.1614428198012288 12.590909253768663 13.222547593004354  9.500776387256499 12.818181652771079 10.731221592258942  11.833592156893554 13.04545442329481 7.4255825569469414  14.166407728958582 13.49999989006745 -8.2223446199999994e-09  11.833592159497115 13.95454535684722 -7.4255825742107548  9.5007763597501587 14.181818127354068 -10.731221799404663  6.1614427386734159 14.40909052639628 -13.222546665182543  2.135364891591998 14.636363833234551 -14.564201729108751  -2.1353647384152503 14.863636498975643 -14.564194193695203  -6.1614428445311855 15.090907806281834 -13.222552420088062  -9.5007767932840164 15.318183396139323 -10.731218723443805  -11.833591593866245 15.545453100262757 -7.425583416280924  -13.000000241912087 15.772727747472453 -3.71279128058675  -12.999999890074321 15.999999780148606 1.5902390519999999e-08 
 0 12 3.1454150763931277 9 6.2908301527862553 12
7 0 0  1 2 2  -13.000000000000004 10.999999999999996 0  -12.999999999999995 13.000000000000004 1.7800000000000001e-15 
 0 2 2 2
7 0 0  1 2 2  -12.999999890074317 15.999999780148608 1.5902388740000002e-08  -13.000000109925715 17.999999780148595 1.590312948e-08 
 0 2 2 2
1 -13 13 1.3899999999999999e-15 1.345937992e-07 -0.088076061539330841 -0.99611375223098997 
1 -9 13 1.41e-15 1.345937992e-07 -0.088076061539330841 -0.99611375223098997 
1 -12.999999999999998 -13.000000000000002 0 1 0 0 
1 -9 13 1.4000000000000001e-16 -0 -1 1.0000000000000001e-17 
7 0 0  11 21 3  -8.9999999999999964 11.000000000000002 1.7800000000000001e-15  -8.9999996526883912 11.22727342189456 2.5703939792946877  -8.1924876282511239 11.454544229203478 5.1407886283315634  -6.5774597993754895 11.681819979642013 7.4293041821802408  -4.2656132953776318 11.909089844324946 9.1540776063240941  -1.4783330411150135 12.136363991562702 10.08289970993817  1.4783334377104429 12.363636780372218 10.082912013211425  4.265612229034768 12.590908928072404 9.154069212359456  6.5774609502391854 12.818181983581228 7.429307823061027  8.1924868550175312 13.045454667617649 5.1407879088117312  9.8075130217504594 13.500000109928715 9.1083201499999999e-09  8.1924868757893847 13.954545552248051 -5.1407878971219763  6.5774609489886915 14.181818236264998 -7.4293080069614001  4.2656121802625595 14.409091291820998 -9.1540682694595201  1.478333786096097 14.636363439444024 -10.082914038656169  -1.4783339206537889 14.863636228345971 -10.082897095646862  -4.2656117095608872 15.090910375498733 -9.1540797251409707  -6.5774615968642669 15.318180240246956 -7.4293031929528253  -8.1924862740414977 15.545455990635977 -5.1407888610331414  -9.0000002328282704 15.772726797985097 -2.5703939951974384  -8.9999998900743421 16.000000219851405 -1.5903271589999999e-08 
 0 12 3.1454150763931277 9 6.2908301527862553 12
7 0 0  1 2 2  -9.0000001099257378 18.000000219851394 -1.590253085e-08  -8.9999998900743421 16.000000219851405 -1.5903271589999999e-08 
 0 2 2 2
7 0 0  11 21 3  -13.000000109925692 17.999999780148592 1.5903182770000001e-08  -13.000000452714376 18.227271812758843 3.7127913751907369  -11.833591775820166 18.454546460023007 7.4255835708306188  -9.5007769277150889 18.681816164144138 10.731218928161606  -6.1614429163921818 18.909091753948513 13.222552658822337  -2.1353647388851398 19.136363061338841 14.564194445215776  2.1353649633374299 19.363635726991667 14.564201970221626  6.1614428752327299 19.590909033901745 13.222546873726801  9.5007765466930483 19.818181432899976 10.731221957656805  11.833592377804123 20.045454203425109 7.4255826708424451  14.166407968551487 20.499999670196914 -2.6438900609999999e-08  11.833592338863639 20.954545136977988 -7.4255827114890867  9.5007765216817521 21.181817907480056 -10.731221796996778  6.1614428916606698 21.409090306535461 -13.222547831716989  2.1353645793018772 21.636363613350291 -14.564199949982504  -2.1353638949682017 21.863636279123288 -14.564197054298955  -6.1614445345743345 22.090907586395442 -13.222550524923195  -9.5007751564765961 22.3181831762749 -10.731219894136892  -11.833593148203096 22.545452880404369 -7.4255833091847059  -12.99999988165678 22.772727527580784 -3.7127913274717494  -13.00000021985263 22.999999560294668 3.1806692389999998e-08 
 0 12 3.1454150763931277 9 6.2908301527862553 12
7 0 0  11 21 3  -9.0000001099257165 18.000000219851394 -1.5902482890000001e-08  -9.0000004617981659 18.2272736417939 2.5703940261853497  -8.192486492333046 18.45454444904771 5.1407889576694679  -6.5774617838108371 18.681820199526957 7.4293033511966859  -4.2656118461135746 18.909090064187165 9.1540799337029597  -1.4783339924082743 19.136364211437307 10.08289733673703  1.4783337865839528 19.363637000240562 10.082914290206109  4.26561225211519 19.590909147941673 9.1540685081606856  6.5774610834189158 19.818182203452128 7.4293082117022404  8.1924870577603119 20.045454887487516 5.1407880516609907  9.807513261343388 20.500000329798464 2.555202098e-08  8.192487073323873 20.954545772118607 -5.1407880054467832  6.5774611371777407 21.181818456131705 -7.4293079813101803  4.2656123655966995 21.409091511699284 -9.154069420913018  1.4783335094492509 21.636363659300653 -10.082912254315909  -1.4783330415857474 21.863636448231016 -10.082899961463669  -4.2656133672393688 22.090910595354067 -9.1540778450578468  -6.5774599338102515 22.318180460134954 -7.4293043868926798  -8.1924878102062557 22.54545621048079 -5.1407887828838712  -8.9999998634898262 22.772727017881511 -2.5703940738952626  -9.0000002198527298 23.000000439705289 -3.1802816380000002e-08 
 0 12 3.1454150763931277 9 6.2908301527862553 12
7 0 0  1 2 2  -13.00000021985263 22.999999560294668 3.1806692389999998e-08  -9.0000002198527298 23.000000439705289 -3.1802816380000002e-08 
 0 2 4 2
1 -9 10.999999999999996 2.8000000000000001e-16 -1 0 0 
7 0 0  1 2 2  -8.9999998900743421 16.000000219851405 -1.5903268039999999e-08  -12.999999890074321 15.999999780148606 1.5902390519999999e-08 
 0 2 4 2
1 -13 0 1.3899999999999999e-15 1.345937992e-07 -0.088076061539330841 -0.99611375223098997 
1 -13 -13 0 0 1 0 
7 0 0  11 21 3  -12.999999890074294 15.99999978014861 1.5902436700000001e-08  -12.999999538196739 16.227271812758964 3.7127912809989776  -11.833592820765578 16.454546460022986 7.4255831642128562  -9.5007748760586281 16.681816164143797 10.731219656785614  -6.1614443297269856 16.909091753949273 13.222550212076959  -2.1353637873566065 17.136363061338486 14.5641966926481  2.1353645785898632 17.363635726991191 14.564199572674166  6.1614427838719621 17.590909033902914 13.222547473647719  9.5007763200394617 17.818181432899095 10.731221489889569  11.833592065905931 18.045454203425372 7.4255824796762173  14.166407609159574 18.499999670196939 -2.5551488260000001e-08  11.833592050342636 18.954545136977757 -7.4255825258914836  9.5007762662791766 19.181817907481573 -10.731221720277803  6.1614426703926997 19.409090306532207 -13.222546560904266  2.1353648557234459 19.636363613354764 -14.564201608551578  -2.1353647381802507 19.863636279119191 -14.564194067932956  -6.1614428085986512 20.090907586398071 -13.222552300719149  -9.5007767260611544 20.318183176273891 -10.731218621083453  -11.833591502892091 20.545452880404593 -7.4255833390077983  -13.000000136505388 20.772727527580813 -3.7127912332848041  -12.999999780147322 20.999999560294711 3.1802706249999997e-08 
 0 12 3.1454150763931277 9 6.2908301527862553 12
7 0 0  1 2 2  -12.99999978014732 20.999999560294714 3.1802700919999999e-08  -13.00000021985263 22.999999560294668 3.1806694169999999e-08 
 0 2 2 2
1 -9 0 1.41e-15 1.345937992e-07 -0.088076061539330841 -0.99611375223098997 
1 -9 -13 0 0 1 0 
1 -13 0 0 1 0 0 
7 0 0  11 21 3  -8.9999998900743208 16.000000219851401 -1.5903220070000001e-08  -8.9999995472807353 16.227273641793889 2.5703939319938298  -8.1924875372775343 16.454544449048328 5.1407885510508127  -6.5774597321568171 16.681820199524847 7.429304079822634  -4.2656132594438878 16.909090064191425 9.1540774869546482  -1.4783330408858311 17.136364211432006 10.082899584172624  1.4783334018425929 17.363637000244928 10.08291189265592  4.2656121607497743 17.590909147939524 9.1540691080832914  6.5774608567676598 17.818182203452753 7.4293077439343351  8.1924867458615847 18.045454887487427 5.1407878604947932  9.8075129019517675 18.500000329798752 2.6439665900000002e-08  8.1924867848027834 18.954545772118216 -5.1407878198496766  6.5774608817750755 19.181818456134145 -7.4293079045889066  4.2656121443289026 19.409091511693116 -9.1540681501048642  1.4783337858708614 19.636363659310955 -10.082913912879301  -1.4783338847982122 19.863636448218958 -10.082896975102466  -4.2656116412630354 20.090910595364434 -9.1540796208510251  -6.5774615033954138 20.31818046012863 -7.4293031138402794  -8.1924861648948948 20.545456210483479 -5.1407888127067434  -9.0000001183385603 20.772727017880893 -2.5703939797083351  -8.9999997801474194 21.000000439705335 -3.1806804299999997e-08 
 0 12 3.1454150763931277 9 6.2908301527862553 12
7 0 0  1 2 2  -9.0000002198527298 23.000000439705289 -3.1802814600000001e-08  -8.9999997801474194 21.000000439705335 -3.1806804299999997e-08 
 0 2 2 2
7 0 0  11 21 3  -13.000000219852586 22.999999560294672 3.1806726140000001e-08  -13.000000558110637 23.227271592885351 3.712791422494583  -11.833591866795439 23.4545462401632 7.4255836481006439  -9.5007769949328207 23.681815944288143 10.731219030529978  -6.1614429523143741 23.909091534072129 13.222552778175832  -2.1353647391239181 24.136362841491973 14.564194570986233  2.1353649992121544 24.363635507113752 14.564202090767361  6.1614429435144249 24.590908814049548 13.22254697800272  9.5007766401624671 24.818181213031789 10.731222036778201  11.833592486957231 25.045453983563586 7.4255827191574326  14.166408088346298 25.499999450332787 -4.377150151e-08  11.833592429846549 25.954544917116131 -7.4255827887591481  9.5007765888938547 26.181817687613886 -10.731221899369704  6.1614429275850195 26.409090086678312 -13.222547951061323  2.1353645795426077 26.636363393480124 -14.564200075765253  -2.1353639308480536 26.863636059267407 -14.56419717483192  -6.1614446028493681 27.090907366527702 -13.222550629209064  -9.5007752499529285 27.318182956412443 -10.731219973252447  -11.833593257349479 27.545452660546221 -7.4255833575016785  -12.999999996135664 27.772727307710433 -3.7127913429626145  -13.000000329781235 27.999999340437132 4.7712173770000002e-08 
 0 12 3.1454150763931277 9 6.2908301527862553 12
7 0 0  11 21 3  -9.0000002198526854 23.000000439705289 -3.1802780849999997e-08  -9.0000005762777651 23.227273861670419 2.5703940416777749  -8.1924866014791071 23.454544668898475 5.1407890059932377  -6.5774618772777718 23.681820419399983 7.4293034303157182  -4.2656119143942481 23.90909028403733 9.1540800379838547  -1.4783340282742348 24.13636443131659 10.082897457281828  1.4783337868228401 24.363637220087281 10.082914415978644  4.2656122880461709 24.590909367816113 9.1540686275087548  6.5774611506337033 24.818182423309249 7.4293083140705134  8.1924871487456148 25.045455107352026 5.140788128927805  9.8075133811383708 25.500000549659624 4.2880222719999997e-08  8.1924871824746575 25.954545991983196 -5.1407880537653696  6.5774612306439035 26.181818675988392 -7.4293080604341579  4.2656124338766936 26.409091731575067 -9.1540695251918951  1.4783335453133355 26.636363879144582 -10.082912374861136  -1.4783330418195535 26.863636668114548 -10.082900087233249  -4.2656134031743687 27.090910815198946 -9.1540779644126573  -6.5774600010257407 27.318180680012137 -7.4293044892528837  -8.1924879011865741 27.545456430331598 -5.1407888601559657  -8.9999999688847723 27.772727237754097 -2.570394121191093  -9.0000003297814555 28.000000659562758 -4.7703681010000001e-08 
 0 12 3.1454150763931277 9 6.2908301527862553 12
7 0 0  1 2 2  -13.000000329781235 27.999999340437132 4.7712173770000002e-08  -9.0000003297814555 28.000000659562758 -4.7703681010000001e-08 
 0 2 4 2
7 0 0  1 2 2  -8.9999997801474212 21.000000439705332 -3.1806804299999997e-08  -12.999999780147322 20.999999560294711 3.1802706249999997e-08 
 0 2 4 2
7 0 0  11 21 3  -12.999999780147284 20.999999560294704 3.1802743549999997e-08  -12.999999423718982 21.227271592885753 3.7127912655068878  -11.833592711614893 21.454546240162362 7.4255831158878909  -9.500774782598068 21.681815944289802 10.731219577668845  -6.1614442614403151 21.909091534070033 13.222550107793653  -2.1353637514945345 22.136362841494691 14.564196572104491  2.1353645783527742 22.363635507110921 14.564199446901894  6.1614427479404421 22.590908814052099 13.222547354298984  9.5007762528247444 22.818181213030471 10.731221387521739  11.833591974920591 23.045453983563963 7.4255824024092645  14.166407489364678 23.499999450332734 -4.287942618e-08  11.833591941191871 23.954544917116145 -7.4255824775732204  9.5007761728121007 24.181817687614561 -10.731221641152688  6.1614426021150672 24.409090086676773 -13.222546456626905  2.1353648198561443 24.636363393482778 -14.564201488005265  -2.1353647379441201 24.863636059264792 -14.564193942162891  -6.1614427726631105 25.090907366529517 -13.222552181366318  -9.5007766588487712 25.318182956411906 -10.731218518720116  -11.833591411907703 25.545452660546346 -7.4255832617381756  -13.000000031111869 25.772727307710511 -3.7127911859874594  -12.99999967021842 25.999999340437238 4.7703869300000001e-08 
 0 12 3.1454150763931277 9 6.2908301527862553 12
7 0 0  1 2 2  -12.99999967021842 25.999999340437238 4.7703869300000001e-08  -13.000000329781239 27.999999340437128 4.771217021e-08 
 0 2 2 2
7 0 0  11 21 3  -8.9999997801473786 21.000000439705332 -3.1806766999999997e-08  -8.9999994418861693 21.227273861671556 2.5703938846903496  -8.1924874462982213 21.454544668894748 5.1407884737794376  -6.577459664944012 21.68182041940797 7.4293039774569181  -4.2656132235182334 21.909090284025659 9.1540773675980116  -1.4783330406476174 22.136364431329998 10.082899458404416  1.4783333659663676 22.363637220075564 10.082911772109336  4.2656120924699463 22.59090936782405 9.1540690038074413  6.5774607632971298 22.818182423305782 7.4293076648130372  8.192486636708697 23.045455107352726 5.1407878121798758  9.8075127821569481 23.500000549659678 4.3772049489999999e-08  8.1924866938198289 23.954545991982702 -5.1407877425791719  6.5774608145626061 24.181818675992222 -7.4293078022180881  4.2656121084058949 24.409091731565884 -9.1540680307558251  1.4783337856278695 24.636363879159521 -10.08291378710291  -1.4783338489163615 24.863636668097548 -10.082896854563026  -4.2656115729878135 25.09091081521337 -9.154079516570377  -6.5774614099215887 25.318180680003493 -7.4293030347205153  -8.1924860557448227 25.545456430335317 -5.1407887643923917  -9.0000000038609738 25.772727237753287 -2.5703939642159712  -8.9999996702186422 26.000000659562872 -4.771198192e-08 
 0 12 3.1454150763931277 9 6.2908301527862553 12
7 0 0  1 2 2  -9.0000003297814555 28.000000659562755 -4.770367923e-08  -8.9999996702186422 26.000000659562872 -4.771198192e-08 
 0 2 2 2
7 0 0  8 9 2  -13.00000032978129 27.999999340437135 4.7712061860000003e-08  -13.000000622110184 28.140850827120808 2.3009997608623634  -12.534540416402212 28.281704270587685 4.6019982469794085  -11.603625103057926 28.422554798435506 6.7931501727513268  -10.238348939002856 28.56340758935945 8.7646081773689488  -8.5009618477943949 28.704260380300376 10.417515893728202  -6.479537335502016 28.845110908147443 11.675132021016319  -4.2778163235502324 28.985964351600547 12.489791457031108  -2.0043299457624255 29.126815838298516 12.844558098536861 
 0 9 1.4177225019654478 9
7 0 0  8 9 2  -9.0000003297815105 28.000000659562765 -4.7703786699999998e-08  -9.0000006389993636 28.140853349342155 1.592999367842455  -8.6777588562960943 28.281704082335139 3.1860007012312495  -8.0332780719947721 28.422557730956662 4.7029467703970607  -7.0880907073279005 28.563409116485673 6.0678082587570019  -5.8852780573738688 28.70426050201646 7.2121256688160571  -4.4858356200987179 28.84511415062612 8.0827836913107376  -2.9615648741645084 28.985964883638179 8.6467787660040667  -1.3876131648812917 29.126817573402189 8.8923864914103969 
 0 9 1.4177225019654478 9
1 -2.0043299457624251 29.126815838298512 12.844558098536863 0.15417919522028292 4.3377591817999998e-07 -0.98804290178161691 
7 0 0  1 2 2  -8.9999996702186422 26.000000659562865 -4.77119837e-08  -12.99999967021842 25.999999340437238 4.7703869300000001e-08 
 0 2 4 2
7 0 0  8 9 2  -12.999999670218475 25.999999340437235 4.770376272e-08  -12.99999936100094 26.14085082712106 2.300999625703918  -12.534540541594101 26.281704270587902 4.6019978549869434  -11.603623563173791 26.422554798434994 6.7931501308522435  -10.238348895525714 26.563407589360782 8.7646070108881169  -8.5009611280016433 26.704260380299377 10.417516184986294  -6.479536942348215 26.845110908148285 11.675130465405017  -4.2778161490096176 26.985964351600423 12.489791215027681  -2.0043298120123523 27.126815838298693 12.844557241357125 
 0 9 1.4177225019654478 9
7 0 0  1 2 2  -2.0043298120123532 27.126815838298693 12.844557241357121  -2.0043299457624202 29.126815838298512 12.844558098536863 
 0 2 2 2
7 0 0  8 9 2  -8.9999996702187008 26.000000659562865 -4.7712089389999998e-08  -8.9999993778901679 26.140853349342571 1.5929992326839968  -8.677758981487834 26.281704082334837 3.1860003092388096  -8.033276532110877 26.422557730957141 4.702946728497964  -7.0880906638505259 26.56340911648574 6.0678070922761949  -5.8852773375812486 26.704260502016481 7.2121259600741014  -4.4858352269448654 26.845114150626429 8.0827821356994676  -2.9615646996239091 26.985964883638218 8.6467785240006378  -1.387613031131222 27.126817573402366 8.8923856342306564 
 0 9 1.4177225019654478 9
7 0 0  1 2 2  -1.3876131648812944 29.126817573402185 8.8923864914104005  -1.387613031131222 27.126817573402366 8.8923856342306564 
 0 2 2 2
1 -1.3876130311312225 27.12681757340237 8.8923856342306582 -0.15417919522028292 -4.3377591817999998e-07 0.98804290178161691 
Polygon3D 0
PolygonOnTriangulations 0
Surfaces 25
9 0 0 0 0 1 11 2 21 2 3 -12.999999999999995 13 1.7800000000000001e-15  -13.000000347308818 13.227272032653865 3.7127913278895059  -11.833591684842087 13.454546679877669 7.4255834935506666  -9.5007768605012153 13.681816384014752 10.731218825803257  -6.1614428804560593 13.909091973824742 13.222552539453444  -2.1353647386548364 14.13636328120363 14.564194319449573  2.1353649274662581 14.36363594686442 14.564201849667016  6.1614428069511877 14.590909253770542 13.222546769449943  9.5007764532195207 14.818181652770484 10.73122187853048  11.833592268648619 15.045454423294858 7.4255826225254458  14.166407848752645 15.499999890067516 -9.1075207000000006e-09  11.833592247877021 15.954545356847035 -7.4255826342167  9.5007764544672444 16.181818127355044 -10.731221694625415  6.1614428557319449 16.409090526394099 -13.222547712358672  2.1353645790651261 16.636363833237862 -14.564199824212512  -2.1353638590971347 16.863636498971989 -14.564196933746075  -6.1614444662878363 17.090907806284797 -13.222550420639475  -9.5007750630053298 17.318183396137574 -10.731219815021626  -11.83359303905312 17.545453100263483 -7.4255832608590113  -12.999999767168424 17.772727747472274 -3.7127913119821745  -13.000000109925713 17.999999780148595 1.5903133030000001e-08  
-9 13.000000000000002 0  -9.0000003473088235 13.227273421894743 2.5703940106910057  -8.1924863831868002 13.454544229202481 5.1407889093445851  -6.5774616903389882 13.681819979644727 7.4293032720819863  -4.2656117778304177 13.909089844320423 9.1540798294078716  -1.4783339565395053 14.136363991567686 10.082897216199459  1.4783337863452386 14.363636780368484 10.082914164422681  4.2656122161841488 14.590908928074295 9.1540683888109537  6.5774610162025136 14.818181983580601 7.4293081093297912  8.1924869667725133 15.045454667617744 5.1407879743908422  9.807513141544586 15.500000109928674 8.2227741400000004e-09  8.1924869641692517 15.954545552248025 -5.1407879571278094  6.5774610437059158 16.181818236265091 -7.4293079021820265  4.2656122973206996 16.409091291821063 -9.1540693166362441  1.4783334735698299 16.636363439443425 -10.082912133758899  -1.4783330413362392 16.863636228347119 -10.082899835698981  -4.2656133313171836 17.090910375497533 -9.1540777256912609  -6.577459866585766 17.318180240247671 -7.4293042845314154  -8.1924877192282821 17.545455990635727 -5.1407887056108779  -8.9999997580846465 17.772726797985136 -2.5703940265929557  -9.0000001099257396 18.000000219851394 -1.5902534400000001e-08  

0 2
4 2

0 12
3.1454150763931277 9
6.2908301527862553 12

9 0 0 0 0 1 11 2 21 2 3 -13.000000000000004 10.999999999999996 0  -12.999999652688368 11.227272032653797 3.7127912964932763  -11.833592929906581 11.454546679878199 7.4255832125372052  -9.5007749695370816 11.681816384013203 10.73121973590289  -6.161444398004563 11.909091973827334 13.222550316366842  -2.1353638232286718 12.136363281200968 14.564196813192183  2.1353645788299938 12.363635946866095 14.564199698451949  6.1614428198026765 12.590909253769951 13.22254759300106  9.500776387255863 12.818181652770543 10.731221592260523  11.833592156893699 13.045454423294883 7.4255825569466021  14.166407728958456 13.499999890067492 -8.2221600200000002e-09  11.833592159497215 13.954545356847058 -7.4255825742107779  9.5007763597499366 14.181818127354916 -10.731221799404892  6.1614427386738164 14.40909052639457 -13.222546665182065  2.1353648915914483 14.636363833236743 -14.564201729109179  -2.1353647384147232 14.86363649897373 -14.564194193695105  -6.1614428445314893 15.090907806282974 -13.222552420087808  -9.5007767932839631 15.318183396138885 -10.731218723444142  -11.833591593866212 15.545453100262847 -7.4255834162807313  -13.000000241912092 15.772727747472448 -3.7127912805868069  -12.999999890074317 15.999999780148608 1.5902388740000002e-08  
-12.999999999999995 13.000000000000004 1.7800000000000001e-15  -13.000000347308779 13.227272032653822 3.7127913278894216  -11.833591684842261 13.454546679877845 7.4255834935509988  -9.5007768605008085 13.681816384014358 10.731218825802536  -6.1614428804567209 13.909091973825289 13.222552539454526  -2.1353647386540175 14.136363281203085 14.564194319448253  2.1353649274654374 14.363635946864832 14.564201849668287  6.1614428069518477 14.590909253770338 13.222546769449064  9.5007764532191317 14.818181652770518 10.731221878530864  11.833592268648752 15.045454423294879 7.4255826225253463  14.166407848752517 15.499999890067457 -9.1073927899999997e-09  11.83359224787713 15.954545356847131 -7.4255826342168723  9.5007764544670543 16.181818127354614 -10.731221694624692  6.1614428557320675 16.409090526395111 -13.222547712360278  2.1353645790651643 16.636363833236054 -14.564199824210046  -2.1353638590972839 16.863636498974476 -14.564196933748873  -6.1614444662876648 17.090907806282321 -13.22255042063713  -9.5007750630054808 17.318183396139251 -10.731219815023074  -11.833593039053023 17.545453100262751 -7.4255832608584047  -12.999999767168463 17.772727747472459 -3.7127913119823264  -13.000000109925715 17.999999780148595 1.590312948e-08  

0 2
2 2

0 12
3.1454150763931277 9
6.2908301527862553 12

9 0 0 0 0 2 11 5 41 4 5 -13.000005228692473 3.572308008369447 -6.9869218031638676  -13.000004753356791 3.6111891199780732 -6.3517470509762211  -13.000004278021079 3.6500702312919184 -5.7165723073504155  -13.000003802685407 3.6889513423109879 -5.0813975722864146  -13.000003327349766 3.7278324530352673 -4.4462228457842192  -13.000002852014051 3.7667135634647719 -3.8110481278438653  -13.000002376678301 3.8055946735994945 -3.1758734184653363  -13.000001901342671 3.8444757834394361 -2.5406987176486329  -13.000001426006987 3.8833568929845965 -1.9055240253937424  -13.000000950671344 3.9222380022349776 -1.2703493417006753  -13.000000475335673 3.9611191111905795 -0.63517466656942867  -12.999997221517006 4.2272722525056201 3.7127911866067715  -11.833597287631571 4.4545468997310245 7.4255822289889588  -9.5007683511642451 4.6818166038684561 10.73122292125403  -6.1614497094218432 4.9090921936850727 13.222542535560194  -2.1353606192400609 5.1363635010585433 14.564205541295657  2.1353633586059777 5.3636361667216512 14.564192169194998  6.1614428647805788 5.5909094736219442 13.222550475432957  9.5007761563844362 5.8181818726220182 10.731220590314368  11.833591765751025 6.0454546431462974 7.4255823274210044  14.166407309679249 6.5000001099189051 -5.1238454399999998e-09  11.833591850167528 6.9545455766984672 -7.4255823641894541  9.5007760282400291 7.1818183472063328 -10.731222166135577  6.16144232896995 7.4090907462469415 -13.222543000058437  2.1353659854334079 7.6363640530914028 -14.564208396255934  -2.1353678160256639 7.8636367188323755 -14.564184603507226  -6.1614371683850502 8.0909080261401733 -13.222559418164961  -9.5007828492584547 8.3181836159939468 -10.731214902917994  -11.833586535712531 8.5454533201160956 -7.4255839602588543  -13.000001903514743 8.7727279673240446 -3.7127911707024905  -12.999998644499668 9.0388811098112711 0.63517470119798169  -12.999998168404893 9.0777622196880081 1.2703493913121926  -12.999997692310096 9.1166433296302909 1.9055240862424261  -12.999997216215297 9.155524439638107 2.5406987859886878  -12.999996740120498 9.194405549711469 3.175873490550976  -12.999996264025729 9.2332866598503571 3.8110481999292842  -12.99999578793096 9.2721677700547858 4.4462229141236271  -12.999995311836159 9.3110488803247549 5.0813976331339781  -12.999994835741377 9.3499299906602609 5.7165723569603566  -12.999994359646589 9.3888111010613038 6.3517470856027716  -12.999993883551776 9.4276922115278801 6.9869218190612123  
-13.0000029411407 7.0723078984429995 -6.9869218035499401  -13.00000267376427 7.1111890111983396 -6.3517470606916477  -13.000002406387825 7.1500701235442214 -5.7165723245222981  -13.0000021390114 7.1889512354806753 -5.0813975950418708  -13.000001871634995 7.2278323470076451 -4.4462228722503658  -13.000001604258546 7.2667134581251869 -3.8110481561478049  -13.000001336882082 7.3055945688332704 -3.1758734467341765  -13.000001069505682 7.3444756791318939 -2.5406987440094815  -13.000000802129252 7.3833567890210734 -1.9055240479737137  -13.000000534752846 7.4222378985008133 -1.2703493586268786  -13.000000267376423 7.4611190075710985 -0.63517467596897426  -12.99999843710269 7.7272721488856853 3.7127912415500242  -11.833595108769073 7.9545467961107521 7.4255827207630825  -9.5007716603506687 8.181816500243114 10.731221328578457  -6.1614470537131982 8.4090920900628454 13.222546425963525  -2.1353622212343693 8.6363633974291929 14.564201177243911  2.1353639687179871 8.863636063100234 14.564195933823481  6.1614428422916276 9.0909093700012047 13.222549034217007  9.5007762718201505 9.3181817690025177 10.731221091287447  11.833591961322362 9.5454545395268209 7.4255824421838037  14.166407519318852 10.000000006299487 -6.67300273e-09  11.833592004832372 10.454545473078859 -7.4255824692001164  9.5007761939949837 10.681818243587376 -10.731221982770235  6.1614425338218837 10.90909064262555 -13.222544832620255  2.135365438512427 11.136363949469882 -14.56420506268255  -2.1353662772201907 11.363636615204356 -14.564189398601174  -6.1614400064582746 11.590907922516049 -13.222555919126378  -9.5007798212712036 11.818183512370169 -10.731216813181071  -11.833589064789376 12.045453216494952 -7.4255836882697919  -13.000001072713415 12.272727863704368 -3.7127912256446489  -12.999999237191247 12.538881006191751 0.63517471059886166  -12.999998969048113 12.577762116183052 1.2703494082397575  -12.999998700904966 12.616643226354519 1.9055241088237782  -12.999998432761819 12.655524336706129 2.5406988123509273  -12.999998164618672 12.694405447237944 3.1758735188212039  -12.999997896475543 12.733286557949892 3.8110482282346041  -12.999997628332412 12.772167668841991 4.4462229405911353  -12.999997360189266 12.811048779914266 5.0813976558907834  -12.999997092046131 12.849929891166695 5.7165723741335608  -12.99999682390299 12.888811002599272 6.3517470953194701  -12.999996555759836 12.927692114212018 6.986921819448507  
-13.000000000002682 11.572307790318119 -6.986921804046319  -13.000000000002439 11.611188901599446 -6.3517470731829118  -13.000000000002196 11.650070012618725 -5.716572346600433  -13.00000000000195 11.688951123375954 -5.0813976242988872  -13.000000000001707 11.727832233871133 -4.4462229062782699  -13.00000000000146 11.766713344104263 -3.8110481925385842  -13.000000000001222 11.805594454075344 -3.1758734830798279  -13.000000000000977 11.844475563784375 -2.5406987779020014  -13.000000000000734 11.883356673231356 -1.9055240770051052  -13.00000000000049 11.922237782416284 -1.2703493803891399  -13.000000000000245 11.961118891339167 -0.63517468805410437  -12.999999999998574 12.22727203265381 3.7127913121913489  -11.83359230737442 12.454546679878021 7.425583353044102  -9.500775915018945 12.68181638401378 10.731219280852713  -6.161443639230642 12.90909197382631 13.222551427910684  -2.1353642809413449 13.136363281202026 14.564195566320219  2.1353647531477158 13.363635946865465 14.564200774060119  6.1614428133772616 13.590909253770144 13.222547181225062  9.5007764202374965 13.81818165277053 10.731221735395692  11.833592212771226 14.045454423294881 7.4255825897359742  14.166407788855487 14.499999890067475 -8.6647764e-09  11.833592203687171 14.954545356847095 -7.4255826042138251  9.5007764071084964 15.181818127354765 -10.731221747014793  6.161442797202942 15.409090526394841 -13.222547188771172  2.1353647353283063 15.636363833236398 -14.564200776659613  -2.1353642987560035 15.863636498974103 -14.564195563721988  -6.1614436554095775 16.090907806282647 -13.222551420362469  -9.5007759281447228 16.318183396139069 -10.731219269233609  -11.833592316459617 16.545453100262797 -7.4255833385695684  -13.000000004540277 16.772727747472452 -3.7127912962845668  -12.999999999223281 17.038880889959756 0.6351747226857074  -12.99999999844654 17.077761999803656 1.2703494300037694  -12.999999997669804 17.116643109680318 1.9055241378569454  -12.999999996893067 17.155524219589736 2.540698846245236  -12.99999999611633 17.194405329531911 3.1758735551686401  -12.999999995339595 17.233286439506834 3.811048264627158  -12.999999994562859 17.272167549514521 4.44622297462079  -12.999999993786123 17.311048659554963 5.0813976851495344  -12.999999993009389 17.349929769628162 5.7165723962133939  -12.999999992232651 17.38881087973412 6.3517471078123684  -12.999999991455915 17.427691989872827 6.9869218199464562  
-12.999997058864748 16.072307688492689 -6.9869218045419554  -12.999997326240679 16.111188798299999 -6.3517470856735629  -12.999997593616616 16.15006990799267 -5.7165723686780874  -12.999997860992545 16.188951017570684 -5.0813976535555287  -12.99999812836848 16.227832127034056 -4.4462229403058862  -12.999998395744406 16.266713236382778 -3.8110482289291565  -12.999998663120339 16.305594345616854 -3.1758735194253416  -12.999998930496268 16.34447545473628 -2.5406988117944418  -12.999999197872198 16.38335656374106 -1.9055241060364574  -12.999999465248129 16.422237672631198 -1.2703494021513881  -12.999999732624055 16.461118781406693 -0.6351747001392346  -13.000001562894461 16.727271922721371 3.7127913828326742  -11.833589505979774 16.954546569944736 7.4255839853251224  -9.5007801696872267 17.181816274083886 10.731217233126966  -6.1614402247480804 17.40909186388922 13.22255642985785  -2.1353663406483214 17.636363171274297 14.564189955396511  2.1353655375774436 17.863635836930126 14.564205614296755  6.1614427844628992 18.090909143838523 13.222545328233116  9.5007765686548513 18.31818154283798 10.731222379503947  11.833592464220089 18.545454313362381 7.4255827372881447  14.166408058392113 18.9999997801349 -1.065655008e-08  11.83359240254198 19.454545246914762 -7.4255827392275338  9.5007766202220019 19.681818017421591 -10.731221511259344  6.1614430605840003 19.909090416463563 -13.222549544922092  2.1353640321441847 20.136363723302352 -14.564196490636668  -2.1353623202918133 20.363636389043286 -14.56420172884282  -6.1614473043608813 20.590907696348683 -13.222546921598553  -9.5007720350182296 20.818183286207393 -10.731221725286142  -11.833595568129862 21.045452990330098 -7.4255829888693405  -12.999998936367138 21.27272763753999 -3.712791366924483  -13.000000761255308 21.538880780027199 0.6351747347725526  -13.000001027844977 21.57776188972371 1.2703494517677816  -13.000001294434652 21.616642999305569 1.9055241668901126  -13.000001561024325 21.655524108772781 2.5406988801395447  -13.000001827613998 21.694405218125301 3.1758735915160745  -13.00000209420365 21.733286327363214 3.811048301019714  -13.000002360793317 21.772167436486505 4.4462230086504402  -13.00000262738299 21.811048545495115 5.0813977144082809  -13.000002893972653 21.849929654389079 5.7165724182932234  -13.000003160562315 21.888810763168404 6.3517471203052631  -13.000003427151999 21.927691871833076 6.9869218204444019  
-12.99999477131311 19.57230758488021 -6.9869218049266513  -12.999995246648279 19.611188693540985 -6.3517470953878616  -12.999995721983446 19.650069802201745 -5.7165723858490756  -12.999996197318614 19.688950910862506 -5.0813976763102895  -12.999996672653776 19.727832019523262 -4.4462229667715043  -12.999997147988948 19.766713128184026 -3.8110482572327156  -12.999997623324116 19.805594236844794 -3.1758735476939277  -12.999998098659283 19.84447534550555 -2.5406988381551394  -12.999998573994453 19.883356454166314 -1.9055241286163531  -12.999999049329624 19.922237562827078 -1.2703494190775666  -12.999999524664789 19.961118671487846 -0.63517470953877897  -13.000002778480143 20.227271812801998 3.7127914377759268  -11.833587327117286 20.454546460025021 7.4255844770992461  -9.5007834788736449 20.681816164159109 10.731215640451396  -6.1614375690394398 20.909091753967552 13.222560320261174  -2.1353679426426253 21.136363061345509 14.564185591344769  2.1353661476894499 21.363635727009274 14.564209378925224  6.1614427619739507 21.590909033918347 13.222543887017167  9.500776684090571 21.81818143291904 10.731222880477031  11.833592659791426 22.045454203443466 7.425582852050943  14.166408268031709 22.499999670216042 -1.220570737e-08  11.833592557206829 22.954545136995723 -7.4255828442381953  9.5007767859769494 23.181817907503191 -10.731221327893996  6.161443265435933 23.40909030654274 -13.222551377483907  2.1353634852232051 23.636363613381391 -14.56419315706329  -2.1353607814863427 23.863636279115831 -14.564206523936766  -6.1614501424340977 24.090907586425121 -13.222543422559976  -9.5007690070309785 24.318183176284187 -10.73122363554921  -11.833598097206702 24.545452880409506 -7.4255827168802764  -12.999998105565814 24.772727527620862 -3.7127914218666396  -13.00000135394688 25.038880670108242 0.63517474417343212  -13.0000018284882 25.077761779919307 1.2703494686953465  -13.000002303029527 25.11664288973035 1.9055241894714647  -13.000002777570851 25.155523999541366 2.5406989065017846  -13.000003252112174 25.194405109352349 3.1758736197863011  -13.00000372665346 25.233286219163311 3.8110483293250352  -13.000004201194773 25.272167328974263 4.4462230351179457  -13.000004675736099 25.311048438785175 5.0813977371650836  -13.000005150277403 25.349929548596066 5.716572435466424  -13.00000562481871 25.388810658406936 6.351747130021959  -13.000006099360053 25.427691768217777 6.986921820831693  

-6.9999997675361358 3
0 1
2 1
8.9999997801350133 3

-0.53810943625848429 12
0 10
3.1454150763931277 9
6.2908301527862553 10
6.8289396049120867 12

1 -11 12 1.2e-16 -1.0000000000000001e-17 1.1e-16 1 0 1 -1.1e-16 -1 -1.1e-33 -1.0000000000000001e-17 
1 -11 -2.84e-15 6.5 1.0000000000000001e-17 1 2.2e-16 0 -2.2e-16 1 1 -1.0000000000000001e-17 -2.2000000000000001e-33 
9 0 0 0 0 1 11 2 21 2 3 -9.0000000000000018 13.000000000000002 0  -9.0000003473088324 13.227273421894706 2.5703940106908343  -8.1924863831867594 13.454544229202599 5.1407889093453161  -6.5774616903390903 13.681819979644517 7.4293032720802188  -4.2656117778302542 13.909089844320638 9.1540798294108683  -1.4783339565397429 14.136363991567555 10.082897216195754  1.4783337863455346 14.363636780368507 10.082914164426048  4.2656122161838761 14.590908928074345 9.1540683888087546  6.5774610162026779 14.818181983580525 7.4293081093307469  8.1924869667724654 15.045454667617774 5.1407879743906655  9.8075131415446357 15.500000109928655 8.2228213799999999e-09  8.1924869641692055 15.95454555224803 -5.1407879571277135  6.5774610437061813 16.181818236265091 -7.4293079021827051  4.2656122973200024 16.409091291821063 -9.1540693166346969  1.4783334735710227 16.636363439443425 -10.082912133761068  -1.4783330413376869 16.863636228347119 -10.082899835696827  -4.2656133313159161 17.090910375497533 -9.1540777256928738  -6.577459866586552 17.318180240247671 -7.4293042845304855  -8.1924877192279588 17.545455990635727 -5.1407887056112669  -8.9999997580847211 17.772726797985136 -2.570394026592854  -9.0000001099257378 18.000000219851394 -1.590253085e-08  
-8.9999999999999964 11.000000000000002 1.7800000000000001e-15  -8.9999996526883912 11.22727342189456 2.5703939792946877  -8.1924876282511239 11.454544229203478 5.1407886283315634  -6.5774597993754895 11.681819979642013 7.4293041821802408  -4.2656132953776318 11.909089844324946 9.1540776063240941  -1.4783330411150135 12.136363991562702 10.08289970993817  1.4783334377104429 12.363636780372218 10.082912013211425  4.265612229034768 12.590908928072404 9.154069212359456  6.5774609502391854 12.818181983581228 7.429307823061027  8.1924868550175312 13.045454667617649 5.1407879088117312  9.8075130217504594 13.500000109928715 9.1083201499999999e-09  8.1924868757893847 13.954545552248051 -5.1407878971219763  6.5774609489886915 14.181818236264998 -7.4293080069614001  4.2656121802625595 14.409091291820998 -9.1540682694595201  1.478333786096097 14.636363439444024 -10.082914038656169  -1.4783339206537889 14.863636228345971 -10.082897095646862  -4.2656117095608872 15.090910375498733 -9.1540797251409707  -6.5774615968642669 15.318180240246956 -7.4293031929528253  -8.1924862740414977 15.545455990635977 -5.1407888610331414  -9.0000002328282704 15.772726797985097 -2.5703939951974384  -8.9999998900743421 16.000000219851405 -1.5903271589999999e-08  

0 2
2 2

0 12
3.1454150763931277 9
6.2908301527862553 12

9 0 0 0 0 2 11 5 41 4 5 -8.9999983848693326 15.735772015869557 -2.9883414761146203  -8.9999985316993936 15.759792761686109 -2.7166740741339312  -8.9999986785294386 15.783813507502655 -2.4450066711654896  -8.9999988253594836 15.8078342533192 -2.1733392672092728  -8.9999989721895908 15.831854999135741 -1.9016718622652995  -8.9999991190196447 15.855875744952273 -1.6300044563335518  -8.9999992658496897 15.879896490768807 -1.3583370494140445  -8.9999994126797453 15.903917236585333 -1.0866696415067714  -8.9999995595098152 15.927937982401858 -0.81500223261172844  -8.9999997063398869 15.951958728218379 -0.54333482272891953  -8.9999998531699532 15.975979474034897 -0.27166741185834381  -9.0000013892395732 16.227273641745931 2.570394057785057  -8.1924845155900758 16.454544449053394 5.1407893308659762  -6.5774645267846994 16.681820199494272 7.4293019069300854  -4.2656095015090223 16.909090064169327 9.1540831640412748  -1.4783353296769375 17.136364211416314 10.082893475581859  1.4783343092982102 17.36363700021813 10.08291739124822  4.2656121969075365 17.590909147925494 9.1540671534826092  6.5774611151479236 17.818182203431896 7.4293085387353566  8.1924871344048764 18.045454887469173 5.140788072759074  9.8075133212359127 18.500000329780054 6.8945731399999996e-09  8.1924870967389456 18.954545772099429 -5.1407880471363256  6.5774611857824254 19.181818456116488 -7.4293077450146496  4.2656124729061791 19.409091511672052 -9.1540708873975749  1.4783330047833769 19.636363659293433 -10.082909276418208  -1.4783317223634371 19.863636448195418 -10.082903945772076  -4.2656157639486381 20.09091059534645 -9.1540747265205056  -6.5774572711697896 20.318180460097505 -7.4293059218970958  -8.1924898870078113 20.545456210486339 -5.1407884724784383  -8.9999990459693482 20.772727017836456 -2.5703940736859803  -9.0000005870079036 21.0240211855163 0.27166739595718609  -9.0000007343129216 21.048041931329806 0.54333480682802726  -9.0000008816179591 21.072062677143318 0.8150022167111034  -9.0000010289229806 21.09608342295682 1.0866696256064159  -9.0000011762280057 21.120104168770325 1.3583370335139635  -9.0000013235330396 21.14412491458382 1.6300044404337479  -9.0000014708380753 21.168145660397311 1.901671846365766  -9.0000016181431004 21.192166406210802 2.1733392513100198  -9.0000017654481237 21.216187152024286 2.4450066552665097  -9.0000019127531541 21.240207897837767 2.7166740582352316  -9.0000020600581951 21.264228643651247 2.9883414602161911  
-8.9999989905439506 14.235771905943976 -2.9883414759023008  -8.9999990823126819 14.259792651323805 -2.7166740714715019  -8.9999991740814043 14.283813396747306 -2.4450066665468277  -8.9999992658501284 14.307834142214467 -2.1733392611282651  -8.9999993576188864 14.331854887725308 -1.9016718552158252  -8.9999994493876159 14.355875633279815 -1.6300044488094976  -8.9999995411563383 14.379896378877994 -1.3583370419092904  -8.999999632925066 14.403917124519833 -1.0866696345152005  -8.9999997246938044 14.42793787020535 -0.81500222662722521  -8.9999998164625428 14.451958615934531 -0.54333481824536711  -8.9999999082312758 14.475979361707388 -0.27166740936962552  -9.0000008682742028 14.727273529418717 2.5703940342379457  -8.1924854493884194 14.954544336725842 5.1407891201056461  -6.5774631085618926 15.181820087170298 7.429302589505153  -4.2656106396696405 15.409089951841308 9.154081496726068  -1.4783346431083391 15.636364099095095 10.08289534588881  1.4783340478218718 15.863636887889625 10.082915777837131  4.2656122065457067 16.090909035599701 9.1540677711456837  6.5774610656753003 16.3181820911039 7.4293083240330517  8.1924870505886709 16.545454775141767 5.1407880235748697  9.8075132313902742 17.000000217452509 7.5586972600000002e-09  8.1924870304540764 17.454545659771917 -5.1407880021320196  6.5774611147443034 17.681818343789061 -7.4293078235986778  4.2656123851130907 17.909091399345012 -9.154070102016135  1.4783332391772002 18.13636354696688 -10.08291070508964  -1.4783323818505631 18.363636335871881 -10.082901890734448  -4.2656145476322749 18.590910483020533 -9.1540762261066924  -6.577458568878173 18.818180347772106 -7.4293051032137898  -8.1924888031178842 19.045456098159441 -5.1407885890448526  -8.9999994020270346 19.272726905509071 -2.5703940501394169  -9.0000003670600304 19.524021073188813 0.27166739346791291  -9.0000004593057454 19.548041818958659 0.54333480234391884  -9.0000005515514729 19.572062564684856 0.81500221072604218  -9.000000643797188 19.596083310367366 1.0866696186142837  -9.0000007360429066 19.620104056006223 1.3583370260086429  -9.0000008282886306 19.644124801601404 1.6300044329091203  -9.0000009205343563 19.668145547152914 1.9016718393157146  -9.0000010127800749 19.692166292660769 2.1733392452284268  -9.0000011050257918 19.716187038124936 2.4450066506472568  -9.0000011972715122 19.740207783545447 2.7166740555722027  -9.0000012895172432 19.764228528922288 2.9883414600032681  
-9.0000000000016183 11.735771794417277 -2.988341475548435  -9.000000000001469 11.759792540524906 -2.7166740670341203  -9.0000000000013234 11.78381328660342 -2.4450066588490582  -9.0000000000011795 11.807834032652828 -2.1733392509932532  -9.0000000000010267 11.831854778673119 -1.9016718434667019  -9.0000000000008828 11.855875524664294 -1.6300044362694075  -9.000000000000739 11.879896270626359 -1.3583370294013675  -9.0000000000005898 11.903917016559312 -1.0866696228625827  -9.0000000000004423 11.927937762463152 -0.81500221665305361  -9.0000000000002949 11.951958508337883 -0.54333481077278012  -9.0000000000001439 11.9759792541835 -0.27166740522176192  -8.9999999999986109 12.227273421894633 2.5703939949927612  -8.1924870057189416 12.454544229203037 5.1407887688384397  -6.5774607448572899 12.681819979643265 7.4293037271302298  -4.2656125366039426 12.909089844322793 9.1540787178674812  -1.4783334988273782 13.136363991565128 10.082898463066961  1.4783336120279889 13.363636780370364 10.082913088818737  4.265612222609322 13.590908928073375 9.1540688005841062  6.5774609832209316 13.818181983580876 7.4293079661958874  8.1924869108949991 14.045454667617712 5.1407879416011983  9.8075130816475475 14.500000109928685 8.6655707700000006e-09  8.1924869199792951 14.954545552248041 -5.1407879271248449  6.5774609963474369 15.181818236265045 -7.4293079545720531  4.2656122387912809 15.409091291821031 -9.1540687930471094  1.4783336298335599 15.636363439443723 -10.082913086208618  -1.478333480995738 15.863636228346545 -10.082898465671844  -4.2656125204384017 16.090910375498133 -9.1540787254169231  -6.5774607317254095 16.318180240247315 -7.4293037387416554  -8.1924869966347273 16.545455990635851 -5.1407887833222041  -8.9999999954564949 16.772726797985115 -2.5703940108951464  -9.0000000004802523 17.024020965664938 0.27166738931912449  -9.0000000009604655 17.04804171150758 0.54333479487040504  -9.0000000014406787 17.072062457379339 0.81500220075094043  -9.0000000019208883 17.096083203280216 1.0866696069607307  -9.0000000024010962 17.120103949210201 1.3583370134997756  -9.0000000028813112 17.144124695169296 1.630004420368075  -9.0000000033615208 17.168145441157506 1.9016718275656292  -9.000000003841734 17.192166187174827 2.1733392350924388  -9.0000000043219401 17.216186933221266 2.4450066429485027  -9.0000000048021516 17.240207679296809 2.7166740511338219  -9.0000000052823665 17.26422842540147 2.9883414596483964  
-9.0000010094592842 9.2357716804937819 -2.9883414751943422  -9.000000917690258 9.259792427329204 -2.7166740625965429  -9.0000008259212265 9.2838131740627272 -2.4450066511511355  -9.0000007341522004 9.3078339206943603 -2.173339240858116  -9.0000006423831724 9.3318546672241052 -1.9016718317174883  -9.0000005506141445 9.3558754136519511 -1.630004423729249  -9.0000004588451201 9.3798961599779069 -1.3583370168934004  -9.000000367076094 9.4039169062019692 -1.0866696112099405  -9.0000002753070696 9.4279376523241307 -0.8150022066788698  -9.0000001835380399 9.4519583983444004 -0.54333480330018913  -9.0000000917690119 9.4759791442627783 -0.2716674010738982  -8.9999991317230243 9.7272733119737111 2.5703939557475759  -8.1924885620494656 9.9545441192833994 5.1407884175712333  -6.5774583811526846 10.181819869719394 7.4293048647553075  -4.2656144335382491 10.409089734407436 9.1540759390088908  -1.4783323545464162 10.636363881638323 10.082901580245121  1.4783331762341048 10.863636670454261 10.082910399800339  4.2656122386729374 11.090908818150206 9.1540698300225252  6.5774609007665621 11.318181873661016 7.4293076083587204  8.1924867712013238 11.545454557696816 5.1407878596275269  9.8075129319048209 12.00000000000802 9.7724442699999996e-09  8.1924868095045138 12.454545442327328 -5.1407878521176702  6.5774608779505686 12.68181812634419 -7.4293080855454265  4.2656120924694712 12.909091181900207 -9.1540674840780785  1.4783340204899198 13.136363329523734 -10.082915467327599  -1.4783345801409136 13.36363611842437 -10.082895040609237  -4.2656104932445267 13.590910265578895 -9.1540812247271521  -6.5774628945726485 13.818180130325679 -7.4293023742695201  -8.1924851901515741 14.045455880715426 -5.1407889775995557  -9.0000005888859604 14.272726688064331 -2.5703939716508746  -8.9999996339004777 14.524020855744217 0.2716673851703359  -8.999999542615182 14.548041601659662 0.54333478739689101  -8.999999451329888 14.572062347676994 0.81500219077583869  -8.9999993600445922 14.596083093796221 1.086669595307177  -8.9999992687592858 14.620103840017341 1.3583370009909079  -8.9999991774739865 14.644124586340341 1.6300044078270302  -8.9999990861886889 14.66814533276526 1.9016718158155446  -8.9999989949033878 14.692166079292058 2.1733392249564507  -8.9999989036180832 14.716186825920751 2.4450066352497495  -8.9999988123327892 14.740207572651343 2.7166740466954411  -8.9999987210474899 14.764228319483813 2.9883414592935247  
-9.0000016151339235 7.735771568161014 -2.9883414749816808  -9.0000014683035623 7.7597923154331534 -2.7166740599338319  -9.0000013214731975 7.7838130625597266 -2.445006646532248  -9.0000011746428381 7.807833809540738 -2.173339234776932  -9.0000010278124769 7.8318545563761894 -1.901671824667883  -9.0000008809821246 7.85587530306608 -1.6300044162050995  -9.0000007341517669 7.879896049610406 -1.3583370093885827  -9.000000587321404 7.9039167960091667 -1.0866696042183319  -9.0000004404910481 7.9279375422623692 -0.81500220069434814  -9.000000293660694 7.9519582883700082 -0.54333479881663094  -9.0000001468303381 7.9759790343320844 -0.27166739858517996  -8.9999986107576575 8.2272732020433352 2.5703939322004641  -8.1924894958478074 8.4545440093526842 5.1407882068109032  -6.5774569629298796 8.6818197597922566 7.4293055473303742  -4.2656155716988664 8.9090896244762572 9.1540742716936876  -1.4783316679778189 9.1363637717139436 10.082903450552072  1.4783329147577666 9.3636365605225933 10.082908786389252  4.2656122483111067 9.5909087082212512 9.1540704476855943  6.5774608512939388 9.8181817637298554 7.4293073936564138  8.1924866873851165 10.045454447766248 5.1407878104433227  9.8075128420591824 10.499999890077314 1.0436568389999999e-08  8.1924867432196429 10.95454533239665 -5.1407878071133641  6.5774608069124456 11.181818016413601 -7.4293081641294529  4.2656120046763828 11.409091071970007 -9.1540666986966368  1.4783342548837426 11.636363219594013 -10.082916895999029  -1.4783352396280383 11.86363600849767 -10.082892985571613  -4.2656092769281662 12.090910155649814 -9.1540827243133336  -6.5774641922810302 12.31818002039712 -7.429301555586215  -8.1924841062616505 12.545455770785363 -5.14078909416597  -9.0000009449436504 12.772726578133778 -2.5703939481043108  -8.9999994139526063 13.024020745813573 0.27166738268106266  -8.9999992676080041 13.048041491685353 0.54333478291278248  -8.9999991212634036 13.072062237615363 0.81500218479077746  -8.9999989749188032 13.096082983603608 1.0866695883150446  -8.9999988285741868 13.120103729650076 1.3583369934855871  -8.9999986822295774 13.144124475754769 1.630004400302403  -8.9999985358849717 13.168145221917699 1.9016718087654936  -8.9999983895403606 13.192165968138854 2.1733392188748577  -8.9999982431957477 13.216186714418242 2.4450066306304974  -8.999998096851149 13.240207460755855 2.7166740440324126  -8.9999979505065397 13.264228207151692 2.9883414590806017  

-3.0000002150478027 3
0 1
2 1
5.0000002198414784 3

-0.33244193451033194 12
0 10
3.1454150763931277 9
6.2908301527862553 10
6.6232720872969759 12

9 0 0 0 0 1 11 2 21 2 3 -13.000000109925692 17.999999780148592 1.5903182770000001e-08  -13.000000452714376 18.227271812758843 3.7127913751907369  -11.833591775820166 18.454546460023007 7.4255835708306188  -9.5007769277150889 18.681816164144138 10.731218928161606  -6.1614429163921818 18.909091753948513 13.222552658822337  -2.1353647388851398 19.136363061338841 14.564194445215776  2.1353649633374299 19.363635726991667 14.564201970221626  6.1614428752327299 19.590909033901745 13.222546873726801  9.5007765466930483 19.818181432899976 10.731221957656805  11.833592377804123 20.045454203425109 7.4255826708424451  14.166407968551487 20.499999670196914 -2.6438900609999999e-08  11.833592338863639 20.954545136977988 -7.4255827114890867  9.5007765216817521 21.181817907480056 -10.731221796996778  6.1614428916606698 21.409090306535461 -13.222547831716989  2.1353645793018772 21.636363613350291 -14.564199949982504  -2.1353638949682017 21.863636279123288 -14.564197054298955  -6.1614445345743345 22.090907586395442 -13.222550524923195  -9.5007751564765961 22.3181831762749 -10.731219894136892  -11.833593148203096 22.545452880404369 -7.4255833091847059  -12.99999988165678 22.772727527580784 -3.7127913274717494  -13.00000021985263 22.999999560294668 3.1806692389999998e-08  
-9.0000001099257165 18.000000219851394 -1.5902482890000001e-08  -9.0000004617981659 18.2272736417939 2.5703940261853497  -8.192486492333046 18.45454444904771 5.1407889576694679  -6.5774617838108371 18.681820199526957 7.4293033511966859  -4.2656118461135746 18.909090064187165 9.1540799337029597  -1.4783339924082743 19.136364211437307 10.08289733673703  1.4783337865839528 19.363637000240562 10.082914290206109  4.26561225211519 19.590909147941673 9.1540685081606856  6.5774610834189158 19.818182203452128 7.4293082117022404  8.1924870577603119 20.045454887487516 5.1407880516609907  9.807513261343388 20.500000329798464 2.555202098e-08  8.192487073323873 20.954545772118607 -5.1407880054467832  6.5774611371777407 21.181818456131705 -7.4293079813101803  4.2656123655966995 21.409091511699284 -9.154069420913018  1.4783335094492509 21.636363659300653 -10.082912254315909  -1.4783330415857474 21.863636448231016 -10.082899961463669  -4.2656133672393688 22.090910595354067 -9.1540778450578468  -6.5774599338102515 22.318180460134954 -7.4293043868926798  -8.1924878102062557 22.54545621048079 -5.1407887828838712  -8.9999998634898262 22.772727017881511 -2.5703940738952626  -9.0000002198527298 23.000000439705289 -3.1802816380000002e-08  

0 2
4 2

0 12
3.1454150763931277 9
6.2908301527862553 12

9 0 0 0 0 1 11 2 21 2 3 -8.9999999999999982 11 0  -8.9999996526884409 11.227273421894493 2.5703939792944701  -8.1924876282509551 11.454544229203742 5.1407886283324435  -6.577459799375827 11.68181997964146 7.4293041821781456  -4.2656132953772428 11.909089844325896 9.154077606327542  -1.4783330411152484 12.136363991561272 10.082899709934017  1.4783334377104158 12.363636780373941 10.082912013215124  4.2656122290349527 12.590908928070917 9.1540692123570899  6.5774609502390264 12.818181983582072 7.429307823062004  8.1924868550175898 13.045454667617367 5.1407879088115616  9.8075130217504149 13.500000109929051 9.1083731999999994e-09  8.1924868757894185 13.954545552247639 -5.1407878971219052  6.5774609489885778 14.181818236266718 -7.4293080069619899  4.2656121802628348 14.409091291817164 -9.1540682694581363  1.4783337860956622 14.636363439449898 -10.082914038658165  -1.4783339206533119 14.863636228339393 -10.082897095644897  -4.2656117095612593 15.090910375504222 -9.1540797251423918  -6.5774615968640626 15.318180240243546 -7.429303192952065  -8.192486274041574 15.545455990637461 -5.1407888610334345  -9.0000002328282562 15.772726797984721 -2.5703939951973682  -8.9999998900743421 16.000000219851405 -1.5903268039999999e-08  
-12.999999999999998 10.999999999999996 0  -12.999999652688436 11.227272032653719 3.712791296493466  -11.83359292990624 11.454546679878531 7.4255832125364023  -9.500774969538039 11.681816384012336 10.731219735904883  -6.1614443980027653 11.909091973828897 13.222550316363353  -2.1353638232310139 12.136363281198911 14.564196813196753  2.1353645788321791 12.363635946868053 14.564199698447425  6.1614428198012288 12.590909253768663 13.222547593004354  9.500776387256499 12.818181652771079 10.731221592258942  11.833592156893554 13.04545442329481 7.4255825569469414  14.166407728958582 13.49999989006745 -8.2223446199999994e-09  11.833592159497115 13.95454535684722 -7.4255825742107548  9.5007763597501587 14.181818127354068 -10.731221799404663  6.1614427386734159 14.40909052639628 -13.222546665182543  2.135364891591998 14.636363833234551 -14.564201729108751  -2.1353647384152503 14.863636498975643 -14.564194193695203  -6.1614428445311855 15.090907806281834 -13.222552420088062  -9.5007767932840164 15.318183396139323 -10.731218723443805  -11.833591593866245 15.545453100262757 -7.425583416280924  -13.000000241912087 15.772727747472453 -3.71279128058675  -12.999999890074321 15.999999780148606 1.5902390519999999e-08  

0 2
4 2

0 12
3.1454150763931277 9
6.2908301527862553 12

9 0 0 0 0 1 11 2 21 2 3 -12.999999890074292 15.999999780148611 1.590244381e-08  -12.999999538196715 16.227271812758943 3.7127912809990891  -11.833592820765672 16.454546460023096 7.4255831642124237  -9.5007748760583404 16.681816164143342 10.731219656786593  -6.1614443297275923 16.909091753950307 13.222550212075472  -2.1353637873556539 17.136363061337068 14.564196692649807  2.1353645785887934 17.363635726992346 14.564199572672633  6.1614427838728067 17.590909033902399 13.222547473648786  9.5007763200390176 17.818181432899159 10.731221489889071  11.83359206590605 18.045454203425439 7.4255824796763088  14.166407609159464 18.49999967019675 -2.5551464270000001e-08  11.833592050342695 18.954545136978084 -7.4255825258916373  9.5007762662791393 19.181817907480092 -10.731221720276986  6.1614426703925824 19.409090306535326 -13.222546560905986  2.1353648557237381 19.636363613350351 -14.564201608549162  -2.1353647381805696 19.863636279123806 -14.564194067935496  -6.161442808598439 20.090907586394508 -13.222552300717092  -9.5007767260612646 20.318183176275898 -10.731218621084686  -11.833591502892025 20.545452880403772 -7.4255833390072805  -13.000000136505413 20.772727527581019 -3.7127912332849333  -12.99999978014732 20.999999560294714 3.1802700919999999e-08  
-13.000000109925693 17.999999780148588 1.590318099e-08  -13.000000452714382 18.227271812758641 3.7127913751906507  -11.833591775820208 18.454546460023785 7.4255835708310114  -9.5007769277148917 18.681816164142422 10.731218928160514  -6.1614429163927467 18.909091753951156 13.222552658824544  -2.1353647388841002 19.136363061335771 14.564194445212559  2.135364963336114 19.363635726994378 14.564201970224973  6.1614428752338828 19.590909033900012 13.222546873724397  9.5007765466923981 19.818181432900666 10.731221957657862  11.83359237780429 20.045454203425045 7.4255826708423411  14.166407968551411 20.499999670196793 -2.643909757e-08  11.833592338863598 20.95454513697829 -7.4255827114885724  9.500776521682246 21.181817907478415 -10.731221796999248  6.1614428916594459 21.409090306539252 -13.222547831711992  2.1353645793037139 21.636363613344596 -14.564199949988977  -2.1353638949701432 21.86363627912937 -14.564197054293029  -6.1614445345728015 22.090907586390717 -13.222550524927176  -9.5007751564775056 22.318183176277593 -10.73121989413491  -11.833593148202723 22.545452880403289 -7.425583309185404  -12.999999881656867 22.772727527581036 -3.7127913274716011  -13.00000021985263 22.999999560294668 3.1806694169999999e-08  

0 2
2 2

0 12
3.1454150763931277 9
6.2908301527862553 12

1 -12.999999999999998 13.000000000000002 1.3899999999999999e-15 -0 -0.99611375223099896 0.088076061539331632 1 8.7733776141672012e-19 9.9224260738372005e-18 -9.961137522309992e-18 0.088076061539331632 0.99611375223099896 
1 -13 13 1.3899999999999999e-15 -0.9999999999999909 -0 -1.3511890473999999e-07 0 -1 0 -1.3511890473999999e-07 0 0.9999999999999909 
1 -9 13 1.41e-15 -0.9999999999999909 -0 -1.3511890473999999e-07 0 -1 0 -1.3511890473999999e-07 0 0.9999999999999909 
9 0 0 0 0 1 11 2 21 2 3 -9.0000001099257236 18.000000219851394 -1.590248111e-08  -9.0000004617982263 18.227273641793914 2.5703940261856046  -8.1924864923328489 18.454544449047621 5.1407889576684447  -6.5774617838112466 18.681820199527181 7.429303351199132  -4.2656118461129351 18.909090064186749 9.1540799336989007  -1.4783339924090795 19.136364211437837 10.082897336742001  1.4783337865847239 19.363637000240061 10.082914290201579  4.2656122521146731 19.590909147941939 9.154068508163725  6.5774610834191343 19.818182203452182 7.4293082117008611  8.1924870577602729 20.04545488748731 5.1407880516612918  9.807513261343427 20.500000329798905 2.5551816760000001e-08  8.1924870733238428 20.954545772117935 -5.1407880054466553  6.5774611371778553 21.181818456134842 -7.4293079813104344  4.2656123655963807 21.409091511692292 -9.1540694209127658  1.4783335094499119 21.636363659311026 -10.082912254315946  -1.4783330415867246 21.8636364482198 -10.082899961463879  -4.2656133672383172 22.090910595363177 -9.1540778450575697  -6.5774599338110713 22.318180460129408 -7.4293043868928734  -8.1924878102058347 22.545456210483174 -5.1407887828837824  -8.999999863489947 22.772727017880914 -2.5703940738952844  -9.0000002198527298 23.000000439705289 -3.1802814600000001e-08  
-8.9999998900743208 16.000000219851401 -1.5903220070000001e-08  -8.9999995472807353 16.227273641793889 2.5703939319938298  -8.1924875372775343 16.454544449048328 5.1407885510508127  -6.5774597321568171 16.681820199524847 7.429304079822634  -4.2656132594438878 16.909090064191425 9.1540774869546482  -1.4783330408858311 17.136364211432006 10.082899584172624  1.4783334018425929 17.363637000244928 10.08291189265592  4.2656121607497743 17.590909147939524 9.1540691080832914  6.5774608567676598 17.818182203452753 7.4293077439343351  8.1924867458615847 18.045454887487427 5.1407878604947932  9.8075129019517675 18.500000329798752 2.6439665900000002e-08  8.1924867848027834 18.954545772118216 -5.1407878198496766  6.5774608817750755 19.181818456134145 -7.4293079045889066  4.2656121443289026 19.409091511693116 -9.1540681501048642  1.4783337858708614 19.636363659310955 -10.082913912879301  -1.4783338847982122 19.863636448218958 -10.082896975102466  -4.2656116412630354 20.090910595364434 -9.1540796208510251  -6.5774615033954138 20.31818046012863 -7.4293031138402794  -8.1924861648948948 20.545456210483479 -5.1407888127067434  -9.0000001183385603 20.772727017880893 -2.5703939797083351  -8.9999997801474194 21.000000439705335 -3.1806804299999997e-08  

0 2
2 2

0 12
3.1454150763931277 9
6.2908301527862553 12

9 0 0 0 0 1 11 2 21 2 3 -13.000000219852586 22.999999560294672 3.1806726140000001e-08  -13.000000558110637 23.227271592885351 3.712791422494583  -11.833591866795439 23.4545462401632 7.4255836481006439  -9.5007769949328207 23.681815944288143 10.731219030529978  -6.1614429523143741 23.909091534072129 13.222552778175832  -2.1353647391239181 24.136362841491973 14.564194570986233  2.1353649992121544 24.363635507113752 14.564202090767361  6.1614429435144249 24.590908814049548 13.22254697800272  9.5007766401624671 24.818181213031789 10.731222036778201  11.833592486957231 25.045453983563586 7.4255827191574326  14.166408088346298 25.499999450332787 -4.377150151e-08  11.833592429846549 25.954544917116131 -7.4255827887591481  9.5007765888938547 26.181817687613886 -10.731221899369704  6.1614429275850195 26.409090086678312 -13.222547951061323  2.1353645795426077 26.636363393480124 -14.564200075765253  -2.1353639308480536 26.863636059267407 -14.56419717483192  -6.1614446028493681 27.090907366527702 -13.222550629209064  -9.5007752499529285 27.318182956412443 -10.731219973252447  -11.833593257349479 27.545452660546221 -7.4255833575016785  -12.999999996135664 27.772727307710433 -3.7127913429626145  -13.000000329781235 27.999999340437132 4.7712173770000002e-08  
-9.0000002198526854 23.000000439705289 -3.1802780849999997e-08  -9.0000005762777651 23.227273861670419 2.5703940416777749  -8.1924866014791071 23.454544668898475 5.1407890059932377  -6.5774618772777718 23.681820419399983 7.4293034303157182  -4.2656119143942481 23.90909028403733 9.1540800379838547  -1.4783340282742348 24.13636443131659 10.082897457281828  1.4783337868228401 24.363637220087281 10.082914415978644  4.2656122880461709 24.590909367816113 9.1540686275087548  6.5774611506337033 24.818182423309249 7.4293083140705134  8.1924871487456148 25.045455107352026 5.140788128927805  9.8075133811383708 25.500000549659624 4.2880222719999997e-08  8.1924871824746575 25.954545991983196 -5.1407880537653696  6.5774612306439035 26.181818675988392 -7.4293080604341579  4.2656124338766936 26.409091731575067 -9.1540695251918951  1.4783335453133355 26.636363879144582 -10.082912374861136  -1.4783330418195535 26.863636668114548 -10.082900087233249  -4.2656134031743687 27.090910815198946 -9.1540779644126573  -6.5774600010257407 27.318180680012137 -7.4293044892528837  -8.1924879011865741 27.545456430331598 -5.1407888601559657  -8.9999999688847723 27.772727237754097 -2.570394121191093  -9.0000003297814555 28.000000659562758 -4.7703681010000001e-08  

0 2
4 2

0 12
3.1454150763931277 9
6.2908301527862553 12

9 0 0 0 0 1 11 2 21 2 3 -8.9999998900743243 16.000000219851405 -1.5903214750000002e-08  -8.9999995472807282 16.227273641794078 2.5703939319939213  -8.1924875372775627 16.454544449047447 5.140788551050437  -6.5774597321567123 16.681820199527092 7.429304079823523  -4.2656132594440965 16.909090064187332 9.1540774869532733  -1.4783330408855804 17.136364211437765 10.082899584174122  1.4783334018423968 17.363637000238679 10.082911892654744  4.2656121607498543 17.590909147944423 9.1540691080839647  6.5774608567676758 17.818182203450291 7.4293077439340864  8.1924867458615562 18.045454887487924 5.1407878604948323  9.8075129019517977 18.500000329798624 2.6439669539999999e-08  8.1924867848027532 18.954545772117964 -5.1407878198497157  6.5774608817751474 19.181818456135911 -7.429307904588569  4.2656121443288759 19.409091511689052 -9.1540681501059531  1.4783337858707288 19.636363659316931 -10.082913912877155  -1.4783338847978971 19.863636448212642 -10.082896975105344  -4.2656116412634315 20.090910595369301 -9.1540796208483393  -6.577461503395087 20.318180460125831 -7.4293031138420442  -8.1924861648950706 20.54545621048463 -5.14078881270596  -9.0000001183385088 20.772727017880612 -2.5703939797085344  -8.9999997801474212 21.000000439705332 -3.1806804299999997e-08  
-12.999999890074294 15.99999978014861 1.5902436700000001e-08  -12.999999538196739 16.227271812758964 3.7127912809989776  -11.833592820765578 16.454546460022986 7.4255831642128562  -9.5007748760586281 16.681816164143797 10.731219656785614  -6.1614443297269856 16.909091753949273 13.222550212076959  -2.1353637873566065 17.136363061338486 14.5641966926481  2.1353645785898632 17.363635726991191 14.564199572674166  6.1614427838719621 17.590909033902914 13.222547473647719  9.5007763200394617 17.818181432899095 10.731221489889569  11.833592065905931 18.045454203425372 7.4255824796762173  14.166407609159574 18.499999670196939 -2.5551488260000001e-08  11.833592050342636 18.954545136977757 -7.4255825258914836  9.5007762662791766 19.181817907481573 -10.731221720277803  6.1614426703926997 19.409090306532207 -13.222546560904266  2.1353648557234459 19.636363613354764 -14.564201608551578  -2.1353647381802507 19.863636279119191 -14.564194067932956  -6.1614428085986512 20.090907586398071 -13.222552300719149  -9.5007767260611544 20.318183176273891 -10.731218621083453  -11.833591502892091 20.545452880404593 -7.4255833390077983  -13.000000136505388 20.772727527580813 -3.7127912332848041  -12.999999780147322 20.999999560294711 3.1802706249999997e-08  

0 2
4 2

0 12
3.1454150763931277 9
6.2908301527862553 12

9 0 0 0 0 1 11 2 21 2 3 -12.999999780147277 20.999999560294718 3.1802741770000003e-08  -12.999999423719002 21.227271592885497 3.7127912655070467  -11.833592711614735 21.454546240163538 7.4255831158872638  -9.5007747825985724 21.681815944286782 10.731219577670243  -6.1614442614393328 21.909091534075412 13.222550107791593  -2.1353637514958792 22.136362841487667 14.564196572106574  2.135364578354173 22.363635507117799 14.564199446900428  6.1614427479393248 22.590908814047285 13.222547354299714  9.5007762528253803 22.818181213032627 10.731221387521439  11.833591974920374 23.045453983563657 7.4255824024094021  14.16640748936492 23.499999450332584 -4.2879676189999999e-08  11.833591941191603 23.954544917116749 -7.4255824775728669  9.5007761728130138 24.181817687611176 -10.731221641154143  6.1614426021133948 24.409090086684781 -13.222546456623922  2.1353648198582609 24.636363393470237 -14.564201488009378  -2.1353647379461003 24.863636059278903 -14.564193942158724  -6.1614427726617276 25.09090736651795 -13.222552181369498  -9.5007766588494817 25.318182956418749 -10.731218518718293  -11.833591411907435 25.545452660543564 -7.4255832617389137  -13.000000031111925 25.772727307711165 -3.7127911859872786  -12.99999967021842 25.999999340437238 4.7703869300000001e-08  
-13.000000219852582 22.999999560294672 3.1806727920000002e-08  -13.000000558110628 23.227271592885522 3.7127914224946394  -11.833591866795512 23.454546240162561 7.4255836481003588  -9.5007769949325702 23.68181594428945 10.731219030530804  -6.161442952314915 23.909091534070548 13.222552778174229  -2.1353647391230965 24.136362841493028 14.564194570988453  2.135364999211236 24.363635507113752 14.564202090765118  6.1614429435151843 24.590908814048824 13.222546978004434  9.5007766401620408 24.818181213032492 10.731222036777291  11.833592486957341 25.045453983563291 7.4255827191576875  14.166408088346225 25.499999450333103 -4.3771707909999999e-08  11.833592429846602 25.954544917115758 -7.4255827887590051  9.5007765888938884 26.181817687615332 -10.731221899369965  6.1614429275847158 26.409090086675462 -13.222547951061173  2.1353645795432139 26.636363393483851 -14.564200075765015  -2.1353639308487327 26.863636059263921 -14.564197174832634  -6.1614446028488743 27.090907366530065 -13.222550629208115  -9.500775249953179 27.318182956411349 -10.731219973253205  -11.833593257349401 27.54545266054652 -7.4255833575013099  -12.999999996135683 27.772727307710404 -3.7127913429627108  -13.000000329781239 27.999999340437128 4.771217021e-08  

0 2
2 2

0 12
3.1454150763931277 9
6.2908301527862553 12

9 0 0 0 0 1 11 2 21 2 3 -9.0000002198526907 23.000000439705286 -3.1802780849999997e-08  -9.0000005762777349 23.227273861670273 2.5703940416779525  -8.1924866014792528 23.454544668899171 5.140789005992465  -6.5774618772774085 23.681820419397987 7.429303430317745  -4.2656119143948938 23.909090284041234 9.1540800379800835  -1.4783340282733453 24.136364431311186 10.082897457287016  1.4783337868218804 24.363637220092521 10.082914415973386  4.2656122880469454 24.59090936781261 9.1540686275125829  6.5774611506332867 24.818182423310759 7.4293083140686331  8.1924871487457303 25.045455107351682 5.1407881289283095  9.8075133811382553 25.500000549659958 4.2879729970000003e-08  8.1924871824747854 25.954545991982862 -5.140788053764874  6.5774612306434266 26.18181867598943 -7.4293080604359485  4.2656124338776804 26.409091731573199 -9.1540695251882873  1.4783335453118869 26.636363879146796 -10.082912374866151  -1.4783330418179512 26.863636668112584 -10.082900087228095  -4.2656134031757098 27.090910815200399 -9.154077964416663  -6.5774600010249156 27.31818068001127 -7.4293044892505469  -8.1924879011869294 27.545456430331949 -5.1407888601569356  -8.9999999688846799 27.772727237754012 -2.5703941211908581  -9.0000003297814555 28.000000659562755 -4.770367923e-08  
-8.9999997801473786 21.000000439705332 -3.1806766999999997e-08  -8.9999994418861693 21.227273861671556 2.5703938846903496  -8.1924874462982213 21.454544668894748 5.1407884737794376  -6.577459664944012 21.68182041940797 7.4293039774569181  -4.2656132235182334 21.909090284025659 9.1540773675980116  -1.4783330406476174 22.136364431329998 10.082899458404416  1.4783333659663676 22.363637220075564 10.082911772109336  4.2656120924699463 22.59090936782405 9.1540690038074413  6.5774607632971298 22.818182423305782 7.4293076648130372  8.192486636708697 23.045455107352726 5.1407878121798758  9.8075127821569481 23.500000549659678 4.3772049489999999e-08  8.1924866938198289 23.954545991982702 -5.1407877425791719  6.5774608145626061 24.181818675992222 -7.4293078022180881  4.2656121084058949 24.409091731565884 -9.1540680307558251  1.4783337856278695 24.636363879159521 -10.08291378710291  -1.4783338489163615 24.863636668097548 -10.082896854563026  -4.2656115729878135 25.09091081521337 -9.154079516570377  -6.5774614099215887 25.318180680003493 -7.4293030347205153  -8.1924860557448227 25.545456430335317 -5.1407887643923917  -9.0000000038609738 25.772727237753287 -2.5703939642159712  -8.9999996702186422 26.000000659562872 -4.771198192e-08  

0 2
2 2

0 12
3.1454150763931277 9
6.2908301527862553 12

9 0 0 0 0 1 8 2 9 2 2 -13.00000032978129 27.999999340437135 4.7712061860000003e-08  -13.000000622110184 28.140850827120808 2.3009997608623634  -12.534540416402212 28.281704270587685 4.6019982469794085  -11.603625103057926 28.422554798435506 6.7931501727513268  -10.238348939002856 28.56340758935945 8.7646081773689488  -8.5009618477943949 28.704260380300376 10.417515893728202  -6.479537335502016 28.845110908147443 11.675132021016319  -4.2778163235502324 28.985964351600547 12.489791457031108  -2.0043299457624255 29.126815838298516 12.844558098536861  
-9.0000003297815105 28.000000659562765 -4.7703786699999998e-08  -9.0000006389993636 28.140853349342155 1.592999367842455  -8.6777588562960943 28.281704082335139 3.1860007012312495  -8.0332780719947721 28.422557730956662 4.7029467703970607  -7.0880907073279005 28.563409116485673 6.0678082587570019  -5.8852780573738688 28.70426050201646 7.2121256688160571  -4.4858356200987179 28.84511415062612 8.0827836913107376  -2.9615648741645084 28.985964883638179 8.6467787660040667  -1.3876131648812917 29.126817573402189 8.8923864914103969  

0 2
4 2

0 9
1.4177225019654478 9

9 0 0 0 0 1 11 2 21 2 3 -8.9999997801473821 21.000000439705332 -3.1806766999999997e-08  -8.9999994418862155 21.227273861670962 2.5703938846903442  -8.1924874462980899 21.45454466889727 5.1407884737794349  -6.5774596649441639 21.681820419401802 7.4293039774569678  -4.2656132235182858 21.90909028403598 9.1540773675978695  -1.4783330406472284 22.136364431317539 10.082899458404677  1.4783333659657596 22.363637220086584 10.082911772109014  4.265612092470505 22.590909367816991 9.1540690038077681  6.5774607632968127 22.818182423308748 7.4293076648127858  8.1924866367087787 23.045455107352229 5.1407878121800161  9.8075127821569055 23.500000549659763 4.3771819110000002e-08  8.1924866938198342 23.954545991983014 -5.1407877425788575  6.5774608145625768 24.18181867598997 -7.4293078022194461  4.2656121084060379 24.409091731571205 -9.1540680307529279  1.4783337856275334 24.636363879151268 -10.082913787107092  -1.4783338489158782 24.863636668106828 -10.082896854558681  -4.265611572988286 25.090910815205643 -9.154079516573729  -6.5774614099212645 25.318180680008123 -7.4293030347185933  -8.1924860557449772 25.54545643033341 -5.1407887643931787  -9.0000000038609258 25.772727237753731 -2.5703939642157807  -8.9999996702186422 26.000000659562865 -4.77119837e-08  
-12.999999780147284 20.999999560294704 3.1802743549999997e-08  -12.999999423718982 21.227271592885753 3.7127912655068878  -11.833592711614893 21.454546240162362 7.4255831158878909  -9.500774782598068 21.681815944289802 10.731219577668845  -6.1614442614403151 21.909091534070033 13.222550107793653  -2.1353637514945345 22.136362841494691 14.564196572104491  2.1353645783527742 22.363635507110921 14.564199446901894  6.1614427479404421 22.590908814052099 13.222547354298984  9.5007762528247444 22.818181213030471 10.731221387521739  11.833591974920591 23.045453983563963 7.4255824024092645  14.166407489364678 23.499999450332734 -4.287942618e-08  11.833591941191871 23.954544917116145 -7.4255824775732204  9.5007761728121007 24.181817687614561 -10.731221641152688  6.1614426021150672 24.409090086676773 -13.222546456626905  2.1353648198561443 24.636363393482778 -14.564201488005265  -2.1353647379441201 24.863636059264792 -14.564193942162891  -6.1614427726631105 25.090907366529517 -13.222552181366318  -9.5007766588487712 25.318182956411906 -10.731218518720116  -11.833591411907703 25.545452660546346 -7.4255832617381756  -13.000000031111869 25.772727307710511 -3.7127911859874594  -12.99999967021842 25.999999340437238 4.7703869300000001e-08  

0 2
4 2

0 12
3.1454150763931277 9
6.2908301527862553 12

1 -13 0 1.3899999999999999e-15 -0 -0.99611375223099896 0.088076061539331632 1 8.7733776141672012e-19 9.9224260738372005e-18 -9.961137522309992e-18 0.088076061539331632 0.99611375223099896 
9 0 0 0 0 1 8 2 9 2 2 -12.999999670218479 25.999999340437235 4.7703760939999999e-08  -12.999999361000935 26.140850827121106 2.3009996257038967  -12.534540541594138 26.281704270587824 4.6019978549870002  -11.603623563173715 26.422554798435151 6.7931501308521369  -10.238348895525789 26.563407589360576 8.7646070108882732  -8.5009611280016042 26.704260380299555 10.417516184986113  -6.4795369423482168 26.8451109081482 11.675130465405148  -4.2778161490096203 26.985964351600451 12.489791215027632  -2.0043298120123532 27.126815838298693 12.844557241357121  
-13.00000032978129 27.999999340437135 4.7712063629999999e-08  -13.000000622110194 28.140850827120836 2.3009997608623505  -12.534540416402175 28.281704270587632 4.6019982469794511  -11.603625103057992 28.422554798435666 6.7931501727512682  -10.238348939002801 28.563407589359159 8.7646081773690057  -8.5009618477944002 28.704260380300678 10.417515893728181  -6.4795373355020356 28.84511090814728 11.675132021016312  -4.2778163235502182 28.985964351600597 12.489791457031119  -2.0043299457624202 29.126815838298512 12.844558098536863  

0 2
2 2

0 9
1.4177225019654478 9

9 0 0 0 0 1 8 2 9 2 2 -9.0000003297815141 28.000000659562762 -4.7703786699999998e-08  -9.0000006389993654 28.140853349342166 1.5929993678424426  -8.6777588562961121 28.281704082335139 3.1860007012313001  -8.0332780719947028 28.422557730956559 4.7029467703969789  -7.0880907073280248 28.563409116485907 6.0678082587570836  -5.8852780573737382 28.704260502016208 7.2121256688160207  -4.4858356200987979 28.845114150626255 8.0827836913107447  -2.961564874164488 28.985964883638143 8.6467787660040685  -1.3876131648812944 29.126817573402185 8.8923864914104005  
-8.9999996702187008 26.000000659562865 -4.7712089389999998e-08  -8.9999993778901679 26.140853349342571 1.5929992326839968  -8.677758981487834 26.281704082334837 3.1860003092388096  -8.033276532110877 26.422557730957141 4.702946728497964  -7.0880906638505259 26.56340911648574 6.0678070922761949  -5.8852773375812486 26.704260502016481 7.2121259600741014  -4.4858352269448654 26.845114150626429 8.0827821356994676  -2.9615646996239091 26.985964883638218 8.6467785240006378  -1.387613031131222 27.126817573402366 8.8923856342306564  

0 2
2 2

0 9
1.4177225019654478 9

1 -1.6959714884468238 28.126816705850441 10.868471866383759 0.98804290178170984 -4.2369800000000004e-12 0.15417919522029733 -0.15417919522029733 -1.0097419586828951e-28 0.98804290178170984 -4.1863180139910689e-12 -1 -6.5325416656449557e-13 
9 0 0 0 0 1 8 2 9 2 2 -8.9999996702186991 26.000000659562865 -4.7712089389999998e-08  -8.9999993778901821 26.140853349342454 1.5929992326839852  -8.6777589814878056 26.281704082335171 3.186000309238862  -8.0332765321109179 26.422557730956591 4.7029467284978601  -7.0880906638505028 26.563409116486316 6.0678070922763032  -5.8852773375812548 26.704260502016112 7.212125960074049  -4.4858352269448654 26.845114150626557 8.0827821356994711  -2.9615646996239109 26.985964883638196 8.6467785240006467  -1.387613031131222 27.12681757340237 8.8923856342306582  
-12.999999670218475 25.999999340437235 4.770376272e-08  -12.99999936100094 26.14085082712106 2.300999625703918  -12.534540541594101 26.281704270587902 4.6019978549869434  -11.603623563173791 26.422554798434994 6.7931501308522435  -10.238348895525714 26.563407589360782 8.7646070108881169  -8.5009611280016433 26.704260380299377 10.417516184986294  -6.479536942348215 26.845110908148285 11.675130465405017  -4.2778161490096176 26.985964351600423 12.489791215027681  -2.0043298120123523 27.126815838298693 12.844557241357125  

0 2
4 2

0 9
1.4177225019654478 9

Triangulations 0

TShapes 118
Ve
1.32192212e-07
-13 13 2e-15
0 0

0101101
*
Ve
1.32192218e-07
-13.0000001099257 17.9999997801486 1.5903187e-08
0 0

0101101
*
Ed
 1e-07 1 1 0
1  1 0 0 6.29083015278626
2  1 1 0 0 6.29083015278626
2  2 2 0 0 6.29083015278626
2  2 3 6 0 6.29083015278626
0

0101000
+118 7 -117 0 *
Ve
1.32192211e-07
-9 13 0
0 0

0101101
*
Ed
 1.00000001e-07 1 1 0
1  2 0 0 4
2  3 4 0 0 4
2  4 1 0 0 4
4 C0 4 0 1 0
2  5 5 8 0 4
0

0101000
+118 7 -115 7 *
Ve
1.32192218e-07
-9.00000010992572 18.0000002198514 -1.5902476e-08
0 0

0101101
*
Ed
 1e-07 1 1 0
1  3 0 0 6.29083015278626
2  6 1 0 0 6.29083015278626
2  7 6 0 0 6.29083015278626
2  7 7 6 0 6.29083015278626
0

0101000
+115 7 -113 0 *
Ed
 1e-07 1 1 0
1  4 0 0 4
2  8 1 0 0 4
2  9 8 0 0 4
4 G1 8 0 1 0
0

0101000
+117 0 -113 0 *
Wi

0101100
-116 4 +114 4 +112 4 -111 4 *
Fa
0  1e-07 1 4

0111000
+110 0 *
Ve
1.000000053e-06
-13 11 0
0 0

0101101
*
Ve
1.32192221e-07
-12.9999998900743 15.9999997801486 1.590245e-08
0 0

0101101
*
Ed
 1e-07 1 1 0
1  5 0 0 6.29083015278626
2  6 9 0 0 6.29083015278626
2  7 2 0 0 6.29083015278626
0

0101000
+108 0 -107 0 *
Ed
 1.00000005e-07 1 1 0
1  6 0 0 2
2  4 2 0 0 2
2  10 4 0 0 2
4 C0 4 0 2 0
2  11 5 8 0 2
2  4 3 6 0 2
0

0101000
+108 0 -118 7 *
Ed
 1e-07 1 1 0
1  7 0 0 2
2  8 2 0 0 2
2  12 10 0 0 2
4 G1 10 0 2 0
2  8 3 6 0 2
0

0101000
+107 0 -117 0 *
Wi

0101100
-106 4 +105 4 +116 4 -104 4 *
Fa
0  1e-07 2 4

0111000
+103 0 *
Ve
1.00000001e-07
-13 -13 0
0 0

0101101
*
Ed
 1.00000001e-07 1 1 0
1  8 0 0 2
2  13 12 0 0 2
2  14 11 0 0 2
0

0101000
+118 0 -101 12 *
Ve
1.00000001e-07
-9 -13 0
0 0

0101101
*
Ed
 1.00000001e-07 1 1 0
1  9 0 0 2
2  15 11 0 0 2
2  13 13 0 0 2
0

0101000
+115 0 -99 12 *
Ed
 1e-07 1 1 0
1  10 0 0 4
2  16 11 13 0 4
2  17 11 14 0 4
2  18 5 15 0 4
0

0101000
+101 0 -99 0 *
Wi

0101100
+100 0 -98 0 -114 4 +97 12 *
Fa
0  1e-07 11 0

0111000
+96 0 *
Ve
1.000000013e-06
-9 11 0
0 0

0101101
*
Ed
 1.00000001e-07 1 1 0
1  11 0 0 2
2  19 4 0 0 2
2  4 6 0 0 2
4 C0 4 0 6 0
2  20 5 8 0 2
2  4 7 6 0 2
0

0101000
+115 7 -94 0 *
Ve
1.3219222e-07
-8.99999989007432 16.0000002198514 -1.5903213e-08
0 0

0101101
*
Ed
 1e-07 1 1 0
1  12 0 0 6.29083015278626
2  21 6 0 0 6.29083015278626
2  7 9 0 0 6.29083015278626
0

0101000
+94 0 -92 0 *
Ed
 1e-07 1 1 0
1  13 0 0 2
2  8 6 0 0 2
2  12 14 0 0 2
4 G1 14 0 6 0
2  8 7 6 0 2
0

0101000
+113 0 -92 0 *
Wi

0101100
-112 4 +93 4 +91 4 -90 4 *
Fa
0  1e-07 6 4

0111000
+89 0 *
Ve
1.32192231e-07
-13.0000002198526 22.9999995602947 3.1806739e-08
0 0

0101101
*
Ed
 1e-07 1 1 0
1  14 0 0 6.29083015278626
2  1 8 0 0 6.29083015278626
2  2 10 0 0 6.29083015278626
0

0101000
+117 0 -87 0 *
Ve
1.32192232e-07
-9.0000002198527 23.0000004397053 -3.180277e-08
0 0

0101101
*
Ed
 1e-07 1 1 0
1  15 0 0 6.29083015278626
2  6 8 0 0 6.29083015278626
2  7 14 0 0 6.29083015278626
0

0101000
+113 0 -85 0 *
Ed
 1e-07 1 1 0
1  16 0 0 4
2  8 8 0 0 4
2  9 15 0 0 4
4 G1 15 0 8 0
0

0101000
+87 0 -85 0 *
Wi

0101100
-86 0 +111 0 +84 0 -83 0 *
Fa
0  1e-07 8 0

0111000
+82 0 *
Ed
 1.00000001e-07 1 1 0
1  17 0 0 4
2  22 4 0 0 4
2  4 9 0 0 4
4 C0 4 0 9 0
2  23 5 8 0 4
0

0101000
+94 0 -108 0 *
Ed
 1e-07 1 1 0
1  18 0 0 4
2  8 9 0 0 4
2  9 16 0 0 4
4 G1 16 0 9 0
0

0101000
+92 0 -107 0 *
Wi

0101100
-91 0 +80 0 +106 0 -79 0 *
Fa
0  1e-07 9 0

0111000
+78 0 *
Ve
1e-07
-13 0 0
0 0

0101101
*
Ed
 1e-07 1 1 0
1  19 0 0 2
2  24 12 0 0 2
0

0101000
+76 16 -76 12 *
Ed
 1e-07 1 1 0
1  20 0 2 13
2  4 12 13 2 13
2  25 12 14 2 13
2  26 5 15 2 13
0

0101000
+108 17 -76 0 *
Ed
 1e-07 1 1 0
1  20 0 0 13
2  4 12 13 0 13
2  25 12 14 0 13
2  26 5 15 0 13
0

0101000
+101 0 -76 0 *
Wi

0101100
+100 0 -75 0 +105 4 -74 16 +73 12 *
Fa
0  1e-07 12 0

0111000
+72 0 *
Ve
1.32192219e-07
-12.9999997801473 20.9999995602947 3.1802752e-08
0 0

0101101
*
Ed
 1e-07 1 1 0
1  21 0 0 6.29083015278626
2  6 16 0 0 6.29083015278626
2  7 10 0 0 6.29083015278626
0

0101000
+107 0 -70 0 *
Ed
 1e-07 1 1 0
1  22 0 0 2
2  8 10 0 0 2
2  12 17 0 0 2
4 G1 17 0 10 0
0

0101000
+70 0 -87 0 *
Wi

0101100
-69 0 +104 0 +86 0 -68 0 *
Fa
0  1e-07 10 0

0111000
+67 0 *
Ve
1e-07
-9 0 0
0 0

0101101
*
Ed
 1e-07 1 1 0
1  23 0 0 2
2  24 13 0 0 2
0

0101000
+65 16 -65 12 *
Ed
 1e-07 1 1 0
1  24 0 2 13
2  4 13 13 2 13
2  25 13 14 2 13
2  27 5 15 2 13
0

0101000
+94 17 -65 0 *
Ed
 1e-07 1 1 0
1  24 0 0 13
2  4 13 13 0 13
2  25 13 14 0 13
2  27 5 15 0 13
0

0101000
+99 0 -65 0 *
Wi

0101100
+98 0 -64 0 -93 4 -63 16 +62 12 *
Fa
0  1e-07 13 0

0111000
+61 0 *
Ed
 1e-07 1 1 0
1  25 0 0 4
2  28 5 15 0 4
0

0101000
+76 0 -65 0 *
Wi

0101100
+73 0 +59 0 -62 0 -97 0 *
Fa
0  1e-07 5 0

0111000
-58 19 *
Ve
1.32192232e-07
-8.99999978014739 21.0000004397053 -3.1806756e-08
0 0

0101101
*
Ed
 1e-07 1 1 0
1  26 0 0 6.29083015278626
2  21 14 0 0 6.29083015278626
2  7 16 0 0 6.29083015278626
0

0101000
+92 0 -56 0 *
Ed
 1e-07 1 1 0
1  27 0 0 2
2  8 14 0 0 2
2  12 18 0 0 2
4 G1 18 0 14 0
0

0101000
+85 0 -56 0 *
Wi

0101100
-84 0 +90 0 +55 0 -54 0 *
Fa
0  1e-07 14 0

0111000
+53 0 *
Ve
1.32192215e-07
-13.0000003297813 27.9999993404371 4.7712068e-08
0 0

0101101
*
Ed
 1e-07 1 1 0
1  28 0 0 6.29083015278626
2  1 15 0 0 6.29083015278626
2  2 17 0 0 6.29083015278626
0

0101000
+87 0 -51 0 *
Ve
1.32192215e-07
-9.00000032978151 28.0000006595628 -4.7703784e-08
0 0

0101101
*
Ed
 1e-07 1 1 0
1  29 0 0 6.29083015278626
2  6 15 0 0 6.29083015278626
2  7 18 0 0 6.29083015278626
0

0101000
+85 0 -49 0 *
Ed
 1e-07 1 1 0
1  30 0 0 4
2  8 15 0 0 4
2  9 19 0 0 4
4 G1 19 0 15 0
0

0101000
+51 0 -49 0 *
Wi

0101100
-50 0 +83 0 +48 0 -47 0 *
Fa
0  1e-07 15 0

0111000
+46 0 *
Wi

0101100
-74 16 -59 16 +63 16 -80 4 *
Fa
0  1e-07 5 20

0111000
+44 0 *
Ed
 1e-07 1 1 0
1  31 0 0 4
2  8 16 0 0 4
2  9 20 0 0 4
4 G1 20 0 16 0
0

0101000
+56 0 -70 0 *
Wi

0101100
-55 0 +79 0 +69 0 -42 0 *
Fa
0  1e-07 16 0

0111000
+41 0 *
Wi

0101100
+75 0 -64 0 -59 16 +59 12 *
Fa
0  1e-07 21 0

0111000
+39 0 *
Ve
1.32192213e-07
-12.9999996702185 25.9999993404372 4.7703766e-08
0 0

0101101
*
Ed
 1e-07 1 1 0
1  32 0 0 6.29083015278626
2  6 20 0 0 6.29083015278626
2  7 17 0 0 6.29083015278626
0

0101000
+70 0 -37 0 *
Ed
 1e-07 1 1 0
1  33 0 0 2
2  8 17 0 0 2
2  12 22 0 0 2
4 G1 22 0 17 0
0

0101000
+37 0 -51 0 *
Wi

0101100
-36 0 +68 0 +50 0 -35 0 *
Fa
0  1e-07 17 0

0111000
+34 0 *
Ve
1.32192218e-07
-8.99999967021869 26.0000006595629 -4.7712086e-08
0 0

0101101
*
Ed
 1e-07 1 1 0
1  34 0 0 6.29083015278626
2  21 18 0 0 6.29083015278626
2  7 20 0 0 6.29083015278626
0

0101000
+56 0 -32 0 *
Ed
 1e-07 1 1 0
1  35 0 0 2
2  8 18 0 0 2
2  12 23 0 0 2
4 G1 23 0 18 0
0

0101000
+49 0 -32 0 *
Wi

0101100
-48 0 +54 0 +31 0 -30 0 *
Fa
0  1e-07 18 0

0111000
+29 0 *
Ve
1.60822146e-07
-2.00432994576242 29.1268158382985 12.8445580985369
0 0

0101101
*
Ed
 1e-07 1 1 0
1  36 0 0 1.41772250196545
2  1 19 0 0 1.41772250196545
2  29 22 0 0 1.41772250196545
0

0101000
+51 0 -27 0 *
Ve
1.60822146e-07
-1.38761316488129 29.1268175734022 8.8923864914104
0 0

0101101
*
Ed
 1e-07 1 1 0
1  37 0 0 1.41772250196545
2  6 19 0 0 1.41772250196545
2  30 23 0 0 1.41772250196545
0

0101000
+49 0 -25 0 *
Ed
 1e-07 1 1 0
1  38 0 0 4
2  31 24 0 0 4
2  32 19 0 0 4
4 C0 19 0 24 0
0

0101000
+27 0 -25 0 *
Wi

0101100
-26 0 +47 0 +24 0 -23 0 *
Fa
0  1e-07 19 0

0111000
+22 0 *
Ed
 1e-07 1 1 0
1  39 0 0 4
2  8 20 0 0 4
2  9 25 0 0 4
4 G1 25 0 20 0
0

0101000
+32 0 -37 0 *
Wi

0101100
-31 0 +42 0 +36 0 -20 0 *
Fa
0  1e-07 20 0

0111000
+19 0 *
Ve
1.60822147e-07
-2.00432981201235 27.1268158382987 12.8445572413571
0 0

0101101
*
Ed
 1e-07 1 1 0
1  40 0 0 1.41772250196545
2  6 25 0 0 1.41772250196545
2  30 22 0 0 1.41772250196545
0

0101000
+37 0 -17 0 *
Ed
 1e-07 1 1 0
1  41 0 0 2
2  32 22 0 0 2
2  33 24 0 0 2
4 C0 24 0 22 0
0

0101000
+17 0 -27 0 *
Wi

0101100
-16 0 +35 0 +26 0 -15 0 *
Fa
0  1e-07 22 0

0111000
+14 0 *
Ve
1.60822144e-07
-1.38761303113122 27.1268175734024 8.89238563423066
0 0

0101101
*
Ed
 1e-07 1 1 0
1  42 0 0 1.41772250196545
2  21 23 0 0 1.41772250196545
2  30 25 0 0 1.41772250196545
0

0101000
+32 0 -12 0 *
Ed
 1e-07 1 1 0
1  43 0 0 2
2  32 23 0 0 2
2  34 24 0 0 2
4 C0 24 0 23 0
0

0101000
+25 0 -12 0 *
Wi

0101100
-24 0 +30 0 +11 0 -10 0 *
Fa
0  1e-07 23 0

0111000
+9 0 *
Ed
 1e-07 1 1 0
1  44 0 0 4
2  35 24 0 0 4
2  32 25 0 0 4
4 C0 24 0 25 0
0

0101000
+12 0 -17 0 *
Wi

0101100
+23 0 +10 0 +7 0 +15 0 *
Fa
0  1e-07 24 0

0111000
-6 0 *
Wi

0101100
-11 0 +20 0 +16 0 -7 0 *
Fa
0  1e-07 25 0

0111000
+4 0 *
Sh

0101100
-109 0 -102 0 -95 0 -88 0 -81 4 -77 4 +71 0 -66 4 -60 0 +57 18 
-52 4 -45 4 -43 0 -40 4 +38 0 -33 4 -28 4 -21 4 -18 4 -13 4 
-8 4 +5 4 -3 4 *
So

0100000
+2 0 *

+1 1 