DBRep_DrawableShape

CASCADE Topology V1, (c) Matra-Datavision
Locations 161
1
              1               0               0               0 
              0               1               0               0 
              0               0               1               0 
1
              1               0               0               0 
              0               1               0               0 
              0               0               1               0 
1
              1               0               0              -0 
              0               1               0              -0 
              0               0               1              -6 
1
              1               0               0               0 
              0               1               0               0 
              0               0               1               0 
1
              1               0               0               0 
              0               1               0               0 
              0               0               1               0 
1
              1               0               0               0 
              0               1               0               0 
              0               0               1               0 
1
              1               0               0               0 
              0               1               0               0 
              0               0               1               0 
2  2 -1 3 1 4 1 5 -1 6 1 7 -1 0
1
              1               0               0               0 
              0               1               0               0 
              0               0               1               0 
1
              1               0               0               0 
              0               1               0               0 
              0               0               1              16 
2  9 1 10 1 0
2  3 -1 2 1 10 -1 9 -1 0
2  2 -1 3 1 0
1
              1               0               0               0 
              0               1               0               0 
              0               0               1               0 
1
              1               0               0               0 
              0               1               0               0 
              0               0               1              16 
1
              1               0               0               0 
              0               1               0               0 
              0               0               1               0 
2  14 1 15 -1 16 -1 0
1
              1               0               0               0 
              0               1               0               0 
              0               0               1              10 
2  18 -1 14 1 15 -1 16 -1 0
2  15 -1 16 -1 0
1
              1               0               0               0 
              0               1               0               0 
              0               0               1               0 
1
              1               0               0               0 
              0               1               0               0 
              0               0               1               0 
2  21 -1 22 1 15 -1 16 -1 0
1
              1               0               0               0 
              0               1               0               0 
              0               0               1               0 
1
              1               0               0               0 
              0               1               0               0 
              0               0               1              16 
1
              1               0               0               0 
              0               1               0               0 
              0               0               1               0 
2  24 1 25 -1 26 -1 0
1
              1               0               0              -0 
              0               1               0              -0 
              0               0               1             -10 
2  28 -1 24 1 25 -1 26 -1 0
1
              1               0               0               0 
              0               1               0               0 
              0               0               1               0 
1
              1               0               0               0 
              0               1               0               0 
              0               0               1              16 
1
              1               0               0               0 
              0               1               0               0 
              0               0               1               0 
2  30 1 31 -1 32 -1 0
1
              1               0               0              -0 
              0               1               0              -0 
              0               0               1              -6 
2  34 -1 30 1 31 -1 32 -1 0
2  2 1 10 -1 9 -1 0
2  10 -1 9 -1 0
2  21 -1 22 1 10 -1 9 -1 0
2  6 1 7 -1 0
2  4 1 5 -1 0
1
              1               0               0               0 
              0               1               0               0 
              0               0               1               2 
2  21 -1 41 1 22 1 2 -1 0
1
              1               0               0               0 
              0               1               0               0 
              0               0               1               0 
1
              1               0               0               0 
              0               1               0               0 
              0               0               1              18 
2  43 1 44 1 4 -1 0
2  43 1 44 1 5 -1 0
2  5 1 44 -1 43 -1 0
2  4 1 44 -1 43 -1 0
2  21 -1 41 1 22 1 2 -1 4 1 44 -1 43 -1 0
1
              1               0               0               0 
              0               1               0               0 
              0               0               1               0 
2  50 -1 7 1 6 -1 5 1 44 -1 43 -1 0
2  4 1 5 -1 6 1 7 -1 0
2  9 1 10 1 2 -1 0
2  9 1 10 1 2 -1 3 1 0
2  21 -1 41 1 22 1 2 -1 4 1 5 -1 0
2  21 -1 22 1 2 -1 0
1
              1               0               0               0 
              0               1               0               0 
              0               0               1               0 
1
              1               0               0               0 
              0               1               0               0 
              0               0               1               0 
1
              1               0               0               0 
              0               1               0               0 
              0               0               1               0 
1
              1               0               0               0 
              0               1               0               0 
              0               0               1              10 
1
              1               0               0               0 
              0               1               0               0 
              0               0               1               0 
1
              1               0               0               0 
              0               1               0               0 
              0               0               1               0 
1
              1               0               0               0 
              0               1               0               0 
              0               0               1               0 
1
              1               0               0               0 
              0               1               0               0 
              0               0               1               6 
1
              1               0               0               0 
              0               1               0               0 
              0               0               1               0 
2  57 1 58 1 59 -1 60 1 61 1 62 1 63 -1 64 1 65 1 21 -1 22 1 2 -1 0
2  64 -1 63 1 62 -1 61 -1 60 -1 59 1 58 -1 57 -1 0
2  65 -1 64 -1 63 1 62 -1 61 -1 60 -1 59 1 58 -1 57 -1 0
1
              1               0               0               0 
              0               1               0               0 
              0               0               1               0 
1
              1               0               0               0 
              0               1               0               0 
              0               0               1              31 
2  69 1 70 1 7 -1 0
1
              1               0               0               0 
              0               1               0               0 
              0               0               1               0 
1
              1               0               0               0 
              0               1               0               0 
              0               0               1              31 
1
              1               0               0               0 
              0               1               0               0 
              0               0               1               0 
2  72 1 73 -1 74 -1 0
1
              1               0               0              -0 
              0               1               0              -0 
              0               0               1              -5 
2  76 -1 72 1 73 -1 74 -1 0
2  73 -1 74 -1 0
2  6 1 73 -1 74 -1 0
2  7 1 70 -1 69 -1 0
1
              1               0               0              -0 
              0               1               0              -0 
              0               0               1              -1 
2  81 -1 7 1 70 -1 69 -1 0
2  70 -1 69 -1 0
2  6 1 70 -1 69 -1 0
2  65 1 21 -1 22 1 2 -1 4 1 5 -1 6 1 7 -1 0
2  57 1 58 1 59 -1 60 1 61 1 63 -1 0
1
              1               0               0               0 
              0               1               0               0 
              0               0               1               0 
1
              1               0               0               0 
              0               1               0               0 
              0               0               1               0 
2  87 1 88 -1 57 -1 0
1
              1               0               0               0 
              0               1               0               0 
              0               0               1              10 
2  90 -1 87 1 88 -1 57 -1 0
2  59 1 58 -1 57 -1 0
2  60 -1 59 1 58 -1 57 -1 0
1
              1               0               0               0 
              0               1               0               0 
              0               0               1               0 
1
              1               0               0               0 
              0               1               0               0 
              0               0               1               0 
2  94 1 95 -1 61 -1 60 -1 59 1 58 -1 57 -1 0
1
              1               0               0               0 
              0               1               0               0 
              0               0               1              10 
2  97 -1 94 1 95 -1 61 -1 60 -1 59 1 58 -1 57 -1 0
2  58 -1 57 -1 0
2  94 1 61 -1 59 1 58 -1 57 -1 0
1
              1               0               0               0 
              0               1               0               0 
              0               0               1               0 
1
              1               0               0               0 
              0               1               0               0 
              0               0               1               0 
2  101 1 102 -1 61 -1 60 -1 59 1 58 -1 57 -1 0
1
              1               0               0               0 
              0               1               0               0 
              0               0               1               0 
1
              1               0               0               0 
              0               1               0               0 
              0               0               1               0 
2  104 1 105 -1 61 -1 60 -1 59 1 58 -1 57 -1 0
1
              1               0               0               0 
              0               1               0               0 
              0               0               1               0 
1
              1               0               0               0 
              0               1               0               0 
              0               0               1               0 
2  107 1 108 -1 61 -1 60 -1 59 1 58 -1 57 -1 0
1
              1               0               0               0 
              0               1               0               0 
              0               0               1               0 
1
              1               0               0               0 
              0               1               0               0 
              0               0               1               0 
2  110 1 111 -1 61 -1 60 -1 59 1 58 -1 57 -1 0
1
              1               0               0               0 
              0               1               0               0 
              0               0               1               0 
1
              1               0               0               0 
              0               1               0               0 
              0               0               1               0 
2  113 1 114 -1 61 -1 60 -1 59 1 58 -1 57 -1 0
1
              1               0               0               0 
              0               1               0               0 
              0               0               1               0 
1
              1               0               0               0 
              0               1               0               0 
              0               0               1               0 
2  116 1 117 -1 61 -1 60 -1 59 1 58 -1 57 -1 0
1
              1               0               0               0 
              0               1               0               0 
              0               0               1               0 
1
              1               0               0               0 
              0               1               0               0 
              0               0               1               0 
2  119 1 120 -1 61 -1 60 -1 59 1 58 -1 57 -1 0
1
              1               0               0               0 
              0               1               0               0 
              0               0               1               0 
1
              1               0               0               0 
              0               1               0               0 
              0               0               1               0 
2  122 1 123 -1 61 -1 60 -1 59 1 58 -1 57 -1 0
2  63 1 62 -1 61 -1 60 -1 59 1 58 -1 57 -1 0
2  63 1 61 -1 60 -1 59 1 58 -1 57 -1 0
2  57 1 58 1 59 -1 60 1 61 1 62 1 63 -1 64 1 0
2  69 1 70 1 7 -1 81 1 0
2  61 1 63 -1 0
2  57 1 58 1 59 -1 0
2  63 1 61 -1 0
2  57 1 58 1 59 -1 61 1 63 -1 0
2  7 -1 81 1 0
2  69 1 70 1 0
2  59 -1 61 1 63 -1 65 1 21 -1 22 1 2 -1 4 1 5 -1 6 1 7 -1 0
2  57 1 58 1 0
1
              1               0               0               0 
              0               1               0               0 
              0               0               1               6 
2  137 -1 101 1 102 -1 61 -1 60 -1 59 1 58 -1 57 -1 0
1
              1               0               0               0 
              0               1               0               0 
              0               0               1               6 
2  139 -1 104 1 105 -1 61 -1 60 -1 59 1 58 -1 57 -1 0
1
              1               0               0               0 
              0               1               0               0 
              0               0               1               6 
2  141 -1 107 1 108 -1 61 -1 60 -1 59 1 58 -1 57 -1 0
1
              1               0               0               0 
              0               1               0               0 
              0               0               1               6 
2  143 -1 110 1 111 -1 61 -1 60 -1 59 1 58 -1 57 -1 0
1
              1               0               0               0 
              0               1               0               0 
              0               0               1               6 
2  145 -1 113 1 114 -1 61 -1 60 -1 59 1 58 -1 57 -1 0
2  113 1 61 -1 59 1 58 -1 57 -1 0
1
              1               0               0               0 
              0               1               0               0 
              0               0               1               6 
2  148 -1 116 1 117 -1 61 -1 60 -1 59 1 58 -1 57 -1 0
1
              1               0               0               0 
              0               1               0               0 
              0               0               1               6 
2  150 -1 119 1 120 -1 61 -1 60 -1 59 1 58 -1 57 -1 0
1
              1               0               0               0 
              0               1               0               0 
              0               0               1               6 
2  152 -1 122 1 123 -1 61 -1 60 -1 59 1 58 -1 57 -1 0
1
              1               0               0               0 
              0               1               0               0 
              0               0               1               6 
2  154 -1 63 1 62 -1 61 -1 60 -1 59 1 58 -1 57 -1 0
2  63 1 61 -1 59 1 58 -1 57 -1 0
2  65 -1 154 -1 63 1 62 -1 61 -1 60 -1 59 1 58 -1 57 -1 0
2  57 1 58 1 59 -1 60 1 61 1 62 1 63 -1 154 1 0
2  22 1 2 -1 4 1 5 -1 6 1 7 -1 0
2  21 -1 0
2  57 1 58 1 59 -1 60 1 61 1 62 1 63 -1 154 1 65 1 21 -1 0
Curve2ds 90
2 8.4000000000000004e-16 -1.03e-15 1 0 -0 1 16.75
1 0 6 1 0 
1 0 0 1 0 
1 0 -10 1 0 
2 8.4000000000000004e-16 -1.03e-15 1 0 -0 1 15.75
2 9.7999999999999995e-16 -1.2800000000000001e-15 1 0 -0 1 15.75
1 0 -6 1 0 
1 6.2831853071795862 0 0 1 
1 0 0 0 1 
2 9.7999999999999995e-16 -1.2800000000000001e-15 1 0 -0 1 16.75
1 0 -2 1 0 
1 6.2831853071795862 0 -1 0 
2 0 0 1 0 -0 1 16.75
8 4.3820476048838337 5.0427303558855456
1 0 -2 1 0 
2 0 0 1 0 -0 1 16.749999999999968
8 1.4310062576966529 1.7105863958931287
1 0 -2 1 0 
2 9.7999999999999995e-16 -1.2800000000000001e-15 1 0 -0 1 16.749999999999968
1 0 0 0 -1 
1 6.2831853071795862 0 0 -1 
1 -16.289358857285688 -6.5039620379423413 1 -6.0000000000000001e-17 
1 2.3338651801168795 16.586608252473948 0.09513157527869523 -0.99546470725234348 
1 2.3338651801168804 16.586608252473948 0.09513157527869523 -0.99546470725234348 
1 1.9011377022957525 0 0 1 
7 0 0  1 2 2  -16.289358857285951 -6.5039620379425074  -15.927249099528616 6.5039620379421841 
 0 2 1 2
7 0 0  1 2 2  1.9011377022957525 1  1.2404549512940406 1 
 4.4039655889879157 2 5.0208123717814637 2
2 0 0 1 0 -0 1 16.296029996607281
1 32.578717714571368 0 0 1 
1 1.2404549512940406 0 0 1 
7 0 0  1 2 2  16.289358857285681 -6.503962037942344  15.927249099528218 6.5039620379423404 
 0 2 1 2
1 -16.289358857285951 -6.5039620379425056 1 1.0029999999999999e-14 
1 -5.4331299168639875 -15.844355439918578 0.095131575278694591 0.99546470725234359 
1 -5.4331299168639866 -15.84435543991858 0.095131575278694591 0.99546470725234359 
1 4.8521790494829329 0 0 1 
7 0 0  1 2 2  -16.289358857285684 -6.5039620379423404  -15.927249099528218 6.503962037942344 
 0 2 1 2
7 0 0  1 2 2  4.8521790494829329 1  4.5725989112864518 1 
 7.7361095489803207 2 7.9718537189686467 2
2 0 0 1 0 -0 1 16.296029996607249
1 32.578717714572697 0 0 1 
1 4.5725989112864518 0 0 1 
7 0 0  1 2 2  16.28935885728675 -6.5039620379421805  15.927249099527815 6.5039620379425038 
 0 2 1 2
1 0 8.4852813742385695 1 0 
2 0 0 1 0 -0 1 13
2 9.7999999999999995e-16 -1.2800000000000001e-15 1 0 -0 1 13
7 0 0  1 2 2  0 1  32.578717714571368 1 
 0.36210975775746784 2 32.216607956813903 2
1 -16.289358857285688 6.5039620379423431 1 -6.0000000000000001e-17 
1 1.8819540635881997 16.543421370921923 0.09513157527869523 -0.99546470725234348 
7 0 0  1 2 2  0 1  32.578717714572697 1 
 0.36210975775746784 2 32.216607956813895 2
1 -16.289358857286082 6.5039620379421788 1 1.0029999999999999e-14 
1 -4.9812188003353075 -15.887542321470603 0.095131575278694591 0.99546470725234359 
1 0 -5 1 0 
1 1.5247119691774964 -3.3152981913958648 -1 2.8999999999999998e-16 
1 1.5247119691774964 7.1246419999999997 -1 2.8999999999999998e-16 
1 0 -1 1 0 
1 -8.9999999999999996e-17 4.5735388086041358 0.18976281235783887 -0.98182996238964093 
1 0 15.013479 0.18976281235783887 -0.98182996238964093 
1 -1.5247119691774964 -3.3152981913958639 0.1897628123578389 0.98182996238964093 
1 -1.5247119691774964 7.1246420000000006 0.1897628123578389 0.98182996238964093 
2 -0.059898599531467298 -3.2999999999999999e-16 1 0 -0 1 7
1 0 -20 1 0 
2 0 0 1 0 -0 1 7
8 0 6.2831853071795862
1 0 0 1 0 
6 0 1 6.2831853071795862 0  6.2831853071795862 8.4852813742385695  
6 0 1 0 0  0 8.4852813742385695  
1 8.034830166314789 0 0 -1 
1 3.0494239383549928 0 0 -1 
2 -0.059898599531467298 -3.2999999999999999e-16 1 0 -0 1 3.1499999999999999
1 -8.9000000000000007e-16 0 1 0 
1 -8.9000000000000007e-16 -20 1 0 
2 0 0 1 0 -0 1 3.1499999999999999
2 0 -0 1 0 -0 1 3.1499999999999999
1 -8.9000000000000007e-16 -16 1 0 
2 9.7999999999999995e-16 -1.2800000000000001e-15 1 0 -0 1 3.1499999999999999
1 -1.8098985995177657 2.6191601707509129 0 -1 
1 -1.7499999999862983 2.6191601707509133 0 -1 
1 2.6191601707509133 8.0000000000000018 -1 0 
1 2.6191601707509133 -7.9999999999999982 -1 0 
1 -1.7499999999862974 2.619160170750912 0 -1 
6 0 1 4.1233580101736473 0  4.1233580101736473 6  
6 0 1 5.2383203415018276 -6  5.2383203415018276 0  
7 0 0  1 2 2  4.1233580101736464 -10  4.1233580101736464 -16 
 0 2 1 2
6 0 1 -2.6191601707509138 2.0000000000000018  -2.6191601707509138 8.0000000000000018  
6 0 1 8.443012604185526 0  8.443012604185526 6  
6 0 1 0 -6  0 0  
7 0 0  1 2 2  8.443012604185526 -10  8.443012604185526 -16 
 0 2 1 2
6 0 1 2.6191601707509133 2.0000000000000018  2.6191601707509133 8.0000000000000018  
1 8.443012604185526 0 0 -1 
1 2.6191601707509133 -7.9999999999999982 0 1 
1 4.1233580101736473 0 0 -1 
1 5.2383203415018276 0 0 -1 
1 4.1233580101736464 0 0 -1 
1 -2.6191601707509138 -7.9999999999999982 0 1 
Curves 33
2 0 0 10 0 0 1 1 0 -0 -0 1 0 16.75
2 0 0 0 0 0 1 1 0 -0 -0 1 0 15.75
7 0 0  1 2 2  16.75 -4.1000000000000004e-15 18  16.75 -4.1000000000000004e-15 10 
 -2 2 6 2
2 0 0 18 0 0 1 1 0 -0 -0 1 0 16.75
2 0 0 0 0 0 1 1 0 -0 -0 1 0 16.75
2 0 0 0 0 0 1 1 0 -0 -0 1 0 16.749999999999968
1 15.75 0 16 -0 -0 -1 
1 2.3338651801168795 16.586608252473948 0 0.09513157527869523 -0.99546470725234348 0 
7 0 0  1 2 2  -5.4331299168639893 -15.844355439918578 18  -4.9467707286560474 -15.52707483747135 31 
 0 2 1 2
2 0 0 31 0 -0 1 1 0 0 -0 1 0 16.296029996607281
7 0 0  1 2 2  5.4331299168639875 -15.844355439918576 18  4.9467707286560536 -15.52707483747135 31 
 0 2 1 2
1 -5.4331299168639875 -15.844355439918578 0 0.095131575278694591 0.99546470725234359 0 
7 0 0  1 2 2  2.3338651801168795 16.586608252473948 18  1.9164021352674543 16.182953886922668 31 
 0 2 1 2
2 0 0 31 0 -0 1 1 0 0 -0 1 0 16.296029996607249
7 0 0  1 2 2  -2.3338651801167738 16.586608252475273 18  -1.9164021352674752 16.182953886922661 31 
 0 2 1 2
2 0 -0 0 0 -0 1 1 0 0 -0 1 0 13
1 1.8819540635881997 16.543421370921923 31 0.09513157527869523 -0.99546470725234348 0 
1 -4.9812188003353075 -15.887542321470603 31 0.095131575278694591 0.99546470725234359 -0 
1 1.5247119691774964 7.1246419999999997 0 -1 2.8999999999999998e-16 0 
1 0 15.013479 0 0.18976281235783887 -0.98182996238964093 0 
1 -1.5247119691774964 7.1246420000000006 0 0.1897628123578389 0.98182996238964093 0 
2 0 -0 0 0 0 1 1 0 -0 -0 1 0 7
6 0 1 7 -0 10  13 -0 16  
1 1.5247119691774964 7.1246419999999997 31 -0 -0 -1 
1 -1.5247119691774964 7.1246420000000006 31 -0 -0 -1 
1 0 15.013479 31 -0 -0 -1 
1 7 -0 0 0 0 1 
2 0 -0 0 0 0 1 1 0 -0 -0 1 0 3.1499999999999999
1 -1.7499999999862983 2.6191601707509133 0 0 -1 0 
6 0 1 -1.7499999999862983 -2.6191601707509138 10  -1.7499999999862983 -2.6191601707509138 16  
6 0 1 -1.749999999986299 2.6191601707509133 10  -1.749999999986299 2.6191601707509133 16  
1 -1.749999999986299 2.6191601707509133 0 0 0 1 
1 -1.7499999999862983 -2.6191601707509138 0 0 0 1 
Polygon3D 0
PolygonOnTriangulations 0
Surfaces 105
1 -8.4000000000000004e-16 1.03e-15 16 0 0 1 1 0 -0 -0 1 0 
10 0 6.2831853071795862 -2 6
2 0 0 16 -0 -0 -1 1 0 0 -0 1 -0 16.75
2 0 0 16 -0 -0 -1 1 0 0 -0 1 -0 15.75
1 -8.4000000000000004e-16 1.03e-15 16 0 0 1 1 0 -0 -0 1 0 
1 -9.7999999999999995e-16 1.2800000000000001e-15 16 0 0 1 1 0 -0 -0 1 0 
2 0 0 16 0 0 1 1 0 -0 -0 1 0 15.75
2 0 0 16 0 0 1 1 0 -0 -0 1 0 15.75
2 0 0 16 0 0 1 1 0 -0 -0 1 0 15.75
9 0 0 0 0 6 1 7 2 2 2 5.4331299168639902 -15.844355439918576 18  4.9467707286560501 -15.527074837471348 31  
3.6884478602149344 -16.442617976589197 18.000000000000028  3.3504663687079002 -16.035641439002745 30.999999999999904  
1.8647146207955927 -16.810344206584546 17.999999999999918  1.6914211757056659 -16.347272977129908 31.00000000000027  
-8.4399999999999999e-15 -16.934477357286635 18.000000000000078  -1.51e-14 -16.452294174674911 30.999999999999716  
-1.8647146207955756 -16.810344206584549 17.99999999999995  -1.6914211757056377 -16.347272977129887 31.000000000000156  
-3.6884478602149398 -16.442617976589208 18.000000000000025  -3.350466368707909 -16.03564143900276 30.999999999999964  
-5.4331299168639893 -15.844355439918578 18  -4.9467707286560474 -15.52707483747135 31  

1.2404549512940406 7
1.9011377022957525 7

0 2
1 2

1 0 0 18 0 0 1 1 0 -0 -0 1 0 
9 0 0 0 0 6 2 17 5 4 4 21.666675352550531 -10.49521246239447 1.40069848667682  21.416731562433302 -10.461375209997998 9.6990886328433117  20.984376163401123 -10.453209356945139 24.500000000000327  20.570416971218918 -10.535480222330987 39.311012406018328  20.347462282791795 -10.63590836820439 47.589955128300765  
19.064728991397036 -11.454349702831237 1.3969112702252182  18.666673565125816 -11.441443306056266 9.6990886328434733  17.966619570440276 -11.452956291711864 24.500000000000266  17.278548664735265 -11.524771995401018 39.31101240601793  16.898767021843572 -11.601364291731537 47.596857806426591  
16.462782630243545 -12.413486943268007 1.3931240537736163  15.971769039159341 -12.401855759324048 9.6990886328436332  15.10300389195436 -12.401638171355222 24.500000000000203  14.241122355715364 -12.437597351415848 39.311012406017561  13.761379277081211 -12.479670246125858 47.603137392217569  
13.860836269090049 -13.372624183704772 1.3893368373220145  13.332017984533893 -13.342612569801338 9.6990886328437895  12.393529127943376 -13.299254995875209 24.500000000000146  11.458138044159215 -13.273956290375471 39.31101240601722  10.935299048504719 -13.270826231387344 47.60879388567367  
11.258889907936554 -14.331761424141542 1.3855496208704128  10.747420401249466 -14.263713737488141 9.6990886328439458  9.8381952784073246 -14.14580676527183 24.500000000000099  8.9295957300668132 -14.033848812279885 39.311012406016921  8.4205263361141007 -13.974832247516007 47.613827286794901  
8.6569435467830598 -15.290898664578313 1.3817624044188108  8.2179762893060602 -15.165159262384456 9.6990886328440968  7.4370023433462054 -14.941293479545081 24.500000000000046  6.655495413438163 -14.717274917129094 39.311012406016644  6.2170611399093509 -14.591688294511838 47.618237595581284  
4.120670038396768 -16.963073356439061 1.3751597127121649  3.9042597375025494 -16.702485374052049 9.6990886328443526  3.5194571144614173 -16.239129707795971 24.499999999999964  3.1343918787910625 -15.775457819553623 39.311012406016218  2.9182441905260661 -15.515186059152882 47.624840287287768  
2.0863513204518802 -17.402597300455735 1.373421342990472  1.9753679691187123 -17.106029839844762 9.6990886328439387  1.7780678982506293 -16.578808591857225 24.500000000000092  1.5806331778576888 -16.051227536140161 39.311012406016893  1.4697844760493783 -15.755019883258729 47.626578657009716  
8.0000000000000006e-17 -17.551195820054961 1.372833592904815  -4.1800000000000001e-15 -17.242366577409175 9.6990886328445534  -1.177e-14 -16.693385765980771 24.499999999999897  -1.9359999999999999e-14 -16.144030296778105 39.311012406015877  -2.3620000000000001e-14 -15.835575711906596 47.627166407094975  
-2.0863513204518798 -17.402597300455771 1.3734213429905076  -1.9753679691187023 -17.10602983984478 9.6990886328440613  -1.7780678982506066 -16.578808591857218 24.500000000000053  -1.5806331778576534 -16.051227536140122 39.311012406016687  -1.4697844760493335 -15.755019883258665 47.626578657009603  
-4.1206700383967672 -16.963073356439068 1.3751597127121613  -3.9042597375025525 -16.70248537405206 9.6990886328443082  -3.5194571144614244 -16.239129707795982 24.499999999999993  -3.1343918787910741 -15.77545781955364 39.311012406016324  -2.9182441905260825 -15.515186059152905 47.624840287287839  
-8.9628718137514554 -15.177965688354462 1.3877521326371394  -8.5092979415011261 -15.061337794878334 9.6990886328441483  -7.7015690423682877 -14.85364567289106 24.500000000000011  -6.8932889000858451 -14.645811809213464 39.311012406016509  -6.4398427697272611 -14.529320985171294 47.617791690748589  
-11.747103691477591 -14.146990450900375 1.3960003733363777  -11.213209898699283 -14.096167033991588 9.6990886328440507  -10.261501996842654 -14.005570274625384 24.500000000000018  -9.310065308703102 -13.919507839614868 39.31101240601663  -8.7769769438227545 -13.875044552571117 47.613113839062549  
-14.408223876827531 -13.157016030773995 1.3981772656880196  -13.85542152029814 -13.151436861830032 9.699088632843953  -12.869749186183114 -13.141488943897947 24.500000000000025  -11.886166320125033 -13.145322696127307 39.311012406016765  -11.336305982176947 -13.158565074574312 47.607991256974678  
-16.946415214088248 -12.207923616251451 1.3927776103232077  -16.435932806297703 -12.227147278393687 9.6990886328438446  -15.526310610389672 -12.261401680708742 24.500000000000039  -14.621591934351633 -12.323256378750777 39.311012406016907  -14.11782988478984 -12.379882551180886 47.602423944484961  
-19.361366602082651 -11.299689506329337 1.3813131961015479  -18.954743756697969 -11.323298283682533 9.6990886328437558  -18.231186269462327 -11.365308485057772 24.500000000000046  -17.516342151382911 -11.45330888748528 39.311012406017049  -17.121548651661431 -11.538996982390836 47.596411901593378  
-21.652462024897851 -10.432392960694138 1.368342211727029  -21.411854371498947 -10.439889877696586 9.6990886328436474  -20.98437616340108 -10.453209356945036 24.50000000000006  -20.570416971218862 -10.53548022233082 39.311012406017198  -20.347462282791724 -10.635908368204165 47.589955128299977  

0.3517422625924268 7
1.2404549512940406 5
1.9011377022957525 5
2.8944869460369342 7

-1.2770632872547318 3
0 1
1 1
2.2786172932332915 3

9 0 0 0 0 5 1 6 2 2 2 -2.3338651801167853 16.586608252473958 18  -1.9164021352674852 16.182953886922672 31  
-1.4064079346292713 16.717108722391728 17.999999999999982  -1.1533947288610973 16.27331001307115 30.999999999999989  
-0.46982935855121688 16.782784788326037 18.000000000000011  -0.38506209122145879 16.318697590519037 30.999999999999996  
0.46982935855130031 16.782784788325891 18.000000000000011  0.38506209122142426 16.318697590518969 30.999999999999996  
1.4064079346293537 16.717108722391792 17.999999999999989  1.1533947288610609 16.273310013071178 31  
2.3338651801168679 16.586608252473944 18  1.9164021352674507 16.182953886922675 31  

4.5725989112864518 6
4.8521790494829329 6

0 2
1 2

9 0 0 0 0 5 2 14 5 4 4 -16.290183117476026 14.887994424896249 4.3683286286307892  -16.085426722901587 14.775043407700034 11.185157309253958  -15.692946648994143 14.612167256114352 24.500000000000256  -15.308916766539079 14.577432964194111 37.834743417726031  -15.115263405078213 14.648364747954895 44.598352554137563  
-13.586711923786567 15.312605621734502 4.3607655358142692  -13.162908381456891 15.21196560441075 11.185157309253897  -12.342552937820969 15.049891020230039 24.500000000000199  -11.526393450292241 14.964605374238033 37.834743417725996  -11.110125886594947 14.974391215099107 44.619243173846797  
-10.883240730097103 15.737216818572751 4.3532024429977501  -10.348377248608742 15.632743502648614 11.185157309253842  -9.3105747831041832 15.446014283646274 24.500000000000139  -8.2739322305960634 15.297521563702173 37.83474341772596  -7.7437748034810481 15.248419146906636 44.636801911832855  
-8.1797695364076421 16.161828015410997 4.34563935018123  -7.641833324357135 16.037377102413632 11.185157309253787  -6.5970121848437824 15.80053704636307 24.500000000000085  -5.5515331074505507 15.576181532586531 37.834743417725932  -5.0162101557365144 15.47044854337749 44.651028768095692  
-5.4762983427181791 16.58643921224925 4.33807625736471  -5.0432766087020715 16.425866403705797 11.185157309253734  -4.2018651430397682 16.113459308380413 24.500000000000039  -3.3591960808557024 15.800585280891109 37.834743417725917  -2.9274319433613494 15.640479404511655 44.661923742635352  
-1.6725109736854145 17.183867700133018 4.327434976261566  -1.5390421804747738 16.949756290882188 11.185157309253661  -1.2799013317451844 16.495209367731441 24.499999999999986  -1.0203731640363467 16.039983066353912 37.834743417725896  -0.88729168980495365 15.806551035329857 44.672565023738407  
-0.55899224330146957 17.270937286756364 4.3258833478242149  -0.51426594256481239 17.026067961237111 11.1851573092537  -0.42744572488633781 16.550741189422538 24.500000000000004  -0.3404957433429453 16.074703981252707 37.834743417725889  -0.29589920647120627 15.830545092088702 44.674116652175783  
0.55899224330167696 17.270937286756137 4.3258833478242149  0.51426594256495761 17.026067961236922 11.1851573092537  0.42744572488636229 16.550741189422432 24.500000000000004  0.34049574334284871 16.074703981252682 37.834743417725889  0.29589920647104767 15.830545092088716 44.674116652175783  
1.6725109736856221 17.183867700133124 4.3274349762615731  1.5390421804749186 16.949756290882274 11.185157309253668  1.2799013317452073 16.495209367731483 24.499999999999993  1.0203731640362479 16.039983066353926 37.83474341772591  0.88729168980479267 15.806551035329854 44.672565023738414  
5.9864727678362177 16.505915452883524 4.3527037219521247  5.5145249960004783 16.355413849942181 11.185157309253736  4.5948099536736651 16.062121675723326 24.500000000000018  3.6737202801640798 15.768391139022814 37.834743417725882  3.2017893883444382 15.618146141768619 44.660492706367265  
8.9432640822540943 16.034647243999835 4.3703146185075141  8.3484931377066225 15.929319666095713 11.185157309253794  7.1864294007946086 15.723530597377367 24.500000000000039  6.0233194064131652 15.527890319784078 37.834743417725861  5.4277463232112293 15.436948649262979 44.648882213693561  
11.645694144461844 15.597189623246617 4.3689101533313597  11.054611526762121 15.519928854985665 11.185157309253849  9.8999919990549916 15.369007834660433 24.500000000000057  8.7457185295586761 15.249230350899705 37.834743417725832  8.155310970955771 15.214919252792233 44.634655357430667  
14.093652138232786 15.193317858868713 4.3484885003677878  13.632880163166982 15.127241416612055 11.185157309253906  12.735497748454813 14.998553387572528 24.500000000000078  11.840917649600614 14.932411232369702 37.834743417725804  11.384483331578059 14.952057952356387 44.617812137578618  
16.284462721443411 14.822935851531058 4.323504362892697  16.083299046921194 14.751257350974873 11.185157309253952  15.692946648994075 14.612167256113651 24.500000000000103  15.308916766538976 14.577432964194065 37.834743417725768  15.115263405078093 14.648364747955435 44.598352554137399  

3.8856719471290084 6
4.5725989112864518 4
4.8521790494829329 4
5.6690815967885095 6

-1.048437337037895 3
0 1
1 1
2.0514989873424465 3

9 0 0 0 0 1 1 2 2 2 2 2.3338651801168795 16.586608252473948 18  1.9164021352674543 16.182953886922668 31  
5.4331299168639875 -15.844355439918576 18  4.9467707286560536 -15.52707483747135 31  

0 2
32.578717714571368 2

0 2
1 2

1 3.6575419902260937 0.34953296550167146 24.5 -0.99485829704924156 -0.095073623693404621 -0.034899496702500983 0.095131575278695257 -0.99546470725234348 6.0281640790194047e-17 -0.034741217268209279 -0.0033200440977424897 0.99939082701909576 
9 0 0 0 0 1 1 2 2 2 2 -5.4331299168639875 -15.844355439918578 18  -4.9467707286560527 -15.527074837471348 31  
-2.3338651801167738 16.586608252475273 18  -1.9164021352674752 16.182953886922661 31  

0 2
32.578717714572697 2

0 2
1 2

1 -3.6575419902260724 0.34953296550200186 24.5 0.99485829704924167 -0.095073623693403955 -0.034899496702500997 0.095131575278694244 0.99546470725234359 -1.0029303776359909e-14 0.034741217268210237 -0.0033200440977325376 0.99939082701909576 
1 0 0 31 0 -0 1 1 0 0 -0 1 0 
10 0 6.2831853071795862 0 8.4852813742385695
3 0 -0 10 0 0 1 1 0 -0 -0 1 0 7
0.78539816339744828
1 0 -0 16 0 0 1 1 0 -0 -0 1 0 
1 -9.7999999999999995e-16 1.2800000000000001e-15 16 0 0 1 1 0 -0 -0 1 0 
1 -9.7999999999999995e-16 1.2800000000000001e-15 16 0 0 1 1 0 -0 -0 1 0 
1 1.5247119691774964 7.1246419999999997 31 2.8999999999999998e-16 1 -0 -1 2.8999999999999998e-16 0 0 0 1 
1 8.9999999999999996e-17 10.439940191395864 31 0 0 1 1 0 -0 -0 1 0 
1 1.5247119691774964 7.1246419999999997 31 2.8999999999999998e-16 1 -0 -1 2.8999999999999998e-16 0 0 0 1 
1 8.9999999999999996e-17 10.439940191395864 31 0 0 1 1 0 -0 -0 1 0 
1 0 15.013479 31 -0.98182996238964093 -0.18976281235783887 0 0.18976281235783887 -0.98182996238964093 0 0 0 1 
1 0 15.013479 31 -0.98182996238964093 -0.18976281235783887 0 0.18976281235783887 -0.98182996238964093 0 0 0 1 
1 -1.5247119691774964 7.1246420000000006 31 0.98182996238964093 -0.1897628123578389 0 0.1897628123578389 0.98182996238964093 0 -0 0 1 
1 -1.5247119691774964 7.1246420000000006 31 0.98182996238964093 -0.1897628123578389 0 0.1897628123578389 0.98182996238964093 0 -0 0 1 
2 0 -0 0 -0 -0 -1 1 0 0 -0 1 -0 7
2 0 -0 0 -0 -0 -1 1 0 0 -0 1 -0 7
2 0 -0 10 -0 -0 -1 1 0 0 -0 1 -0 7
1 0.059898599531467298 3.2999999999999999e-16 0 0 0 1 1 0 -0 -0 1 0 
2 0 -0 0 -0 -0 -1 1 0 0 -0 1 -0 7
10 0 6.2831853071795862 0 6.9282032302755088
3 0 -0 10 0 0 1 1 0 -0 -0 1 0 7
0.52359877559829882
1 0 -0 10 0 0 1 1 0 -0 -0 1 0 
10 0 6.2831853071795862 0 7.8324437359936718
3 0 -0 10 0 0 1 1 0 -0 -0 1 0 7
0.69813170079773179
1 0 -0 10 0 0 1 1 0 -0 -0 1 0 
10 0 6.2831853071795862 0 9.3343429611624718
3 0 -0 10 0 0 1 1 0 -0 -0 1 0 7
0.87266462599716466
1 0 -0 10 0 0 1 1 0 -0 -0 1 0 
10 0 6.2831853071795862 0 11.999999999999998
3 0 -0 10 0 0 1 1 0 -0 -0 1 0 7
1.0471975511965976
1 0 -0 10 0 0 1 1 0 -0 -0 1 0 
10 0 6.2831853071795862 0 11.999999999999998
3 0 -0 10 0 0 1 1 0 -0 -0 1 0 7
1.0471975511965976
1 0 -0 10 0 0 1 1 0 -0 -0 1 0 
10 0 6.2831853071795862 0 9.3343429611624718
3 0 -0 10 0 0 1 1 0 -0 -0 1 0 7
0.87266462599716466
1 0 -0 10 0 0 1 1 0 -0 -0 1 0 
10 0 6.2831853071795862 0 7.8324437359936718
3 0 -0 10 0 0 1 1 0 -0 -0 1 0 7
0.69813170079773179
1 0 -0 10 0 0 1 1 0 -0 -0 1 0 
10 0 6.2831853071795862 0 8.4852813742385695
3 0 -0 10 0 0 1 1 0 -0 -0 1 0 7
0.78539816339744828
1 0 -0 10 0 0 1 1 0 -0 -0 1 0 
1 0 -0 10 0 0 1 1 0 -0 -0 1 0 
2 0 -0 0 -0 -0 -1 1 0 0 -0 1 -0 3.1499999999999999
2 0 -0 0 -0 -0 -1 1 0 0 -0 1 -0 3.1499999999999999
2 0 -0 10 -0 -0 -1 1 0 0 -0 1 -0 3.1499999999999999
2 0 -0 0 -0 -0 -1 1 0 0 -0 1 -0 3.1499999999999999
10 4.1233580101736473 8.443012604185526 0 6
2 0 -0 10 0 0 1 1 0 -0 -0 1 0 3.1499999999999999
1 0 -0 10 0 0 1 1 0 -0 -0 1 0 
1 0 -0 16 0 0 1 1 0 -0 -0 1 0 
1 0 -0 16 0 0 1 1 0 -0 -0 1 0 
10 4.1233580101736473 8.443012604185526 0 6
2 0 -0 10 0 0 1 1 0 -0 -0 1 0 3.1499999999999999
1 0 -0 10 0 0 1 1 0 -0 -0 1 0 
1 0 -0 16 0 0 1 1 0 -0 -0 1 0 
1 0 -0 16 0 0 1 1 0 -0 -0 1 0 
10 4.1233580101736473 8.443012604185526 0 6
2 0 -0 10 0 0 1 1 0 -0 -0 1 0 3.1499999999999999
1 0 -0 10 0 0 1 1 0 -0 -0 1 0 
1 0 -0 16 0 0 1 1 0 -0 -0 1 0 
1 0 -0 16 0 0 1 1 0 -0 -0 1 0 
10 4.1233580101736473 8.443012604185526 0 6
2 0 -0 10 0 0 1 1 0 -0 -0 1 0 3.1499999999999999
1 0 -0 10 0 0 1 1 0 -0 -0 1 0 
1 0 -0 16 0 0 1 1 0 -0 -0 1 0 
1 0 -0 16 0 0 1 1 0 -0 -0 1 0 
10 4.1233580101736473 8.443012604185526 0 6
2 0 -0 10 0 0 1 1 0 -0 -0 1 0 3.1499999999999999
1 0 -0 10 0 0 1 1 0 -0 -0 1 0 
1 0 -0 16 0 0 1 1 0 -0 -0 1 0 
1 0 -0 16 0 0 1 1 0 -0 -0 1 0 
2 0 -0 0 -0 -0 -1 1 0 0 -0 1 -0 3.1499999999999999
10 4.1233580101736473 8.443012604185526 0 6
2 0 -0 10 0 0 1 1 0 -0 -0 1 0 3.1499999999999999
1 0 -0 10 0 0 1 1 0 -0 -0 1 0 
1 0 -0 16 0 0 1 1 0 -0 -0 1 0 
1 0 -0 16 0 0 1 1 0 -0 -0 1 0 
10 4.1233580101736473 8.443012604185526 0 6
2 0 -0 10 0 0 1 1 0 -0 -0 1 0 3.1499999999999999
1 0 -0 10 0 0 1 1 0 -0 -0 1 0 
1 0 -0 16 0 0 1 1 0 -0 -0 1 0 
1 0 -0 16 0 0 1 1 0 -0 -0 1 0 
10 4.1233580101736473 8.443012604185526 0 6
2 0 -0 10 0 0 1 1 0 -0 -0 1 0 3.1499999999999999
1 0 -0 10 0 0 1 1 0 -0 -0 1 0 
1 0 -0 16 0 0 1 1 0 -0 -0 1 0 
1 0 -0 16 0 0 1 1 0 -0 -0 1 0 
10 4.1233580101736473 8.443012604185526 0 6
2 0 -0 10 0 0 1 1 0 -0 -0 1 0 3.1499999999999999
1 0 -0 10 0 0 1 1 0 -0 -0 1 0 
1 0 -0 16 0 0 1 1 0 -0 -0 1 0 
2 0 -0 0 -0 -0 -1 1 0 0 -0 1 -0 3.1499999999999999
1 -1.7499999999862983 2.6191601707509133 10 1 0 -0 0 -1 0 0 -0 -1 
1 -1.7499999999862983 2.6191601707509133 0 1 0 -0 0 -1 0 0 -0 -1 
1 -1.7499999999862983 2.6191601707509133 16 -1 0 0 0 -1 0 0 0 1 
1 -1.7499999999862983 2.6191601707509133 16 -1 0 0 0 -1 0 0 0 1 
1 -1.7499999999862983 2.6191601707509133 16 -1 0 0 0 -1 0 0 0 1 
1 -1.7499999999862983 2.6191601707509133 16 -1 0 0 0 -1 0 0 0 1 
1 -1.7499999999862983 2.6191601707509133 16 -1 0 0 0 -1 0 0 0 1 
1 -1.7499999999862983 2.6191601707509133 16 -1 0 0 0 -1 0 0 0 1 
1 -1.7499999999862983 2.6191601707509133 16 -1 0 0 0 -1 0 0 0 1 
1 -1.7499999999862983 2.6191601707509133 16 -1 0 0 0 -1 0 0 0 1 
1 -1.7499999999862983 2.6191601707509133 16 -1 0 0 0 -1 0 0 0 1 
1 -1.7499999999862985 -2.1000000000000001e-16 7.9999999999999982 1 9.9999999999999998e-17 0 -9.9999999999999998e-17 1 0 0 -0 1 
Triangulations 0

TShapes 105
Ve
1e-07
16.75 0 10
0 0

0101101
*
Ed
 1e-07 1 1 0
1  1 0 0 6.28318530717959
2  1 1 13 0 6.28318530717959
2  2 2 0 0 6.28318530717959
4 C0 1 13 2 0
0

0101000
+105 0 -105 0 *
Wi

0101100
+104 12 *
Ve
1e-07
15.75 0 0
0 0

0101101
*
Ed
 1e-07 1 1 0
1  2 0 0 6.28318530717959
2  3 3 17 0 6.28318530717959
2  4 3 19 0 6.28318530717959
2  5 4 20 0 6.28318530717959
2  6 5 23 0 6.28318530717959
2  3 6 27 0 6.28318530717959
2  4 6 29 0 6.28318530717959
2  3 7 33 0 6.28318530717959
2  7 7 35 0 6.28318530717959
2  3 8 36 0 6.28318530717959
2  7 8 12 0 6.28318530717959
2  5 1 37 0 6.28318530717959
2  6 5 38 0 6.28318530717959
0

0101000
+102 0 -102 0 *
Wi

0101100
+101 0 *
Fa
0  1e-07 1 0

0111000
+103 11 -100 11 *
Ve
1e-07
16.75 0 18
0 0

0101101
*
Ed
 1e-07 1 1 0
1  3 0 -2 6
3  8 9C0 2 0 -2 6
0

0101000
-105 0 +98 0 *
Ve
1e-07
5.43312991686399 -15.8443554399186 0
0 0

0101101
*
Ed
 1e-07 1 1 0
1  4 0 5.04273035588555 6.28318530717959
2  10 5 42 5.04273035588555 6.28318530717959
4 C0 2 0 5 42
2  11 2 0 5.04273035588555 6.28318530717959
0

0101000
+96 45 -98 0 *
Ve
0.029870008451789
-5.43312991686399 -15.8443554399186 0
0 0

0101101
*
Ed
 1e-07 1 1 0
1  5 0 4.38204760488383 5.04273035588555
2  12 9 47 4.38204760488383 5.04273035588555
4 C0 9 47 10 47
2  13 10 47 4.38204760488383 5.04273035588555
2  14 2 48 4.38204760488383 5.04273035588555
2  10 5 49 4.38204760488383 5.04273035588555
2  12 11 51 4.38204760488383 5.04273035588555
0

0101000
+94 0 -96 0 *
Ve
0.029955009007045
-2.33386518011677 16.5866082524746 0
0 0

0101101
*
Ed
 1e-07 1 1 0
1  4 0 1.71058639589313 4.38204760488383
2  10 5 42 1.71058639589313 4.38204760488383
2  11 2 0 1.71058639589313 4.38204760488383
4 C0 2 0 5 42
0

0101000
+92 45 -94 45 *
Ve
1e-07
2.33386518011688 16.5866082524739 0
0 0

0101101
*
Ed
 1e-07 1 1 0
1  6 0 1.43100625769665 1.71058639589313
2  12 12 47 1.43100625769665 1.71058639589313
4 C0 12 47 10 47
2  15 10 47 1.43100625769665 1.71058639589313
2  16 2 48 1.43100625769665 1.71058639589313
2  17 5 49 1.43100625769665 1.71058639589313
2  12 13 51 1.43100625769665 1.71058639589313
0

0101000
+90 0 -92 0 *
Ed
 1e-07 1 1 0
1  4 0 0 1.43100625769665
2  10 5 42 0 1.43100625769665
4 C0 2 0 5 42
2  11 2 0 0 1.43100625769665
0

0101000
+98 0 -90 45 *
Wi

0101100
+97 40 +95 40 +93 46 +91 40 +89 46 +88 40 -97 40 -104 40 *
Fa
0  1e-07 2 40

0111000
+87 0 *
Ed
 1e-07 1 1 0
1  7 0 0 6
3  18 19CN 8 0 0 6
0

0101000
+102 53 -102 54 *
Wi

0101100
+85 0 -85 0 -101 53 +101 54 *
Fa
0  1e-07 8 0

0111000
+84 0 *
Ed
 1e-07 1 1 0
1  8 0 0 32.5787177145714
2  3 14 47 0 32.5787177145714
4 C0 14 47 10 47
2  20 15 47 0 32.5787177145714
2  21 10 47 0 32.5787177145714
2  22 5 49 0 32.5787177145714
0

0101000
+90 0 -96 0 *
Wi

0101100
+95 40 +82 46 +88 40 *
Fa
0  1e-07 5 55

0111000
+81 0 *
Ve
1e-07
-4.94677072865605 -15.5270748374713 31
0 0

0101101
*
Ed
 1e-07 1 1 0
1  9 0 0 1
2  23 9 0 0 1
2  9 16 0 0 1
4 C0 9 0 16 0
2  24 17 0 0 1
0

0101000
+94 46 -79 0 *
Ve
1e-07
4.94677072865605 -15.5270748374713 31
0 0

0101101
*
Ed
 1e-07 1 1 0
1  10 0 4.40396558898792 5.02081237178146
2  25 9 0 4.40396558898792 5.02081237178146
4 C0 9 0 18 0
2  26 18 0 4.40396558898792 5.02081237178146
0

0101000
+79 0 -77 0 *
Ed
 1e-07 1 1 0
1  11 0 0 1
2  27 14 0 0 1
2  28 9 0 0 1
4 C0 14 0 9 0
2  29 15 0 0 1
0

0101000
+96 46 -77 0 *
Wi

0101000
-93 46 +78 0 +76 0 -75 0 *
Fa
0  1e-07 9 0

0111000
+74 0 *
Ed
 1e-07 1 1 0
1  12 0 0 32.5787177145727
2  3 16 47 0 32.5787177145727
4 C0 16 47 10 47
2  30 17 47 0 32.5787177145727
2  31 10 47 0 32.5787177145727
2  32 5 49 0 32.5787177145727
0

0101000
+94 0 -92 0 *
Wi

0101100
+72 46 +91 40 *
Fa
0  1e-07 5 55

0111000
+71 0 *
Ve
1e-07
1.91640213526745 16.1829538869227 31
0 0

0101101
*
Ed
 1e-07 1 1 0
1  13 0 0 1
2  9 14 0 0 1
2  33 12 0 0 1
4 C0 14 0 12 0
2  34 15 0 0 1
0

0101000
+90 46 -69 0 *
Ve
1e-07
-1.91640213526747 16.1829538869227 31
0 0

0101101
*
Ed
 1e-07 1 1 0
1  14 0 7.73610954898032 7.97185371896865
2  35 12 0 7.73610954898032 7.97185371896865
4 C0 12 0 18 0
2  36 18 0 7.73610954898032 7.97185371896865
0

0101000
+69 0 -67 0 *
Ed
 1e-07 1 1 0
1  15 0 0 1
2  37 16 0 0 1
2  38 12 0 0 1
4 C0 16 0 12 0
2  39 17 0 0 1
0

0101000
+92 46 -67 0 *
Wi

0101000
-89 46 +68 0 +66 0 -65 0 *
Fa
0  1e-07 12 0

0111000
+64 0 *
Wi

0101100
+101 53 *
Ve
1e-07
13 -0 16
0 0

0101101
*
Ed
 1e-07 1 1 0
1  16 0 0 6.28318530717959
2  40 19 67 0 6.28318530717959
4 C0 19 67 20 67
2  41 20 67 0 6.28318530717959
2  42 21 68 0 6.28318530717959
2  42 22 68 0 6.28318530717959
2  42 5 68 0 6.28318530717959
0

0101000
+61 67 -61 67 *
Wi

0101100
-60 66 *
Fa
0  1e-07 5 56

0111000
+62 0 +59 0 *
Ed
 1e-07 1 1 0
1  17 0 0.362109757757468 32.2166079568139
2  43 14 0 0.362109757757468 32.2166079568139
4 C0 14 0 18 0
2  44 15 0 0.362109757757468 32.2166079568139
2  45 18 0 0.362109757757468 32.2166079568139
0

0101000
+69 0 -77 0 *
Wi

0101000
+82 46 +75 0 -57 0 -68 0 *
Fa
0  1e-07 15 0

0111000
+56 0 *
Ed
 1e-07 1 1 0
1  18 0 0.362109757757468 32.2166079568139
2  46 16 0 0.362109757757468 32.2166079568139
4 C0 16 0 18 0
2  47 17 0 0.362109757757468 32.2166079568139
2  48 18 0 0.362109757757468 32.2166079568139
0

0101000
+79 0 -67 0 *
Wi

0101000
+72 46 +65 0 -54 0 -78 0 *
Fa
0  1e-07 17 0

0111000
+53 0 *
Wi

0101100
-57 39 +66 39 +76 39 -54 39 *
Ve
1e-07
1.5247119691775 7.124642 0
0 0

0101101
*
Ve
1e-07
-1.5247119691775 7.124642 0
0 0

0101101
*
Ed
 1e-07 1 1 0
1  19 0 0 3.04942393835499
2  3 23 75 0 3.04942393835499
2  49 23 77 0 3.04942393835499
2  50 24 78 0 3.04942393835499
2  51 18 79 0 3.04942393835499
2  3 25 80 0 3.04942393835499
2  52 25 82 0 3.04942393835499
2  50 26 83 0 3.04942393835499
2  51 18 84 0 3.04942393835499
0

0101000
+50 0 -49 0 *
Ve
1e-07
0 15.013479 0
0 0

0101101
*
Ed
 1e-07 1 1 0
1  20 0 0 8.03483016631479
2  3 27 75 0 8.03483016631479
2  49 27 77 0 8.03483016631479
2  53 24 78 0 8.03483016631479
2  54 18 79 0 8.03483016631479
2  3 28 80 0 8.03483016631479
2  52 28 82 0 8.03483016631479
2  53 26 83 0 8.03483016631479
2  54 18 84 0 8.03483016631479
0

0101000
+47 0 -50 0 *
Ed
 1e-07 1 1 0
1  21 0 0 8.03483016631479
2  3 29 75 0 8.03483016631479
2  49 29 77 0 8.03483016631479
2  55 24 78 0 8.03483016631479
2  56 18 79 0 8.03483016631479
2  3 30 80 0 8.03483016631479
2  52 30 82 0 8.03483016631479
2  55 26 83 0 8.03483016631479
2  56 18 84 0 8.03483016631479
0

0101000
+49 0 -47 0 *
Wi

0101100
+48 71 +46 71 +45 71 *
Fa
0  1e-07 18 39

0111000
+51 0 +44 0 *
Ve
1e-07
7 -0 10
0 0

0101101
*
Ed
 1e-07 1 1 0
1  22 0 0 6.28318530717959
2  3 31 89 0 6.28318530717959
2  4 31 91 0 6.28318530717959
2  3 32 92 0 6.28318530717959
2  4 32 93 0 6.28318530717959
2  3 33 96 0 6.28318530717959
2  4 33 98 0 6.28318530717959
2  57 34 99 0 6.28318530717959
2  58 35 98 0 6.28318530717959
2  3 35 100 0 6.28318530717959
2  3 36 103 0 6.28318530717959
4 C0 36 103 37 103
2  59 37 103 0 6.28318530717959
2  3 38 106 0 6.28318530717959
4 C0 38 106 39 106
2  59 39 106 0 6.28318530717959
2  3 40 109 0 6.28318530717959
4 C0 40 109 41 109
2  59 41 109 0 6.28318530717959
2  3 42 112 0 6.28318530717959
4 C0 42 112 43 112
2  59 43 112 0 6.28318530717959
2  3 44 115 0 6.28318530717959
4 C0 44 115 45 115
2  59 45 115 0 6.28318530717959
2  3 46 118 0 6.28318530717959
4 C0 46 118 47 118
2  59 47 118 0 6.28318530717959
2  3 48 121 0 6.28318530717959
4 C0 48 121 49 121
2  59 49 121 0 6.28318530717959
2  3 50 124 0 6.28318530717959
4 C0 50 124 51 124
2  59 51 124 0 6.28318530717959
2  3 19 125 0 6.28318530717959
4 C0 19 125 52 125
2  59 52 125 0 6.28318530717959
2  60 19 126 0 6.28318530717959
0

0101000
+42 126 -42 126 *
Ed
 1e-07 1 1 0
1  23 0 0 1
3  61 62CN 19 0 0 1
0

0101000
+42 0 -61 0 *
Wi

0101100
+41 86 +40 0 -60 127 -40 0 *
Fa
0  1e-07 19 0

0111000
+39 0 *
Ed
 1e-07 1 1 0
1  24 0 0 1
2  63 28 0 0 1
2  18 25 0 0 1
0

0101000
+50 71 -50 128 *
Ed
 1e-07 1 1 0
1  25 0 0 1
2  18 30 0 0 1
2  64 25 0 0 1
0

0101000
+49 71 -49 128 *
Wi

0101100
+37 0 -36 0 -48 71 +48 128 *
Fa
0  1e-07 25 0

0111000
+35 0 *
Ed
 1e-07 1 1 0
1  26 0 0 1
2  63 30 0 0 1
2  18 28 0 0 1
0

0101000
+47 71 -47 128 *
Wi

0101100
+33 0 -37 0 -46 71 +46 128 *
Fa
0  1e-07 28 0

0111000
+32 0 *
Wi

0101100
+36 0 -33 0 -45 71 +45 128 *
Fa
0  1e-07 30 0

0111000
+30 0 *
Ve
1e-07
7 -0 0
0 0

0101101
*
Ed
 1e-07 1 1 0
1  27 0 0 10
3  18 19CN 32 0 0 10
0

0101000
+28 130 -42 131 *
Ed
 1e-07 1 1 0
1  22 0 0 6.28318530717959
2  3 31 89 0 6.28318530717959
2  4 31 91 0 6.28318530717959
2  3 32 92 0 6.28318530717959
2  4 32 93 0 6.28318530717959
2  3 33 96 0 6.28318530717959
2  4 33 98 0 6.28318530717959
2  57 34 99 0 6.28318530717959
2  58 35 98 0 6.28318530717959
2  3 35 100 0 6.28318530717959
2  3 36 103 0 6.28318530717959
4 C0 36 103 37 103
2  59 37 103 0 6.28318530717959
2  3 38 106 0 6.28318530717959
4 C0 38 106 39 106
2  59 39 106 0 6.28318530717959
2  3 40 109 0 6.28318530717959
4 C0 40 109 41 109
2  59 41 109 0 6.28318530717959
2  3 42 112 0 6.28318530717959
4 C0 42 112 43 112
2  59 43 112 0 6.28318530717959
2  3 44 115 0 6.28318530717959
4 C0 44 115 45 115
2  59 45 115 0 6.28318530717959
2  3 46 118 0 6.28318530717959
4 C0 46 118 47 118
2  59 47 118 0 6.28318530717959
2  3 48 121 0 6.28318530717959
4 C0 48 121 49 121
2  59 49 121 0 6.28318530717959
2  3 50 124 0 6.28318530717959
4 C0 50 124 51 124
2  59 51 124 0 6.28318530717959
2  3 19 125 0 6.28318530717959
4 C0 19 125 52 125
2  59 52 125 0 6.28318530717959
0

0101000
+28 0 -28 0 *
Wi

0101100
+27 129 -27 129 -26 132 +41 86 *
Fa
0  1e-07 32 129

0111000
+25 0 *
Wi

0101100
+45 0 +46 0 +48 0 *
Fa
0  1e-07 26 0

0111000
-23 134 *
Wi

0101100
+26 0 *
Ve
1e-07
-1.7499999999863 -2.61916017075091 0
0 0

0101101
*
Ve
1e-07
-1.7499999999863 2.61916017075091 0
0 0

0101101
*
Ed
 1e-07 1 1 0
1  28 0 4.12335801017365 8.44301260418553
2  3 53 89 4.12335801017365 8.44301260418553
2  4 53 91 4.12335801017365 8.44301260418553
2  3 54 92 4.12335801017365 8.44301260418553
2  4 54 93 4.12335801017365 8.44301260418553
2  3 55 96 4.12335801017365 8.44301260418553
2  4 55 98 4.12335801017365 8.44301260418553
2  65 34 99 4.12335801017365 8.44301260418553
2  66 56 100 4.12335801017365 8.44301260418553
2  67 56 98 4.12335801017365 8.44301260418553
2  3 57 103 4.12335801017365 8.44301260418553
2  2 57 138 4.12335801017365 8.44301260418553
4 C0 57 103 58 103
4 C0 57 138 59 138
2  68 58 103 4.12335801017365 8.44301260418553
2  68 59 138 4.12335801017365 8.44301260418553
2  68 37 103 4.12335801017365 8.44301260418553
2  69 60 138 4.12335801017365 8.44301260418553
2  3 61 106 4.12335801017365 8.44301260418553
2  2 61 140 4.12335801017365 8.44301260418553
4 C0 61 106 62 106
4 C0 61 140 63 140
2  68 62 106 4.12335801017365 8.44301260418553
2  68 63 140 4.12335801017365 8.44301260418553
2  68 39 106 4.12335801017365 8.44301260418553
2  69 64 140 4.12335801017365 8.44301260418553
2  3 65 109 4.12335801017365 8.44301260418553
2  2 65 142 4.12335801017365 8.44301260418553
4 C0 65 109 66 109
4 C0 65 142 67 142
2  68 66 109 4.12335801017365 8.44301260418553
2  68 67 142 4.12335801017365 8.44301260418553
2  68 41 109 4.12335801017365 8.44301260418553
2  69 68 142 4.12335801017365 8.44301260418553
2  3 69 112 4.12335801017365 8.44301260418553
2  2 69 144 4.12335801017365 8.44301260418553
4 C0 69 112 70 112
4 C0 69 144 71 144
2  68 70 112 4.12335801017365 8.44301260418553
2  68 71 144 4.12335801017365 8.44301260418553
2  68 43 112 4.12335801017365 8.44301260418553
2  69 72 144 4.12335801017365 8.44301260418553
2  3 73 115 4.12335801017365 8.44301260418553
2  2 73 146 4.12335801017365 8.44301260418553
4 C0 73 115 74 115
4 C0 73 146 75 146
2  68 74 115 4.12335801017365 8.44301260418553
2  68 75 146 4.12335801017365 8.44301260418553
2  68 45 115 4.12335801017365 8.44301260418553
2  69 76 146 4.12335801017365 8.44301260418553
2  66 77 147 4.12335801017365 8.44301260418553
2  70 77 146 4.12335801017365 8.44301260418553
2  3 78 118 4.12335801017365 8.44301260418553
2  2 78 149 4.12335801017365 8.44301260418553
4 C0 78 118 79 118
4 C0 78 149 80 149
2  68 79 118 4.12335801017365 8.44301260418553
2  68 80 149 4.12335801017365 8.44301260418553
2  68 47 118 4.12335801017365 8.44301260418553
2  69 81 149 4.12335801017365 8.44301260418553
2  3 82 121 4.12335801017365 8.44301260418553
2  2 82 151 4.12335801017365 8.44301260418553
4 C0 82 121 83 121
4 C0 82 151 84 151
2  68 83 121 4.12335801017365 8.44301260418553
2  68 84 151 4.12335801017365 8.44301260418553
2  68 49 121 4.12335801017365 8.44301260418553
2  69 85 151 4.12335801017365 8.44301260418553
2  3 86 124 4.12335801017365 8.44301260418553
2  2 86 153 4.12335801017365 8.44301260418553
4 C0 86 124 87 124
4 C0 86 153 88 153
2  68 87 124 4.12335801017365 8.44301260418553
2  68 88 153 4.12335801017365 8.44301260418553
2  68 51 124 4.12335801017365 8.44301260418553
2  69 89 153 4.12335801017365 8.44301260418553
2  3 90 125 4.12335801017365 8.44301260418553
2  2 90 155 4.12335801017365 8.44301260418553
4 C0 90 125 91 125
4 C0 90 155 92 155
2  68 91 125 4.12335801017365 8.44301260418553
2  68 92 155 4.12335801017365 8.44301260418553
2  68 52 125 4.12335801017365 8.44301260418553
2  69 20 155 4.12335801017365 8.44301260418553
2  66 93 156 4.12335801017365 8.44301260418553
2  70 93 155 4.12335801017365 8.44301260418553
2  71 21 157 4.12335801017365 8.44301260418553
2  71 22 157 4.12335801017365 8.44301260418553
2  71 5 157 4.12335801017365 8.44301260418553
0

0101000
+20 0 -19 0 *
Ed
 1e-07 1 1 0
1  29 0 0 5.23832034150183
2  3 94 96 0 5.23832034150183
2  4 94 98 0 5.23832034150183
2  3 95 92 0 5.23832034150183
2  4 95 93 0 5.23832034150183
2  72 34 99 0 5.23832034150183
4 C0 96 103 58 103
4 C0 96 138 59 138
2  7 96 103 0 5.23832034150183
2  3 96 138 0 5.23832034150183
2  73 58 103 0 5.23832034150183
2  73 59 138 0 5.23832034150183
2  73 37 103 0 5.23832034150183
2  73 60 138 0 5.23832034150183
4 C0 97 106 62 106
4 C0 97 140 63 140
2  7 97 106 0 5.23832034150183
2  3 97 140 0 5.23832034150183
2  73 62 106 0 5.23832034150183
2  73 63 140 0 5.23832034150183
2  73 39 106 0 5.23832034150183
2  73 64 140 0 5.23832034150183
4 C0 98 109 66 109
4 C0 98 142 67 142
2  7 98 109 0 5.23832034150183
2  3 98 142 0 5.23832034150183
2  73 66 109 0 5.23832034150183
2  73 67 142 0 5.23832034150183
2  73 41 109 0 5.23832034150183
2  73 68 142 0 5.23832034150183
4 C0 99 112 70 112
4 C0 99 144 71 144
2  7 99 112 0 5.23832034150183
2  3 99 144 0 5.23832034150183
2  73 70 112 0 5.23832034150183
2  73 71 144 0 5.23832034150183
2  73 43 112 0 5.23832034150183
2  73 72 144 0 5.23832034150183
4 C0 100 115 74 115
4 C0 100 146 75 146
2  7 100 115 0 5.23832034150183
2  3 100 146 0 5.23832034150183
2  73 74 115 0 5.23832034150183
2  73 75 146 0 5.23832034150183
2  73 45 115 0 5.23832034150183
2  73 76 146 0 5.23832034150183
4 C0 101 118 79 118
4 C0 101 149 80 149
2  7 101 118 0 5.23832034150183
2  3 101 149 0 5.23832034150183
2  73 79 118 0 5.23832034150183
2  73 80 149 0 5.23832034150183
2  73 47 118 0 5.23832034150183
2  73 81 149 0 5.23832034150183
4 C0 102 121 83 121
4 C0 102 151 84 151
2  7 102 121 0 5.23832034150183
2  3 102 151 0 5.23832034150183
2  73 83 121 0 5.23832034150183
2  73 84 151 0 5.23832034150183
2  73 49 121 0 5.23832034150183
2  73 85 151 0 5.23832034150183
4 C0 103 124 87 124
4 C0 103 153 88 153
2  7 103 124 0 5.23832034150183
2  3 103 153 0 5.23832034150183
2  73 87 124 0 5.23832034150183
2  73 88 153 0 5.23832034150183
2  73 51 124 0 5.23832034150183
2  73 89 153 0 5.23832034150183
4 C0 104 125 91 125
4 C0 104 155 92 155
2  7 104 125 0 5.23832034150183
2  3 104 155 0 5.23832034150183
2  73 91 125 0 5.23832034150183
2  73 92 155 0 5.23832034150183
2  73 52 125 0 5.23832034150183
2  73 20 155 0 5.23832034150183
2  74 105 155 0 5.23832034150183
2  75 105 156 0 5.23832034150183
2  76 21 157 0 5.23832034150183
2  76 22 157 0 5.23832034150183
2  76 5 157 0 5.23832034150183
0

0101000
+19 0 -20 0 *
Wi

0101100
+18 0 +17 0 *
Fa
0  1e-07 34 0

0111000
+21 136 -16 136 *
Ve
1e-07
-1.7499999999863 -2.61916017075091 10
0 0

0101101
*
Ed
 1e-07 1 1 0
1  30 0 0 1
2  77 90 0 0 1
4 C0 90 0 104 0
2  78 104 0 0 1
2  79 93 0 0 1
2  80 105 0 0 1
0

0101000
+14 0 -20 158 *
Ve
1e-07
-1.7499999999863 2.61916017075091 10
0 0

0101101
*
Ed
 1e-07 1 1 0
1  31 0 0 1
2  81 90 0 0 1
4 C0 90 0 104 0
2  82 104 0 0 1
2  83 93 0 0 1
2  84 105 0 0 1
0

0101000
+12 0 -19 158 *
Ed
 1e-07 1 1 0
1  32 0 0 10
2  85 54 0 0 10
2  18 95 0 0 10
2  85 93 131 0 10
2  86 105 131 0 10
0

0101000
+19 130 -12 131 *
Ed
 1e-07 1 1 0
1  33 0 0 10
2  87 54 0 0 10
2  88 95 0 0 10
2  89 93 131 0 10
2  90 105 131 0 10
0

0101000
+20 130 -14 131 *
Wi

0101100
+13 0 +18 158 -11 0 -10 129 -18 132 +9 129 *
Fa
0  1e-07 93 0

0111000
+8 0 *
Wi

0101100
+10 129 +11 0 +17 158 -13 0 -9 129 -17 132 *
Fa
0  1e-07 105 0

0111000
+6 0 *
Wi

0101100
+17 161 +18 161 *
Fa
0  1e-07 5 160

0111000
+4 0 *
Sh

0101100
-99 8 -86 39 -83 52 +80 39 -73 39 +70 39 -63 39 -58 52 -55 39 -52 39 
+43 0 +38 85 +34 0 +31 0 +29 0 -24 85 +22 133 -15 135 +7 85 +5 85 
-3 159 *
So

1100000
+2 0 *

+1 1 