DBRep_DrawableShape

CASCADE Topology V1, (c) Matra-Datavision
Locations 20
1
              1               0               0               0 
              0              -0              -1               0 
              0               1              -0               0 
1
              1               0               0               0 
              0              -0              -1               0 
              0               1              -0               0 
1
              1               0               0               0 
              0              -0              -1               0 
              0               1              -0               0 
2  2 1 3 -1 0
1
              1               0               0               0 
              0               1               0               0 
              0               0               1               0 
2  5 -1 3 1 2 -1 0
2  3 1 2 -1 0
2  2 -1 0
1
              1               0               0               0 
              0               1               0               0 
              0               0               1               0 
1
              1              -0              -0               0 
              0               0               1              -0 
              0              -1               0              -0 
1
              1               0               0  2.69186502e-07 
              0               1               0 -0.176152123074891 
              0               0               1 -1.99222750446231 
2  9 1 10 1 3 -1 11 1 0
2  3 1 10 -1 9 -1 0
2  11 -1 3 1 10 -1 9 -1 0
2  10 -1 9 -1 0
2  9 1 10 1 3 -1 0
2  2 1 10 -1 9 -1 0
2  3 -1 11 1 0
2  9 1 10 1 0
2  3 -1 0
Curve2ds 36
1 0 0 0 1 
8 0 6.2908082499290376
1 2 0 0 1 
1 -2 1 1 0 
1 0 0 1 0 
1 6.5000000000000018 -2 0 1 
1 4 0 0 1 
8 0 6.2908082499290376
1 0 0 0 1 
1 0 6.2908082499290376 1 0 
8 0 4
1 0 0 1 0 
1 -2 -1 0 1 
1 4.5000000000000018 -2 1 0 
8 0 2
1 0 0 1 0 
1 0 0 0.088076061537445738 -0.99611375223116572 
1 0 0 1.3459325124000001e-07 -0.99999999999999101 
1 4 -1.6000000000000001e-16 1.3459325124000001e-07 -0.99999999999999101 
1 -1.7800000000000001e-15 0 0.088076061537445738 -0.99611375223116572 
1 2.6918650242999999e-07 -1.9999999999999827 1 0 
1 6.5000000000000018 -2 -0 1 
1 1.9999999999999982 1 -0 -1 
7 0 0  1 2 2  6.5000000000000036 2.0000000000000018  4.5 1.9999999999999982 
 0 2 2 2
1 2 0 0 1 
1 2 -1 -1 -0 
1 4.5000000000000018 2 -0 -1 
1 13 -0 0.088076061537445738 -0.99611375223116572 
1 0.17615212307489081 -1.9922275044623319 1 0 
1 6.5000000000000018 -2 -1 -0 
1 12.999999999999996 -0 0.088076061537445738 -0.99611375223116572 
1 6.4999999999999982 2 -1 -0 
1 -6.4999999999999982 -2 -0 1 
8 0 1.4468639954202633
1 2 0 0 1 
8 0 1.4468639954202633
1 0 0 0 1 
1 0 1.4468639954202633 1 0 
1 2.0000004483563156 -0.99999910328687136 -0.99999999999989964 -4.4835651534999998e-07 
1 1.9999995516432831 1.0000008967129261 4.4835651534000001e-07 -0.99999999999989952 
1 -1.9999995516432796 -1.0000008967129332 -4.4835651534000001e-07 0.99999999999989952 
1 -2.0000004483563121 0.99999910328686425 0.99999999999989964 4.4835651534999998e-07 
Curves 44
7 0 0  11 21 3  -12.999999999999993 12.999999999999996 0  -13.000000347307372 13.227272032659263 3.7127913278888101  -11.833591684838074 13.454546679875675 7.4255834935507945  -9.5007768605078731 13.681816384023241 10.731218825806096  -6.1614428804418848 13.909091973816945 13.222552539445614  -2.1353647386694052 14.136363281217291 14.564194319455344  2.1353649274784599 14.363635946857213 14.564201849661965  6.1614428069452902 14.590909253777767 13.222546769449751  9.5007764532208441 14.818181652771088 10.731221878528858  11.833592268647617 15.045454423296807 7.4255826225249528  14.166407848751884 15.499999890070567 -9.1092518700000004e-09  11.833592247875272 15.954545356847422 -7.4255826342146785  9.5007764544682747 16.181818127364949 -10.731221694633849  6.1614428557266478 16.409090526380893 -13.222547712336626  2.1353645790700986 16.636363833259448 -14.564199824243584  -2.1353638591032014 16.863636498956318 -14.564196933711694  -6.1614444662831378 17.090907806299334 -13.222550420660982  -9.5007750630077421 17.318183396132973 -10.731219815011221  -11.83359303905144 17.545453100268087 -7.4255832608585708  -12.999999767167633 17.772727747474175 -3.7127913119827136  -13.000000109924841 17.999999780150333 1.590379501e-08 
 0 12 3.1454041249645188 9 6.2908082499290376 12
1 -13 13 1.2999999999999999e-16 1 0 0 
7 0 0  11 21 3  -9.0000000000000018 13 1.7800000000000001e-15  -9.0000003473074113 13.22727342188926 2.5703940106844532  -8.1924863831862318 13.454544229203258 5.1407889093562922  -6.577461690336353 13.681819979641174 7.429303272062616  -4.2656117778376057 13.909089844318411 9.1540798294245445  -1.4783339565306663 14.136363991566141 10.08289721618471  1.4783337863378108 14.363636780365889 10.082914164429026  4.2656122161849916 14.590908928071894 9.1540683888074987  6.5774610162015934 14.818181983579541 7.4293081093295701  8.1924869667708204 15.045454667614578 5.1407879743912437  9.8075131415438186 15.500000109928608 8.2224187499999994e-09  8.1924869641682427 15.954545552242809 -5.1407879571250854  6.5774610437076459 16.181818236276747 -7.4293079021877961  4.2656122973156307 16.409091291789611 -9.1540693166195588  1.4783334735790619 16.636363439483045 -10.082912133777702  -1.4783330413451792 16.863636228301836 -10.082899835682023  -4.2656133313090283 17.090910375528701 -9.1540777256962027  -6.577459866587068 17.318180240226337 -7.4293042845328747  -8.192487719226909 17.545455990641788 -5.1407887056077346  -8.9999997580832574 17.772726797980567 -2.5703940265942751  -9.0000001099248657 18.000000219849657 -1.5903322569999999e-08 
 0 12 3.1454041249645188 9 6.2908082499290376 12
7 0 0  1 2 2  -13.000000109924841 17.999999780150333 1.590379501e-08  -9.0000001099248657 18.000000219849657 -1.5903322569999999e-08 
 0 2 4 2
7 0 0  11 21 3  -12.999999999999989 11.000000000000002 -3.5500000000000001e-15  -12.999999652692416 11.227272032659016 3.7127912964935419  -11.833592929900526 11.454546679876984 7.4255832125387791  -9.5007749695494077 11.681816384019633 10.731219735907889  -6.1614443979865658 11.909091973823477 13.22255031635938  -2.135363823247753 12.136363281209112 14.564196813203814  2.135364578845671 12.363635946864571 14.56419969844541  6.1614428197966458 12.590909253773107 13.222547593005977  9.5007763872591244 12.818181652773019 10.73122159225889  11.833592156894733 13.045454423296436 7.4255825569476324  14.166407728959951 13.499999890070846 -8.2244551699999997e-09  11.833592159497405 13.954545356847271 -7.4255825742097556  9.5007763597518 14.18181812736545 -10.731221799416282  6.1614427386708597 14.409090526379462 -13.222546665160056  2.1353648915943735 14.636363833262152 -14.564201729145886  -2.1353647384189918 14.863636498952806 -14.564194193659334  -6.1614428445297662 15.090907806302505 -13.222552420114804  -9.5007767932870859 15.31818339613106 -10.731218723433047  -11.833591593866617 15.5454531002688 -7.4255834162823744  -13.000000241913893 15.772727747474033 -3.7127912805876035  -12.999999890075182 15.999999780150347 1.590323545e-08 
 0 12 3.1454041249645188 9 6.2908082499290376 12
1 -13 11 1.6000000000000001e-16 0 1 1.0000000000000001e-17 
7 0 0  1 2 2  -12.999999890075186 15.999999780150347 1.59032319e-08  -13.000000109924841 17.999999780150333 1.5903793229999999e-08 
 0 2 2 2
1 -13 13 1.5e-16 1.3459325124000001e-07 -0.088076061537445738 -0.99611375223115672 
1 -9 12.999999999999998 1.2e-16 1.3459325124000001e-07 -0.088076061537445738 -0.99611375223115672 
1 -13 -13 0 1 0 0 
7 0 0  1 2 2  -8.9999999999999982 13.000000000000002 0  -9.0000000000000018 10.999999999999998 1.7800000000000001e-15 
 0 2 2 2
7 0 0  11 21 3  -9.0000000000000018 10.999999999999998 1.7800000000000001e-15  -8.999999652692372 11.227273421888754 2.570393979288637  -8.1924876282490491 11.454544229205556 5.1407886283465452  -6.5774597993770785 11.681819979635367 7.4293041821589565  -4.2656132953835195 11.909089844328188 9.154077606347494  -1.478333041107647 12.136363991554637 10.08289970992184  1.478333437703895 12.363636780375398 10.082912013222892  4.2656122290370142 12.590908928066561 9.1540692123567311  6.5774609502396331 12.81818198358134 7.4293078230628229  8.192486855017945 13.045454667614436 5.140787908813131  9.8075130217519924 13.500000109928427 9.1079291499999993e-09  8.192486875790161 13.95454555224333 -5.1407878971207905  6.57746094899219 14.181818236274209 -7.4293080069682045  4.2656121802575155 14.40909129179488 -9.1540682694469027  1.4783337861069072 14.636363439475964 -10.082914038674765  -1.4783339206650641 14.863636228308666 -10.082897095634763  -4.2656117095520507 15.09091037552383 -9.1540797251463975  -6.5774615968687966 15.318180240228962 -7.4293031929565752  -8.1924862740409985 15.54545599064074 -5.1407888610308747  -9.0000002328297928 15.772726797980823 -2.5703939951992996  -8.999999890075209 16.000000219849664 -1.5903880340000001e-08 
 0 12 3.1454041249645188 9 6.2908082499290376 12
7 0 0  1 2 2  -9.000000109924871 18.00000021984965 -1.5903324339999999e-08  -8.999999890075209 16.000000219849664 -1.5903880340000001e-08 
 0 2 2 2
7 0 0  11 21 3  -13.000000109924827 17.999999780150336 1.5903834689999998e-08  -13.000000452695442 18.227271812798822 3.7127913751877846  -11.833591775814336 18.454546460027608 7.4255835708199971  -9.5007769277194747 18.681816164164708 10.731218928167863  -6.1614429163645923 18.909091753968145 13.222552658796459  -2.1353647389097699 19.136363061355638 14.564194445218183  2.1353649633547924 19.363635727012838 14.564201970205144  6.1614428752201622 19.590909033915551 13.222546873719811  9.5007765466885328 19.818181432921662 10.731221957648261  11.83359237779554 20.045454203441491 7.4255826708379686  14.166407968542121 20.499999670218081 -2.6440567830000001e-08  11.833592338854615 20.954545136991946 -7.4255827114815807  9.50077652167775 21.181817907516063 -10.731221797000183  6.1614428916503332 21.409090306517104 -13.222547831683617  2.1353645793101093 21.636363613418894 -14.564199950007444  -2.1353638949791649 21.86363627908942 -14.564197054254219  -6.1614445345593589 22.090907586454541 -13.222550524935066  -9.5007751564751004 22.318183176271724 -10.731219894124527  -11.833593148196574 22.54545288042344 -7.4255833091759209  -12.99999988164179 22.772727527609682 -3.7127913274720741  -13.000000219848291 22.999999560303344 3.1807402329999997e-08 
 0 12 3.1454041249645188 9 6.2908082499290376 12
7 0 0  11 21 3  -9.0000001099248479 18.00000021984965 -1.5903284020000001e-08  -9.0000004617794698 18.227273641750163 2.5703940261761349  -8.1924864923316587 18.454544449051046 5.1407889576715702  -6.5774617838027769 18.68182019949748 7.4293033511788966  -4.2656118461146582 18.909090064174343 9.1540799337007304  -1.4783339924021803 19.136364211414865 10.082897336721675  1.478333786575857 19.363637000226198 10.082914290198067  4.2656122521109978 19.590909147920563 9.1540685081523758  6.5774610834114604 19.818182203436248 7.4293082116948801  8.1924870577508013 20.045454887467965 5.1407880516578004  9.8075132613339289 20.500000329782555 2.555236329e-08  8.1924870733159665 20.954545772097248 -5.1407880054385373  6.5774611371743079 21.181818456127271 -7.4293079813084466  4.2656123655883587 21.40909151165237 -9.1540694208904902  1.4783335094589907 21.636363659322544 -10.082912254319494  -1.4783330415934157 21.863636448172024 -10.082899961445255  -4.2656133672270453 22.090910595368509 -9.154077845049013  -6.5774599338025652 22.318180460092798 -7.4293043868912534  -8.1924878102017473 22.545456210482577 -5.1407887828768404  -8.9999998634737164 22.772727017846609 -2.5703940738933828  -9.0000002198483866 23.000000439696617 -3.1805741500000002e-08 
 0 12 3.1454041249645188 9 6.2908082499290376 12
7 0 0  1 2 2  -13.000000219848291 22.999999560303344 3.1807402329999997e-08  -9.0000002198483866 23.000000439696617 -3.1805741500000002e-08 
 0 2 4 2
1 -9 11 1.4000000000000001e-16 -1 -0 -0 
7 0 0  1 2 2  -8.9999998900752107 16.000000219849664 -1.5903880340000001e-08  -12.999999890075182 15.999999780150347 1.590323545e-08 
 0 2 4 2
1 -13 0 1.5e-16 1.3459325124000001e-07 -0.088076061537445738 -0.99611375223115672 
1 -13 -13 0 0 1 0 
7 0 0  11 21 3  -12.999999890075166 15.999999780150352 1.590327514e-08  -12.999999538219845 16.227271812798961 3.7127912810019188  -11.833592820756129 16.454546460027419 7.4255831642233181  -9.5007748760822803 16.681816164164893 10.731219656791914  -6.1614443297091244 16.909091753967843 13.222550212082442  -2.1353637873776967 17.136363061356903 14.564196692668114  2.1353645786094173 17.363635727010472 14.564199572674825  6.1614427838690302 17.590909033918194 13.222547473662429  9.5007763200502158 17.81818143291995 10.731221489892762  11.83359206591444 18.045454203442233 7.4255824796813235  14.166407609170147 18.499999670217068 -2.5554674429999999e-08  11.833592050349289 18.95454513699336 -7.4255825258960648  9.5007762662872253 19.181817907510258 -10.731221720294661  6.1614426703909118 19.409090306529645 -13.222546560895116  2.1353648557290259 19.636363613400274 -14.564201608591958  -2.1353647381895837 19.863636279110366 -14.564194067908872  -6.1614428085978146 20.0909075864367 -13.222552300755163  -9.5007767260770581 20.318183176283107 -10.731218621075907  -11.833591502891728 20.545452880418416 -7.425583339013599  -13.000000136523163 20.772727527610996 -3.712791233288538  -12.999999780151647 20.999999560303394 3.1805490969999999e-08 
 0 12 3.1454041249645188 9 6.2908082499290376 12
7 0 0  1 2 2  -12.999999780151651 20.999999560303387 3.1805496289999999e-08  -13.000000219848285 22.999999560303344 3.1807400550000003e-08 
 0 2 2 2
1 -9 0 1.2e-16 1.3459325124000001e-07 -0.088076061537445738 -0.99611375223115672 
1 -9 -12.999999999999996 0 0 1 0 
1 -13 0 0 1 0 0 
7 0 0  11 21 3  -8.9999998900751894 16.000000219849657 -1.590383825e-08  -8.9999995473039718 16.227273641750543 2.5703939319901687  -8.192487537273097 16.454544449049923 5.1407885510752678  -6.577459732166286 16.681820199499992 7.4293040798021348  -4.2656132594580818 16.909090064170147 9.1540774869879744  -1.478333040871602 17.136364211420752 10.082899584170038  1.4783334018320955 17.363637000219807 10.082911892669349  4.265612160758586 17.590909147925803 9.1540691080937453  6.5774608567738051 17.818182203433427 7.4293077439400852  8.1924867458695392 18.045454887468754 5.140787860500919  9.8075129019620775 18.500000329782068 2.6438558299999999e-08  8.1924867848105567 18.954545772097525 -5.1407878198533812  6.5774608817838658 19.181818456127242 -7.4293079046015116  4.2656121443289159 19.409091511651607 -9.1540681501048464  1.4783337858780368 19.636363659324665 -10.082913912900096  -1.4783338848042717 19.863636448169288 -10.082896975103894  -4.2656116412648517 20.090910595370747 -9.1540796208660602  -6.5774615034050754 20.318180460091725 -7.429303113844381  -8.1924861648966214 20.545456210482925 -5.1407888127138097  -9.0000001183551763 20.772727017846591 -2.5703939797100097  -8.9999997801517484 21.000000439696667 -3.1807649310000003e-08 
 0 12 3.1454041249645188 9 6.2908082499290376 12
7 0 0  1 2 2  -9.0000002198483884 23.00000043969662 -3.1805736180000003e-08  -8.9999997801517484 21.000000439696667 -3.1807649310000003e-08 
 0 2 2 2
7 0 0  11 21 3  -13.000000219848287 22.99999956030334 3.1807497080000003e-08  -13.000000558094245 23.227271592920005 3.7127914224908345  -11.833591866786273 23.454546240174579 7.4255836480936059  -9.5007769949343057 23.681815944313303 10.731219030527745  -6.1614429522920329 23.909091534084883 13.222552778159091  -2.1353647391407273 24.136362841521137 14.564194570978323  2.1353649992244046 24.363635507129121 14.56420209075624  6.1614429435040634 24.59090881406982 13.222546977990671  9.5007766401569551 24.818181213053915 10.731222036770244  11.833592486947969 25.045453983582163 7.4255827191515742  14.166408088335597 25.499999450356121 -4.3772971769999997e-08  11.833592429836704 25.954544917131848 -7.4255827887520338  9.5007765888877582 26.181817687652586 -10.731221899370251  6.1614429275770828 26.40909008666215 -13.222547951030666  2.1353645795428804 26.636363393548109 -14.56420007578601  -2.1353639308479018 26.863636059242875 -14.564197174785882  -6.1614446028444423 27.090907366578154 -13.222550629224846  -9.5007752499475568 27.318182956417136 -10.73121997323079  -11.833593257337546 27.545452660575155 -7.425583357498339  -12.99999999612934 27.77272730772345 -3.712791342960057  -13.000000329768811 27.999999340462168 4.7712386320000003e-08 
 0 12 3.1454041249645188 9 6.2908082499290376 12
7 0 0  11 21 3  -9.0000002198483902 23.00000043969661 -3.1805642560000003e-08  -9.0000005762623836 23.227273861634611 2.5703940416667526  -8.1924866014746947 23.45454466888603 5.14078900599318  -6.5774618772715439 23.681820419384245 7.4293034302945049  -4.2656119143979181 23.909090284004982 9.1540800379802398  -1.4783340282682793 24.136364431309929 10.082897457266885  1.4783337868108608 24.363637220056187 10.08291441596576  4.265612288040515 24.590909367801363 9.1540686275040066  6.5774611506234839 24.818182423288487 7.4293083140617764  8.1924871487341857 25.045455107330451 5.1407881289261477  9.8075133811276825 25.500000549642522 4.2882522229999999e-08  8.1924871824669463 25.95454599195801 -5.1407880537549762  6.5774612306417017 26.181818675990435 -7.4293080604293094  4.2656124338690375 26.409091731507733 -9.154069525168417  1.478333545324976 26.636363879190338 -10.082912374863307  -1.4783330418232574 26.8636366680268 -10.082900087212263  -4.2656134031605513 27.090910815230657 -9.1540779644070156  -6.5774600010186024 27.318180679963536 -7.4293044892490085  -8.1924879011726759 27.545456430318591 -5.140788860150006  -8.9999999688772885 27.772727237737904 -2.5703941211935146  -9.0000003297690281 28.000000659537719 -4.7706760669999999e-08 
 0 12 3.1454041249645188 9 6.2908082499290376 12
7 0 0  1 2 2  -13.000000329768811 27.999999340462168 4.7712386320000003e-08  -9.0000003297690281 28.000000659537719 -4.7706760669999999e-08 
 0 2 4 2
7 0 0  1 2 2  -8.9999997801517466 21.000000439696667 -3.180764576e-08  -12.999999780151647 20.999999560303394 3.1805490969999999e-08 
 0 2 4 2
7 0 0  11 21 3  -12.999999780151651 20.999999560303383 3.1805592829999997e-08  -12.999999423737593 21.22727159292004 3.7127912655113975  -11.833592711612074 21.454546240175294 7.425583115901131  -9.5007747826138278 21.681815944311406 10.731219577677358  -6.1614442614272287 21.90909153408818 13.222550107801554  -2.135363751509006 22.136362841518199 14.564196572123764  2.1353645783716182 22.363635507130486 14.564199446906999  6.1614427479415728 22.590908814070239 13.222547354310425  9.5007762528371682 22.818181213053229 10.731221387526256  11.833591974931267 23.045453983582604 7.4255824024127444  14.166407489376258 23.499999450355798 -4.288444745e-08  11.833591941198437 23.954544917132317 -7.4255824775801589  9.5007761728196147 24.181817687651741 -10.731221641172304  6.1614426021107374 24.409090086662708 -13.222546456618403  2.1353648198615129 24.636363393549654 -14.564201488048226  -2.1353647379569218 24.863636059239273 -14.564193942141733  -6.1614427726656711 25.090907366582556 -13.222552181395841  -9.5007766588618008 25.31818295641407 -10.731218518719514  -11.833591411919672 25.545452660576704 -7.4255832617396651  -13.000000031120159 25.77272730772313 -3.7127911859883289  -12.999999670231038 25.999999340462285 4.7706678889999999e-08 
 0 12 3.1454041249645188 9 6.2908082499290376 12
7 0 0  1 2 2  -12.999999670231034 25.999999340462285 4.7706675329999997e-08  -13.000000329768806 27.999999340462168 4.7712388099999997e-08 
 0 2 2 2
7 0 0  11 21 3  -8.9999997801517484 21.000000439696667 -3.1807552149999998e-08  -8.999999441905782 21.22727386163433 2.5703938846870167  -8.1924874463003139 21.454544668888008 5.1407884738019609  -6.577459664951415 21.681820419379171 7.429303977440977  -4.2656132235327107 21.909090284013928 9.1540773676282114  -1.4783330406368356 22.13636443129964 10.082899458405189  1.4783333659581603 22.363637220064483 10.082911772123442  4.2656120924780243 22.590909367797149 9.1540690038189094  6.5774607633037023 22.818182423289858 7.4293076648199969  8.1924866367174918 23.045455107330394 5.140787812186888  9.8075127821682901 23.500000549642692 4.3771220970000002e-08  8.1924866938287799 23.954545991958074 -5.1407877425830275  6.5774608145732243 24.181818675990485 -7.4293078022323193  4.2656121084030429 24.40909173150752 -9.1540680307536064  1.4783337856438725 24.636363879191535 -10.082913787129687  -1.478333848933552 24.86363666802481 -10.082896854563295  -4.265611572979898 25.090910815233212 -9.154079516582101  -6.5774614099345117 25.318180679961575 -7.429303034735204  -8.1924860557538768 25.545456430319749 -5.1407887643924042  -9.0000000038683812 25.772727237737676 -2.570393964221521  -8.9999996702312561 26.000000659537832 -4.771246633e-08 
 0 12 3.1454041249645188 9 6.2908082499290376 12
7 0 0  1 2 2  -9.0000003297690316 28.000000659537722 -4.7706758900000003e-08  -8.9999996702312561 26.000000659537832 -4.771246633e-08 
 0 2 2 2
7 0 0  8 9 2  -13.00000032976879 27.999999340462171 4.7712406470000002e-08  -13.000000663501364 28.143746479760448 2.3483053638218871  -12.515205096514871 28.287495836507837 4.6966092170254079  -11.545619962044162 28.431241908057419 6.9281516381485186  -10.124974854287126 28.574990517874856 8.9261699798373293  -8.3208027421956299 28.718739127702705 10.5860687005295  -6.2284047925914114 28.862485199252703 11.827742534524027  -3.9593959140231823 29.006234555990083 12.603083932512183  -1.6296141671596076 29.149981695298472 12.897455924462655 
 0 9 1.4468639954202633 9
7 0 0  8 9 2  -9.000000329769005 28.000000659537719 -4.7706738119999999e-08  -9.0000006807384754 28.143749168242234 1.6257493258456679  -8.6643728710233656 28.287495459497286 3.2515009796114063  -7.9931204624880037 28.431245035952887 4.7964086535377453  -7.0096015191323042 28.574992074133721 6.1796593292166619  -5.7605518668511202 28.718739112314474 7.3288158239354244  -4.3119750032126021 28.862488688762809 8.1884371737299446  -2.7411199016403951 29.006234980030669 8.7252120099525854  -1.1281945496208419 29.149983488724533 8.9290080708120509 
 0 9 1.4468639954202633 9
7 0 0  1 2 2  -1.6296141671596076 29.149981695298472 12.897455924462655  -1.1281945496208419 29.149983488724533 8.9290080708120509 
 0 2 4 2
7 0 0  1 2 2  -8.9999996702312579 26.000000659537832 -4.771246633e-08  -12.999999670231038 25.999999340462285 4.7706678889999999e-08 
 0 2 4 2
7 0 0  8 9 2  -12.999999670231013 25.999999340462274 4.7706695480000002e-08  -12.999999319261539 26.143746479760711 2.348305223256054  -12.515205318462426 26.287495836508231 4.6966087945471573  -11.545618309092388 26.431241908056379 6.9281516267907604  -10.124974885378077 26.574990517877129 8.9261687228495603  -8.3208019645738176 26.718739127700676 10.586069071740939  -6.2284044383002648 26.862485199254209 11.827740845451029  -3.9593957479997037 27.006234555989767 12.603083739782464  -1.6296140547580085 27.149981695298667 12.897455034822196 
 0 9 1.4468639954202633 9
7 0 0  1 2 2  -1.6296140547580085 27.149981695298667 12.897455034822197  -1.6296141671596058 29.149981695298472 12.897455924462653 
 0 2 2 2
7 0 0  8 9 2  -8.9999996702312366 26.000000659537829 -4.7712445550000003e-08  -8.9999993364986768 26.143749168242575 1.6257491852798036  -8.6643730929708092 26.287495459497404 3.2515005571332818  -7.9931188095364964 26.431245035952486 4.7964086421797134  -7.0096015502228797 26.574992074135015 6.1796580722292713  -5.7605510892296579 26.71873911231344 7.3288161951465307  -4.3119746489212636 26.862488688763719 8.1884354846571163  -2.7411197356169743 27.006234980030531 8.7252118172228261  -1.1281944372192445 27.149983488724736 8.9290071811715954 
 0 9 1.4468639954202633 9
1 -1.1281945496208423 29.149983488724533 8.9290080708120527 5.6200798649999998e-08 -0.99999999999989952 -4.4482022783000003e-07 
1 -1.1281944372192449 27.149983488724736 8.9290071811715954 -0.12535490438469116 -4.4835651534999998e-07 0.9921119634126504 
Polygon3D 0
PolygonOnTriangulations 0
Surfaces 25
9 0 0 0 0 1 11 2 21 2 3 -12.999999999999993 12.999999999999996 0  -13.000000347307372 13.227272032659263 3.7127913278888101  -11.833591684838074 13.454546679875675 7.4255834935507945  -9.5007768605078731 13.681816384023241 10.731218825806096  -6.1614428804418848 13.909091973816945 13.222552539445614  -2.1353647386694052 14.136363281217291 14.564194319455344  2.1353649274784599 14.363635946857213 14.564201849661965  6.1614428069452902 14.590909253777767 13.222546769449751  9.5007764532208441 14.818181652771088 10.731221878528858  11.833592268647617 15.045454423296807 7.4255826225249528  14.166407848751884 15.499999890070567 -9.1092518700000004e-09  11.833592247875272 15.954545356847422 -7.4255826342146785  9.5007764544682747 16.181818127364949 -10.731221694633849  6.1614428557266478 16.409090526380893 -13.222547712336626  2.1353645790700986 16.636363833259448 -14.564199824243584  -2.1353638591032014 16.863636498956318 -14.564196933711694  -6.1614444662831378 17.090907806299334 -13.222550420660982  -9.5007750630077421 17.318183396132973 -10.731219815011221  -11.83359303905144 17.545453100268087 -7.4255832608585708  -12.999999767167633 17.772727747474175 -3.7127913119827136  -13.000000109924841 17.999999780150333 1.590379501e-08  
-9.0000000000000018 13 1.7800000000000001e-15  -9.0000003473074113 13.22727342188926 2.5703940106844532  -8.1924863831862318 13.454544229203258 5.1407889093562922  -6.577461690336353 13.681819979641174 7.429303272062616  -4.2656117778376057 13.909089844318411 9.1540798294245445  -1.4783339565306663 14.136363991566141 10.08289721618471  1.4783337863378108 14.363636780365889 10.082914164429026  4.2656122161849916 14.590908928071894 9.1540683888074987  6.5774610162015934 14.818181983579541 7.4293081093295701  8.1924869667708204 15.045454667614578 5.1407879743912437  9.8075131415438186 15.500000109928608 8.2224187499999994e-09  8.1924869641682427 15.954545552242809 -5.1407879571250854  6.5774610437076459 16.181818236276747 -7.4293079021877961  4.2656122973156307 16.409091291789611 -9.1540693166195588  1.4783334735790619 16.636363439483045 -10.082912133777702  -1.4783330413451792 16.863636228301836 -10.082899835682023  -4.2656133313090283 17.090910375528701 -9.1540777256962027  -6.577459866587068 17.318180240226337 -7.4293042845328747  -8.192487719226909 17.545455990641788 -5.1407887056077346  -8.9999997580832574 17.772726797980567 -2.5703940265942751  -9.0000001099248657 18.000000219849657 -1.5903322569999999e-08  

0 2
4 2

0 12
3.1454041249645188 9
6.2908082499290376 12

9 0 0 0 0 1 11 2 21 2 3 -12.999999999999998 11.000000000000002 0  -12.999999652692471 11.227272032659071 3.7127912964934437  -11.833592929900329 11.454546679876739 7.4255832125392018  -9.5007749695498322 11.681816384020232 10.731219735906828  -6.1614443979857931 11.909091973822513 13.222550316361234  -2.1353638232489467 12.136363281210182 14.564196813201479  2.1353645788471014 12.363635946863736 14.564199698447522  6.1614428197954201 12.590909253773514 13.22254759300457  9.500776387259803 12.818181652772877 10.731221592259564  11.833592156894557 13.045454423296507 7.4255825569474085  14.166407728960111 13.499999890070663 -8.2241484699999996e-09  11.833592159497273 13.954545356847563 -7.4255825742101367  9.5007763597521961 14.181818127363915 -10.731221799414753  6.1614427386701305 14.40909052638313 -13.222546665163195  2.1353648915953052 14.636363833256391 -14.564201729141521  -2.1353647384198999 14.863636498959266 -14.564194193663836  -6.1614428445290637 15.090907806297123 -13.222552420111302  -9.5007767932875193 15.318183396134376 -10.731218723435067  -11.833591593866419 15.545453100267382 -7.4255834162815653  -13.000000241913941 15.772727747474381 -3.712791280587795  -12.999999890075186 15.999999780150347 1.59032319e-08  
-12.999999999999998 12.999999999999996 1.7800000000000001e-15  -13.00000034730739 13.22727203265908 3.7127913278890903  -11.833591684838021 13.454546679876469 7.425583493549631  -9.5007768605079512 13.681816384021239 10.731218825808904  -6.1614428804416894 13.909091973820518 13.222552539440828  -2.1353647386698582 14.136363281212526 14.56419431946142  2.1353649274791637 14.363635946861974 14.564201849656135  6.1614428069445726 14.590909253774369 13.22254676945389  9.5007764532213095 14.818181652772676 10.73122187852686  11.833592268647456 15.045454423296459 7.4255826225254458  14.166407848752064 15.499999890070805 -9.1096653999999994e-09  11.833592247875078 15.954545356847294 -7.4255826342143436  9.5007764544689461 16.181818127365052 -10.731221694634979  6.1614428557254799 16.409090526381078 -13.222547712334173  2.1353645790714939 16.636363833258663 -14.564199824247344  -2.1353638591044306 16.8636364989577 -14.564196933707512  -6.1614444662823198 17.090907806297828 -13.222550420664358  -9.5007750630081649 17.31818339613411 -10.731219815009259  -11.833593039051269 17.545453100267498 -7.4255832608593453  -12.999999767167681 17.772727747474342 -3.7127913119825435  -13.000000109924841 17.999999780150333 1.5903793229999999e-08  

0 2
2 2

0 12
3.1454041249645188 9
6.2908082499290376 12

9 0 0 0 0 2 11 5 41 4 5 -13.000005228648424 3.5723080083577532 -6.9869218031649902  -13.000004753316738 3.6111891199672623 -6.3517470509779033  -13.000004277985083 3.650070231282001 -5.7165723073525578  -13.00000380265338 3.6889513423019533 -5.0813975722888838  -13.000003327321693 3.7278324530271334 -4.4462228457868713  -13.000002851990034 3.7667135634575351 -3.8110481278465338  -13.000002376658294 3.8055946735931672 -3.1758734184678956  -13.000001901326637 3.84447578343402 -2.5406987176509417  -13.000001425995006 3.883356892980097 -1.9055240253956922  -13.000000950663344 3.9222380022313965 -1.2703493417021094  -13.000000475331715 3.9611191111879185 -0.63517466657021426  -12.999997221540333 4.2272722525091622 3.712791186608686  -11.833597287618268 4.4545468997278324 7.4255822290027309  -9.5007683511966174 4.6818166038737532 10.731222921249463  -6.161449709389986 4.9090921936785197 13.2225425355829  -2.1353606192758572 5.1363635010660236 14.564205541291411  2.1353633586349199 5.3636361667175603 14.564192169217616  6.1614428647733845 5.5909094736237757 13.222550475431854  9.5007761563945436 5.8181818726226204 10.731220590324053  11.833591765759431 6.04545464314619 7.4255823274242854  14.166407309688291 6.5000001099203439 -5.1248392999999996e-09  11.83359185017496 6.9545455766972406 -7.4255823641954217  9.5007760282435818 7.1818183472135999 -10.731222166143958  6.1614423289764169 7.4090907462337698 -13.222543000064883  2.1353659854286104 7.6363640531093191 -14.56420839627093  -2.1353678160239458 7.8636367188161804 -14.56418460351127  -6.1614371683928457 8.0909080261525901 -13.222559418175386  -9.5007828492650699 8.3181836159877065 -10.731214902925519  -11.833586535719602 8.5454533201188987 -7.4255839602593214  -13.000001903525794 8.7727279673242471 -3.71279117070618  -12.999998644505924 9.0388811098112285 0.63517470120034425  -12.999998168410464 9.0777622196879548 1.270349391315299  -12.999997692314981 9.1166433296301896 1.9055240862461331  -12.999997216219507 9.1555244396379756 2.5406987859928525  -12.999996740124002 9.1944055497112931 3.1758734905554484  -12.999996264028519 9.2332866598501511 3.8110481999339343  -12.999995787933003 9.2721677700545371 4.446222914128283  -12.999995311837527 9.3110488803244511 5.081397633138514  -12.999994835742024 9.3499299906599003 5.7165723569646198  -12.999994359646534 9.3888111010608934 6.3517470856066236  -12.999993883551044 9.42769221152742 6.986921819064511  
-13.000002941114806 7.0723078984321717 -6.9869218035510627  -13.000002673740724 7.1111890111883636 -6.3517470606931905  -13.000002406366663 7.1500701235351576 -5.7165723245241731  -13.000002138992572 7.188951235472457 -5.0813975950439731  -13.000001871618492 7.2278323470003274 -4.4462228722525863  -13.000001604244428 7.2667134581187351 -3.8110481561500196  -13.000001336870319 7.3055945688277344 -3.175873446736285  -13.000001069496257 7.3444756791272692 -2.5406987440113751  -13.000000802122207 7.3833567890173777 -1.9055240479753013  -13.000000534748141 7.4222378984980173 -1.2703493586280423  -13.000000267374094 7.4611190075692102 -0.63517467596960953  -12.999998437116405 7.7272721488900187 3.7127912415510651  -11.833595108759294 7.9545467961081773 7.4255827207709668  -9.5007716603732302 8.1818165002494396 10.731221328578142  -6.1614470536878851 8.4090920900569728 13.222546425972073  -2.1353622212624046 8.6363633974370444 14.564201177246437  2.1353639687410118 8.8636360630977862 14.564195933832575  6.1614428422844023 9.0909093700029882 13.222549034218209  9.5007762718271742 9.3181817690041981 10.731221091291809  11.833591961326995 9.5454545395275545 7.4255824421858474  14.166407519324201 10.000000006301381 -6.6744938900000003e-09  11.833592004836117 10.454545473078994 -7.4255824692027792  9.5007761939978899 10.681818243592891 -10.731221982779354  6.1614425338232746 10.909090642617684 -13.222544832614043  2.1353654385119567 11.136363949483385 -14.56420506270622  -2.13536627722192 11.363636615192974 -14.564189398587562  -6.1614400064609596 11.590907922526853 -13.222555919143339  -9.5007798212762893 11.818183512365803 -10.731216813180296  -11.833589064793015 12.045453216498142 -7.4255836882704429  -13.000001072719865 12.272727863705409 -3.7127912256469875  -12.999999237194725 12.538881006192428 0.63517471060062547  -12.999998969051164 12.57776211618374 1.2703494082420377  -12.999998700907593 12.616643226355123 1.9055241088264874  -12.999998432764027 12.655524336706716 2.5406988123539778  -12.999998164620441 12.694405447238434 3.1758735188245044  -12.999997896476872 12.733286557950327 3.8110482282380742  -12.999997628333281 12.772167668842346 4.446222940594672  -12.999997360189713 12.811048779914517 5.0813976558943095  -12.999997092046131 12.849929891166829 5.7165723741369812  -12.999996823902556 12.888811002599319 6.3517470953227004  -12.99999655575898 12.927692114211963 6.9869218194514602  
-13.00000000000013 11.572307790308129 -6.9869218040474417  -13.000000000000115 11.611188901590348 -6.3517470731842742  -13.000000000000107 11.650070012610515 -5.7165723466019642  -13.000000000000092 11.688951123368637 -5.0813976243005179  -13.00000000000008 11.727832233864717 -4.4462229062799343  -13.000000000000068 11.766713344098752 -3.8110481925402153  -13.000000000000059 11.805594454070741 -3.1758734830813569  -13.00000000000005 11.844475563780684 -2.5406987779033616  -13.000000000000036 11.883356673228578 -1.9055240770062272  -13.000000000000021 11.922237782414429 -1.2703493803899559  -13.000000000000011 11.961118891338236 -0.63517468805454624  -12.999999999999931 12.227272032659076 3.7127913121912668  -11.833592307369175 12.454546679876604 7.4255833530444164  -9.5007759150288926 12.681816384020735 10.731219280857866  -6.1614436392137417 12.909091973821514 13.222551427901031  -2.1353642809594024 13.136363281211354 14.564195566331449  2.1353647531631328 13.363635946862855 14.564200774051828  6.1614428133699963 13.59090925377394 13.222547181229231  9.5007764202405554 13.818181652772775 10.731221735393213  11.833592212771006 14.045454423296484 7.4255825897364272  14.166407788856088 14.499999890070734 -8.6669069400000002e-09  11.833592203686177 14.954545356847429 -7.4255826042122397  9.5007764071105711 15.181818127364483 -10.731221747024865  6.1614427971978056 15.409090526382105 -13.222547188748685  2.1353647353333995 15.636363833257526 -14.564200776694433  -2.1353642987621653 15.863636498958483 -14.564195563685674  -6.1614436554056917 16.090907806297476 -13.22255142038783  -9.5007759281478421 16.318183396134245 -10.731219269222162  -11.833592316458844 16.545453100267441 -7.4255833385704548  -13.000000004540812 16.772727747474363 -3.712791296285169  -12.999999999223185 17.038880889961462 0.63517472268670128  -12.999999998446356 17.07776199980534 1.2703494300049876  -12.99999999766953 17.116643109681966 1.9055241378583716  -12.999999996892701 17.155524219591353 2.5406988462468534  -12.99999999611587 17.194405329533495 3.1758735551704338  -12.999999995339046 17.233286439508394 3.8110482646291115  -12.999999994562216 17.272167549516048 4.4462229746228878  -12.999999993785387 17.311048659556452 5.081397685151761  -12.999999993008558 17.349929769629611 5.7165723962157315  -12.999999992231729 17.38881087973553 6.3517471078147993  -12.999999991454899 17.427691989874202 6.9869218199489662  
-12.999997058885508 16.072307688483026 -6.9869218045430719  -12.999997326259553 16.111188798291241 -6.3517470856747273  -12.999997593633607 16.150069907984825 -5.7165723686792722  -12.99999786100765 16.188951017563756 -5.0813976535567003  -12.999998128381696 16.227832127028041 -4.4462229403070106  -12.999998395755741 16.266713236377669 -3.8110482289302108  -12.999998663129789 16.305594345612668 -3.1758735194262941  -12.999998930503834 16.344475454733018 -2.5406988117952642  -12.999999197877877 16.383356563738722 -1.9055241060371189  -12.999999465251914 16.42223767262978 -1.2703494021518593  -12.999999732625957 16.461118781406192 -0.63517470013948463  -13.00000156288346 16.72727192272707 3.7127913828314707  -11.833589505979052 16.954546569943972 7.4255839853178669  -9.5007801696845515 17.181816274090981 10.731217233137587  -6.1614402247395894 17.409091863885006 13.222556429829996  -2.135366340656403 17.636363171284607 14.564189955416454  2.1353655375852529 17.863635836926868 14.564205614271087  6.1614427844555903 18.090909143843842 13.222545328240242  9.5007765686539454 18.318181542840303 10.731222379494609  11.833592464215025 18.545454313364345 7.4255827372870069  14.166408058387974 18.999999780139028 -1.0659319989999999e-08  11.833592402536228 19.454545246914797 -7.4255827392217038  9.5007766202232542 19.681818017435017 -10.731221511270382  6.1614430605723332 19.909090416445459 -13.222549544883323  2.1353640321548415 20.136363723330618 -14.56419649068264  -2.1353623203024075 20.363636389022933 -14.564201728783795  -6.1614473043504292 20.590907696367033 -13.222546921632317  -9.5007720350193896 20.818183286201613 -10.731221725264041  -11.833595568124677 21.045452990335672 -7.4255829888704703  -12.999998936361749 21.272727637542243 -3.7127913669233528  -13.000000761251647 21.538880780029423 0.63517473477277764  -13.000001027841556 21.577761889725863 1.2703494517679366  -13.00000129443146 21.61664299930775 1.9055241668902547  -13.000001561021385 21.655524108774934 2.540698880139729  -13.0000018276113 21.694405218127482 3.1758735915163632  -13.00000209420123 21.733286327365402 3.8110483010201488  -13.000002360791147 21.772167436488708 4.4462230086510992  -13.000002627381072 21.811048545497329 5.0813977144092126  -13.00000289397099 21.849929654391318 5.7165724182944819  -13.000003160560906 21.888810763170667 6.3517471203068983  -13.000003427150832 21.927691871835382 6.9869218204464678  
-12.999994771352011 19.572307584871741 -6.9869218049277615  -12.999995246683651 19.611188693533425 -6.3517470953888733  -12.999995722015285 19.650069802195112 -5.7165723858499851  -12.999996197346922 19.688950910856803 -5.0813976763110995  -12.999996672678556 19.727832019518491 -4.4462229667722113  -12.999997148010191 19.766713128180189 -3.8110482572333213  -12.999997623341828 19.805594236841884 -3.1758735476944326  -12.99999809867346 19.844475345503565 -2.540698838155544  -12.999998574005094 19.883356454165256 -1.9055241286166562  -12.999999049336731 19.922237562826947 -1.2703494190777684  -12.999999524668366 19.961118671488634 -0.63517470953888  -13.00000277845953 20.227271812808993 3.7127914377738511  -11.833587327120084 20.454546460025377 7.4255844770861028  -9.5007834788611518 20.681816164167717 10.731215640466269  -6.1614375690374894 20.90909175396451 13.222560320219165  -2.1353679426429477 21.136363061356686 14.564185591371489  2.1353661476913421 21.363635727008152 14.564209378886039  6.1614427619666081 21.590909033924106 13.222543887026594  9.5007766840865813 21.818181432922934 10.731222880462358  11.833592659782594 22.045454203446774 7.425582852048568  14.166408268023885 22.499999670221126 -1.2208974569999999e-08  11.833592557197377 22.954545136997616 -7.4255828442290639  9.5007767859775623 23.181817907515367 -10.731221327905786  6.1614432654191864 23.409090306530437 -13.222551377432474  2.1353634852381891 23.636363613405734 -14.564193157117936  -2.1353607815003843 23.863636279100781 -14.564206523860078  -6.1614501424185386 24.090907586442363 -13.222543422600275  -9.5007690070306143 24.31818317628078 -10.731223635518822  -11.833598097198085 24.545452880415979 -7.4255827168815953  -12.999998105555816 24.772727527624475 -3.712791421864162  -13.000001353940446 25.038880670111695 0.63517474417305919  -13.000001828482262 25.077761779922717 1.2703494686946746  -13.000002303024065 25.11664288973374 1.9055241894706081  -13.000002777565909 25.155523999544734 2.5406989065008543  -13.000003252107735 25.194405109355692 3.1758736197854192  -13.000003726649586 25.233286219166636 3.8110483293242887  -13.000004201191414 25.272167328977563 4.4462230351174856  -13.00000467573326 25.311048438788454 5.0813977371650081  -13.000005150275094 25.34992954859932 5.7165724354668432  -13.000005624816923 25.388810658410165 6.3517471300229751  -13.000006099358769 25.427691768220981 6.9869218208334134  

-6.9999997675380667 3
0 1
2 1
8.9999997801359513 3

-0.53810756271692728 12
0 10
3.1454041249645188 9
6.2908082499290376 10
6.8289158285128782 12

1 -11 12 1.4000000000000001e-16 1.0000000000000001e-17 -0 1 1 0 -1.0000000000000001e-17 0 1 0 
1 -11 -1.58e-15 6.4999999999999982 -1.0000000000000001e-17 1 2.2e-16 0 -2.2e-16 1 1 1.0000000000000001e-17 2.2000000000000001e-33 
9 0 0 0 0 1 11 2 21 2 3 -8.9999999999999982 13.000000000000002 0  -9.0000003473073491 13.227273421889345 2.5703940106843381  -8.192486383186468 13.454544229202938 5.14078890935677  -6.577461690335892 13.681819979641864 7.4293032720614303  -4.265611777838326 13.909089844317322 9.1540798294266352  -1.478333956529732 14.136363991567523 10.082897216181941  1.4783337863368167 14.363636780364493 10.082914164431784  4.2656122161857954 14.590908928072972 9.1540683888055359  6.5774610162011715 14.818181983578938 7.4293081093304876  8.1924869667709075 15.045454667614809 5.1407879743910287  9.8075131415438239 15.500000109928276 8.2225917200000005e-09  8.1924869641681681 15.954545552243248 -5.1407879571252231  6.5774610437080634 16.181818236274879 -7.4293079021874799  4.2656122973147781 16.409091291793388 -9.1540693166200313  1.4783334735802685 16.636363439478025 -10.082912133777167  -1.4783330413464857 16.863636228306543 -10.082899835682506  -4.2656133313079181 17.090910375525585 -9.1540777256958901  -6.5774598665878026 17.318180240227715 -7.4293042845330239  -8.1924877192265573 17.545455990641408 -5.1407887056076742  -8.9999997580833551 17.77272679798061 -2.5703940265942933  -9.000000109924871 18.00000021984965 -1.5903324339999999e-08  
-9.0000000000000018 10.999999999999998 1.7800000000000001e-15  -8.999999652692372 11.227273421888754 2.570393979288637  -8.1924876282490491 11.454544229205556 5.1407886283465452  -6.5774597993770785 11.681819979635367 7.4293041821589565  -4.2656132953835195 11.909089844328188 9.154077606347494  -1.478333041107647 12.136363991554637 10.08289970992184  1.478333437703895 12.363636780375398 10.082912013222892  4.2656122290370142 12.590908928066561 9.1540692123567311  6.5774609502396331 12.81818198358134 7.4293078230628229  8.192486855017945 13.045454667614436 5.140787908813131  9.8075130217519924 13.500000109928427 9.1079291499999993e-09  8.192486875790161 13.95454555224333 -5.1407878971207905  6.57746094899219 14.181818236274209 -7.4293080069682045  4.2656121802575155 14.40909129179488 -9.1540682694469027  1.4783337861069072 14.636363439475964 -10.082914038674765  -1.4783339206650641 14.863636228308666 -10.082897095634763  -4.2656117095520507 15.09091037552383 -9.1540797251463975  -6.5774615968687966 15.318180240228962 -7.4293031929565752  -8.1924862740409985 15.54545599064074 -5.1407888610308747  -9.0000002328297928 15.772726797980823 -2.5703939951992996  -8.999999890075209 16.000000219849664 -1.5903880340000001e-08  

0 2
2 2

0 12
3.1454041249645188 9
6.2908082499290376 12

9 0 0 0 0 2 11 5 41 4 5 -8.9999983848805556 15.735772015873486 -2.9883414761132907  -8.9999985317096147 15.759792761689518 -2.7166740741326638  -8.9999986785386419 15.783813507505551 -2.445006671164291  -8.9999988253676815 15.807834253321584 -2.1733392672081662  -8.9999989721967122 15.831854999137612 -1.9016718622642852  -8.9999991190257447 15.855875744953629 -1.6300044563326461  -8.9999992658547754 15.879896490769642 -1.358337049413253  -8.9999994126838239 15.90391723658565 -1.0866696415061092  -8.9999995595128688 15.927937982401662 -0.81500223261121274  -8.9999997063419279 15.951958728217669 -0.54333482272856415  -8.9999998531709657 15.975979474033673 -0.2716674118581599  -9.0000013892298885 16.227273641738829 2.5703940577778934  -8.1924845155924597 16.454544449051991 5.1407893308721384  -6.5774645267743201 16.681820199489877 7.4293019069150406  -4.2656095015203688 16.909090064164268 9.1540831640455949  -1.4783353296629598 17.136364211414541 10.082893475571819  1.4783343092862375 17.363637000212375 10.08291739124536  4.2656121969089655 17.590909147922382 9.1540671534786551  6.5774611151434863 17.81818220342857 7.429308538732017  8.1924871344003609 18.045454887464466 5.1407880727578839  9.8075133212315837 18.500000329777937 6.8945855000000001e-09  8.1924870967351904 18.954545772092906 -5.1407880471318768  6.5774611857818854 19.181818456124535 -7.4293077450163816  4.265612472900683 19.409091511642636 -9.1540708873798398  1.4783330047902759 19.636363659326292 -10.082909276430561  -1.4783317223685215 19.863636448153102 -10.082903945754424  -4.2656157639418977 20.090910595372762 -9.1540747265199087  -6.5774572711661214 20.318180460075808 -7.429305921897817  -8.1924898870050509 20.545456210490279 -5.1407884724728552  -8.9999990459636496 20.772727017830189 -2.5703940736867867  -9.0000005870046458 21.024021185513078 0.2716673959558365  -9.0000007343099195 21.048041931326871 0.54333480682641599  -9.0000008816151897 21.072062677140647 0.81500221670925121  -9.0000010289204582 21.096083422954429 1.0866696256043398  -9.000001176225723 21.120104168768197 1.3583370335116827  -9.0000013235309861 21.144124914581969 1.6300044404312777  -9.0000014708362475 21.168145660395737 1.9016718463631244  -9.000001618141523 21.192166406209495 2.1733392513072283  -9.0000017654467861 21.216187152023256 2.4450066552635876  -9.000001912752051 21.24020789783701 2.7166740582321975  -9.0000020600573212 21.264228643650757 2.9883414602130673  
-8.9999989905504183 14.235771905948775 -2.9883414759010125  -8.999999082318574 14.259792651328114 -2.716674071470301  -8.9999991740867102 14.283813396751146 -2.4450066665457184  -8.9999992658548535 14.307834142217851 -2.1733392611272593  -8.9999993576229915 14.33185488772822 -1.9016718552149221  -8.9999994493911313 14.35587563328224 -1.6300044488087053  -8.9999995411592693 14.379896378879934 -1.3583370419086114  -8.9999996329274161 14.403917124521293 -1.0866696345146425  -8.999999724695563 14.427937870206332 -0.81500222662679733  -8.9999998164637169 14.451958615935039 -0.54333481824507601  -8.9999999082318602 14.475979361707425 -0.27166740936947692  -9.0000008682686179 14.727273529413248 2.5703940342311156  -8.1924854493894657 14.954544336724432 5.1407891201144542  -6.5774631085551034 15.181820087170195 7.4293025894882367  -4.2656106396793492 15.40908995183263 9.1540814967361115  -1.4783346430963449 15.636364099100645 10.082895345876883  1.4783340478115266 15.863636887879773 10.08291577783857  4.2656122065473809 16.090909035601239 9.1540677711420972  6.5774610656723285 16.318182091100596 7.4293083240312523  8.1924870505856333 16.545454775138545 5.1407880235744559  9.8075132313877038 17.000000217451621 7.5585886099999994e-09  8.1924870304516801 17.454545659766644 -5.1407880021285504  6.577461114744974 17.681818343798838 -7.4293078236019312  4.2656123851077306 17.909091399315727 -9.1540701019999346  1.4783332391852726 18.136363547003029 -10.082910705103867  -1.4783323818575047 18.363636335828406 -10.08290189071846  -4.2656145476249057 18.590910483050358 -9.1540762261079021  -6.5774585688769642 18.818180347750239 -7.4293051032154196  -8.1924888031158023 19.045456098165367 -5.1407885890402651  -8.9999994020235032 19.272726905503909 -2.57039405014054  -9.0000003670579893 19.524021073186905 0.27166739346674995  -9.0000004593038625 19.548041818957074 0.5433348023425334  -9.0000005515497321 19.572062564683545 0.8150022107244449  -9.0000006437955982 19.596083310366371 1.0866696186124831  -9.000000736041466 19.620104056005502 1.3583370260066485  -9.0000008282873285 19.644124801600988 1.6300044329069396  -9.000000920533191 19.668145547152807 1.9016718393133563  -9.0000010127790624 19.692166292660943 2.1733392452259022  -9.0000011050249284 19.716187038125426 2.4450066506445758  -9.0000011972707927 19.740207783546225 2.7166740555693747  -9.0000012895166623 19.764228528923351 2.9883414600003042  
-9.0000000000001581 11.735771794423231 -2.9883414755472155  -9.0000000000001439 11.75979254053032 -2.7166740670330305  -9.0000000000001315 11.783813286608291 -2.4450066588480976  -9.000000000000119 11.807834032657153 -2.1733392509924148  -9.0000000000001048 11.831854778676901 -1.9016718434659843  -9.0000000000000906 11.855875524667541 -1.6300044362688046  -9.0000000000000764 11.879896270629063 -1.3583370294008761  -9.0000000000000568 11.903917016561474 -1.0866696228621986  -9.0000000000000426 11.927937762464778 -0.81500221665277195  -9.0000000000000266 11.951958508338965 -0.54333481077259616  -9.0000000000000124 11.97597925418404 -0.27166740522167215  -8.9999999999998614 12.227273421889048 2.5703939949864876  -8.1924870057177586 12.454544229204247 5.1407887688516576  -6.5774607448564852 12.681819979638615 7.4293037271101934  -4.2656125366109228 12.909089844322754 9.1540787178870637  -1.4783334988186896 13.13636399156108 10.08289846305189  1.4783336120203558 13.363636780369944 10.082913088827338  4.2656122226114048 13.590908928069766 9.1540688005811326  6.5774609832204023 13.818181983580139 7.4293079661966548  8.1924869108944272 14.045454667614623 5.1407879416020794  9.8075130816479081 14.500000109928351 8.66526043e-09  8.1924869199791637 14.954545552243289 -5.1407879271230073  6.5774609963501263 15.181818236274545 -7.4293079545778422  4.2656122387861473 15.409091291794134 -9.154068793033467  1.4783336298435878 15.636363439476995 -10.082913086225966  -1.4783334810057749 15.863636228307605 -10.082898465658634  -4.2656125204299844 16.090910375524707 -9.1540787254211438  -6.5774607317282996 16.318180240228337 -7.4293037387447995  -8.1924869966337788 16.545455990641074 -5.1407887833192749  -8.999999995456573 16.772726797980717 -2.5703940108967966  -9.0000000004802416 17.024020965663446 0.2716673893182725  -9.0000000009604477 17.04804171150635 0.54333479486939595  -9.000000001440652 17.072062457378365 0.81500220074976815  -9.0000000019208528 17.096083203279498 1.0866696069593891  -9.0000000024010589 17.120103949209739 1.3583370134982586  -9.0000000028812615 17.144124695169094 1.6300044203663766  -9.0000000033614622 17.168145441157559 1.9016718275637434  -9.000000003841663 17.192166187175136 2.1733392350903595  -9.0000000043218673 17.216186933221827 2.4450066429462236  -9.0000000048020716 17.240207679297633 2.7166740511313368  -9.0000000052822742 17.26422842540255 2.988341459645699  
-9.0000010094499299 9.2357716805073142 -2.9883414751931809  -9.0000009176817493 9.259792427342127 -2.7166740625955645  -9.0000008259135758 9.2838131740750516 -2.445006651150321  -9.0000007341453987 9.3078339207060719 -2.173339240857453  -9.0000006423772234 9.3318546672352056 -1.9016718317169592  -9.0000005506090499 9.3558754136624458 -1.6300044237288405  -9.0000004588408711 9.3798961599877959 -1.3583370168930962  -9.0000003670726976 9.4039169062112542 -1.0866696112097267  -9.0000002753045276 9.4279376523328171 -0.81500220667873258  -9.0000001835363506 9.4519583983524864 -0.54333480330011263  -9.0000000917681753 9.4759791442702674 -0.27166740107386733  -8.9999991317310997 9.7272733119744661 2.5703939557418596  -8.1924885620460532 9.9545441192936757 5.140788417588861  -6.5774583811578644 10.181819869716652 7.4293048647321509  -4.2656144335424981 10.409089734422494 9.1540759390380178  -1.4783323545410327 10.636363881631128 10.082901580226901  1.4783331762291847 10.863636670469733 10.082910399816104  4.2656122386754287 11.090908818147909 9.1540698300201733  6.5774609007684752 11.318181873669296 7.4293076083620591  8.1924867712032157 11.545454557700312 5.1407878596297047  9.8075129319081125 12.000000000014698 9.7719322600000003e-09  8.1924868095066525 12.454545442329547 -5.1407878521174624  6.5774608779552803 12.681818126359861 -7.4293080855537532  4.2656120924645613 12.909091181882154 -9.1540674840669993  1.4783340205019035 13.136363329560574 -10.082915467348068  -1.4783345801540462 13.363636118396412 -10.082895040598807  -4.2656104932350614 13.590910265608668 -9.1540812247343872  -6.5774628945796376 13.818180130316055 -7.4293023742741786  -8.1924851901517481 14.045455880726394 -5.1407889775982829  -9.0000005888896482 14.272726688067138 -2.5703939716530524  -8.9999996339024975 14.524020855749592 0.27166738516979522  -8.9999995426170329 14.548041601665247 0.54333478739625851  -8.999999451331572 14.572062347682808 0.81500219077509162  -8.9999993600461075 14.596083093802246 1.0866695953062946  -8.9999992687606518 14.620103840023587 1.3583370009898694  -8.9999991774751926 14.644124586346811 1.6300044078258136  -8.9999990861897317 14.668145332771923 1.9016718158141306  -8.9999989949042671 14.692166079298941 2.1733392249548165  -8.9999989036188062 14.716186825927842 2.4450066352478714  -8.9999988123333488 14.740207572658644 2.7166740466932988  -8.9999987210478807 14.764228319491352 2.9883414592910937  
-9.0000016151198263 7.7357715681690511 -2.9883414749804902  -9.0000014682907441 7.759792315440607 -2.7166740599328616  -9.0000013214616654 7.7838130625666002 -2.4450066465314766  -9.0000011746325903 7.8078338095470352 -2.1733392347763361  -9.0000010278035099 7.8318545563819102 -1.9016718246674402  -9.0000008809744365 7.8558753030712261 -1.6300044162047882  -9.0000007341453649 7.8798960496149792 -1.3583370093883793  -9.0000005873162934 7.9039167960131689 -1.0866696042182147  -9.00000044048722 7.9279375422657985 -0.81500220069429397  -9.0000002936581485 7.9519582883728708 -0.54333479881661717  -9.0000001468290787 7.9759790343343839 -0.27166739858518452  -8.9999986107698273 8.2272732020392692 2.5703939321950822  -8.1924894958430574 8.4545440093565034 5.1407882068311768  -6.5774569629386503 8.6818197597873539 7.4293055473053453  -4.2656155717014768 8.9090896244812399 9.1540742717285415  -1.4783316679744185 9.1363637717076198 10.082903450531962  1.4783329147544744 9.363636560527512 10.082908786409316  4.2656122483138432 9.5909087082171496 9.1540704476836154  6.5774608512973174 9.8181817637317064 7.4293073936612952  8.1924866873884863 10.045454447764778 5.1407878104462785  9.8075128420642326 10.499999890078769 1.043593537e-08  8.1924867432231441 10.954545332393669 -5.1407878071141342  6.5774608069183707 11.181818016424552 -7.429308164139302  4.2656120046716071 11.40909107194563 -9.154066698687096  1.4783342548968998 11.636363219627695 -10.08291689602137  -1.4783352396430283 11.863636008462107 -10.08289298556285  -4.265609276918072 12.090910155676649 -9.154082724322377  -6.5774641922904786 12.318180020380865 -7.4293015555917821  -8.1924841062624978 12.545455770791866 -5.1407890941656911  -9.0000009449495035 12.772726578131243 -2.5703939481068052  -8.9999994139558446 13.024020745813809 0.27166738268070878  -8.9999992676109759 13.048041491685831 0.54333478291237591  -8.9999991212661143 13.072062237616086 0.81500218479028552  -8.9999989749212492 13.096082983604569 1.0866695883144377  -8.9999988285763948 13.120103729651278 1.3583369934848357  -8.9999986822315368 13.144124475756216 1.6300044003014755  -8.9999985358866752 13.168145221919378 1.9016718087643627  -8.9999983895418101 13.192165968140774 2.1733392188734904  -8.9999982431969485 13.216186714420399 2.44500663062886  -8.9999980968520923 13.240207460758253 2.716674044030476  -8.9999979505072201 13.264228207154339 2.9883414590783306  

-3.0000002150469141 3
0 1
2 1
5.0000002198276885 3

-0.33244077704404623 12
0 10
3.1454041249645188 9
6.2908082499290376 10
6.6232490269724629 12

9 0 0 0 0 1 11 2 21 2 3 -13.000000109924827 17.999999780150336 1.5903834689999998e-08  -13.000000452695442 18.227271812798822 3.7127913751877846  -11.833591775814336 18.454546460027608 7.4255835708199971  -9.5007769277194747 18.681816164164708 10.731218928167863  -6.1614429163645923 18.909091753968145 13.222552658796459  -2.1353647389097699 19.136363061355638 14.564194445218183  2.1353649633547924 19.363635727012838 14.564201970205144  6.1614428752201622 19.590909033915551 13.222546873719811  9.5007765466885328 19.818181432921662 10.731221957648261  11.83359237779554 20.045454203441491 7.4255826708379686  14.166407968542121 20.499999670218081 -2.6440567830000001e-08  11.833592338854615 20.954545136991946 -7.4255827114815807  9.50077652167775 21.181817907516063 -10.731221797000183  6.1614428916503332 21.409090306517104 -13.222547831683617  2.1353645793101093 21.636363613418894 -14.564199950007444  -2.1353638949791649 21.86363627908942 -14.564197054254219  -6.1614445345593589 22.090907586454541 -13.222550524935066  -9.5007751564751004 22.318183176271724 -10.731219894124527  -11.833593148196574 22.54545288042344 -7.4255833091759209  -12.99999988164179 22.772727527609682 -3.7127913274720741  -13.000000219848291 22.999999560303344 3.1807402329999997e-08  
-9.0000001099248479 18.00000021984965 -1.5903284020000001e-08  -9.0000004617794698 18.227273641750163 2.5703940261761349  -8.1924864923316587 18.454544449051046 5.1407889576715702  -6.5774617838027769 18.68182019949748 7.4293033511788966  -4.2656118461146582 18.909090064174343 9.1540799337007304  -1.4783339924021803 19.136364211414865 10.082897336721675  1.478333786575857 19.363637000226198 10.082914290198067  4.2656122521109978 19.590909147920563 9.1540685081523758  6.5774610834114604 19.818182203436248 7.4293082116948801  8.1924870577508013 20.045454887467965 5.1407880516578004  9.8075132613339289 20.500000329782555 2.555236329e-08  8.1924870733159665 20.954545772097248 -5.1407880054385373  6.5774611371743079 21.181818456127271 -7.4293079813084466  4.2656123655883587 21.40909151165237 -9.1540694208904902  1.4783335094589907 21.636363659322544 -10.082912254319494  -1.4783330415934157 21.863636448172024 -10.082899961445255  -4.2656133672270453 22.090910595368509 -9.154077845049013  -6.5774599338025652 22.318180460092798 -7.4293043868912534  -8.1924878102017473 22.545456210482577 -5.1407887828768404  -8.9999998634737164 22.772727017846609 -2.5703940738933828  -9.0000002198483866 23.000000439696617 -3.1805741500000002e-08  

0 2
4 2

0 12
3.1454041249645188 9
6.2908082499290376 12

9 0 0 0 0 1 11 2 21 2 3 -8.9999999999999982 11 -1.7800000000000001e-15  -8.9999996526923542 11.227273421889089 2.5703939792888186  -8.192487628249113 11.45454422920416 5.1407886283457858  -6.5774597993769461 11.681819979638812 7.4293041821608075  -4.2656132953836785 11.909089844322327 9.1540776063442131  -1.4783330411075184 12.136363991561861 10.082899709926156  1.4783334377038493 12.363636780368944 10.082912013218651  4.265612229036992 12.590908928070618 9.1540692123597083  6.5774609502396544 12.818181983579699 7.4293078230614737  8.1924868550179522 13.045454667614711 5.1407879088133637  9.8075130217519693 13.50000010992834 9.1078920800000002e-09  8.192486875790193 13.954545552243237 -5.1407878971209477  6.5774609489920604 14.18181823627493 -7.4293080069671396  4.2656121802577003 14.409091291793256 -9.1540682694494357  1.4783337861068508 14.636363439478293 -10.0829140386708  -1.4783339206652648 14.863636228306341 -10.082897095639272  -4.2656117095516928 15.090910375525484 -9.1540797251426085  -6.5774615968690995 15.318180240228138 -7.4293031929588782  -8.1924862740408404 15.545455990641008 -5.1407888610299013  -9.0000002328298354 15.772726797980775 -2.5703939951995372  -8.9999998900752107 16.000000219849664 -1.5903880340000001e-08  
-12.999999999999989 11.000000000000002 -3.5500000000000001e-15  -12.999999652692416 11.227272032659016 3.7127912964935419  -11.833592929900526 11.454546679876984 7.4255832125387791  -9.5007749695494077 11.681816384019633 10.731219735907889  -6.1614443979865658 11.909091973823477 13.22255031635938  -2.135363823247753 12.136363281209112 14.564196813203814  2.135364578845671 12.363635946864571 14.56419969844541  6.1614428197966458 12.590909253773107 13.222547593005977  9.5007763872591244 12.818181652773019 10.73122159225889  11.833592156894733 13.045454423296436 7.4255825569476324  14.166407728959951 13.499999890070846 -8.2244551699999997e-09  11.833592159497405 13.954545356847271 -7.4255825742097556  9.5007763597518 14.18181812736545 -10.731221799416282  6.1614427386708597 14.409090526379462 -13.222546665160056  2.1353648915943735 14.636363833262152 -14.564201729145886  -2.1353647384189918 14.863636498952806 -14.564194193659334  -6.1614428445297662 15.090907806302505 -13.222552420114804  -9.5007767932870859 15.31818339613106 -10.731218723433047  -11.833591593866617 15.5454531002688 -7.4255834162823744  -13.000000241913893 15.772727747474033 -3.7127912805876035  -12.999999890075182 15.999999780150347 1.590323545e-08  

0 2
4 2

0 12
3.1454041249645188 9
6.2908082499290376 12

9 0 0 0 0 1 11 2 21 2 3 -12.999999890075166 15.999999780150352 1.590327692e-08  -12.999999538219875 16.227271812799007 3.7127912810019645  -11.833592820756021 16.454546460027231 7.4255831642231342  -9.5007748760824242 16.681816164165518 10.731219656792199  -6.1614443297089627 16.909091753966404 13.222550212082369  -2.1353637873779849 17.13636306135934 14.56419669266765  2.1353645786099404 17.363635727007491 14.564199572675706  6.161442783868389 17.590909033920738 13.222547473661594  9.5007763200506865 17.818181432918646 10.731221489893244  11.833592065914267 18.045454203442404 7.4255824796811742  14.166407609170333 18.499999670217289 -2.555451236e-08  11.833592050349088 18.954545136992749 -7.4255825258962398  9.5007762662880122 19.181817907513398 -10.731221720294139  6.1614426703891585 19.409090306522558 -13.222546560895839  2.1353648557318277 19.636363613410797 -14.564201608591482  -2.1353647381929322 19.863636279099111 -14.564194067908872  -6.1614428085948489 20.090907586445589 -13.222552300755414  -9.5007767260789322 20.318183176277923 -10.731218621075714  -11.833591502890945 20.54545288042052 -7.4255833390136745  -13.000000136523354 20.772727527610488 -3.7127912332885105  -12.999999780151651 20.999999560303387 3.1805496289999999e-08  
-13.000000109924821 17.99999978015034 1.5903834689999998e-08  -13.00000045269524 18.227271812799014 3.7127913751880133  -11.833591775815101 18.454546460026794 7.4255835708190006  -9.500776927717725 18.681816164166676 10.731218928170364  -6.1614429163674629 18.909091753964841 13.22255265879201  -2.135364738906155 19.136363061359795 14.564194445224071  2.1353649633513019 19.363635727008816 14.564201970199324  6.1614428752226544 19.590909033918489 13.22254687372396  9.5007765466873249 19.818181432920152 10.731221957646273  11.833592377795828 20.045454203441931 7.4255826708384545  14.166407968541909 20.499999670217633 -2.6440954470000001e-08  11.833592338854737 20.954545136992401 -7.425582711481292  9.5007765216777287 21.181817907514439 -10.731221797001099  6.1614428916498234 21.409090306520341 -13.222547831681588  2.1353645793114779 21.63636361341436 -14.564199950010742  -2.1353638949811993 21.863636279094223 -14.564197054250346  -6.1614445345573436 22.090907586450687 -13.222550524938292  -9.5007751564764646 22.318183176274001 -10.731219894122615  -11.833593148195959 22.545452880422506 -7.425583309176699  -12.999999881641948 22.772727527609895 -3.7127913274718969  -13.000000219848285 22.999999560303344 3.1807400550000003e-08  

0 2
2 2

0 12
3.1454041249645188 9
6.2908082499290376 12

1 -13 13 1.5e-16 0 -0.99611375223116572 0.088076061537446529 1 -8.7733776139808906e-19 -9.9224260738405208e-18 9.9611375223116591e-18 0.088076061537446529 0.99611375223116572 
1 -13 13 1.5e-16 -0.9999999999999909 0 -1.3511835464000001e-07 -0 -1 0 -1.3511835464000001e-07 0 0.9999999999999909 
1 -9 12.999999999999996 1.2e-16 -0.9999999999999909 0 -1.3511835464000001e-07 -0 -1 0 -1.3511835464000001e-07 0 0.9999999999999909 
9 0 0 0 0 1 11 2 21 2 3 -9.0000001099248514 18.00000021984965 -1.5903282249999998e-08  -9.0000004617794751 18.227273641750514 2.5703940261762157  -8.1924864923316925 18.45454444904961 5.14078895767119  -6.5774617838025993 18.681820199500855 7.4293033511799322  -4.2656118461149983 18.909090064168879 9.1540799336988101  -1.4783339924018024 19.136364211421306 10.082897336724225  1.4783337865756025 19.363637000220493 10.082914290195626  4.265612252111084 19.590909147924311 9.1540685081540243  6.5774610834114657 19.818182203434528 7.4293082116942175  8.1924870577507924 20.045454887468374 5.1407880516578102  9.8075132613339431 20.500000329782257 2.5552620570000001e-08  8.1924870733159558 20.954545772097433 -5.1407880054390622  6.5774611371743337 21.181818456127012 -7.4293079813058354  4.2656123655883276 21.409091511652523 -9.1540694208962368  1.4783335094590677 21.636363659322473 -10.082912254311109  -1.4783330415935572 21.863636448172485 -10.082899961454155  -4.2656133672268766 22.090910595367479 -9.1540778450419715  -6.5774599338027118 22.318180460093906 -7.4293043868953461  -8.1924878102016692 22.54545621048193 -5.1407887828751875  -8.9999998634737359 22.772727017846812 -2.5703940738937723  -9.0000002198483884 23.00000043969662 -3.1805736180000003e-08  
-8.9999998900751894 16.000000219849657 -1.590383825e-08  -8.9999995473039718 16.227273641750543 2.5703939319901687  -8.192487537273097 16.454544449049923 5.1407885510752678  -6.577459732166286 16.681820199499992 7.4293040798021348  -4.2656132594580818 16.909090064170147 9.1540774869879744  -1.478333040871602 17.136364211420752 10.082899584170038  1.4783334018320955 17.363637000219807 10.082911892669349  4.265612160758586 17.590909147925803 9.1540691080937453  6.5774608567738051 17.818182203433427 7.4293077439400852  8.1924867458695392 18.045454887468754 5.140787860500919  9.8075129019620775 18.500000329782068 2.6438558299999999e-08  8.1924867848105567 18.954545772097525 -5.1407878198533812  6.5774608817838658 19.181818456127242 -7.4293079046015116  4.2656121443289159 19.409091511651607 -9.1540681501048464  1.4783337858780368 19.636363659324665 -10.082913912900096  -1.4783338848042717 19.863636448169288 -10.082896975103894  -4.2656116412648517 20.090910595370747 -9.1540796208660602  -6.5774615034050754 20.318180460091725 -7.429303113844381  -8.1924861648966214 20.545456210482925 -5.1407888127138097  -9.0000001183551763 20.772727017846591 -2.5703939797100097  -8.9999997801517484 21.000000439696667 -3.1807649310000003e-08  

0 2
2 2

0 12
3.1454041249645188 9
6.2908082499290376 12

9 0 0 0 0 1 11 2 21 2 3 -13.000000219848287 22.99999956030334 3.1807497080000003e-08  -13.000000558094245 23.227271592920005 3.7127914224908345  -11.833591866786273 23.454546240174579 7.4255836480936059  -9.5007769949343057 23.681815944313303 10.731219030527745  -6.1614429522920329 23.909091534084883 13.222552778159091  -2.1353647391407273 24.136362841521137 14.564194570978323  2.1353649992244046 24.363635507129121 14.56420209075624  6.1614429435040634 24.59090881406982 13.222546977990671  9.5007766401569551 24.818181213053915 10.731222036770244  11.833592486947969 25.045453983582163 7.4255827191515742  14.166408088335597 25.499999450356121 -4.3772971769999997e-08  11.833592429836704 25.954544917131848 -7.4255827887520338  9.5007765888877582 26.181817687652586 -10.731221899370251  6.1614429275770828 26.40909008666215 -13.222547951030666  2.1353645795428804 26.636363393548109 -14.56420007578601  -2.1353639308479018 26.863636059242875 -14.564197174785882  -6.1614446028444423 27.090907366578154 -13.222550629224846  -9.5007752499475568 27.318182956417136 -10.73121997323079  -11.833593257337546 27.545452660575155 -7.425583357498339  -12.99999999612934 27.77272730772345 -3.712791342960057  -13.000000329768811 27.999999340462168 4.7712386320000003e-08  
-9.0000002198483902 23.00000043969661 -3.1805642560000003e-08  -9.0000005762623836 23.227273861634611 2.5703940416667526  -8.1924866014746947 23.45454466888603 5.14078900599318  -6.5774618772715439 23.681820419384245 7.4293034302945049  -4.2656119143979181 23.909090284004982 9.1540800379802398  -1.4783340282682793 24.136364431309929 10.082897457266885  1.4783337868108608 24.363637220056187 10.08291441596576  4.265612288040515 24.590909367801363 9.1540686275040066  6.5774611506234839 24.818182423288487 7.4293083140617764  8.1924871487341857 25.045455107330451 5.1407881289261477  9.8075133811276825 25.500000549642522 4.2882522229999999e-08  8.1924871824669463 25.95454599195801 -5.1407880537549762  6.5774612306417017 26.181818675990435 -7.4293080604293094  4.2656124338690375 26.409091731507733 -9.154069525168417  1.478333545324976 26.636363879190338 -10.082912374863307  -1.4783330418232574 26.8636366680268 -10.082900087212263  -4.2656134031605513 27.090910815230657 -9.1540779644070156  -6.5774600010186024 27.318180679963536 -7.4293044892490085  -8.1924879011726759 27.545456430318591 -5.140788860150006  -8.9999999688772885 27.772727237737904 -2.5703941211935146  -9.0000003297690281 28.000000659537719 -4.7706760669999999e-08  

0 2
4 2

0 12
3.1454041249645188 9
6.2908082499290376 12

9 0 0 0 0 1 11 2 21 2 3 -8.9999998900751912 16.000000219849657 -1.590384002e-08  -8.9999995473040091 16.22727364175071 2.5703939319901372  -8.1924875372729637 16.454544449049219 5.1407885510754392  -6.5774597321665027 16.681820199501637 7.4293040798016241  -4.2656132594578882 16.909090064167525 9.1540774869889425  -1.4783330408716631 17.136364211423682 10.082899584168807  1.4783334018320282 17.363637000217523 10.082911892670396  4.2656121607586845 17.590909147927043 9.1540691080931218  6.57746085677375 17.818182203432912 7.4293077439403126  8.1924867458695516 18.045454887468939 5.140787860500903  9.8075129019620526 18.50000032978177 2.643848781e-08  8.1924867848105851 18.954545772097934 -5.140787819853224  6.577460881783832 19.181818456125651 -7.4293079046022106  4.2656121443288759 19.409091511654651 -9.154068150103484  1.4783337858781795 19.636363659320519 -10.082913912901811  -1.4783338848044709 19.863636448173651 -10.082896975102374  -4.2656116412646767 20.090910595367177 -9.1540796208670194  -6.5774615034051696 20.318180460093931 -7.4293031138439503  -8.1924861648965983 20.545456210481969 -5.1407888127139261  -9.0000001183551745 20.772727017846822 -2.570393979709988  -8.9999997801517466 21.000000439696667 -3.180764576e-08  
-12.999999890075166 15.999999780150352 1.590327514e-08  -12.999999538219845 16.227271812798961 3.7127912810019188  -11.833592820756129 16.454546460027419 7.4255831642233181  -9.5007748760822803 16.681816164164893 10.731219656791914  -6.1614443297091244 16.909091753967843 13.222550212082442  -2.1353637873776967 17.136363061356903 14.564196692668114  2.1353645786094173 17.363635727010472 14.564199572674825  6.1614427838690302 17.590909033918194 13.222547473662429  9.5007763200502158 17.81818143291995 10.731221489892762  11.83359206591444 18.045454203442233 7.4255824796813235  14.166407609170147 18.499999670217068 -2.5554674429999999e-08  11.833592050349289 18.95454513699336 -7.4255825258960648  9.5007762662872253 19.181817907510258 -10.731221720294661  6.1614426703909118 19.409090306529645 -13.222546560895116  2.1353648557290259 19.636363613400274 -14.564201608591958  -2.1353647381895837 19.863636279110366 -14.564194067908872  -6.1614428085978146 20.0909075864367 -13.222552300755163  -9.5007767260770581 20.318183176283107 -10.731218621075907  -11.833591502891728 20.545452880418416 -7.425583339013599  -13.000000136523163 20.772727527610996 -3.712791233288538  -12.999999780151647 20.999999560303394 3.1805490969999999e-08  

0 2
4 2

0 12
3.1454041249645188 9
6.2908082499290376 12

9 0 0 0 0 1 11 2 21 2 3 -12.999999780151654 20.999999560303387 3.1805591050000003e-08  -12.999999423737501 21.227271592919493 3.7127912655115525  -11.83359271161244 21.454546240177514 7.4255831159004657  -9.5007747826129467 21.681815944306177 10.731219577679024  -6.161444261428537 21.909091534096895 13.222550107798586  -2.1353637515078141 22.136362841507331 14.564196572127718  2.135364578371032 22.363635507140796 14.564199446903032  6.1614427479415887 22.590908814062974 13.222547354313336  9.5007762528373156 22.818181213056807 10.731221387524823  11.833591974931229 23.045453983581627 7.4255824024130908  14.16640748937623 23.499999450356746 -4.2884703270000002e-08  11.833591941198543 23.954544917131425 -7.4255824775800017  9.5007761728190268 24.181817687654966 -10.731221641172612  6.1614426021120892 24.409090086656057 -13.222546456617962  2.1353648198594901 24.636363393559112 -14.564201488048717  -2.1353647379547462 24.863636059229407 -14.564193942141317  -6.1614427726674288 25.090907366590212 -13.222552181396049  -9.5007766588607296 25.318182956409693 -10.731218518719466  -11.833591411920136 25.545452660578466 -7.4255832617396615  -13.000000031120043 25.772727307722704 -3.7127911859883342  -12.999999670231034 25.999999340462285 4.7706675329999997e-08  
-13.000000219848289 22.99999956030334 3.180750063e-08  -13.000000558094058 23.227271592919834 3.7127914224910374  -11.833591866786993 23.454546240175326 7.4255836480927986  -9.5007769949327194 23.681815944311534 10.731219030529676  -6.1614429522944603 23.90909153408769 13.222552778155801  -2.1353647391380219 24.136362841517926 14.564194570982519  2.1353649992222019 24.36363550713196 14.564202090752193  6.1614429435053299 24.590908814067852 13.222546977993547  9.5007766401565021 24.818181213054856 10.731222036768832  11.833592486947998 25.045453983582057 7.4255827191519934  14.166408088335707 25.49999945035588 -4.3773479049999999e-08  11.833592429836443 25.954544917132445 -7.4255827887514378  9.5007765888889679 26.181817687649843 -10.731221899372537  6.1614429275746776 26.409090086667529 -13.222547951026101  2.135364579545977 26.636363393541419 -14.56420007579217  -2.1353639308507693 26.863636059248769 -14.564197174779828  -6.1614446028424865 27.090907366574456 -13.22255062922928  -9.5007752499485036 27.318182956418745 -10.731219973228352  -11.833593257337251 27.545452660574711 -7.425583357499308  -12.999999996129379 27.772727307723528 -3.7127913429598194  -13.000000329768806 27.999999340462168 4.7712388099999997e-08  

0 2
2 2

0 12
3.1454041249645188 9
6.2908082499290376 12

9 0 0 0 0 1 11 2 21 2 3 -9.0000002198483866 23.000000439696613 -3.1805644339999997e-08  -9.0000005762623712 23.227273861633975 2.5703940416666082  -8.1924866014747462 23.454544668888641 5.1407890059938017  -6.5774618772714062 23.681820419377999 7.4293034302929444  -4.2656119143981943 23.909090284015484 9.1540800379828564  -1.478334028267849 24.136364431297039 10.082897457263744  1.4783337868103588 24.36363722006778 10.082914415968537  4.265612288040928 24.59090936779387 9.1540686275022036  6.5774611506232539 24.818182423291749 7.4293083140625864  8.192487148734271 25.045455107329744 5.1407881289259585  9.8075133811275776 25.500000549643058 4.2882664680000002e-08  8.1924871824670742 25.954545991957655 -5.1407880537550801  6.5774612306412221 26.181818675991234 -7.429308060428931  4.2656124338700003 26.409091731506329 -9.1540695251692572  1.4783335453236039 26.636363879192462 -10.08291237486201  -1.4783330418217413 26.863636668024196 -10.082900087213659  -4.2656134031618622 27.09091081523308 -9.1540779644059107  -6.5774600010177586 27.318180679961895 -7.4293044892496454  -8.1924879011730489 27.545456430319323 -5.140788860149744  -8.9999999688772032 27.77272723773773 -2.5703941211935724  -9.0000003297690316 28.000000659537722 -4.7706758900000003e-08  
-8.9999997801517484 21.000000439696667 -3.1807552149999998e-08  -8.999999441905782 21.22727386163433 2.5703938846870167  -8.1924874463003139 21.454544668888008 5.1407884738019609  -6.577459664951415 21.681820419379171 7.429303977440977  -4.2656132235327107 21.909090284013928 9.1540773676282114  -1.4783330406368356 22.13636443129964 10.082899458405189  1.4783333659581603 22.363637220064483 10.082911772123442  4.2656120924780243 22.590909367797149 9.1540690038189094  6.5774607633037023 22.818182423289858 7.4293076648199969  8.1924866367174918 23.045455107330394 5.140787812186888  9.8075127821682901 23.500000549642692 4.3771220970000002e-08  8.1924866938287799 23.954545991958074 -5.1407877425830275  6.5774608145732243 24.181818675990485 -7.4293078022323193  4.2656121084030429 24.40909173150752 -9.1540680307536064  1.4783337856438725 24.636363879191535 -10.082913787129687  -1.478333848933552 24.86363666802481 -10.082896854563295  -4.265611572979898 25.090910815233212 -9.154079516582101  -6.5774614099345117 25.318180679961575 -7.429303034735204  -8.1924860557538768 25.545456430319749 -5.1407887643924042  -9.0000000038683812 25.772727237737676 -2.570393964221521  -8.9999996702312561 26.000000659537832 -4.771246633e-08  

0 2
2 2

0 12
3.1454041249645188 9
6.2908082499290376 12

9 0 0 0 0 1 8 2 9 2 2 -13.00000032976879 27.999999340462171 4.7712406470000002e-08  -13.000000663501364 28.143746479760448 2.3483053638218871  -12.515205096514871 28.287495836507837 4.6966092170254079  -11.545619962044162 28.431241908057419 6.9281516381485186  -10.124974854287126 28.574990517874856 8.9261699798373293  -8.3208027421956299 28.718739127702705 10.5860687005295  -6.2284047925914114 28.862485199252703 11.827742534524027  -3.9593959140231823 29.006234555990083 12.603083932512183  -1.6296141671596076 29.149981695298472 12.897455924462655  
-9.000000329769005 28.000000659537719 -4.7706738119999999e-08  -9.0000006807384754 28.143749168242234 1.6257493258456679  -8.6643728710233656 28.287495459497286 3.2515009796114063  -7.9931204624880037 28.431245035952887 4.7964086535377453  -7.0096015191323042 28.574992074133721 6.1796593292166619  -5.7605518668511202 28.718739112314474 7.3288158239354244  -4.3119750032126021 28.862488688762809 8.1884371737299446  -2.7411199016403951 29.006234980030669 8.7252120099525854  -1.1281945496208419 29.149983488724533 8.9290080708120509  

0 2
4 2

0 9
1.4468639954202633 9

9 0 0 0 0 1 11 2 21 2 3 -8.9999997801517502 21.000000439696667 -3.1807552149999998e-08  -8.9999994419057501 21.22727386163433 2.5703938846869288  -8.1924874463004365 21.454544668888008 5.1407884738023002  -6.5774596649511485 21.681820419379171 7.4293039774401688  -4.265613223533018 21.909090284013928 9.1540773676295277  -1.4783330406366744 22.13636443129964 10.082899458403666  1.4783333659582247 22.363637220064483 10.082911772124703  4.2656120924778502 22.590909367797149 9.154069003818126  6.5774607633038338 22.818182423289858 7.4293076648203469  8.1924866367174456 23.045455107330394 5.1407878121867929  9.8075127821683434 23.500000549642692 4.3771311820000002e-08  8.1924866938287195 23.954545991958074 -5.1407877425831146  6.5774608145733664 24.181818675990485 -7.4293078022321639  4.2656121084029071 24.40909173150752 -9.1540680307535993  1.4783337856439276 24.636363879191535 -10.082913787130058  -1.4783338489335724 24.86363666802481 -10.082896854562643  -4.2656115729798447 25.090910815233212 -9.1540795165827458  -6.5774614099345801 25.318180679961575 -7.4293030347347573  -8.1924860557538377 25.545456430319749 -5.1407887643926111  -9.0000000038683829 25.772727237737676 -2.5703939642214704  -8.9999996702312579 26.000000659537832 -4.771246633e-08  
-12.999999780151651 20.999999560303383 3.1805592829999997e-08  -12.999999423737593 21.22727159292004 3.7127912655113975  -11.833592711612074 21.454546240175294 7.425583115901131  -9.5007747826138278 21.681815944311406 10.731219577677358  -6.1614442614272287 21.90909153408818 13.222550107801554  -2.135363751509006 22.136362841518199 14.564196572123764  2.1353645783716182 22.363635507130486 14.564199446906999  6.1614427479415728 22.590908814070239 13.222547354310425  9.5007762528371682 22.818181213053229 10.731221387526256  11.833591974931267 23.045453983582604 7.4255824024127444  14.166407489376258 23.499999450355798 -4.288444745e-08  11.833591941198437 23.954544917132317 -7.4255824775801589  9.5007761728196147 24.181817687651741 -10.731221641172304  6.1614426021107374 24.409090086662708 -13.222546456618403  2.1353648198615129 24.636363393549654 -14.564201488048226  -2.1353647379569218 24.863636059239273 -14.564193942141733  -6.1614427726656711 25.090907366582556 -13.222552181395841  -9.5007766588618008 25.31818295641407 -10.731218518719514  -11.833591411919672 25.545452660576704 -7.4255832617396651  -13.000000031120159 25.77272730772313 -3.7127911859883289  -12.999999670231038 25.999999340462285 4.7706678889999999e-08  

0 2
4 2

0 12
3.1454041249645188 9
6.2908082499290376 12

1 -13 0 1.5e-16 0 -0.99611375223116572 0.088076061537446529 1 -8.7733776139808906e-19 -9.9224260738405208e-18 9.9611375223116591e-18 0.088076061537446529 0.99611375223116572 
9 0 0 0 0 1 8 2 9 2 2 -12.999999670231013 25.999999340462274 4.7706702590000001e-08  -12.999999319261608 26.143746479760733 2.3483052232560642  -12.515205318462199 26.287495836508128 4.6966087945471564  -11.545618309092772 26.431241908056645 6.9281516267907088  -10.124974885377691 26.574990517876717 8.926168722849674  -8.3208019645740663 26.718739127701113 10.586069071740807  -6.2284044383001707 26.862485199253904 11.827740845451107  -3.9593957479997268 27.006234555989867 12.60308373978244  -1.6296140547580085 27.149981695298667 12.897455034822197  
-13.000000329768787 27.999999340462171 4.7712408250000003e-08  -13.000000663501408 28.143746479760431 2.3483053638218796  -12.515205096514745 28.287495836507944 4.6966092170254354  -11.545619962044359 28.431241908057153 6.9281516381484742  -10.124974854286927 28.574990517875296 8.9261699798373897  -8.3208027421957667 28.71873912770225 10.586068700529434  -6.2284047925913431 28.862485199253008 11.827742534524084  -3.9593959140232013 29.006234555989984 12.603083932512154  -1.6296141671596058 29.149981695298472 12.897455924462653  

0 2
2 2

0 9
1.4468639954202633 9

9 0 0 0 0 1 8 2 9 2 2 -9.0000003297690085 28.000000659537719 -4.7706739890000002e-08  -9.0000006807384807 28.143749168242234 1.6257493258456683  -8.6643728710233496 28.287495459497286 3.2515009796114018  -7.9931204624880552 28.431245035952887 4.7964086535377577  -7.0096015191322367 28.574992074133721 6.1796593292166389  -5.7605518668511797 28.718739112314474 7.3288158239354555  -4.311975003212571 28.862488688762809 8.1884371737299162  -2.7411199016404058 29.006234980030669 8.7252120099525996  -1.1281945496208419 29.149983488724533 8.9290080708120509  
-8.9999996702312366 26.000000659537829 -4.7712445550000003e-08  -8.9999993364986768 26.143749168242575 1.6257491852798036  -8.6643730929708092 26.287495459497404 3.2515005571332818  -7.9931188095364964 26.431245035952486 4.7964086421797134  -7.0096015502228797 26.574992074135015 6.1796580722292713  -5.7605510892296579 26.71873911231344 7.3288161951465307  -4.3119746489212636 26.862488688763719 8.1884354846571163  -2.7411197356169743 27.006234980030531 8.7252118172228261  -1.1281944372192445 27.149983488724736 8.9290071811715954  

0 2
2 2

0 9
1.4468639954202633 9

1 -1.3789043021894256 28.1499825920116 10.913231552817122 0.99211196341274999 -2.9124e-12 0.12535490438470373 -0.12535490438470373 0 0.99211196341274999 -2.889426882243293e-12 -1 -3.6508362353001116e-13 
9 0 0 0 0 1 8 2 9 2 2 -8.999999670231233 26.000000659537832 -4.7712445550000003e-08  -8.9999993364986999 26.143749168242678 1.625749185279777  -8.6643730929707168 26.287495459497009 3.2515005571333697  -7.9931188095366563 26.431245035953239 4.7964086421795429  -7.0096015502227109 26.574992074134119 6.1796580722294667  -5.7605510892297671 26.718739112314157 7.3288161951463771  -4.3119746489212156 26.862488688763356 8.1884354846571981  -2.7411197356169867 27.006234980030637 8.7252118172227942  -1.1281944372192454 27.14998348872474 8.9290071811715954  
-12.999999670231013 25.999999340462274 4.7706695480000002e-08  -12.999999319261539 26.143746479760711 2.348305223256054  -12.515205318462426 26.287495836508231 4.6966087945471573  -11.545618309092388 26.431241908056379 6.9281516267907604  -10.124974885378077 26.574990517877129 8.9261687228495603  -8.3208019645738176 26.718739127700676 10.586069071740939  -6.2284044383002648 26.862485199254209 11.827740845451029  -3.9593957479997037 27.006234555989767 12.603083739782464  -1.6296140547580085 27.149981695298667 12.897455034822196  

0 2
4 2

0 9
1.4468639954202633 9

Triangulations 0

TShapes 118
Ve
1.32192205e-07
-13 13 2e-15
0 0

0101101
*
Ve
1.32192215e-07
-13.0000001099248 17.9999997801503 1.5903829e-08
0 0

0101101
*
Ed
 1e-07 1 1 0
1  1 0 0 6.29080824992904
2  1 1 0 0 6.29080824992904
2  2 2 0 0 6.29080824992904
2  2 3 6 0 6.29080824992904
0

0101000
+118 7 -117 0 *
Ve
1.32192205e-07
-9 13 0
0 0

0101101
*
Ed
 1e-07 1 1 0
1  2 0 0 4
2  3 4 0 0 4
2  4 1 0 0 4
4 C0 4 0 1 0
2  5 5 8 0 4
0

0101000
+118 7 -115 7 *
Ve
1.32192215e-07
-9.00000010992484 18.0000002198497 -1.5903291e-08
0 0

0101101
*
Ed
 1e-07 1 1 0
1  3 0 0 6.29080824992904
2  6 1 0 0 6.29080824992904
2  7 6 0 0 6.29080824992904
2  7 7 6 0 6.29080824992904
0

0101000
+115 7 -113 0 *
Ed
 1e-07 1 1 0
1  4 0 0 4
2  8 1 0 0 4
2  9 8 0 0 4
4 G1 8 0 1 0
0

0101000
+117 0 -113 0 *
Wi

0101100
-116 4 +114 4 +112 4 -111 4 *
Fa
0  1e-07 1 4

0111000
+110 0 *
Ve
1e-06
-13 11 0
0 0

0101101
*
Ve
1.32192241e-07
-12.9999998900752 15.9999997801503 1.5903272e-08
0 0

0101101
*
Ed
 1e-07 1 1 0
1  5 0 0 6.29080824992904
2  6 9 0 0 6.29080824992904
2  7 2 0 0 6.29080824992904
0

0101000
+108 0 -107 0 *
Ed
 1e-07 1 1 0
1  6 0 0 2
2  10 4 0 0 2
2  4 2 0 0 2
4 C0 4 0 2 0
2  11 5 8 0 2
2  4 3 6 0 2
0

0101000
+108 0 -118 7 *
Ed
 1e-07 1 1 0
1  7 0 0 2
2  8 2 0 0 2
2  12 10 0 0 2
4 G1 10 0 2 0
2  8 3 6 0 2
0

0101000
+107 0 -117 0 *
Wi

0101100
-106 4 +105 4 +116 4 -104 4 *
Fa
0  1e-07 2 4

0111000
+103 0 *
Ve
1e-07
-13 -13 0
0 0

0101101
*
Ed
 1e-07 1 1 0
1  8 0 0 2
2  13 12 0 0 2
2  14 11 0 0 2
0

0101000
+118 0 -101 12 *
Ve
1.00000002e-07
-9 -13 0
0 0

0101101
*
Ed
 1.00000002e-07 1 1 0
1  9 0 0 2
2  15 11 0 0 2
2  16 13 0 0 2
0

0101000
+115 0 -99 12 *
Ed
 1e-07 1 1 0
1  10 0 0 4
2  4 11 13 0 4
2  17 11 14 0 4
2  18 5 15 0 4
0

0101000
+101 0 -99 0 *
Wi

0101100
+100 0 -98 0 -114 4 +97 12 *
Fa
0  1e-07 11 0

0111000
+96 0 *
Ve
1.000000023e-06
-9 11 -2e-15
0 0

0101101
*
Ed
 1.00000002e-07 1 1 0
1  11 0 0 2
2  4 6 0 0 2
2  19 4 0 0 2
4 C0 4 0 6 0
2  20 5 8 0 2
2  4 7 6 0 2
0

0101000
+115 7 -94 0 *
Ve
1.3219224e-07
-8.99999989007518 16.0000002198497 -1.5903848e-08
0 0

0101101
*
Ed
 1e-07 1 1 0
1  12 0 0 6.29080824992904
2  21 6 0 0 6.29080824992904
2  7 9 0 0 6.29080824992904
0

0101000
+94 0 -92 0 *
Ed
 1e-07 1 1 0
1  13 0 0 2
2  8 6 0 0 2
2  12 14 0 0 2
4 G1 14 0 6 0
2  8 7 6 0 2
0

0101000
+113 0 -92 0 *
Wi

0101100
-112 4 +93 4 +91 4 -90 4 *
Fa
0  1e-07 6 4

0111000
+89 0 *
Ve
1.32192214e-07
-13.0000002198483 22.9999995603033 3.1807503e-08
0 0

0101101
*
Ed
 1e-07 1 1 0
1  14 0 0 6.29080824992904
2  1 8 0 0 6.29080824992904
2  2 10 0 0 6.29080824992904
0

0101000
+117 0 -87 0 *
Ve
1.32192214e-07
-9.00000021984838 23.0000004396966 -3.1805639e-08
0 0

0101101
*
Ed
 1e-07 1 1 0
1  15 0 0 6.29080824992904
2  6 8 0 0 6.29080824992904
2  7 14 0 0 6.29080824992904
0

0101000
+113 0 -85 0 *
Ed
 1e-07 1 1 0
1  16 0 0 4
2  8 8 0 0 4
2  9 15 0 0 4
4 G1 15 0 8 0
0

0101000
+87 0 -85 0 *
Wi

0101100
-86 0 +111 0 +84 0 -83 0 *
Fa
0  1e-07 8 0

0111000
+82 0 *
Ed
 1e-07 1 1 0
1  17 0 0 4
2  22 4 0 0 4
2  4 9 0 0 4
4 C0 4 0 9 0
2  23 5 8 0 4
0

0101000
+94 0 -108 0 *
Ed
 1e-07 1 1 0
1  18 0 0 4
2  8 9 0 0 4
2  9 16 0 0 4
4 G1 16 0 9 0
0

0101000
+92 0 -107 0 *
Wi

0101100
-91 0 +80 0 +106 0 -79 0 *
Fa
0  1e-07 9 0

0111000
+78 0 *
Ve
1e-07
-13 0 0
0 0

0101101
*
Ed
 1e-07 1 1 0
1  19 0 0 2
2  24 12 0 0 2
0

0101000
+76 16 -76 12 *
Ed
 1e-07 1 1 0
1  20 0 2 13
2  4 12 13 2 13
2  25 12 14 2 13
2  26 5 15 2 13
0

0101000
+108 17 -76 0 *
Ed
 1e-07 1 1 0
1  20 0 0 13
2  4 12 13 0 13
2  25 12 14 0 13
2  26 5 15 0 13
0

0101000
+101 0 -76 0 *
Wi

0101100
+100 0 -75 0 +105 4 -74 16 +73 12 *
Fa
0  1e-07 12 0

0111000
+72 0 *
Ve
1.32192258e-07
-12.9999997801516 20.9999995603034 3.1805593e-08
0 0

0101101
*
Ed
 1e-07 1 1 0
1  21 0 0 6.29080824992904
2  6 16 0 0 6.29080824992904
2  7 10 0 0 6.29080824992904
0

0101000
+107 0 -70 0 *
Ed
 1e-07 1 1 0
1  22 0 0 2
2  8 10 0 0 2
2  12 17 0 0 2
4 G1 17 0 10 0
0

0101000
+70 0 -87 0 *
Wi

0101100
-69 0 +104 0 +86 0 -68 0 *
Fa
0  1e-07 10 0

0111000
+67 0 *
Ve
1e-07
-9 0 0
0 0

0101101
*
Ed
 1e-07 1 1 0
1  23 0 0 2
2  27 13 0 0 2
0

0101000
+65 16 -65 12 *
Ed
 1e-07 1 1 0
1  24 0 2 13
2  4 13 13 2 13
2  25 13 14 2 13
2  28 5 15 2 13
0

0101000
+94 17 -65 0 *
Ed
 1e-07 1 1 0
1  24 0 0 13
2  4 13 13 0 13
2  25 13 14 0 13
2  28 5 15 0 13
0

0101000
+99 0 -65 0 *
Wi

0101100
+98 0 -64 0 -93 4 -63 16 +62 12 *
Fa
0  1e-07 13 0

0111000
+61 0 *
Ed
 1e-07 1 1 0
1  25 0 0 4
2  29 5 15 0 4
0

0101000
+76 0 -65 0 *
Wi

0101100
+73 0 +59 0 -62 0 -97 0 *
Fa
0  1e-07 5 0

0111000
-58 19 *
Ve
1.32192258e-07
-8.99999978015174 21.0000004396967 -3.1807549e-08
0 0

0101101
*
Ed
 1e-07 1 1 0
1  26 0 0 6.29080824992904
2  21 14 0 0 6.29080824992904
2  7 16 0 0 6.29080824992904
0

0101000
+92 0 -56 0 *
Ed
 1e-07 1 1 0
1  27 0 0 2
2  8 14 0 0 2
2  12 18 0 0 2
4 G1 18 0 14 0
0

0101000
+85 0 -56 0 *
Wi

0101100
-84 0 +90 0 +55 0 -54 0 *
Fa
0  1e-07 14 0

0111000
+53 0 *
Ve
1.32192215e-07
-13.0000003297688 27.9999993404622 4.7712416e-08
0 0

0101101
*
Ed
 1e-07 1 1 0
1  28 0 0 6.29080824992904
2  1 15 0 0 6.29080824992904
2  2 17 0 0 6.29080824992904
0

0101000
+87 0 -51 0 *
Ve
1.32192215e-07
-9.00000032976901 28.0000006595377 -4.7706729e-08
0 0

0101101
*
Ed
 1e-07 1 1 0
1  29 0 0 6.29080824992904
2  6 15 0 0 6.29080824992904
2  7 18 0 0 6.29080824992904
0

0101000
+85 0 -49 0 *
Ed
 1e-07 1 1 0
1  30 0 0 4
2  8 15 0 0 4
2  9 19 0 0 4
4 G1 19 0 15 0
0

0101000
+51 0 -49 0 *
Wi

0101100
-50 0 +83 0 +48 0 -47 0 *
Fa
0  1e-07 15 0

0111000
+46 0 *
Wi

0101100
-74 16 -59 16 +63 16 -80 4 *
Fa
0  1e-07 5 20

0111000
+44 0 *
Ed
 1e-07 1 1 0
1  31 0 0 4
2  8 16 0 0 4
2  9 20 0 0 4
4 G1 20 0 16 0
0

0101000
+56 0 -70 0 *
Wi

0101100
-55 0 +79 0 +69 0 -42 0 *
Fa
0  1e-07 16 0

0111000
+41 0 *
Wi

0101100
+75 0 -64 0 -59 16 +59 12 *
Fa
0  1e-07 21 0

0111000
+39 0 *
Ve
1.32192243e-07
-12.999999670231 25.9999993404623 4.7706708e-08
0 0

0101101
*
Ed
 1e-07 1 1 0
1  32 0 0 6.29080824992904
2  6 20 0 0 6.29080824992904
2  7 17 0 0 6.29080824992904
0

0101000
+70 0 -37 0 *
Ed
 1e-07 1 1 0
1  33 0 0 2
2  8 17 0 0 2
2  12 22 0 0 2
4 G1 22 0 17 0
0

0101000
+37 0 -51 0 *
Wi

0101100
-36 0 +68 0 +50 0 -35 0 *
Fa
0  1e-07 17 0

0111000
+34 0 *
Ve
1.32192243e-07
-8.99999967023124 26.0000006595378 -4.7712437e-08
0 0

0101101
*
Ed
 1e-07 1 1 0
1  34 0 0 6.29080824992904
2  21 18 0 0 6.29080824992904
2  7 20 0 0 6.29080824992904
0

0101000
+56 0 -32 0 *
Ed
 1e-07 1 1 0
1  35 0 0 2
2  8 18 0 0 2
2  12 23 0 0 2
4 G1 23 0 18 0
0

0101000
+49 0 -32 0 *
Wi

0101100
-48 0 +54 0 +31 0 -30 0 *
Fa
0  1e-07 18 0

0111000
+29 0 *
Ve
1.72103203e-07
-1.62961416715961 29.1499816952985 12.8974559244627
0 0

0101101
*
Ed
 1e-07 1 1 0
1  36 0 0 1.44686399542026
2  1 19 0 0 1.44686399542026
2  30 22 0 0 1.44686399542026
0

0101000
+51 0 -27 0 *
Ve
1.72103203e-07
-1.12819454962084 29.1499834887245 8.92900807081205
0 0

0101101
*
Ed
 1e-07 1 1 0
1  37 0 0 1.44686399542026
2  6 19 0 0 1.44686399542026
2  31 23 0 0 1.44686399542026
0

0101000
+49 0 -25 0 *
Ed
 1e-07 1 1 0
1  38 0 0 4
2  32 19 0 0 4
2  33 24 0 0 4
4 C0 19 0 24 0
0

0101000
+27 0 -25 0 *
Wi

0101100
-26 0 +47 0 +24 0 -23 0 *
Fa
0  1e-07 19 0

0111000
+22 0 *
Ed
 1e-07 1 1 0
1  39 0 0 4
2  8 20 0 0 4
2  9 25 0 0 4
4 G1 25 0 20 0
0

0101000
+32 0 -37 0 *
Wi

0101100
-31 0 +42 0 +36 0 -20 0 *
Fa
0  1e-07 20 0

0111000
+19 0 *
Ve
1.72103204e-07
-1.62961405475801 27.1499816952987 12.8974550348222
0 0

0101101
*
Ed
 1e-07 1 1 0
1  40 0 0 1.44686399542026
2  6 25 0 0 1.44686399542026
2  31 22 0 0 1.44686399542026
0

0101000
+37 0 -17 0 *
Ed
 1e-07 1 1 0
1  41 0 0 2
2  32 22 0 0 2
2  34 24 0 0 2
4 C0 24 0 22 0
0

0101000
+17 0 -27 0 *
Wi

0101100
-16 0 +35 0 +26 0 -15 0 *
Fa
0  1e-07 22 0

0111000
+14 0 *
Ve
1.72103202e-07
-1.12819443721924 27.1499834887247 8.9290071811716
0 0

0101101
*
Ed
 1e-07 1 1 0
1  42 0 0 1.44686399542026
2  21 23 0 0 1.44686399542026
2  31 25 0 0 1.44686399542026
0

0101000
+32 0 -12 0 *
Ed
 1e-07 1 1 0
1  43 0 0 2
2  35 24 0 0 2
2  32 23 0 0 2
4 C0 24 0 23 0
0

0101000
+25 0 -12 0 *
Wi

0101100
-24 0 +30 0 +11 0 -10 0 *
Fa
0  1e-07 23 0

0111000
+9 0 *
Ed
 1e-07 1 1 0
1  44 0 0 4
2  36 24 0 0 4
2  32 25 0 0 4
4 C0 24 0 25 0
0

0101000
+12 0 -17 0 *
Wi

0101100
+23 0 +10 0 +7 0 +15 0 *
Fa
0  1e-07 24 0

0111000
-6 0 *
Wi

0101100
-11 0 +20 0 +16 0 -7 0 *
Fa
0  1e-07 25 0

0111000
+4 0 *
Sh

0101100
-109 0 -102 0 -95 0 -88 0 -81 4 -77 4 +71 0 -66 4 -60 0 +57 18 
-52 4 -45 4 -43 0 -40 4 +38 0 -33 4 -28 4 -21 4 -18 4 -13 4 
-8 4 +5 4 -3 4 *
So

0100000
+2 0 *

+1 1 