DBRep_DrawableShape

CASCADE Topology V1, (c) Matra-Datavision
Locations 15
1
              1               0               0               0 
              0               1               0               0 
              0               0               1               0 
1
              1               0               0               0 
              0               1               0               0 
              0               0               1               0 
1
              1               0               0               0 
              0               1               0               0 
              0               0               1               0 
1
              1               0               0               0 
              0               1               0               0 
              0               0               1               0 
1
              1               0               0               0 
              0               1               0               0 
              0               0               1               0 
2  2 1 3 1 4 1 5 1 0
1
              1               0               0               0 
              0               1               0               0 
              0               0               1               0 
1
              1               0               0               0 
              0               1               0               0 
              0               0               1               0 
1
              1               0               0               0 
              0               1               0               0 
              0               0               1               0 
1
              1               0               0               0 
              0               1               0               0 
              0               0               1               0 
2  7 1 8 1 9 1 10 1 0
2  5 -1 4 -1 3 -1 2 -1 0
2  7 1 8 1 9 1 10 1 5 -1 4 -1 3 -1 2 -1 0
2  10 -1 9 -1 8 -1 7 -1 0
2  2 1 3 1 4 1 5 1 10 -1 9 -1 8 -1 7 -1 0
Curve2ds 55
8 -30.000000000000139 -1.3877999999999999e-13
1 -8.1600000000000001e-14 -992.5 -1 2.2e-16 
8 -30.000000000000139 -1.3877999999999999e-13
1 -1.3877999999999999e-13 -985 -1 0 
1 30 -6.6600000000000001e-15 6.0000000000000001e-17 -1 
1 0 0 4.0000000000000003e-17 -1 
8 -14.999999999999865 15.000000000000139
1 14.999999999999917 -1007.5 1 -2.2e-16 
8 -14.999999999999865 15.000000000000139
1 15.000000000000139 -985 -1 0 
1 0 0 6.0000000000000001e-17 -1 
1 30 6.6600000000000001e-15 -0 -1 
1 1007.5 -984.99999999999977 -1 -2.2e-16 
1 30 -6.6600000000000001e-15 0 -1 
1 80.599317614977323 1.3769999999999999e-14 0 -1 
8 -14.999999999999861 15.000000000000139
1 15.000000000000082 -992.5 -1 -2.2e-16 
8 -14.999999999999861 15.000000000000139
1 14.999999999999861 -1015 1 0 
1 15 0 0 -1 
1 0 0 0 -1 
1 1015 -992.49999999999977 -1 -2.2e-16 
8 -8.9896319060874816 84.312297334416201
1 7.4961215889449395 -997.46202004537486 0.83386301766914572 -0.55197143745279631 
8 -8.9896319060874816 84.312297334416201
1 72.833581116937651 -980.47155452169704 -0.8638547806146315 0.50374092350060962 
1 77.801028270839737 -3.3300000000000001e-15 4.0000000000000003e-17 -1 
8 -111.60430043950538 -19.391231951357003
1 -16.360563746426322 -997.09078146591003 -0.84370935211681797 0.53680026932800573 
8 -111.60430043950538 -19.391231951357003
1 -16.683413796777035 -994.88350042630805 -0.86035863211928709 -0.50968914461446924 
1 30 6.6600000000000001e-15 0 -1 
1 1015 -1007.4999999999998 -1 -2.2e-16 
8 -1.4011e-13 29.999999999999865
1 8.5149999999999996e-14 -1007.5 1 2.2e-16 
8 -1.4011e-13 29.999999999999865
1 1.4011e-13 -1015 1 0 
1 30 6.6600000000000001e-15 -6.0000000000000001e-17 -1 
1 0 0 -0 -1 
1 1007.5 -1014.9999999999998 -1 -2.2e-16 
8 -4.9499424131661387 92.626950343264411
1 4.2043602396210211 -1041.3874753840093 0.84937558635788479 0.52778889084481451 
8 -4.9499424131661387 92.626950343264411
1 4.0886932291490838 -962.79007483261171 0.82600824168655951 -0.56365803876630605 
1 -0 0 0 -1 
1 20 4.4400000000000004e-15 0 -1 
1 82.879430499973893 1.5499999999999999e-15 -4.0000000000000003e-17 -1 
1 0 0 -6.0000000000000001e-17 -1 
8 -9.9999999999998668 10.000000000000119
1 9.9999999999998668 -1044 1 -2.2e-16 
8 -9.9999999999998668 10.000000000000119
1 10.000000000000108 -938 -1 0 
1 20 -4.4400000000000004e-15 6.0000000000000001e-17 -1 
1 1057 -937.99999999999977 -1 -2.2e-16 
8 -20.000000000000121 -1.3523e-13
1 -1.3523e-13 -1057 -1 2.2e-16 
8 -20.000000000000121 -1.3523e-13
1 -1.088e-13 -938 -1 0 
1 79.336309467985686 -1.3769999999999999e-14 0 -1 
8 -66.414162162633659 30.122100454063627
1 25.860774629408674 -1041.5545711833033 -0.85853158443735378 -0.512760683480595 
8 -66.414162162633659 30.122100454063627
1 54.581090872688726 -977.1615875741079 0.82182909631580459 0.56973409275621567 
1 20 4.4400000000000004e-15 -6.0000000000000001e-17 -1 
1 0 0 -4.0000000000000003e-17 -1 
8 -1.2434e-13 19.999999999999869
1 1.3233999999999999e-13 -1044 1 2.2e-16 
8 -1.2434e-13 19.999999999999869
1 1.1368999999999999e-13 -960 1 0 
1 13.000000000000021 0 0 -1 
1 -938 -1043.9999999999998 1 -2.2e-16 
1 22 -4.8799999999999996e-15 0 -1 
1 1057 -959.99999999999977 -1 -2.2e-16 
1 20 -4.4400000000000004e-15 0 -1 
1 -938 -1056.9999999999998 1 -2.2e-16 
8 -9.999999999999865 10.000000000000124
1 10.000000000000135 -1057 -1 -2.2e-16 
8 -9.999999999999865 10.000000000000124
1 9.9999999999998863 -960 1 0 
Curves 28
1 -7.5 15 -1.4211000000000001e-13 -0 -2.2e-16 -1 
1 -1000 15.000000000000229 29.999999999999719 1 -2.2e-16 2.8000000000000001e-16 
1 7.5 15 14.99999999999986 -0 2.2e-16 1 
1 -1000 15.000000000000222 -2.8088999999999998e-13 1 -2.2e-16 2.8000000000000001e-16 
1 -7.5 1000 29.99999999999978 0 -1 2.2e-16 
1 -7.5 -14.999999999999996 14.999999999999865 0 2.2e-16 1 
1 -7.5 1000 -2.2204000000000001e-13 0 -1 2.2e-16 
1 -2.5379799546251434 19.528445478302928 35.973694035208325 0.55197143745279631 0.50374092350060973 0.66450930334122993 
1 -1000 62.000000000000256 91.99999999999973 1 -2.2e-16 2.8000000000000001e-16 
1 -2.9092185340899448 5.1164995736919252 16.962190926998176 -0.53680026932800573 -0.50968914461446935 -0.67235589289568298 
1 7.5 1000 -2.2204000000000001e-13 0 -1 2.2e-16 
1 7.5 -14.999999999999996 29.999999999999865 0 -2.2e-16 -1 
1 7.5 1000 29.99999999999978 0 -1 2.2e-16 
1 -1000 -14.999999999999778 -2.7422999999999998e-13 1 -2.2e-16 2.8000000000000001e-16 
1 41.387475384009434 37.209925167388349 88.85482473414703 -0.52778889084481451 -0.56365803876630616 -0.63539633460929079 
1 43.999999999999993 1000 91.99999999999973 0 -1 2.2e-16 
1 -1000 -14.999999999999771 29.999999999999726 1 -2.2e-16 2.8000000000000001e-16 
1 44 62.000000000000014 101.99999999999983 -0 2.2e-16 1 
1 -1000 62.000000000000263 111.99999999999973 1 -2.2e-16 2.8000000000000001e-16 
1 57.000000000000007 62.000000000000014 91.999999999999829 -0 -2.2e-16 -1 
1 57.000000000000014 1000 91.99999999999973 0 -1 2.2e-16 
1 41.554571183303352 22.838412425892159 72.654210371005917 0.512760683480595 0.56973409275621578 0.64224570456155239 
1 -1000 40.000000000000256 91.99999999999973 1 -2.2e-16 2.8000000000000001e-16 
1 44 40.000000000000014 111.99999999999983 0 -2.2e-16 -1 
1 43.999999999999993 1000 111.99999999999973 0 -1 2.2e-16 
1 -1000 40.000000000000263 111.99999999999973 1 -2.2e-16 2.8000000000000001e-16 
1 57.000000000000014 1000 111.99999999999973 0 -1 2.2e-16 
1 57.000000000000007 40.000000000000014 101.99999999999983 0 2.2e-16 1 
Polygon3D 0
PolygonOnTriangulations 0
Surfaces 16
1 -1000 15.000000000000222 -2.8088999999999998e-13 -2.2e-16 -1 2.2e-16 -2.2e-16 2.2000000000000005e-16 1 -1 2.1999999999999995e-16 -2.2000000000000005e-16 
1 -7.5 1000 -2.2204000000000001e-13 -1 0 0 0 2.2e-16 1 0 1 -2.2e-16 
1 -1000 15.000000000000229 29.999999999999719 -3.4e-16 -0.79690463452702165 0.60410512617371015 -4.0000000000000028e-17 0.60410512617371015 0.79690463452702165 -1 2.4678337069223888e-16 -2.3727192828014232e-16 
1 7.5 1000 29.99999999999978 1 0 0 0 -2.2e-16 -1 0 1 -2.2e-16 
1 -1000 -14.999999999999778 -2.7422999999999998e-13 -2.8000000000000001e-16 2.2e-16 1 2.2e-16 1 -2.1999999999999995e-16 -1 2.1999999999999995e-16 -2.8000000000000006e-16 
1 7.5 1000 -2.2204000000000001e-13 -0 -2.2e-16 -1 -1 0 0 0 1 -2.2e-16 
1 43.999999999999993 1000 91.99999999999973 0.76923728183622786 -1.4000000000000001e-16 -0.63896322604138323 -0.63896322604138323 -1.7e-16 -0.76923728183622786 -9.3052896996323922e-19 1 -2.2022518955795238e-16 
1 -1000 -14.999999999999771 29.999999999999726 2.2e-16 1 -2.2e-16 2.2e-16 -2.2000000000000005e-16 -1 -1 2.1999999999999995e-16 -2.2000000000000005e-16 
1 -1000 62.000000000000256 91.99999999999973 -2.2e-16 -1 2.2e-16 -2.2e-16 2.2000000000000005e-16 1 -1 2.1999999999999995e-16 -2.2000000000000005e-16 
1 7.5 1000 29.99999999999978 -0.78148328824166702 1.4000000000000001e-16 0.62392617367681547 0.62392617367681547 1.7e-16 0.78148328824166702 3.3402108287747601e-18 1 -2.2020182331583756e-16 
1 -1000 40.000000000000256 91.99999999999973 3.5000000000000002e-16 0.7480746383750736 -0.66361459855853311 2.0000000000000026e-17 -0.66361459855853311 -0.7480746383750736 -1 2.4855383146010503e-16 -2.4722660226298802e-16 
1 43.999999999999993 1000 111.99999999999973 1 0 0 0 -2.2e-16 -1 0 1 -2.2e-16 
1 -1000 62.000000000000263 111.99999999999973 2.8000000000000001e-16 -2.2e-16 -1 -2.2e-16 -1 2.1999999999999995e-16 -1 2.1999999999999995e-16 -2.8000000000000006e-16 
1 57.000000000000014 1000 111.99999999999973 -0 -2.2e-16 -1 -1 0 0 0 1 -2.2e-16 
1 57.000000000000014 1000 91.99999999999973 -1 0 0 0 2.2e-16 1 0 1 -2.2e-16 
1 -1000 40.000000000000263 111.99999999999973 2.2e-16 1 -2.2e-16 2.2e-16 -2.2000000000000005e-16 -1 -1 2.1999999999999995e-16 -2.2000000000000005e-16 
Triangulations 0

TShapes 74
Ve
1.50000266e-07
-7.5 15 30
0 0

0101101
*
Ve
1.5e-07
-7.5 15 -4e-15
0 0

0101101
*
Ed
 1.5e-07 1 1 0
1  1 0 -30.0000000000001 -1.39e-13
2  1 1 6 -30.0000000000001 -1.39e-13
2  2 2 11 -30.0000000000001 -1.39e-13
0

0101000
+74 0 -73 0 *
Ve
1.50000379e-07
7.5 15 30
0 0

0101101
*
Ed
 1e-07 1 1 0
1  2 0 992.5 1007.5
2  3 1 0 992.5 1007.5
2  4 3 0 992.5 1007.5
0

0101000
+74 12 -71 12 *
Ve
1.5e-07
7.5 15 -2e-15
0 0

0101101
*
Ed
 1.5e-07 1 1 0
1  3 0 -14.9999999999999 15.0000000000001
2  5 1 6 -14.9999999999999 15.0000000000001
2  6 4 11 -14.9999999999999 15.0000000000001
0

0101000
+69 0 -71 0 *
Ed
 1e-07 1 1 0
1  4 0 992.5 1007.5
2  7 1 0 992.5 1007.5
2  8 5 0 992.5 1007.5
2  9 6 13 992.5 1007.5
0

0101000
+73 12 -69 12 *
Wi

0101100
+72 0 -70 6 +68 0 +67 6 *
Fa
0  1e-07 1 6

0111000
+66 0 *
Ve
1.50000226e-07
-7.5 -15 30
0 0

0101101
*
Ed
 1e-07 1 1 0
1  5 0 985 1015
2  10 2 0 985 1015
2  11 7 0 985 1015
0

0101000
+74 14 -64 14 *
Ve
1.5e-07
-7.5 -15 2e-15
0 0

0101101
*
Ed
 1.5e-07 1 1 0
1  6 0 -14.9999999999999 15.0000000000001
2  12 8 6 -14.9999999999999 15.0000000000001
2  13 2 11 -14.9999999999999 15.0000000000001
0

0101000
+62 0 -64 0 *
Ed
 1e-07 1 1 0
1  7 0 985 1015
2  14 6 0 985 1015
2  15 2 0 985 1015
2  16 5 15 985 1015
0

0101000
+73 14 -62 14 *
Wi

0101100
+72 0 -63 11 +61 0 +60 11 *
Fa
0  1e-07 2 11

0111000
+59 0 *
Ve
1.50000324e-07
44 62 92
0 0

0101101
*
Ed
 1.5e-07 1 1 0
1  8 0 -8.98963190608748 84.3122973344162
2  17 3 6 -8.98963190608748 84.3122973344162
2  18 7 11 -8.98963190608748 84.3122973344162
0

0101000
+74 0 -57 0 *
Ve
1.50000417e-07
57 62 92
0 0

0101101
*
Ed
 1e-07 1 1 0
1  9 0 1044 1057
2  19 3 0 1044 1057
2  7 9 0 1044 1057
0

0101000
+57 12 -55 12 *
Ed
 1.5e-07 1 1 0
1  10 0 -111.604300439505 -19.391231951357
2  20 3 6 -111.604300439505 -19.391231951357
2  21 10 11 -111.604300439505 -19.391231951357
0

0101000
+55 0 -71 0 *
Wi

0101100
-56 0 -54 6 -53 0 +70 6 *
Fa
0  1e-07 3 6

0111000
+52 0 *
Ve
1.5e-07
7.5 -15 4e-15
0 0

0101101
*
Ed
 1e-07 1 1 0
1  11 0 985 1015
2  22 4 0 985 1015
2  15 6 0 985 1015
2  23 5 15 985 1015
0

0101000
+69 14 -50 14 *
Ve
1.50000285e-07
7.5 -15 30
0 0

0101101
*
Ed
 1.5e-07 1 1 0
1  12 0 -1.4e-13 29.9999999999999
2  24 8 6 -1.4e-13 29.9999999999999
2  25 4 11 -1.4e-13 29.9999999999999
0

0101000
+48 0 -50 0 *
Ed
 1e-07 1 1 0
1  13 0 985 1015
2  15 4 0 985 1015
2  15 10 0 985 1015
0

0101000
+71 14 -48 14 *
Wi

0101100
+68 0 -49 11 +47 0 +46 11 *
Fa
0  1e-07 4 11

0111000
+45 0 *
Ed
 1e-07 1 1 0
1  14 0 992.5 1007.5
2  26 8 0 992.5 1007.5
2  27 5 0 992.5 1007.5
2  28 6 13 992.5 1007.5
0

0101000
+62 12 -50 12 *
Wi

0101100
+60 11 -67 6 -49 11 +43 6 *
Fa
0  1e-07 5 6

0111000
+42 0 *
Ve
1.5000032e-07
44 40 92
0 0

0101101
*
Ed
 1.5e-07 1 1 0
1  15 0 -4.94994241316614 92.6269503432644
2  29 11 6 -4.94994241316614 92.6269503432644
2  30 7 11 -4.94994241316614 92.6269503432644
0

0101000
+40 0 -64 0 *
Ed
 1e-07 1 1 0
1  16 0 938 960
2  31 7 0 938 960
2  32 12 0 938 960
0

0101000
+57 14 -40 14 *
Wi

0101100
+56 0 -63 11 +39 0 +38 11 *
Fa
0  1e-07 7 11

0111000
+37 0 *
Ed
 1e-07 1 1 0
1  17 0 992.5 1007.5
2  33 11 0 992.5 1007.5
2  34 8 0 992.5 1007.5
0

0101000
+64 12 -48 12 *
Wi

0101100
+61 0 -43 6 +47 0 +35 6 *
Fa
0  1e-07 8 6

0111000
+34 0 *
Ve
1.5e-07
44 62 112
0 0

0101101
*
Ed
 1.5e-07 1 1 0
1  18 0 -9.99999999999987 10.0000000000001
2  35 9 6 -9.99999999999987 10.0000000000001
2  36 12 11 -9.99999999999987 10.0000000000001
0

0101000
+57 0 -32 0 *
Ve
1.5e-07
57 62 112
0 0

0101101
*
Ed
 1e-07 1 1 0
1  19 0 1044 1057
2  37 9 0 1044 1057
2  15 13 0 1044 1057
2  38 14 13 1044 1057
0

0101000
+32 12 -30 12 *
Ed
 1.5e-07 1 1 0
1  20 0 -20.0000000000001 -1.35e-13
2  39 9 6 -20.0000000000001 -1.35e-13
2  40 15 11 -20.0000000000001 -1.35e-13
0

0101000
+30 0 -55 0 *
Wi

0101100
-31 0 -29 6 -28 0 +54 6 *
Fa
0  1e-07 9 6

0111000
+27 0 *
Ve
1.50000371e-07
57 40 92
0 0

0101101
*
Ed
 1e-07 1 1 0
1  21 0 938 960
2  41 10 0 938 960
2  15 15 0 938 960
0

0101000
+55 14 -25 14 *
Ed
 1.5e-07 1 1 0
1  22 0 -66.4141621626337 30.1221004540636
2  42 11 6 -66.4141621626337 30.1221004540636
2  43 10 11 -66.4141621626337 30.1221004540636
0

0101000
+48 0 -25 0 *
Wi

0101100
+53 0 -24 11 +23 0 +46 11 *
Fa
0  1e-07 10 11

0111000
+22 0 *
Ed
 1e-07 1 1 0
1  23 0 1044 1057
2  44 16 0 1044 1057
2  45 11 0 1044 1057
0

0101000
+40 12 -25 12 *
Wi

0101100
-39 0 -35 6 -23 0 +20 6 *
Fa
0  1e-07 11 6

0111000
+19 0 *
Ve
1.5e-07
44 40 112
0 0

0101101
*
Ed
 1.5e-07 1 1 0
1  24 0 -1.24e-13 19.9999999999999
2  46 16 6 -1.24e-13 19.9999999999999
2  47 12 11 -1.24e-13 19.9999999999999
0

0101000
+17 0 -40 0 *
Ed
 1e-07 1 1 0
1  25 0 938 960
2  15 12 0 938 960
2  48 14 0 938 960
2  49 13 15 938 960
0

0101000
+32 14 -17 14 *
Wi

0101100
+31 0 -38 11 +16 0 +15 11 *
Fa
0  1e-07 12 11

0111000
+14 0 *
Ve
1.5e-07
57 40 112
0 0

0101101
*
Ed
 1e-07 1 1 0
1  26 0 1044 1057
2  50 13 0 1044 1057
2  34 16 0 1044 1057
2  51 14 13 1044 1057
0

0101000
+17 12 -12 12 *
Ed
 1e-07 1 1 0
1  27 0 938 960
2  52 15 0 938 960
2  15 14 0 938 960
2  53 13 15 938 960
0

0101000
+30 14 -12 14 *
Wi

0101100
-15 11 -11 6 +10 11 +29 6 *
Fa
0  1e-07 13 6

0111000
+9 0 *
Ed
 1.5e-07 1 1 0
1  28 0 -9.99999999999986 10.0000000000001
2  54 16 6 -9.99999999999986 10.0000000000001
2  55 15 11 -9.99999999999986 10.0000000000001
0

0101000
+25 0 -12 0 *
Wi

0101100
+28 0 -10 11 +7 0 +24 11 *
Fa
0  1e-07 15 11

0111000
+6 0 *
Wi

0101100
-16 0 -20 6 -7 0 +11 6 *
Fa
0  1e-07 16 6

0111000
+4 0 *
Sh

0101100
-65 0 +58 0 -51 0 +44 0 -41 0 -36 0 -33 0 -26 0 -21 0 -18 0 
-13 0 -8 0 -5 0 -3 0 *
So

1100000
+2 0 *

+1 1 