DBRep_DrawableShape

CASCADE Topology V1, (c) Matra-Datavision
Locations 20
1
              1               0               0               0 
              0               1               0               0 
              0               0               1               0 
1
              1               0               0               0 
              0               1               0               0 
              0               0               1               0 
1
              1               0               0               0 
              0               1               0               0 
              0               0               1               0 
2  2 1 3 -1 0
2  3 1 2 -1 0
2  2 -1 0
1
              1               0               0               0 
              0               1               0               0 
              0               0               1               0 
2  7 -1 3 1 2 -1 0
1
              1               0               0               0 
              0               1               0               0 
              0               0               1               0 
1
-0.422618261740633               0 0.906307787036681              -0 
0.906307787036681               0 0.422618261740633              -0 
             -0               1               0               0 
1
              1               0               0 -1.81261557407336 
              0               1               0 -0.845236523481265 
              0               0               1              -0 
2  9 1 10 1 3 -1 11 1 0
2  9 1 10 1 3 -1 0
2  3 1 10 -1 9 -1 0
2  11 -1 3 1 10 -1 9 -1 0
2  10 -1 9 -1 0
2  2 1 10 -1 9 -1 0
2  3 -1 0
2  7 -1 0
2  3 -1 11 1 0
Curve2ds 50
1 -2 1.0000000000000018 1 4.0000000000000003e-17 
8 0 4
1 0 0 -1 -0 
1 -7.4999999999999996e-16 1.6099999999999999e-15 1 2.2e-16 
1 -2.000000000000004 6.5000000000000027 1 4.0000000000000003e-17 
1 2.0000000000000022 1.0000000000000018 3.0000000000000001e-17 -1 
8 -0 2
1 0 0 -1 -0 
1 1.9999999999999982 6.5000000000000027 3.0000000000000001e-17 -1 
1 2.0000000000000022 -1 -1 -4.0000000000000003e-17 
8 -0 4
1 0 0 -1 -0 
1 1.9999999999999982 4.5000000000000009 -1 -4.0000000000000003e-17 
1 0 0 1 0 
8 -2 -0
1 -1.999999999999998 -1 3.0000000000000001e-17 -1 
7 0 0  1 2 2  -3.5500000000000001e-15 2.2200000000000002e-15  2.0000000000000018 -5.4e-16 
 -2 2 -0 2
7 0 0  1 2 2  -2.0000000000000036 6.5000000000000027  -2.0000000000000036 4.4999999999999973 
 -2 2 -0 2
1 -4 0 0 1 
8 0 6.2902844041085455
1 -0 0 0 1 
1 -0 0 0 1 
8 0 6.2902844041085455
1 -2 0 0 1 
1 0 6.2902844041085455 1 0 
8 -4 -0
1 0 0 1 0 
1 4.0000000000000027 0 6.0000000000000001e-17 -1 
1 -3.5500000000000001e-15 0 -4.9999999999999999e-17 -1 
1 12.999999999999996 1.5e-16 -4.9999999999999999e-17 -1 
1 -9.9999999999999998e-17 -2 1 0 
1 1.9999999999999984 6.4999999999999973 -6.0000000000000001e-17 -1 
1 1.9999999999999982 -6.5 -1 6.0000000000000001e-17 
1 -1.9999999999999996 6.4999999999999991 -6.0000000000000001e-17 -1 
8 0 6.2902844041085455
1 -4 0 0 1 
8 -2 -0
1 0 0 1 0 
7 0 0  4 5 2  0 0  -0.030728655028911849 0.038658514049147732  -0.061457390046394278 0.077317056272031615  -0.092186148766618917 0.11597559982506436  -0.12291489445419745 0.15463411185407189 
 0 5 1 5
7 0 0  4 5 2  3.9999999999999982 0  4.0000000469577985 -0.50199350343736304  3.9741541227570094 -1.0039881845728593  3.9224624171075049 -1.5039828383249989  3.845232651066401 -2 
 0 5 1 5
7 0 0  4 5 2  -0.12291489445419845 0.15463411185407183  -0.59218617084064995 0.15463411230838492  -1.0614574472270952 0.15463411276269776  -1.5307287236135514 0.15463411321701123  -2 0.15463411367132435 
 0 5 1 5
7 0 0  4 5 2  1.8452326510663981 6.5000000000000027  1.845232616240301 6.0307287239746792  1.8452325814142099 5.5614574479493593  1.8452325465881052 5.0921861719240331  1.8452325117620081 4.6229148958987123 
 0 5 1 5
1 0 -2 1 0 
1 -2.0000000000000036 6.5000000000000027 1 -6.0000000000000001e-17 
1 12.999999999999998 1.5e-16 -4.9999999999999999e-17 -1 
7 0 0  5 14 4  0 0.15463411367132676  -0.21612275991685018 0.15722552038804735  -0.43218935710956818 0.15992530393677989  -0.64819508378804735 0.16274234752142541  -0.86413420116158191 0.16568740372922128  -1.260110780991327 0.17134768729135197  -1.4401705062350831 0.17402023907911707  -1.62017518626202 0.17679807871552869  -1.8001201256928105 0.17968990149117453  -2.3407231039023739 0.18875366305815494  -2.7011839929915533 0.19530037465619049  -3.0613378580663149 0.20242879999607555  -3.4211260883835992 0.21024517050737601  -3.7804554846771885 0.21891601093391083 
 0 6 0.28509800631180598 4 0.52297383714786239 4 1 6
7 0 0  5 14 4  1.8452325117620081 4.6229148958986999  1.6265057695443903 4.6249747601276416  1.4077256337044748 4.6271207706368402  1.1888877643730857 4.6293599884581775  0.96998692328726754 4.6317009605470201  0.56831608668636946 4.6362002165236902  0.38556706422241077 4.6383245786025533  0.20276634204624538 4.6405326315099336  0.01990970354099773 4.6428312869076223  -0.52982261031035538 4.6500358981870278  -0.8968817715620645 4.6552397471350444  -1.2642257302199165 4.6609060045784263  -1.6319051855866267 4.6671190674306855  -2.0000000000000036 4.6740113392742915 
 0 6 0.28509800631180598 4 0.52297383714786239 4 1 6
7 0 0  6 7 2  -4 0  -3.9999999546250256 0.037355162346444037  -3.9849637382209573 0.074714244780143046  -3.9548839712230275 0.1117924543027361  -3.9102100635746062 0.14832074143535565  -3.8517416140070919 0.18408239515892522  -3.7804554890061337 0.21891600670329242 
 0 7 1 7
7 0 0  6 7 2  2 -2.6599999999999998e-15  1.9703071641004044 -0.33581703479410252  1.9406112609184958 -0.6716695640501813  1.9111386467811102 -1.0066788002609373  1.8821031670602268 -1.3401173428066975  1.8536770730820837 -1.6713871789650274  1.8259886607257088 -2 
 0 7 1 7
8 0 2.1834638503413157
1 -0 0 0 1 
8 0 2.1834638503413157
1 -2 0 0 1 
1 0 2.1834638503413157 1 0 
8 -4.0000000000000018 -0
1 1.9999994884880183 1.0000010230233087 0.99999999999986922 5.1151172092999998e-07 
8 0 2.1834638503413157
1 -4 0 0 1 
8 -2.0000000000000009 -0
1 2.0000005115114594 -0.99999897697643192 5.1151172092999998e-07 -0.99999999999986933 
1 -2.0000005115114607 0.99999897697642481 5.1151172092999998e-07 -0.99999999999986933 
8 -0 2
1 0 2.1834638503413157 -1 -0 
1 -1.9999994884880188 -1.0000010230233123 0.99999999999986922 5.1151172092999998e-07 
8 -0 4
1 0 2.1834638503413157 -1 -0 
Curves 47
1 -3.8035643556656922 8.1567700833301284 13.000000000000002 -0.42261826174063244 0.90630778703668124 4.0000000000000009e-17 
1 -5.4940374026282228 11.782001231476855 13.000000000000002 -3.0000000000000001e-17 2.0000000000000001e-17 -1 
1 -5.4940374026282228 11.782001231476855 11 0.42261826174063244 -0.90630778703668124 -4.0000000000000009e-17 
7 0 0  1 2 2  -3.8035643556656922 8.1567700833301302 13.000000000000002  -3.8035643556656957 8.1567700833301302 10.999999999999996 
 -2 2 -0 2
7 0 0  11 21 3  -5.4940374026282228 11.782001231476857 13.000000000000002  -8.8589692415128525 10.212908129043555 13.227272032661338  -11.730956091493121 7.586689104131116 13.454546679883684  -13.740988988182099 4.0754190050517707 13.681816384005204  -14.587640610972613 -0.0039285080630369002 13.90909197385264  -14.102086857643727 -4.2197967961256984 14.136363281178079  -12.297205334516461 -8.0903955312764815 14.363635946894076  -9.3797588527081768 -11.17225332680659 14.590909253757239  -5.7105883230885235 -13.145838019103454 14.818181652782208  -1.7287711593551756 -13.86306364203468 15.045454423296205  5.9869826684027476 -12.83912574381084 15.499999890074083  11.730955550616303 -7.5866899775835988 15.954545356847365  13.740991416638227 -4.0754174246397108 16.1818181273728  14.587636225649714 0.0039264904446007602 16.409090526368129  14.102091779267518 4.2197992671834657 16.636363833283475  12.297201330630083 8.090392485446074 16.863636498932614  9.3797614605875061 11.172256373731532 17.090907806321695  5.7105870404232686 13.145835887069582 17.31818339612358  1.7287714122994404 13.863064610028539 17.545453100270734  -2.1291056265366723 13.351094430932076 17.772727747480058  -5.4940374634985192 11.782001324382449 17.999999780148151 
 0 12 3.1451422020542728 9 6.2902844041085455 12
7 0 0  11 21 3  -3.8035643556656931 8.1567700833301338 13.000000000000002  -6.1331326100838144 7.0704749493084078 13.227273421883949  -8.1214313746466971 5.252322931431892 13.454544229208881  -9.5129908339771898 2.8214455140980923 13.681819979626249  -10.099139267358749 -0.0027241346187081902 13.909089844337622  -9.7629791899049447 -2.9213909181621873 14.136363991539501  -8.5134527681903496 -5.6010490798556436 14.363636780386702  -6.4936778437729821 -7.7346340383362451 14.590908928055882  -3.9534846504487655 -9.100965417014157 14.818181983583928  -1.1968415714643044 -9.5975056108946433 15.04545466761186  4.1448341484253328 -8.8886255351195036 15.500000109927617  8.1214307571761672 -5.2523238604039113 15.954545552241104  9.512994757004309 -2.8214429712823668 16.181818236274641  10.099129959072593 0.0027192209034183601 16.409091291789046  9.7629925057340916 2.921397660327437 16.636363439479798  8.5134400967648496 5.6010423490543007 16.863636228302656  6.4936858346226476 7.734638994936085 17.090910375524963  3.9534816698302264 9.1009627586716135 17.318180240224379  1.1968419161828128 9.5975066018829711 17.545455990644154  -1.4739961313772441 9.2430653195817793 17.772726797973363  -3.8035643877088101 8.1567701896780864 18.000000219851835 
 0 12 3.1451422020542728 9 6.2902844041085455 12
7 0 0  1 2 2  -5.4940374634985192 11.782001324382449 17.999999780148151  -3.8035643877088101 8.1567701896780864 18.000000219851835 
 -4 2 -0 2
1 -5.4940374026282255 11.782001231476855 13 -0.90630778703668113 -0.42261826174063261 -0 
1 -5.4940374026282246 11.782001231476855 -7.1999999999999997e-16 -0.90630778703668113 -0.42261826174063261 -0 
1 13 12.999999999999996 0 0 -1 0 
1 13 0 0 -1 0 0 
1 9.0000000000000018 12.999999999999998 0 0 -1 0 
7 0 0  11 21 3  -3.8035643556656957 8.1567700833301302 10.999999999999996  -6.1331322880745427 7.070474333045115 11.227273421883531  -8.1214316461539138 5.2523241786012003 11.454544229210835  -9.5129908596491504 2.8214434156834556 11.681819979621213  -10.099137893916071 -0.00272181973927621 11.909089844346367  -9.7629810631208063 -2.921392801720569 12.136363991528617  -8.5134509658789419 -5.6010478547451941 12.363636780396574  -6.4936785847303726 -7.7346343980337329 12.590908928049409  -3.9534844188807066 -9.1009652362523195 12.818181983586847  -1.1968415592590755 -9.5975054818993115 13.045454667611166  4.1448340969970872 -8.8886254269269145 13.500000109928193  8.1214306654456365 -5.2523238056661068 13.954545552240676  9.5129948119384373 -2.8214428411578978 14.181818236276166  10.099128960548443 0.00271888443588566 14.4090912917856  9.7629943642300514 2.9213981821337636 14.636363439485313  8.51343724183244 5.6010419879853153 14.863636228296375  6.4936883321197634 7.7346383701405044 15.090910375530029  3.9534799492786306 9.1009638655160163 15.318180240221611  1.1968426678080686 9.5975053577849305 15.545455990645143  -1.4739963604697846 9.2430657365863809 15.772726797973156  -3.8035642947952577 8.1567699904247206 16.000000219851852 
 0 12 3.1451422020542728 9 6.2902844041085455 12
7 0 0  1 2 2  -3.8035643877088137 8.1567701896780864 18.000000219851835  -3.8035642947952577 8.1567699904247206 16.000000219851852 
 -2 2 -0 2
7 0 0  11 21 3  -5.4940374026282228 11.782001231476851 11  -8.8589689195035071 10.212907512780305 11.227272032661377  -11.730956363000708 7.5866903513002866 11.454546679883794  -13.74098901385311 4.0754169066375541 11.681816384004492  -14.587639237531624 -0.0039261931846123997 11.909091973854425  -14.102088730857364 -4.2197986796823308 12.136363281175319  -12.297203532207249 -8.0903943061681147 12.363635946896938  -9.3797595936640672 -11.172253686502462 12.590909253755269  -5.7105880915210818 -13.14583783834234 12.818181652782982  -1.7287711471498928 -13.86306351303924 13.045454423296206  5.9869826169746201 -12.839125635618259 13.499999890073743  11.730955458885488 -7.5866899228458911 13.954545356848046  13.740991471573896 -4.0754172945147307 14.181818127369525  14.587635227121828 0.0039261539760055897 14.409090526375378  14.102093637769514 4.2197997889912076 14.636363833272885  12.297198475690584 8.09039212437572 14.863636498943796  9.3797639580907148 11.172255748936971 15.090907806312977  5.7105853198678913 13.145836993913374 15.318183396128614  1.7287721639263156 13.863063365930769 15.545453100268693  -2.1291058556296276 13.351094847936613 15.772727747480548  -5.4940373705849685 11.782001125129081 15.999999780148162 
 0 12 3.1451422020542728 9 6.2902844041085455 12
7 0 0  1 2 2  -5.494037370584965 11.782001125129085 15.999999780148162  -5.4940374634985174 11.782001324382449 17.999999780148151 
 -2 2 -0 2
7 0 0  4 5 2  -5.4940374026282237 11.782001231476851 13.000000000000002  -5.9489980436805547 11.569849652207282 13.000000000000002  -6.3930367726858339 11.334273170296422 13.000000000000002  -6.8243399620701046 11.076117703492729 13.000000000000002  -7.241245468721063 10.796497854478044 13.000000000000002 
 0 5 1 5
7 0 0  4 5 2  -7.2412454687210621 10.796497854478044 13.000000000000002  -7.2412454540029181 10.796497822914882 12.530728723974679  -7.2412454392847758 10.796497791351724 12.061457447949358  -7.2412454245666282 10.796497759788554 11.592186171924032  -7.2412454098484833 10.796497728225392 11.122914895898711 
 0 5 1 5
7 0 0  11 21 3  -5.494037463498584 11.782001324382378 17.999999780148148  -8.8589693289193825 10.212908204568636 18.227271812799771  -11.730956199972825 7.5866891539291554 18.454546460033416  -13.740989109357846 4.0754190227063782 18.681816164143978  -14.587640734325092 -0.0039285259463463498 18.909091754004432  -14.102086971724869 -4.2197968490562587 19.13636306131276  -12.297205428606015 -8.0903956147376554 19.363635727046997  -9.3797589183539856 -11.172253432750498 19.590909033895979  -5.7105883552954069 -13.145838137252564 19.818181432928753  -1.7287711570134383 -13.863063761375207 20.045454203440109  5.986982734735526 -12.839125845054085 20.499999670218251  11.730955659094954 -7.5866900273851279 20.95454513699211  13.740991537817306 -4.0754174422897833 21.181817907514223  14.587636348995929 0.0039265083208195701 21.409090306518593  14.102091893358818 4.2197993201243289 21.636363613418489  12.297201424707977 8.0903925688953287 21.863636279087018  9.3797615262412712 11.172256479684572 22.090907586458076  5.7105870726275665 13.145836005214376 22.318183176271557  1.7287714099574887 13.863064729369521 22.545452880414143  -2.1291056608737313 13.351094541224009 22.772727527624532  -5.4940375243701274 11.782001417289571 22.999999560292093 
 0 12 3.1451422020542728 9 6.2902844041085455 12
7 0 0  11 21 3  -3.8035643877088754 8.1567701896780171 18.000000219851838  -6.1331326725014588 7.0704750465090491 18.227273641744535  -8.1214314645648553 5.2523230099336855 18.454544449064453  -9.5129909451789416 2.8214455653706896 18.681820199472742  -10.099139390725037 -0.0027241168046773798 18.90909006421203  -9.7629793143062589 -2.921390936595623 19.136364211371557  -8.5134528820786883 -5.6010491332214007 19.363637000264539  -6.4936779367525732 -7.7346341213357501 19.590909147896312  -3.953484714820855 -9.1009655211883125 19.818182203446884  -1.1968416030418982 -9.5975057260059646 20.045454887465841  4.1448341833441269 -8.888625651011008 20.500000329784722  8.1214308470919718 -5.2523239389083525 20.95454577209588  9.5129948682128624 -2.821443022552959 21.18181845613292  10.099130082426715 0.0027192030875652102 21.409091511640096  9.7629926301517695 2.921397678763392 21.636363659341598  8.5134402106379756 5.6010424024165619 21.863636448153088  6.493685927610354 7.7346390779380148 22.090910595383306  3.9534817342013513 9.10096286284484 22.318180460080146  1.196841947758833 9.59750671699401 22.545456210499129  -1.473996133047107 9.2430654350830697 22.772727017829187  -3.8035644197528717 8.1567702960277959 23.000000439707868 
 0 12 3.1451422020542728 9 6.2902844041085455 12
7 0 0  1 2 2  -5.4940375243701274 11.782001417289571 22.999999560292093  -3.8035644197528717 8.1567702960277959 23.000000439707868 
 -4 2 -0 2
1 8.9999999999999982 13.000000000000002 2.1000000000000001e-16 1 0 0 
1 -3.8035643556656948 8.156770083330132 -5.0000000000000004e-16 -0.90630778703668113 -0.42261826174063261 -0 
7 0 0  5 14 4  -7.2412454098484833 10.796497728225392 11.122914895898699  -7.1488074942562818 10.5982639785204 11.124974760127641  -7.0563470135442374 10.399981837759741 11.127120770636839  -6.9638621336043824 10.201647372686187 11.129359988458177  -6.8713506406511309 10.003255835821232 11.131700960547018  -6.7015972098949543 9.6392184287842984 11.13620021652369  -6.6243641356864362 9.4735915666518711 11.138324578602553  -6.5471092122354122 9.3079178486676835 11.140532631509933  -6.4698306575225892 9.1421934532790274 11.142831286907622  -6.237503742620075 8.6439667764498527 11.150035898187028  -6.082377837935903 8.3112982003042752 11.155239747135044  -5.9271315726669984 7.978371510051784 11.160906004578425  -5.7717435203621772 7.6451407565195284 11.167119067430685  -5.6161799297390544 7.3115335598488631 11.174011339274291 
 0 6 0.28509800631180598 4 0.52297383714786239 4 1 6
7 0 0  6 7 2  -3.8035643556656979 8.1567700833301302 10.999999999999998  -4.1079179493191589 8.0148476718225545 11.029692835899594  -4.4123037118799076 7.8729102597071554 11.059388739081502  -4.7159251913869271 7.7313292386327088 11.088861353218888  -5.0181231389943104 7.5904120213846902 11.11789683293977  -5.3183555711149708 7.4504113390603521 11.146322926917914  -5.616179929739058 7.3115335598488667 11.174011339274289 
 0 7 1 7
7 0 0  1 2 2  -3.8035642947952577 8.1567699904247153 16.000000219851852  -5.4940373705849685 11.782001125129081 15.999999780148162 
 -4 2 -0 2
7 0 0  11 21 3  -3.803564294795323 8.1567699904246478 16.000000219851856  -6.1331322006671103 7.0704742575203285 16.227273641745189  -8.1214315376767718 5.2523241288022522 16.45454444906234  -9.5129907384693588 2.821443398030993 16.681820199477265  -10.099137770567944 -0.0027218018595513999 16.909090064205042  -9.7629809490365105 -2.9213927487850904 17.13636421138029  -8.5134508717907309 -5.6010477712890596 17.363637000256105  -6.493678519084348 -7.7346342920861613 17.590909147902526  -3.9534843866739129 -9.1009651181048792 17.818182203443829  -1.1968415616007506 -9.5975053625585538 18.045454887466633  4.1448340306642821 -8.8886253256836945 18.500000329784204  8.1214305569668763 -5.2523237558649125 18.954545772096214  9.5129946907618486 -2.8214428235062257 19.181818456132611  10.099128837191829 0.0027188665550787298 19.409091511639854  9.7629942501603129 2.9213981292005804 19.636363659343356  8.5134371477293094 5.6010419045264968 19.863636448149968  6.493688266482188 7.7346382641946247 20.090910595386543  3.9534799170702328 9.1009637473673592 20.318180460078171  1.1968426701487569 9.5975052384445139 20.545456210499889  -1.4739963261321223 9.2430656262942605 20.772727017829059  -3.8035642339237632 8.156769897517357 21.000000439707915 
 0 12 3.1451422020542728 9 6.2902844041085455 12
7 0 0  1 2 2  -3.8035644197528717 8.1567702960277959 23.000000439707868  -3.8035642339237632 8.156769897517357 21.000000439707915 
 -2 2 -0 2
7 0 0  11 21 3  -5.4940373705850334 11.782001125129014 15.999999780148167  -8.858968857085074 10.212907415579553 16.227271812800602  -11.730956273084663 7.5866902727991841 16.454546460030507  -13.740988902648287 4.0754168553631569 16.681816164150366  -14.587639114168391 -0.0039262109952450898 16.909091753994328  -14.10208860645389 -4.2197986612532921 17.136363061325287  -12.297203418319949 -8.0903942527980544 17.363635727035156  -9.3797595006840009 -11.172253603506055 17.590909033904314  -5.7105880271494094 -13.145837734166701 17.818181432924998  -1.7287711155721268 -13.863063397928302 18.045454203440844  5.9869825820557239 -12.839125519726537 18.499999670218049  11.730955368969633 -7.5866898443416648 18.954545136991864  13.740991360367639 -4.0754172432437823 19.181817907516375  14.587635103757995 0.0039261717903221098 19.409090306514027  14.102093513371841 4.2197997705581951 19.636363613424717  12.297198361794569 8.0903920710093011 19.863636279080907  9.3797638651168622 11.172255665937543 20.090907586462777  5.7105852554942507 13.145836889739249 20.318183176268892  1.7287721323483158 13.863063250819025 20.545452880415223  -2.1291058539589578 13.351094732435453 20.772727527624316  -5.4940373385410117 11.782001018779141 20.999999560292135 
 0 12 3.1451422020542728 9 6.2902844041085455 12
7 0 0  1 2 2  -5.4940373385410153 11.782001018779138 20.999999560292135  -5.4940375243701203 11.78200141728958 22.999999560292093 
 -2 2 -0 2
7 0 0  11 21 3  -5.4940375243701354 11.782001417289615 22.999999560292093  -8.8589694163355581 10.21290828010433 23.227271592911691  -11.730956308459849 7.586689203725145 23.454546240172835  -13.740989230536586 4.0754190403617176 23.681815944276792  -14.587640857692911 -0.0039285438253841799 23.909091534126073  -14.102087085806035 -4.2197969020006454 24.136362841450627  -12.297205522707031 -8.0903956981947349 24.36363550717099  -9.3797589840001621 -11.172253538708469 24.590908814029696  -5.7105883875052488 -13.145838255406293 24.818181213057557  -1.7287711546709099 -13.86306388072413 25.045453983570034  5.986982801073065 -12.839125946303302 25.499999450348774  11.730955767580726 -7.5866900771894397 25.954544917121105  13.740991659003573 -4.0754174599408408 26.181817687648682  14.587636472356257 0.0039265261994953296 26.409090086639608  14.10209200744225 4.2197993730687671 26.636363393560206  12.297201518809691 8.0903926523495446 26.863636059206854  9.3797615918899577 11.172256585646577 27.090907366594241  5.7105871048304504 13.145836123367232 27.318182956395557  1.7287714076219141 13.863064848713744 27.545452660555554  -2.1291056952180694 13.351094651529943 27.77272730773948  -5.4940375852436771 11.782001510197567 27.999999340432662 
 0 12 3.1451422020542728 9 6.2902844041085455 12
7 0 0  11 21 3  -3.8035644197528784 8.1567702960278403 23.000000439707861  -6.1331327349247609 7.0704751437231348 23.22727386163605  -8.121431554492144 5.2523230884324628 23.45454466891632  -9.5129910563808426 2.8214456166514759 23.681820419352462  -10.099139514107474 -0.0027240989934555798 23.909090284076413  -9.7629794387091557 -2.9213909550279498 24.136364431246847  -8.5134529959780512 -5.6010491865948993 24.363637220129757  -6.4936780297358014 -7.7346342043372207 24.590909367769356  -3.9534847791970851 -9.1009656253718401 24.81818242331525  -1.1968416346209003 -9.5975058411240894 25.045455107336355  4.1448342182656521 -8.8886257669104616 25.500000549654082  8.1214309370140718 -5.2523240174167336 25.954545991966405  9.5129949794263542 -2.8214430738282763 26.181818676000535  10.099130205799014 0.0027191852753663702 26.409091731515439  9.7629927545566382 2.9213976971953786 26.636363879202982  8.5134403245411754 5.6010424557880105 26.863636668033006  6.4936860205919764 7.734639160942999 27.090910815243159  3.9534817985737418 9.1009629670279537 27.318180679962428  1.1968419793431695 9.5975068321064363 27.545456430352289  -1.4739961347212536 9.243065550599729 27.772727237716534  -3.8035644517981715 8.1567704023787506 28.000000659567231 
 0 12 3.1451422020542728 9 6.2902844041085455 12
7 0 0  1 2 2  -5.4940375852436771 11.782001510197567 27.999999340432662  -3.8035644517981715 8.1567704023787506 28.000000659567231 
 -4 2 -0 2
7 0 0  1 2 2  -3.8035642339237632 8.1567698975173588 21.000000439707915  -5.4940373385410117 11.782001018779141 20.999999560292135 
 -4 2 -0 2
7 0 0  11 21 3  -3.8035642339237699 8.1567698975173997 21.000000439707915  -6.1331321132498822 7.0704741819848032 21.22727386163654  -8.1214314291915546 5.2523240790062973 21.454544668915151  -9.5129906172892973 2.821443380374463 21.681820419354835  -10.099137647200381 -0.00272178397796138 21.909090284073237  -9.7629808349553464 -2.9213926958439971 22.136364431250879  -8.5134507776901813 -5.6010476878290083 22.3636372201257  -6.4936784534374379 -7.7346341861302399 22.590909367772788  -3.9534843544645173 -9.1009649999501558 22.818182423313548  -1.1968415639431735 -9.5975052432097865 23.045455107336792  4.1448339643267138 -8.8886252244345236 23.500000549654114  8.1214304484811066 -5.2523237060604098 23.95454599196621  9.5129945695740652 -2.8214428058556602 24.181818676002603  10.099128713839285 0.0027188486776573901 24.409091731510411  9.7629941360592145 2.9213980762535914 24.636363879211501  8.513437053650204 5.6010418210755333 24.863636668022956  6.4936882008171786 7.7346381582293082 25.090910815252148  3.9534798848727442 9.1009636292172544 25.318180679956754  1.1968426724843952 9.5975051190976028 25.545456430354964  -1.4739962917878398 9.2430655159890538 25.772727237715909  -3.8035641730504692 8.1567698046089632 26.000000659567338 
 0 12 3.1451422020542728 9 6.2902844041085455 12
7 0 0  1 2 2  -3.8035644517981715 8.1567704023787559 28.000000659567235  -3.8035641730504692 8.1567698046089632 26.000000659567338 
 -2 2 -0 2
7 0 0  11 21 3  -5.4940373385410251 11.782001018779178 20.999999560292132  -8.8589687946603632 10.212907318366049 21.227271592911286  -11.730956183160606 7.5866901942987051 21.454546240175404  -13.740988791441882 4.07541680408539 21.681815944270092  -14.58763899079082 -0.0039262288109716704 21.909091534138426  -14.10208848204663 -4.2197986428154843 22.136362841434771  -12.297203304423672 -8.0903941994298414 22.363635507186046  -9.3797594076991935 -11.172253520500867 22.59090881401977  -5.7105879627736824 -13.145837629984898 22.818181213061902  -1.7287710839930104 -13.863063282809744 23.045453983569391  5.9869825471340326 -12.839125403827483 23.49999945034898  11.73095527904777 -7.5866897658329311 23.954544917121623  13.740991249151328 -4.0754171919690014 24.181817687646429  14.587634980396574 0.0039261896033499603 24.409090086643886  14.102093388944494 4.2197997521250228 24.63636339355585  12.29719824791936 8.0903920176386936 24.863636059209991  9.3797637721144191 11.172255582932022 25.090907366592791  5.7105851911300496 13.145836785556789 25.31818295639636  1.7287721007628256 13.863063135704889 25.545452660555302  -2.1291058522845723 13.351094616919264 25.772727307739626  -5.4940373064959784 11.782000912427772 25.999999340432772 
 0 12 3.1451422020542728 9 6.2902844041085455 12
7 0 0  1 2 2  -5.4940373064959767 11.782000912427774 25.999999340432765  -5.4940375852436842 11.782001510197567 27.999999340432662 
 -2 2 -0 2
7 0 0  9 10 2  -5.4940375852435537 11.782001510197805 27.999999340432659  -8.3492088313103849 10.450613971270279 28.192840794544917  -10.841412581165832 8.3408324016213751 28.385687474739363  -12.728109326401691 5.5657574529855287 28.578522241430182  -13.807937385192616 2.3266249164397501 28.771376409344121  -13.958908318959502 -1.1050927615812893 28.964206271239487  -13.167694296713178 -4.4265314676667815 29.157060439158652  -11.531982337888318 -7.3565726884170299 29.349895205844518  -9.2346755315586577 -9.6770532943419987 29.542741886040321  -6.5074510049735821 -11.254025711591689 29.735583340153365 
 0 10 2.1834638503413157 10
7 0 0  9 10 2  -3.803564451798044 8.1567704023789958 28.000000659567231  -5.7802220244873599 7.2350405426569955 28.192844619494544  -7.5055909919366393 5.774423102673623 28.385683353337239  -8.8117719974467104 3.8532150240163539 28.578534000690993  -9.5593391319495851 1.6107441613345481 28.771365246810529  -9.6638581532277801 -0.76506857595336808 28.964220798956411  -9.1160995431543714 -3.0645183993905127 29.157052045079194  -7.9836782889126701 -5.0930133804053046 29.349902692429293  -6.3932374275349613 -6.6994980573313399 29.542741426274343  -4.5051585752622216 -7.7912486431224508 29.735585386200253 
 0 10 2.1834638503413157 10
7 0 0  1 2 2  -6.5074510049735821 -11.254025711591689 29.735583340153365  -4.5051585752622216 -7.7912486431224508 29.735585386200253 
 -4 2 -0 2
7 0 0  1 2 2  -3.803564173050471 8.1567698046089649 26.000000659567341  -5.4940373064959784 11.782000912427772 25.999999340432772 
 -4 2 -0 2
7 0 0  9 10 2  -3.80356417305034 8.1567698046092083 26.000000659567334  -5.7802210314659961 7.2350388955287848 26.192844619494927  -7.5055912122714492 5.7744253482372478 26.385683353337878  -8.8117701499903163 3.8532107952281285 26.578534000689967  -9.5593391116462225 1.6107459485975462 26.771365246810785  -9.6638562098001923 -0.76506665078089864 26.964220798958969  -9.116100050531184 -3.0645218766800015 27.157052045076146  -7.9836763796480694 -5.0930102107044171 27.349902692431272  -6.3932373661178055 -6.6994983583914385 27.542741426274123  -4.505158063166621 -7.7912477574955208 27.735585386200508 
 0 10 2.1834638503413157 10
7 0 0  1 2 2  -4.5051585752622207 -7.7912486431224517 29.735585386200253  -4.505158063166621 -7.7912477574955208 27.735585386200508 
 -2 2 -0 2
7 0 0  9 10 2  -5.4940373064958514 11.782000912428018 25.999999340432776  -8.3492078382890504 10.450612324142181 26.192840794545635  -10.84141280150056 8.340834647184673 26.385687474738791  -12.728107478945427 5.5657532241978327 26.578522241431607  -13.807937364889186 2.3266267037021602 26.771376409341013  -13.958906375531861 -1.1050908364083689 26.964206271245505  -13.167694804090052 -4.426534944956499 27.157060439153003  -11.531980428623717 -7.3565695187160713 27.349895205847808  -9.234675470141493 -9.6770535954021124 27.542741886039764  -6.5074504928779824 -11.254024825964759 27.735583340153632 
 0 10 2.1834638503413157 10
1 -6.5074510049735803 -11.254025711591687 29.735583340153369 2.5604779966e-07 4.4281346516999999e-07 -0.99999999999986933 
1 -6.5074504928779815 -11.254024825964757 27.735583340153632 0.50057310742783956 0.86569426711730912 5.1151172092999998e-07 
Polygon3D 0
PolygonOnTriangulations 0
Surfaces 24
1 -4.6488008791469566 9.9693856574034907 12 0.90630778703668124 0.42261826174063255 -2.0000000000000001e-17 -0.42261826174063255 0.90630778703668124 0 1.8126155740733623e-17 8.4523652348126498e-18 1 
9 0 0 0 0 1 11 2 21 2 3 -5.4940374026282228 11.782001231476857 13.000000000000002  -8.8589692415128525 10.212908129043555 13.227272032661338  -11.730956091493121 7.586689104131116 13.454546679883684  -13.740988988182099 4.0754190050517707 13.681816384005204  -14.587640610972613 -0.0039285080630369002 13.90909197385264  -14.102086857643727 -4.2197967961256984 14.136363281178079  -12.297205334516461 -8.0903955312764815 14.363635946894076  -9.3797588527081768 -11.17225332680659 14.590909253757239  -5.7105883230885235 -13.145838019103454 14.818181652782208  -1.7287711593551756 -13.86306364203468 15.045454423296205  5.9869826684027476 -12.83912574381084 15.499999890074083  11.730955550616303 -7.5866899775835988 15.954545356847365  13.740991416638227 -4.0754174246397108 16.1818181273728  14.587636225649714 0.0039264904446007602 16.409090526368129  14.102091779267518 4.2197992671834657 16.636363833283475  12.297201330630083 8.090392485446074 16.863636498932614  9.3797614605875061 11.172256373731532 17.090907806321695  5.7105870404232686 13.145835887069582 17.31818339612358  1.7287714122994404 13.863064610028539 17.545453100270734  -2.1291056265366723 13.351094430932076 17.772727747480058  -5.4940374634985192 11.782001324382449 17.999999780148151  
-3.8035643556656931 8.1567700833301338 13.000000000000002  -6.1331326100838144 7.0704749493084078 13.227273421883949  -8.1214313746466971 5.252322931431892 13.454544229208881  -9.5129908339771898 2.8214455140980923 13.681819979626249  -10.099139267358749 -0.0027241346187081902 13.909089844337622  -9.7629791899049447 -2.9213909181621873 14.136363991539501  -8.5134527681903496 -5.6010490798556436 14.363636780386702  -6.4936778437729821 -7.7346340383362451 14.590908928055882  -3.9534846504487655 -9.100965417014157 14.818181983583928  -1.1968415714643044 -9.5975056108946433 15.04545466761186  4.1448341484253328 -8.8886255351195036 15.500000109927617  8.1214307571761672 -5.2523238604039113 15.954545552241104  9.512994757004309 -2.8214429712823668 16.181818236274641  10.099129959072593 0.0027192209034183601 16.409091291789046  9.7629925057340916 2.921397660327437 16.636363439479798  8.5134400967648496 5.6010423490543007 16.863636228302656  6.4936858346226476 7.734638994936085 17.090910375524963  3.9534816698302264 9.1009627586716135 17.318180240224379  1.1968419161828128 9.5975066018829711 17.545455990644154  -1.4739961313772441 9.2430653195817793 17.772726797973363  -3.8035643877088101 8.1567701896780864 18.000000219851835  

-4 2
-0 2

0 12
3.1451422020542728 9
6.2902844041085455 12

1 -3.803564355665694 8.1567700833301284 13.000000000000002 2.0000000000000001e-17 -4.9999999999999999e-17 -1 -0.42261826174063266 0.90630778703668113 -5.3767754586646716e-17 0.90630778703668113 0.42261826174063266 -3.004757346298008e-18 
1 -4.6488008791469593 9.9693856574034942 6.4999999999999991 0.90630778703668113 0.42261826174063266 6.0000000000000001e-17 -0.42261826174063266 0.90630778703668113 0 -5.437846722220087e-17 -2.535709570443796e-17 1 
9 0 0 0 0 1 11 2 21 2 3 -5.4940374026282246 11.782001231476851 11.000000000000002  -8.858968919503825 10.212907512780172 11.227272032661496  -11.730956362999402 7.5866903513007813 11.454546679883251  -13.740989013856248 4.0754169066363728 11.681816384005941  -14.587639237526339 -0.0039261931825777304 11.909091973851648  -14.102088730863898 -4.2197986796850282 12.136363281179294  -12.2972035322013 -8.0903943061653329 12.363635946892732  -9.3797595936679059 -11.172253686504602 12.590909253758493  -5.7105880915195053 -13.145837838341224 12.81818165278135  -1.7287711471501137 -13.863063513039517 13.045454423296601  5.9869826169745668 -12.839125635618078 13.499999890073493  11.73095545888583 -7.586689922845923 13.954545356848154  13.740991471571837 -4.0754172945151899 14.181818127369478  14.58763522712662 0.0039261539774550699 14.409090526375183  14.102093637762282 4.2197997889888406 14.636363833273451  12.297198475698416 8.090392124378246 14.863636498942984  9.3797639580844585 11.172255748935079 15.090907806313751  5.7105853198715613 13.145836993914402 15.318183396128102  1.7287721639248022 13.863063365930371 15.545453100268915  -2.1291058556292537 13.351094847936711 15.77272774748049  -5.494037370584965 11.782001125129085 15.999999780148162  
-5.494037402628221 11.782001231476857 13.000000000000002  -8.8589692415127246 10.212908129043656 13.227272032661373  -11.730956091493686 7.5866891041306133 13.454546679883517  -13.740988988180733 4.0754190050531571 13.681816384005625  -14.587640610974868 -0.0039285080656955096 13.909091973851899  -14.102086857640973 -4.2197967961219947 14.136363281179028  -12.297205334519052 -8.0903955312802811 14.363635946893224  -9.379758852706308 -11.172253326803791 14.590909253757735  -5.7105883230894925 -13.145838019104801 14.818181652782087  -1.72877115935488 -13.863063642034383 15.045454423296155  5.9869826684024305 -12.839125743811014 15.499999890074221  11.730955550616658 -7.5866899775835472 15.954545356847138  13.740991416636883 -4.0754174246395696 16.181818127373784  14.587636225652478 0.0039264904440518902 16.409090526366032  14.102091779263782 4.2197992671845004 16.636363833286545  12.297201330633731 8.0903924854447169 16.863636498929225  9.3797614605848345 11.172256373732855 17.090907806324587  5.7105870404247696 13.145835887068658 17.318183396121725  1.7287714122988433 13.863064610028978 17.545453100271565  -2.1291056265365396 13.35109443093196 17.772727747479845  -5.4940374634985174 11.782001324382449 17.999999780148151  

-2 2
-0 2

0 12
3.1451422020542728 9
6.2902844041085455 12

9 0 0 0 0 1 11 2 21 2 3 -3.8035643556656948 8.1567700833301284 10.999999999999998  -6.1331322880744992 7.0704743330450821 11.227273421883742  -8.1214316461540239 5.2523241786013477 11.454544229209969  -9.5129908596491113 2.8214434156831101 11.681819979623196  -10.099137893915866 -0.00272181973874685 11.909089844343312  -9.7629810631212859 -2.9213928017211233 12.136363991532049  -8.5134509658784179 -5.6010478547447935 12.363636780393746  -6.4936785847307501 -7.7346343980339389 12.590908928051148  -3.9534844188805129 -9.1009652362522431 12.818181983586049  -1.1968415592591615 -9.5975054818993275 13.045454667611432  4.1448340969972222 -8.8886254269269287 13.500000109927836  8.1214306654454571 -5.2523238056660535 13.954545552241123  9.5129948119392189 -2.8214428411581864 14.181818236274287  10.09912896054677 0.0027188844365932802 14.409091291789585  9.7629943642325063 2.9213981821326134 14.636363439479556  8.5134372418297453 5.601041987986676 14.863636228302505  6.4936883321220185 7.7346383701393142 15.090910375525096  3.9534799492772392 9.1009638655167677 15.318180240224589  1.196842667808665 9.5975053577846037 15.545455990643868  -1.4739963604699304 9.2430657365864626 15.772726797973476  -3.8035642947952577 8.1567699904247153 16.000000219851852  
-5.4940374026282228 11.782001231476851 11  -8.8589689195035071 10.212907512780305 11.227272032661377  -11.730956363000708 7.5866903513002866 11.454546679883794  -13.74098901385311 4.0754169066375541 11.681816384004492  -14.587639237531624 -0.0039261931846123997 11.909091973854425  -14.102088730857364 -4.2197986796823308 12.136363281175319  -12.297203532207249 -8.0903943061681147 12.363635946896938  -9.3797595936640672 -11.172253686502462 12.590909253755269  -5.7105880915210818 -13.14583783834234 12.818181652782982  -1.7287711471498928 -13.86306351303924 13.045454423296206  5.9869826169746201 -12.839125635618259 13.499999890073743  11.730955458885488 -7.5866899228458911 13.954545356848046  13.740991471573896 -4.0754172945147307 14.181818127369525  14.587635227121828 0.0039261539760055897 14.409090526375378  14.102093637769514 4.2197997889912076 14.636363833272885  12.297198475690584 8.09039212437572 14.863636498943796  9.3797639580907148 11.172255748936971 15.090907806312977  5.7105853198678913 13.145836993913374 15.318183396128614  1.7287721639263156 13.863063365930769 15.545453100268693  -2.1291058556296276 13.351094847936613 15.772727747480548  -5.4940373705849685 11.782001125129081 15.999999780148162  

-4 2
-0 2

0 12
3.1451422020542728 9
6.2902844041085455 12

9 0 0 0 0 1 11 2 21 2 3 -3.8035643556656922 8.1567700833301302 13.000000000000002  -6.1331326100837655 7.0704749493085099 13.227273421883988  -8.121431374646944 5.2523229314314417 13.454544229208691  -9.5129908339764953 2.8214455140992047 13.681819979626747  -10.099139267360107 -0.0027241346205891799 13.909089844336664  -9.7629791899030547 -2.9213909181598687 14.136363991540961  -8.5134527681922325 -5.6010490798577512 14.36363678038493  -6.4936778437716614 -7.7346340383348577 14.590908928057482  -3.9534846504493659 -9.1009654170147805 14.818181983582964  -1.1968415714641794 -9.5975056108945083 15.045454667612198  4.1448341484252671 -8.8886255351195729 15.500000109927221  8.1214307571761779 -5.2523238604039184 15.954545552241553  9.5129947570043445 -2.8214429712820666 16.181818236272839  10.099129959072556 0.0027192209025353898 16.409091291792816  9.7629925057341715 2.9213976603289273 16.636363439474426  8.5134400967646933 5.6010423490525643 16.863636228308298  6.4936858346228616 7.7346389949375469 17.090910375520483  3.9534816698300501 9.1009627586707307 17.318180240227051  1.1968419161829076 9.5975066018833406 17.545455990643028  -1.4739961313772634 9.243065319581687 17.772726797973633  -3.8035643877088137 8.1567701896780864 18.000000219851835  
-3.8035643556656957 8.1567700833301302 10.999999999999996  -6.1331322880745427 7.070474333045115 11.227273421883531  -8.1214316461539138 5.2523241786012003 11.454544229210835  -9.5129908596491504 2.8214434156834556 11.681819979621213  -10.099137893916071 -0.00272181973927621 11.909089844346367  -9.7629810631208063 -2.921392801720569 12.136363991528617  -8.5134509658789419 -5.6010478547451941 12.363636780396574  -6.4936785847303726 -7.7346343980337329 12.590908928049409  -3.9534844188807066 -9.1009652362523195 12.818181983586847  -1.1968415592590755 -9.5975054818993115 13.045454667611166  4.1448340969970872 -8.8886254269269145 13.500000109928193  8.1214306654456365 -5.2523238056661068 13.954545552240676  9.5129948119384373 -2.8214428411578978 14.181818236276166  10.099128960548443 0.00271888443588566 14.4090912917856  9.7629943642300514 2.9213981821337636 14.636363439485313  8.51343724183244 5.6010419879853153 14.863636228296375  6.4936883321197634 7.7346383701405044 15.090910375530029  3.9534799492786306 9.1009638655160163 15.318180240221611  1.1968426678080686 9.5975053577849305 15.545455990645143  -1.4739963604697846 9.2430657365863809 15.772726797973156  -3.8035642947952577 8.1567699904247206 16.000000219851852  

-2 2
-0 2

0 12
3.1451422020542728 9
6.2902844041085455 12

1 -3.8035643556656957 8.156770083330132 12.999999999999998 0.42261826174063261 -0.90630778703668113 6.0000000000000001e-17 7.1363995396687542e-17 -3.2925097567740171e-17 -1 0.90630778703668113 0.42261826174063261 5.0762997240348702e-17 
9 0 0 0 0 2 11 5 41 4 5 0.83826202528274096 14.734806717588812 3.5723080083555008  0.26259840213042551 14.466369837123754 3.6111891199653829  -0.31306521326253567 14.197932960276988 3.6500702312804982  -0.88872882089614347 13.929496087048424 3.688951342300836  -1.4643924207703933 13.661059217438066 3.7278324530264104  -2.0400560128852936 13.392622351445977 3.7667135634572118  -2.615719597240838 13.124185489072133 3.8055946735932453  -3.1913831738370204 12.855748630316578 3.8444757834345031  -3.7670467426738479 12.587311775179266 3.8833568929809905  -4.342710303751347 12.318874923660211 3.9222380022327128  -4.9183738570694846 12.0504380757594 3.9611191111896646  -8.8589677924727184 10.212905355858043 4.2272722525137683  -11.730957313269377 7.5866947163962326 4.4545468997365258  -13.740989103720548 4.0754095621778585 4.6818166038616438  -14.587634430456648 -0.0039180910919199901 4.909092193709836  -14.102095287143927 -4.2198052721554387 5.1363635010373176  -12.29719722408937 -8.0903900182631432 5.3636361667487362  -9.3797621870334105 -11.172254945457397 5.590909473610937  -5.710587281024579 -13.145837205668732 5.8181818726332741  -1.7287711044334322 -13.863063061557499 6.0454546431484655  5.9869824369770459 -12.839125256942816 6.500000109925355  11.730955137827952 -7.5866897312642445 6.9545455767000135  13.740991663844172 -4.0754168390798782 7.1818183472213448  14.587631732286223 0.0039249763444031997 7.4090907462280038  14.102100142506828 4.2198016153039735 7.6363640531285606  12.297188483425119 8.0903908606456305 7.8636367188020797  9.3797726993328734 11.172253562142926 8.0909080261713999  5.7105792979355181 13.145840867874385 8.3181836159836138  1.7287747946155754 13.863059011585376 8.5454533201226131  -2.1291066574537294 13.351096307453286 8.7727279673325373  -6.0697006075934867 11.513563574844515 9.0388811098098145  -6.6453641741640439 11.245126719911498 9.0777622196851091  -7.2210277450991995 10.976689862943207 9.1166433296259335  -7.7966913203989812 10.708253003939673 9.1555244396322877  -8.3723549000633568 10.439816142900879 9.1944055497041877  -8.9480184840923496 10.171379279826812 9.2332866598416174  -9.5236820724859612 9.902942414717522 9.2721677700445859  -10.09934566524419 9.6345055475729868 9.3110488803130806  -10.675009262367043 9.3660686783931926 9.3499299906471158  -11.250672863854481 9.0976318071781055 9.3888111010466897  -11.826336469706543 8.8291949339277913 9.427692211511788  
0.83826299238101953 14.734804644553464 7.0723078984288286  0.26259928979743236 14.466367956503603 7.1111890111854246  -0.3130644067241512 14.197931271280531 7.1500701235326014  -0.88872809718373147 13.929494588884193 7.1889512354702987  -1.4643917815813059 13.661057909314593 7.2278323469986008  -2.0400554599168794 13.392621232571763 7.2667134581174455  -2.6157191321904478 13.12418455865569 7.3055945688268569  -3.1913827984020084 12.855747887566402 7.3444756791268233  -3.7670464585515653 12.587311219303873 7.3833567890173546  -4.342710112639133 12.318874553868103 7.4222378984984481  -4.918373760664692 12.050437891259094 7.4611190075701268  -8.8589683559882726 10.212906434319109 7.7272721488940626  -11.730956838134389 7.5866925338485025 7.9545467961151397  -13.740989058788399 4.0754132344071223 8.181816500238849  -14.587636833991498 -0.00392214213725615 8.4090920900835684  -14.102092009003906 -4.2198019759202277 8.636363397412115  -12.297200378145339 -8.0903921622142416 8.863636063124229  -9.3797608903506564 -11.172254315980998 9.090909369992179  -5.7105876862720431 -13.145837522004978 9.3181817690124191  -1.7287711257917731 -13.863063287298509 9.5454545395297394  5.9869825269758064 -12.839125446280448 10.000000006304575  11.730955298356891 -7.5866898270550838 10.454545473082288  13.740991567708004 -4.0754170667975345 10.681818243594298  14.587633479706424 0.0039255651609302004 10.909090642623546  14.102096890134549 4.2198007021464052 11.136363949482895  12.297193479561775 8.0903914925119391 11.363636615199418  9.3797683287086588 11.172254655539003 11.590907922527144  5.710582308903545 13.14583893089439 11.818183512371611  1.7287734792701863 13.863061188757877 12.045453216496632  -2.1291062565414909 13.351095577694997 12.272727863713971  -6.0697008665961896 11.513564108036618 12.538881006190048  -6.6453645278733884 11.245127438393794 12.577762116179716  -7.2210281918178429 10.976690767507192 12.616643226349503  -7.7966918584295666 10.708254095376828 12.655524336699465  -8.372355527708546 10.439817422002697 12.694405447229579  -8.9480191996547891 10.171380747384788 12.73328655793982  -9.5236828742682977 9.9029440715231285 12.772167668830273  -10.099346551549075 9.6345073944177138 12.811048779900823  -10.67501023149712 9.3660707160685241 12.849929891151547  -11.250673914112413 9.097634036475549 12.888811002582433  -11.826337599394977 8.8291973556388204 12.927692114193462  
0.83826423579310116 14.734801979222281 11.57230779030378  0.26260043108359166 14.466365538563394 11.611188901586363  -0.31306336974622201 14.197929099713646 11.650070012606905  -0.88872716669633933 13.929492662673029 11.68895112336541  -1.4643909597667608 13.661056227441547 11.727832233861873  -2.0400547489574863 13.392619794019195 11.766713344096297  -2.6157185342685154 13.124183362405974 11.805594454068682  -3.1913823156998489 12.855746932601887 11.844475563779024  -3.7670460932514866 12.587310504606933 11.883356673227325  -4.3427098669234274 12.318874078421105 11.922237782413591  -4.9183736367156721 12.050437654044412 11.961118891337811  -8.8589690805082739 10.212907820911914 12.227272032661435  -11.730956227246544 7.5866897277156973 12.454546679883384  -13.740989001018491 4.075417955844765 12.681816384005783  -14.587639924250603 -0.0039273506241366196 12.909091973851773  -14.102087794252435 -4.2197977379035114 13.136363281179161  -12.297204433360175 -8.0903949187228079 13.363635946892977  -9.3797592231871079 -11.172253506654197 13.590909253758113  -5.7105882073044985 -13.145837928723012 13.818181652781718  -1.728771153252497 -13.86306357753695 14.045454423296377  5.9869826426884991 -12.839125689714546 14.499999890073857  11.730955504751243 -7.5866899502147351 14.954545356847646  13.74099144410436 -4.0754173595773793 15.181818127371631  14.58763572638955 0.0039263222107534801 15.409090526370608  14.102092708513032 4.2197995280866705 15.636363833279997  12.297199903166074 8.0903923049114823 15.863636498936105  9.3797627093346456 11.172256061333968 16.090907806319169  5.7105861801481659 13.14583644049153 16.318183396124915  1.7287717881118227 13.863063987979675 16.54545310027024  -2.1291057410828964 13.351094639434336 16.772727747480168  -6.0697011995996659 11.513564793569328 17.038880889957916  -6.6453649826425467 11.245128362156748 17.077761999800423  -7.2210287661703854 10.976691930518033 17.116643109675692  -7.7966925501831792 10.708255498653175 17.155524219583704  -8.3723563346809335 10.439819066562183 17.194405329524482  -8.9480201196636422 10.171382634245047 17.233286439498016  -9.5236839051313069 9.9029462017017718 17.272167549504296  -10.099347691083928 9.6345097689323644 17.311048659543335  -10.675011477521508 9.3660733359368109 17.34992976961513  -11.250675264444041 9.09763690271512 17.388810879719685  -11.826339051851534 8.8292004692672865 17.427691989856982  
0.83826547920448646 14.734799313890816 16.072307688460658  0.26260157236918275 14.466363120622956 16.111188798269232  -0.31306233276874601 14.197926928146613 16.150069907963147  -0.8887262362092998 13.92949073646176 16.188951017542433  -1.4643901379524777 13.661054545568403 16.227832127007069  -2.0400540379982801 13.392618355466544 16.26671323635707  -2.6157179363467074 13.124182166156187 16.305594345592418  -3.191381832997759 12.855745977637325 16.34447545471313  -3.7670457279514356 12.587309789909959 16.3833565637192  -4.3427096212077378 12.318873602974094 16.422237672610621  -4.9183735127666646 12.05043741682973 16.461118781387402  -8.8589698050282841 10.212909207504721 16.727271922710685  -11.730955616358699 7.5866869215828876 16.954546569933513  -13.740988943248583 4.0754226772824147 17.181816274054601  -14.58764301450972 -0.0039325591110243498 17.409091863901867  -14.102083579500958 -4.2197934998867899 17.636363171228091  -12.297208488575023 -8.0903976752313707 17.863635836943615  -9.3797575560235487 -11.172252697327387 18.090909143805938  -5.7105887283369592 -13.145838335441052 18.31818154283291  -1.72877118071322 -13.863063867775393 18.545454313344905  5.9869827584011874 -12.839125933148646 18.999999780125023  11.730955711145604 -7.5866900733743865 19.454545246894888  13.740991320500715 -4.0754176523572285 19.681818017430849  14.58763797307267 0.0039270792605778197 19.909090416399547  14.10208852689151 4.2197983540269339 20.13636372335899  12.297206326770374 8.0903931173110184 20.363636388954674  9.3797570899606324 11.172257467128926 20.590907696393078  5.7105900513927885 13.145833950088667 20.818183286160089  1.7287700969534567 13.863066787201468 21.045452990325732  -2.1291052256243033 13.351093701173665 21.272727637528241  -6.0697015326031423 11.513565479102038 21.538880780007652  -6.6453654374117059 11.245129285919704 21.57776188970303  -7.2210293405229287 10.976693093528876 21.616642999283766  -7.7966932419367962 10.708256901929524 21.655524108749827  -8.372357141653314 10.439820711121664 21.69440521810127  -8.9480210396724971 10.17138452110531 21.733286327338082  -9.523684935994309 9.9029483318804168 21.772167436460204  -10.099348830618791 9.6345121434470116 21.811048545467731  -10.675012723545889 9.3660759558051083 21.849929654360615  -11.250676614775662 9.0976397689546964 21.888810763138821  -11.826340504308094 8.829203582895758 21.927691871802402  
0.83826644630141545 14.734797240854949 19.572307584865033  0.26260246003508586 14.466361240002398 19.611188693527133  -0.3130615262312435 14.197925239149845 19.65006980218924  -0.88872551249757303 13.929489238297291 19.688950910851336  -1.4643894987639023 13.661053237444737 19.727832019513432  -2.040053485030231 13.39261723659218 19.766713128175535  -2.6157174712965614 13.124181235739627 19.805594236837639  -3.1913814575628909 12.855745234887076 19.844475345499749  -3.7670454438292209 12.587309234034525 19.883356454161849  -4.3427094300955513 12.318873233181968 19.922237562823952  -4.91837341636188 12.050437232329417 19.961118671486055  -8.8589703685438437 10.212910285965785 20.2272718128091  -11.730955141223712 7.5866847390351619 20.454546460030244  -13.740988898316433 4.0754263495116723 20.681816164149922  -14.587645418044572 -0.0039366101563532499 20.90909175399371  -14.102080301360942 -4.2197902036515851 21.136363061321006  -12.297211642630995 -8.0903998191824602 21.36363572703722  -9.3797562593407893 -11.172252067850984 21.590909033905291  -5.7105891335844259 -13.145838651777304 21.818181432930167  -1.72877120207156 -13.863064093516403 22.04545420344429  5.9869828483999443 -12.839126122486277 22.499999670222355  11.730955871674551 -7.5866901691652258 22.954545136995279  13.740991224364548 -4.0754178800748875 23.181817907521921  14.587639720492863 0.00392766807710377 23.409090306513214  14.102085274519238 4.2197974408693675 23.636363613431435  12.297211322907016 8.0903937491773199 23.863636279070128  9.3797527193364303 11.172258560524996 24.09090758646694  5.7105930623608074 13.145832013108674 24.318183176266217  1.7287687816080701 13.863068964373959 24.545452880417869  -2.129104824712067 13.351092971415371 24.772727527627797  -6.0697017916058442 11.513566012294142 25.038880670106014  -6.6453657911210495 11.245130004401998 25.077761779915743  -7.2210297872415712 10.976693998092859 25.116642889725451  -7.7966937799673834 10.708257993366677 25.15552399953512  -8.3723577692984943 10.439821990223473 25.194405109344782  -8.9480217552349348 10.171385988663284 25.233286219154415  -9.5236857377766384 9.9029499886860215 25.272167328964009  -10.09934971692368 9.6345139902917278 25.311048438773589  -10.675013692675957 9.3660779934804417 25.349929548583152  -11.250677665033585 9.0976419982521364 25.388810658392678  -11.826341633996526 8.8292060046067835 25.427691768202184  

-8.9999997675352876 3
-2 1
-0 1
6.9999997800990581 3

-0.53806275362646172 12
0 10
3.1451422020542728 9
6.2902844041085455 10
6.8283471736003518 12

9 0 0 0 0 1 11 2 21 2 3 -5.494037463498584 11.782001324382378 17.999999780148148  -8.8589693289193825 10.212908204568636 18.227271812799771  -11.730956199972825 7.5866891539291554 18.454546460033416  -13.740989109357846 4.0754190227063782 18.681816164143978  -14.587640734325092 -0.0039285259463463498 18.909091754004432  -14.102086971724869 -4.2197968490562587 19.13636306131276  -12.297205428606015 -8.0903956147376554 19.363635727046997  -9.3797589183539856 -11.172253432750498 19.590909033895979  -5.7105883552954069 -13.145838137252564 19.818181432928753  -1.7287711570134383 -13.863063761375207 20.045454203440109  5.986982734735526 -12.839125845054085 20.499999670218251  11.730955659094954 -7.5866900273851279 20.95454513699211  13.740991537817306 -4.0754174422897833 21.181817907514223  14.587636348995929 0.0039265083208195701 21.409090306518593  14.102091893358818 4.2197993201243289 21.636363613418489  12.297201424707977 8.0903925688953287 21.863636279087018  9.3797615262412712 11.172256479684572 22.090907586458076  5.7105870726275665 13.145836005214376 22.318183176271557  1.7287714099574887 13.863064729369521 22.545452880414143  -2.1291056608737313 13.351094541224009 22.772727527624532  -5.4940375243701274 11.782001417289571 22.999999560292093  
-3.8035643877088754 8.1567701896780171 18.000000219851838  -6.1331326725014588 7.0704750465090491 18.227273641744535  -8.1214314645648553 5.2523230099336855 18.454544449064453  -9.5129909451789416 2.8214455653706896 18.681820199472742  -10.099139390725037 -0.0027241168046773798 18.90909006421203  -9.7629793143062589 -2.921390936595623 19.136364211371557  -8.5134528820786883 -5.6010491332214007 19.363637000264539  -6.4936779367525732 -7.7346341213357501 19.590909147896312  -3.953484714820855 -9.1009655211883125 19.818182203446884  -1.1968416030418982 -9.5975057260059646 20.045454887465841  4.1448341833441269 -8.888625651011008 20.500000329784722  8.1214308470919718 -5.2523239389083525 20.95454577209588  9.5129948682128624 -2.821443022552959 21.18181845613292  10.099130082426715 0.0027192030875652102 21.409091511640096  9.7629926301517695 2.921397678763392 21.636363659341598  8.5134402106379756 5.6010424024165619 21.863636448153088  6.493685927610354 7.7346390779380148 22.090910595383306  3.9534817342013513 9.10096286284484 22.318180460080146  1.196841947758833 9.59750671699401 22.545456210499129  -1.473996133047107 9.2430654350830697 22.772727017829187  -3.8035644197528717 8.1567702960277959 23.000000439707868  

-4 2
-0 2

0 12
3.1451422020542728 9
6.2902844041085455 12

1 -5.4940374026282255 11.782001231476855 12.999999999999996 0.42261826174063261 -0.90630778703668113 6.0000000000000001e-17 7.1363995396687542e-17 -3.2925097567740171e-17 -1 0.90630778703668113 0.42261826174063261 5.0762997240348702e-17 
9 0 0 0 0 1 11 2 21 2 3 -3.8035643877088754 8.1567701896780154 18.000000219851842  -6.1331326725014668 7.0704750465091895 18.227273641744627  -8.1214314645647967 5.2523230099331029 18.454544449064066  -9.5129909451791264 2.8214455653721311 18.681820199473613  -10.099139390724705 -0.0027241168071757299 18.909090064210634  -9.7629793143066284 -2.9213909365924104 19.136364211373309  -8.5134528820784627 -5.6010491332244872 19.36363700026282  -6.4936779367526052 -7.7346341213335759 19.590909147897555  -3.9534847148209189 -9.1009655211893641 19.818182203446337  -1.1968416030418403 -9.5975057260057071 20.04545488746589  4.1448341833440159 -8.8886256510112016 20.500000329784847  8.1214308470921441 -5.2523239389082139 20.954545772095575  9.5129948682120329 -2.821443022553388 21.181818456134547  10.09913008242871 0.0027192030884409199 21.409091511636422  9.762992630148613 2.9213976787621414 21.636363659347111  8.5134402106415372 5.6010424024178587 21.86363644814703  6.4936859276074008 7.7346390779370253 22.09091059538828  3.9534817342031414 9.1009628628454102 22.318180460077127  1.1968419477580792 9.5975067169937684 22.545456210500397  -1.4739961330469236 9.2430654350831318 22.772727017828878  -3.8035644197528717 8.1567702960277959 23.000000439707868  
-3.803564294795323 8.1567699904246478 16.000000219851856  -6.1331322006671103 7.0704742575203285 16.227273641745189  -8.1214315376767718 5.2523241288022522 16.45454444906234  -9.5129907384693588 2.821443398030993 16.681820199477265  -10.099137770567944 -0.0027218018595513999 16.909090064205042  -9.7629809490365105 -2.9213927487850904 17.13636421138029  -8.5134508717907309 -5.6010477712890596 17.363637000256105  -6.493678519084348 -7.7346342920861613 17.590909147902526  -3.9534843866739129 -9.1009651181048792 17.818182203443829  -1.1968415616007506 -9.5975053625585538 18.045454887466633  4.1448340306642821 -8.8886253256836945 18.500000329784204  8.1214305569668763 -5.2523237558649125 18.954545772096214  9.5129946907618486 -2.8214428235062257 19.181818456132611  10.099128837191829 0.0027188665550787298 19.409091511639854  9.7629942501603129 2.9213981292005804 19.636363659343356  8.5134371477293094 5.6010419045264968 19.863636448149968  6.493688266482188 7.7346382641946247 20.090910595386543  3.9534799170702328 9.1009637473673592 20.318180460078171  1.1968426701487569 9.5975052384445139 20.545456210499889  -1.4739963261321223 9.2430656262942605 20.772727017829059  -3.8035642339237632 8.156769897517357 21.000000439707915  

-2 2
-0 2

0 12
3.1451422020542728 9
6.2902844041085455 12

9 0 0 0 0 1 11 2 21 2 3 -5.4940373705850316 11.782001125129018 15.999999780148165  -8.8589688570849603 10.212907415579405 16.227271812800847  -11.730956273085118 7.5866902727998395 16.454546460029576  -13.740988902647201 4.0754168553614933 16.681816164152423  -14.587639114170178 -0.0039262109923671202 16.909091753991259  -14.102088606451769 -4.2197986612569105 17.136363061328613  -12.297203418321795 -8.0903942527946722 17.363635727032438  -9.3797595006828125 -11.172253603508391 17.590909033905977  -5.7105880271499787 -13.145837734165552 17.81818143292432  -1.7287711155719434 -13.863063397928649 18.045454203440976  5.9869825820555036 -12.839125519726148 18.499999670217942  11.730955368969878 -7.586689844342084 18.954545136991946  13.740991360366749 -4.0754172432421258 19.181817907516312  14.58763510375973 0.0039261717866843999 19.409090306513814  14.102093513369361 4.2197997705638528 19.636363613425356  12.297198361797284 8.0903920710027322 19.863636279080144  9.379763865114576 11.172255665943243 20.090907586463267  5.7105852554956522 13.145836889735651 20.318183176268747  1.7287721323477359 13.863063250820574 20.545452880415247  -2.1291058539588397 13.351094732435062 20.772727527624316  -5.4940373385410153 11.782001018779138 20.999999560292135  
-5.4940374634985911 11.78200132438238 17.999999780148151  -8.8589693289194216 10.212908204568654 18.227271812799884  -11.730956199972704 7.5866891539290799 18.454546460032994  -13.740989109358074 4.0754190227066127 18.681816164144738  -14.587640734324765 -0.0039285259469965502 18.90909175400391  -14.102086971725203 -4.2197968490549798 19.136363061312178  -12.297205428605773 -8.0903956147393732 19.36363572704883  -9.3797589183541223 -11.172253432748942 19.590909033893873  -5.7105883552953358 -13.145838137253451 19.81818143293011  -1.7287711570134714 -13.863063761374979 20.045454203439668  5.9869827347355722 -12.839125845054244 20.499999670218763  11.730955659094928 -7.5866900273850435 20.954545136991527  13.740991537817337 -4.0754174422899423 21.181817907516638  14.587636348995849 0.0039265083211049 21.409090306513384  14.102091893359077 4.2197993201238582 21.636363613426273  12.297201424707495 8.0903925688960179 21.86363627907815  9.3797615262418095 11.172256479683792 22.090907586465864  5.7105870726271872 13.145836005215003 22.318183176266462  1.7287714099576554 13.863064729369208 22.545452880416427  -2.1291056608737651 13.351094541224102 22.772727527623953  -5.4940375243701203 11.78200141728958 22.999999560292093  

-2 2
-0 2

0 12
3.1451422020542728 9
6.2902844041085455 12

9 0 0 0 0 1 11 2 21 2 3 -5.4940375243701354 11.782001417289615 22.999999560292093  -8.8589694163355581 10.21290828010433 23.227271592911691  -11.730956308459849 7.586689203725145 23.454546240172835  -13.740989230536586 4.0754190403617176 23.681815944276792  -14.587640857692911 -0.0039285438253841799 23.909091534126073  -14.102087085806035 -4.2197969020006454 24.136362841450627  -12.297205522707031 -8.0903956981947349 24.36363550717099  -9.3797589840001621 -11.172253538708469 24.590908814029696  -5.7105883875052488 -13.145838255406293 24.818181213057557  -1.7287711546709099 -13.86306388072413 25.045453983570034  5.986982801073065 -12.839125946303302 25.499999450348774  11.730955767580726 -7.5866900771894397 25.954544917121105  13.740991659003573 -4.0754174599408408 26.181817687648682  14.587636472356257 0.0039265261994953296 26.409090086639608  14.10209200744225 4.2197993730687671 26.636363393560206  12.297201518809691 8.0903926523495446 26.863636059206854  9.3797615918899577 11.172256585646577 27.090907366594241  5.7105871048304504 13.145836123367232 27.318182956395557  1.7287714076219141 13.863064848713744 27.545452660555554  -2.1291056952180694 13.351094651529943 27.77272730773948  -5.4940375852436771 11.782001510197567 27.999999340432662  
-3.8035644197528784 8.1567702960278403 23.000000439707861  -6.1331327349247609 7.0704751437231348 23.22727386163605  -8.121431554492144 5.2523230884324628 23.45454466891632  -9.5129910563808426 2.8214456166514759 23.681820419352462  -10.099139514107474 -0.0027240989934555798 23.909090284076413  -9.7629794387091557 -2.9213909550279498 24.136364431246847  -8.5134529959780512 -5.6010491865948993 24.363637220129757  -6.4936780297358014 -7.7346342043372207 24.590909367769356  -3.9534847791970851 -9.1009656253718401 24.81818242331525  -1.1968416346209003 -9.5975058411240894 25.045455107336355  4.1448342182656521 -8.8886257669104616 25.500000549654082  8.1214309370140718 -5.2523240174167336 25.954545991966405  9.5129949794263542 -2.8214430738282763 26.181818676000535  10.099130205799014 0.0027191852753663702 26.409091731515439  9.7629927545566382 2.9213976971953786 26.636363879202982  8.5134403245411754 5.6010424557880105 26.863636668033006  6.4936860205919764 7.734639160942999 27.090910815243159  3.9534817985737418 9.1009629670279537 27.318180679962428  1.1968419793431695 9.5975068321064363 27.545456430352289  -1.4739961347212536 9.243065550599729 27.772727237716534  -3.8035644517981715 8.1567704023787506 28.000000659567231  

-4 2
-0 2

0 12
3.1451422020542728 9
6.2902844041085455 12

1 -5.4940374026282246 11.782001231476855 -7.1999999999999997e-16 -2.0000000000000001e-17 4.9999999999999999e-17 1 0.42261826174063266 -0.90630778703668113 5.3767754586646716e-17 0.90630778703668113 0.42261826174063266 -3.004757346298008e-18 
9 0 0 0 0 1 11 2 21 2 3 -3.803564294795323 8.1567699904246478 16.000000219851856  -6.1331322006671343 7.0704742575202415 16.227273641745189  -8.1214315376766972 5.2523241288025933 16.45454444906234  -9.5129907384694921 2.82144339803025 16.681820199477265  -10.099137770567815 -0.00272180185840403 16.909090064205042  -9.7629809490365762 -2.9213927487864182 17.13636421138029  -8.5134508717907078 -5.6010477712878979 17.363637000256105  -6.493678519084372 -7.7346342920869136 17.590909147902526  -3.9534843866738894 -9.100965118104563 17.818182203443829  -1.1968415616007668 -9.5975053625585893 18.045454887466633  4.1448340306643123 -8.888625325683746 18.500000329784204  8.121430556966839 -5.2523237558647837 18.954545772096214  9.5129946907620049 -2.8214428235068212 19.181818456132611  10.099128837191593 0.00271886655636843 19.409091511639854  9.7629942501604603 2.9213981291986606 19.636363659343356  8.5134371477293325 5.601041904528711 19.863636448149968  6.4936882664821054 7.7346382641926068 20.090910595386543  3.9534799170702835 9.1009637473687626 20.318180460078171  1.1968426701487511 9.5975052384438566 20.545456210499889  -1.4739963261321247 9.243065626294424 20.772727017829059  -3.8035642339237632 8.1567698975173588 21.000000439707915  
-5.4940373705850334 11.782001125129014 15.999999780148167  -8.858968857085074 10.212907415579553 16.227271812800602  -11.730956273084663 7.5866902727991841 16.454546460030507  -13.740988902648287 4.0754168553631569 16.681816164150366  -14.587639114168391 -0.0039262109952450898 16.909091753994328  -14.10208860645389 -4.2197986612532921 17.136363061325287  -12.297203418319949 -8.0903942527980544 17.363635727035156  -9.3797595006840009 -11.172253603506055 17.590909033904314  -5.7105880271494094 -13.145837734166701 17.818181432924998  -1.7287711155721268 -13.863063397928302 18.045454203440844  5.9869825820557239 -12.839125519726537 18.499999670218049  11.730955368969633 -7.5866898443416648 18.954545136991864  13.740991360367639 -4.0754172432437823 19.181817907516375  14.587635103757995 0.0039261717903221098 19.409090306514027  14.102093513371841 4.2197997705581951 19.636363613424717  12.297198361794569 8.0903920710093011 19.863636279080907  9.3797638651168622 11.172255665937543 20.090907586462777  5.7105852554942507 13.145836889739249 20.318183176268892  1.7287721323483158 13.863063250819025 20.545452880415223  -2.1291058539589578 13.351094732435453 20.772727527624316  -5.4940373385410117 11.782001018779141 20.999999560292135  

-4 2
-0 2

0 12
3.1451422020542728 9
6.2902844041085455 12

9 0 0 0 0 1 11 2 21 2 3 -3.8035644197528811 8.1567702960278385 23.000000439707861  -6.1331327349250087 7.0704751437231179 23.227273861636039  -8.1214315544911528 5.2523230884324867 23.454544668916348  -9.5129910563831288 2.8214456166515327 23.681820419352363  -10.099139514103856 -0.00272409899375572 23.909090284076644  -9.7629794387133693 -2.9213909550273258 24.136364431246431  -8.5134529959744203 -5.6010491865957119 24.36363722013034  -6.4936780297381 -7.734634204336519 24.590909367768731  -3.9534847791960837 -9.1009656253722113 24.818182423315729  -1.1968416346211355 -9.5975058411240006 25.04545510733611  4.1448342182658502 -8.8886257669104989 25.500000549654434  8.1214309370139066 -5.2523240174167629 25.954545991965965  9.5129949794269226 -2.821443073827985 26.181818676002361  10.099130205797849 0.00271918527467742 26.409091731511595  9.7629927545582529 2.921397697196368 26.636363879208396  8.5134403245396264 5.6010424557869873 26.863636668027368  6.4936860205930698 7.7346391609438205 27.090910815247685  3.9534817985731761 9.100962967027451 27.318180679959596  1.1968419793433656 9.5975068321066423 27.545456430353596  -1.4739961347212933 9.2430655505996953 27.772727237716186  -3.8035644517981715 8.1567704023787559 28.000000659567235  
-3.8035642339237699 8.1567698975173997 21.000000439707915  -6.1331321132498822 7.0704741819848032 21.22727386163654  -8.1214314291915546 5.2523240790062973 21.454544668915151  -9.5129906172892973 2.821443380374463 21.681820419354835  -10.099137647200381 -0.00272178397796138 21.909090284073237  -9.7629808349553464 -2.9213926958439971 22.136364431250879  -8.5134507776901813 -5.6010476878290083 22.3636372201257  -6.4936784534374379 -7.7346341861302399 22.590909367772788  -3.9534843544645173 -9.1009649999501558 22.818182423313548  -1.1968415639431735 -9.5975052432097865 23.045455107336792  4.1448339643267138 -8.8886252244345236 23.500000549654114  8.1214304484811066 -5.2523237060604098 23.95454599196621  9.5129945695740652 -2.8214428058556602 24.181818676002603  10.099128713839285 0.0027188486776573901 24.409091731510411  9.7629941360592145 2.9213980762535914 24.636363879211501  8.513437053650204 5.6010418210755333 24.863636668022956  6.4936882008171786 7.7346381582293082 25.090910815252148  3.9534798848727442 9.1009636292172544 25.318180679956754  1.1968426724843952 9.5975051190976028 25.545456430354964  -1.4739962917878398 9.2430655159890538 25.772727237715909  -3.8035641730504692 8.1567698046089632 26.000000659567338  

-2 2
-0 2

0 12
3.1451422020542728 9
6.2902844041085455 12

9 0 0 0 0 1 11 2 21 2 3 -5.4940373385410233 11.782001018779185 20.999999560292132  -8.8589687946606066 10.212907318366014 21.227271592911286  -11.730956183159645 7.5866901942988925 21.454546240175421  -13.740988791443918 4.0754168040849139 21.68181594427001  -14.587638990787868 -0.0039262288101874904 21.909091534138589  -14.102088482049675 -4.2197986428163654 22.136362841434526  -12.29720330442141 -8.0903941994291895 22.363635507186377  -9.3797594077003676 -11.17225352050116 22.590908814019414  -5.7105879627733032 -13.145837629984843 22.818181213062207  -1.7287710839930335 -13.863063282809726 23.045453983569193  5.986982547133973 -12.839125403827557 23.499999450349335  11.730955279047908 -7.5866897658327961 23.95454491712109  13.740991249150632 -4.0754171919698541 24.181817687648554  14.587634980398102 0.0039261896056004501 24.409090086639743  14.102093388942242 4.2197997521211299 24.636363393561343  12.297198247921774 8.0903920176435431 24.863636059204516  9.3797637721124492 11.172255582927544 25.090907366597058  5.710585191131238 13.145836785559787 25.318182956393759  1.7287721007623273 13.863063135703511 25.545452660556439  -2.1291058522844519 13.351094616919617 25.772727307739338  -5.4940373064959767 11.782000912427774 25.999999340432765  
-5.49403752437013 11.782001417289617 22.999999560292093  -8.8589694163354658 10.212908280104237 23.227271592911681  -11.730956308460177 7.5866892037254567 23.454546240172863  -13.740989230535977 4.0754190403609822 23.68181594427675  -14.587640857693588 -0.0039285438240680096 23.90909153412607  -14.102087085805664 -4.219796902002475 24.136362841450712  -12.297205522706975 -8.0903956981928289 24.363635507170855  -9.3797589840004036 -11.172253538709885 24.59090881402981  -5.7105883875050649 -13.145838255405625 24.818181213057493  -1.7287711546709985 -13.86306388072426 25.045453983570056  5.9869828010732 -12.839125946303264 25.499999450348742  11.730955767580552 -7.5866900771893793 25.954544917121151  13.740991659004212 -4.0754174599413826 26.181817687648529  14.587636472355079 0.0039265262008587 26.409090086639949  14.102092007443721 4.219799373066687 26.636363393559588  12.297201518808242 8.0903926523517367 26.863636059207707  9.3797615918911461 11.172256585644934 27.090907366593367  5.7105871048296617 13.145836123368104 27.318182956396214  1.7287714076222767 13.86306484871343 27.545452660555213  -2.1291056952181706 13.351094651530019 27.772727307739576  -5.4940375852436842 11.782001510197567 27.999999340432662  

-2 2
-0 2

0 12
3.1451422020542728 9
6.2902844041085455 12

9 0 0 0 0 1 9 2 10 2 2 -5.4940375852435537 11.782001510197805 27.999999340432659  -8.3492088313103849 10.450613971270279 28.192840794544917  -10.841412581165832 8.3408324016213751 28.385687474739363  -12.728109326401691 5.5657574529855287 28.578522241430182  -13.807937385192616 2.3266249164397501 28.771376409344121  -13.958908318959502 -1.1050927615812893 28.964206271239487  -13.167694296713178 -4.4265314676667815 29.157060439158652  -11.531982337888318 -7.3565726884170299 29.349895205844518  -9.2346755315586577 -9.6770532943419987 29.542741886040321  -6.5074510049735821 -11.254025711591689 29.735583340153365  
-3.803564451798044 8.1567704023789958 28.000000659567231  -5.7802220244873599 7.2350405426569955 28.192844619494544  -7.5055909919366393 5.774423102673623 28.385683353337239  -8.8117719974467104 3.8532150240163539 28.578534000690993  -9.5593391319495851 1.6107441613345481 28.771365246810529  -9.6638581532277801 -0.76506857595336808 28.964220798956411  -9.1160995431543714 -3.0645183993905127 29.157052045079194  -7.9836782889126701 -5.0930133804053046 29.349902692429293  -6.3932374275349613 -6.6994980573313399 29.542741426274343  -4.5051585752622216 -7.7912486431224508 29.735585386200253  

-4 2
-0 2

0 10
2.1834638503413157 10

9 0 0 0 0 1 11 2 21 2 3 -3.8035642339237699 8.1567698975174032 21.000000439707918  -6.1331321132498609 7.0704741819848289 21.227273861636853  -8.1214314291916665 5.2523240790061729 21.454544668913933  -9.5129906172890237 2.821443380374816 21.681820419357607  -10.099137647200944 -0.0027217839786378502 21.909090284068913  -9.7629808349544884 -2.9213926958430525 22.136364431255704  -8.513450777691121 -5.6010476878299871 22.363637220121728  -6.493678453436746 -7.734634186129516 22.5909093677753  -3.9534843544648552 -9.1009649999505058 22.818182423312368  -1.196841563943073 -9.5975052432097243 23.045455107337123  4.1448339643265788 -8.8886252244345325 23.500000549653773  8.1214304484812825 -5.25232370606044 23.954545991966558  9.5129945695732676 -2.8214428058554559 24.181818676001225  10.099128713841143 0.0027188486771769901 24.409091731513175  9.7629941360563528 2.9213980762543321 24.636363879207931  8.5134370536534352 5.6010418210747588 24.863636668026071  6.4936882008144252 7.7346381582298607 25.090910815250325  3.9534798848744988 9.1009636292169827 25.318180679957432  1.196842672483609 9.5975051190977041 25.545456430354822  -1.4739962917876324 9.2430655159890254 25.77272723771592  -3.803564173050471 8.1567698046089649 26.000000659567341  
-5.4940373385410251 11.782001018779178 20.999999560292132  -8.8589687946603632 10.212907318366049 21.227271592911286  -11.730956183160606 7.5866901942987051 21.454546240175404  -13.740988791441882 4.07541680408539 21.681815944270092  -14.58763899079082 -0.0039262288109716704 21.909091534138426  -14.10208848204663 -4.2197986428154843 22.136362841434771  -12.297203304423672 -8.0903941994298414 22.363635507186046  -9.3797594076991935 -11.172253520500867 22.59090881401977  -5.7105879627736824 -13.145837629984898 22.818181213061902  -1.7287710839930104 -13.863063282809744 23.045453983569391  5.9869825471340326 -12.839125403827483 23.49999945034898  11.73095527904777 -7.5866897658329311 23.954544917121623  13.740991249151328 -4.0754171919690014 24.181817687646429  14.587634980396574 0.0039261896033499603 24.409090086643886  14.102093388944494 4.2197997521250228 24.63636339355585  12.29719824791936 8.0903920176386936 24.863636059209991  9.3797637721144191 11.172255582932022 25.090907366592791  5.7105851911300496 13.145836785556789 25.31818295639636  1.7287721007628256 13.863063135704889 25.545452660555302  -2.1291058522845723 13.351094616919264 25.772727307739626  -5.4940373064959784 11.782000912427772 25.999999340432772  

-4 2
-0 2

0 12
3.1451422020542728 9
6.2902844041085455 12

9 0 0 0 0 1 9 2 10 2 2 -3.8035644517980431 8.1567704023789993 28.000000659567231  -5.7802220244873084 7.2350405426569999 28.192844619494629  -7.5055909919368364 5.7744231026736283 28.385683353336894  -8.8117719974462805 3.853215024016333 28.578534000691807  -9.5593391319501819 1.6107441613345599 28.771365246809161  -9.6638581532272099 -0.76506857595334032 28.964220798958038  -9.1160995431547516 -3.0645183993905634 29.157052045077862  -7.9836782889124942 -5.0930133804052709 29.349902692429982  -6.3932374275350101 -6.6994980573313478 29.542741426274151  -4.5051585752622207 -7.7912486431224517 29.735585386200253  
-3.80356417305034 8.1567698046092083 26.000000659567334  -5.7802210314659961 7.2350388955287848 26.192844619494927  -7.5055912122714492 5.7744253482372478 26.385683353337878  -8.8117701499903163 3.8532107952281285 26.578534000689967  -9.5593391116462225 1.6107459485975462 26.771365246810785  -9.6638562098001923 -0.76506665078089864 26.964220798958969  -9.116100050531184 -3.0645218766800015 27.157052045076146  -7.9836763796480694 -5.0930102107044171 27.349902692431272  -6.3932373661178055 -6.6994983583914385 27.542741426274123  -4.505158063166621 -7.7912477574955208 27.735585386200508  

-2 2
-0 2

0 10
2.1834638503413157 10

9 0 0 0 0 1 9 2 10 2 2 -5.4940373064958496 11.782000912428023 25.999999340432772  -8.3492078382890416 10.450612324142144 26.192840794545635  -10.841412801500566 8.3408346471848471 26.385687474738802  -12.728107478945443 5.5657532241974588 26.578522241431571  -13.807937364889145 2.3266267037026727 26.771376409341038  -13.958906375531905 -1.1050908364088485 26.964206271245484  -13.167694804090013 -4.4265349449561873 27.157060439153014  -11.531980428623747 -7.3565695187162099 27.349895205847808  -9.2346754701414806 -9.6770535954020716 27.542741886039757  -6.5074504928779806 -11.254024825964759 27.735583340153635  
-5.4940375852435519 11.782001510197807 27.999999340432659  -8.3492088313103707 10.450613971270331 28.192840794544917  -10.841412581165896 8.3408324016212081 28.385687474739363  -12.728109326401555 5.5657574529858724 28.578522241430182  -13.807937385192814 2.3266249164392643 28.771376409344121  -13.958908318959246 -1.1050927615808042 28.964206271239487  -13.167694296713409 -4.4265314676671315 29.157060439158652  -11.53198233788819 -7.356572688416855 29.349895205844518  -9.234675531558695 -9.6770532943420466 29.542741886040321  -6.5074510049735794 -11.254025711591691 29.735583340153365  

-2 2
-0 2

0 10
2.1834638503413157 10

1 -5.5063045340701002 -9.5226367345436032 28.735584363176944 0.86569426711742237 -0.50057310742790506 -1.39967e-12 0.50057310742790506 0.86569426711742237 0 1.2116862948562425e-12 -7.0063716127361589e-13 1 
9 0 0 0 0 1 9 2 10 2 2 -3.8035641730503418 8.1567698046092119 26.000000659567338  -5.7802210314660361 7.2350388955288158 26.192844619495084  -7.5055912122713053 5.774425348237167 26.385683353337296  -8.8117701499906183 3.8532107952282435 26.578534000691171  -9.5593391116457891 1.6107459485974305 26.771365246808962  -9.6638562098006435 -0.76506665078081537 26.964220798961065  -9.1161000505308394 -3.0645218766800406 27.157052045074348  -7.9836763796482497 -5.0930102107044153 27.349902692432313  -6.3932373661177522 -6.6994983583914349 27.542741426273817  -4.5051580631666237 -7.7912477574955226 27.735585386200516  
-5.4940373064958514 11.782000912428018 25.999999340432776  -8.3492078382890504 10.450612324142181 26.192840794545635  -10.84141280150056 8.340834647184673 26.385687474738791  -12.728107478945427 5.5657532241978327 26.578522241431607  -13.807937364889186 2.3266267037021602 26.771376409341013  -13.958906375531861 -1.1050908364083689 26.964206271245505  -13.167694804090052 -4.426534944956499 27.157060439153003  -11.531980428623717 -7.3565695187160713 27.349895205847808  -9.234675470141493 -9.6770535954021124 27.542741886039764  -6.5074504928779824 -11.254024825964759 27.735583340153632  

-4 2
-0 2

0 10
2.1834638503413157 10

Triangulations 0

TShapes 125
Ve
1.34157076e-07
-3.80356435566569 8.15677008333013 13
0 0

0101101
*
Ve
5.000001e-06
-5.49403740262822 11.7820012314769 13
0 0

0101101
*
Ed
 1.00000003e-07 1 1 0
1  1 0 0 4
2  1 1 0 0 4
2  2 2 0 0 4
4 C0 1 0 2 0
2  3 3 5 0 4
2  4 4 6 0 4
0

0101000
+125 5 -124 5 *
Ve
1.33202426e-07
-5.49403740262822 11.7820012314769 11
0 0

0101101
*
Ed
 1.00000003e-07 1 1 0
1  2 0 0 2
2  5 1 0 0 2
2  6 5 0 0 2
4 C0 1 0 5 0
2  7 4 6 0 2
0

0101000
+124 5 -122 0 *
Ve
5.000001e-06
-3.80356435566569 8.15677008333013 11
0 0

0101101
*
Ed
 1.00000001e-07 1 1 0
1  3 0 0 4
2  8 1 0 0 4
2  9 6 0 0 4
4 C0 1 0 6 0
2  10 4 6 0 4
0

0101000
+122 0 -120 0 *
Ed
 1.00000004e-07 1 1 0
1  4 0 -2 0
2  11 7 0 -2 0
2  12 1 0 -2 0
4 C0 1 0 7 0
2  13 8 5 -2 0
2  14 4 6 -2 0
0

0101000
+125 5 -120 0 *
Wi

0101100
+123 4 +121 4 +119 4 -118 4 *
Fa
0  1e-07 1 4

0111000
-117 0 *
Ve
1.34157085e-07
-5.49403746349858 11.7820013243824 17.9999997801482
0 0

0101101
*
Ed
 1e-07 1 1 0
1  5 0 0 6.29028440410855
2  15 2 0 0 6.29028440410855
2  16 5 0 0 6.29028440410855
2  16 9 8 0 6.29028440410855
0

0101000
+124 5 -115 0 *
Ve
1.34157086e-07
-3.80356438770887 8.15677018967801 18.0000002198518
0 0

0101101
*
Ed
 1e-07 1 1 0
1  6 0 0 6.29028440410855
2  17 2 0 0 6.29028440410855
2  18 7 0 0 6.29028440410855
0

0101000
+125 5 -113 0 *
Ed
 1e-07 1 1 0
1  7 0 -4 -0
2  19 2 0 -4 -0
2  20 10 0 -4 -0
4 G1 10 0 2 0
0

0101000
+115 0 -113 0 *
Wi

0101100
-114 4 -123 4 +112 4 -111 4 *
Fa
0  1e-07 2 4

0111000
+110 0 *
Ve
1.00000003e-07
13 13 0
0 0

0101101
*
Ed
 1.00000003e-07 1 1 0
1  8 0 0 2
2  21 3 0 0 2
2  22 11 0 0 2
0

0101000
+124 0 -108 12 *
Ve
1e-07
13 0 0
0 0

0101101
*
Ed
 1e-07 1 1 0
1  9 0 0 2
2  23 11 0 0 2
0

0101000
+106 13 -106 12 *
Ed
 1e-07 1 1 0
1  10 0 1.99999999999999 13
2  11 11 14 1.99999999999999 13
2  24 11 15 1.99999999999999 13
2  25 4 16 1.99999999999999 13
0

0101000
+122 17 -106 0 *
Ed
 1e-07 1 1 0
1  10 0 0 13
2  11 11 14 0 13
2  24 11 15 0 13
2  25 4 16 0 13
0

0101000
+108 0 -106 0 *
Wi

0101100
+107 0 -105 0 -121 4 -104 13 +103 12 *
Fa
0  1e-07 11 0

0111000
+102 0 *
Ve
1e-07
9 0 0
0 0

0101101
*
Ed
 1e-07 1 1 0
1  11 0 0 4
2  26 4 16 0 4
0

0101000
+106 0 -100 0 *
Ed
 1e-07 1 1 0
1  12 0 2 13
2  11 8 14 2 13
2  24 8 15 2 13
2  27 4 16 2 13
0

0101000
+120 17 -100 0 *
Wi

0101100
+119 4 -104 13 -99 13 +98 13 *
Fa
0  1e-07 4 18

0111000
+97 0 *
Ve
1.34157086e-07
-3.80356429479531 8.15676999042464 16.0000002198519
0 0

0101101
*
Ed
 1e-07 1 1 0
1  13 0 0 6.29028440410855
2  17 7 0 0 6.29028440410855
2  28 6 0 0 6.29028440410855
0

0101000
+120 0 -95 0 *
Ed
 1e-07 1 1 0
1  14 0 -2 -0
2  19 7 0 -2 -0
2  29 12 0 -2 -0
4 G1 12 0 7 0
0

0101000
+113 0 -95 0 *
Wi

0101100
-112 4 +118 4 +94 4 -93 4 *
Fa
0  1e-07 7 4

0111000
+92 0 *
Ve
5.000001e-06
-7.24124540984848 10.7964977282254 11.1229148958987
0 0

0101101
*
Ve
1.33202434e-07
-5.49403737058503 11.782001125129 15.9999997801482
0 0

0101101
*
Ed
 1e-07 1 1 0
1  15 0 0.154634113671326 6.29028440410855
2  17 6 0 0.154634113671326 6.29028440410855
2  18 5 0 0.154634113671326 6.29028440410855
0

0101000
+90 5 -89 0 *
Ed
 1e-07 1 1 0
1  16 0 -2 -0
2  19 5 0 -2 -0
2  29 13 0 -2 -0
4 G1 13 0 5 0
2  19 9 8 -2 -0
0

0101000
+89 0 -115 0 *
Ve
5.000001e-06
-7.24124546872106 10.796497854478 13
0 0

0101101
*
Ed
 5e-06 1 1 0
1  17 0 0 1
2  30 5 4 0 1
2  31 3 0 0 1
2  30 9 19 0 1
0

0101000
+124 0 -86 0 *
Ed
 5e-06 1 1 0
1  18 0 0 1
2  32 5 4 0 1
2  33 4 20 0 1
2  32 9 19 0 1
0

0101000
+86 0 -90 0 *
Wi

0101100
-88 4 -87 4 +114 4 -85 0 -84 0 *
Fa
0  1e-07 5 4

0111000
+83 0 *
Ve
1.34157092e-07
-5.49403752437013 11.7820014172896 22.9999995602921
0 0

0101101
*
Ed
 1e-07 1 1 0
1  19 0 0 6.29028440410855
2  15 10 0 0 6.29028440410855
2  16 13 0 0 6.29028440410855
0

0101000
+115 0 -81 0 *
Ve
1.34157093e-07
-3.80356441975288 8.15677029602785 23.0000004397079
0 0

0101101
*
Ed
 1e-07 1 1 0
1  20 0 0 6.29028440410855
2  17 10 0 0 6.29028440410855
2  18 12 0 0 6.29028440410855
0

0101000
+113 0 -79 0 *
Ed
 1e-07 1 1 0
1  21 0 -4 -0
2  19 10 0 -4 -0
2  20 14 0 -4 -0
4 G1 14 0 10 0
0

0101000
+81 0 -79 0 *
Wi

0101100
-80 0 +111 0 +78 0 -77 0 *
Fa
0  1e-07 10 0

0111000
+76 0 *
Ed
 1e-07 1 1 0
1  22 0 3.8452326510664 4
2  11 3 14 3.8452326510664 4
2  34 3 15 3.8452326510664 4
2  35 4 16 3.8452326510664 4
0

0101000
+86 15 -108 0 *
Wi

0101100
-107 0 +74 12 +85 0 *
Fa
0  1e-07 3 0

0111000
+73 0 *
Ed
 1e-07 1 1 0
1  23 0 0 2
2  36 8 0 0 2
0

0101000
+100 13 -100 12 *
Wi

0101100
+105 0 -71 0 -99 13 +99 12 *
Fa
0  1e-07 15 0

0111000
+70 0 *
Ve
1.6441642627e-05
-5.61617992973906 7.31153355984887 11.1740113392743
0 0

0101101
*
Ed
 1e-07 1 1 0
1  12 0 1.82598866072571 13
2  11 8 14 1.82598866072571 13
2  24 8 15 1.82598866072571 13
2  27 4 16 1.82598866072571 13
0

0101000
+68 15 -100 0 *
Ed
 5e-06 1 1 0
1  24 0 0 1
2  37 6 4 0 1
2  38 4 20 0 1
0

0101000
+90 0 -68 0 *
Wi

0101100
-74 12 -103 12 -99 12 +67 12 +66 0 +84 0 *
Fa
0  1e-07 4 20

0111000
+65 0 *
Ed
 5e-06 1 1 0
1  25 0 0 1
2  39 6 4 0 1
2  40 8 0 0 1
0

0101000
+120 4 -68 0 *
Wi

0101100
-98 13 -71 0 +67 12 +63 0 *
Fa
0  1e-07 8 0

0111000
+62 0 *
Ed
 1e-07 1 1 0
1  26 0 -4 -0
2  19 6 0 -4 -0
2  20 16 0 -4 -0
4 G1 16 0 6 0
0

0101000
+95 0 -89 0 *
Wi

0101100
-94 4 -60 4 +88 4 -66 0 +63 0 *
Fa
0  1e-07 6 4

0111000
+59 0 *
Ve
1.34157093e-07
-3.80356423392377 8.15676989751741 21.0000004397079
0 0

0101101
*
Ed
 1e-07 1 1 0
1  27 0 0 6.29028440410855
2  17 12 0 0 6.29028440410855
2  28 16 0 0 6.29028440410855
0

0101000
+95 0 -57 0 *
Ed
 1e-07 1 1 0
1  28 0 -2 -0
2  19 12 0 -2 -0
2  29 17 0 -2 -0
4 G1 17 0 12 0
0

0101000
+79 0 -57 0 *
Wi

0101100
-78 0 +93 0 +56 0 -55 0 *
Fa
0  1e-07 12 0

0111000
+54 0 *
Ve
1.33202461e-07
-5.49403733854103 11.7820010187792 20.9999995602921
0 0

0101101
*
Ed
 1e-07 1 1 0
1  29 0 0 6.29028440410855
2  17 16 0 0 6.29028440410855
2  18 13 0 0 6.29028440410855
0

0101000
+89 0 -52 0 *
Ed
 1e-07 1 1 0
1  30 0 -2 -0
2  19 13 0 -2 -0
2  29 18 0 -2 -0
4 G1 18 0 13 0
0

0101000
+52 0 -81 0 *
Wi

0101100
-51 0 +87 0 +80 0 -50 0 *
Fa
0  1e-07 13 0

0111000
+49 0 *
Ve
1.34157089e-07
-5.49403758524355 11.7820015101978 27.9999993404327
0 0

0101101
*
Ed
 1e-07 1 1 0
1  31 0 0 6.29028440410855
2  15 14 0 0 6.29028440410855
2  16 18 0 0 6.29028440410855
0

0101000
+81 0 -47 0 *
Ve
1.34157089e-07
-3.80356445179804 8.156770402379 28.0000006595672
0 0

0101101
*
Ed
 1e-07 1 1 0
1  32 0 0 6.29028440410855
2  17 14 0 0 6.29028440410855
2  18 17 0 0 6.29028440410855
0

0101000
+79 0 -45 0 *
Ed
 1e-07 1 1 0
1  33 0 -4 -0
2  19 14 0 -4 -0
2  20 19 0 -4 -0
4 G1 19 0 14 0
0

0101000
+47 0 -45 0 *
Wi

0101100
-46 0 +77 0 +44 0 -43 0 *
Fa
0  1e-07 14 0

0111000
+42 0 *
Ed
 1e-07 1 1 0
1  34 0 -4 -0
2  19 16 0 -4 -0
2  20 20 0 -4 -0
4 G1 20 0 16 0
0

0101000
+57 0 -52 0 *
Wi

0101100
-56 0 +60 0 +51 0 -40 0 *
Fa
0  1e-07 16 0

0111000
+39 0 *
Ve
1.34157088e-07
-3.80356417305034 8.15676980460921 26.0000006595673
0 0

0101101
*
Ed
 1e-07 1 1 0
1  35 0 0 6.29028440410855
2  17 17 0 0 6.29028440410855
2  28 20 0 0 6.29028440410855
0

0101000
+57 0 -37 0 *
Ed
 1e-07 1 1 0
1  36 0 -2 -0
2  19 17 0 -2 -0
2  29 21 0 -2 -0
4 G1 21 0 17 0
0

0101000
+45 0 -37 0 *
Wi

0101100
-44 0 +55 0 +36 0 -35 0 *
Fa
0  1e-07 17 0

0111000
+34 0 *
Ve
1.33202493e-07
-5.49403730649584 11.782000912428 25.9999993404328
0 0

0101101
*
Ed
 1e-07 1 1 0
1  37 0 0 6.29028440410855
2  17 20 0 0 6.29028440410855
2  18 18 0 0 6.29028440410855
0

0101000
+52 0 -32 0 *
Ed
 1e-07 1 1 0
1  38 0 -2 -0
2  19 18 0 -2 -0
2  29 22 0 -2 -0
4 G1 22 0 18 0
0

0101000
+32 0 -47 0 *
Wi

0101100
-31 0 +50 0 +46 0 -30 0 *
Fa
0  1e-07 18 0

0111000
+29 0 *
Ve
1.77646304e-07
-6.50745100497358 -11.2540257115917 29.7355833401534
0 0

0101101
*
Ed
 1e-07 1 1 0
1  39 0 0 2.18346385034132
2  15 19 0 0 2.18346385034132
2  41 22 0 0 2.18346385034132
0

0101000
+47 0 -27 0 *
Ve
1.77646303e-07
-4.50515857526222 -7.79124864312245 29.7355853862003
0 0

0101101
*
Ed
 1e-07 1 1 0
1  40 0 0 2.18346385034132
2  17 19 0 0 2.18346385034132
2  42 21 0 0 2.18346385034132
0

0101000
+45 0 -25 0 *
Ed
 1e-07 1 1 0
1  41 0 -4 -0
2  43 19 0 -4 -0
2  44 23 0 -4 -0
4 C0 19 0 23 0
0

0101000
+27 0 -25 0 *
Wi

0101100
-26 0 +43 0 +24 0 -23 0 *
Fa
0  1e-07 19 0

0111000
+22 0 *
Ed
 1e-07 1 1 0
1  42 0 -4 -0
2  19 20 0 -4 -0
2  20 24 0 -4 -0
4 G1 24 0 20 0
0

0101000
+37 0 -32 0 *
Wi

0101100
-36 0 +40 0 +31 0 -20 0 *
Fa
0  1e-07 20 0

0111000
+19 0 *
Ve
1.77646302e-07
-4.50515806316662 -7.79124775749552 27.7355853862005
0 0

0101101
*
Ed
 1e-07 1 1 0
1  43 0 0 2.18346385034132
2  17 21 0 0 2.18346385034132
2  45 24 0 0 2.18346385034132
0

0101000
+37 0 -17 0 *
Ed
 1e-07 1 1 0
1  44 0 -2 0
2  43 21 0 -2 0
2  46 23 0 -2 0
4 C0 23 0 21 0
0

0101000
+25 0 -17 0 *
Wi

0101100
-24 0 +35 0 +16 0 -15 0 *
Fa
0  1e-07 21 0

0111000
+14 0 *
Ve
1.77646301e-07
-6.50745049287798 -11.2540248259648 27.7355833401536
0 0

0101101
*
Ed
 1e-07 1 1 0
1  45 0 0 2.18346385034132
2  17 24 0 0 2.18346385034132
2  42 22 0 0 2.18346385034132
0

0101000
+32 0 -12 0 *
Ed
 1e-07 1 1 0
1  46 0 0 2
2  47 23 0 0 2
2  48 22 0 0 2
4 C0 23 0 22 0
0

0101000
+27 0 -12 0 *
Wi

0101100
-11 0 +30 0 +26 0 +10 0 *
Fa
0  1e-07 22 0

0111000
+9 0 *
Ed
 1e-07 1 1 0
1  47 0 0 4
2  49 23 0 0 4
2  50 24 0 0 4
4 C0 23 0 24 0
0

0101000
+12 0 -17 0 *
Wi

0101100
-23 0 +10 0 +7 0 -15 0 *
Fa
0  1e-07 23 0

0111000
+6 0 *
Wi

0101100
-16 0 +20 0 +11 0 +7 0 *
Fa
0  1e-07 24 0

0111000
+4 0 *
Sh

0101100
+116 0 -109 0 -101 0 +96 0 -91 0 -82 0 -75 4 -72 0 -69 0 -64 0 
+61 0 -58 0 -53 4 -48 4 -41 4 -38 4 -33 4 -28 4 -21 4 -18 4 
-13 4 -8 4 +5 4 -3 4 *
So

0100000
+2 0 *

+1 1 