DBRep_DrawableShape

CASCADE Topology V1, (c) Matra-Datavision
Locations 13
1
              1               0               0               0 
              0               1               0               0 
              0               0               1               0 
1
              1               0               0               0 
              0               1               0               0 
              0               0               1               0 
2  1 1 2 1 0
1
              1               0               0               0 
              0               1               0               0 
              0               0               1               3 
2  1 1 2 1 4 1 0
2  2 -1 1 -1 0
2  4 -1 2 -1 1 -1 0
1
              1               0               0               0 
              0               1               0               0 
              0               0               1               0 
1
              1               0               0               0 
              0               1               0               0 
              0               0               1               3 
2  8 1 9 1 0
2  9 -1 8 -1 0
1
              1               0               0              -0 
              0               1               0              -0 
              0               0               1              -2 
2  12 -1 0
Curve2ds 67
1 2.4132126220764629 0 0 -1 
1 0 0 0 -1 
1 16.418358626854353 0 0 -1 
1 0 0 1 0 
1 0 -3 1 0 
1 3.8699726851031229 0 0 -1 
1 16.418358626854356 0 0 -1 
1 1.5707963267948961 0 0 -1 
8 1.570796326794897 2.4132126220764625
7 0 0  1 2 2  1.5707963267948966 0  3.1415926535897931 0 
 1.570796326794897 2 3.141585514350782 2
7 0 0  1 2 2  1.5707963267948966 0  3.1415926535897931 0 
 1.570796326794897 2 3.141585514350782 2
1 3.8699726851031233 0 0 -1 
1 3.1415926535897931 0 0 1 
1 0 0 0 1 
1 -6.2831853071795862 1 1 0 
1 0 -2 1 0 
1 1.5707963267948966 0 0 1 
1 0.72838003151332986 0 0 -1 
8 0.72838003151332964 1.5707963267948957
7 0 0  1 2 2  0 0  1.5707963267948966 0 
 4.8002454194799999e-06 2 1.5707963267948957 2
1 7.0115653386929164 0 0 -1 
1 5.5548052756662569 0 0 -1 
1 -6.5999999999999998e-16 0 0 -1 
1 5.554805275666256 0 0 -1 
1 4.7123889803846897 0 0 -1 
8 4.7123889803846906 5.5548052756662569
1 0 0 1 0 
8 3.8699726851031864 4.7123889803847829
1 0 0 1 0 
1 3.141592653589794 0 0 -1 
1 3.1415926535897793 0 0 -1 
1 1.5707963267948952 0 0 -1 
8 1.5707963267948966 3.1415926535897931
1 6.2831853071795862 0 -1 0 
1 1.5707963267948979 0 0 -1 
8 0 1.570796326794893
1 6.2831853071795862 0 -1 0 
1 6.2831853071795862 0 0 -1 
1 4.7123889803846915 0 0 -1 
8 4.7123889803846897 6.2831853071795862
1 6.2831853071795862 0 -1 0 
8 3.1415926535897931 4.7123889803846897
1 6.2831853071795862 0 -1 0 
1 27.500021417717033 0 0 1 
6 0 1 3.1415926535897931 0  3.1415926535897931 17.602680973572777  
7 0 0  1 2 2  0 1  27.500021417717033 1 
 2.141771703279e-05 2 27.500021417717033 2
6 0 1 4.7123889803847829 0  4.7123889803847829 17.602680973572777  
1 0 17.602680973572777 1 0 
7 0 0  1 2 2  0 1  -27.500014400736259 1 
 1.440073625858e-05 2 27.500014400736259 2
1 6.2831853071795862 17.602680973572767 -1 0 
1 12.566370614359172 17.602680973572767 -1 0 
7 0 0  1 2 2  0 0  1.5707963267948966 0 
 4.8002454194799999e-06 2 1.5707963267948957 2
1 0 0 -1 0 
6 0 1 6.2831853071795862 0  6.2831853071795862 17.602680973572777  
1 -27.500014400736259 0 0 1 
6 0 1 4.7123889803846906 0  4.7123889803846906 17.602680973572777  
6 0 1 3.1415926535897931 0  3.1415926535897931 17.602680973572767  
8 -20.625000000000032 6.8749999999999822
1 6.8749999999999822 -2.0003046560878084 -1 -0 
8 -20.625000000000032 6.8749999999999822
1 -17.727700987119857 -6.8749999999999822 -0 -1 
1 6.2831853071795862 15.602376317484957 -1 0 
2 -16.999999999999762 13.750000000000036 1 -0 0 1 0.72770098711980546
6 0 1 4.7123889803846897 0  4.7123889803846897 17.602680973572767  
8 -25.499999999999837 8.499999999999881
1 8.499999999999881 -2.0003046560878084 -1 -0 
8 -25.499999999999837 8.499999999999881
1 -8.4999999999998792 14.477700987119844 -1 0 
6 0 1 4.7123889803846932 0  4.7123889803846932 17.602680973572767  
2 16.99999999999995 13.750000000000036 1 -0 0 1 0.72770098711980546
6 0 1 6.2831853071795862 0  6.2831853071795862 17.602680973572767  
8 -20.624999999999982 6.8750000000000178
1 6.8750000000000178 -2.0003046560878084 -1 0 
8 -20.624999999999982 6.8750000000000178
1 17.727700987119761 6.8750000000000178 -0 1 
6 0 1 0 0  0 17.602680973572767  
2 16.99999999999995 -13.749999999999964 1 -0 0 1 0.72770098711980546
6 0 1 1.5707963267948966 0  1.5707963267948966 17.602680973572767  
8 -25.500000000000018 8.4999999999999751
1 8.4999999999999751 -2.0003046560878084 -1 0 
8 -25.500000000000018 8.4999999999999751
1 8.4999999999999769 -14.477700987119773 1 0 
2 -17.000000000000043 -13.749999999999964 1 -0 0 1 0.72770098711980546
Curves 90
1 -30.167832092402499 3.494723407616267 0 0 0 1 
1 -19.238761195658427 15.746984804352154 0 0 0 1 
1 -30.167832092402499 3.494723407616267 0 0.66566160145071762 0.74625373188619037 0 
1 -30.167832092402502 -3.4947234076162648 0 0 0 1 
2 -26.250000000000004 -0 0 0 0 1 1 0 -0 -0 1 0 5.2499999999999982
1 -16.999999999999858 16.75 0 0 0 1 
2 -16.999999999999858 13.750000000000002 0 0 0 1 1 0 -0 -0 1 0 2.9999999999999991
1 -16.999999999999858 16.75 0 1 0 0 
2 16.999999999999854 13.750000000000002 0 0 0 1 1 0 -0 -0 1 0 2.9999999999999991
1 19.238761195658427 15.746984804352154 0 0.66566160145071773 -0.74625373188619037 0 
2 26.250000000000004 0 0 0 0 1 1 0 -0 -0 1 0 5.2499999999999982
1 30.167832092402499 -3.4947234076162661 0 -0.66566160145071762 -0.74625373188619037 0 
2 16.999999999999854 -13.75 0 0 0 1 1 0 -0 -0 1 0 2.9999999999999991
1 -16.999999999999858 -16.75 0 1 0 0 
2 -16.999999999999858 -13.75 0 0 0 1 1 0 -0 -0 1 0 2.9999999999999991
1 -19.238761195658427 -15.746984804352152 0 -0.66566160145071773 0.74625373188619026 0 
1 -18.000000000000142 -13.749999999999998 0 0 1 0 
2 -16.999999999999858 13.750000000000002 0 0 0 1 1 0 -0 -0 1 0 1
1 -16.999999999999858 14.750000000000002 0 1 0 0 
2 16.999999999999854 13.750000000000002 0 0 0 1 1 0 -0 -0 1 0 1
1 17.999999999999854 13.750000000000002 0 0 -1 0 
2 16.999999999999854 -13.749999999999998 0 0 0 1 1 0 -0 -0 1 0 1
1 16.999999999999854 -14.749999999999998 0 -1 0 0 
2 -17.000000000000139 -13.749999999999998 0 0 0 1 1 0 -0 -0 1 0 1
2 -26.250000000000004 -0 0 0 0 1 1 0 -0 -0 1 0 2.25
2 26.250000000000004 0 0 0 0 1 1 0 -0 -0 1 0 2.25
2 -16.999999999999858 13.750000000000002 0 0 0 1 1 0 -0 -0 1 0 2.9999999999999991
1 -20.000000000000139 13.750021417717035 0 0 -1 0 
2 -17.000000000000139 -13.749999999999998 0 0 0 1 1 0 -0 -0 1 0 3.0000000000000013
1 -19.238761195658427 -15.746984804352152 0 0 0 1 
1 16.999999999999858 16.75 0 0 0 1 
7 0 0  1 2 2  -19.999999999923403 13.750021417717036 3  -19.69279085726323 13.750000000000002 20.600000000000001 
 0 2 1 2
2 -16.999999999999858 13.750000000000002 20.600000000000001 0 -0 1 1 0 0 -0 1 0 2.6927908572633705
7 0 0  1 2 2  -16.999999999999847 16.749999999999993 2.9999999999999982  -16.999999999999858 16.442790857263372 20.600000000000001 
 0 2 1 2
1 19.238761195658427 15.746984804352154 0 0 0 1 
1 30.167832092402502 3.4947234076162652 0 0 0 1 
1 30.167832092402499 -3.4947234076162648 0 0 0 1 
1 19.238761195658427 -15.746984804352152 0 0 0 1 
1 16.999999999999858 -16.75 0 0 0 1 
1 -16.999999999999858 -16.75 0 0 0 1 
1 -18.000000000000142 -13.749999999999998 0 0 0 1 
1 -18 13.750000000000016 0 0 0 1 
1 -16.999999999999858 14.750000000000002 0 0 0 1 
1 16.999999999999858 14.750000000000002 0 0 0 1 
1 17.999999999999854 13.750000000000002 0 0 0 1 
1 17.999999999999854 -13.749999999999998 0 0 0 1 
1 16.999999999999854 -14.749999999999998 0 0 0 1 
1 -17.000000000000139 -14.749999999999998 0 0 0 1 
1 -24.000000000000004 -0 0 0 0 1 
1 28.500000000000004 0 0 0 0 1 
7 0 0  1 2 2  -20.000000000000139 -13.749999999999998 3  -19.69279085726351 -13.749999999999998 20.600000000000001 
 0 2 1 2
1 -19.69279085726351 13.750021417717035 20.600000000000001 0 -1 -0 
6 0 1 -16.999999999999858 -16.75 3  -17.000000000000139 -16.442790857263372 20.600000000000001  
2 -17.000000000000139 -13.749999999999998 20.600000000000001 0 -0 1 1 0 0 -0 1 0 2.6927908572633723
1 -16.999999999999858 16.442790857263372 20.600000000000001 1 0 0 
7 0 0  1 2 2  16.999999999999858 16.75 3  16.999999999999858 16.442790857263368 20.600000000000001 
 0 2 1 2
2 16.999999999999854 13.750000000000002 20.600000000000001 0 -0 1 1 0 0 -0 1 0 2.6927908572633705
1 19.692790857263226 13.75001440073626 20.600000000000001 0 -1 -0 
1 -16.999999999999858 -16.442790857263372 20.600000000000001 1 0 0 
2 16.999999999999854 -13.749999999999998 20.600000000000001 0 -0 1 1 0 0 -0 1 0 2.6927908572633705
2 16.999999999999854 -13.749999999999998 20.599999999999991 0 0 1 1 0 -0 -0 1 0 0.69279085726337053
1 17.692790857263226 13.750000000000002 20.599999999999991 0 -1 0 
2 16.999999999999854 13.750000000000002 20.599999999999991 0 0 1 1 0 -0 -0 1 0 0.69279085726337053
1 -16.999999999999858 14.442790857263372 20.599999999999991 1 -0 -0 
2 -16.999999999999858 13.750000000000002 20.599999999999991 0 0 1 1 0 -0 -0 1 0 0.69279085726337053
1 -17.692790857263514 -13.749999999999998 20.599999999999991 -0 1 -0 
2 -17.000000000000139 -13.749999999999998 20.599999999999991 0 0 1 1 0 -0 -0 1 0 0.69279085726337053
1 16.999999999999854 -14.442790857263368 20.599999999999991 -1 0 0 
2 16.999999999999854 13.750000000000002 0 0 0 1 1 0 -0 -0 1 0 2.9999999999999991
7 0 0  1 2 2  19.999999999999854 13.75001440073626 3  19.692790857263226 13.750000000000002 20.600000000000001 
 0 2 1 2
2 16.999999999999854 -13.749999999999998 0 0 0 1 1 0 -0 -0 1 0 3.0000000000000009
1 19.999999999999854 13.75001440073626 0 0 -1 0 
6 0 1 19.999999999999854 -13.749999999999998 3  19.692790857263226 -13.749999999999998 20.600000000000001  
6 0 1 16.999999999999858 -16.75 3  16.999999999999858 -16.442790857263372 20.600000000000001  
6 0 1 -18.000000000000142 -13.749999999999998 3  -17.69279085726351 -13.749999999999998 20.599999999999991  
1 -17.727700987119952 -6.875000000000016 18.599999999999998 -0 -1 0 
6 0 1 -18 13.750000000000009 3  -17.692790857263514 13.750000000000002 20.599999999999991  
2 -16.999999999999858 13.750000000000002 18.599999999999998 0 0 1 1 0 -0 -0 1 0 0.72770098711980546
6 0 1 -16.999999999999858 14.750000000000002 3  -16.999999999999858 14.442790857263372 20.599999999999991  
1 -8.4999999999999769 14.47770098711981 18.599999999999998 -1 0 0 
6 0 1 16.999999999999858 14.750000000000002 3  16.999999999999858 14.442790857263372 20.599999999999991  
2 16.999999999999854 13.750000000000002 18.599999999999998 0 0 1 1 0 -0 -0 1 0 0.72770098711980546
6 0 1 17.999999999999854 13.750000000000002 3  17.692790857263226 13.750000000000002 20.599999999999991  
1 17.727700987119665 6.874999999999984 18.599999999999998 -0 1 -0 
6 0 1 17.999999999999854 -13.749999999999998 3  17.692790857263226 -13.749999999999998 20.599999999999991  
2 16.999999999999854 -13.749999999999998 18.599999999999998 0 0 1 1 0 -0 -0 1 0 0.72770098711980546
6 0 1 16.999999999999854 -14.749999999999998 3  16.999999999999854 -14.442790857263368 20.599999999999991  
1 8.4999999999998792 -14.477700987119807 18.599999999999998 1 0 -0 
6 0 1 -17.000000000000139 -14.749999999999998 3  -17.000000000000139 -14.442790857263368 20.599999999999991  
2 -17.000000000000139 -13.749999999999998 18.599999999999998 0 0 1 1 0 -0 -0 1 0 0.72770098711980546
Polygon3D 0
PolygonOnTriangulations 0
Surfaces 56
1 -30.167832092402499 3.494723407616267 0 -0.74625373188619037 0.66566160145071762 0 0.66566160145071762 0.74625373188619037 0 0 0 -1 
2 -26.250000000000004 -0 0 -0 -0 -1 1 0 0 -0 1 -0 5.2499999999999982
2 -16.999999999999858 13.750000000000002 0 -0 -0 -1 1 0 0 -0 1 -0 2.9999999999999991
1 -19.238761195658427 -15.746984804352152 0 -0.74625373188619026 -0.66566160145071773 0 -0.66566160145071773 0.74625373188619026 0 -0 0 -1 
1 -16.999999999999858 16.75 0 0 1 0 1 0 0 0 0 -1 
9 0 0 0 0 8 1 9 2 2 2 -16.999999999999847 16.749999999999993 2.9999999999999982  -16.999999999999858 16.442790857263372 20.600000000000001  
-17.589045945333261 16.749999999999975 2.9999999999999956  -17.528728248426873 16.44279085726324 20.599999999999959  
-18.178092076076478 16.61781883465229 3.0000000000000289  -18.057456663283194 16.324144367585294 20.600000000000129  
-18.732532143234657 16.35345780216338 2.9999999999999454  -18.555122357365864 16.086852553545764 20.59999999999981  
-19.217767445731738 15.967783278960137 3.0000000000000622  -18.990669218715805 15.740669218716889 20.600000000000136  
-19.603445433135757 15.482550729898358 2.999999999999948  -19.336852553546592 15.305122357365374 20.599999999999934  
-19.867810423898209 14.928112550090544 3.0000000000000342  -19.57414436758452 14.807456663283649 20.600000000000019  
-19.999995794583537 14.339067363035474 2.9999999999999876  -19.692790857263294 14.27872824842694 20.600000000000001  
-19.999999999923403 13.750021417717036 3  -19.69279085726323 13.750000000000002 20.600000000000001  

1.5707963267948966 9
3.1415926535897931 9

0 2
1 2

1 -4.2500000000000002e-14 -1.197e-14 0 0 0 1 1 0 -0 -0 1 0 
2 16.999999999999854 13.750000000000002 0 -0 -0 -1 1 0 0 -0 1 -0 2.9999999999999991
1 19.238761195658427 15.746984804352154 0 0.74625373188619037 0.66566160145071773 -0 0.66566160145071773 -0.74625373188619037 0 0 -0 -1 
2 26.250000000000004 0 0 -0 -0 -1 1 0 0 -0 1 -0 5.2499999999999982
1 30.167832092402499 -3.4947234076162661 0 0.74625373188619037 -0.66566160145071762 0 -0.66566160145071762 -0.74625373188619037 0 0 -0 -1 
2 16.999999999999854 -13.75 0 -0 -0 -1 1 0 0 -0 1 -0 2.9999999999999991
2 -16.999999999999858 -13.75 0 -0 -0 -1 1 0 0 -0 1 -0 2.9999999999999991
2 -16.999999999999858 13.750000000000002 0 -0 -0 -1 1 0 0 -0 1 -0 1
2 16.999999999999854 13.750000000000002 0 -0 -0 -1 1 0 0 -0 1 -0 1
2 16.999999999999854 -13.749999999999998 0 -0 -0 -1 1 0 0 -0 1 -0 1
2 -17.000000000000139 -13.749999999999998 0 -0 -0 -1 1 0 0 -0 1 -0 1
2 -26.250000000000004 -0 0 -0 -0 -1 1 0 0 -0 1 -0 2.25
2 26.250000000000004 0 0 -0 -0 -1 1 0 0 -0 1 -0 2.25
1 -16.999999999999858 13.750000000000002 3 0 0 1 1 0 -0 -0 1 0 
9 0 0 0 0 1 1 2 2 2 2 -20.000000000000139 13.750021417717035 3  -19.69279085726351 13.750000000000002 20.600000000000001  
-20.000000000000139 -13.749999999999998 3  -19.69279085726351 -13.749999999999998 20.600000000000001  

0 2
27.500021417717033 2

0 2
1 2

10 3.1415926535897931 4.7123889803847829 0 17.602680973572777
3 -17.000000000000139 -13.749999999999998 3 0 0 1 1 0 -0 -0 1 0 3.0000000000000013
-0.017453292519943271
1 -16.999999999999858 13.750000000000002 20.600000000000001 0 -0 1 1 0 0 -0 1 0 
2 -16.999999999999858 13.750000000000002 20.600000000000001 0 -0 1 1 0 0 -0 1 0 2.6927908572633705
1 -16.999999999999858 16.442790857263372 20.600000000000001 -0 0.99984769515639127 0.017452406437283439 -1 0 -0 -0 -0.017452406437283439 0.99984769515639127 
9 0 0 0 0 8 1 9 2 2 2 19.99999999996529 13.750014400736259 3  19.692790857263226 13.75 20.600000000000001  
19.999997172396174 14.339061223185652 3.0000000000000187  19.692790857263329 14.278728248427058 20.600000000000112  
19.867812785826207 14.928107596542247 2.9999999999999436  19.574144367584335 14.807456663283173 20.599999999999611  
19.603448304604335 15.482547117217173 3.0000000000000897  19.3368525535471 15.305122357366342 20.600000000000716  
19.217770335911901 15.967780981780013 2.999999999999921  18.990669218715063 15.74066921871562 20.599999999999209  
18.732534620006511 16.35345662122522 3.0000000000000457  18.555122357366493 16.086852553546866 20.600000000000538  
18.178093830323249 16.617818440999326 2.99999999999998  18.057456663282892 16.324144367584683 20.599999999999781  
17.589046822456066 16.75000000000005 3.0000000000000067  17.528728248426965 16.442790857263422 20.600000000000051  
16.999999999999858 16.75 3  16.999999999999858 16.442790857263368 20.600000000000001  

0 9
1.5707963267948966 9

0 2
1 2

1 -16.999999999999858 -16.75 0 0 1 0 1 0 0 0 0 -1 
10 4.7123889803846906 6.2831853071795862 0 17.602680973572777
3 16.999999999999854 -13.749999999999998 3 0 0 1 1 0 -0 -0 1 0 3.0000000000000009
-0.017453292519943341
1 -18.000000000000142 -13.749999999999998 0 -1 0 0 0 1 0 0 0 -1 
1 -16.999999999999858 14.750000000000002 0 0 1 0 1 0 0 0 0 -1 
10 3.1415926535897931 4.7123889803846897 0 17.602680973572767
3 -16.999999999999858 13.750000000000002 3 0 0 1 1 0 -0 0 -1 -0 1
-0.017453292519943299
1 17.999999999999854 13.750000000000002 0 1 0 -0 0 -1 0 0 -0 -1 
10 4.7123889803846932 6.2831853071795862 0 17.602680973572767
3 16.999999999999854 13.750000000000002 3 0 0 1 1 0 -0 0 -1 -0 1
-0.017453292519943299
1 16.999999999999854 -14.749999999999998 0 0 -1 0 -1 0 0 -0 -0 -1 
10 0 1.5707963267948966 0 17.602680973572767
3 16.999999999999854 -13.749999999999998 3 0 0 1 1 0 -0 0 -1 -0 1
-0.017453292519943299
10 1.5707963267948966 3.1415926535897931 0 17.602680973572767
3 -17.000000000000139 -13.749999999999998 3 0 0 1 1 0 -0 0 -1 -0 1
-0.017453292519943299
1 -19.846395428631823 5.3544292599700004e-06 11.800000000000001 -0.99984769515639127 0 0.017452406437283428 7.3698189178633319e-09 -0.99999999999991085 4.2221664303003725e-07 0.017452406437281874 4.2228095846537528e-07 0.99984769515630212 
1 -16.999999999999858 -16.442790857263372 20.600000000000001 0 -0.99984769515639127 0.017452406437283439 1 0 0 -0 0.017452406437283439 0.99984769515639127 
2 -17.000000000000139 -13.749999999999998 20.600000000000001 0 -0 1 1 0 0 -0 1 0 2.6927908572633723
1 -16.999999999999858 16.442790857263372 20.600000000000001 -0 0.99984769515639127 0.017452406437283439 -1 0 -0 -0 -0.017452406437283439 0.99984769515639127 
1 -16.999999999999858 13.750000000000002 20.600000000000001 0 -0 1 1 0 0 -0 1 0 
2 16.999999999999854 13.750000000000002 20.600000000000001 0 -0 1 1 0 0 -0 1 0 2.6927908572633705
9 0 0 0 0 1 1 2 2 2 2 19.999999999999854 -13.749999999999998 3  19.692790857263226 -13.749999999999998 20.600000000000001  
19.999999999999854 13.75001440073626 3  19.692790857263226 13.750000000000002 20.600000000000001  

-27.500014400736259 2
0 2

0 2
1 2

2 16.999999999999854 -13.749999999999998 20.600000000000001 0 -0 1 1 0 0 -0 1 0 2.6927908572633705
1 -17.000000000000139 -13.749999999999998 20.599999999999991 0 0 1 1 0 -0 -0 1 0 
1 17.692790857263226 13.750000000000002 20.599999999999991 -0.99984769515639138 -0 -0.017452406437283449 0 -1 0 -0.017452406437283449 0 0.99984769515639138 
1 -16.999999999999858 14.442790857263372 20.599999999999991 -0 -0.99984769515639138 -0.01745240643728355 1 0 -0 0 -0.01745240643728355 0.99984769515639138 
1 -17.692790857263514 -13.749999999999998 20.599999999999991 0.99984769515639138 -0 -0.017452406437283449 0 1 0 0.017452406437283449 -0 0.99984769515639138 
1 16.999999999999854 -14.442790857263368 20.599999999999991 -0 0.99984769515639138 -0.01745240643728355 -1 0 0 0 0.01745240643728355 0.99984769515639138 
1 -16.999999999999858 -16.442790857263372 20.600000000000001 0 -0.99984769515639127 0.017452406437283439 1 0 0 -0 0.017452406437283439 0.99984769515639127 
1 -17.692790857263514 -13.749999999999998 20.599999999999991 0.99984769515639138 -0 -0.017452406437283449 0 1 0 0.017452406437283449 -0 0.99984769515639138 
1 -9.7099999999999998e-14 -3.3360000000000002e-14 20.599999999999998 0 0 1 1 0 -0 -0 1 0 
1 -16.999999999999858 14.442790857263372 20.599999999999991 -0 -0.99984769515639138 -0.01745240643728355 1 0 -0 0 -0.01745240643728355 0.99984769515639138 
1 17.692790857263226 13.750000000000002 20.599999999999991 -0.99984769515639138 -0 -0.017452406437283449 0 -1 0 -0.017452406437283449 0 0.99984769515639138 
1 16.999999999999854 -14.442790857263368 20.599999999999991 -0 0.99984769515639138 -0.01745240643728355 -1 0 0 0 0.01745240643728355 0.99984769515639138 
1 19.846395428631538 3.6001840664199999e-06 11.800000000000001 0.99984769515639127 0 0.017452406437283428 4.955283713395222e-09 0.9999999999999597 -2.8388801380994071e-07 -0.017452406437282724 2.8393125791577325e-07 0.99984769515635097 
Triangulations 0

TShapes 270
Ve
1e-07
-30.1678320924025 3.49472340761627 0
0 0

0101101
*
Ed
 1e-07 1 1 0
1  1 0 0 3
2  1 2 0 0 3
4 G1 1 0 2 0
2  2 1 0 0 3
0

0101000
+270 3 -270 5 *
Ve
1e-07
-19.2387611956584 15.7469848043522 0
0 0

0101101
*
Ve
1e-07
-19.2387611956584 15.7469848043522 3
0 0

0101101
*
Ed
 1e-07 1 1 0
1  2 0 0 3
2  1 3 0 0 3
4 G1 1 0 3 0
2  3 1 0 0 3
0

0101000
+268 3 -267 0 *
Ed
 1e-07 1 1 0
1  3 0 0 16.4183586268544
2  4 1 6 0 16.4183586268544
0

0101000
+270 0 -268 0 *
Ed
 1e-07 1 1 0
1  3 0 0 16.4183586268544
2  5 1 7 0 16.4183586268544
0

0101000
+270 0 -267 7 *
Wi

0101100
+269 0 -266 0 -265 3 +264 5 *
Fa
0  1e-07 1 0

0111000
+263 0 *
Ve
1e-07
-30.1678320924025 -3.49472340761627 0
0 0

0101101
*
Ed
 1e-07 1 1 0
1  4 0 0 3
2  6 2 0 0 3
4 G1 4 0 2 0
2  7 4 0 0 3
0

0101000
+261 3 -261 5 *
Ed
 1e-07 1 1 0
1  5 0 2.41321262207646 3.86997268510312
2  4 2 6 2.41321262207646 3.86997268510312
2  5 2 7 2.41321262207646 3.86997268510312
0

0101000
+270 0 -261 0 *
Wi

0101100
+269 0 -260 0 -259 3 +259 5 *
Fa
0  1e-07 2 0

0111000
+258 0 *
Ve
1e-07
-16.9999999999999 16.75 0
0 0

0101101
*
Ve
1e-07
-16.9999999999999 16.75 3
0 0

0101101
*
Ed
 1e-07 1 1 0
1  6 0 0 3
2  8 3 0 0 3
4 G1 3 0 5 0
0

0101000
+256 3 -255 0 *
Ed
 1e-07 1 1 0
1  7 0 1.5707963267949 2.41321262207646
2  4 3 6 1.5707963267949 2.41321262207646
2  5 3 7 1.5707963267949 2.41321262207646
0

0101000
+256 0 -268 0 *
Ed
 1e-07 1 1 0
1  7 0 1.5707963267949 2.41321262207646
2  4 3 6 1.5707963267949 2.41321262207646
2  5 3 7 1.5707963267949 2.41321262207646
2  9 6 7 1.5707963267949 2.41321262207646
0

0101000
+255 7 -267 7 *
Wi

0101100
+254 0 -266 0 -253 3 +252 5 *
Fa
0  1e-07 3 0

0111000
+251 0 *
Ve
1e-07
16.9999999999999 16.75 0
0 0

0101101
*
Ed
 1e-07 1 1 0
1  8 0 0 33.9999999999997
0

0101000
+256 0 -249 0 *
Ve
1e-07
19.2387611956584 15.7469848043522 0
0 0

0101101
*
Ed
 1e-07 1 1 0
1  9 0 0.72838003151333 1.5707963267949
2  4 8 6 0.72838003151333 1.5707963267949
2  5 8 7 0.72838003151333 1.5707963267949
0

0101000
+247 0 -249 0 *
Ve
1e-07
30.1678320924025 3.49472340761627 0
0 0

0101101
*
Ed
 1e-07 1 1 0
1  10 0 0 16.4183586268544
2  4 9 6 0 16.4183586268544
0

0101000
+247 0 -245 0 *
Ve
1e-07
30.1678320924025 -3.49472340761627 0
0 0

0101101
*
Ed
 1e-07 1 1 0
1  11 0 5.55480527566626 7.01156533869292
2  4 10 6 5.55480527566626 7.01156533869292
2  5 10 7 5.55480527566626 7.01156533869292
0

0101000
+243 0 -245 0 *
Ve
1e-07
19.2387611956584 -15.7469848043522 0
0 0

0101101
*
Ed
 1e-07 1 1 0
1  12 0 0 16.4183586268544
2  4 11 6 0 16.4183586268544
0

0101000
+243 0 -241 0 *
Ve
1e-07
16.9999999999999 -16.75 0
0 0

0101101
*
Ed
 1e-07 1 1 0
1  13 0 4.71238898038469 5.55480527566626
2  4 12 6 4.71238898038469 5.55480527566626
2  5 12 7 4.71238898038469 5.55480527566626
0

0101000
+239 0 -241 0 *
Ve
1e-07
-16.9999999999999 -16.75 0
0 0

0101101
*
Ed
 1e-07 1 1 0
1  14 0 0 33.9999999999997
0

0101000
+237 0 -239 0 *
Ve
1e-07
-19.2387611956584 -15.7469848043522 0
0 0

0101101
*
Ed
 1e-07 1 1 0
1  15 0 3.86997268510312 4.71238898038469
2  4 13 6 3.86997268510312 4.71238898038469
2  5 13 7 3.86997268510312 4.71238898038469
0

0101000
+235 0 -237 0 *
Ed
 1e-07 1 1 0
1  16 0 0 16.4183586268544
2  4 4 6 0 16.4183586268544
0

0101000
+235 0 -261 0 *
Wi

0101100
+265 0 -253 0 +248 0 -246 0 +244 0 -242 0 +240 0 -238 0 -236 0 -234 0 
+233 0 -259 0 *
Ve
1e-07
-18.0000000000001 -13.75 0
0 0

0101101
*
Ve
1e-07
-18 13.75 0
0 0

0101101
*
Ed
 1e-07 1 1 0
1  17 0 0 27.5
0

0101000
+231 0 -230 0 *
Ve
1e-07
-16.9999999999999 14.75 0
0 0

0101101
*
Ed
 1e-07 1 1 0
1  18 0 1.5707963267949 3.14159265358978
2  4 14 6 1.5707963267949 3.14159265358978
2  5 14 7 1.5707963267949 3.14159265358978
0

0101000
+228 0 -230 0 *
Ve
1e-07
16.9999999999999 14.75 0
0 0

0101101
*
Ed
 1e-07 1 1 0
1  19 0 0 33.9999999999997
0

0101000
+228 0 -226 0 *
Ve
1e-07
17.9999999999999 13.75 0
0 0

0101101
*
Ed
 1e-07 1 1 0
1  20 0 0 1.5707963267949
2  4 15 6 0 1.5707963267949
2  5 15 7 0 1.5707963267949
0

0101000
+224 0 -226 0 *
Ve
1e-07
17.9999999999999 -13.75 0
0 0

0101101
*
Ed
 1e-07 1 1 0
1  21 0 0 27.5
0

0101000
+224 0 -222 0 *
Ve
1e-07
16.9999999999999 -14.75 0
0 0

0101101
*
Ed
 1e-07 1 1 0
1  22 0 4.71238898038469 6.28318530717959
2  4 16 6 4.71238898038469 6.28318530717959
2  5 16 7 4.71238898038469 6.28318530717959
0

0101000
+220 0 -222 0 *
Ve
1e-07
-17.0000000000001 -14.75 0
0 0

0101101
*
Ed
 1e-07 1 1 0
1  23 0 0 34
0

0101000
+220 0 -218 0 *
Ed
 1e-07 1 1 0
1  24 0 3.14159265358979 4.71238898038469
2  4 17 6 3.14159265358979 4.71238898038469
2  5 17 7 3.14159265358979 4.71238898038469
0

0101000
+231 0 -218 0 *
Wi

0101100
+229 0 -227 0 +225 0 -223 0 +221 0 -219 0 +217 0 -216 0 *
Ve
1e-07
-24 -0 0
0 0

0101101
*
Ed
 1e-07 1 1 0
1  25 0 0 6.28318530717959
2  4 18 6 0 6.28318530717959
2  5 18 7 0 6.28318530717959
0

0101100
+214 0 -214 0 *
Wi

0101100
+213 0 *
Ve
1e-07
28.5 0 0
0 0

0101101
*
Ed
 1e-07 1 1 0
1  26 0 0 6.28318530717959
2  4 19 6 0 6.28318530717959
2  5 19 7 0 6.28318530717959
0

0101100
+211 0 -211 0 *
Wi

0101100
+210 0 *
Fa
0  1e-07 7 0

0111000
-232 3 +215 3 -212 3 -209 3 *
Ve
1e-07
-19.9999999999618 13.750021417717 3
0 0

0101101
*
Ed
 1e-07 1 1 0
1  27 0 2.41321262207646 3.14158551435078
2  10 6 11 2.41321262207646 3.14158551435078
4 C0 6 11 20 11
0

0101000
+267 11 -207 11 *
Ve
1e-07
-20.0000000000001 -13.75 3
0 0

0101101
*
Ed
 1e-07 1 1 0
1  28 0 0 27.500021417717
2  4 21 11 0 27.500021417717
4 C0 21 11 20 11
0

0101000
+207 11 -205 11 *
Ve
1e-07
-19.2387611956584 -15.7469848043522 3
0 0

0101101
*
Ed
 1e-07 1 1 0
1  29 0 3.14159265358979 3.86997268510319
2  4 22 11 3.14159265358979 3.86997268510319
4 C0 22 11 20 11
0

0101000
+205 11 -203 11 *
Ed
 1e-07 1 1 0
1  16 0 0 16.4183586268544
2  5 4 7 0 16.4183586268544
0

0101000
+203 7 -261 0 *
Wi

0101100
-264 5 -206 10 -204 10 -202 10 -201 5 +259 5 *
Wi

0101100
-213 5 *
Fa
0  1e-07 7 4

0111000
+200 0 +199 0 *
Ed
 1e-07 1 1 0
1  30 0 0 3
2  11 13 0 0 3
4 G1 13 0 4 0
2  2 4 0 0 3
0

0101000
+235 3 -203 0 *
Wi

0101100
+197 0 -260 0 -233 3 +201 5 *
Fa
0  1e-07 4 0

0111000
+196 0 *
Ve
1e-07
16.9999999999999 16.75 3
0 0

0101101
*
Ed
 1e-07 1 1 0
1  31 0 0 3
2  8 8 0 0 3
4 G1 5 0 8 0
0

0101000
+249 3 -194 0 *
Ed
 1e-07 1 1 0
1  8 0 0 33.9999999999997
0

0101000
+255 7 -194 7 *
Wi

0101100
+254 0 -193 0 -248 3 +192 5 *
Fa
0  1e-07 5 0

0111000
+191 0 *
Ve
1e-07
-19.6927908572632 13.75 20.6
0 0

0101101
*
Ed
 1e-07 1 1 0
1  32 0 0 1
2  12 6 0 0 1
2  13 21 0 0 1
4 C0 6 0 21 0
0

0101000
+207 0 -189 0 *
Ve
1e-07
-16.9999999999999 16.4427908572634 20.6
0 0

0101101
*
Ed
 1e-07 1 1 0
1  33 0 7.85398163397448 9.42477796076938
2  14 6 0 7.85398163397448 9.42477796076938
4 C0 6 0 23 0
2  4 24 0 7.85398163397448 9.42477796076938
2  15 24 13 7.85398163397448 9.42477796076938
0

0101000
+187 0 -189 0 *
Ed
 1e-07 1 1 0
1  34 0 0 1
2  16 6 0 0 1
4 G1 6 0 25 0
0

0101000
+255 0 -187 0 *
Wi

0101100
+252 5 +206 10 +188 0 -186 0 -185 0 *
Fa
0  1e-07 6 0

0111000
+184 0 *
Ve
1e-07
19.2387611956584 15.7469848043522 3
0 0

0101101
*
Ed
 1e-07 1 1 0
1  35 0 0 3
2  17 8 0 0 3
4 G1 8 0 9 0
2  2 9 0 0 3
0

0101000
+247 3 -182 0 *
Ed
 1e-07 1 1 0
1  9 0 0.72838003151333 1.5707963267949
2  4 8 6 0.72838003151333 1.5707963267949
2  5 8 7 0.72838003151333 1.5707963267949
2  18 26 7 0.72838003151333 1.5707963267949
0

0101000
+182 7 -194 7 *
Wi

0101100
+181 0 -193 0 -246 3 +180 5 *
Fa
0  1e-07 8 0

0111000
+179 0 *
Ed
 1e-07 1 1 0
1  36 0 0 3
2  19 10 0 0 3
4 G1 9 0 10 0
2  7 9 0 0 3
0

0101000
+245 3 -245 5 *
Ed
 1e-07 1 1 0
1  10 0 0 16.4183586268544
2  5 9 7 0 16.4183586268544
0

0101000
+182 7 -245 0 *
Wi

0101100
+181 0 -177 0 -244 3 +176 5 *
Fa
0  1e-07 9 0

0111000
+175 0 *
Ed
 1.00000002e-07 1 1 0
1  37 0 0 3
2  20 10 0 0 3
4 G1 10 0 11 0
2  21 11 0 0 3
0

0101000
+243 3 -243 5 *
Wi

0101100
+173 0 -177 0 -242 3 +242 5 *
Fa
0  1e-07 10 0

0111000
+172 0 *
Ve
1e-07
19.2387611956584 -15.7469848043522 3
0 0

0101101
*
Ed
 1e-07 1 1 0
1  38 0 0 3
2  22 12 0 0 3
4 G1 11 0 12 0
2  3 11 0 0 3
0

0101000
+241 3 -170 0 *
Ed
 1e-07 1 1 0
1  12 0 0 16.4183586268544
2  5 11 7 0 16.4183586268544
0

0101000
+243 0 -170 7 *
Wi

0101100
+173 0 -169 0 -240 3 +168 5 *
Fa
0  1e-07 11 0

0111000
+167 0 *
Ve
1e-07
16.9999999999999 -16.75 3
0 0

0101101
*
Ed
 1e-07 1 1 0
1  39 0 0 3
2  23 12 0 0 3
4 G1 12 0 27 0
0

0101000
+239 3 -165 0 *
Ed
 1e-07 1 1 0
1  13 0 4.71238898038469 5.55480527566626
2  4 12 6 4.71238898038469 5.55480527566626
2  5 12 7 4.71238898038469 5.55480527566626
2  24 28 7 4.71238898038469 5.55480527566626
0

0101000
+165 7 -170 7 *
Wi

0101100
+164 0 -169 0 -238 3 +163 5 *
Fa
0  1e-07 12 0

0111000
+162 0 *
Ve
1e-07
-16.9999999999999 -16.75 3
0 0

0101101
*
Ed
 1e-07 1 1 0
1  40 0 0 3
2  23 13 0 0 3
4 G1 27 0 13 0
0

0101000
+237 3 -160 0 *
Ed
 1e-07 1 1 0
1  14 0 0 33.9999999999997
0

0101000
+160 7 -165 7 *
Wi

0101100
+159 0 -164 0 -236 3 +158 5 *
Fa
0  1e-07 27 0

0111000
+157 0 *
Ed
 1e-07 1 1 0
1  15 0 3.86997268510312 4.71238898038469
2  4 13 6 3.86997268510312 4.71238898038469
2  5 13 7 3.86997268510312 4.71238898038469
2  25 22 7 3.86997268510312 4.71238898038469
0

0101000
+203 7 -160 7 *
Wi

0101100
+197 0 -159 0 -234 3 +155 5 *
Fa
0  1e-07 13 0

0111000
+154 0 *
Ve
1e-07
-18.0000000000001 -13.75 3
0 0

0101101
*
Ed
 1e-07 1 1 0
1  41 0 0 3
2  26 17 0 0 3
4 C1 29 0 17 0
0

0101000
+231 3 -152 0 *
Ve
1e-07
-18 13.75 3
0 0

0101101
*
Ed
 1e-07 1 1 0
1  42 0 0 3
2  27 14 0 0 3
4 C1 29 0 14 0
0

0101000
+230 3 -150 0 *
Ed
 1e-07 1 1 0
1  17 0 0 27.5
0

0101000
+152 7 -150 7 *
Wi

0101100
+151 0 -149 0 -229 3 +148 5 *
Fa
0  1e-07 29 0

0111000
+147 0 *
Ve
1e-07
-16.9999999999999 14.75 3
0 0

0101101
*
Ed
 1e-07 1 1 0
1  43 0 0 3
2  28 14 0 0 3
4 C1 14 0 30 0
0

0101000
+228 3 -145 0 *
Ed
 1e-07 1 1 0
1  18 0 1.5707963267949 3.14159265358978
2  4 14 6 1.5707963267949 3.14159265358978
2  5 14 7 1.5707963267949 3.14159265358978
2  29 31 7 1.5707963267949 3.14159265358978
0

0101000
+145 7 -150 7 *
Wi

0101100
+144 0 -149 0 -227 3 +143 5 *
Fa
0  1e-07 14 0

0111000
+142 0 *
Ve
1e-07
16.9999999999999 14.75 3
0 0

0101101
*
Ed
 1e-07 1 1 0
1  44 0 0 3
2  30 15 0 0 3
4 C1 30 0 15 0
0

0101000
+226 3 -140 0 *
Ed
 1e-07 1 1 0
1  19 0 0 33.9999999999997
0

0101000
+145 7 -140 7 *
Wi

0101100
+144 0 -139 0 -225 3 +138 5 *
Fa
0  1e-07 30 0

0111000
+137 0 *
Ve
1e-07
17.9999999999999 13.75 3
0 0

0101101
*
Ed
 1e-07 1 1 0
1  45 0 0 3
2  2 15 0 0 3
4 C1 15 0 32 0
0

0101000
+224 3 -135 0 *
Ed
 1e-07 1 1 0
1  20 0 0 1.5707963267949
2  4 15 6 0 1.5707963267949
2  5 15 7 0 1.5707963267949
2  31 33 7 0 1.5707963267949
0

0101000
+135 7 -140 7 *
Wi

0101100
+134 0 -139 0 -223 3 +133 5 *
Fa
0  1e-07 15 0

0111000
+132 0 *
Ve
1e-07
17.9999999999999 -13.75 3
0 0

0101101
*
Ed
 1e-07 1 1 0
1  46 0 0 3
2  32 16 0 0 3
4 C1 32 0 16 0
0

0101000
+222 3 -130 0 *
Ed
 1e-07 1 1 0
1  21 0 0 27.5
0

0101000
+135 7 -130 7 *
Wi

0101100
+134 0 -129 0 -221 3 +128 5 *
Fa
0  1e-07 32 0

0111000
+127 0 *
Ve
1e-07
16.9999999999999 -14.75 3
0 0

0101101
*
Ed
 1e-07 1 1 0
1  47 0 0 3
2  33 16 0 0 3
4 C1 16 0 34 0
0

0101000
+220 3 -125 0 *
Ed
 1e-07 1 1 0
1  22 0 4.71238898038469 6.28318530717959
2  4 16 6 4.71238898038469 6.28318530717959
2  5 16 7 4.71238898038469 6.28318530717959
2  34 35 7 4.71238898038469 6.28318530717959
0

0101000
+125 7 -130 7 *
Wi

0101100
+124 0 -129 0 -219 3 +123 5 *
Fa
0  1e-07 16 0

0111000
+122 0 *
Ve
1e-07
-17.0000000000001 -14.75 3
0 0

0101101
*
Ed
 1e-07 1 1 0
1  48 0 0 3
2  23 17 0 0 3
4 C1 34 0 17 0
0

0101000
+218 3 -120 0 *
Ed
 1e-07 1 1 0
1  23 0 0 34
0

0101000
+125 7 -120 7 *
Wi

0101100
+124 0 -119 0 -217 3 +118 5 *
Fa
0  1e-07 34 0

0111000
+117 0 *
Ed
 1e-07 1 1 0
1  24 0 3.14159265358979 4.71238898038469
2  4 17 6 3.14159265358979 4.71238898038469
2  5 17 7 3.14159265358979 4.71238898038469
2  35 36 7 3.14159265358979 4.71238898038469
0

0101000
+152 7 -120 7 *
Wi

0101100
+151 0 -119 0 -216 3 +115 5 *
Fa
0  1e-07 17 0

0111000
+114 0 *
Ed
 1e-07 1 1 0
1  49 0 0 3
3  2 32CN 18 0 0 3
0

0101000
+214 3 -214 5 *
Wi

0101100
+112 0 -112 0 -213 3 +213 5 *
Fa
0  1e-07 18 0

0111000
+111 0 *
Ed
 1e-07 1 1 0
1  50 0 0 3
3  2 32CN 19 0 0 3
0

0101000
+211 3 -211 5 *
Wi

0101100
+109 0 -109 0 -210 3 +210 5 *
Fa
0  1e-07 19 0

0111000
+108 0 *
Ve
1e-07
-19.6927908572635 -13.75 20.6
0 0

0101101
*
Ed
 1e-07 1 1 0
1  51 0 0 1
2  36 21 0 0 1
2  37 22 0 0 1
4 G1 21 0 22 0
0

0101000
+205 0 -106 0 *
Ed
 1e-07 1 1 0
1  52 0 2.1417717033e-05 27.500021417717
2  38 21 0 2.1417717033e-05 27.500021417717
4 C0 21 0 23 0
0

0101000
+189 0 -106 0 *
Wi

0101100
+204 10 +105 0 -104 0 -188 0 *
Fa
0  1e-07 37 0

0111000
+103 0 *
Ve
1e-07
-17.0000000000001 -16.4427908572634 20.6
0 0

0101101
*
Ed
 1e-07 1 1 0
1  53 0 0 1
2  39 22 0 0 1
4 G1 22 0 38 0
0

0101000
+160 0 -101 0 *
Ed
 1e-07 1 1 0
1  54 0 3.14159265358979 4.71238898038469
2  40 22 0 3.14159265358979 4.71238898038469
4 C0 22 0 23 0
2  4 39 0 3.14159265358979 4.71238898038469
2  15 39 13 3.14159265358979 4.71238898038469
0

0101000
+106 0 -101 0 *
Wi

0101100
+202 10 +155 5 +100 0 -99 0 -105 0 *
Fa
0  1e-07 22 0

0111000
+98 0 *
Ve
1e-07
16.9999999999999 16.4427908572634 20.6
0 0

0101101
*
Ed
 1e-07 1 1 0
1  55 0 0 33.9999999999997
4 C0 25 0 23 0
0

0101000
+187 0 -96 0 *
Ed
 1e-07 1 1 0
1  56 0 0 1
2  16 26 0 0 1
4 G1 26 0 25 0
0

0101000
+194 0 -96 0 *
Wi

0101100
-192 5 +185 0 +95 0 -94 0 *
Fa
0  1e-07 40 0

0111000
+93 0 *
Ve
1e-07
19.6927908572632 13.75 20.6
0 0

0101101
*
Ed
 1e-07 1 1 0
1  57 0 6.28318530717959 7.85398163397448
2  14 26 0 6.28318530717959 7.85398163397448
4 C0 26 0 23 0
2  4 42 0 6.28318530717959 7.85398163397448
2  15 42 13 6.28318530717959 7.85398163397448
0

0101000
+91 0 -96 0 *
Ve
1e-07
19.6927908572632 -13.75 20.6
0 0

0101101
*
Ed
 1e-07 1 1 0
1  58 0 1.4400736259e-05 27.5000144007363
2  41 43 0 1.4400736259e-05 27.5000144007363
4 C0 43 0 23 0
0

0101000
+91 0 -89 0 *
Ve
1e-07
16.9999999999999 -16.4427908572634 20.6
0 0

0101101
*
Ed
 1e-07 1 1 0
1  59 0 -2.81e-13 33.9999999999997
4 C0 38 0 23 0
0

0101000
+101 0 -87 0 *
Ed
 1e-07 1 1 0
1  60 0 4.71238898038469 6.28318530717959
2  40 28 0 4.71238898038469 6.28318530717959
4 C0 28 0 23 0
2  4 44 0 4.71238898038469 6.28318530717959
2  15 44 13 4.71238898038469 6.28318530717959
0

0101000
+87 0 -89 0 *
Wi

0101100
+186 0 -95 0 +104 0 +90 0 +99 0 -88 0 +86 0 +85 0 *
Ve
1e-07
16.9999999999999 -14.4427908572634 20.6
0 0

0101101
*
Ve
1e-07
17.6927908572632 -13.75 20.6
0 0

0101101
*
Ed
 1e-07 1 1 0
1  61 0 4.71238898038469 6.28318530717959
2  42 35 0 4.71238898038469 6.28318530717959
4 C0 35 0 45 0
0

0101000
+83 0 -82 0 *
Ve
1e-07
17.6927908572632 13.75 20.6
0 0

0101101
*
Ed
 1e-07 1 1 0
1  62 0 -0 27.5
4 C0 46 0 45 0
0

0101000
+80 0 -82 0 *
Ve
1e-07
16.9999999999999 14.4427908572634 20.6
0 0

0101101
*
Ed
 1e-07 1 1 0
1  63 0 6.28318530717959 7.85398163397448
2  43 33 0 6.28318530717959 7.85398163397448
4 C0 33 0 45 0
0

0101000
+80 0 -78 0 *
Ve
1e-07
-16.9999999999999 14.4427908572634 20.6
0 0

0101101
*
Ed
 1e-07 1 1 0
1  64 0 0 33.9999999999997
4 C0 47 0 45 0
0

0101000
+76 0 -78 0 *
Ve
1e-07
-17.6927908572635 13.75 20.6
0 0

0101101
*
Ed
 1e-07 1 1 0
1  65 0 7.85398163397448 9.42477796076938
2  43 31 0 7.85398163397448 9.42477796076938
4 C0 31 0 45 0
0

0101000
+76 0 -74 0 *
Ve
1e-07
-17.6927908572635 -13.75 20.6
0 0

0101101
*
Ed
 1e-07 1 1 0
1  66 0 -0 27.5
4 C0 48 0 45 0
0

0101000
+72 0 -74 0 *
Ve
1e-07
-17.0000000000001 -14.4427908572634 20.6
0 0

0101101
*
Ed
 1e-07 1 1 0
1  67 0 3.14159265358979 4.71238898038469
2  42 36 0 3.14159265358979 4.71238898038469
4 C0 36 0 45 0
0

0101000
+72 0 -70 0 *
Ed
 1e-07 1 1 0
1  68 0 0 34
4 C0 49 0 45 0
0

0101000
+83 0 -70 0 *
Wi

0101100
-81 0 +79 0 -77 0 +75 0 -73 0 +71 0 -69 0 +68 0 *
Fa
0  1e-07 41 0

0111000
+84 0 +67 0 *
Ve
1e-07
19.9999999999826 13.7500144007363 3
0 0

0101101
*
Ed
 1e-07 1 1 0
1  69 0 4.800245419e-06 0.72838003151333
2  44 26 11 4.800245419e-06 0.72838003151333
4 C0 26 11 20 11
0

0101000
+65 11 -182 11 *
Ed
 1e-07 1 1 0
1  70 0 0 1
2  13 43 0 0 1
2  13 26 0 0 1
4 C0 43 0 26 0
0

0101000
+65 0 -91 0 *
Wi

0101100
+64 10 +180 5 +94 0 -90 0 -63 0 *
Fa
0  1e-07 26 0

0111000
+62 0 *
Ve
1e-07
19.9999999999999 -13.75 3
0 0

0101101
*
Ed
 1e-07 1 1 0
1  71 0 5.55480527566626 6.28318530717959
2  4 28 11 5.55480527566626 6.28318530717959
4 C0 28 11 20 11
0

0101000
+170 11 -60 11 *
Ed
 1e-07 1 1 0
1  72 0 0 27.5000144007363
2  45 43 11 0 27.5000144007363
4 C0 43 11 20 11
0

0101000
+65 11 -60 11 *
Wi

0101100
-176 5 +242 5 -168 5 -59 10 +58 10 -64 10 *
Wi

0101100
-210 5 *
Fa
0  1e-07 7 4

0111000
+57 0 +56 0 *
Ed
 1e-07 1 1 0
1  73 0 0 1
2  46 28 0 0 1
2  47 43 0 0 1
4 G1 28 0 43 0
0

0101000
+60 0 -89 0 *
Ed
 1e-07 1 1 0
1  74 0 0 1
2  48 28 0 0 1
4 G1 38 0 28 0
0

0101000
+165 0 -87 0 *
Wi

0101100
+163 5 +59 10 +54 0 -85 0 -53 0 *
Fa
0  1e-07 28 0

0111000
+52 0 *
Wi

0101100
+158 5 +53 0 -86 0 -100 0 *
Fa
0  1e-07 50 0

0111000
+50 0 *
Ve
1.50000007e-07
-17.7277009871199 -13.75 18.6
0 0

0101101
*
Ed
 1e-07 1 1 0
1  75 0 0 0.886363636363637
2  49 36 0 0 0.886363636363637
4 G1 36 0 48 0
0

0101000
+152 0 -48 0 *
Ve
1.50000026e-07
-17.7277009871199 13.75 18.6
0 0

0101101
*
Ed
 1.5e-07 1 1 0
1  76 0 -20.625 6.87499999999998
2  50 51 0 -20.625 6.87499999999998
2  51 52 12 -20.625 6.87499999999998
0

0101000
+46 0 -48 0 *
Ed
 1e-07 1 1 0
1  77 0 0 0.886363636363637
2  49 31 0 0 0.886363636363637
4 G1 48 0 31 0
0

0101000
+150 0 -46 0 *
Wi

0101100
-47 0 +45 0 +44 0 +148 5 *
Fa
0  1e-07 51 0

0111000
+43 0 *
Ve
1.50000004e-07
-16.9999999999999 14.4777009871198 18.6
0 0

0101101
*
Ed
 1e-07 1 1 0
1  78 0 1.5707963267949 3.14159265358979
2  52 31 0 1.5707963267949 3.14159265358979
2  53 52 12 1.5707963267949 3.14159265358979
0

0101000
+41 0 -46 0 *
Ed
 1e-07 1 1 0
1  79 0 0 0.886363636363637
2  54 31 0 0 0.886363636363637
4 G1 31 0 47 0
0

0101000
+145 0 -41 0 *
Wi

0101100
-143 5 -44 0 +40 0 +39 0 *
Fa
0  1e-07 31 0

0111000
+38 0 *
Ve
1.50000004e-07
16.9999999999999 14.4777009871198 18.6
0 0

0101101
*
Ed
 1.5e-07 1 1 0
1  80 0 -25.4999999999998 8.49999999999988
2  55 53 0 -25.4999999999998 8.49999999999988
2  56 52 12 -25.4999999999998 8.49999999999988
0

0101000
+36 0 -41 0 *
Ed
 1e-07 1 1 0
1  81 0 0 0.886363636363637
2  57 33 0 0 0.886363636363637
4 G1 47 0 33 0
0

0101000
+140 0 -36 0 *
Wi

0101100
-39 0 +35 0 +34 0 +138 5 *
Fa
0  1e-07 53 0

0111000
+33 0 *
Ve
1.50000004e-07
17.7277009871197 13.75 18.6
0 0

0101101
*
Ed
 1e-07 1 1 0
1  82 0 0 1.5707963267949
2  52 33 0 0 1.5707963267949
2  58 52 12 0 1.5707963267949
0

0101000
+31 0 -36 0 *
Ed
 1e-07 1 1 0
1  83 0 0 0.886363636363637
2  59 33 0 0 0.886363636363637
4 G1 33 0 46 0
0

0101000
+135 0 -31 0 *
Wi

0101100
-133 5 -34 0 +30 0 +29 0 *
Fa
0  1e-07 33 0

0111000
+28 0 *
Ve
1.50000004e-07
17.7277009871197 -13.75 18.6
0 0

0101101
*
Ed
 1.5e-07 1 1 0
1  84 0 -20.625 6.87500000000002
2  60 54 0 -20.625 6.87500000000002
2  61 52 12 -20.625 6.87500000000002
0

0101000
+26 0 -31 0 *
Ed
 1e-07 1 1 0
1  85 0 0 0.886363636363637
2  62 35 0 0 0.886363636363637
4 G1 46 0 35 0
0

0101000
+130 0 -26 0 *
Wi

0101100
-29 0 +25 0 +24 0 +128 5 *
Fa
0  1e-07 54 0

0111000
+23 0 *
Ve
1.50000004e-07
16.9999999999999 -14.4777009871198 18.6
0 0

0101101
*
Ed
 1e-07 1 1 0
1  86 0 4.71238898038469 6.28318530717959
2  52 35 0 4.71238898038469 6.28318530717959
2  63 52 12 4.71238898038469 6.28318530717959
0

0101000
+21 0 -26 0 *
Ed
 1e-07 1 1 0
1  87 0 0 0.886363636363637
2  64 35 0 0 0.886363636363637
4 G1 49 0 35 0
0

0101000
+125 0 -21 0 *
Wi

0101100
-123 5 -24 0 +20 0 +19 0 *
Fa
0  1e-07 35 0

0111000
+18 0 *
Ve
1.50000004e-07
-17.0000000000001 -14.4777009871198 18.6
0 0

0101101
*
Ed
 1.5e-07 1 1 0
1  88 0 -25.5 8.49999999999998
2  65 55 0 -25.5 8.49999999999998
2  66 52 12 -25.5 8.49999999999998
0

0101000
+16 0 -21 0 *
Ed
 1e-07 1 1 0
1  89 0 0 0.886363636363637
2  64 36 0 0 0.886363636363637
4 G1 49 0 36 0
0

0101000
+120 0 -16 0 *
Wi

0101100
-19 0 +15 0 +14 0 +118 5 *
Fa
0  1e-07 55 0

0111000
+13 0 *
Ed
 1e-07 1 1 0
1  90 0 3.14159265358979 4.71238898038469
2  52 36 0 3.14159265358979 4.71238898038469
2  67 52 12 3.14159265358979 4.71238898038469
0

0101000
+48 0 -16 0 *
Wi

0101100
-115 5 -14 0 +11 0 +47 0 *
Fa
0  1e-07 36 0

0111000
+10 0 *
Wi

0101100
-58 10 +63 0 +88 0 -54 0 *
Fa
0  1e-07 56 0

0111000
+8 0 *
Wi

0101100
-68 0 +69 0 -71 0 +73 0 -75 0 +77 0 -79 0 +81 0 *
Fa
0  1e-07 52 0

0111000
+6 0 *
Wi

0101100
+40 0 +35 0 +30 0 +25 0 +20 0 +15 0 +11 0 +45 0 *
Fa
0  1e-07 52 12

0111000
+4 0 *
Sh

0101100
+262 0 -257 0 -250 0 -208 0 +198 0 +195 0 +190 0 +183 0 -178 0 +174 0 
-171 0 +166 0 -161 0 -156 0 -153 0 -146 0 +141 0 -136 0 +131 0 -126 0 
+121 0 -116 0 +113 0 +110 0 +107 0 +102 0 +97 0 +92 0 +66 0 +61 0 
+55 0 +51 0 +49 0 +42 0 +37 0 +32 0 +27 0 +22 0 +17 0 +12 0 
+9 0 +7 0 +5 0 -3 0 *
So

0100000
+2 0 *

+1 0 