DBRep_DrawableShape

CASCADE Topology V1, (c) Matra-Datavision
Locations 25
1
              1               0               0               0 
              0               1               0               0 
              0               0               1               0 
1
              1               0               0               0 
              0               1               0               0 
              0               0               1               0 
1
              1               0               0               0 
              0               1               0               0 
              0               0               1               0 
2  2 1 3 1 0
1
              1               0               0               0 
              0               1               0               0 
              0               0               1               0 
1
              1               0               0               0 
              0               1               0               0 
              0               0               1               0 
1
              1               0               0               0 
              0               1               0               0 
              0               0               1               0 
1
              1               0               0               0 
              0               1               0               0 
              0               0               1               0 
2  5 1 6 1 7 1 8 1 0
2  3 -1 2 -1 0
2  5 1 6 1 7 1 8 1 2 1 0
2  3 -1 0
2  5 1 6 1 7 1 8 1 2 1 3 1 0
1
              1               0               0               0 
              0               1               0               0 
              0               0               1               0 
1
              1               0               0               0 
              0               1               0               0 
              0               0               1               0 
1
              1               0               0               0 
              0               1               0               0 
              0               0               1               0 
1
              1               0               0               0 
              0               1               0               0 
              0               0               1               0 
2  14 1 15 1 16 1 17 1 0
2  2 -1 0
2  14 1 15 1 16 1 17 1 8 -1 7 -1 6 -1 5 -1 0
2  8 -1 7 -1 6 -1 5 -1 0
2  14 1 15 1 16 1 17 1 2 1 0
2  5 1 6 1 7 1 8 1 17 -1 16 -1 15 -1 14 -1 0
2  17 -1 16 -1 15 -1 14 -1 0
2  2 -1 8 -1 7 -1 6 -1 5 -1 0
Curve2ds 88
1 -4.7123889803846897 -1.51e-14 1 0 
2 13.526587547422434 -936 1 -2.2e-16 2.2e-16 1 49
1 0 0 0 1 
1 15.553928066036987 -982.14787841458474 0 -1 
8 -30.000000000000139 -1.3877999999999999e-13
1 -8.1600000000000001e-14 -992.5 -1 2.2e-16 
8 -30.000000000000139 -1.3877999999999999e-13
1 -1.3877999999999999e-13 -985 -1 0 
1 -4.7123889803846897 -1.599e-14 1 0 
2 11.398325554568697 -966 1 -2.2e-16 2.2e-16 1 49
1 15 0 0 -1 
1 0 0 0 -1 
1 1015 -992.49999999999977 -1 -2.2e-16 
8 -14.999999999999861 15.000000000000139
1 15.000000000000082 -992.5 -1 -2.2e-16 
8 -14.999999999999861 15.000000000000139
1 14.999999999999861 -1015 1 0 
7 0 0  8 16 3  0 2.8101637278619123  0.044249100200762018 2.7368699523565692  0.088351697842456736 2.5905632935583363  0.13194585543996401 2.3724716549352625  0.17480165854432705 2.0875707248632906  0.21676339285143131 1.7427061653832716  0.25772949939896167 1.3454900641181062  0.2976422145833959 0.90351819959848445  0.38616567834598414 -0.18981292000191452  0.4341159535393404 -0.86543263476892296  0.48047999888719806 -1.5907790560618844  0.52538346208330688 -2.355232467881148  0.56895434525993616 -3.1498218202406276  0.61133008563228808 -3.9673126149089697  0.65266690970551877 -4.8022181308171668  0.69314971518189095 -5.6507204821597199 
 0 9 0.43878487366878272 7 1 9
7 0 0  8 16 3  0.041386109710797918 -7.1100000000000008e-15  0.077538781071320173 -6.5799999999999996e-15  0.11363361205178446 0.089507776958454965  0.14933867460617289 0.26748626567750189  0.18442862476930166 0.5284281936600308  0.21874392012952892 0.86478132111231298  0.252174402745454 1.268150092643842  0.28465091688790345 1.7301673406637184  0.35641916594202971 2.8992833744466453  0.39510024435679725 3.6390585577107255  0.43226336181095082 4.4489379325367162  0.46797862354284092 5.3176487202521958  0.50232075293121792 6.2359879012870323  0.53537177049445894 7.1969501730193333  0.56722478361252282 8.1958277670953414  0.5979833699782251 9.2305087265508838 
 0 9 0.43878487366878272 7 1 9
1 13.526587547422491 -992.5 6.0000000000000001e-17 -1 
7 0 0  5 6 2  0.34287071141010761 -7.8160000000000005e-14  0.40402505946139511 2.3441997749562251  0.46517940751268139 4.6244318628998187  0.52633375556397244 6.8224287467956444  0.58748810361525761 8.9209327874714379  0.64864245166654511 10.904492654703491 
 5.0552596917947978 6 5.3610314320512353 6
3 102.01457249349059 -936 -1 -3.5000000000000002e-16 -3.5000000000000002e-16 1 63.699460695707948 49
1 -4.7123889803846897 14.999999999999986 1 0 
2 16.473412452577563 -936 -1 -2.2e-16 -2.2e-16 1 49
1 0.64864245166654377 0 0 1 
1 16.47341245257762 -992.5 4.0000000000000003e-17 -1 
7 0 0  5 6 2  0.34287071141010761 14.999999999999918  0.40402505946139528 17.253162890491907  0.46517940751268405 19.444842275991164  0.52633375556396889 21.557480057599605  0.58748810361525827 23.574488795724999  0.64864245166654599 25.481017211802413 
 5.0552596917947978 6 5.3610314320512362 6
3 -21.079673360184906 -936 1 -3.5999999999999998e-16 3.5999999999999998e-16 1 62.701276837601654 49
1 0.69314971518189095 0 0 1 
1 66.153245681014312 -982.14787841458474 0 -1 
7 0 0  8 16 3  0 32.675588973206132  0.042782929072016689 32.529930455274567  0.085272624657619311 32.316221003277015  0.12716443942649047 32.036736286352159  0.16826912350510431 31.696637945052579  0.20846285688673294 31.302420629841269  0.24767056754906075 30.861009528018101  0.28585707946121952 30.379108859478446  0.37509708550116527 29.139236656048645  0.42516186187185595 28.348161014508424  0.47341544950496528 27.503379222647276  0.52001513674323951 26.616657549283026  0.56511619867150564 25.697782387695078  0.60888005833243874 24.754436067871953  0.65148743857809999 23.79218756856028  0.69314971518189095 22.814544328921126 
 0 9 0.41649241206369686 7 1 9
7 0 0  8 16 3  0.084910207880697364 -7.1100000000000008e-15  0.11996132682905358 -5.5300000000000003e-15  0.15489171610643826 0.083674493702868918  0.18941819340490884 0.24901606815652177  0.22335017498762877 0.49037363763710062  0.25655510697013284 0.80056680057261254  0.28894483364292434 1.1718952595553229  0.32046850684821049 1.5968814200571158  0.39403806849174661 2.7300025628481084  0.43522777369771948 3.4832414918008547  0.47478980660420689 4.3124380755435618  0.51281440609198814 5.204524424998052  0.5493950120702582 6.1489340916067725  0.58463159628082817 7.137738386013492  0.61863735714798285 8.1656822200314121  0.65153898302559909 9.2305087265508803 
 0 9 0.41649241206369686 7 1 9
1 0 0 6.0000000000000001e-17 -1 
1 30 6.6600000000000001e-15 -0 -1 
1 1007.5 -984.99999999999977 -1 -2.2e-16 
8 -14.999999999999865 15.000000000000139
1 14.999999999999917 -1007.5 1 -2.2e-16 
8 -14.999999999999865 15.000000000000139
1 15.000000000000139 -985 -1 0 
1 18.60167444543125 -992.5 -6.0000000000000001e-17 -1 
7 0 0  5 6 2  0.38939200963314002 2.1320000000000001e-14  0.45664167510832215 2.5322654258295705  0.52389134058350439 4.9771827856872477  0.59114100605868813 7.3108873760959625  0.65839067153386854 9.5111862902259681  0.72564033700905073 11.558793637463662 
 5.1017809900178301 6 5.4380293173937408 6
3 104.78128966010192 -966 -1 -3.5000000000000002e-16 -3.5000000000000002e-16 1 63.699460695707948 49
1 -4.7123889803846897 14.999999999999984 1 0 
2 18.6016744454313 -966 -1 -2.2e-16 -2.2e-16 1 49
1 0.72564033700905073 0 0 1 
1 64.277756054542635 -992.5 -4.0000000000000003e-17 -1 
7 0 0  5 6 2  0.38939200963313986 15.000000000000014  0.45664167510832221 17.433925020942986  0.52389134058350617 19.78389413381592  0.59114100605868369 22.026969419742699  0.65839067153386921 24.141819832353136  0.72564033700905151 26.109908447659272 
 5.1017809900178301 6 5.4380293173937417 6
3 -23.80303549073323 -966 1 -3.5999999999999998e-16 3.5999999999999998e-16 1 62.701276837601654 49
1 30 6.6600000000000001e-15 0 -1 
1 1015 -1007.4999999999998 -1 -2.2e-16 
1 30 6.6600000000000001e-15 -6.0000000000000001e-17 -1 
1 0 0 -0 -1 
1 1007.5 -1014.9999999999998 -1 -2.2e-16 
8 -1.4011e-13 29.999999999999865
1 8.5149999999999996e-14 -1007.5 1 2.2e-16 
8 -1.4011e-13 29.999999999999865
1 1.4011e-13 -1015 1 0 
8 -8.9896319060874816 84.312297334416201
1 7.4961215889449395 -997.46202004537486 0.83386301766914572 -0.55197143745279631 
8 -8.9896319060874816 84.312297334416201
1 72.833581116937651 -980.47155452169704 -0.8638547806146315 0.50374092350060962 
1 -0 0 0 -1 
1 20 4.4400000000000004e-15 0 -1 
8 -4.9499424131661387 92.626950343264411
1 4.2043602396210211 -1041.3874753840093 0.84937558635788479 0.52778889084481451 
8 -4.9499424131661387 92.626950343264411
1 4.0886932291490838 -962.79007483261171 0.82600824168655951 -0.56365803876630605 
7 0 0  5 6 2  2.8999999999999998e-16 -11.558793637463609  0.067249665475180631 -9.5111862902259681  0.13449933095036148 -7.3108873760960051  0.20174899642554212 -4.977182785687404  0.26899866190072158 -2.532265425829765  0.33624832737590193 -2.9132000000000001e-13 
 3.9867486433756394 6 4.3229969707515412 6
3 -24.18197204512467 -1009 -1 -3.5000000000000002e-16 3.5000000000000002e-16 -1 63.699460695707948 49
1 77.801028270839737 -3.3300000000000001e-15 4.0000000000000003e-17 -1 
8 -111.60430043950538 -19.391231951357003
1 -16.360563746426322 -997.09078146591003 -0.84370935211681797 0.53680026932800573 
8 -111.60430043950538 -19.391231951357003
1 -16.683413796777035 -994.88350042630805 -0.86035863211928709 -0.50968914461446924 
1 79.336309467985686 -1.3769999999999999e-14 0 -1 
7 0 0  5 6 2  8.7000000000000004e-16 1.8900915523408273  0.067249665475181131 3.8581801676469079  0.13449933095036215 5.9730305802572019  0.20174899642554056 8.2161058661840372  0.26899866190072208 10.56607497905684  0.33624832737590238 12.99999999999973 
 3.9867486433756398 6 4.3229969707515412 6
3 103.13934495871899 -1009 1 -3.5999999999999998e-16 -3.5999999999999998e-16 -1 62.701276837601654 49
8 -66.414162162633659 30.122100454063627
1 25.860774629408674 -1041.5545711833033 -0.85853158443735378 -0.512760683480595 
8 -66.414162162633659 30.122100454063627
1 54.581090872688726 -977.1615875741079 0.82182909631580459 0.56973409275621567 
1 18.601674445431243 -1044 -4.0000000000000003e-17 -1 
1 -3.9867486433756389 7.1100000000000008e-15 1 0 
2 1.3983255545686541 -1009 -1 -2.2e-16 2.2e-16 -1 49
8 -9.9999999999998668 10.000000000000119
1 9.9999999999998668 -1044 1 -2.2e-16 
8 -9.9999999999998668 10.000000000000119
1 10.000000000000108 -938 -1 0 
8 -1.2434e-13 19.999999999999869
1 1.3233999999999999e-13 -1044 1 2.2e-16 
8 -1.2434e-13 19.999999999999869
1 1.1368999999999999e-13 -960 1 0 
1 13.000000000000021 0 0 -1 
1 -938 -1043.9999999999998 1 -2.2e-16 
1 1.3983255545686575 -1044 -6.0000000000000001e-17 -1 
1 -3.9867486433756389 13.000000000000028 1 0 
2 18.601674445431346 -1009 1 -2.2e-16 -2.2e-16 -1 49
1 20 -4.4400000000000004e-15 6.0000000000000001e-17 -1 
1 1057 -937.99999999999977 -1 -2.2e-16 
8 -20.000000000000121 -1.3523e-13
1 -1.3523e-13 -1057 -1 2.2e-16 
8 -20.000000000000121 -1.3523e-13
1 -1.088e-13 -938 -1 0 
8 -9.999999999999865 10.000000000000124
1 10.000000000000135 -1057 -1 -2.2e-16 
8 -9.999999999999865 10.000000000000124
1 9.9999999999998863 -960 1 0 
1 20 -4.4400000000000004e-15 0 -1 
1 -938 -1056.9999999999998 1 -2.2e-16 
1 22 -4.8799999999999996e-15 0 -1 
1 0 0 -6.0000000000000001e-17 -1 
1 1057 -959.99999999999977 -1 -2.2e-16 
Curves 46
8 4.7123889803846897 5.055259691794797
2 -7.5 64.000000000000014 13.52658754742242 -1 2.2e-16 -2.8000000000000001e-16 -2.8000000000000001e-16 0 1 2.2e-16 1 6.1600000000000008e-32 49
1 -7.5000000000000071 17.852121585415258 15.553928066036983 0 -1 2.2e-16 
1 -7.5 15 -1.4211000000000001e-13 -0 -2.2e-16 -1 
8 4.7123889803846897 5.1017809900178301
2 -7.5 33.999999999999993 11.398325554568689 -1 2.2e-16 -2.8000000000000001e-16 -2.8000000000000001e-16 0 1 2.2e-16 1 6.1600000000000008e-32 49
1 -7.5 1000 -2.2204000000000001e-13 0 -1 2.2e-16 
1 -7.5 -14.999999999999996 14.999999999999865 0 2.2e-16 1 
8 0 1
7 0 0  8 16 3  -7.5000000000000053 15.041957857553347 15.553928066036985  -7.5000000000000053 15.115251633058691 17.323892074067466  -7.4104922230415635 15.261558291858227 19.087996021154737  -7.2325137343223957 15.479649930475746 20.826481242227302  -6.9715718063401688 15.764550860557963 22.525018268624585  -6.6352186788874974 16.109415420027748 24.173327381453657  -6.2318499073562208 16.506631521298445 25.764446723967698  -5.7698326593362808 16.948603385816778 27.294197391893423  -4.6007166255533551 18.041934505417178 30.636563846666704  -3.860941442289195 18.717554220181665 32.409761302111562  -3.0510620674635494 19.442900641485522 34.083301292073699  -2.1823512797474436 20.207354053284398 35.660845888579146  -1.2640120987131898 21.001943405664576 37.146993018439673  -0.30304982698060456 21.819434200321538 38.54703813304117  0.69582776709533967 22.654339716232432 39.866821777862341  1.7305087265508821 23.502842067574985 41.112457107692315 
 0 9 0.43878487366878272 7 1 9
1 -7.4999999999999956 15.000000000000014 13.52658754742243 1 -2.2e-16 2.8000000000000001e-16 
8 5.0552596917947978 5.3610314320512353
3 -21.183560343673307 64.000000000000014 13.526587547422416 -0.76923728183622786 1.4000000000000001e-16 0.63896322604138323 0.63896322604138323 -1.8000000000000002e-16 0.76923728183622786 2.2270660014452089e-16 1 4.9007859084727374e-17 63.699460695707948 49
8 4.7123889803846897 5.055259691794797
2 7.5000000000000009 64.000000000000014 13.526587547422423 -1 2.2e-16 -2.8000000000000001e-16 -2.8000000000000001e-16 0 1 2.2e-16 1 6.1600000000000008e-32 49
1 -7.5000000000000018 24.951672908175958 43.127738729934208 1 -2.2e-16 2.8000000000000001e-16 
8 5.0552596917947978 5.3610314320512362
3 -5.6521599419772661 64.000000000000014 13.52658754742242 -0.78148328824166702 1.4000000000000001e-16 0.62392617367681547 0.62392617367681547 -1.8000000000000002e-16 0.78148328824166702 2.2171437161566019e-16 1 5.3317327568745909e-17 62.701276837601654 49
1 1.7305087265508803 17.852121585415265 41.112457107692315 0 -1 2.2e-16 
8 0 1
7 0 0  8 16 3  -7.5000000000000053 -14.823467387790872 15.553928066037017  -7.5000000000000044 -14.677808869859305 17.265245228917685  -7.416325506297051 -14.464099417860737 18.964833104008413  -7.2509839318437415 -14.184614700940338 20.635732273176359  -7.0096263623624999 -13.84451635963228 22.265875968154909  -6.6994331994276699 -13.4502990444298 23.846817623932715  -6.3281047404445854 -13.008887942601595 25.373060808968248  -5.903118579942884 -12.526987274063183 26.841567064761357  -4.7699974371518916 -11.287115070633382 30.226545995356837  -4.0167585081991941 -10.496039429093766 32.086214217413811  -3.1875619244563778 -9.6512576372301382 33.834982907816553  -2.2954755750018379 -8.7645359638703688 35.477716105188961  -1.3510659083934708 -7.8456608022779033 37.020193997407681  -0.3622616139863668 -6.9023144824573119 38.468821967329824  0.66568222003141031 -5.9400659831450149 39.830530051299959  1.7305087265508785 -4.9624227435058614 41.112457107692322 
 0 9 0.41649241206369686 7 1 9
1 -1000 15.000000000000222 -2.8088999999999998e-13 1 -2.2e-16 2.8000000000000001e-16 
1 7.5 15 14.99999999999986 -0 2.2e-16 1 
1 -7.4999999999999947 -15.000000000000007 11.3983255545687 1 -2.2e-16 2.8000000000000001e-16 
8 5.1017809900178301 5.4380293173937408
3 -22.951390869995365 33.999999999999993 11.398325554568686 -0.76923728183622786 1.4000000000000001e-16 0.63896322604138323 0.63896322604138323 -1.8000000000000002e-16 0.76923728183622786 2.2270660014452089e-16 1 4.9007859084727374e-17 63.699460695707948 49
8 4.7123889803846897 5.1017809900178301
2 7.5 33.999999999999993 11.398325554568693 -1 2.2e-16 -2.8000000000000001e-16 -2.8000000000000001e-16 0 1 2.2e-16 1 6.1600000000000008e-32 49
1 -7.5000000000000009 -2.6556572803786054 43.91544088393681 1 -2.2e-16 2.8000000000000001e-16 
8 5.1017809900178301 5.4380293173937417
3 -7.3513368556266228 33.999999999999993 11.398325554568689 -0.78148328824166702 1.4000000000000001e-16 0.62392617367681547 0.62392617367681547 -1.8000000000000002e-16 0.78148328824166702 2.2171437161566019e-16 1 5.3317327568745909e-17 62.701276837601654 49
1 7.5 1000 -2.2204000000000001e-13 0 -1 2.2e-16 
1 -1000 -14.999999999999778 -2.7422999999999998e-13 1 -2.2e-16 2.8000000000000001e-16 
1 7.5 -14.999999999999996 29.999999999999865 0 -2.2e-16 -1 
1 -2.5379799546251434 19.528445478302928 35.973694035208325 0.55197143745279631 0.50374092350060973 0.66450930334122993 
1 43.999999999999993 1000 91.99999999999973 0 -1 2.2e-16 
1 41.387475384009434 37.209925167388349 88.85482473414703 -0.52778889084481451 -0.56365803876630616 -0.63539633460929079 
8 3.9867486433756394 4.3229969707515412
3 59.4513908699954 -8.9999999999999822 110.6016744454313 0.76923728183622786 -1.4000000000000001e-16 -0.63896322604138323 0.63896322604138323 -1.8000000000000002e-16 0.76923728183622786 -2.2270660014452089e-16 -1 -4.9007859084727374e-17 63.699460695707948 49
1 7.5 1000 29.99999999999978 0 -1 2.2e-16 
1 -1000 62.000000000000256 91.99999999999973 1 -2.2e-16 2.8000000000000001e-16 
1 -2.9092185340899448 5.1164995736919252 16.962190926998176 -0.53680026932800573 -0.50968914461446935 -0.67235589289568298 
1 57.000000000000014 1000 91.99999999999973 0 -1 2.2e-16 
8 3.9867486433756398 4.3229969707515412
3 71.85133685562667 -8.999999999999984 110.60167444543131 0.78148328824166702 -1.4000000000000001e-16 -0.62392617367681547 0.62392617367681547 -1.8000000000000002e-16 0.78148328824166702 -2.2171437161566019e-16 -1 -5.3317327568745909e-17 62.701276837601654 49
1 41.554571183303352 22.838412425892159 72.654210371005917 0.512760683480595 0.56973409275621578 0.64224570456155239 
1 44 27.655657280378627 78.084559116063176 1 -2.2e-16 2.8000000000000001e-16 
8 4.3229969707515394 4.7123889803846897
2 43.999999999999993 -8.9999999999999787 110.6016744454313 1 -2.2e-16 2.8000000000000001e-16 -2.8000000000000001e-16 0 1 -2.2e-16 -1 -6.1600000000000008e-32 49
1 44 62.000000000000014 101.99999999999983 -0 2.2e-16 1 
1 44 40.000000000000014 111.99999999999983 0 -2.2e-16 -1 
1 43.999999999999993 1000 111.99999999999973 0 -1 2.2e-16 
1 44 40.000000000000028 110.6016744454313 1 -2.2e-16 2.8000000000000001e-16 
8 4.3229969707515394 4.7123889803846897
2 57.000000000000014 -8.9999999999999822 110.6016744454313 1 -2.2e-16 2.8000000000000001e-16 -2.8000000000000001e-16 0 1 -2.2e-16 -1 -6.1600000000000008e-32 49
1 -1000 62.000000000000263 111.99999999999973 1 -2.2e-16 2.8000000000000001e-16 
1 57.000000000000007 62.000000000000014 91.999999999999829 -0 -2.2e-16 -1 
1 57.000000000000007 40.000000000000014 101.99999999999983 0 2.2e-16 1 
1 57.000000000000014 1000 111.99999999999973 0 -1 2.2e-16 
1 -1000 40.000000000000263 111.99999999999973 1 -2.2e-16 2.8000000000000001e-16 
Polygon3D 0
PolygonOnTriangulations 0
Surfaces 20
1 -7.5 1000 -2.2204000000000001e-13 -1 0 0 0 2.2e-16 1 0 1 -2.2e-16 
2 -7.4999999999999849 64.000000000000014 13.52658754742242 1 -2.2e-16 2.8000000000000001e-16 -2.2000000000000005e-16 -1 2.2e-16 -2.7999999999999996e-16 2.2000000000000005e-16 1 49
2 32.499999999999993 17.852121585415258 15.553928066036983 0 -1 2.2e-16 -1 0 0 0 2.2e-16 1 40
1 -1000 15.000000000000222 -2.8088999999999998e-13 -2.2e-16 -1 2.2e-16 -2.2e-16 2.2000000000000005e-16 1 -1 2.1999999999999995e-16 -2.2000000000000005e-16 
2 -7.499999999999984 33.999999999999993 11.398325554568689 1 -2.2e-16 2.8000000000000001e-16 -2.2000000000000005e-16 -1 2.2e-16 -2.7999999999999996e-16 2.2000000000000005e-16 1 49
1 7.5 1000 -2.2204000000000001e-13 -0 -2.2e-16 -1 -1 0 0 0 1 -2.2e-16 
1 -1000 -14.999999999999778 -2.7422999999999998e-13 -2.8000000000000001e-16 2.2e-16 1 2.2e-16 1 -2.1999999999999995e-16 -1 2.1999999999999995e-16 -2.8000000000000006e-16 
1 -1000 -14.999999999999771 29.999999999999726 2.2e-16 1 -2.2e-16 2.2e-16 -2.2000000000000005e-16 -1 -1 2.1999999999999995e-16 -2.2000000000000005e-16 
1 43.999999999999993 1000 91.99999999999973 0.76923728183622786 -1.4000000000000001e-16 -0.63896322604138323 -0.63896322604138323 -1.7e-16 -0.76923728183622786 -9.3052896996323922e-19 1 -2.2022518955795238e-16 
1 7.5 1000 29.99999999999978 1 0 0 0 -2.2e-16 -1 0 1 -2.2e-16 
1 -1000 15.000000000000229 29.999999999999719 -3.4e-16 -0.79690463452702165 0.60410512617371015 -4.0000000000000028e-17 0.60410512617371015 0.79690463452702165 -1 2.4678337069223888e-16 -2.3727192828014232e-16 
1 7.5 1000 29.99999999999978 -0.78148328824166702 1.4000000000000001e-16 0.62392617367681547 0.62392617367681547 1.7e-16 0.78148328824166702 3.3402108287747601e-18 1 -2.2020182331583756e-16 
1 -1000 40.000000000000256 91.99999999999973 3.5000000000000002e-16 0.7480746383750736 -0.66361459855853311 2.0000000000000026e-17 -0.66361459855853311 -0.7480746383750736 -1 2.4855383146010503e-16 -2.4722660226298802e-16 
1 43.999999999999993 1000 111.99999999999973 1 0 0 0 -2.2e-16 -1 0 1 -2.2e-16 
2 43.999999999999986 -8.9999999999999787 110.6016744454313 1 -2.2e-16 2.8000000000000001e-16 3.5038850803890548e-16 0.7480746383750736 -0.66361459855853311 -6.3465687062143333e-17 0.66361459855853311 0.7480746383750736 49
1 -1000 62.000000000000256 91.99999999999973 -2.2e-16 -1 2.2e-16 -2.2e-16 2.2000000000000005e-16 1 -1 2.1999999999999995e-16 -2.2000000000000005e-16 
1 57.000000000000014 1000 91.99999999999973 -1 0 0 0 2.2e-16 1 0 1 -2.2e-16 
1 -1000 40.000000000000263 111.99999999999973 2.2e-16 1 -2.2e-16 2.2e-16 -2.2000000000000005e-16 -1 -1 2.1999999999999995e-16 -2.2000000000000005e-16 
1 57.000000000000014 1000 111.99999999999973 -0 -2.2e-16 -1 -1 0 0 0 1 -2.2e-16 
1 -1000 62.000000000000263 111.99999999999973 2.8000000000000001e-16 -2.2e-16 -1 -2.2e-16 -1 2.1999999999999995e-16 -1 2.1999999999999995e-16 -2.8000000000000006e-16 
Triangulations 0

TShapes 114
Ve
1e-07
-7.50000000000001 15.0419578575534 15.553928066037
0 0

0101101
*
Ve
1.5e-07
-7.49999999999999 15 13.5265875474224
0 0

0101101
*
Ed
 1e-07 1 1 0
1  1 0 4.71238898038469 4.75377509009549
2  1 2 0 4.71238898038469 4.75377509009549
2  2 1 11 4.71238898038469 4.75377509009549
0

0101000
-114 12 +113 0 *
Ve
1e-07
-7.50000000000001 -14.8234673877909 15.553928066037
0 0

0101101
*
Ed
 1e-07 1 1 0
1  2 0 2.81016372786191 32.6755889732061
2  3 3 0 2.81016372786191 32.6755889732061
2  4 1 13 2.81016372786191 32.6755889732061
4 G1 3 0 1 13
0

0101000
+114 0 -111 0 *
Ve
1.5e-07
-7.5 15 -4e-15
0 0

0101101
*
Ed
 1.5e-07 1 1 0
1  3 0 -13.5265875474226 -1.39e-13
2  5 4 18 -13.5265875474226 -1.39e-13
2  6 1 9 -13.5265875474226 -1.39e-13
0

0101000
+113 19 -109 0 *
Ve
1.5e-07
-7.5 -15 11.3983255545687
0 0

0101101
*
Ed
 1e-07 1 1 0
1  4 0 4.71238898038469 4.79729918826539
2  7 5 0 4.71238898038469 4.79729918826539
2  8 1 11 4.71238898038469 4.79729918826539
0

0101000
-111 12 +107 0 *
Ve
1.5e-07
-7.5 -15 2e-15
0 0

0101101
*
Ed
 1e-07 1 1 0
1  5 0 985 1015
2  9 6 0 985 1015
2  10 1 0 985 1015
2  11 7 20 985 1015
0

0101000
+109 21 -105 21 *
Ed
 1.5e-07 1 1 0
1  6 0 -14.9999999999999 -3.60167444543117
2  12 8 18 -14.9999999999999 -3.60167444543117
2  13 1 9 -14.9999999999999 -3.60167444543117
0

0101000
-107 19 +105 0 *
Wi

0101100
-112 3 -110 0 +108 4 +106 3 +104 13 +103 4 *
Fa
0  1e-07 1 9

0111000
+102 10 *
Ve
1e-07
1.73050872655088 23.502842067575 41.1124571076923
0 0

0101101
*
Ed
 1e-07 1 1 0
1  7 0 0 1
2  14 3 0 0 1
2  15 2 3 0 1
0

0101000
+114 0 -100 0 *
Ve
1.5e-07
7.5 15 13.5265875474224
0 0

0101101
*
Ed
 1e-07 1 1 0
1  8 0 3e-15 15
2  3 2 0 3e-15 15
2  16 4 22 3e-15 15
4 G1 2 0 4 22
0

0101000
+113 0 -98 0 *
Ve
1.5e-07
3.40449265470369 24.951672908176 43.1277387299342
0 0

0101101
*
Ed
 1e-07 1 1 0
1  9 0 5.31037234994744 5.36103143205124
2  17 2 0 5.31037234994744 5.36103143205124
2  18 9 11 5.31037234994744 5.36103143205124
0

0101000
+100 12 -96 0 *
Ve
1e-07
7.49999999999999 17.8521215854156 29.9999999999999
0 0

0101101
*
Ed
 1e-07 1 1 0
1  10 0 4.71238898038469 5.0552596917948
2  19 2 0 4.71238898038469 5.0552596917948
2  20 10 11 4.71238898038469 5.0552596917948
0

0101000
+98 0 -94 0 *
Ve
1.5e-07
17.9810172118026 24.951672908176 43.1277387299342
0 0

0101101
*
Ed
 1e-07 1 1 0
1  11 0 10.9044926547037 25.4810172118026
2  21 2 0 10.9044926547037 25.4810172118026
2  22 11 22 10.9044926547037 25.4810172118026
4 G1 2 0 11 22
0

0101000
+96 0 -92 0 *
Ed
 1e-07 1 1 0
1  12 0 5.0552596917948 5.36103143205124
2  23 2 0 5.0552596917948 5.36103143205124
2  24 12 11 5.0552596917948 5.36103143205124
0

0101000
+94 0 -92 0 *
Wi

0101100
+112 3 +99 0 -97 3 +95 3 -93 3 +91 3 -90 3 *
Fa
0  0 2 0

0111000
+89 12 *
Ve
1.058825e-07
1.73050872655088 -4.96242274350595 41.1124571076923
0 0

0101101
*
Ed
 1e-07 1 1 0
1  13 0 -5.65072047069848 22.8145443514281
2  25 3 0 -5.65072047069848 22.8145443514281
2  26 9 13 -5.65072047069848 22.8145443514281
4 G1 3 0 9 13
0

0101000
+100 0 -87 0 *
Ed
 1e-07 1 1 0
1  14 0 0 1
2  27 3 0 0 1
2  28 5 3 0 1
0

0101000
+111 0 -87 0 *
Wi

0101100
+99 0 -110 0 +86 0 -85 0 *
Fa
0  0 3 0

0111000
+84 0 *
Ve
1.5e-07
7.5 15 -2e-15
0 0

0101101
*
Ed
 1e-07 1 1 0
1  15 0 992.5 1007.5
2  29 4 0 992.5 1007.5
2  30 7 0 992.5 1007.5
2  31 6 23 992.5 1007.5
0

0101000
+109 24 -82 24 *
Ed
 1.5e-07 1 1 0
1  16 0 -14.9999999999999 -1.47341245257743
2  32 4 18 -14.9999999999999 -1.47341245257743
2  33 10 9 -14.9999999999999 -1.47341245257743
0

0101000
-98 19 +82 0 *
Wi

0101100
+108 2 -97 0 +81 22 +80 2 *
Fa
0  1e-07 4 18

0111000
+79 19 *
Ve
1.5e-07
7.5 -15 11.3983255545687
0 0

0101101
*
Ed
 1e-07 1 1 0
1  17 0 -1e-15 15
2  3 5 0 -1e-15 15
2  34 8 22 -1e-15 15
4 G1 5 0 8 22
0

0101000
+107 0 -77 0 *
Ve
1.5e-07
4.0587936374638 -2.6556572803786 43.9154408839368
0 0

0101101
*
Ed
 1e-07 1 1 0
1  18 0 5.36392796265284 5.43802931739374
2  35 5 0 5.36392796265284 5.43802931739374
2  36 9 11 5.36392796265284 5.43802931739374
0

0101000
+87 12 -75 0 *
Ve
1.209607e-07
7.49999999999998 -11.3318619496948 30
0 0

0101101
*
Ed
 1e-07 1 1 0
1  19 0 4.71238898038469 5.10178099001783
2  37 5 0 4.71238898038469 5.10178099001783
2  38 10 11 4.71238898038469 5.10178099001783
0

0101000
+77 0 -73 0 *
Ve
1.5e-07
18.6099084476595 -2.65565728037861 43.9154408839368
0 0

0101101
*
Ed
 1e-07 1 1 0
1  20 0 11.5587936374638 26.1099084476595
2  39 5 0 11.5587936374638 26.1099084476595
2  40 13 22 11.5587936374638 26.1099084476595
4 G1 5 0 13 22
0

0101000
+75 0 -71 0 *
Ed
 1e-07 1 1 0
1  21 0 5.10178099001783 5.43802931739374
2  41 5 0 5.10178099001783 5.43802931739374
2  42 12 11 5.10178099001783 5.43802931739374
0

0101000
+73 0 -71 0 *
Wi

0101100
+106 3 +85 0 -76 3 +74 3 -72 3 +70 3 -69 3 *
Fa
0  0 5 0

0111000
+68 12 *
Ve
1.5e-07
7.5 -15 4e-15
0 0

0101101
*
Ed
 1e-07 1 1 0
1  22 0 985 1015
2  43 10 0 985 1015
2  10 6 0 985 1015
2  44 7 20 985 1015
0

0101000
+82 21 -66 21 *
Ed
 1e-07 1 1 0
1  23 0 992.5 1007.5
2  45 8 0 992.5 1007.5
2  46 7 0 992.5 1007.5
2  47 6 23 992.5 1007.5
0

0101000
+105 24 -66 24 *
Wi

0101100
+104 9 -81 18 -65 9 +64 18 *
Fa
0  1e-07 7 18

0111000
+63 0 *
Ed
 1.5e-07 1 1 0
1  24 0 18.6016744454312 29.9999999999999
2  48 8 18 18.6016744454312 29.9999999999999
2  49 10 9 18.6016744454312 29.9999999999999
0

0101000
+77 19 -66 0 *
Wi

0101100
+103 2 +76 0 -64 22 +61 2 *
Fa
0  1e-07 8 18

0111000
+60 19 *
Ve
1.50000324e-07
44 62 92
0 0

0101101
*
Ed
 1.5e-07 1 1 0
1  25 0 10.7659059982375 84.3122973344162
2  50 11 18 10.7659059982375 84.3122973344162
2  51 9 9 10.7659059982375 84.3122973344162
0

0101000
+96 19 -58 0 *
Ve
1.25847993e-07
43.9999999999997 36.3318619496947 91.9999999999996
0 0

0101101
*
Ed
 1e-07 1 1 0
1  26 0 938 963.668138050306
2  52 9 0 938 963.668138050306
2  53 14 0 938 963.668138050306
0

0101000
-56 25 +58 21 *
Ve
1.5e-07
32.4412063625365 27.6556572803786 78.0845591160632
0 0

0101101
*
Ed
 1.5e-07 1 1 0
1  27 0 16.9504685995812 70.7265393305167
2  54 13 18 16.9504685995812 70.7265393305167
2  55 9 9 16.9504685995812 70.7265393305167
0

0101000
+54 19 -75 19 *
Ed
 1e-07 1 1 0
1  28 0 3.98674864337564 4.32299697075154
2  56 15 0 3.98674864337564 4.32299697075154
2  57 9 11 3.98674864337564 4.32299697075154
0

0101000
+54 0 -56 0 *
Wi

0101100
+95 3 -86 0 +57 4 -74 3 +55 13 +53 4 -52 3 *
Fa
0  1e-07 9 9

0111000
+51 10 *
Ed
 1e-07 1 1 0
1  29 0 982.147878414585 1011.33186194969
2  10 10 0 982.147878414585 1011.33186194969
2  10 12 0 982.147878414585 1011.33186194969
0

0101000
+94 25 -73 25 *
Wi

0101100
+80 2 +93 0 -65 11 +49 11 +61 2 -72 0 *
Fa
0  1e-07 10 9

0111000
+48 19 *
Ve
1.50000417e-07
57 62 92
0 0

0101101
*
Ed
 1e-07 1 1 0
1  30 0 1044 1057
2  58 11 0 1044 1057
2  29 16 0 1044 1057
0

0101000
+58 24 -46 24 *
Ed
 1.5e-07 1 1 0
1  31 0 -111.604300439505 -38.9162169610013
2  59 11 18 -111.604300439505 -38.9162169610013
2  60 12 9 -111.604300439505 -38.9162169610013
0

0101000
-92 19 +46 0 *
Wi

0101100
-57 2 +91 0 -45 22 -44 2 *
Fa
0  1e-07 11 18

0111000
+43 19 *
Ve
1.20960692e-07
56.9999999999997 36.3318619496947 91.9999999999996
0 0

0101101
*
Ed
 1e-07 1 1 0
1  32 0 938 963.668138050306
2  61 12 0 938 963.668138050306
2  10 17 0 938 963.668138050306
0

0101000
-41 25 +46 21 *
Ve
1.5e-07
45.8900915523411 27.6556572803786 78.0845591160632
0 0

0101101
*
Ed
 1e-07 1 1 0
1  33 0 3.98674864337564 4.32299697075154
2  62 15 0 3.98674864337564 4.32299697075154
2  63 12 11 3.98674864337564 4.32299697075154
0

0101000
+39 0 -41 0 *
Ed
 1.5e-07 1 1 0
1  34 0 -44.7473128787811 8.45525117021146
2  64 13 18 -44.7473128787811 8.45525117021146
2  65 12 9 -44.7473128787811 8.45525117021146
0

0101000
+71 19 -39 19 *
Wi

0101100
+44 2 -90 0 -40 11 +49 11 +38 0 +69 0 +37 2 *
Fa
0  1e-07 12 9

0111000
+36 19 *
Ed
 1e-07 1 1 0
1  35 0 -11.5587936374635 1.89009155234105
2  3 15 0 -11.5587936374635 1.89009155234105
2  66 13 22 -11.5587936374635 1.89009155234105
4 G1 15 0 13 22
0

0101000
+54 0 -39 0 *
Wi

0101100
-53 2 +34 0 -70 0 -37 2 *
Fa
0  1e-07 13 18

0111000
+33 19 *
Ve
1.5e-07
44 40 110.601674445431
0 0

0101101
*
Ed
 1e-07 1 1 0
1  36 0 4.32299697075154 4.71238898038469
2  67 15 0 4.32299697075154 4.71238898038469
2  68 14 11 4.32299697075154 4.71238898038469
0

0101000
+56 0 -31 0 *
Ve
1.5e-07
44 62 112
0 0

0101101
*
Ed
 1.5e-07 1 1 0
1  37 0 -9.99999999999987 10.0000000000001
2  69 16 18 -9.99999999999987 10.0000000000001
2  70 14 9 -9.99999999999987 10.0000000000001
0

0101000
+58 0 -29 0 *
Ve
1.5e-07
44 40 112
0 0

0101101
*
Ed
 1.5e-07 1 1 0
1  38 0 -1.24e-13 1.39832555456852
2  71 18 18 -1.24e-13 1.39832555456852
2  72 14 9 -1.24e-13 1.39832555456852
0

0101000
-31 19 +27 0 *
Ed
 1e-07 1 1 0
1  39 0 938 960
2  10 14 0 938 960
2  73 19 0 938 960
2  74 20 20 938 960
0

0101000
+29 21 -27 21 *
Wi

0101100
-55 11 -30 0 +28 2 +26 2 +25 11 *
Fa
0  1e-07 14 9

0111000
+24 19 *
Ve
1.5e-07
57 40 110.601674445431
0 0

0101101
*
Ed
 1e-07 1 1 0
1  40 0 -0 13
2  39 15 0 -0 13
2  75 18 22 -0 13
4 G1 15 0 18 22
0

0101000
+31 0 -22 0 *
Ed
 1e-07 1 1 0
1  41 0 4.32299697075154 4.71238898038469
2  76 15 0 4.32299697075154 4.71238898038469
2  77 17 11 4.32299697075154 4.71238898038469
0

0101000
+41 0 -22 0 *
Wi

0101100
+52 0 -34 0 +30 0 -38 0 +21 0 -20 0 *
Fa
0  0 15 0

0111000
+19 0 *
Ve
1.5e-07
57 62 112
0 0

0101101
*
Ed
 1e-07 1 1 0
1  42 0 1044 1057
2  78 16 0 1044 1057
2  10 20 0 1044 1057
2  79 19 23 1044 1057
0

0101000
+29 24 -17 24 *
Ed
 1.5e-07 1 1 0
1  43 0 -20.0000000000001 -1.35e-13
2  80 16 18 -20.0000000000001 -1.35e-13
2  81 17 9 -20.0000000000001 -1.35e-13
0

0101000
+17 0 -46 0 *
Wi

0101100
-28 0 -16 18 -15 0 +45 18 *
Fa
0  1e-07 16 18

0111000
+14 0 *
Ve
1.5e-07
57 40 112
0 0

0101101
*
Ed
 1.5e-07 1 1 0
1  44 0 8.60167444543148 10.0000000000001
2  82 18 18 8.60167444543148 10.0000000000001
2  83 17 9 8.60167444543148 10.0000000000001
0

0101000
+22 19 -12 0 *
Ed
 1e-07 1 1 0
1  45 0 938 960
2  84 17 0 938 960
2  10 19 0 938 960
2  85 20 20 938 960
0

0101000
+17 21 -12 21 *
Wi

0101100
+11 2 +20 0 -10 11 +40 11 +15 2 *
Fa
0  1e-07 17 9

0111000
+9 19 *
Ed
 1e-07 1 1 0
1  46 0 1044 1057
2  86 20 0 1044 1057
2  87 18 0 1044 1057
2  88 19 23 1044 1057
0

0101000
+27 24 -12 24 *
Wi

0101100
-26 2 -21 0 +7 22 -11 2 *
Fa
0  1e-07 18 18

0111000
+6 19 *
Wi

0101100
-25 9 -7 18 +10 9 +16 18 *
Fa
0  1e-07 20 18

0111000
+4 0 *
Sh

0101100
+101 4 +88 3 -83 0 -78 4 -67 3 -62 4 -59 4 -50 4 +47 4 -42 4 
-35 4 -32 4 -23 4 -18 3 -13 4 -8 4 -5 4 -3 4 *
So

0100000
+2 0 *

+1 1 