DBRep_DrawableShape

CASCADE Topology V1, (c) Matra-Datavision
Locations 59
1
              1               0               0               0 
              0               1               0               0 
              0               0               1               0 
1
              1               0               0               0 
              0               1               0               0 
              0               0               1               0 
2  1 1 2 1 0
1
              1               0               0              -0 
              0               1               0              -0 
              0               0               1           -3.25 
2  1 -1 0
1
              1               0               0               0 
              0               1               0               0 
              0               0               1               0 
1
              1               0               0               0 
              0               1               0               0 
              0               0               1           -3.75 
2  6 1 7 1 4 1 1 1 0
2  1 -1 4 -1 7 -1 6 -1 0
2  4 -1 7 -1 6 -1 0
2  4 1 1 1 0
2  7 -1 6 -1 0
2  6 1 7 1 0
2  6 1 7 1 1 1 0
2  6 1 7 1 4 1 0
1
              1               0               0               0 
              0               1               0               0 
              0               0               1               0 
1
              1               0               0               0 
              0               1               0               0 
              0               0               1           -3.75 
1
              1               0               0              -0 
              0               1               0              -0 
              0               0               1              -6 
2  16 1 17 1 18 1 0
2  17 -1 16 -1 0
2  18 -1 17 -1 16 -1 0
2  16 1 17 1 0
1
              1               0               0               0 
              0               1               0               0 
              0               0               1               0 
1
              1               0               0               0 
              0               1               0               0 
              0               0               1           -3.75 
1
              1               0               0              -0 
              0               1               0              -0 
              0               0               1              -6 
2  23 1 24 1 25 1 0
2  25 -1 24 -1 23 -1 0
1
              1               0               0               0 
              0               1               0               0 
              0               0               1               0 
1
              1               0               0               0 
              0               1               0               0 
              0               0               1               0 
2  28 -1 29 -1 2 -1 1 -1 0
2  16 1 17 1 1 1 2 1 0
1
              1               0               0               0 
              0               1               0               0 
              0               0               1               0 
1
              1               0               0               0 
              0               0              -1            10.2 
              0               1               0               0 
2  32 1 33 1 1 1 2 1 0
2  33 -1 32 -1 0
1
              1               0               0              -0 
              0               1               0              20 
              0               0               1          -4e-15 
2  36 -1 33 -1 32 -1 0
1
              1               0               0               0 
              0               1               0               0 
              0               0               1               0 
1
              1               0               0               0 
              0               0              -1            10.2 
              0               1               0               0 
2  38 1 39 1 0
2  39 -1 38 -1 0
1
              1               0               0               0 
              0               1               0               0 
              0               0               1               0 
1
              1               0               0               0 
              0               0              -1            10.2 
              0               1               0               0 
2  42 1 43 1 0
2  43 -1 42 -1 0
1
              1               0               0               0 
              0               1               0               0 
              0               0               1               0 
1
              1               0               0               0 
              0               1               0               0 
              0               0               1              14 
2  46 1 47 1 0
2  47 -1 46 -1 0
1
              1               0               0              -0 
              0               1               0              17 
              0               0               1          -4e-15 
2  42 1 43 1 50 1 0
2  50 -1 43 -1 42 -1 0
2  32 1 33 1 0
1
              1               0               0               0 
              0               1               0               0 
              0               0               1              42 
2  23 1 24 1 25 1 54 1 0
2  54 -1 25 -1 24 -1 23 -1 0
1
              1               0               0              -0 
              0               1               0             1.5 
              0               0               1              -0 
2  38 1 39 1 57 1 0
2  2 -1 1 -1 0
Curve2ds 128
1 0 -1.697056274847714 1 0 
2 -2.1547610111705024 -0.53733294874528814 -0.68942802632139821 -0.72435419272796486 0.72435419272796486 -0.68942802632139821 16.699999999999999
1 0 0 1 0 
1 0 -3.25 1 0 
1 0 -3.2500000000000018 1 0 
1 9.10345219606012 0 0 -1 
8 -23.61736649163069 -21.920310216782973
1 5.1517623387981244 21.920310216782973 -0 1 
8 -23.61736649163069 -21.920310216782973
1 -15.5 13.450000000000001 -0.70710678118654746 0.70710678118654768 
8 0 3.25
1 9.10345219606012 0 0 -1 
8 -23.61736649163069 -21.920310216782973
1 0 21.920310216782973 -0 1 
8 -23.61736649163069 -21.920310216782973
1 16.75 13.450000000000001 0.70710678118654757 0.70710678118654757 
1 3.9516898572619961 -2.0500000000000003 1 0 
1 0 -6 1 0 
1 3.9516898572619965 0 0 -1 
1 3.9516898572619961 0 0 -1 
8 0 3.25
1 3.9516898572619961 0 0 -1 
8 3.9516898572619961 9.10345219606012
1 0 0 1 0 
1 2.8202668888805338 0 0 -1 
8 -7.3511865882773186 9.6488134117226672
1 19.541977063213501 9.6488134117226743 0 1 
8 -7.3511865882773186 9.6488134117226672
1 9.6488134117226743 -6 -1 -0 
1 0.98625390298705173 0 0 -1 
1 0 0 0 -1 
1 5.7857028431554784 0 0 -1 
1 11.5 0 0 -1 
1 16.999999999999993 -23.75 -1 2.2e-16 
1 0 -20 1 0 
1 3.9269908169872427 0 0 -1 
8 -1.828934517966126 2.4549481484207347
1 1.8289345179661303 -3.4999999999999942 1 1.6000000000000001e-16 
8 -1.828934517966126 2.4549481484207347
1 3.8797559999999933 -1.2932519999999972 -0.70710678118654757 -0.70710678118654757 
8 5.8325148731290355 9.2325148731290412
1 4.2674851268709482 -23.749999999999993 1 0 
8 5.8325148731290355 9.2325148731290412
1 7.8516663526564159 4.2674851268709482 0 -1 
8 -4.4467376959769096 -0.16285502959004783
1 -0.16285502959004422 -6.8999999999999932 -1 -1.6000000000000001e-16 
8 -4.4467376959769096 -0.16285502959004783
1 0.34546768732037236 0.11515589577345864 -0.70710678118654757 0.70710678118654757 
8 -1.644385304930688 2.639497361456173
1 1.644385304930692 -10.099999999999996 1 1.6000000000000001e-16 
8 -1.644385304930688 2.639497361456173
1 3.4882679999999979 -1.1627559999999981 -0.70710678118654757 -0.70710678118654757 
8 -0.76748512687096238 2.6325148731290433
1 4.2674851268709482 -23.749999999999993 1 0 
8 -0.76748512687096238 2.6325148731290433
1 7.8516663526564159 4.2674851268709482 0 -1 
8 -4.5304217092112165 -0.24653904282435732
1 -0.24653904282435143 -13.499999999999995 -1 -1.6000000000000001e-16 
8 -4.5304217092112165 -0.24653904282435732
1 0.5229882870250222 0.17432942900834369 -0.70710678118654757 0.70710678118654757 
2 4.5 -31.75 1 0 0 -1 7.0000000000000009
1 0 -16.999999999999982 1 0 
8 -14.094414779235931 -5.3587121744078576
1 12.491451626632795 -35.471894284814532 0.88626961972449947 0.46316968937247099 
8 -14.094414779235931 -5.3587121744078576
1 -5.3587121744078576 -16.999999999999986 -1 -9.9999999999999998e-17 
2 4.5 -31.75 1 0 0 -1 2.7999999999999998
1 2e-16 0 0 -1 
8 -19.875 -11.875
1 13.499999999999989 -11.875 0 1 
8 -19.875 -11.875
1 0.66841099999999898 11.875 -0 1 
8 11.875 19.875
1 10.099999999999991 -11.875 0 -1 
8 11.875 19.875
1 0.69197499999999934 11.875 0 -1 
8 -19.875 -11.875
1 6.8999999999999915 -11.875 0 1 
8 -19.875 -11.875
1 0.75540900000000022 11.875 -0 1 
8 11.875 19.875
1 3.4999999999999893 -11.875 0 -1 
8 11.875 19.875
1 0.78714699999999738 11.875 0 -1 
1 1.0892280175971989 0 0 -1 
1 0 -3.4999999999999982 1 0 
2 6.3080250000000007 -8 -1 -0 0 -1 7.0000000000000009
1 0 -3.4999999999999929 1 0 
2 7.668410999999999 -8 -1 -0 0 -1 7.0000000000000009
1 0 -17 1 0 
8 5.7822017847139033 6.301934801441945
1 2.4337678033861301 -3.4999999999999907 1 9.9999999999999998e-17 
8 5.7822017847139033 6.301934801441945
1 10.758221360002537 -15.331134815570572 -0.88626961972449947 -0.46316968937247099 
8 -12.863953804571267 -4.647984216471202
1 -4.647984216471202 -3.4999999999999987 -1 -9.9999999999999998e-17 
8 -12.863953804571267 -4.647984216471202
1 -1.053530029624703 -12.051081932320383 -0.88626961972449947 0.46316968937247099 
1 0 -3.4999999999999947 1 0 
2 4.4876546166861999 -5.3729715831055209 1 0 0 -1 3.3146466166862045
1 3.1415926535897931 0 0 -1 
8 1.0865039999999979 4.0865039999999979
1 -1.0865039999999979 -3.4999999999999911 1 0 
8 1.0865039999999979 4.0865039999999979
1 1.0865039999999979 -18.25 1 0 
1 0 -3.4999999999999911 1 0 
2 2.1730079999999958 -17.249999999999996 1 0 0 -1 1
8 2.6864857915527578 14.563514208447234
1 -2.6864857915527578 -3.4999999999999951 1 2.2e-16 
8 2.6864857915527578 14.563514208447234
1 1.1730079999999958 -2.6864857915527622 0 -1 
1 0 -6.8999999999999986 1 0 
2 4.039376416906201 -8 1 0 0 -1 7.0000000000000009
8 0.062690457022098287 8.2786600451221659
1 -0.062690457022098287 -6.8999999999999968 1 9.9999999999999998e-17 
8 0.062690457022098287 8.2786600451221659
1 7.3371248900188277 -14.174851018565953 -0.88626961972449947 -0.46316968937247099 
2 4.039376416906201 -8 1 0 0 -1 2.7999999999999998
1 0 -6.8999999999999915 1 0 
2 -6.3080250000000007 -8 1 0 0 -1 7.0000000000000009
2 6.3080250000000007 -8 -1 -0 0 -1 2.7999999999999998
1 0 -6.8999999999999932 1 0 
2 1.1459769664076234 -5.3729715831055209 -1 -0 0 -1 3.3146466166862045
8 -14.563514208447232 -2.6864857915527574
1 -2.6864857915527574 -6.8999999999999941 -1 -2.2e-16 
8 -14.563514208447232 -2.6864857915527574
1 4.4606235830938274 -2.6864857915527622 -0 1 
1 0 -6.8999999999999897 1 0 
2 3.4606235830938274 -17.249999999999996 -1 -0 0 -1 1
8 -1.2696882084530898 1.7303117915469102
1 1.7303117915469102 -6.8999999999999897 -1 0 
8 -1.2696882084530898 1.7303117915469102
1 1.7303117915469173 -18.25 1 0 
8 -8.7983930618501827 -8.278660045122141
1 -0.062690457022107876 -6.8999999999999897 -1 -9.9999999999999998e-17 
8 -8.7983930618501827 -8.278660045122141
1 -7.3371248900188064 -14.174851018565946 -0.88626961972449947 0.46316968937247099 
1 0 -10.099999999999993 1 0 
2 3.9656706166862037 -5.3729715831055174 1 0 0 -1 3.3146466166862045
8 5.7464432028038779 6.5332440820330717
1 2.2024585227950042 -10.099999999999993 1 9.9999999999999998e-17 
8 5.7464432028038779 6.5332440820330717
1 10.441239748150785 -15.223999367930208 -0.88626961972449947 -0.46316968937247099 
8 0.82551200000000335 3.8255120000000034
1 -0.82551200000000335 -10.099999999999989 1 0 
8 0.82551200000000335 3.8255120000000034
1 0.82551199999999625 -18.25 1 0 
1 0 -10.099999999999989 1 0 
2 1.6510239999999996 -17.249999999999993 1 0 0 -1 1
8 2.6864857915527565 14.563514208447232
1 -2.6864857915527565 -10.099999999999993 1 2.2e-16 
8 2.6864857915527565 14.563514208447232
1 0.6510239999999996 -2.6864857915527622 0 -1 
1 0 -13.499999999999996 1 0 
2 3.8026822839666679 -7.9999999999999964 1 0 0 -1 7.0000000000000009
8 0.16757786661776847 8.1164795922166828
1 -0.16757786661776847 -13.499999999999998 1 9.9999999999999998e-17 
8 0.16757786661776847 8.1164795922166828
1 7.1933892816955378 -14.126270349644443 -0.88626961972449947 -0.46316968937247099 
2 3.8026822839666679 -7.9999999999999964 1 0 0 -1 2.7999999999999998
1 0 -13.499999999999993 1 0 
2 -6.2128530000000026 -7.9999999999999964 1 0 0 -1 7.0000000000000009
1 0 -10.099999999999991 1 0 
2 7.7554090000000002 -7.9999999999999964 -1 -0 0 -1 7.0000000000000009
8 -12.554711915945909 -4.6058101903469959
1 -4.6058101903469959 -10.1 -1 -9.9999999999999998e-17 
8 -12.554711915945909 -4.6058101903469959
1 -1.1113244715293504 -12.070615662899918 -0.88626961972449947 0.46316968937247099 
1 0 -10.099999999999998 1 0 
2 6.2128530000000026 -7.9999999999999964 -1 -0 0 -1 7.0000000000000009
2 6.2128530000000026 -7.9999999999999964 -1 -0 0 -1 2.7999999999999998
1 0 -13.499999999999995 1 0 
2 1.3826710993471565 -5.3729715831055174 -1 -0 0 -1 3.3146466166862045
8 -14.563514208447231 -2.6864857915527556
1 -2.6864857915527556 -13.499999999999995 -1 -2.2e-16 
8 -14.563514208447231 -2.6864857915527556
1 4.6973177160333606 -2.6864857915527622 -0 1 
1 0 -13.499999999999991 1 0 
2 3.6973177160333606 -17.249999999999993 -1 -0 0 -1 1
8 -1.1513411419833233 1.8486588580166767
1 1.8486588580166767 -13.499999999999991 -1 0 
8 -1.1513411419833233 1.8486588580166767
1 1.8486588580166838 -18.25 1 0 
8 -8.9032804714458607 -8.1164795922166668
1 -0.16757786661778434 -13.499999999999991 -1 -9.9999999999999998e-17 
8 -8.9032804714458607 -8.1164795922166668
1 -7.1933892816955236 -14.126270349644436 -0.88626961972449947 0.46316968937247099 
1 6.2831853071795862 0 0 -1 
1 1.5707963267948961 0 0 -1 
1 0 -1.5 1 0 
2 0 -7.1100000000000008e-15 0 1 1 -0 2.7999999999999998
Curves 141
1 -14.706671912580946 4.8952835725525325 0 -0.94881754274715802 0.31582474661629206 0 
2 0 0 -7.0000000000000018 0 0 1 -0.68942802632139821 -0.72435419272796486 0 0.72435419272796486 -0.68942802632139821 0 16.699999999999999
2 0 -0 0 0 0 1 1 0 -0 -0 1 0 16.75
1 -11.547919440883419 -12.13293272819341 0 0.68942802632139821 0.72435419272796475 0 
1 -14.706671912580946 4.8952835725525325 -3.7500000000000013 -0 -0 -1 
8 -23.61736649163069 -21.920310216782973
1 0 0 9.6999999999999993 0.6709153185852722 -0.22332181999890319 0.70710678118654757 
1 -15.892693841014893 5.2900645058228957 -3.75 -0 -0 -1 
8 -23.61736649163069 -21.920310216782973
1 0 0 9.6999999999999993 0.48749923255191829 0.51219576165885128 0.70710678118654757 
2 0 0 -5.8000000000000016 0 0 1 -0.68942802632139821 -0.72435419272796486 0 0.72435419272796486 -0.68942802632139821 0 15.5
2 0 -0 0 0 0 1 1 0 -0 -0 1 0 16.75
1 -11.547919440883415 -12.132932728193415 -3.75 -0 -0 -1 
1 -10.686134407981671 -11.227489987283453 -3.7500000000000013 -0 -0 -1 
2 0 0 0 0 0 1 1 0 -0 -0 1 0 15.5
1 -18.739146469256369 6.2375387456717704 -3.75 -0 -0 -1 
1 -18.739146469256369 6.2375387456717712 0 0.9488175427471579 -0.31582474661629212 0 
2 0 -0 0 0 0 1 1 0 -0 -0 1 0 19.75
1 10.898402295232399 16.470802269812882 0 0.93205892335615204 0.36230672556850341 0 
1 38.5 27.199999999999999 0 0 -1 0 
1 17.356038324438341 -9.4249898504257033 0 0.73294365822720986 0.68028934569381216 0 
2 0 -0 0 0 0 1 1 0 -0 -0 1 0 19.75
1 -13.616203519847605 -14.305995306377309 0 0.68942802632139788 0.72435419272796508 0 
1 -13.616203519847607 -14.305995306377309 -3.75 -0 -0 -1 
1 38.5 17.551186588277325 -3.7500000000000018 -0 1 0 
1 10.898402295232398 16.470802269812882 -3.75 -0 -0 -1 
1 38.5 27.199999999999992 -3.75 -0 -0 -1 
1 38.5 27.199999999999992 0 1 0 0 
1 50 27.199999999999992 0 0 -1 0 
1 50 10.200000000000005 0 -1 0 0 
1 38.960623583093799 17.100000000000009 0 1 0 0 
1 38.960623583093799 13.700000000000008 0 0 1 0 
1 49.308025000000001 17.100000000000009 0 0 -1 0 
1 49.308025000000001 13.700000000000008 0 -1 0 0 
1 39.197317716033332 23.700000000000006 0 1 0 0 
1 39.197317716033332 20.300000000000008 0 0 1 0 
1 49.212853000000003 23.700000000000006 0 0 -1 0 
1 49.212853000000003 20.300000000000008 0 -1 0 0 
1 17.356038324438337 -9.4249898504257068 -3.75 -0 -0 -1 
1 38.5 10.200000000000003 -3.75 -0 -0 -1 
1 38.5 10.200000000000006 -9.7500000000000018 0 0 1 
1 38.5 10.200000000000008 14 -0 1 -2.2e-16 
1 38.5 27.199999999999996 -9.7500000000000018 0 0 1 
1 50 27.199999999999992 -3.75 -0 -0 -1 
1 50 10.200000000000006 -3.75 -0 -0 -1 
1 50 10.200000000000006 -9.7500000000000018 0 0 1 
2 43 22 0 0 0 1 1 0 -0 -0 1 0 7.0000000000000009
1 46.242187825607296 28.203887338071496 0 -0.88626961972449947 0.46316968937247099 0 
1 47.200000000000003 24.424871130596429 0 -0.86602540378443904 0.49999999999999933 0 
1 43 26.849742261192855 0 -0.86602540378443904 -0.49999999999999933 0 
1 38.799999999999997 24.424871130596429 0 0 -1 0 
1 38.799999999999997 19.575128869403571 0 0.86602540378443904 -0.49999999999999933 0 
1 43 17.150257738807145 0 0.86602540378443904 0.49999999999999933 0 
1 47.200000000000003 19.575128869403571 0 0 1 0 
1 38.5 14 0 -0.70710678118654757 0.70710678118654757 0 
1 35.47083751679034 10.200000000000008 17.02916248320966 -0 1 -2.2e-16 
1 37.206747999999997 13.700000000000003 15.293251999999997 -0.70710678118654757 0 0.70710678118654757 
1 38.960623583093799 17.100000000000009 0 1 0 0 
1 49.308025000000001 17.100000000000001 0 1 0 0 
1 50 22.932514873129044 13.999999999999991 0 -1 0 
1 50.668410999999999 13.700000000000003 0 -1 0 0 
1 49.308025000000001 13.700000000000008 0 -1 0 0 
1 33.326992000000004 13.700000000000003 0 1 0 0 
1 38.960623583093827 17.100000000000001 0 -1 0 0 
1 38.615155895773455 17.100000000000001 13.884844104226541 0.70710678118654757 0 -0.70710678118654757 
1 37.337243999999998 20.300000000000004 15.162755999999998 -0.70710678118654757 0 0.70710678118654757 
1 39.197317716033332 23.700000000000006 0 1 0 0 
1 49.212853000000003 23.700000000000003 0 1 0 0 
1 50 22.932514873129044 13.999999999999991 0 -1 0 
1 50.755409 20.300000000000001 0 -1 0 0 
1 49.212853000000003 20.300000000000008 0 -1 0 0 
1 33.848976 20.300000000000001 0 1 0 0 
1 39.197317716033361 23.700000000000003 0 -1 0 0 
1 38.674329429008338 23.700000000000003 13.825670570991656 0.70710678118654757 0 -0.70710678118654757 
1 50 27.199999999999992 -9.7500000000000018 0 0 1 
2 43 27.199999999999992 21.999999999999996 0 -1 2.2e-16 1 0 0 -0 2.2e-16 1 7.0000000000000009
1 50.991451626632795 27.199999999999996 25.721894284814532 0.88626961972449947 0 -0.46316968937247099 
2 43 27.199999999999992 21.999999999999996 0 -1 2.2e-16 1 0 0 -0 2.2e-16 1 2.7999999999999998
1 50 10.20000000000001 22 -0 1 -2.2e-16 
1 50 13.700000000000003 2.1249999999999991 0 -0 -1 
1 50 17.100000000000001 2.1249999999999991 0 -0 1 
1 50 20.300000000000001 2.1249999999999991 0 -0 -1 
1 50 23.700000000000003 2.1249999999999991 0 -0 1 
1 46.242187825607296 10.200000000000012 28.203887338071496 -0 1 -2.2e-16 
2 43 13.700000000000008 22 0 -1 2.2e-16 1 0 0 -0 2.2e-16 1 7.0000000000000009
2 43 13.700000000000003 22 0 -1 2.2e-16 1 0 0 -0 2.2e-16 1 7.0000000000000009
1 35.5 32.25 0 1 0 0 
2 37.814646616686204 19.372971583105521 0 0 0 1 1 0 -0 -0 1 0 3.3146466166862045
1 34.5 19.372971583105521 0 0 1 0 
2 35.5 31.249999999999996 0 0 0 1 1 0 -0 -0 1 0 1
1 44.085213360002541 13.700000000000003 29.331134815570572 -0.88626961972449947 0 0.46316968937247099 
1 50.361555029624704 13.70000000000001 26.051081932320383 0.88626961972449947 0 -0.46316968937247099 
1 47.200000000000003 10.20000000000001 24.424871130596429 -0 1 -2.2e-16 
1 43 10.20000000000001 26.849742261192855 -0 1 -2.2e-16 
1 38.799999999999997 10.20000000000001 24.424871130596429 -0 1 -2.2e-16 
1 38.799999999999997 10.200000000000008 19.575128869403571 -0 1 -2.2e-16 
1 43 10.200000000000008 17.150257738807145 -0 1 -2.2e-16 
1 47.200000000000003 10.200000000000008 19.575128869403571 -0 1 -2.2e-16 
2 37.814646616686204 13.700000000000003 19.372971583105521 0 -1 2.2e-16 1 0 0 -0 2.2e-16 1 3.3146466166862045
1 34.5 10.200000000000008 19.372971583105521 -0 1 -2.2e-16 
1 38.960623583093813 13.700000000000005 14 0 0 1 
1 34.413496000000002 13.700000000000003 32.25 1 -0 0 
2 35.5 13.700000000000003 31.249999999999996 0 -1 2.2e-16 1 0 0 -0 2.2e-16 1 1
1 34.5 13.700000000000003 16.686485791552762 0 -0 1 
1 49.308025000000001 17.100000000000005 14 0 0 1 
2 43 17.100000000000009 22 0 -1 2.2e-16 1 0 0 -0 2.2e-16 1 7.0000000000000009
1 46.297748473112627 17.100000000000009 28.174851018565953 -0.88626961972449947 0 0.46316968937247099 
1 38.960623583093813 17.100000000000005 14 0 0 1 
2 43 17.100000000000009 22 0 -1 2.2e-16 1 0 0 -0 2.2e-16 1 2.7999999999999998
2 43 17.100000000000001 22 0 -1 2.2e-16 1 0 0 -0 2.2e-16 1 7.0000000000000009
1 49.308025000000001 13.700000000000006 14 0 0 1 
2 43 13.700000000000008 22 0 -1 2.2e-16 1 0 0 -0 2.2e-16 1 2.7999999999999998
2 37.814646616686204 17.100000000000001 19.372971583105521 0 -1 2.2e-16 1 0 0 -0 2.2e-16 1 3.3146466166862045
1 34.5 17.100000000000001 16.686485791552762 0 -0 -1 
2 35.5 17.100000000000001 31.249999999999996 0 -1 2.2e-16 1 0 0 -0 2.2e-16 1 1
1 37.23031179154691 17.100000000000001 32.25 -1 -0 0 
1 46.297748473112634 17.100000000000001 28.174851018565946 0.88626961972449947 0 -0.46316968937247099 
2 37.814646616686204 20.300000000000001 19.372971583105517 0 -1 2.2e-16 1 0 0 -0 2.2e-16 1 3.3146466166862045
1 39.197317716033346 20.300000000000004 14 0 0 1 
1 44.290215748150786 20.300000000000004 29.223999367930208 -0.88626961972449947 0 0.46316968937247099 
1 34.674487999999997 20.300000000000001 32.25 1 -0 0 
2 35.5 20.300000000000001 31.249999999999993 0 -1 2.2e-16 1 0 0 -0 2.2e-16 1 1
1 34.5 20.300000000000001 16.686485791552762 0 -0 1 
1 49.212853000000003 23.700000000000003 14 0 0 1 
2 43 23.700000000000006 21.999999999999996 0 -1 2.2e-16 1 0 0 -0 2.2e-16 1 7.0000000000000009
1 46.39070699772887 23.70000000000001 28.126270349644443 -0.88626961972449947 0 0.46316968937247099 
1 39.197317716033346 23.700000000000003 14 0 0 1 
2 43 23.700000000000006 21.999999999999996 0 -1 2.2e-16 1 0 0 -0 2.2e-16 1 2.7999999999999998
2 43 23.700000000000003 21.999999999999996 0 -1 2.2e-16 1 0 0 -0 2.2e-16 1 7.0000000000000009
1 49.212853000000003 20.300000000000004 14 0 0 1 
2 43 20.300000000000001 21.999999999999996 0 -1 2.2e-16 1 0 0 -0 2.2e-16 1 7.0000000000000009
1 50.324177471529353 20.300000000000011 26.070615662899918 0.88626961972449947 0 -0.46316968937247099 
2 43 20.300000000000008 21.999999999999996 0 -1 2.2e-16 1 0 0 -0 2.2e-16 1 7.0000000000000009
2 43 20.300000000000008 21.999999999999996 0 -1 2.2e-16 1 0 0 -0 2.2e-16 1 2.7999999999999998
2 37.814646616686204 23.700000000000003 19.372971583105517 0 -1 2.2e-16 1 0 0 -0 2.2e-16 1 3.3146466166862045
1 34.5 23.700000000000003 16.686485791552762 0 -0 -1 
2 35.5 23.700000000000003 31.249999999999993 0 -1 2.2e-16 1 0 0 -0 2.2e-16 1 1
1 37.348658858016677 23.700000000000003 32.25 -1 -0 0 
1 46.390706997728884 23.700000000000003 28.126270349644436 0.88626961972449947 0 -0.46316968937247099 
1 45.799999999999997 10.20000000000001 22 -0 1 -2.2e-16 
1 35.5 10.200000000000012 32.25 -0 1 -2.2e-16 
1 34.5 10.200000000000012 31.249999999999996 -0 1 -2.2e-16 
2 43 11.70000000000001 22 0 -1 2.2e-16 1 0 0 -0 2.2e-16 1 2.7999999999999998
Polygon3D 0
PolygonOnTriangulations 0
Surfaces 53
1 2.1547610111705024 0.53733294874528814 -3.7500000000000013 0 0 1 1 0 -0 -0 1 0 
3 0 0 -5.8000000000000016 0 0 1 -0.68942802632139821 -0.72435419272796486 0 0.72435419272796486 -0.68942802632139821 0 15.5
-0.78539816339744828
2 0 -0 -3.7500000000000013 0 0 1 1 0 -0 -0 1 0 16.75
2 0 -0 -3.75 0 0 1 1 0 -0 -0 1 0 16.75
1 -14.706671912580946 4.8952835725525325 -3.7500000000000013 0.31582474661629206 0.94881754274715802 -0 -0.94881754274715802 0.31582474661629206 0 0 0 1 
2 0 0 -3.7500000000000013 0 0 1 1 0 -0 -0 1 0 15.5
1 -11.547919440883419 -12.13293272819341 -3.7500000000000013 0.72435419272796475 -0.68942802632139821 0 0.68942802632139821 0.72435419272796475 0 -0 0 1 
1 -18.739146469256369 6.2375387456717712 -3.75 -0.31582474661629212 -0.9488175427471579 0 0.9488175427471579 -0.31582474661629212 0 0 0 1 
2 0 -0 -3.75 0 0 1 1 0 -0 -0 1 0 19.75
1 18.958022936786499 7.9023731765546508 -3.7500000000000013 0 0 1 1 0 -0 -0 1 0 
2 0 -0 -3.75 0 0 1 1 0 -0 -0 1 0 19.75
1 -13.616203519847605 -14.305995306377309 -3.75 0.72435419272796508 -0.68942802632139788 0 0.68942802632139788 0.72435419272796508 0 -0 0 1 
1 38.5 27.199999999999999 -9.7500000000000018 1 0 -0 0 -1 0 0 -0 -1 
1 10.898402295232399 16.470802269812882 -3.75 0.36230672556850341 -0.93205892335615204 0 0.93205892335615204 0.36230672556850341 0 -0 0 1 
1 38.5 27.199999999999992 -3.75 0 -1 0 1 0 0 -0 0 1 
1 50 10.200000000000005 -3.75 0 1 -0 -1 0 0 0 0 1 
1 17.356038324438341 -9.4249898504257033 -3.75 0.68028934569381216 -0.73294365822720986 0 0.73294365822720986 0.68028934569381216 0 -0 0 1 
1 38.5 27.199999999999999 -9.7500000000000018 1 0 0 0 -1 0 0 0 -1 
1 50 27.199999999999992 -3.75 -1 0 0 0 -1 0 0 0 1 
1 44.25 18.699999999999999 -3.7500000000000013 0 0 1 1 0 -0 -0 1 0 
1 50 10.200000000000005 -9.7500000000000018 0 -1 0 -1 0 0 -0 -0 -1 
2 43 10.20000000000001 22 0 -1 2.2e-16 1 0 0 -0 2.2e-16 1 7.0000000000000009
1 38.5 10.200000000000008 14 0.70710678118654757 1.6000000000000001e-16 0.70710678118654757 -0.70710678118654757 1.6000000000000001e-16 0.70710678118654757 0 -1 2.2627416997969518e-16 
2 37.814646616686204 10.200000000000008 19.372971583105521 0 -1 2.2e-16 1 0 0 -0 2.2e-16 1 3.3146466166862045
1 33.326992000000004 13.700000000000003 14 0 1 0 1 0 0 0 0 -1 
1 42.148333647343584 18.665029746258096 13.999999999999991 0 0 1 1 0 -0 -0 1 0 
1 50 27.199999999999992 -9.7500000000000018 1 0 -0 0 -1 0 0 -0 -1 
1 38.960623583093827 17.100000000000001 14 0 -1 0 -1 0 0 -0 -0 -1 
1 33.848976 20.300000000000001 14 0 1 0 1 0 0 0 0 -1 
1 42.148333647343584 18.665029746258096 13.999999999999991 0 0 1 1 0 -0 -0 1 0 
1 39.197317716033361 23.700000000000003 14 0 -1 0 -1 0 0 -0 -0 -1 
1 38.5 27.199999999999992 -9.7500000000000018 0 1 0 1 0 0 0 0 -1 
1 46.242187825607296 10.200000000000012 28.203887338071496 0.46316968937247099 2e-16 0.88626961972449947 -0.88626961972449947 9.9999999999999998e-17 0.46316968937247099 4.0069759020442437e-18 -1 2.2357089288214694e-16 
2 43 10.20000000000001 22 0 -1 2.2e-16 1 0 0 -0 2.2e-16 1 2.7999999999999998
1 50.668410999999999 13.700000000000003 14 0 -1 0 -1 0 0 -0 -0 -1 
1 49.308025000000001 17.100000000000001 14 0 1 0 1 0 0 0 0 -1 
1 50.755409 20.300000000000001 14 0 -1 0 -1 0 0 -0 -0 -1 
1 49.212853000000003 23.700000000000003 14 0 1 0 1 0 0 0 0 -1 
1 49.308025000000001 13.700000000000008 14 0 -1 0 -1 0 0 -0 -0 -1 
1 36.728991518441461 10.200000000000012 23.639798147717837 0 1 0 0 -0 1 1 0 -0 
2 35.5 10.200000000000012 31.249999999999996 0 -1 2.2e-16 1 0 0 -0 2.2e-16 1 1
1 47.200000000000003 10.20000000000001 24.424871130596429 0.49999999999999933 1.9000000000000001e-16 0.86602540378443904 -0.86602540378443904 1.1000000000000001e-16 0.49999999999999933 -2.6279441628843061e-19 -1 2.1954482671904337e-16 
1 43 10.20000000000001 26.849742261192855 -0.49999999999999933 1.9000000000000001e-16 0.86602540378443904 -0.86602540378443904 -1.1000000000000001e-16 -0.49999999999999933 2.6279441628843061e-19 -1 2.1954482671904337e-16 
1 38.799999999999997 10.20000000000001 24.424871130596429 -1 -0 0 0 -2.2e-16 -1 0 -1 2.2e-16 
1 38.799999999999997 10.200000000000008 19.575128869403571 -0.49999999999999933 -1.9000000000000001e-16 -0.86602540378443904 0.86602540378443904 -1.1000000000000001e-16 -0.49999999999999933 -2.6279441628843061e-19 -1 2.1954482671904337e-16 
1 43 10.200000000000008 17.150257738807145 0.49999999999999933 -1.9000000000000001e-16 -0.86602540378443904 0.86602540378443904 1.1000000000000001e-16 0.49999999999999933 2.6279441628843061e-19 -1 2.1954482671904337e-16 
1 47.200000000000003 10.200000000000008 19.575128869403571 1 0 -0 0 2.2e-16 1 0 -1 2.2e-16 
1 34.5 10.200000000000008 19.372971583105521 1 0 -0 0 2.2e-16 1 0 -1 2.2e-16 
1 35.5 10.200000000000012 32.25 0 -2.2e-16 -1 1 0 0 0 -1 2.2e-16 
1 38.960623583093799 17.100000000000009 14 0 1 0 1 0 0 0 0 -1 
1 49.212853000000003 20.300000000000008 14 0 -1 0 -1 0 0 -0 -0 -1 
1 39.197317716033332 23.700000000000006 14 0 1 0 1 0 0 0 0 -1 
1 43.000000000000007 10.20000000000001 22 0 1 -2.4e-16 0 2.4e-16 1 1 -0 0 
Triangulations 0

TShapes 453
Ve
1e-07
-15.8452529638775 5.27427326849209 -7
0 0

0101101
*
Ve
1e-07
-15.8926938410149 5.2900645058229 -7
0 0

0101101
*
Ed
 1e-07 1 1 0
1  1 0 1.2 1.25
0

0101000
+453 9 -452 10 *
Ve
1e-07
-11.5134480395673 -12.096715018557 -7
0 0

0101101
*
Ed
 1e-07 1 1 0
1  2 0 -0 5.15176233879812
2  1 2 0 -0 5.15176233879812
2  2 1 11 -0 5.15176233879812
0

0101000
+450 0 -453 0 *
Ve
1e-07
-11.5479194408834 -12.1329327281934 -7
0 0

0101101
*
Ed
 1e-07 1 1 0
1  3 0 3.951689857262 9.10345219606012
2  3 3 12 3.951689857262 9.10345219606012
2  4 3 10 3.951689857262 9.10345219606012
2  5 4 10 3.951689857262 9.10345219606012
0

0101000
+448 10 -452 10 *
Ed
 1e-07 1 1 0
1  4 0 0 0.049999999999999
0

0101000
-450 9 +448 10 *
Wi

0101100
-451 8 -449 0 +447 8 -446 8 *
Fa
0  1e-07 1 4

0111000
+445 5 *
Ve
1e-07
-14.7066719125809 4.89528357255254 -5.8
0 0

0101101
*
Ve
1e-07
-14.7066719125809 4.89528357255253 0
0 0

0101101
*
Ed
 1e-07 1 1 0
1  5 0 0 2.05
2  6 6 0 0 2.05
0

0101000
-443 5 +442 13 *
Ed
 1e-07 1 1 0
1  6 0 -23.6173664916307 -21.920310216783
2  7 2 0 -23.6173664916307 -21.920310216783
2  8 5 1 -23.6173664916307 -21.920310216783
0

0101000
+453 0 -443 0 *
Ve
1e-07
-15.8926938410149 5.2900645058229 -3.75
0 0

0101101
*
Ed
 1e-07 1 1 0
1  1 0 0 1.25
0

0101000
+442 0 -439 12 *
Ed
 1e-07 1 1 0
1  7 0 0 3.25
2  6 4 0 0 3.25
2  9 3 0 0 3.25
0

0101000
+439 0 -452 0 *
Wi

0101100
+441 1 -440 0 -438 14 +451 8 -437 1 *
Fa
0  1e-07 5 0

0111000
+436 5 *
Ve
1e-07
-10.6861344079817 -11.2274899872835 -5.8
0 0

0101101
*
Ed
 1e-07 1 1 0
1  8 0 -23.6173664916307 -21.920310216783
2  10 2 0 -23.6173664916307 -21.920310216783
2  11 7 1 -23.6173664916307 -21.920310216783
0

0101000
+450 0 -434 0 *
Ed
 1e-07 1 1 0
1  9 0 0 5.15176233879812
2  3 2 0 0 5.15176233879812
2  12 6 1 0 5.15176233879812
0

0101000
+434 0 -443 0 *
Wi

0101100
-433 0 +449 0 -432 0 +440 0 *
Fa
0  0 2 0

0111000
+431 0 *
Ve
1e-07
-15.8926938410149 5.2900645058229 0
0 0

0101101
*
Ed
 1e-07 1 1 0
1  7 0 3.25 6
2  6 4 0 3.25 6
0

0101000
+452 0 -429 19 *
Ve
1e-07
-11.5479194408834 -12.1329327281934 0
0 0

0101101
*
Ed
 1e-07 1 1 0
1  10 0 3.951689857262 9.10345219606012
2  3 4 20 3.951689857262 9.10345219606012
2  13 4 21 3.951689857262 9.10345219606012
0

0101000
+427 0 -429 0 *
Ed
 1e-07 1 1 0
1  11 0 3.25 6
2  14 4 0 3.25 6
0

0101000
+448 0 -427 19 *
Wi

0101100
-447 15 -428 0 +426 19 +425 0 *
Fa
0  1e-07 4 0

0111000
+424 0 *
Ve
1e-07
-10.6861344079817 -11.2274899872835 0
0 0

0101101
*
Ed
 1e-07 1 1 0
1  12 0 0 2.05
2  15 6 0 0 2.05
0

0101000
-434 5 +422 13 *
Ve
1e-07
-11.5479194408834 -12.1329327281934 -3.75
0 0

0101101
*
Ed
 1e-07 1 1 0
1  4 0 0 1.25
0

0101000
+420 12 -422 0 *
Ed
 1e-07 1 1 0
1  11 0 0 3.25
2  14 4 0 0 3.25
2  16 3 0 0 3.25
0

0101000
+420 0 -448 0 *
Wi

0101100
-421 1 +433 0 -419 14 +446 8 +418 1 *
Fa
0  1e-07 7 0

0111000
+417 5 *
Ed
 1e-07 1 1 0
1  13 0 3.951689857262 9.10345219606012
2  3 6 12 3.951689857262 9.10345219606012
2  4 6 10 3.951689857262 9.10345219606012
0

0101000
+422 0 -442 0 *
Wi

0101100
+421 1 +432 0 -415 14 -441 1 *
Fa
0  1e-07 6 0

0111000
+414 5 *
Ed
 1e-07 1 1 0
1  10 0 3.951689857262 9.10345219606012
2  3 4 20 3.951689857262 9.10345219606012
2  13 4 21 3.951689857262 9.10345219606012
2  17 3 20 3.951689857262 9.10345219606012
0

0101000
+420 20 -439 20 *
Wi

0101100
+415 13 +438 13 -412 22 +419 13 *
Fa
0  1e-07 1 0

0111000
-411 0 *
Ve
1e-07
-18.7391464692564 6.23753874567177 0
0 0

0101101
*
Ed
 1e-07 1 1 0
1  14 0 0 6
2  18 9 0 0 6
0

0101000
+409 22 -409 19 *
Ed
 1e-07 1 1 0
1  15 0 0 3
0

0101000
+409 0 -439 20 *
Ed
 1e-07 1 1 0
1  15 0 0 3
0

0101000
+409 0 -429 0 *
Wi

0101100
+408 0 -437 0 -428 0 -407 22 +406 19 *
Fa
0  1e-07 8 0

0111000
+405 0 *
Ve
1.00000001e-07
10.8984022952324 16.4708022698129 0
0 0

0101101
*
Ed
 1e-07 1 1 0
1  16 0 0.986253902987052 2.82026688888053
2  3 9 20 0.986253902987052 2.82026688888053
2  13 9 21 0.986253902987052 2.82026688888053
0

0101000
+403 0 -409 0 *
Ve
1e-07
38.5 27.2 -9.75
0 0

0101101
*
Ed
 1e-07 1 1 0
1  17 0 0 29.6135759372164
0

0101000
+403 0 -401 21 *
Ve
1e-07
38.5 10.2 -9.75
0 0

0101101
*
Ed
 1e-07 1 1 0
1  18 0 0 17
0

0101000
+401 27 -399 27 *
Ve
1.00000004e-07
17.3560383244383 -9.42498985042571 0
0 0

0101101
*
Ed
 1e-07 1 1 0
1  19 0 0 28.8480041244959
0

0101000
+397 0 -399 21 *
Ve
1e-07
-13.6162035198476 -14.3059953063773 0
0 0

0101101
*
Ed
 1e-07 1 1 0
1  20 0 3.951689857262 5.78570284315548
2  3 11 20 3.951689857262 5.78570284315548
2  13 11 21 3.951689857262 5.78570284315548
0

0101000
+395 0 -397 0 *
Ed
 1e-07 1 1 0
1  21 0 0 3
0

0101000
+395 0 -427 0 *
Wi

0101100
-426 19 +406 19 +402 19 -400 19 -398 26 +396 19 +394 19 -393 19 *
Fa
0  1e-07 10 18

0111000
+392 0 *
Ed
 1e-07 1 1 0
1  22 0 0 6
2  14 11 0 0 6
0

0101000
+395 22 -395 19 *
Ed
 1e-07 1 1 0
1  21 0 0 3
0

0101000
+395 0 -420 20 *
Wi

0101100
+390 0 -418 0 -425 0 -389 22 +393 19 *
Fa
0  1e-07 12 0

0111000
+388 0 *
Ve
2.12133034e-07
38.5 27.2 -3.75
0 0

0101101
*
Ed
 1e-07 1 1 0
1  17 0 0 29.6135759372164
0

0101000
+403 0 -386 20 *
Ve
2.12133034e-07
38.5 10.2 -3.75
0 0

0101101
*
Ed
 1.5e-07 1 1 0
1  23 0 -7.35118658827732 9.64881341172267
2  19 10 0 -7.35118658827732 9.64881341172267
2  20 13 0 -7.35118658827732 9.64881341172267
0

0101000
+384 0 -386 0 *
Ed
 1e-07 1 1 0
1  19 0 0 28.8480041244959
0

0101000
+397 0 -384 20 *
Wi

0101100
-412 22 +407 22 +402 22 -385 22 +383 0 +382 22 +394 22 -389 22 *
Fa
0  1e-07 10 0

0111000
+381 0 *
Ed
 1.00000001e-07 1 1 0
1  24 0 0 6
2  21 9 0 0 6
0

0101000
+403 22 -403 19 *
Wi

0101100
+379 0 -408 0 -402 22 +402 19 *
Fa
0  1e-07 9 0

0111000
+378 0 *
Ed
 1.00000007e-07 1 1 0
1  25 0 0 6
2  22 15 0 0 6
0

0101000
+386 0 -401 0 *
Wi

0101100
+379 0 -376 0 -385 22 +400 19 *
Fa
0  1e-07 14 0

0111000
+375 0 *
Ve
1.00000002e-07
50 27.2 -9.75
0 0

0101101
*
Ed
 1.00000002e-07 1 1 0
1  26 0 0 11.5
2  13 15 21 0 11.5
0

0101000
+401 21 -373 21 *
Ve
1.00000002e-07
50 10.2 -9.75
0 0

0101101
*
Ed
 1.00000002e-07 1 1 0
1  27 0 0 17
0

0101000
+373 21 -371 21 *
Ed
 1.00000002e-07 1 1 0
1  28 0 0 11.5
2  13 16 21 0 11.5
0

0101000
+371 21 -399 21 *
Wi

0101100
+398 26 -372 19 -370 19 -369 19 *
Ve
1e-07
38.9606235830938 17.1 -9.75
0 0

0101101
*
Ve
1e-07
49.308025 17.1 -9.75
0 0

0101101
*
Ed
 1e-07 1 1 0
1  29 0 0 10.3474014169062
0

0101000
+367 21 -366 21 *
Ve
1e-07
38.9606235830938 13.7 -9.75
0 0

0101101
*
Ed
 1e-07 1 1 0
1  30 0 0 3.4
0

0101000
+364 21 -367 21 *
Ve
1e-07
49.308025 13.7 -9.75
0 0

0101101
*
Ed
 1e-07 1 1 0
1  31 0 0 3.4
0

0101000
+366 21 -362 21 *
Ed
 1e-07 1 1 0
1  32 0 0 10.3474014169062
0

0101000
+362 21 -364 21 *
Wi

0101100
+365 19 +363 19 +361 19 +360 19 *
Ve
1e-07
39.1973177160333 23.7 -9.75
0 0

0101101
*
Ve
1e-07
49.212853 23.7 -9.75
0 0

0101101
*
Ed
 1e-07 1 1 0
1  33 0 0 10.0155352839667
0

0101000
+358 21 -357 21 *
Ve
1e-07
39.1973177160333 20.3 -9.75
0 0

0101101
*
Ed
 1e-07 1 1 0
1  34 0 0 3.4
0

0101000
+355 21 -358 21 *
Ve
1e-07
49.212853 20.3 -9.75
0 0

0101101
*
Ed
 1e-07 1 1 0
1  35 0 0 3.4
0

0101000
+357 21 -353 21 *
Ed
 1e-07 1 1 0
1  36 0 0 10.0155352839667
0

0101000
+353 21 -355 21 *
Wi

0101100
+356 19 +354 19 +352 19 +351 19 *
Fa
0  1e-07 10 18

0111000
+368 0 +359 0 +350 0 *
Ed
 1.00000004e-07 1 1 0
1  37 0 0 6
2  23 11 0 0 6
0

0101000
+397 22 -397 19 *
Ed
 1.00000004e-07 1 1 0
1  38 0 0 6
2  24 16 0 0 6
0

0101000
+384 0 -399 0 *
Wi

0101100
+348 0 -347 0 -382 22 +396 19 *
Fa
0  1e-07 17 0

0111000
+346 0 *
Wi

0101100
+390 0 -348 0 -394 22 +394 19 *
Fa
0  1e-07 11 0

0111000
+344 0 *
Ve
1e-07
38.5 10.2 14
0 0

0101101
*
Ed
 1.00000001e-07 1 1 0
1  39 0 6 23.75
0

0101000
+384 0 -342 0 *
Ve
1e-07
38.5 13.7 14
0 0

0101101
*
Ed
 1e-07 1 1 0
1  40 0 0 3.5
0

0101000
+342 0 -340 0 *
Ve
1e-07
38.5 17.1 14
0 0

0101101
*
Ed
 1e-07 1 1 0
1  40 0 3.5 6.89999999999999
2  25 18 30 3.5 6.89999999999999
0

0101000
+340 0 -338 0 *
Ve
1e-07
38.5 20.3 14
0 0

0101101
*
Ed
 1e-07 1 1 0
1  40 0 6.89999999999999 10.1
0

0101000
+338 0 -336 0 *
Ve
1e-07
38.5 23.7 14
0 0

0101101
*
Ed
 1e-07 1 1 0
1  40 0 10.1 13.5
2  25 18 30 10.1 13.5
0

0101000
+336 0 -334 0 *
Ve
1e-07
38.5 27.2 14
0 0

0101101
*
Ed
 1e-07 1 1 0
1  40 0 13.5 17
0

0101000
+334 0 -332 0 *
Ed
 1.00000004e-07 1 1 0
1  41 0 6 23.75
0

0101000
+386 0 -332 0 *
Wi

0101100
-341 0 -339 0 -337 0 -335 0 -333 0 -331 0 +330 0 +383 0 *
Fa
0  1e-07 13 0

0111000
+329 0 *
Ve
1e-07
50 27.2 -3.75
0 0

0101101
*
Ed
 1e-07 1 1 0
1  42 0 0 6
2  24 15 0 0 6
0

0101000
+327 0 -373 0 *
Ed
 1e-07 1 1 0
1  26 0 0 11.5
2  3 15 20 0 11.5
0

0101000
+386 20 -327 20 *
Wi

0101100
+376 0 -326 0 -325 22 +372 19 *
Fa
0  1e-07 15 0

0111000
+324 0 *
Ve
1.00000001e-07
50 10.2 -3.75
0 0

0101101
*
Ed
 1.00000001e-07 1 1 0
1  43 0 0 6
2  22 16 0 0 6
0

0101000
+322 0 -371 0 *
Ed
 1e-07 1 1 0
1  27 0 0 17
0

0101000
+327 20 -322 20 *
Wi

0101100
+326 0 -321 0 -320 22 +370 19 *
Fa
0  1e-07 19 0

0111000
+319 0 *
Ed
 1e-07 1 1 0
1  28 0 0 11.5
2  3 16 20 0 11.5
0

0101000
+322 20 -384 20 *
Wi

0101100
+321 0 -347 0 -317 22 +369 19 *
Fa
0  1e-07 16 0

0111000
+316 0 *
Wi

0101100
-365 19 -361 19 -360 19 -363 19 *
Fa
0  1e-07 20 25

0111000
+314 0 *
Wi

0101100
-356 19 -352 19 -351 19 -354 19 *
Fa
0  1e-07 20 25

0111000
+312 0 *
Ve
1.00000009e-07
50 10.2 22
0 0

0101101
*
Ed
 1.00000001e-07 1 1 0
1  44 0 6 31.75
0

0101000
+322 0 -310 0 *
Ve
1.00000007e-07
46.2421878256073 10.2 28.2038873380715
0 0

0101101
*
Ed
 1.00000007e-07 1 1 0
1  45 0 0 1.0892280175972
2  3 22 35 0 1.0892280175972
2  26 22 37 0 1.0892280175972
0

0101000
+310 35 -308 35 *
Ve
1.00000011e-07
38.5 10.2 32.25
0 0

0101101
*
Ed
 1.00000005e-07 1 1 0
1  39 0 23.75 42
0

0101000
+342 0 -306 0 *
Ed
 1.00000007e-07 1 1 0
1  46 0 0 8.73570260482807
0

0101000
+308 35 -306 35 *
Wi

0101100
-317 31 +309 3 -341 3 +307 34 -305 3 +304 34 *
Ve
1e-07
47.2 10.2 24.4248711305964
0 0

0101101
*
Ve
1e-07
43 10.2 26.8497422611929
0 0

0101101
*
Ed
 1e-07 1 1 0
1  47 0 0 4.84974226119286
0

0101000
+302 41 -301 41 *
Ve
1e-07
38.8 10.2 24.4248711305964
0 0

0101101
*
Ed
 1e-07 1 1 0
1  48 0 0 4.84974226119286
0

0101000
+301 41 -299 41 *
Ve
1e-07
38.8 10.2 19.5751288694036
0 0

0101101
*
Ed
 1e-07 1 1 0
1  49 0 0 4.84974226119286
0

0101000
+299 41 -297 41 *
Ve
1e-07
43 10.2 17.1502577388071
0 0

0101101
*
Ed
 1e-07 1 1 0
1  50 0 0 4.84974226119286
0

0101000
+297 41 -295 41 *
Ve
1e-07
47.2 10.2 19.5751288694036
0 0

0101101
*
Ed
 1e-07 1 1 0
1  51 0 0 4.84974226119286
0

0101000
+295 41 -293 41 *
Ed
 1e-07 1 1 0
1  52 0 0 4.84974226119286
0

0101000
+293 41 -302 41 *
Wi

0101100
-300 40 -298 40 -296 40 -294 40 -292 40 -291 40 *
Fa
0  1e-07 21 3

0111000
+303 0 +290 0 *
Ve
1e-07
35.4708375167903 17.0291624832097 0
0 0

0101101
*
Ed
 1e-07 1 1 0
1  53 0 0 4.28388266638686
0

0101000
+342 45 -288 0 *
Ve
1e-07
35.4708375167903 13.7 17.0291624832097
0 0

0101101
*
Ed
 1e-07 1 1 0
1  54 0 0 3.5
2  27 24 0 0 3.5
4 G1 23 0 24 0
0

0101000
+288 44 -286 0 *
Ed
 1e-07 1 1 0
1  55 0 -1.82893451796613 2.45494814842074
2  28 23 0 -1.82893451796613 2.45494814842074
2  29 25 0 -1.82893451796613 2.45494814842074
0

0101000
+340 0 -286 0 *
Wi

0101100
-287 44 -285 0 +284 0 +339 0 *
Fa
0  1e-07 23 0

0111000
+283 0 *
Ve
1e-07
38.9606235830938 17.1 0
0 0

0101101
*
Ve
1e-07
49.308025 17.1 0
0 0

0101101
*
Ed
 1e-07 1 1 0
1  56 0 0 10.3474014169062
0

0101000
+281 0 -280 0 *
Ve
1e-07
50 17.1 14
0 0

0101101
*
Ed
 1e-07 1 1 0
1  57 0 0 0.691974999999999
0

0101000
+280 0 -278 49 *
Ve
1e-07
50 13.7 14
0 0

0101101
*
Ed
 1e-07 1 1 0
1  58 0 5.83251487312903 9.23251487312904
2  30 27 0 5.83251487312903 9.23251487312904
2  31 26 0 5.83251487312903 9.23251487312904
0

0101000
+278 0 -276 0 *
Ve
1e-07
49.308025 13.7 0
0 0

0101101
*
Ed
 1e-07 1 1 0
1  59 0 0.668410999999999 1.360386
0

0101000
+276 49 -274 0 *
Ve
1e-07
38.9606235830938 13.7 0
0 0

0101101
*
Ed
 1e-07 1 1 0
1  60 0 0 10.3474014169062
0

0101000
+274 0 -272 0 *
Ed
 1e-07 1 1 0
1  61 0 5.173008 5.63363158309382
0

0101000
+340 49 -272 0 *
Ed
 1e-07 1 1 0
1  62 0 0 0.460623583093827
0

0101000
+281 0 -338 49 *
Wi

0101100
-279 48 -277 48 -275 0 -273 48 -271 48 +270 48 -337 0 +269 48 *
Fa
0  1e-07 26 0

0111000
+268 0 *
Ve
1e-07
35.4708375167903 17.1 17.0291624832097
0 0

0101101
*
Ed
 1e-07 1 1 0
1  63 0 -4.44673769597691 -0.162855029590048
2  32 23 0 -4.44673769597691 -0.162855029590048
2  33 28 0 -4.44673769597691 -0.162855029590048
0

0101000
+266 0 -338 0 *
Ve
1e-07
35.4708375167903 20.3 17.0291624832097
0 0

0101101
*
Ed
 1e-07 1 1 0
1  54 0 6.89999999999999 10.1
2  27 24 0 6.89999999999999 10.1
4 G1 23 0 24 0
0

0101000
+266 0 -264 0 *
Ed
 1e-07 1 1 0
1  64 0 -1.64438530493069 2.63949736145617
2  34 23 0 -1.64438530493069 2.63949736145617
2  35 29 0 -1.64438530493069 2.63949736145617
0

0101000
+336 0 -264 0 *
Wi

0101100
+265 0 -263 0 +262 0 +335 0 *
Fa
0  1e-07 23 0

0111000
+261 0 *
Ve
1e-07
39.1973177160333 23.7 0
0 0

0101101
*
Ve
1e-07
49.212853 23.7 0
0 0

0101101
*
Ed
 1e-07 1 1 0
1  65 0 0 10.0155352839667
0

0101000
+259 0 -258 0 *
Ve
1e-07
50 23.7 14
0 0

0101101
*
Ed
 1e-07 1 1 0
1  66 0 0 0.787146999999997
0

0101000
+258 0 -256 49 *
Ve
1e-07
50 20.3 14
0 0

0101101
*
Ed
 1e-07 1 1 0
1  67 0 -0.767485126870962 2.63251487312904
2  36 27 0 -0.767485126870962 2.63251487312904
2  37 30 0 -0.767485126870962 2.63251487312904
0

0101000
+256 0 -254 0 *
Ve
1e-07
49.212853 20.3 0
0 0

0101101
*
Ed
 1e-07 1 1 0
1  68 0 0.755409 1.542556
0

0101000
+254 49 -252 0 *
Ve
1e-07
39.1973177160333 20.3 0
0 0

0101101
*
Ed
 1e-07 1 1 0
1  69 0 0 10.0155352839667
0

0101000
+252 0 -250 0 *
Ed
 1e-07 1 1 0
1  70 0 4.651024 5.34834171603336
0

0101000
+336 49 -250 0 *
Ed
 1e-07 1 1 0
1  71 0 0 0.697317716033361
0

0101000
+259 0 -334 49 *
Wi

0101100
-257 48 -255 48 -253 0 -251 48 -249 48 +248 48 -333 0 +247 48 *
Fa
0  1e-07 30 0

0111000
+246 0 *
Ve
1e-07
35.4708375167903 23.7 17.0291624832097
0 0

0101101
*
Ed
 1e-07 1 1 0
1  72 0 -4.53042170921122 -0.246539042824357
2  38 23 0 -4.53042170921122 -0.246539042824357
2  39 31 0 -4.53042170921122 -0.246539042824357
0

0101000
+244 0 -334 0 *
Ed
 1e-07 1 1 0
1  54 0 13.5 17
2  27 24 0 13.5 17
4 G1 23 0 24 0
0

0101000
+244 0 -288 51 *
Ed
 1e-07 1 1 0
1  53 0 0 4.28388266638686
0

0101000
+332 52 -288 0 *
Wi

0101100
+243 0 -242 0 +241 51 +331 0 *
Fa
0  1e-07 23 0

0111000
+240 0 *
Ve
1.00000004e-07
50 27.2 22
0 0

0101101
*
Ed
 1e-07 1 1 0
1  73 0 6 31.75
0

0101000
+327 0 -238 0 *
Ve
1.50000008e-07
46.2421878256073 27.2 28.2038873380715
0 0

0101101
*
Ed
 1e-07 1 1 0
1  74 0 0 1.0892280175972
2  40 32 0 0 1.0892280175972
2  41 22 0 0 1.0892280175972
0

0101000
+238 0 -236 0 *
Ve
2.12133034e-07
38.5 27.2 32.25
0 0

0101101
*
Ed
 1.5e-07 1 1 0
1  75 0 -14.0944147792359 -5.35871217440786
2  42 32 0 -14.0944147792359 -5.35871217440786
2  43 33 0 -14.0944147792359 -5.35871217440786
0

0101000
+234 0 -236 0 *
Ed
 1.00000014e-07 1 1 0
1  41 0 23.75 42
0

0101000
+332 0 -234 0 *
Wi

0101100
-325 22 -237 0 -235 0 +233 0 +232 0 +330 0 *
Ve
1e-07
45.8 27.2 22
0 0

0101101
*
Ed
 1e-07 1 1 0
1  76 0 0 6.28318530717959
2  44 32 0 0 6.28318530717959
2  41 34 0 0 6.28318530717959
0

0101100
+230 0 -230 0 *
Wi

0101100
+229 0 *
Fa
0  1e-07 32 0

0111000
+231 0 +228 0 *
Ve
1e-07
50 13.7 22
0 0

0101101
*
Ed
 1e-07 1 1 0
1  77 0 0 3.49999999999999
2  45 22 0 0 3.49999999999999
0

0101000
+310 0 -226 0 *
Ed
 1e-07 1 1 0
1  78 0 -19.875 -11.875
2  46 27 0 -19.875 -11.875
2  47 35 0 -19.875 -11.875
0

0101000
+226 0 -276 0 *
Ve
1e-07
50 17.1 22
0 0

0101101
*
Ed
 1e-07 1 1 0
1  79 0 11.875 19.875
2  48 27 0 11.875 19.875
2  49 36 0 11.875 19.875
0

0101000
+278 0 -223 0 *
Ve
1e-07
50 20.3 22
0 0

0101101
*
Ed
 1e-07 1 1 0
1  77 0 6.89999999999999 10.1
2  45 22 0 6.89999999999999 10.1
0

0101000
+223 0 -221 0 *
Ed
 1e-07 1 1 0
1  80 0 -19.875 -11.875
2  50 27 0 -19.875 -11.875
2  51 37 0 -19.875 -11.875
0

0101000
+221 0 -254 0 *
Ve
1e-07
50 23.7 22
0 0

0101101
*
Ed
 1e-07 1 1 0
1  81 0 11.875 19.875
2  52 27 0 11.875 19.875
2  53 38 0 11.875 19.875
0

0101000
+256 0 -218 0 *
Ed
 1e-07 1 1 0
1  77 0 13.5 17
2  45 22 0 13.5 17
0

0101000
+218 0 -238 0 *
Wi

0101100
-320 22 -309 0 -225 0 -224 0 +275 0 -222 0 -220 0 -219 0 +253 0 -217 0 
-216 0 +237 0 *
Fa
0  1e-07 27 0

0111000
+215 0 *
Ve
1.50000002e-07
46.2421878256073 13.7 28.2038873380715
0 0

0101101
*
Ed
 1e-07 1 1 0
1  82 0 0 3.5
2  54 22 0 0 3.5
4 G1 22 0 33 0
0

0101000
+308 0 -213 0 *
Ve
1e-07
49.308025 13.7 25.0346038620181
0 0

0101101
*
Ed
 1e-07 1 1 0
1  83 0 0.448389540879633 1.0892280175972
2  55 22 0 0.448389540879633 1.0892280175972
2  56 39 0 0.448389540879633 1.0892280175972
0

0101000
+211 0 -213 0 *
Ed
 1e-07 1 1 0
1  84 0 0 0.448389540879633
2  57 22 0 0 0.448389540879633
2  58 35 0 0 0.448389540879633
0

0101000
+226 0 -211 0 *
Wi

0101100
-307 53 -212 0 +210 0 +209 0 +225 0 *
Fa
0  1e-07 22 0

0111000
+208 0 *
Ve
1e-07
35.5 32.25 0
0 0

0101101
*
Ed
 1e-07 1 1 0
1  85 0 0 3
0

0101000
+206 0 -306 45 *
Ve
1e-07
34.5 19.3729715831055 0
0 0

0101101
*
Ed
 1e-07 1 1 0
1  86 0 3.14159265358979 3.92699081698724
2  3 24 45 3.14159265358979 3.92699081698724
2  59 24 52 3.14159265358979 3.92699081698724
0

0101000
+204 0 -288 0 *
Ve
1e-07
34.5 31.25 0
0 0

0101101
*
Ed
 1e-07 1 1 0
1  87 0 0 11.8770284168945
0

0101000
+204 0 -202 0 *
Ed
 1e-07 1 1 0
1  88 0 1.5707963267949 3.14159265358979
2  3 41 45 1.5707963267949 3.14159265358979
2  59 41 52 1.5707963267949 3.14159265358979
0

0101000
+206 0 -202 0 *
Wi

0101100
+205 44 -305 0 +287 44 -203 44 +201 44 -200 44 *
Fa
0  1e-07 40 0

0111000
+199 0 *
Ve
1.5e-07
38.5 13.7 32.25
0 0

0101101
*
Ed
 1e-07 1 1 0
1  18 0 13.5 17
0

0101000
+197 56 -306 56 *
Ve
1.50000021e-07
38.9606235830938 13.7 32.0092754200855
0 0

0101101
*
Ed
 1.5e-07 1 1 0
1  89 0 5.7822017847139 6.30193480144194
2  60 33 0 5.7822017847139 6.30193480144194
2  61 25 0 5.7822017847139 6.30193480144194
0

0101000
+195 0 -197 0 *
Ed
 1.5e-07 1 1 0
1  90 0 -12.8639538045713 -4.6479842164712
2  62 33 0 -12.8639538045713 -4.6479842164712
2  63 39 0 -12.8639538045713 -4.6479842164712
0

0101000
+195 0 -213 0 *
Wi

0101100
-304 53 +196 55 +194 0 -193 0 +212 0 *
Fa
0  1e-07 33 0

0111000
+192 0 *
Ve
1e-07
47.2 24.4248711305964 0
0 0

0101101
*
Ed
 1e-07 1 1 0
1  91 0 0 1.5
0

0101000
+302 0 -190 58 *
Ve
1e-07
43 26.8497422611929 0
0 0

0101101
*
Ed
 1e-07 1 1 0
1  92 0 0 1.5
0

0101000
+301 0 -188 58 *
Ed
 1e-07 1 1 0
1  47 0 0 4.84974226119286
0

0101000
+190 0 -188 0 *
Wi

0101100
+189 0 -187 0 -300 40 +186 58 *
Fa
0  1e-07 42 0

0111000
+185 0 *
Ve
1e-07
38.8 24.4248711305964 0
0 0

0101101
*
Ed
 1e-07 1 1 0
1  93 0 0 1.5
0

0101000
+299 0 -183 58 *
Ed
 1e-07 1 1 0
1  48 0 0 4.84974226119286
0

0101000
+188 0 -183 0 *
Wi

0101100
+187 0 -182 0 -298 40 +181 58 *
Fa
0  1e-07 43 0

0111000
+180 0 *
Ve
1e-07
38.8 19.5751288694036 0
0 0

0101101
*
Ed
 1e-07 1 1 0
1  94 0 0 1.5
0

0101000
+297 0 -178 58 *
Ed
 1e-07 1 1 0
1  49 0 0 4.84974226119286
0

0101000
+183 0 -178 0 *
Wi

0101100
+182 0 -177 0 -296 40 +176 58 *
Fa
0  1e-07 44 0

0111000
+175 0 *
Ve
1e-07
43 17.1502577388071 0
0 0

0101101
*
Ed
 1e-07 1 1 0
1  95 0 0 1.5
0

0101000
+295 0 -173 58 *
Ed
 1e-07 1 1 0
1  50 0 0 4.84974226119286
0

0101000
+178 0 -173 0 *
Wi

0101100
+177 0 -172 0 -294 40 +171 58 *
Fa
0  1e-07 45 0

0111000
+170 0 *
Ve
1e-07
47.2 19.5751288694036 0
0 0

0101101
*
Ed
 1e-07 1 1 0
1  96 0 0 1.5
0

0101000
+293 0 -168 58 *
Ed
 1e-07 1 1 0
1  51 0 0 4.84974226119286
0

0101000
+173 0 -168 0 *
Wi

0101100
+172 0 -167 0 -292 40 +166 58 *
Fa
0  1e-07 46 0

0111000
+165 0 *
Ed
 1e-07 1 1 0
1  52 0 0 4.84974226119286
0

0101000
+168 0 -190 0 *
Wi

0101100
+167 0 -189 0 -291 40 +163 58 *
Fa
0  1e-07 47 0

0111000
+162 0 *
Ve
1e-07
34.5 13.7 19.3729715831055
0 0

0101101
*
Ed
 1e-07 1 1 0
1  97 0 3.14159265358979 3.92699081698724
2  64 24 0 3.14159265358979 3.92699081698724
2  65 25 0 3.14159265358979 3.92699081698724
0

0101000
+160 0 -286 0 *
Ed
 1e-07 1 1 0
1  98 0 0 3.5
2  66 24 0 0 3.5
4 G1 24 0 48 0
0

0101000
+204 44 -160 0 *
Wi

0101100
-203 44 -285 0 +159 0 +158 0 *
Fa
0  1e-07 24 0

0111000
+157 0 *
Ed
 1.00000014e-07 1 1 0
1  99 0 0 18.0092754200855
4 C2 25 0 39 0
0

0101000
+272 48 -195 0 *
Ve
1e-07
35.5 13.7 32.25
0 0

0101101
*
Ed
 1.5e-07 1 1 0
1  100 0 1.086504 4.086504
2  67 49 0 1.086504 4.086504
2  68 25 0 1.086504 4.086504
0

0101000
+154 0 -197 0 *
Ve
1e-07
34.5 13.7 31.25
0 0

0101101
*
Ed
 1e-07 1 1 0
1  101 0 1.5707963267949 3.14159265358979
2  69 41 0 1.5707963267949 3.14159265358979
2  70 25 0 1.5707963267949 3.14159265358979
0

0101000
+154 0 -152 0 *
Ed
 1e-07 1 1 0
1  102 0 2.68648579155276 14.5635142084472
2  71 48 0 2.68648579155276 14.5635142084472
2  72 25 0 2.68648579155276 14.5635142084472
0

0101000
+160 0 -152 0 *
Wi

0101100
-270 48 -155 0 -194 0 +153 0 -151 0 +150 0 -159 0 +284 0 *
Fa
0  1e-07 25 0

0111000
+149 0 *
Ve
1e-07
49.308025 17.1 25.0346038620181
0 0

0101101
*
Ed
 1e-07 1 1 0
1  103 0 0 11.0346038620181
4 C2 50 0 36 0
0

0101000
+280 48 -147 0 *
Ve
1.5e-07
46.2421878256073 17.1 28.2038873380715
0 0

0101101
*
Ed
 1e-07 1 1 0
1  104 0 0.448389540879633 1.0892280175972
2  73 22 0 0.448389540879633 1.0892280175972
2  74 50 0 0.448389540879633 1.0892280175972
0

0101000
+147 0 -145 0 *
Ve
1.5000002e-07
38.9606235830938 17.1 32.0092754200855
0 0

0101101
*
Ed
 1.5e-07 1 1 0
1  105 0 0.062690457022098 8.27866004512217
2  75 33 0 0.062690457022098 8.27866004512217
2  76 50 0 0.062690457022098 8.27866004512217
0

0101000
+145 0 -143 0 *
Ed
 1.00000015e-07 1 1 0
1  106 0 0 18.0092754200855
4 C2 50 0 28 0
0

0101000
+281 48 -143 0 *
Wi

0101100
-279 48 -146 0 -144 0 -142 0 +141 0 *
Ve
1e-07
45.8 17.1 22
0 0

0101101
*
Ed
 1e-07 1 1 0
1  107 0 0 6.28318530717959
2  73 34 0 0 6.28318530717959
2  77 50 0 0 6.28318530717959
0

0101100
+139 0 -139 0 *
Wi

0101100
+138 0 *
Fa
0  1e-07 50 0

0111000
+140 0 +137 0 *
Ed
 1e-07 1 1 0
1  108 0 0 0.448389540879633
2  78 22 0 0 0.448389540879633
2  79 36 0 0 0.448389540879633
0

0101000
+223 0 -147 0 *
Wi

0101100
-277 48 -222 0 -135 0 +146 0 *
Fa
0  1e-07 36 0

0111000
+134 0 *
Ed
 1e-07 1 1 0
1  109 0 0 11.0346038620181
4 C2 39 0 35 0
0

0101000
+274 48 -211 0 *
Wi

0101100
-273 48 -132 0 +209 0 -224 0 *
Fa
0  1e-07 35 0

0111000
+131 0 *
Wi

0101100
-271 48 -155 0 -193 0 +210 0 +132 0 *
Ve
1e-07
45.8 13.7 22
0 0

0101101
*
Ed
 1e-07 1 1 0
1  110 0 0 6.28318530717959
2  55 34 0 0 6.28318530717959
2  80 39 0 0 6.28318530717959
0

0101100
+128 0 -128 0 *
Wi

0101100
-127 0 *
Fa
0  1e-07 39 0

0111000
+129 0 +126 0 *
Ve
1e-07
34.5 17.1 19.3729715831055
0 0

0101101
*
Ed
 1e-07 1 1 0
1  111 0 3.14159265358979 3.92699081698724
2  81 24 0 3.14159265358979 3.92699081698724
2  82 28 0 3.14159265358979 3.92699081698724
0

0101000
+124 0 -266 0 *
Ve
1e-07
34.5 17.1 31.25
0 0

0101101
*
Ed
 1e-07 1 1 0
1  112 0 -14.5635142084472 -2.68648579155276
2  83 48 0 -14.5635142084472 -2.68648579155276
2  84 28 0 -14.5635142084472 -2.68648579155276
0

0101000
+122 0 -124 0 *
Ve
1e-07
35.5 17.1 32.25
0 0

0101101
*
Ed
 1e-07 1 1 0
1  113 0 1.5707963267949 3.14159265358979
2  85 41 0 1.5707963267949 3.14159265358979
2  86 28 0 1.5707963267949 3.14159265358979
0

0101000
+120 0 -122 0 *
Ve
1.5e-07
38.5 17.1 32.25
0 0

0101101
*
Ed
 1.5e-07 1 1 0
1  114 0 -1.26968820845309 1.73031179154691
2  87 49 0 -1.26968820845309 1.73031179154691
2  88 28 0 -1.26968820845309 1.73031179154691
0

0101000
+118 0 -120 0 *
Ed
 1.5e-07 1 1 0
1  115 0 -8.79839306185018 -8.27866004512214
2  89 33 0 -8.79839306185018 -8.27866004512214
2  90 28 0 -8.79839306185018 -8.27866004512214
0

0101000
+118 0 -143 0 *
Wi

0101100
-269 48 +265 0 +123 0 +121 0 +119 0 +117 0 -116 0 +141 0 *
Fa
0  1e-07 28 0

0111000
+115 0 *
Ve
1e-07
34.5 20.3 19.3729715831055
0 0

0101101
*
Ed
 1e-07 1 1 0
1  116 0 3.14159265358979 3.92699081698724
2  91 24 0 3.14159265358979 3.92699081698724
2  92 29 0 3.14159265358979 3.92699081698724
0

0101000
+113 0 -264 0 *
Ed
 1e-07 1 1 0
1  98 0 6.89999999999999 10.1
2  66 24 0 6.89999999999999 10.1
4 G1 24 0 48 0
0

0101000
+124 0 -113 0 *
Wi

0101100
-123 0 -263 0 +112 0 +111 0 *
Fa
0  1e-07 24 0

0111000
+110 0 *
Ve
1.50000019e-07
39.1973177160333 20.3 31.8855776811694
0 0

0101101
*
Ed
 1.00000015e-07 1 1 0
1  117 0 0 17.8855776811694
4 C2 51 0 29 0
0

0101000
+250 48 -108 0 *
Ve
1.50000004e-07
38.5 20.3 32.25
0 0

0101101
*
Ed
 1.5e-07 1 1 0
1  118 0 5.74644320280388 6.53324408203307
2  93 33 0 5.74644320280388 6.53324408203307
2  94 29 0 5.74644320280388 6.53324408203307
0

0101000
+108 0 -106 0 *
Ve
1e-07
35.5 20.3 32.25
0 0

0101101
*
Ed
 1.5e-07 1 1 0
1  119 0 0.825512000000003 3.825512
2  95 49 0 0.825512000000003 3.825512
2  96 29 0 0.825512000000003 3.825512
0

0101000
+104 0 -106 0 *
Ve
1e-07
34.5 20.3 31.25
0 0

0101101
*
Ed
 1e-07 1 1 0
1  120 0 1.5707963267949 3.14159265358979
2  97 41 0 1.5707963267949 3.14159265358979
2  98 29 0 1.5707963267949 3.14159265358979
0

0101000
+104 0 -102 0 *
Ed
 1e-07 1 1 0
1  121 0 2.68648579155276 14.5635142084472
2  99 48 0 2.68648579155276 14.5635142084472
2  100 29 0 2.68648579155276 14.5635142084472
0

0101000
+113 0 -102 0 *
Wi

0101100
-248 48 -107 0 -105 0 +103 0 -101 0 +100 0 -112 0 +262 0 *
Fa
0  1e-07 29 0

0111000
+99 0 *
Ve
1e-07
49.212853 23.7 25.2249740464678
0 0

0101101
*
Ed
 1e-07 1 1 0
1  122 0 0 11.2249740464678
4 C2 52 0 38 0
0

0101000
+258 48 -97 0 *
Ve
1.50000005e-07
46.2421878256073 23.7 28.2038873380715
0 0

0101101
*
Ed
 1e-07 1 1 0
1  123 0 0.478795638167629 1.0892280175972
2  101 22 0 0.478795638167629 1.0892280175972
2  102 52 0 0.478795638167629 1.0892280175972
0

0101000
+97 0 -95 0 *
Ve
1.50000019e-07
39.1973177160333 23.7 31.8855776811694
0 0

0101101
*
Ed
 1.5e-07 1 1 0
1  124 0 0.167577866617768 8.11647959221668
2  103 33 0 0.167577866617768 8.11647959221668
2  104 52 0 0.167577866617768 8.11647959221668
0

0101000
+95 0 -93 0 *
Ed
 1.00000014e-07 1 1 0
1  125 0 0 17.8855776811694
4 C2 52 0 31 0
0

0101000
+259 48 -93 0 *
Wi

0101100
-257 48 -96 0 -94 0 -92 0 +91 0 *
Ve
1e-07
45.8 23.7 22
0 0

0101101
*
Ed
 1e-07 1 1 0
1  126 0 0 6.28318530717959
2  101 34 0 0 6.28318530717959
2  105 52 0 0 6.28318530717959
0

0101100
+89 0 -89 0 *
Wi

0101100
+88 0 *
Fa
0  1e-07 52 0

0111000
+90 0 +87 0 *
Ed
 1e-07 1 1 0
1  127 0 0 0.478795638167629
2  106 22 0 0 0.478795638167629
2  107 38 0 0 0.478795638167629
0

0101000
+218 0 -97 0 *
Wi

0101100
-255 48 -217 0 -85 0 +96 0 *
Fa
0  1e-07 38 0

0111000
+84 0 *
Ve
1e-07
49.212853 20.3 25.2249740464678
0 0

0101101
*
Ed
 1e-07 1 1 0
1  128 0 0 11.2249740464678
4 C2 37 0 51 0
0

0101000
+252 48 -82 0 *
Ed
 1e-07 1 1 0
1  129 0 0 0.478795638167629
2  108 22 0 0 0.478795638167629
2  109 37 0 0 0.478795638167629
0

0101000
+221 0 -82 0 *
Wi

0101100
-251 48 -81 0 +80 0 -219 0 *
Fa
0  1e-07 37 0

0111000
+79 0 *
Ve
1.50000005e-07
46.2421878256073 20.3 28.2038873380715
0 0

0101101
*
Ed
 1.5e-07 1 1 0
1  130 0 -12.5547119159459 -4.605810190347
2  110 33 0 -12.5547119159459 -4.605810190347
2  111 51 0 -12.5547119159459 -4.605810190347
0

0101000
+108 0 -77 0 *
Ed
 1e-07 1 1 0
1  131 0 0.478795638167629 1.0892280175972
2  112 22 0 0.478795638167629 1.0892280175972
2  113 51 0 0.478795638167629 1.0892280175972
0

0101000
+82 0 -77 0 *
Wi

0101100
-249 48 -107 0 -76 0 +75 0 +81 0 *
Ve
1e-07
45.8 20.3 22
0 0

0101101
*
Ed
 1e-07 1 1 0
1  132 0 0 6.28318530717959
2  112 34 0 0 6.28318530717959
2  114 51 0 0 6.28318530717959
0

0101100
+73 0 -73 0 *
Wi

0101100
-72 0 *
Fa
0  1e-07 51 0

0111000
+74 0 +71 0 *
Ve
1e-07
34.5 23.7 19.3729715831055
0 0

0101101
*
Ed
 1e-07 1 1 0
1  133 0 3.14159265358979 3.92699081698724
2  115 24 0 3.14159265358979 3.92699081698724
2  116 31 0 3.14159265358979 3.92699081698724
0

0101000
+69 0 -244 0 *
Ve
1e-07
34.5 23.7 31.25
0 0

0101101
*
Ed
 1e-07 1 1 0
1  134 0 -14.5635142084472 -2.68648579155276
2  117 48 0 -14.5635142084472 -2.68648579155276
2  118 31 0 -14.5635142084472 -2.68648579155276
0

0101000
+67 0 -69 0 *
Ve
1e-07
35.5 23.7 32.25
0 0

0101101
*
Ed
 1e-07 1 1 0
1  135 0 1.5707963267949 3.14159265358979
2  119 41 0 1.5707963267949 3.14159265358979
2  120 31 0 1.5707963267949 3.14159265358979
0

0101000
+65 0 -67 0 *
Ve
1.5e-07
38.5 23.7 32.25
0 0

0101101
*
Ed
 1.5e-07 1 1 0
1  136 0 -1.15134114198332 1.84865885801668
2  121 49 0 -1.15134114198332 1.84865885801668
2  122 31 0 -1.15134114198332 1.84865885801668
0

0101000
+63 0 -65 0 *
Ed
 1.5e-07 1 1 0
1  137 0 -8.90328047144586 -8.11647959221667
2  123 33 0 -8.90328047144586 -8.11647959221667
2  124 31 0 -8.90328047144586 -8.11647959221667
0

0101000
+63 0 -93 0 *
Wi

0101100
-247 48 +243 0 +68 0 +66 0 +64 0 +62 0 -61 0 +91 0 *
Fa
0  1e-07 31 0

0111000
+60 0 *
Ed
 1e-07 1 1 0
1  98 0 13.5 17
2  66 24 0 13.5 17
4 G1 24 0 48 0
0

0101000
+69 0 -204 51 *
Wi

0101100
-68 0 -242 0 +203 51 +58 0 *
Fa
0  1e-07 24 0

0111000
+57 0 *
Ed
 1e-07 1 1 0
1  85 0 0 3
0

0101000
+206 0 -234 52 *
Wi

0101100
+55 51 -232 0 +241 51 -203 51 +201 51 -200 51 *
Fa
0  1e-07 40 50

0111000
+54 0 *
Ed
 1e-07 1 1 0
1  82 0 13.5 17
2  54 22 0 13.5 17
4 G1 22 0 33 0
0

0101000
+95 0 -236 0 *
Wi

0101100
-85 0 -94 0 -52 0 +235 0 +216 0 *
Fa
0  1e-07 22 0

0111000
+51 0 *
Ed
 1e-07 1 1 0
1  18 0 0 3.5
0

0101000
+234 56 -63 56 *
Wi

0101100
-92 0 +61 0 +49 55 -233 0 +52 0 *
Fa
0  1e-07 33 0

0111000
+48 0 *
Ed
 1e-07 1 1 0
1  138 0 13.5 17
3  22 125CN 34 0 13.5 17
0

0101000
+89 0 -230 0 *
Wi

0101100
-88 0 -46 0 +229 0 +46 0 *
Fa
0  1e-07 34 0

0111000
+45 0 *
Ed
 1e-07 1 1 0
1  82 0 6.9 10.1
2  54 22 0 6.9 10.1
4 G1 22 0 33 0
0

0101000
+145 0 -77 0 *
Wi

0101100
-135 0 -144 0 -43 0 +75 0 +80 0 +220 0 *
Fa
0  1e-07 22 0

0111000
+42 0 *
Ed
 1e-07 1 1 0
1  139 0 0 3.49999999999999
2  126 41 0 0 3.49999999999999
4 C1 49 0 41 0
0

0101000
+206 44 -154 0 *
Wi

0101100
-205 44 +196 55 +153 0 +40 0 *
Fa
0  1e-07 49 0

0111000
+39 0 *
Ed
 1e-07 1 1 0
1  140 0 0 3.49999999999999
2  66 41 0 0 3.49999999999999
4 C1 48 0 41 0
0

0101000
+202 44 -152 0 *
Wi

0101100
-201 44 -37 0 +150 0 +158 0 *
Fa
0  1e-07 48 0

0111000
+36 0 *
Wi

0101100
-200 44 -37 0 +151 0 +40 0 *
Fa
0  1e-07 41 0

0111000
+34 0 *
Wi

0101100
-186 58 -163 58 -181 58 -166 58 -176 58 -171 58 *
Ve
1e-07
45.8 11.7 22
0 0

0101101
*
Ed
 1e-07 1 1 0
1  141 0 0 6.28318530717959
2  127 34 3 0 6.28318530717959
2  128 53 57 0 6.28318530717959
0

0101100
+31 0 -31 0 *
Wi

0101100
+30 0 *
Fa
0  1e-07 53 57

0111000
+32 0 +29 0 *
Ed
 1e-07 1 1 0
1  18 0 6.9 10.1
0

0101000
+106 56 -118 56 *
Wi

0101100
-142 0 +116 0 +27 55 +105 0 -76 0 +43 0 *
Fa
0  1e-07 33 0

0111000
+26 0 *
Ed
 1e-07 1 1 0
1  138 0 6.9 10.1
3  22 125CN 34 0 6.9 10.1
0

0101000
+139 0 -73 0 *
Wi

0101100
-138 0 -24 0 +72 0 +24 0 *
Fa
0  1e-07 34 0

0111000
+23 0 *
Ed
 1e-07 1 1 0
1  138 0 1.5 3.5
3  22 125CN 34 0 1.5 3.5
0

0101000
+31 59 -128 0 *
Wi

0101100
-30 0 -21 3 +127 3 +21 3 *
Fa
0  1e-07 34 3

0111000
+20 0 *
Ed
 1e-07 1 1 0
1  140 0 6.89999999999999 10.1
2  66 41 0 6.89999999999999 10.1
4 C1 48 0 41 0
0

0101000
+122 0 -102 0 *
Wi

0101100
+121 0 -18 0 +100 0 +111 0 *
Fa
0  1e-07 48 0

0111000
+17 0 *
Ed
 1e-07 1 1 0
1  139 0 6.89999999999999 10.1
2  126 41 0 6.89999999999999 10.1
4 C1 49 0 41 0
0

0101000
+120 0 -104 0 *
Wi

0101100
-119 0 -18 0 +101 0 +15 0 *
Fa
0  1e-07 41 0

0111000
+14 0 *
Wi

0101100
+117 0 +27 55 +103 0 +15 0 *
Fa
0  1e-07 49 0

0111000
+12 0 *
Ed
 1e-07 1 1 0
1  140 0 13.5 17
2  66 41 0 13.5 17
4 C1 48 0 41 0
0

0101000
+67 0 -202 51 *
Wi

0101100
+66 0 -10 0 +201 51 +58 0 *
Fa
0  1e-07 48 0

0111000
+9 0 *
Ed
 1e-07 1 1 0
1  139 0 13.5 17
2  126 41 0 13.5 17
4 C1 49 0 41 0
0

0101000
+65 0 -206 51 *
Wi

0101100
-64 0 -10 0 +200 51 +7 0 *
Fa
0  1e-07 41 0

0111000
+6 0 *
Wi

0101100
+62 0 +49 55 +55 51 +7 0 *
Fa
0  1e-07 49 0

0111000
+4 0 *
Sh

0101100
-444 3 -435 3 -430 2 -423 3 -416 3 -413 3 +410 3 +404 3 -391 3 -387 3 
+380 3 +377 3 -374 3 -349 3 +345 3 +343 3 -328 3 -323 3 -318 3 -315 3 
-313 3 -311 3 +289 0 -282 3 +267 3 -260 3 +245 3 -239 3 +227 3 +214 3 
+207 3 -198 3 +191 3 -184 0 -179 0 -174 0 -169 0 -164 0 -161 0 +156 3 
+148 3 -136 3 -133 3 -130 3 -125 3 +114 3 +109 3 +98 3 -86 3 -83 3 
-78 3 -70 3 +59 3 +56 3 +53 3 +50 3 +47 3 -44 3 +41 3 -38 3 
-35 3 +33 3 -28 0 +25 3 -22 3 -19 0 -16 3 +13 3 -11 3 -8 3 
+5 3 -3 3 *
So

0100000
+2 0 *

+1 0 