DBRep_DrawableShape

CASCADE Topology V1, (c) Matra-Datavision
Locations 0
Curve2ds 12
1 0 0 1 0 
1 5 0 0 -1 
1 0 0 0 1 
1 0 -10 1 0 
1 0 0 0 -1 
1 0 10 1 0 
1 5 0 0 1 
1 9 0 0 -1 
1 0 -3 1 0 
1 10 0 0 1 
1 0 3 1 0 
1 9 0 0 1 
Curves 22
1 0 0 0 0 0 1 
1 0 0 5 -0 1 0 
1 0 10 0 0 0 1 
1 0 0 0 -0 1 0 
1 0 0 0 1 0 -0 
1 10 0 0 0 0 1 
1 0 0 5 1 0 -0 
1 0 0 5 0 0 1 
1 0 0 14 -0 1 0 
1 0 3 5 0 0 1 
1 0 10 5 1 0 -0 
1 10 0 5 -0 1 0 
1 0 3 5 1 0 -0 
1 0 10 0 1 0 -0 
1 10 10 0 0 0 1 
1 10 0 0 -0 1 0 
1 10 0 5 0 0 1 
1 0 0 14 1 0 -0 
1 0 3 14 1 0 -0 
1 10 0 14 -0 1 0 
1 9.3000000000000007 3 5 0 0 1 
1 10 3 5 0 0 1 
Polygon3D 0
PolygonOnTriangulations 0
Surfaces 12
1 0 0 0 1 0 -0 0 0 1 0 -1 0 
1 0 0 0 -0 1 0 0 0 1 1 0 -0 
1 0 0 5 0 0 1 1 0 -0 -0 1 0 
1 0 10 0 -0 1 0 0 0 1 1 0 -0 
1 0 0 0 0 0 1 1 0 -0 -0 1 0 
1 10 0 0 1 0 -0 0 0 1 0 -1 0 
1 0 0 5 1 0 -0 0 0 1 0 -1 0 
1 0 0 5 -0 1 0 0 0 1 1 0 -0 
1 0 0 14 0 0 1 1 0 -0 -0 1 0 
1 0 3 5 -0 1 0 0 0 1 1 0 -0 
1 0 0 5 0 0 1 1 0 -0 -0 1 0 
1 10 0 5 1 0 -0 0 0 1 0 -1 0 
Triangulations 0

TShapes 68
Ve
1e-07
0 0 0
0 0

0101101
*
Ve
1e-07
0 0 5
0 0

0101101
*
Ed
 1e-07 1 1 0
1  1 0 0 5
2  1 1 0 0 5
2  1 2 0 0 5
0

0101000
+68 0 -67 0 *
Ve
1e-07
0 3 5
0 0

0101101
*
Ed
 1e-07 1 1 0
1  2 0 0 3
2  2 1 0 0 3
2  3 3 0 0 3
0

0101000
+67 0 -65 0 *
Ve
1e-07
0 10 5
0 0

0101101
*
Ed
 1e-07 1 1 0
1  2 0 3 10
2  2 1 0 3 10
2  3 3 0 3 10
0

0101000
+65 0 -63 0 *
Ve
1e-07
0 10 0
0 0

0101101
*
Ed
 1e-07 1 1 0
1  3 0 0 5
2  4 1 0 0 5
2  1 4 0 0 5
0

0101000
-63 0 +61 0 *
Ed
 1e-07 1 1 0
1  4 0 0 10
2  5 1 0 0 10
2  3 5 0 0 10
0

0101000
-61 0 +68 0 *
Wi

0101100
-66 0 -64 0 -62 0 +60 0 +59 0 *
Fa
0  1e-07 1 0

0101000
+58 0 *
Ve
1e-07
10 0 0
0 0

0101101
*
Ed
 1e-07 1 1 0
1  5 0 0 10
2  3 2 0 0 10
2  1 5 0 0 10
0

0101000
-56 0 +68 0 *
Ve
1e-07
10 0 5
0 0

0101101
*
Ed
 1e-07 1 1 0
1  6 0 0 5
2  1 6 0 0 5
2  6 2 0 0 5
0

0101000
+56 0 -54 0 *
Ed
 1e-07 1 1 0
1  7 0 0 10
2  7 2 0 0 10
2  1 3 0 0 10
0

0101000
+67 0 -54 0 *
Wi

0101100
-55 0 -53 0 +52 0 +66 0 *
Fa
0  1e-07 2 0

0101000
+51 0 *
Ve
1e-07
0 0 14
0 0

0101101
*
Ed
 1e-07 1 1 0
1  8 0 0 9
2  1 7 0 0 9
2  1 8 0 0 9
0

0101000
+67 0 -49 0 *
Ve
1e-07
0 3 14
0 0

0101101
*
Ed
 1e-07 1 1 0
1  9 0 0 3
2  8 7 0 0 3
2  3 9 0 0 3
0

0101000
-47 0 +49 0 *
Ed
 1e-07 1 1 0
1  10 0 0 9
2  9 7 0 0 9
2  1 10 0 0 9
0

0101000
+65 0 -47 0 *
Wi

0101100
-48 0 -46 0 +45 0 +64 0 *
Fa
0  1e-07 7 0

0101000
+44 0 *
Ve
1e-07
10 10 5
0 0

0101101
*
Ed
 1e-07 1 1 0
1  11 0 0 10
2  7 4 0 0 10
2  6 3 0 0 10
0

0101000
-42 0 +63 0 *
Ve
1e-07
10 3 5
0 0

0101101
*
Ed
 1e-07 1 1 0
1  12 0 3 10
2  2 6 0 3 10
2  10 3 0 3 10
0

0101000
+40 0 -42 0 *
Ve
1e-07
9.3 3 5
0 0

0101101
*
Ed
 1e-07 1 1 0
1  13 0 0 9.3
2  3 10 0 0 9.3
2  11 11 0 0 9.3
0

0101000
+65 0 -38 0 *
Ed
 1e-07 1 1 0
1  13 0 9.3 10
2  3 10 0 9.3 10
2  11 11 0 9.3 10
0

0101000
+38 0 -40 0 *
Wi

0101100
-62 0 -41 0 +39 0 +37 0 +36 0 *
Fa
0  1e-07 3 0

0101000
+35 0 *
Ve
1e-07
10 10 0
0 0

0101101
*
Ed
 1e-07 1 1 0
1  14 0 0 10
2  3 4 0 0 10
2  6 5 0 0 10
0

0101000
-33 0 +61 0 *
Ed
 1e-07 1 1 0
1  15 0 0 5
2  4 6 0 0 5
2  6 4 0 0 5
0

0101000
-42 0 +33 0 *
Wi

0101100
-32 0 -31 0 +41 0 +60 0 *
Fa
0  1e-07 4 0

0111000
+30 0 *
Ed
 1e-07 1 1 0
1  16 0 0 10
2  5 6 0 0 10
2  10 5 0 0 10
0

0101000
-33 0 +56 0 *
Wi

0101100
-59 0 -32 0 +28 0 +55 0 *
Fa
0  1e-07 5 0

0111000
+27 0 *
Ed
 1e-07 1 1 0
1  12 0 0 3
2  2 6 0 0 3
2  10 3 0 0 3
0

0101000
+54 0 -40 0 *
Wi

0101100
-53 0 -25 0 -39 0 +31 0 +28 0 *
Fa
0  1e-07 6 0

0101000
+24 0 *
Ve
1e-07
10 0 14
0 0

0101101
*
Ed
 1e-07 1 1 0
1  17 0 0 9
2  1 12 0 0 9
2  6 8 0 0 9
0

0101000
+54 0 -22 0 *
Ed
 1e-07 1 1 0
1  18 0 0 10
2  12 8 0 0 10
2  1 9 0 0 10
0

0101000
-22 0 +49 0 *
Wi

0101100
-52 0 -21 0 +20 0 +48 0 *
Fa
0  1e-07 8 0

0101000
+19 0 *
Ve
1e-07
9.3 3 14
0 0

0101101
*
Ed
 1e-07 1 1 0
1  19 0 0 9.3
2  12 10 0 0 9.3
2  11 9 0 0 9.3
0

0101000
+47 0 -17 0 *
Ve
1e-07
10 3 14
0 0

0101101
*
Ed
 1e-07 1 1 0
1  19 0 9.3 10
2  12 10 0 9.3 10
2  11 9 0 9.3 10
0

0101000
+17 0 -15 0 *
Ed
 1e-07 1 1 0
1  20 0 0 3
2  8 12 0 0 3
2  10 9 0 0 3
0

0101000
-15 0 +22 0 *
Wi

0101100
-46 0 -16 0 -14 0 +13 0 +20 0 *
Fa
0  1e-07 9 0

0101000
+12 0 *
Ed
 1e-07 1 1 0
1  21 0 0 9
0

0101000
+38 0 -17 0 *
Wi

0101100
-37 0 -10 0 +16 0 +45 0 *
Fa
0  1e-07 10 0

0101000
+9 0 *
Ed
 1e-07 1 1 0
1  22 0 0 9
2  9 12 0 0 9
2  6 10 0 0 9
0

0101000
+40 0 -15 0 *
Wi

0101100
-36 0 -7 0 +14 0 +10 0 *
Fa
0  1e-07 10 0

0101000
+6 0 *
Wi

0101100
-21 0 -13 0 +7 0 +25 0 *
Fa
0  1e-07 12 0

0101000
+4 0 *
Sh

0101100
-57 0 -50 0 -43 0 +34 0 +29 0 -26 0 +23 0 -18 0 +11 0 +8 0 
+5 0 +3 0 *
So

0100000
+2 0 *

+1 0 