DBRep_DrawableShape

CASCADE Topology V1, (c) Matra-Datavision
Locations 2
1
              1               0               0               0 
              0               1               0               0 
              0               0               1               6 
2  1 -1 0
Curve2ds 9
1 0 0 1 0 
1 0 11.5 1 0 
1 6 0 0 -1 
1 11.5 0 0 1 
1 0 -17 1 0 
1 0 0 0 -1 
1 0 0 0 1 
1 6 0 0 1 
1 0 17 1 0 
Curves 17
1 50 10.199999999999999 -9.75 0 0 1 
1 50 10.199999999999999 -3.75 -0 1 0 
1 50 27.199999999999999 -9.75 0 0 1 
1 50 10.199999999999999 -9.75 -0 1 0 
1 38.5 10.199999999999999 -9.75 1 0 -0 
1 38.5 10.199999999999999 -3.75 1 0 -0 
1 38.5 10.199999999999999 -9.75 0 0 1 
1 38.5 10.199999999999999 -3.75 -0 1 0 
1 38.5 27.199999999999999 -3.75 1 0 -0 
1 38.5 27.199999999999999 -9.75 1 0 -0 
1 38.5 27.199999999999999 -9.75 0 0 1 
1 38.5 10.199999999999999 -9.75 -0 1 0 
1 17.356000000000002 -9.4250000000000007 -9.75 0 0 1 
1 17.356000000000002 -9.4250000000000007 -9.75 0.73294409761869395 0.68028887229317403 0 
1 38.5 27.199999999999999 -9.75 -0.93206296125283605 -0.36229633763066721 0 
1 10.898 16.471 -9.75 0.24197135300060027 -0.97028339382216522 0 
1 10.898 16.471 -9.75 0 0 1 
Polygon3D 0
PolygonOnTriangulations 0
Surfaces 10
1 50 10.199999999999999 -9.75 1 0 -0 0 0 1 0 -1 0 
1 38.5 10.199999999999999 -9.75 -0 1 0 0 0 1 1 0 -0 
1 38.5 10.199999999999999 -3.75 0 0 1 1 0 -0 -0 1 0 
1 38.5 27.199999999999999 -9.75 -0 1 0 0 0 1 1 0 -0 
1 38.5 10.199999999999999 -9.75 0 0 1 1 0 -0 -0 1 0 
1 38.5 10.199999999999999 -9.75 1 0 -0 0 0 1 0 -1 0 
1 17.356000000000002 -9.4250000000000007 -9.75 -0.68028887229317403 0.73294409761869395 0 0.73294409761869395 0.68028887229317403 0 0 0 -1 
1 25.145496239112433 10.472123765373409 -9.75 0 0 1 1 0 -0 -0 1 0 
1 38.5 27.199999999999999 -9.75 0.36229633763066721 -0.93206296125283605 0 -0.93206296125283605 -0.36229633763066721 0 0 -0 -1 
1 10.898 16.471 -9.75 0.97028339382216522 0.24197135300060027 -0 0.24197135300060027 -0.97028339382216522 0 0 -0 -1 
Triangulations 0

TShapes 52
Ve
1e-07
50 10.2 -3.75
0 0

0101101
*
Ve
1e-07
50 10.2 -9.75
0 0

0101101
*
Ed
 1e-07 1 1 0
1  1 0 0 6
2  1 1 0 0 6
2  2 2 0 0 6
0

0101000
-52 0 +51 0 *
Ve
1e-07
50 27.2 -3.75
0 0

0101101
*
Ed
 1e-07 1 1 0
1  2 0 0 17
2  3 1 0 0 17
2  4 3 0 0 17
0

0101000
-49 0 +52 0 *
Ve
1e-07
50 27.2 -9.75
0 0

0101101
*
Ed
 1e-07 1 1 0
1  3 0 0 6
2  5 1 0 0 6
2  2 4 0 0 6
0

0101000
-49 0 +47 0 *
Ed
 1e-07 1 1 0
1  4 0 0 17
2  6 1 0 0 17
2  4 5 0 0 17
0

0101000
-47 0 +51 0 *
Wi

0101100
-50 0 -48 0 +46 0 +45 0 *
Fa
0  1e-07 1 0

0111000
+44 0 *
Ve
1e-07
38.5 10.2 -9.75
0 0

0101101
*
Ed
 1e-07 1 1 0
1  5 0 0 11.5
2  7 2 0 0 11.5
2  1 5 0 0 11.5
0

0101000
+42 0 -51 0 *
Ve
1e-07
38.5 10.2 -3.75
0 0

0101101
*
Ed
 1e-07 1 1 0
1  6 0 0 11.5
2  8 2 0 0 11.5
2  1 3 0 0 11.5
0

0101000
+40 0 -52 0 *
Ed
 1e-07 1 1 0
1  7 0 0 6
2  1 6 0 0 6
2  1 2 0 0 6
0

0101000
+42 0 -40 0 *
Wi

0101100
-41 0 -50 0 +39 0 +38 0 *
Fa
0  1e-07 2 0

0101000
+37 0 *
Ve
1e-07
38.5 27.2 -3.75
0 0

0101101
*
Ed
 1e-07 1 1 0
1  8 0 0 17
2  3 6 0 0 17
2  7 3 0 0 17
0

0101000
+40 0 -35 0 *
Ed
 1e-07 1 1 0
1  9 0 0 11.5
2  8 4 0 0 11.5
2  9 3 0 0 11.5
0

0101000
+35 0 -49 0 *
Wi

0101100
-34 0 -33 0 +48 0 +39 0 *
Fa
0  1e-07 3 0

0101000
+32 0 *
Ve
1e-07
38.5 27.2 -9.75
0 0

0101101
*
Ed
 1e-07 1 1 0
1  10 0 0 11.5
2  7 4 0 0 11.5
2  9 5 0 0 11.5
0

0101000
+30 0 -47 0 *
Ed
 1e-07 1 1 0
1  11 0 0 6
2  5 6 0 0 6
2  1 4 0 0 6
0

0101000
+30 0 -35 0 *
Wi

0101100
-29 0 -46 0 +33 0 +28 0 *
Fa
0  1e-07 4 0

0101000
+27 0 *
Ed
 1e-07 1 1 0
1  12 0 0 17
2  6 6 0 0 17
2  7 5 0 0 17
0

0101000
+42 0 -30 0 *
Wi

0101100
-25 0 -29 0 +45 0 +41 0 *
Fa
0  1e-07 5 0

0101000
+24 0 *
Ve
1e-07
17.356 -9.425 -9.75
0 0

0101101
*
Ed
 1e-07 1 1 0
1  13 0 0 6
0

0101000
+22 0 -22 1 *
Ed
 1e-07 1 1 0
1  14 0 0 28.8480391188032
0

0101000
+22 0 -42 0 *
Ed
 1e-07 1 1 0
1  14 0 0 28.8480391188032
0

0101000
+22 0 -40 2 *
Wi

0101100
+21 0 -38 0 -20 0 +19 1 *
Fa
0  1e-07 7 0

0101000
+18 0 *
Ve
1e-07
10.898 16.471 -9.75
0 0

0101101
*
Ed
 1e-07 1 1 0
1  15 0 0 29.6138792629402
0

0101000
+35 2 -16 0 *
Ed
 1e-07 1 1 0
1  16 0 0 26.6891097640967
0

0101000
+16 0 -22 0 *
Wi

0101100
+19 1 +34 0 +15 1 +14 1 *
Fa
0  1e-07 8 1

0101000
+13 0 *
Ed
 1e-07 1 1 0
1  17 0 0 6
0

0101000
+16 0 -16 1 *
Ed
 1e-07 1 1 0
1  15 0 0 29.6138792629402
0

0101000
+30 0 -16 0 *
Wi

0101100
+28 0 -11 0 -10 0 +15 1 *
Fa
0  1e-07 9 0

0101000
+9 0 *
Wi

0101100
+20 0 +25 0 +10 0 +14 0 *
Fa
0  1e-07 8 0

0101000
+7 0 *
Wi

0101100
+11 0 -21 0 -14 0 +14 1 *
Fa
0  1e-07 10 0

0101000
+5 0 *
Sh

0101100
+43 0 -36 0 +31 0 +26 0 -23 0 -17 0 +12 0 -8 0 -6 0 -4 0 
*
So

0100000
+3 0 *
Co

1100000
+2 0 *

+1 0 