DBRep_DrawableShape

CASCADE Topology V1, (c) Matra-Datavision
Locations 0
Curve2ds 12
1 0 0 1 0 
1 5 0 0 -1 
1 0 0 0 1 
1 0 -10 1 0 
1 0 0 0 -1 
1 0 10 1 0 
1 5 0 0 1 
1 9 0 0 -1 
1 0 -3 1 0 
1 10 0 0 1 
1 0 3 1 0 
1 9 0 0 1 
Curves 21
1 0 0 0 0 0 1 
1 0 0 5 -0 1 0 
1 0 10 0 0 0 1 
1 0 0 0 -0 1 0 
1 0 0 0 1 0 -0 
1 10 0 0 0 0 1 
1 0 0 5 1 0 -0 
1 0 0 5 0 0 1 
1 0 0 14 -0 1 0 
1 0 3 5 0 0 1 
1 0 10 5 1 0 -0 
1 10 0 5 -0 1 0 
1 0 3 5 1 0 -0 
1 0 10 0 1 0 -0 
1 10 10 0 0 0 1 
1 10 0 0 -0 1 0 
1 10 0 5 0 0 1 
1 0 0 14 1 0 -0 
1 0 3 14 1 0 -0 
1 10 0 14 -0 1 0 
1 10 3 5 0 0 1 
Polygon3D 0
PolygonOnTriangulations 0
Surfaces 12
1 0 0 0 1 0 -0 0 0 1 0 -1 0 
1 0 0 0 -0 1 0 0 0 1 1 0 -0 
1 0 0 5 0 0 1 1 0 -0 -0 1 0 
1 0 10 0 -0 1 0 0 0 1 1 0 -0 
1 0 0 0 0 0 1 1 0 -0 -0 1 0 
1 10 0 0 1 0 -0 0 0 1 0 -1 0 
1 0 0 5 1 0 -0 0 0 1 0 -1 0 
1 0 0 5 -0 1 0 0 0 1 1 0 -0 
1 0 0 14 0 0 1 1 0 -0 -0 1 0 
1 0 3 5 -0 1 0 0 0 1 1 0 -0 
1 0 0 5 0 0 1 1 0 -0 -0 1 0 
1 10 0 5 1 0 -0 0 0 1 0 -1 0 
Triangulations 0

TShapes 62
Ve
1e-07
0 0 0
0 0

0101101
*
Ve
1e-07
0 0 5
0 0

0101101
*
Ed
 1e-07 1 1 0
1  1 0 0 5
2  1 1 0 0 5
2  1 2 0 0 5
0

0101000
+62 0 -61 0 *
Ve
1e-07
0 3 5
0 0

0101101
*
Ed
 1e-07 1 1 0
1  2 0 0 3
2  2 1 0 0 3
2  3 3 0 0 3
0

0101000
+61 0 -59 0 *
Ve
1e-07
0 10 5
0 0

0101101
*
Ed
 1e-07 1 1 0
1  2 0 3 10
2  2 1 0 3 10
2  3 3 0 3 10
0

0101000
+59 0 -57 0 *
Ve
1e-07
0 10 0
0 0

0101101
*
Ed
 1e-07 1 1 0
1  3 0 0 5
2  4 1 0 0 5
2  1 4 0 0 5
0

0101000
-57 0 +55 0 *
Ed
 1e-07 1 1 0
1  4 0 0 10
2  5 1 0 0 10
2  3 5 0 0 10
0

0101000
-55 0 +62 0 *
Wi

0101100
-60 0 -58 0 -56 0 +54 0 +53 0 *
Fa
0  1e-07 1 0

0101000
+52 0 *
Ve
1e-07
10 0 0
0 0

0101101
*
Ed
 1e-07 1 1 0
1  5 0 0 10
2  3 2 0 0 10
2  1 5 0 0 10
0

0101000
-50 0 +62 0 *
Ve
1e-07
10 0 5
0 0

0101101
*
Ed
 1e-07 1 1 0
1  6 0 0 5
2  1 6 0 0 5
2  6 2 0 0 5
0

0101000
+50 0 -48 0 *
Ed
 1e-07 1 1 0
1  7 0 0 10
2  7 2 0 0 10
2  1 3 0 0 10
0

0101000
+61 0 -48 0 *
Wi

0101100
-49 0 -47 0 +46 0 +60 0 *
Fa
0  1e-07 2 0

0101000
+45 0 *
Ve
1e-07
0 0 14
0 0

0101101
*
Ed
 1e-07 1 1 0
1  8 0 0 9
2  1 7 0 0 9
2  1 8 0 0 9
0

0101000
+61 0 -43 0 *
Ve
1e-07
0 3 14
0 0

0101101
*
Ed
 1e-07 1 1 0
1  9 0 0 3
2  8 7 0 0 3
2  3 9 0 0 3
0

0101000
-41 0 +43 0 *
Ed
 1e-07 1 1 0
1  10 0 0 9
2  9 7 0 0 9
2  1 10 0 0 9
0

0101000
+59 0 -41 0 *
Wi

0101100
-42 0 -40 0 +39 0 +58 0 *
Fa
0  1e-07 7 0

0101000
+38 0 *
Ve
1e-07
10 10 5
0 0

0101101
*
Ed
 1e-07 1 1 0
1  11 0 0 10
2  7 4 0 0 10
2  6 3 0 0 10
0

0101000
-36 0 +57 0 *
Ve
1e-07
10 3 5
0 0

0101101
*
Ed
 1e-07 1 1 0
1  12 0 3 10
2  2 6 0 3 10
2  10 3 0 3 10
0

0101000
+34 0 -36 0 *
Ed
 1e-07 1 1 0
1  13 0 0 10
2  3 10 0 0 10
2  11 11 0 0 10
0

0101000
+59 0 -34 0 *
Wi

0101100
-56 0 -35 0 +33 0 +32 0 *
Fa
0  1e-07 3 0

0101000
+31 0 *
Ve
1e-07
10 10 0
0 0

0101101
*
Ed
 1e-07 1 1 0
1  14 0 0 10
2  3 4 0 0 10
2  6 5 0 0 10
0

0101000
-29 0 +55 0 *
Ed
 1e-07 1 1 0
1  15 0 0 5
2  4 6 0 0 5
2  6 4 0 0 5
0

0101000
-36 0 +29 0 *
Wi

0101100
-28 0 -27 0 +35 0 +54 0 *
Fa
0  1e-07 4 0

0111000
+26 0 *
Ed
 1e-07 1 1 0
1  16 0 0 10
2  5 6 0 0 10
2  10 5 0 0 10
0

0101000
-29 0 +50 0 *
Wi

0101100
-53 0 -28 0 +24 0 +49 0 *
Fa
0  1e-07 5 0

0111000
+23 0 *
Ed
 1e-07 1 1 0
1  12 0 0 3
2  2 6 0 0 3
2  10 3 0 0 3
0

0101000
+48 0 -34 0 *
Wi

0101100
-47 0 -21 0 -33 0 +27 0 +24 0 *
Fa
0  1e-07 6 0

0101000
+20 0 *
Ve
1e-07
10 0 14
0 0

0101101
*
Ed
 1e-07 1 1 0
1  17 0 0 9
2  1 12 0 0 9
2  6 8 0 0 9
0

0101000
+48 0 -18 0 *
Ed
 1e-07 1 1 0
1  18 0 0 10
2  12 8 0 0 10
2  1 9 0 0 10
0

0101000
-18 0 +43 0 *
Wi

0101100
-46 0 -17 0 +16 0 +42 0 *
Fa
0  1e-07 8 0

0101000
+15 0 *
Ve
1e-07
10 3 14
0 0

0101101
*
Ed
 1e-07 1 1 0
1  19 0 0 10
2  12 10 0 0 10
2  11 9 0 0 10
0

0101000
-13 0 +41 0 *
Ed
 1e-07 1 1 0
1  20 0 0 3
2  8 12 0 0 3
2  10 9 0 0 3
0

0101000
-13 0 +18 0 *
Wi

0101100
-40 0 -12 0 +11 0 +16 0 *
Fa
0  1e-07 9 0

0111000
+10 0 *
Ed
 1e-07 1 1 0
1  21 0 0 9
2  9 12 0 0 9
2  6 10 0 0 9
0

0101000
+34 0 -13 0 *
Wi

0101100
-32 0 -8 0 +12 0 +39 0 *
Fa
0  1e-07 10 0

0101000
+7 0 *
Wi

0101100
-17 0 -11 0 +8 0 +21 0 *
Fa
0  1e-07 12 0

0101000
+5 0 *
Sh

0101100
-51 0 -44 0 -37 0 +30 0 +25 0 -22 0 +19 0 -14 0 +9 0 +6 0 
+4 0 *
So

0100000
+3 0 *
Co

1100000
+2 0 *

+1 0 