DBRep_DrawableShape

CASCADE Topology V1, (c) Matra-Datavision
Locations 0
Curve2ds 15
1 0 0 1 0 
1 5 0.34999999999999964 -1 0 
1 10 0 0 -1 
1 10 0 0 1 
1 0 -10 1 0 
1 0 10 1 0 
1 0 0 0 -1 
1 0 0 0 1 
8 0 10
1 5 -4.6500000000000004 -1 -0 
1 5 -4.6500000000000004 0 1 
1 5 -9.6500000000000004 0 1 
8 0 9.3000000000000007
1 -5 -4.6500000000000004 -0 1 
8 9.3000000000000007 10
1 -5 -9.6500000000000004 -0 1 
1 5 4.6500000000000004 -1 0 
8 0 10
1 5 -0.34999999999999964 -1 -0 
Curves 13
1 10 0 0 0 0 1 
1 10 0 10 -0 1 0 
1 10 10 0 0 0 1 
1 10 0 0 -0 1 0 
1 0 10 0 1 0 -0 
1 0 10 10 1 0 -0 
1 0 10 0 0 0 1 
1 0 0 0 0 0 1 
1 0 0 10 -0 1 0 
1 0 0 0 -0 1 0 
1 0 0 0 1 0 -0 
1 0 0 10 1 0 -0 
1 9.3000000000000007 0 0 0 0 1 
Polygon3D 0
PolygonOnTriangulations 0
Surfaces 7
1 10 0 0 1 0 -0 0 0 1 0 -1 0 
1 9.6500000000000004 0 5 -0 -1 -0 0 0 -1 1 -0 0 
1 0 0 10 0 0 1 1 0 -0 -0 1 0 
1 0 10 0 -0 1 0 0 0 1 1 0 -0 
1 0 0 0 0 0 1 1 0 -0 -0 1 0 
1 0 0 0 1 0 -0 0 0 1 0 -1 0 
1 4.6500000000000004 0 5 -0 -1 -0 0 0 -1 1 -0 0 
Triangulations 0

TShapes 41
Ve
1e-07
10 0 0
0 0

0101101
*
Ve
1e-07
10 0 10
0 0

0101101
*
Ed
 1e-07 1 1 0
1  1 0 0 10
2  1 1 0 0 10
2  2 2 0 0 10
4 C0 1 0 2 0
0

0101000
+41 0 -40 0 *
Ve
1e-07
10 10 10
0 0

0101101
*
Ed
 1e-07 1 1 0
1  2 0 0 10
2  3 1 0 0 10
2  4 3 0 0 10
0

0101000
-38 0 +40 0 *
Ve
1e-07
10 10 0
0 0

0101101
*
Ed
 1e-07 1 1 0
1  3 0 0 10
2  5 1 0 0 10
2  6 4 0 0 10
0

0101000
-38 0 +36 0 *
Ed
 1e-07 1 1 0
1  4 0 0 10
2  7 1 0 0 10
2  4 5 0 0 10
0

0101000
-36 0 +41 0 *
Wi

0101100
-39 0 -37 0 +35 0 +34 0 *
Fa
0  1e-07 1 0

0101000
+33 0 *
Ve
1e-07
0 10 0
0 0

0101101
*
Ed
 1e-07 1 1 0
1  5 0 0 10
2  8 4 0 0 10
2  6 5 0 0 10
0

0101000
-36 0 +31 0 *
Ve
1e-07
0 10 10
0 0

0101101
*
Ed
 1e-07 1 1 0
1  6 0 0 10
2  4 4 0 0 10
2  6 3 0 0 10
0

0101000
-38 0 +29 0 *
Ed
 1e-07 1 1 0
1  7 0 0 10
2  5 6 0 0 10
2  1 4 0 0 10
0

0101000
-29 0 +31 0 *
Wi

0101100
-30 0 -35 0 +28 0 +27 0 *
Fa
0  1e-07 4 0

0111000
+26 0 *
Ve
1e-07
0 0 0
0 0

0101101
*
Ve
1e-07
0 0 10
0 0

0101101
*
Ed
 1e-07 1 1 0
1  8 0 0 10
2  1 6 0 0 10
2  9 7 0 0 10
4 C0 6 0 7 0
0

0101000
+24 0 -23 0 *
Ed
 1e-07 1 1 0
1  9 0 0 10
2  3 6 0 0 10
2  8 3 0 0 10
0

0101000
-29 0 +23 0 *
Ed
 1e-07 1 1 0
1  10 0 0 10
2  7 6 0 0 10
2  8 5 0 0 10
0

0101000
-31 0 +24 0 *
Wi

0101100
-22 0 -21 0 +27 0 +20 0 *
Fa
0  1e-07 6 0

0101000
+19 0 *
Ve
1e-07
9.3 0 0
0 0

0101101
*
Ed
 1e-07 1 1 0
1  11 0 0 9.3
2  1 5 0 0 9.3
2  10 7 0 0 9.3
4 C0 5 0 7 0
0

0101000
+24 0 -17 0 *
Ed
 1e-07 1 1 0
1  11 0 9.3 10
2  1 5 0 9.3 10
2  11 2 0 9.3 10
4 C0 5 0 2 0
0

0101000
+17 0 -41 0 *
Wi

0101100
-20 0 -30 0 +34 0 +16 0 +15 0 *
Fa
0  1e-07 5 0

0101000
+14 0 *
Ve
1e-07
9.3 0 10
0 0

0101101
*
Ed
 1e-07 1 1 0
1  12 0 0 9.3
2  1 3 0 0 9.3
2  12 7 0 0 9.3
4 C0 3 0 7 0
0

0101000
+23 0 -12 0 *
Ed
 1e-07 1 1 0
1  12 0 9.3 10
2  1 3 0 9.3 10
2  13 2 0 9.3 10
4 C0 3 0 2 0
0

0101000
+12 0 -40 0 *
Wi

0101100
-21 0 -28 0 +37 0 +11 0 +10 0 *
Fa
0  1e-07 3 0

0101000
+9 0 *
Ed
 1e-07 1 1 0
1  13 0 0 10
2  14 7 0 0 10
2  15 2 0 0 10
4 CN 7 0 2 0
0

0101000
+17 0 -12 0 *
Wi

0101100
+16 0 +7 0 -11 0 -22 0 *
Fa
0  1e-07 7 0

0101000
+6 0 *
Wi

0101100
+15 0 +39 0 -10 0 -7 0 *
Fa
0  1e-07 2 0

0101000
+4 0 *
Sh

0101100
+32 0 +25 0 -18 0 -13 0 +8 0 +5 0 +3 0 *
So

1100000
+2 0 *

+1 0 