DBRep_DrawableShape

CASCADE Topology V1, (c) Matra-Datavision
Locations 0
Curve2ds 19
1 14 0 0 -1 
1 0 0 0 1 
8 2.5 11.5
1 2.5 -3 1 0 
8 2.5 11.5
1 -2.5 1 1 0 
8 -4.5 -1.5
1 5 -1.5 0 1 
8 -4.5 -1.5
1 1 -1.5 0 -1 
8 2.5 11.5
1 2.5 -6 1 0 
1 0 -10 1 0 
1 0 0 1 0 
1 0 0 0 -1 
8 -10.5 -0.5
1 -0.5 3 -1 0 
8 -10.5 -0.5
1 9 0.5 0 -1 
1 10 0 0 1 
1 14 0 0 1 
8 2.5 11.5
1 -2.5 11 1 0 
1 0 3 1 0 
8 -4.5 -1.5
1 11 -1.5 0 -1 
8 -10.5 -0.5
1 -0.5 6 -1 0 
1 0 10 1 0 
Curves 23
1 0 0 14 -0 1 0 
1 0 3 2.5 0 0 1 
1 0 1.5 5 0 -1 0 
1 0 6 2.5 0 0 1 
1 0 10 0 0 0 1 
1 0 0 0 -0 1 0 
1 0 0 0 0 0 1 
1 -0.5 3 14 -1 -0 0 
1 10 0 14 -0 1 0 
1 0 0 14 1 0 -0 
1 -1 3 5 1 0 -0 
1 10 3 2.5 0 0 1 
1 -1 6 5 1 0 -0 
1 10 1.5 5 0 -1 0 
1 10 6 2.5 0 0 1 
1 -0.5 6 14 -1 -0 0 
1 0 10 14 1 0 -0 
1 0 10 0 1 0 -0 
1 10 10 0 0 0 1 
1 10 0 0 -0 1 0 
1 0 0 0 1 0 -0 
1 10 0 0 0 0 1 
1 10 3 0 0 0 1 
Polygon3D 0
PolygonOnTriangulations 0
Surfaces 9
1 0 0 0 1 0 -0 0 0 1 0 -1 0 
1 0 0 14 0 0 1 1 0 -0 -0 1 0 
1 -1 3 5 -0 1 0 0 0 1 1 0 -0 
1 -1 3 5 0 0 1 1 0 -0 -0 1 0 
1 -1 6 5 -0 1 0 0 0 1 1 0 -0 
1 0 10 0 -0 1 0 0 0 1 1 0 -0 
1 0 0 0 0 0 1 1 0 -0 -0 1 0 
1 0 0 0 -0 1 0 0 0 1 1 0 -0 
1 10 0 0 1 0 -0 0 0 1 0 -1 0 
Triangulations 0

TShapes 67
Ve
1e-07
0 0 14
0 0

0101101
*
Ve
1.5e-07
0 3 14
0 0

0101101
*
Ed
 1e-07 1 1 0
1  1 0 0 3
2  1 1 0 0 3
2  2 2 0 0 3
0

0101000
+67 0 -66 0 *
Ve
1.5e-07
0 3 5
0 0

0101101
*
Ed
 1.5e-07 1 1 0
1  2 0 2.5 11.5
2  3 1 0 2.5 11.5
2  4 3 0 2.5 11.5
0

0101000
+64 0 -66 0 *
Ve
1.5e-07
0 6 5
0 0

0101101
*
Ed
 1.5e-07 1 1 0
1  3 0 -4.5 -1.5
2  5 1 0 -4.5 -1.5
2  6 4 0 -4.5 -1.5
0

0101000
+62 0 -64 0 *
Ve
1.5e-07
0 6 14
0 0

0101101
*
Ed
 1.5e-07 1 1 0
1  4 0 2.5 11.5
2  7 1 0 2.5 11.5
2  4 5 0 2.5 11.5
0

0101000
+62 0 -60 0 *
Ve
1e-07
0 10 14
0 0

0101101
*
Ed
 1e-07 1 1 0
1  1 0 6 10
2  1 1 0 6 10
2  2 2 0 6 10
0

0101000
+60 0 -58 0 *
Ve
1e-07
0 10 0
0 0

0101101
*
Ed
 1e-07 1 1 0
1  5 0 0 14
2  8 1 0 0 14
2  9 6 0 0 14
0

0101000
-58 0 +56 0 *
Ve
1e-07
0 0 0
0 0

0101101
*
Ed
 1e-07 1 1 0
1  6 0 0 10
2  10 1 0 0 10
2  2 7 0 0 10
0

0101000
-56 0 +54 0 *
Ed
 1e-07 1 1 0
1  7 0 0 14
2  9 1 0 0 14
2  9 8 0 0 14
0

0101000
-67 0 +54 0 *
Wi

0101100
-65 0 +63 0 +61 0 -59 0 -57 0 +55 0 +53 0 -52 0 *
Fa
0  1e-07 1 0

0101000
+51 0 *
Ve
1.5e-07
10 3 14
0 0

0101101
*
Ed
 1.5e-07 1 1 0
1  8 0 -10.5 -0.5
2  11 2 0 -10.5 -0.5
2  12 3 0 -10.5 -0.5
0

0101000
+49 0 -66 0 *
Ve
1e-07
10 0 14
0 0

0101101
*
Ed
 1e-07 1 1 0
1  9 0 0 3
2  1 9 0 0 3
2  13 2 0 0 3
0

0101000
+47 0 -49 0 *
Ed
 1e-07 1 1 0
1  10 0 0 10
2  14 8 0 0 10
2  9 2 0 0 10
0

0101000
-47 0 +67 0 *
Wi

0101100
-65 0 +48 0 +46 0 +45 0 *
Fa
0  1e-07 2 0

0101000
+44 0 *
Ve
1.5e-07
10 3 5
0 0

0101101
*
Ed
 1e-07 1 1 0
1  11 0 1 11
2  2 3 0 1 11
2  9 4 0 1 11
0

0101000
+64 0 -42 0 *
Ed
 1.5e-07 1 1 0
1  12 0 2.5 11.5
2  3 9 0 2.5 11.5
2  15 3 0 2.5 11.5
0

0101000
+42 0 -49 0 *
Wi

0101100
-41 0 -40 0 -48 0 +63 0 *
Fa
0  1e-07 3 0

0101000
+39 0 *
Ve
1.5e-07
10 6 5
0 0

0101101
*
Ed
 1e-07 1 1 0
1  13 0 1 11
2  2 5 0 1 11
2  16 4 0 1 11
0

0101000
+62 0 -37 0 *
Ed
 1.5e-07 1 1 0
1  14 0 -4.5 -1.5
2  5 9 0 -4.5 -1.5
2  17 4 0 -4.5 -1.5
0

0101000
+37 0 -42 0 *
Wi

0101100
-36 0 -35 0 +41 0 +61 0 *
Fa
0  1e-07 4 0

0101000
+34 0 *
Ve
1.5e-07
10 6 14
0 0

0101101
*
Ed
 1.5e-07 1 1 0
1  15 0 2.5 11.5
2  7 9 0 2.5 11.5
2  15 5 0 2.5 11.5
0

0101000
+37 0 -32 0 *
Ed
 1.5e-07 1 1 0
1  16 0 -10.5 -0.5
2  18 2 0 -10.5 -0.5
2  12 5 0 -10.5 -0.5
0

0101000
+32 0 -60 0 *
Wi

0101100
-36 0 -31 0 -30 0 +59 0 *
Fa
0  1e-07 5 0

0101000
+29 0 *
Ve
1e-07
10 10 14
0 0

0101101
*
Ed
 1e-07 1 1 0
1  17 0 0 10
2  14 6 0 0 10
2  19 2 0 0 10
0

0101000
-27 0 +58 0 *
Ed
 1e-07 1 1 0
1  9 0 6 10
2  1 9 0 6 10
2  13 2 0 6 10
0

0101000
+32 0 -27 0 *
Wi

0101100
-57 0 -26 0 +25 0 -30 0 *
Fa
0  1e-07 2 0

0101000
+24 0 *
Ve
1e-07
10 10 0
0 0

0101101
*
Ed
 1e-07 1 1 0
1  18 0 0 10
2  2 6 0 0 10
2  19 7 0 0 10
0

0101000
-22 0 +56 0 *
Ed
 1e-07 1 1 0
1  19 0 0 14
2  8 9 0 0 14
2  19 6 0 0 14
0

0101000
-27 0 +22 0 *
Wi

0101100
-21 0 -20 0 +26 0 +55 0 *
Fa
0  1e-07 6 0

0111000
+19 0 *
Ve
1e-07
10 0 0
0 0

0101101
*
Ve
1e-07
10 3 0
0 0

0101101
*
Ed
 1e-07 1 1 0
1  20 0 0 3
2  10 9 0 0 3
2  13 7 0 0 3
0

0101000
+17 0 -16 0 *
Ed
 1e-07 1 1 0
1  20 0 3 10
2  10 9 0 3 10
2  13 7 0 3 10
0

0101000
+16 0 -22 0 *
Ed
 1e-07 1 1 0
1  21 0 0 10
2  2 8 0 0 10
2  9 7 0 0 10
0

0101000
-17 0 +54 0 *
Wi

0101100
-53 0 -21 0 +15 0 +14 0 +13 0 *
Fa
0  1e-07 7 0

0101000
+12 0 *
Ed
 1e-07 1 1 0
1  22 0 0 14
2  9 9 0 0 14
2  19 8 0 0 14
0

0101000
-47 0 +17 0 *
Wi

0101100
-13 0 -10 0 +45 0 +52 0 *
Fa
0  1e-07 8 0

0111000
+9 0 *
Ed
 1e-07 1 1 0
1  23 0 0 5
0

0101000
+16 0 -42 0 *
Wi

0101100
-46 0 +40 0 +7 0 +15 0 -10 0 *
Fa
0  1e-07 9 0

0101000
+6 0 *
Wi

0101100
+35 0 -31 0 -25 0 +20 0 +14 0 -7 0 *
Fa
0  1e-07 9 0

0101000
+4 0 *
Sh

0101100
-50 0 +43 0 +38 0 +33 0 -28 0 +23 0 +18 0 -11 0 -8 0 +5 0 
+3 0 *
So

0100000
+2 0 *

+1 0 