DBRep_DrawableShape

CASCADE Topology V1, (c) Matra-Datavision
Locations 4
1
              1               0               0               0 
              0               1               0               0 
              0               0               1               6 
2  1 -1 0
1
              1               0               0               0 
              0               1               0               0 
              0               0               1               6 
2  3 -1 0
Curve2ds 0
Curves 13
1 38.5 10.199999999999999 -9.75 0 0 1 
1 50 10.199999999999999 -9.75 0 0 1 
1 38.5 10.199999999999999 -9.75 1 0 0 
1 17.356000000000002 -9.4250000000000007 -9.75 0 0 1 
1 38.5 10.199999999999999 -9.75 -0.73294409761869395 -0.68028887229317403 0 
1 50 27.199999999999999 -9.75 0 0 1 
1 50 10.199999999999999 -9.75 0 1 0 
1 38.5 27.199999999999999 -9.75 0 -1 0 
1 50 27.199999999999999 -9.75 -1 0 0 
1 10.898 16.471 -9.75 0 0 1 
1 17.356000000000002 -9.4250000000000007 -9.75 -0.24197135300060027 0.97028339382216522 0 
1 10.898 16.471 -9.75 0.93206296125283605 0.36229633763066721 0 
1 38.5 27.199999999999999 -9.75 0 0 1 
Polygon3D 0
PolygonOnTriangulations 0
Surfaces 8
1 38.5 10.199999999999999 -9.75 0 1 0 1 0 0 0 0 -1 
1 38.5 10.199999999999999 -9.75 0.68028887229317403 -0.73294409761869395 0 -0.73294409761869395 -0.68028887229317403 0 0 -0 -1 
1 50 10.199999999999999 -9.75 -1 0 0 0 1 0 0 0 -1 
1 44.25 18.699999999999999 -9.75 0 0 1 1 0 -0 -0 1 0 
1 17.356000000000002 -9.4250000000000007 -9.75 -0.97028339382216522 -0.24197135300060027 0 -0.24197135300060027 0.97028339382216522 0 -0 0 -1 
1 25.145496239112433 10.472123765373407 -9.75 -0 -0 -1 -1 0 0 0 1 -0 
1 50 27.199999999999999 -9.75 0 -1 0 -1 0 0 -0 -0 -1 
1 10.898 16.471 -9.75 -0.36229633763066721 0.93206296125283605 0 0.93206296125283605 0.36229633763066721 0 0 0 -1 
Triangulations 0

TShapes 49
Ve
1e-07
38.5 10.2 -9.75
0 0

0101101
*
Ve
1e-07
38.5 10.2 -3.75
0 0

0101101
*
Ed
 1e-07 1 1 0
1  1 0 0 6
0

0101000
+49 0 -48 0 *
Ve
1e-07
50 10.2 -9.75
0 0

0101101
*
Ed
 1e-07 1 1 0
1  2 0 0 6
0

0101000
+46 0 -46 1 *
Ed
 1e-07 1 1 0
1  3 0 0 11.5
0

0101000
+49 0 -46 0 *
Ed
 1e-07 1 1 0
1  3 0 0 11.5
0

0101000
+48 2 -46 0 *
Wi

0101100
+47 0 -45 0 -44 0 +43 1 *
Fa
0  1e-07 1 0

0101000
+42 0 *
Ve
1e-07
17.356 -9.425 -9.75
0 0

0101101
*
Ed
 1e-07 1 1 0
1  4 0 0 6
0

0101000
+40 0 -40 3 *
Ed
 1e-07 1 1 0
1  5 0 0 28.8480391188032
0

0101000
+49 0 -40 0 *
Ed
 1e-07 1 1 0
1  5 0 0 28.8480391188032
0

0101000
+48 4 -40 0 *
Wi

0101100
+47 0 -39 0 -38 0 +37 3 *
Fa
0  1e-07 2 0

0101000
+36 0 *
Ve
1e-07
50 27.2 -9.75
0 0

0101101
*
Ed
 1e-07 1 1 0
1  6 0 0 6
0

0101000
+34 0 -34 1 *
Ed
 1e-07 1 1 0
1  7 0 0 17
0

0101000
+46 0 -34 0 *
Wi

0101100
+45 0 -33 0 -32 0 +32 1 *
Fa
0  1e-07 3 0

0101000
+31 0 *
Ve
1e-07
38.5 27.2 -9.75
0 0

0101101
*
Ed
 1e-07 1 1 0
1  8 0 0 17
0

0101000
+29 0 -49 0 *
Ed
 1e-07 1 1 0
1  9 0 0 11.5
0

0101000
+34 0 -29 0 *
Wi

0101100
+28 0 +44 0 +32 0 +27 0 *
Fa
0  1e-07 4 0

0101000
+26 0 *
Ve
1e-07
38.5 27.2 -3.75
0 0

0101101
*
Ed
 1e-07 1 1 0
1  8 0 0 17
0

0101000
+24 2 -48 2 *
Ed
 1e-07 1 1 0
1  9 0 0 11.5
0

0101000
+34 0 -24 2 *
Wi

0101100
+23 1 +43 1 +32 1 +22 1 *
Fa
0  1e-07 4 1

0101000
+21 0 *
Ve
1e-07
10.898 16.471 -9.75
0 0

0101101
*
Ed
 1e-07 1 1 0
1  10 0 0 6
0

0101000
+19 0 -19 3 *
Ed
 1e-07 1 1 0
1  11 0 0 26.6891097640967
0

0101000
+40 0 -19 0 *
Wi

0101100
+39 0 -18 0 -17 0 +17 3 *
Fa
0  1e-07 5 0

0101000
+16 0 *
Ed
 1e-07 1 1 0
1  12 0 0 29.6138792629402
0

0101000
+19 0 -29 0 *
Wi

0101100
+14 0 +28 0 +38 0 +17 0 *
Fa
0  1e-07 6 0

0101000
+13 0 *
Ed
 1e-07 1 1 0
1  12 0 0 29.6138792629402
0

0101000
+19 0 -24 4 *
Wi

0101100
+11 3 +23 1 +37 3 +17 3 *
Fa
0  1e-07 6 3

0101000
+10 0 *
Ed
 1e-07 1 1 0
1  13 0 0 6
0

0101000
+29 0 -24 0 *
Wi

0101100
+33 0 -8 0 -27 0 +22 1 *
Fa
0  1e-07 7 0

0101000
+7 0 *
Wi

0101100
+18 0 -8 0 -14 0 +11 3 *
Fa
0  1e-07 8 0

0101000
+5 0 *
Sh

0101100
-41 0 +35 0 -30 0 -25 0 +20 0 +15 0 +12 0 -9 0 -6 0 +4 0 
*
So

0100000
+3 0 *
Co

1100000
+2 0 *

+1 0 